<?xml version="1.0" standalone="no"?>
<!DOCTYPE svg PUBLIC "-//W3C//DTD SVG 1.1//EN" "http://www.w3.org/Graphics/SVG/1.1/DTD/svg11.dtd" >
<svg>
<metadata>
Created by FontForge 20110222 at Mon Oct 14 01:42:19 2013
 By Orthosie Webhosting
Copyright (c) 2011 by Michael Chereda. All rights reserved.
</metadata>
<defs>
<font id="CasperBoldItalic" horiz-adv-x="763" >
  <font-face 
    font-family="CasperBoldItalic"
    font-weight="700"
    font-style="italic"
    font-stretch="normal"
    units-per-em="1000"
    panose-1="2 0 8 6 4 0 0 9 0 4"
    ascent="800"
    descent="-200"
    x-height="504"
    cap-height="695"
    bbox="-148 -217 1911 886"
    underline-thickness="50"
    underline-position="-50"
    slope="-12"
    unicode-range="U+0002-FB09"
  />
<missing-glyph horiz-adv-x="250" 
 />
    <glyph glyph-name=".notdef" horiz-adv-x="250" 
 />
    <glyph glyph-name=".null" horiz-adv-x="0" 
 />
    <glyph glyph-name="nonmarkingreturn" horiz-adv-x="250" 
 />
    <glyph glyph-name="uni0000" horiz-adv-x="456" 
 />
    <glyph glyph-name="uni0000" horiz-adv-x="456" 
 />
    <glyph glyph-name="uni0002" horiz-adv-x="0" 
 />
    <glyph glyph-name="space" unicode=" " horiz-adv-x="300" 
 />
    <glyph glyph-name="space" unicode="&#xa0;" horiz-adv-x="300" 
 />
    <glyph glyph-name="exclam" unicode="!" horiz-adv-x="256" 
d="M251 695l-120 -539h-80l69 539h131zM74 108q25 -1 42.5 -19t17.5 -41q0 -25 -17.5 -42.5t-42.5 -17.5q-26 0 -44 17t-18 43q0 25 18.5 42.5t43.5 17.5z" />
    <glyph glyph-name="quotedbl" unicode="&#x22;" horiz-adv-x="420" 
d="M197 695l-68 -248h-79l18 248h129zM388 695l-69 -248h-78l18 248h129z" />
    <glyph glyph-name="numbersign" unicode="#" horiz-adv-x="651" 
d="M309 499h148l76 197h94l-76 -197h81l-12 -93h-104l-57 -147h131l-12 -93h-153l-69 -178h-93l67 178h-147l-68 -178h-93l68 178h-71l12 93h94l56 147h-120l12 93h142l76 197h94zM365 259l57 147h-148l-56 -147h147z" />
    <glyph glyph-name="dollar" unicode="$" horiz-adv-x="618" 
d="M340 694l12 65h87l-12 -66q51 -7 96 -30t75 -67l6 -9l-89 -70l-7 10q-26 38 -65.5 51.5t-83.5 13.5q-23 0 -48 -3t-46 -13t-35 -29t-14 -50q0 -17 10 -31t24.5 -24.5t32 -17.5t32.5 -11l19 -5q36 -10 75 -23t71 -33.5t52.5 -49.5t20.5 -71q0 -54 -20.5 -94.5t-55 -68
t-80.5 -43.5t-96 -22l-17 -94h-86l16 94q-71 8 -124 44.5t-76 105.5l-4 10l105 51l4 -12q18 -53 55.5 -75.5t91.5 -22.5q28 0 59 3.5t57 15t43 32t17 54.5q0 18 -12.5 32.5t-30.5 25.5t-37.5 19t-34.5 12l-21 6q-35 10 -71.5 22t-66.5 31t-49 48.5t-19 73.5q0 53 20 91.5
t53 64t76.5 40t90.5 19.5z" />
    <glyph glyph-name="percent" unicode="%" horiz-adv-x="779" 
d="M253 563q0 22 -7.5 39.5t-35.5 17.5q-24 0 -40.5 -14t-26.5 -34.5t-14 -44t-4 -42.5q0 -22 8 -40.5t34 -18.5q23 0 39 14.5t26.5 35.5t15.5 44.5t5 42.5zM157 340q-35 0 -58 11t-36.5 29.5t-19.5 42.5t-6 50q0 42 10.5 83.5t33 75t57 54.5t82.5 21q33 0 55.5 -10.5
t37 -29t21 -43t6.5 -52.5q0 -44 -11.5 -85.5t-34.5 -74t-57.5 -52.5t-79.5 -20zM656 211q0 22 -7.5 39.5t-35.5 17.5q-25 0 -41.5 -14.5t-26 -35t-13.5 -44t-4 -41.5q0 -22 8 -40.5t34 -18.5q23 0 39 14.5t26.5 35.5t15.5 44.5t5 42.5zM560 -12q-35 0 -58 11t-36.5 29.5
t-19.5 42.5t-6 50q0 42 10.5 83.5t33 75t57 54.5t82.5 21q33 0 55.5 -10.5t37 -29t21 -43t6.5 -52.5q0 -44 -11.5 -85.5t-34.5 -74t-57.5 -52.5t-79.5 -20zM186 -12h-99l500 719h98z" />
    <glyph glyph-name="ampersand" unicode="&#x26;" horiz-adv-x="671" 
d="M147 364q-17 23 -25 55.5t-8 61.5q0 55 19 97.5t53 71t80 43t99 14.5q28 0 52.5 -3t45 -11t38 -23.5t32.5 -40.5l-95 -66q-14 28 -33 33.5t-50 5.5q-27 0 -51.5 -5.5t-42.5 -18t-28.5 -33t-10.5 -49.5q0 -15 4.5 -31t12.5 -28.5t20.5 -20.5t29.5 -8h160q1 7 2.5 19.5
t2.5 20.5l1 24q0 17 -3 29l112 49q2 -12 3 -24t1 -23q0 -23 -3 -47t-7 -48h87l-18 -101h-87l-33 -173q-1 -3 -1 -10q0 -21 15.5 -29.5t36.5 -8.5h41l-15 -86q-17 -5 -36 -8.5t-36 -3.5q-28 0 -52 11.5t-41 33.5q-38 -26 -78.5 -35.5t-85.5 -9.5q-42 0 -82.5 8.5t-72.5 28
t-51.5 51.5t-19.5 80q0 37 6.5 67t20.5 54.5t36.5 45.5t54.5 41zM431 307h-120q-35 0 -67 -5.5t-56.5 -20t-39 -39.5t-14.5 -65q0 -27 12.5 -43.5t32 -25.5t43.5 -11.5t47 -2.5q41 0 70.5 8.5t58.5 37.5z" />
    <glyph glyph-name="quotesingle" unicode="'" horiz-adv-x="202" 
d="M190 695l-68 -248h-79l18 248h129z" />
    <glyph glyph-name="parenleft" unicode="(" horiz-adv-x="369" 
d="M361 701q-54 -61 -98.5 -129.5t-76 -143t-48.5 -154t-17 -161.5q0 -84 21.5 -162t59.5 -152l2 -5h-99q-39 81 -62.5 166t-23.5 175q0 81 19.5 158t52.5 149t77.5 139t95.5 127h104z" />
    <glyph glyph-name="parenright" unicode=")" horiz-adv-x="369" 
d="M8 -199q54 61 98 129.5t75.5 143t49 153.5t17.5 162q0 84 -21.5 162t-59.5 152l-2 5h99q39 -81 62.5 -166t23.5 -175q0 -81 -19.5 -158t-52.5 -149t-77.5 -139t-95.5 -127h-104z" />
    <glyph glyph-name="asterisk" unicode="*" horiz-adv-x="377" 
d="M328 630l32 -88l-119 -27l81 -95l-77 -53l-57 94l-56 -94l-77 53l81 95l-120 27l33 88l109 -52l-17 117h94l-17 -117z" />
    <glyph glyph-name="plus" unicode="+" horiz-adv-x="475" 
d="M11 365h176v176q9 2 24.5 4.5t25.5 2.5t26 -2.5t25 -4.5v-176h176q4 -12 5.5 -27t1.5 -23q0 -11 -2.5 -26.5t-4.5 -25.5h-176v-175q-9 -2 -25 -4.5t-26 -2.5t-25.5 2t-24.5 5v175h-176q-4 11 -5.5 27t-1.5 25q0 8 1.5 23.5t5.5 26.5z" />
    <glyph glyph-name="comma" unicode="," horiz-adv-x="202" 
d="M91 -23q-18 3 -29.5 17t-11.5 33q0 29 21 49.5t49 20.5q16 0 27.5 -6.5t18.5 -17.5t10 -25t3 -28q0 -66 -38 -107.5t-100 -56.5l-23 51q13 4 26.5 9.5t24 13.5t17 18.5t6.5 25.5z" />
    <glyph glyph-name="hyphen" unicode="-" horiz-adv-x="387" 
d="M61 235q-4 13 -6 22t-2 17q0 9 2 18.5t6 22.5h265q4 -13 6 -22t2 -18t-2 -18.5t-6 -21.5h-265z" />
    <glyph glyph-name="period" unicode="." horiz-adv-x="188" 
d="M95 108q24 0 42 -18t18 -42q0 -25 -17.5 -42.5t-42.5 -17.5q-26 0 -44 17t-18 43q0 25 18.5 42.5t43.5 17.5z" />
    <glyph glyph-name="slash" unicode="/" horiz-adv-x="426" 
d="M97 -12h-96l329 720h95z" />
    <glyph glyph-name="zero" unicode="0" horiz-adv-x="585" 
d="M356 695q58 0 96 -19.5t60 -52.5t31 -75.5t9 -87.5q0 -49 -7.5 -103t-23 -106.5t-41 -100t-61 -83.5t-82.5 -57.5t-107 -21.5q-59 0 -97 20.5t-60 54t-30.5 77t-8.5 90.5q0 50 7 103.5t22.5 105.5t40.5 98.5t60.5 81.5t83 55.5t108.5 20.5zM342 587q-41 -2 -71.5 -19.5
t-52.5 -46t-36 -64t-22.5 -73.5t-12 -75.5t-3.5 -69.5q0 -26 4 -52t15 -46t31.5 -32.5t52.5 -12.5q39 0 69 18.5t51.5 48.5t36.5 68t23.5 78t12.5 77.5t4 65.5q0 25 -4 49.5t-15.5 43.5t-31.5 30.5t-51 11.5z" />
    <glyph glyph-name="one" unicode="1" horiz-adv-x="403" 
d="M138 103l73 417l-97 -80l-62 82l196 160h103l-102 -579h109l-18 -103h-328l18 103h108z" />
    <glyph glyph-name="two" unicode="2" horiz-adv-x="596" 
d="M191 105h307l-18 -105h-461l9 58q4 26 17.5 47.5t33.5 38.5l319 272q23 20 40 46t17 58q0 23 -9 36.5t-24 20t-33 8.5t-36 2q-82 0 -129 -70l-6 -8l-88 49l6 10q82 127 235 127q38 0 73 -9.5t61.5 -29t42.5 -50t16 -72.5q0 -58 -29.5 -108t-72.5 -87z" />
    <glyph glyph-name="three" unicode="3" horiz-adv-x="568" 
d="M355 412q67 -17 101 -59t34 -105q0 -54 -16.5 -105t-54.5 -90q-20 -20 -42.5 -33t-47 -20t-51.5 -9.5t-54 -2.5q-77 0 -128 32.5t-72 107.5l-3 10l104 42l4 -11q13 -44 39 -58.5t71 -14.5q69 0 105.5 31t36.5 100q0 19 -7 35t-22.5 27.5t-40.5 18t-62 6.5h-56l17 94
l166 168h-255l19 106h399l-10 -62q-4 -22 -14.5 -40.5t-26.5 -34.5z" />
    <glyph glyph-name="four" unicode="4" horiz-adv-x="547" 
d="M299 164h-298l18 100l365 418h114l-73 -415h96l-50 -103h-64l-29 -164h-108zM317 267l42 234l-205 -234h163z" />
    <glyph glyph-name="five" unicode="5" horiz-adv-x="573" 
d="M250 576l-26 -104q44 14 87 14q40 0 74 -13.5t58.5 -37.5t38 -57.5t13.5 -73.5q0 -63 -16 -120.5t-49 -101t-84 -69t-121 -25.5q-78 0 -128 32t-71 108l-3 10l106 43l4 -11q14 -42 38 -59t69 -17q43 0 71.5 17t44.5 44.5t22.5 62.5t6.5 71q0 42 -23.5 65.5t-65.5 23.5
q-71 0 -117 -52l-4 -3h-97l91 359h379l-19 -106h-279z" />
    <glyph glyph-name="six" unicode="6" horiz-adv-x="547" 
d="M178 436q55 28 119 28q43 0 77 -14t57.5 -39t36 -60t12.5 -77q0 -62 -15.5 -114.5t-47.5 -90.5t-81 -59.5t-117 -21.5q-56 0 -92 14.5t-57 40.5t-29.5 62t-8.5 79q0 54 6.5 113t22 116t40.5 108t62 89.5t87 61.5t115 23q48 0 85.5 -10.5t69.5 -45.5l-82 -82
q-21 20 -39.5 25.5t-48.5 5.5q-39 0 -67 -11t-47.5 -31t-33 -48t-24.5 -62zM288 358q-36 0 -64.5 -13.5t-48 -36.5t-29.5 -54t-10 -65q0 -40 21.5 -66.5t76.5 -26.5q42 0 68.5 13t41.5 36t21 53.5t6 66.5q0 41 -20.5 67t-62.5 26z" />
    <glyph glyph-name="seven" unicode="7" horiz-adv-x="540" 
d="M369 576h-314l19 106h465l-12 -67q-9 -50 -51 -86q-60 -50 -111.5 -108.5t-92.5 -124.5t-69.5 -138t-42.5 -149l-2 -9h-112l2 13q29 163 113 305.5t208 257.5z" />
    <glyph glyph-name="eight" unicode="8" horiz-adv-x="538" 
d="M175 369q-33 22 -47.5 51.5t-14.5 68.5q0 46 17.5 84t47.5 65t70 42t85 15q35 0 66.5 -9.5t55.5 -28.5t38 -47.5t14 -65.5q0 -30 -9 -53t-25 -42.5t-36.5 -35.5t-43.5 -31q39 -25 61 -62.5t22 -84.5q0 -56 -20.5 -101.5t-56 -78t-83.5 -50t-103 -17.5q-42 0 -76.5 10
t-59.5 31t-39 52.5t-14 75.5q0 40 10.5 72t30.5 57.5t47.5 45.5t62.5 37zM306 425q16 8 32 18.5t29.5 24t22 29.5t8.5 35q0 14 -7 24.5t-17.5 17t-23.5 10t-26 3.5q-19 0 -37.5 -5t-32.5 -15.5t-23 -26t-9 -36.5q0 -20 7.5 -32t19.5 -20t27 -14t30 -13zM261 326
q-25 -9 -48 -23.5t-41 -34t-29 -43.5t-11 -51q0 -23 7.5 -38t20 -24t30.5 -12.5t39 -3.5q61 0 98 30.5t37 93.5q0 21 -8.5 36.5t-22 27.5t-30 21t-33.5 17z" />
    <glyph glyph-name="nine" unicode="9" horiz-adv-x="550" 
d="M371 258q-27 -17 -59 -21t-64 -4q-86 0 -133.5 45.5t-47.5 131.5q0 57 19 108.5t54 91t84 62.5t110 23q98 0 141.5 -51.5t43.5 -142.5q0 -49 -7 -106t-22 -114t-40 -110t-61.5 -93.5t-85 -65t-111.5 -24.5q-45 0 -88 15.5t-72 50.5l-7 9l88 73q23 -23 42 -31.5t48 -8.5
q35 0 62.5 14t48.5 37t35 52t22 59zM263 338q36 0 63.5 13.5t46 36.5t28 53t9.5 64q0 35 -20 58.5t-72 23.5q-38 0 -65 -13.5t-44 -36t-25 -52.5t-8 -63q0 -45 21 -64.5t66 -19.5z" />
    <glyph glyph-name="colon" unicode=":" horiz-adv-x="219" 
d="M147 504q24 0 42 -18t18 -42q0 -25 -17.5 -42.5t-42.5 -17.5q-26 0 -44 17t-18 43q0 25 18.5 42.5t43.5 17.5zM75 108q24 0 42 -18t18 -42q0 -25 -17.5 -42.5t-42.5 -17.5q-26 0 -44 17t-18 43q0 25 18.5 42.5t43.5 17.5z" />
    <glyph glyph-name="semicolon" unicode=";" horiz-adv-x="235" 
d="M165 504q24 0 42 -18t18 -42q0 -25 -17.5 -42.5t-42.5 -17.5q-26 0 -44 17t-18 43q0 25 18.5 42.5t43.5 17.5zM78 -12q-18 3 -29.5 17t-11.5 33q0 29 21 49.5t49 20.5q16 0 27.5 -6.5t18.5 -17.5t10 -25t3 -28q0 -66 -38 -107.5t-100 -56.5l-23 51q13 4 26.5 9.5t24 13.5
t17 18.5t6.5 25.5z" />
    <glyph glyph-name="less" unicode="&#x3c;" horiz-adv-x="466" 
d="M432 453l-303 -111l303 -114v-108l-432 183v79l432 180v-109z" />
    <glyph glyph-name="equal" unicode="=" horiz-adv-x="575" 
d="M61 289h453q4 -12 5.5 -27t1.5 -23q0 -10 -2 -25.5t-5 -25.5h-453q-3 11 -4.5 26.5t-1.5 24.5q0 10 2 25t4 25zM61 498h453q3 -10 5 -25.5t2 -25.5t-2 -25.5t-5 -25.5h-453q-3 11 -4.5 26.5t-1.5 24.5q0 8 1.5 23.5t4.5 27.5z" />
    <glyph glyph-name="greater" unicode="&#x3e;" horiz-adv-x="487" 
d="M55 562l432 -180v-79l-432 -183v108l303 114l-303 111v109z" />
    <glyph glyph-name="question" unicode="?" horiz-adv-x="430" 
d="M238 708q37 0 71 -8.5t60 -27t41.5 -47.5t15.5 -69q0 -42 -16 -74t-40 -59t-52 -50.5t-53 -48.5q-37 -31 -58.5 -76t-30.5 -92h-87q8 66 36.5 132t79.5 113q15 14 35 29t38 31.5t30.5 36t12.5 43.5q0 21 -8.5 34t-22 20.5t-30.5 10t-35 2.5q-40 0 -74.5 -12.5
t-66.5 -35.5l-51 82q45 35 96.5 50.5t108.5 15.5zM125 108q25 0 42.5 -17.5t17.5 -42.5q0 -24 -17 -42t-43 -18t-43.5 17.5t-17.5 42.5t17.5 42.5t43.5 17.5z" />
    <glyph glyph-name="at" unicode="@" horiz-adv-x="979" 
d="M629 156q17 -11 38.5 -16t41.5 -5q37 0 63 19t42 47.5t23 62t7 63.5q0 71 -26 123t-71.5 86.5t-107.5 51t-133 16.5q-77 0 -144 -27.5t-117.5 -75.5t-79.5 -113.5t-29 -141.5q0 -77 29.5 -141.5t79.5 -110.5t117.5 -71.5t143.5 -25.5q36 0 71.5 2t68.5 9.5t63.5 22.5
t57.5 42l8 8l73 -75l-8 -8q-34 -33 -73 -53.5t-81.5 -31.5t-87.5 -15t-92 -4q-98 0 -184 33.5t-150.5 93.5t-102 143t-37.5 182q0 98 37.5 182.5t102 146.5t150.5 97.5t184 35.5q92 0 172 -25t139.5 -73t94 -119t34.5 -164q0 -58 -15 -111t-45 -93.5t-74.5 -64.5t-102.5 -24
q-49 0 -90 13.5t-79 43.5q-27 -22 -59 -39.5t-69 -17.5q-75 0 -112 38.5t-37 112.5q0 66 17 120.5t51 93.5t85 60.5t119 21.5q43 0 76 -9t71 -26zM538 182l38 204q-14 6 -28 7.5t-30 1.5q-45 0 -76.5 -16.5t-51 -44.5t-28 -65t-8.5 -78q0 -35 16 -53t52 -18q32 0 62.5 20
t53.5 42z" />
    <glyph glyph-name="A" unicode="A" horiz-adv-x="704" 
d="M236 199l-107 -199h-122l382 695h136l149 -695h-117l-42 199h-279zM289 296h206l-51 239l-5 55l-19 -55z" />
    <glyph glyph-name="B" unicode="B" horiz-adv-x="671" 
d="M540 373q37 -21 57.5 -55.5t20.5 -77.5q0 -61 -22 -106t-59.5 -75t-88.5 -44.5t-108 -14.5h-308l123 695h289q37 0 70.5 -8t59.5 -25.5t41.5 -46t15.5 -70.5q0 -57 -23 -98t-68 -74zM201 310l-36 -205h194q68 0 105.5 28.5t37.5 98.5q0 22 -9 37t-23.5 24t-33 13t-37.5 4
h-198zM250 590l-31 -176h159q26 0 51.5 7t45.5 21t32 35.5t12 51.5q0 18 -8.5 29.5t-21 18.5t-28 10t-29.5 3h-182z" />
    <glyph glyph-name="C" unicode="C" horiz-adv-x="677" 
d="M322 93q46 0 87.5 17t76.5 47l9 8l67 -76l-9 -8q-51 -47 -114 -70t-132 -23q-75 0 -127.5 20.5t-85 57t-47 86t-14.5 106.5q0 95 25 177t75.5 142.5t125.5 95t175 34.5q68 0 123.5 -21.5t97.5 -76.5l-89 -76q-30 37 -64.5 52.5t-82.5 15.5q-73 0 -125 -28.5t-85 -75.5
t-48.5 -108t-15.5 -126q0 -37 8.5 -68t29 -53.5t54.5 -35.5t85 -13z" />
    <glyph glyph-name="D" unicode="D" horiz-adv-x="738" 
d="M34 0l124 695h313q66 0 110.5 -20t71 -54.5t37.5 -80.5t11 -97q0 -76 -18.5 -155t-58.5 -143t-102.5 -104.5t-149.5 -40.5h-338zM167 105h190q67 0 110 32.5t68.5 82t35.5 109.5t10 114q0 30 -5.5 56.5t-19.5 46.5t-39.5 32t-65.5 12h-199z" />
    <glyph glyph-name="E" unicode="E" horiz-adv-x="708" 
d="M251 590l-30 -169h344l-19 -105h-344l-37 -211h407l-18 -105h-520l122 695h528l-51 -105h-382z" />
    <glyph glyph-name="F" unicode="F" horiz-adv-x="655" 
d="M250 590l-29 -169h330l-19 -105h-330l-56 -316h-113l123 695h499l-53 -105h-352z" />
    <glyph glyph-name="G" unicode="G" horiz-adv-x="697" 
d="M479 119l26 146h-150l18 107h260l-57 -319l-5 -3q-52 -28 -110 -45t-118 -17q-65 0 -121.5 14.5t-98.5 46t-66 80.5t-24 117q0 97 24.5 181t75 146t128 98t184.5 36q65 0 121.5 -23t93.5 -78l7 -9l-91 -66l-7 10q-11 17 -27 28.5t-34.5 18.5t-38.5 10t-39 3
q-78 0 -132 -27.5t-88 -74t-49 -108.5t-15 -130q0 -48 17 -80.5t46.5 -52t69 -27.5t84.5 -8q27 0 59.5 7t56.5 19z" />
    <glyph glyph-name="H" unicode="H" horiz-adv-x="750" 
d="M204 315l-56 -315h-113l123 695h113l-48 -274h331l48 274h114l-123 -695h-114l56 315h-331z" />
    <glyph glyph-name="I" unicode="I" horiz-adv-x="254" 
d="M245 695l-122 -695h-114l122 695h114z" />
    <glyph glyph-name="J" unicode="J" horiz-adv-x="523" 
d="M162 -12q-73 0 -117 42t-44 116v16t1 13t2.5 13t3.5 17h112l-3 -14q-4 -16 -4 -38q0 -32 17 -46t47 -14q55 0 83 29.5t37 81.5l87 491h115l-87 -495q-17 -99 -82.5 -155.5t-167.5 -56.5z" />
    <glyph glyph-name="K" unicode="K" horiz-adv-x="670" 
d="M216 402h46l243 293h138l-276 -338l195 -357h-134l-171 313h-56l-55 -313h-113l122 695h113z" />
    <glyph glyph-name="L" unicode="L" horiz-adv-x="512" 
d="M160 105h348l-52 -105h-428l123 695h113z" />
    <glyph glyph-name="M" unicode="M" horiz-adv-x="889" 
d="M428 233l273 462h151l-123 -695h-113l92 518l-252 -436h-111l-99 452l-95 -534h-113l123 695h165z" />
    <glyph glyph-name="N" unicode="N" horiz-adv-x="768" 
d="M528 175l92 520h113l-123 -695h-134l-234 529l-94 -529h-113l123 695h139z" />
    <glyph glyph-name="O" unicode="O" 
d="M318 -12q-137 0 -210 64.5t-73 202.5q0 92 27 174t79 144t128.5 98t175.5 36q63 0 115.5 -16.5t90 -49t58 -81.5t20.5 -114q0 -104 -30 -188.5t-84.5 -144.5t-130 -92.5t-166.5 -32.5zM430 601q-70 0 -123 -28.5t-88 -75.5t-53 -107t-18 -122q0 -176 182 -176
q66 0 119 26t90 71.5t57 106.5t20 130q0 86 -50.5 130.5t-135.5 44.5z" />
    <glyph glyph-name="P" unicode="P" horiz-adv-x="672" 
d="M191 250l-44 -250h-114l122 695h325q49 0 84.5 -13.5t58 -37t33.5 -55.5t11 -69q0 -56 -18.5 -105.5t-52.5 -86t-80.5 -57.5t-103.5 -21h-221zM250 590l-40 -234h206q33 0 59 12t45 32.5t29 48.5t10 60q0 34 -19 57.5t-67 23.5h-223z" />
    <glyph glyph-name="Q" unicode="Q" horiz-adv-x="755" 
d="M312 -12q-137 0 -209.5 64.5t-72.5 202.5q0 92 27 174t79 144t128 98t175 36q63 0 115.5 -16.5t90 -49t58.5 -81.5t21 -114q0 -104 -30 -188.5t-84.5 -144.5t-130.5 -92.5t-167 -32.5zM101 -30q81 0 148.5 -17t134.5 -40q59 -20 119.5 -26t132.5 -6l-18 -98
q-78 0 -147.5 8.5t-136.5 34.5q-58 22 -118 35t-132 13zM424 601q-70 0 -122.5 -28.5t-88 -75.5t-53 -107t-17.5 -122q0 -176 181 -176q66 0 119.5 26t90.5 71.5t57 106.5t20 130q0 86 -50.5 130.5t-136.5 44.5z" />
    <glyph glyph-name="R" unicode="R" horiz-adv-x="699" 
d="M196 284l-49 -284h-114l119 695h326q39 0 72 -11t58 -32t39 -52.5t14 -73.5q0 -102 -59 -165t-162 -74l100 -175q10 -18 20 -22t31 -4h13l-13 -86q-14 -7 -27.5 -9.5t-28.5 -2.5q-33 0 -56 21t-38 47l-121 208q-7 12 -20.5 16t-26.5 4h-77zM214 388h196q69 0 103.5 30
t34.5 98q0 41 -26 57.5t-62 16.5h-212z" />
    <glyph glyph-name="S" unicode="S" horiz-adv-x="646" 
d="M618 599l-87 -65q-34 41 -78 54.5t-92 13.5q-25 0 -50 -4.5t-44.5 -15.5t-32 -29t-12.5 -44q0 -36 26 -57t65.5 -36t85 -28t85 -34t65.5 -53.5t26 -86.5q0 -59 -23 -101.5t-62 -70t-90 -41t-107 -13.5q-45 0 -87.5 10t-79 30t-64 50t-42.5 71l101 45q23 -48 69 -75
t112 -27q27 0 55.5 5.5t51.5 18t37.5 33t14.5 50.5q0 33 -26.5 53t-66 34t-85.5 27.5t-85.5 35t-66 55.5t-26.5 89q0 59 23 99.5t61 66t88 37t103 11.5q76 0 139.5 -28.5t98.5 -79.5z" />
    <glyph glyph-name="T" unicode="T" horiz-adv-x="628" 
d="M371 590l-104 -590h-113l104 590h-232l18 105h581l-51 -105h-203z" />
    <glyph glyph-name="U" unicode="U" horiz-adv-x="716" 
d="M233 695l-69 -391q-5 -24 -8 -48.5t-3 -50.5q0 -33 11.5 -54.5t31 -34t45.5 -18t55 -5.5q52 0 88.5 15.5t61.5 44t39.5 68t22.5 87.5l68 387h113l-68 -387q-12 -71 -38 -129.5t-67 -101t-99 -66t-135 -23.5q-52 0 -96 11.5t-76 36.5t-50 64.5t-18 94.5q0 30 3 59t8 58
l67 383h113z" />
    <glyph glyph-name="V" unicode="V" horiz-adv-x="682" 
d="M258 124l42 95l271 487l105 -31l-376 -675h-129l-140 677l115 30l102 -491z" />
    <glyph glyph-name="W" unicode="W" horiz-adv-x="981" 
d="M624 184l229 523l106 -31l-297 -676h-133l-58 422l-4 48l-19 -47l-207 -423h-133l-61 677l114 30l48 -523l208 430h148z" />
    <glyph glyph-name="X" unicode="X" horiz-adv-x="804" 
d="M354 362l-166 315l116 30l101 -186l33 -78l58 80l166 185l109 -31l-279 -318l206 -359h-136l-135 241l-17 43l-32 -46l-216 -238h-141z" />
    <glyph glyph-name="Y" unicode="Y" horiz-adv-x="633" 
d="M323 304l-51 -304h-116l51 305q-11 3 -15 14l-167 358l115 30l139 -302h7l235 301l109 -30l-285 -359q-9 -10 -22 -13z" />
    <glyph glyph-name="Z" unicode="Z" horiz-adv-x="715" 
d="M174 105h445l-17 -105h-574l9 59q4 23 15.5 42.5t27.5 36.5l390 414l53 38h-394l49 105h500l-9 -56q-4 -23 -15 -43t-28 -36l-406 -425z" />
    <glyph glyph-name="bracketleft" unicode="[" horiz-adv-x="380" 
d="M260 612l-127 -723h103l-15 -83h-207l156 889h207l-15 -83h-102z" />
    <glyph glyph-name="backslash" unicode="\" horiz-adv-x="196" 
d="M14 709h93l75 -721h-94z" />
    <glyph glyph-name="bracketright" unicode="]" horiz-adv-x="380" 
d="M120 -111l127 723h-103l15 83h207l-156 -889h-207l15 83h102z" />
    <glyph glyph-name="asciicircum" unicode="^" horiz-adv-x="483" 
d="M19 328l167 380h111l167 -380h-107l-116 290l-112 -290h-110z" />
    <glyph glyph-name="underscore" unicode="_" horiz-adv-x="690" 
d="M60 -122h571q2 -8 3 -21t1 -21t-1 -21.5t-3 -21.5h-571q-2 11 -3.5 24t-1.5 19q0 5 1.5 18.5t3.5 23.5z" />
    <glyph glyph-name="grave" unicode="`" horiz-adv-x="206" 
d="M90 737l-68 86l6 37h100l54 -123h-92z" />
    <glyph glyph-name="a" unicode="a" horiz-adv-x="561" 
d="M350 46q-31 -22 -65 -40t-74 -18q-86 0 -131 49.5t-45 135.5q0 80 20 143.5t60 108t99.5 68t138.5 23.5q49 0 88.5 -10.5t83.5 -30.5l-63 -359q-3 -18 -3 -36q-1 -17 4 -33t10 -31l5 -16h-115q-8 14 -10.5 25t-2.5 21zM361 159l44 248q-18 8 -35 10t-37 2q-53 0 -90 -19
t-60 -51t-33.5 -75t-10.5 -91q0 -45 18.5 -71.5t64.5 -26.5q19 0 38 6.5t37 17t34.5 24t29.5 26.5z" />
    <glyph glyph-name="b" unicode="b" horiz-adv-x="540" 
d="M212 451q31 26 65 40.5t75 14.5q39 0 71 -13.5t55 -37.5t35.5 -56.5t12.5 -70.5q0 -76 -18.5 -138.5t-56.5 -107.5t-96 -69.5t-136 -24.5q-51 0 -97 10t-94 31l115 648l114 30zM185 304l-35 -205q19 -8 41 -11t42 -3q52 0 88.5 19t59.5 51t33.5 74.5t10.5 90.5
q0 40 -22 64.5t-64 24.5q-53 0 -93 -28.5t-61 -76.5z" />
    <glyph glyph-name="c" unicode="c" horiz-adv-x="532" 
d="M342 516q54 0 94.5 -17.5t74.5 -59.5l-79 -66q-13 13 -24 21.5t-23.5 14t-26.5 8t-33 2.5q-46 0 -81.5 -18.5t-60 -49t-37 -70t-12.5 -81.5q0 -50 28 -82.5t96 -32.5q31 0 63.5 10t61.5 39l59 -68q-45 -42 -95 -60t-102 -18q-56 0 -96 15t-66 42t-38 64t-12 81
q0 72 21 132t60.5 103t97 67t130.5 24z" />
    <glyph glyph-name="d" unicode="d" horiz-adv-x="586" 
d="M414 506l29 171l114 30l-103 -582q-3 -20 -3 -37q0 -39 16 -88h-114q-8 15 -10 25.5t-2 21.5q-34 -25 -72 -42t-80 -17q-50 0 -84.5 15.5t-55.5 42.5t-30.5 62.5t-9.5 74.5q0 75 21.5 137t62 106.5t100 69t134.5 24.5q23 0 44 -4t43 -10zM351 159l45 253q-20 6 -40 8.5
t-40 2.5q-52 0 -90 -17.5t-63 -48t-37 -72.5t-12 -91q0 -21 4 -40.5t14 -35t27 -24.5t43 -9q19 0 40 7t40.5 17.5t37 23.5t31.5 26z" />
    <glyph glyph-name="e" unicode="e" horiz-adv-x="559" 
d="M141 180q0 -29 9.5 -47t25.5 -29t37.5 -15t46.5 -4q38 0 70.5 12.5t59.5 40.5l5 6l91 -41l-9 -11q-44 -54 -102.5 -79t-127.5 -25q-49 0 -88.5 10.5t-67 33.5t-42.5 59t-15 87q0 69 19.5 130t58.5 107.5t96.5 73.5t132.5 27q37 0 71.5 -8.5t60.5 -26.5t41.5 -47t15.5 -71
q0 -50 -19.5 -81.5t-53 -51t-78 -28.5t-93.5 -12zM154 278l143 9q21 1 43.5 4.5t41 12t30.5 23.5t12 39q0 18 -10 28.5t-25 16t-32 7t-30 1.5q-68 0 -112.5 -40t-60.5 -101z" />
    <glyph glyph-name="f" unicode="f" horiz-adv-x="321" 
d="M248 504h113l-45 -90h-84l-84 -475q-13 -71 -58.5 -108t-106.5 -37q-17 0 -40.5 4.5t-40.5 7.5l15 86h50q25 0 46 12.5t26 38.5l83 471h-70l17 90h70l9 59q4 28 16.5 54.5t33 46t49 31.5t65.5 12q21 0 41.5 -3t40.5 -8l-15 -87h-61q-25 0 -41 -13t-20 -37z" />
    <glyph glyph-name="g" unicode="g" horiz-adv-x="595" 
d="M406 171l41 237q-18 6 -38.5 8.5t-40.5 2.5q-55 0 -92.5 -20t-60.5 -54t-33 -78t-10 -93q0 -45 23.5 -61.5t64.5 -16.5q20 0 39.5 7t38.5 18t36 24t32 26zM384 49q-30 -21 -64.5 -35.5t-72.5 -14.5q-87 0 -133 42.5t-46 131.5q0 76 19.5 139.5t58.5 108.5t97 70t136 25
q52 0 97 -9t92 -32l-80 -459q-9 -50 -32 -91t-57.5 -70t-79.5 -45t-97 -16q-27 0 -51.5 3.5t-47.5 11t-46.5 19.5t-50.5 30l67 89q20 -14 37.5 -23t34.5 -14.5t34.5 -8t37.5 -2.5q63 0 96.5 30.5t44.5 88.5z" />
    <glyph glyph-name="h" unicode="h" horiz-adv-x="536" 
d="M189 308l-54 -308h-109l120 677l114 30l-44 -246q29 23 64.5 33t72.5 10q36 0 66.5 -11.5t52 -33t34 -51t12.5 -65.5q0 -22 -3 -41l-54 -302h-109l56 317q2 5 2 11.5v11.5q0 30 -20.5 48.5t-52.5 18.5q-49 0 -90 -26t-58 -73z" />
    <glyph glyph-name="i" unicode="i" horiz-adv-x="238" 
d="M7 0l89 504h109l-89 -504h-109zM165 707q24 0 42 -17t18 -41q0 -25 -17.5 -42t-42.5 -17t-42.5 17t-17.5 42q0 24 18 41t42 17z" />
    <glyph glyph-name="j" unicode="j" horiz-adv-x="238" 
d="M105 504h109l-99 -565q-5 -29 -17.5 -55.5t-33 -46.5t-49 -31.5t-65.5 -11.5q-19 0 -41.5 4t-42.5 8l16 86h54q24 0 45 13.5t26 36.5zM184 707q24 0 42 -17t18 -41q0 -25 -17.5 -42t-42.5 -17t-42.5 17t-17.5 42q0 24 18 41t42 17z" />
    <glyph glyph-name="k" unicode="k" horiz-adv-x="517" 
d="M187 300h24l182 204h118l-214 -246l94 -153q8 -12 21.5 -16.5t27.5 -4.5h13l-13 -84q-14 -7 -24.5 -9.5t-26.5 -2.5t-29 6.5t-23.5 16t-19.5 21.5t-16 24l-103 164h-25l-37 -220h-109l116 677l114 30z" />
    <glyph glyph-name="l" unicode="l" horiz-adv-x="266" 
d="M112 678l114 30l-101 -576q-1 -4 -1 -7.5v-6.5q0 -33 42 -33h64l-15 -84q-20 -6 -40.5 -9.5t-40.5 -3.5q-63 0 -92 33t-29 84q0 7 0.5 16t2.5 16z" />
    <glyph glyph-name="m" unicode="m" horiz-adv-x="837" 
d="M201 464q29 22 62 37t66 15q41 0 78 -14t60 -49q35 28 76.5 45.5t86.5 17.5q34 0 63.5 -10t51.5 -29t34 -47.5t12 -64.5q0 -11 -1 -21t-3 -21l-57 -323h-109l58 328q2 8 2 14.5v13.5q0 29 -16 46t-54 17q-30 0 -60.5 -12.5t-53.5 -32.5l-66 -374h-109l62 350q2 10 2 15
q0 16 -7 26.5t-17.5 16.5t-23 8.5t-24.5 2.5q-32 0 -62.5 -12t-54.5 -33l-66 -374h-109l66 370q2 11 2 20t2 17q0 16 -3.5 31t-9.5 32l107 46q6 -14 9.5 -26t5.5 -26z" />
    <glyph glyph-name="n" unicode="n" horiz-adv-x="556" 
d="M197 374l-65 -374h-110l66 370q2 12 3 22t1 19q0 14 -2.5 27.5t-9.5 31.5l106 46q6 -14 10 -25t6 -27q29 23 64 37.5t73 14.5q39 0 71.5 -13.5t55.5 -36.5t36 -54t13 -66q0 -17 -3 -33l-55 -313h-110l57 318q1 5 1.5 11t0.5 11q0 37 -23 58t-59 21q-35 0 -67.5 -12.5
t-59.5 -32.5z" />
    <glyph glyph-name="o" unicode="o" horiz-adv-x="565" 
d="M235 -12q-44 0 -82 11.5t-66 34.5t-44 57t-16 80q0 69 18.5 131.5t56 110t94 75.5t132.5 28q45 0 83.5 -12.5t67 -37t44.5 -60.5t16 -82q0 -67 -21 -127.5t-60 -107t-95.5 -74t-127.5 -27.5zM440 316q0 56 -35 79.5t-89 23.5q-50 0 -86 -19.5t-59 -51t-34.5 -73
t-11.5 -84.5q0 -31 8 -51.5t24 -32.5t39 -17t53 -5q49 0 85 20t59.5 52t35 73.5t11.5 85.5z" />
    <glyph glyph-name="p" unicode="p" horiz-adv-x="586" 
d="M181 41l-41 -235h-110l101 565q1 11 2.5 19.5t1.5 16.5q0 32 -16 63l108 46q14 -24 17 -52q30 25 68 38.5t77 13.5t73 -13.5t59.5 -38t40 -58t14.5 -73.5q0 -64 -14.5 -126t-47 -110.5t-83 -78.5t-122.5 -30q-36 0 -69 14.5t-59 38.5zM238 365l-37 -211q22 -28 53 -49
t68 -21q45 0 73.5 23t45 58.5t23 76.5t6.5 77q0 48 -24.5 74.5t-72.5 26.5q-38 0 -72 -14.5t-63 -40.5z" />
    <glyph glyph-name="q" unicode="q" horiz-adv-x="551" 
d="M336 39q-32 -20 -67.5 -35.5t-73.5 -15.5q-84 0 -132 45.5t-48 130.5q0 77 17 141.5t55 111.5t98.5 73t146.5 26q97 0 181 -37l8 -4l-117 -669h-110zM356 159l45 247q-21 8 -43.5 10.5t-45.5 2.5q-59 0 -96.5 -20.5t-59.5 -55t-30.5 -79.5t-8.5 -94q0 -41 24.5 -63
t64.5 -22q22 1 44.5 9.5t42 19.5t36 23.5t27.5 21.5z" />
    <glyph glyph-name="r" unicode="r" horiz-adv-x="379" 
d="M201 463q22 25 51 39t62 14q43 0 95 -29l-55 -101q-19 11 -32.5 16t-26.5 5q-29 0 -50 -17t-35.5 -41.5t-23 -53t-12.5 -51.5l-43 -244h-109l65 370q2 11 3 21.5t1 20.5q0 33 -13 58l106 46q14 -25 17 -53z" />
    <glyph glyph-name="s" unicode="s" horiz-adv-x="496" 
d="M463 436l-78 -63q-16 20 -39 34.5t-70 14.5q-15 0 -31.5 -2.5t-30 -8.5t-22.5 -16.5t-9 -25.5q0 -21 20 -33.5t50 -22.5t65.5 -20t65.5 -25.5t50 -39.5t20 -62q0 -48 -20.5 -81.5t-53 -55t-73 -31.5t-80.5 -10q-71 0 -126.5 27t-78.5 86l89 48q21 -40 57 -52.5t75 -12.5
q45 0 72 14.5t27 47.5q0 22 -20 35t-49.5 23t-64 19.5t-64 25t-49.5 41t-20 66.5q0 46 20.5 76.5t52.5 49t70.5 26.5t74.5 8q55 0 99.5 -21t70.5 -59z" />
    <glyph glyph-name="t" unicode="t" horiz-adv-x="307" 
d="M79 414h-57l15 90h57l19 101l116 31l-25 -132h96l-43 -90h-68l-51 -283q-1 -4 -1 -8v-7q0 -31 41 -31h50l-15 -85q-17 -4 -33.5 -8t-33.5 -4q-31 0 -53.5 9.5t-37.5 25.5t-22 38t-7 47q0 13 3 27z" />
    <glyph glyph-name="u" unicode="u" horiz-adv-x="572" 
d="M366 159l56 326l116 31l-69 -392q-2 -12 -3 -22t-1 -20q0 -20 4.5 -39t12.5 -43h-114q-7 12 -10 21.5t-4 23.5q-32 -24 -69 -40.5t-79 -16.5q-87 0 -126 36t-39 105q0 13 1 27t4 29l52 300l116 31l-59 -335q-2 -10 -3 -20t-1 -18q0 -26 14 -42t54 -16q20 0 40 7t39 17.5
t36 24t32 25.5z" />
    <glyph glyph-name="v" unicode="v" horiz-adv-x="510" 
d="M209 141l33 72l165 303l95 -31l-264 -485h-105l-101 485l103 31l66 -305z" />
    <glyph glyph-name="w" unicode="w" horiz-adv-x="760" 
d="M474 163l170 353l94 -32l-231 -484h-109l-47 252l-135 -252h-110l-62 485l104 31l46 -353l141 271h92z" />
    <glyph glyph-name="x" unicode="x" horiz-adv-x="589" 
d="M294 174l-145 -174h-128l228 267l-115 218l108 31l79 -164l134 164l101 -32l-188 -220l138 -264h-124z" />
    <glyph glyph-name="y" unicode="y" horiz-adv-x="574" 
d="M260 98l209 419l102 -31l-300 -586q-11 -20 -23.5 -39t-29 -34t-38 -24t-49.5 -9q-19 0 -40 3.5t-39 8.5l12 86h52q19 0 34.5 6.5t23.5 23.5l35 74q-25 10 -41.5 31t-23.5 48l-100 411l108 30l99 -405q1 -4 2.5 -8.5t6.5 -4.5z" />
    <glyph glyph-name="z" unicode="z" horiz-adv-x="582" 
d="M193 92l80 5h250l-45 -97h-441l6 42q3 23 16 45.5t29 38.5l291 290l-70 -5h-208l14 93h424l-4 -29q-4 -26 -16.5 -46t-29.5 -38z" />
    <glyph glyph-name="braceleft" unicode="{" horiz-adv-x="403" 
d="M161 245q18 -18 28 -35t10 -42q0 -11 -1 -16l-38 -218q-1 -3 -1 -9q0 -14 8.5 -23.5t25.5 -9.5h60l-17 -98h-56q-24 0 -45.5 8t-38 23t-26.5 36t-10 47v14t2 15l33 190q1 8 1.5 15t0.5 12q0 14 -6.5 22.5t-17 13t-24.5 6t-28 1.5h-14l17 98h10q46 0 71.5 18t32.5 57
l35 199q5 27 19.5 52.5t36.5 44.5t49.5 30.5t59.5 11.5h58l-16 -98h-55q-20 0 -35.5 -13t-18.5 -31l-40 -229q-5 -31 -26 -54t-44 -38z" />
    <glyph glyph-name="bar" unicode="|" horiz-adv-x="214" 
d="M153 -194q-11 -3 -26 -4.5t-23 -1.5t-23 1.5t-26 4.5v889q11 3 26 4.5t23 1.5t23 -1.5t26 -4.5v-889z" />
    <glyph glyph-name="braceright" unicode="}" horiz-adv-x="403" 
d="M242 257q-18 18 -28 34.5t-10 42.5q0 11 1 16l38 218q1 3 1 9q0 14 -8.5 23.5t-25.5 9.5h-60l17 98h56q24 0 45.5 -8t38 -23t26.5 -36t10 -47v-14t-2 -15l-33 -190q-1 -8 -1.5 -15t-0.5 -12q0 -14 6.5 -22.5t17 -13t24.5 -6t28 -1.5h14l-17 -98h-10q-46 0 -71.5 -18
t-32.5 -57l-35 -199q-6 -27 -20.5 -52.5t-36 -44.5t-49.5 -30.5t-59 -11.5h-58l16 98h55q20 0 35.5 13t18.5 31l40 229q5 31 26 54t44 38z" />
    <glyph glyph-name="asciitilde" unicode="~" horiz-adv-x="552" 
d="M510 312q-42 -41 -81.5 -61.5t-82.5 -20.5q-29 0 -58 10t-57.5 22t-56.5 22t-53 10q-23 0 -46.5 -12t-43.5 -27v73q35 28 70 45t73 17q29 0 57.5 -9t56 -20.5t55 -20.5t54.5 -9t57.5 14.5t55.5 40.5v-74z" />
    <glyph glyph-name="exclamdown" unicode="&#xa1;" horiz-adv-x="161" 
d="M6.01562 -193.958l119.992 538.968h79.9951l-68.9951 -538.968h-130.992zM183.005 393.007q-24.999 1 -42.498 18.999q-17.499 17.998 -17.499 40.9971q0 24.998 17.499 42.4971t42.498 17.499q25.998 0 43.9971 -16.999t17.999 -42.9971q0 -24.998 -18.499 -42.4971
t-43.4971 -17.499z" />
    <glyph glyph-name="cent" unicode="&#xa2;" horiz-adv-x="477" 
d="M352 494q32 -6 60 -21t50 -39l8 -9l-77 -63l-7 7q-20 21 -43 29t-51 8q-44 0 -77 -18t-55 -47t-32.5 -67t-10.5 -78q0 -58 29 -81.5t87 -23.5q29 0 58.5 8t50.5 29l9 9l56 -66l-8 -7q-29 -27 -63 -41.5t-72 -21.5l-16 -93h-87l17 92q-74 12 -116.5 54.5t-42.5 117.5
q0 55 13.5 113t43 105t76 77t112.5 30l2 8q2 7 5 21.5t8 41.5h87z" />
    <glyph glyph-name="sterling" unicode="&#xa3;" horiz-adv-x="640" 
d="M176 285h-110l15 85h88l-8 38q-3 14 -4 29.5t-1 30.5q0 53 20 96t55 74t81.5 47.5t99.5 16.5q60 0 111 -22t82 -76l5 -8l-89 -70l-6 12q-17 35 -45 50.5t-66 15.5q-66 0 -106.5 -35.5t-40.5 -100.5q0 -14 1.5 -27t3.5 -27l8 -44h147l-15 -85h-125q-4 -50 -27 -85.5
t-54 -72.5q8 1 15 1.5t13 0.5q26 0 49.5 -7.5t46.5 -15.5t47.5 -15t52.5 -7q22 0 41.5 8t36.5 17l14 7l29 -88q-29 -18 -64 -29t-70 -11q-25 0 -49 6.5t-47.5 15t-47 15t-48.5 6.5q-44 0 -86.5 -10t-80.5 -33q-6 21 -14 49.5t-16 48.5q31 23 58 44.5t48 44.5t34.5 50
t17.5 60z" />
    <glyph glyph-name="currency" unicode="&#xa4;" horiz-adv-x="576" 
d="M396 551l67 67l72 -70l-68 -67q15 -26 23 -53t8 -57q0 -59 -30 -108l67 -65l-70 -73l-68 67q-24 -16 -52 -23.5t-57 -7.5q-57 0 -108 30l-66 -67l-73 70l68 68q-31 49 -31 109q0 29 7 56.5t23 51.5l-66 66l70 73l66 -68q49 31 110 31q29 0 56.5 -7.5t51.5 -22.5zM288 481
q-21 0 -41 -8t-35.5 -23t-24.5 -35t-9 -44q0 -20 7.5 -39.5t21.5 -35t34.5 -25.5t46.5 -10q21 0 40.5 8t35 22t25 34.5t9.5 45.5q0 21 -8 41t-23 35.5t-35 24.5t-44 9z" />
    <glyph glyph-name="yen" unicode="&#xa5;" horiz-adv-x="680" 
d="M435 374h128l-17 -89h-190l-9 -50h190l-15 -89h-190l-26 -146h-116l26 146h-190l14 89h191l9 50h-191l17 89h129l-136 292l117 30l137 -302h7l244 302l108 -31z" />
    <glyph glyph-name="brokenbar" unicode="&#xa6;" horiz-adv-x="212" 
d="M153 -194v361h-98v-361q11 -3 25.5 -4.5t22.5 -1.5t23 1.5t27 4.5zM153 695v-362h-98v362q11 3 25.5 4.5t22.5 1.5t23 -1.5t27 -4.5z" />
    <glyph glyph-name="section" unicode="&#xa7;" horiz-adv-x="520" 
d="M147 419q-35 31 -56 64t-21 77q0 39 15.5 67t41.5 46t59.5 26.5t69.5 8.5q65 0 118.5 -23t93.5 -75l6 -9l-77 -64l-7 9q-27 33 -57.5 50.5t-74.5 17.5q-15 0 -30 -1.5t-27 -7t-20 -16t-8 -27.5q0 -14 8 -28t20 -26t25.5 -22t24.5 -17q55 -35 88.5 -57t52.5 -35t28 -20
t15 -13q23 -22 38.5 -49.5t15.5 -61.5q0 -40 -17 -69.5t-49 -47.5l-50 -25q34 -30 55.5 -63.5t21.5 -80.5q0 -39 -15 -67.5t-40 -47.5t-58 -28.5t-69 -9.5q-69 0 -123.5 26.5t-99.5 77.5l-8 9l80 70l7 -9q31 -35 63 -54t80 -19q13 0 27 2t25.5 7t19 15t7.5 26q0 21 -15 40
t-36 36t-44 31t-38 24l-11 7q-5 3 -10.5 6t-10.5 7q-25 16 -51.5 34.5t-48.5 40.5t-36 48t-14 58q0 28 10 50t26.5 39t37 30t42.5 23zM298 146q14 7 29.5 14.5t28 17t21 22t8.5 30.5q0 11 -7.5 21.5t-18.5 20.5t-22.5 18t-20.5 14l-94 60q-15 -7 -30.5 -14t-28 -16
t-20.5 -22t-8 -32q0 -15 13 -29.5t32.5 -29t40.5 -27.5t38 -23z" />
    <glyph glyph-name="dieresis" unicode="&#xa8;" horiz-adv-x="415" 
d="M107 860q24 0 42 -17t18 -41q0 -25 -17.5 -42t-42.5 -17t-42.5 17t-17.5 42q0 24 18 41t42 17zM309 860q24 0 42 -17t18 -41q0 -25 -17.5 -42t-42.5 -17t-42.5 17t-17.5 42q0 24 18 41t42 17z" />
    <glyph glyph-name="copyright" unicode="&#xa9;" horiz-adv-x="812" 
d="M407 708q84 0 152.5 -28t117 -77t75 -114t26.5 -140q0 -74 -26.5 -140t-75 -115t-117 -77.5t-152.5 -28.5q-83 0 -151.5 28.5t-118 77t-76.5 114.5t-27 141t27 140.5t75.5 114t117.5 76.5t153 28zM407 625q-63 0 -116 -20t-91.5 -56t-60 -87t-21.5 -113q0 -63 22 -114
t60.5 -87t91.5 -56t115 -20q63 0 115.5 20t90.5 57t59.5 87.5t21.5 112.5t-21 113t-59.5 87t-91 56t-115.5 20zM302 358q0 -63 23 -97.5t89 -34.5q26 0 40.5 4.5t32.5 18.5l62 -60q-55 -56 -135 -56q-51 0 -89.5 16t-64 45.5t-38 70.5t-12.5 92q0 43 14.5 81t40.5 65.5
t61.5 43.5t77.5 16q43 0 78.5 -11t65.5 -43l-64 -66q-15 14 -31 21.5t-43 7.5q-31 0 -51.5 -9t-33 -24.5t-18 -36.5t-5.5 -44z" />
    <glyph glyph-name="ordfeminine" unicode="&#xaa;" horiz-adv-x="401" 
d="M145 417q12 0 27.5 5t31.5 12.5t31.5 15.5t27.5 14l6 36h-118q-23 0 -37.5 -14t-14.5 -36q0 -18 13 -25.5t33 -7.5zM235 707q51 0 87.5 -26t36.5 -75q0 -5 -0.5 -10.5t-1.5 -11.5l-25 -147q-3 -17 -3 -31q0 -22 9 -46h-77q-4 6 -5 14.5t-1 16.5v8q-31 -20 -62 -33.5
t-66 -13.5q-42 0 -71.5 24.5t-29.5 65.5q0 28 12 50.5t31 38.5t43.5 24.5t49.5 8.5h119l1 8q1 5 1.5 9.5t0.5 9.5q0 54 -60 54q-31 0 -54.5 -8t-51.5 -22l-24 55q36 19 69.5 28t71.5 9z" />
    <glyph glyph-name="guillemotleft" unicode="&#xab;" horiz-adv-x="535" 
d="M345 256q28 -50 45 -104t32 -109h-84q-19 55 -49.5 107.5t-65.5 100.5l-6 9l8 6q51 49 99.5 100t89.5 110h92l-3 -5q-34 -59 -73.5 -111.5t-84.5 -103.5zM146 256q28 -50 45.5 -104t31.5 -109h-83q-19 55 -50 107.5t-66 100.5l-6 9l8 6q51 49 99.5 100t89.5 110h92l-3 -5
q-34 -59 -73.5 -111.5t-84.5 -103.5z" />
    <glyph glyph-name="logicalnot" unicode="&#xac;" horiz-adv-x="529" 
d="M1 513h472v-299h-104v195h-368v104z" />
    <glyph glyph-name="uni00AD" unicode="&#xad;" horiz-adv-x="386" 
d="M61 229q-8 26 -8 43q0 10 2 20t6 23h263q4 -13 6 -23t2 -20q0 -17 -8 -43h-263z" />
    <glyph glyph-name="registered" unicode="&#xae;" horiz-adv-x="533" 
d="M240 445v-82h-56v226h98q32 0 54.5 -18.5t22.5 -50.5q0 -23 -9.5 -43t-35.5 -28l26 -38q5 -8 15 -8h9v-36q-6 -4 -11.5 -6t-13.5 -2q-12 0 -25 6.5t-20 17.5l-37 55q-4 7 -17 7zM240 499h42q14 0 20 3t6 17q0 11 -8 14t-18 3h-42v-37zM266 707q47 0 89.5 -18.5t75 -50.5
t51.5 -74.5t19 -90.5t-18.5 -90.5t-51 -74t-75 -50t-90.5 -18.5t-90 18.5t-74 50.5t-50.5 74t-18.5 90q0 49 18.5 91.5t50.5 74t74 50t90 18.5zM266 639q-34 0 -64 -13.5t-52.5 -36t-35.5 -53t-13 -63.5q0 -34 13 -64t35.5 -52.5t52.5 -35.5t64 -13t64 13t52.5 35.5t36 52.5
t13.5 64t-13 64t-35.5 52.5t-53 36t-64.5 13.5z" />
    <glyph glyph-name="degree" unicode="&#xb0;" horiz-adv-x="348" 
d="M173 707q30 0 55.5 -11t44.5 -30t30 -44.5t11 -55.5q0 -29 -11 -54.5t-30 -44.5t-45 -29.5t-55 -10.5t-54.5 10.5t-44.5 29.5t-30 44.5t-11 54.5q0 30 11 55.5t30 44.5t44.5 30t54.5 11zM173 637q-30 0 -50 -20.5t-20 -50.5q0 -29 20.5 -49t49.5 -20q30 0 50.5 20
t20.5 49q0 30 -20.5 50.5t-50.5 20.5z" />
    <glyph glyph-name="plusminus" unicode="&#xb1;" horiz-adv-x="513" 
d="M30 101h453q3 -12 5 -27t2 -23q0 -10 -2.5 -25.5t-4.5 -25.5h-453q-4 11 -5.5 26.5t-1.5 24.5q0 8 1.5 23.5t5.5 26.5zM30 400h175v166q10 3 25.5 5t25.5 2t25.5 -2.5t25.5 -4.5v-166h176q3 -11 5 -26.5t2 -23.5q0 -10 -2.5 -26t-4.5 -25h-176v-166q-10 -2 -25.5 -4.5
t-25.5 -2.5t-25.5 2.5t-25.5 4.5v166h-175q-4 11 -5.5 26.5t-1.5 24.5q0 8 1.5 23.5t5.5 26.5z" />
    <glyph glyph-name="twosuperior" unicode="&#xb2;" horiz-adv-x="349" 
d="M132 414h146l-12 -68h-246l7 41q4 27 28 48l162 116q11 8 19.5 23t8.5 29q0 20 -13 24.5t-29 4.5q-26 0 -40.5 -10.5t-28.5 -30.5l-59 31q25 36 56 57.5t77 21.5q45 0 75.5 -22.5t30.5 -70.5q0 -30 -13.5 -57t-36.5 -47z" />
    <glyph glyph-name="threesuperior" unicode="&#xb3;" horiz-adv-x="331" 
d="M218 559q29 -10 44.5 -30.5t15.5 -53.5q0 -63 -40 -99t-103 -36q-48 0 -73.5 21t-36.5 66l64 27q10 -23 19 -34.5t36 -11.5q29 0 46 13.5t17 42.5q0 20 -13.5 30t-32.5 10h-48l11 52l70 69h-119l12 69h216l-8 -40q-5 -26 -22 -43z" />
    <glyph glyph-name="acute" unicode="&#xb4;" horiz-adv-x="220" 
d="M13 737l98 123h97l-4 -25l-102 -98h-89z" />
    <glyph glyph-name="mu" unicode="&#xb5;" horiz-adv-x="596" 
d="M414 159l57 326l115 31l-69 -392q-4 -20 -4 -41t4.5 -40t13.5 -43h-115q-7 12 -10 21.5t-4 23.5q-32 -24 -69 -40.5t-78 -16.5q-47 0 -83 11l-34 -193h-109l118 679l115 31l-59 -335q-2 -10 -3 -19.5t-1 -17.5q0 -26 14 -42.5t55 -16.5q20 0 40 7t38.5 17.5t36 24
t31.5 25.5z" />
    <glyph glyph-name="paragraph" unicode="&#xb6;" horiz-adv-x="630" 
d="M593 606h-68v-800h-97v800h-85v-800h-93v471h-11q-50 0 -91.5 15t-71 43t-46 68t-16.5 90t17 87.5t47.5 63t71.5 38.5t89 13h354v-89z" />
    <glyph glyph-name="periodcentered" unicode="&#xb7;" horiz-adv-x="188" 
d="M95 420q24 0 42 -18t18 -42q0 -25 -17.5 -42.5t-42.5 -17.5q-26 0 -44 17t-18 43q0 25 18.5 42.5t43.5 17.5z" />
    <glyph glyph-name="cedilla" unicode="&#xb8;" horiz-adv-x="239" 
d="M199 9l-30 -68q20 -11 27 -24t7 -28q0 -25 -10.5 -43t-28 -29.5t-39 -17t-42.5 -5.5q-19 0 -39.5 3t-37.5 10l25 55q14 -5 27.5 -7.5t27.5 -2.5q16 0 28 9t12 25q0 11 -7.5 20t-27.5 11l42 92h66z" />
    <glyph glyph-name="onesuperior" unicode="&#xb9;" horiz-adv-x="253" 
d="M79 415l30 172l-35 -29l-41 51l105 86h68l-49 -280h47l-12 -68h-176l12 68h51z" />
    <glyph glyph-name="ordmasculine" unicode="&#xba;" horiz-adv-x="417" 
d="M176 346q-60 0 -101 31.5t-41 93.5q0 47 12.5 89.5t38 75t64.5 52t91 19.5q31 0 57 -8.5t45.5 -25.5t30.5 -41.5t11 -55.5q0 -46 -14 -87.5t-41 -73t-65.5 -50.5t-87.5 -19zM316 570q0 39 -23.5 55t-60.5 16q-34 0 -59 -13.5t-41 -35t-23.5 -49.5t-7.5 -58
q0 -42 21.5 -57.5t63.5 -15.5q33 0 57.5 13.5t40.5 36t24 50.5t8 58z" />
    <glyph glyph-name="guillemotright" unicode="&#xbb;" horiz-adv-x="536" 
d="M191 261q-28 50 -45 104t-32 109h84q19 -55 49.5 -107.5t65.5 -100.5l6 -9l-8 -6q-51 -49 -99.5 -100t-89.5 -110h-92l3 5q34 59 73.5 111.5t84.5 103.5zM390 261q-28 50 -45.5 104t-31.5 109h83q19 -55 50 -107.5t66 -100.5l6 -9l-8 -6q-51 -49 -99.5 -100t-89.5 -110
h-92l3 5q34 59 73.5 111.5t84.5 103.5z" />
    <glyph glyph-name="onequarter" unicode="&#xbc;" horiz-adv-x="651" 
d="M88 415l30 172l-35 -29l-41 51l105 86h68l-49 -280h47l-12 -68h-176l12 68h51zM101 -12h-101l635 719h98zM529 74h-155l11 62l187 213h77l-36 -206h50l-34 -69h-28l-13 -73h-72zM541 143l16 87l-78 -87h62z" />
    <glyph glyph-name="onehalf" unicode="&#xbd;" horiz-adv-x="673" 
d="M94 415l30 172l-35 -29l-41 51l105 86h68l-49 -280h47l-12 -68h-176l12 68h51zM507 68h146l-12 -68h-246l7 41q4 27 28 48l162 116q11 8 19.5 23t8.5 29q0 20 -13 24.5t-29 4.5q-26 0 -40.5 -10.5t-28.5 -30.5l-59 31q25 36 56 57.5t77 21.5q45 0 75.5 -22.5t30.5 -70.5
q0 -30 -13.5 -57t-36.5 -47zM105 -12h-101l635 719h98z" />
    <glyph glyph-name="threequarters" unicode="&#xbe;" horiz-adv-x="658" 
d="M204 559q29 -10 44.5 -30.5t15.5 -53.5q0 -63 -40 -99t-103 -36q-48 0 -73.5 21t-36.5 66l64 27q10 -23 19 -34.5t36 -11.5q29 0 46 13.5t17 42.5q0 20 -13.5 30t-32.5 10h-48l11 52l70 69h-119l12 69h216l-8 -40q-5 -26 -22 -43zM93 -12h-101l635 719h98zM547 74h-155
l11 62l187 213h77l-36 -206h50l-34 -69h-28l-13 -73h-72zM559 143l16 87l-78 -87h62z" />
    <glyph glyph-name="questiondown" unicode="&#xbf;" horiz-adv-x="384" 
d="M216.015 -204.957q-36.998 0 -70.9961 8.5q-33.998 8.49902 -59.9961 26.998t-41.4971 47.4971t-15.499 68.9961q0 41.9971 15.999 73.9951t39.9971 58.9961q23.999 26.999 51.9971 50.4971q27.998 23.499 52.9971 48.4971q36.9971 30.998 58.4961 75.9961
q21.499 44.9971 30.498 91.9941h86.9951q-8 -65.9961 -36.498 -131.992t-79.4951 -112.993q-14.999 -13.999 -34.998 -28.998t-37.998 -31.498t-30.498 -35.998t-12.499 -43.4971q0 -20.999 8.5 -33.998q8.49902 -12.999 21.998 -20.499q13.499 -7.49902 30.498 -9.99902
t34.998 -2.5q39.998 0 74.4951 12.499q34.498 12.499 66.4961 35.498l50.9971 -81.9951q-44.9971 -34.998 -96.4941 -50.4971t-108.493 -15.499zM329.008 395.007q-24.999 0 -42.498 17.499q-17.498 17.499 -17.498 42.4971q0 23.999 16.998 41.9971
q16.999 17.999 42.998 17.999q25.998 0 43.4971 -17.499t17.499 -42.4971t-17.499 -42.4971t-43.4971 -17.499z" />
    <glyph glyph-name="Agrave" unicode="&#xc0;" horiz-adv-x="704" 
d="M236 199l-107 -199h-122l382 695h136l149 -695h-117l-42 199h-279zM289 296h206l-51 239l-5 55l-19 -55zM456 737l-68 86l6 37h100l54 -123h-92z" />
    <glyph glyph-name="Aacute" unicode="&#xc1;" horiz-adv-x="704" 
d="M236 199l-107 -199h-122l382 695h136l149 -695h-117l-42 199h-279zM289 296h206l-51 239l-5 55l-19 -55zM387 737l98 123h97l-4 -25l-102 -98h-89z" />
    <glyph glyph-name="Acircumflex" unicode="&#xc2;" horiz-adv-x="704" 
d="M236 199l-107 -199h-122l382 695h136l149 -695h-117l-42 199h-279zM289 296h206l-51 239l-5 55l-19 -55zM543 860l73 -97l-5 -26h-83l-32 81l-62 -81h-84l5 26l107 97h81z" />
    <glyph glyph-name="Atilde" unicode="&#xc3;" horiz-adv-x="704" 
d="M236 199l-107 -199h-122l382 695h136l149 -695h-117l-42 199h-279zM289 296h206l-51 239l-5 55l-19 -55zM314 752q4 21 14 40.5t25 34.5t34.5 24t42.5 9q18 0 31.5 -5t25 -11t23 -11t25.5 -5q25 0 36.5 8t14.5 24h67q-4 -24 -15.5 -43.5t-27.5 -34t-36 -22.5t-42 -8
q-20 0 -32.5 5.5t-23 12t-22 12t-27.5 5.5q-17 0 -30 -9t-16 -26h-67z" />
    <glyph glyph-name="Adieresis" unicode="&#xc4;" horiz-adv-x="704" 
d="M236 199l-107 -199h-122l382 695h136l149 -695h-117l-42 199h-279zM289 296h206l-51 239l-5 55l-19 -55zM382 860q24 0 42 -17t18 -41q0 -25 -17.5 -42t-42.5 -17t-42.5 17t-17.5 42q0 24 18 41t42 17zM584 860q24 0 42 -17t18 -41q0 -25 -17.5 -42t-42.5 -17t-42.5 17
t-17.5 42q0 24 18 41t42 17z" />
    <glyph glyph-name="Aring" unicode="&#xc5;" horiz-adv-x="704" 
d="M236 199l-107 -199h-122l382 695h136l149 -695h-117l-42 199h-279zM289 296h206l-51 239l-5 55l-19 -55zM368 748q0 40 28 68t68 28t68 -28t28 -68t-28 -68t-68 -28t-68 28t-28 68zM422 748q0 -17 12 -29t29 -12t29 12t12 29t-12 29t-29 12t-29 -12t-12 -29z" />
    <glyph glyph-name="AE" unicode="&#xc6;" horiz-adv-x="1123" 
d="M705 590l-30 -169h294l-19 -105h-294l-37 -211h357l-18 -105h-470l35 199h-266l-115 -199h-124l402 695h668l-51 -105h-332zM310 296h230l51 294h-110z" />
    <glyph glyph-name="Ccedilla" unicode="&#xc7;" horiz-adv-x="677" 
d="M322 93q46 0 87.5 17t76.5 47l9 8l67 -76l-9 -8q-51 -47 -114 -70t-132 -23q-75 0 -127.5 20.5t-85 57t-47 86t-14.5 106.5q0 95 25 177t75.5 142.5t125.5 95t175 34.5q68 0 123.5 -21.5t97.5 -76.5l-89 -76q-30 37 -64.5 52.5t-82.5 15.5q-73 0 -125 -28.5t-85 -75.5
t-48.5 -108t-15.5 -126q0 -37 8.5 -68t29 -53.5t54.5 -35.5t85 -13zM340 9l-30 -68q20 -11 27 -24t7 -28q0 -25 -10.5 -43t-28 -29.5t-39 -17t-42.5 -5.5q-19 0 -39.5 3t-37.5 10l25 55q14 -5 27.5 -7.5t27.5 -2.5q16 0 28 9t12 25q0 11 -7.5 20t-27.5 11l42 92h66z" />
    <glyph glyph-name="Egrave" unicode="&#xc8;" horiz-adv-x="708" 
d="M251 590l-30 -169h344l-19 -105h-344l-37 -211h407l-18 -105h-520l122 695h528l-51 -105h-382zM429 737l-68 86l6 37h100l54 -123h-92z" />
    <glyph glyph-name="Eacute" unicode="&#xc9;" horiz-adv-x="708" 
d="M251 590l-30 -169h344l-19 -105h-344l-37 -211h407l-18 -105h-520l122 695h528l-51 -105h-382zM355 737l98 123h97l-4 -25l-102 -98h-89z" />
    <glyph glyph-name="Ecircumflex" unicode="&#xca;" horiz-adv-x="708" 
d="M251 590l-30 -169h344l-19 -105h-344l-37 -211h407l-18 -105h-520l122 695h528l-51 -105h-382zM498 860l73 -97l-5 -26h-83l-32 81l-62 -81h-84l5 26l107 97h81z" />
    <glyph glyph-name="Edieresis" unicode="&#xcb;" horiz-adv-x="708" 
d="M251 590l-30 -169h344l-19 -105h-344l-37 -211h407l-18 -105h-520l122 695h528l-51 -105h-382zM341 860q24 0 42 -17t18 -41q0 -25 -17.5 -42t-42.5 -17t-42.5 17t-17.5 42q0 24 18 41t42 17zM543 860q24 0 42 -17t18 -41q0 -25 -17.5 -42t-42.5 -17t-42.5 17t-17.5 42
q0 24 18 41t42 17z" />
    <glyph glyph-name="Igrave" unicode="&#xcc;" horiz-adv-x="254" 
d="M245 695l-122 -695h-114l122 695h114zM187 737l-68 86l6 37h100l54 -123h-92z" />
    <glyph glyph-name="Iacute" unicode="&#xcd;" horiz-adv-x="254" 
d="M245 695l-122 -695h-114l122 695h114zM109 737l98 123h97l-4 -25l-102 -98h-89z" />
    <glyph glyph-name="Icircumflex" unicode="&#xce;" horiz-adv-x="254" 
d="M245 695l-122 -695h-114l122 695h114zM264 860l73 -97l-5 -26h-83l-32 81l-62 -81h-84l5 26l107 97h81z" />
    <glyph glyph-name="Idieresis" unicode="&#xcf;" horiz-adv-x="254" 
d="M245 695l-122 -695h-114l122 695h114zM106 860q24 0 42 -17t18 -41q0 -25 -17.5 -42t-42.5 -17t-42.5 17t-17.5 42q0 24 18 41t42 17zM308 860q24 0 42 -17t18 -41q0 -25 -17.5 -42t-42.5 -17t-42.5 17t-17.5 42q0 24 18 41t42 17z" />
    <glyph glyph-name="Eth" unicode="&#xd0;" horiz-adv-x="738" 
d="M374 388l-16 -82h-358l16 82h358zM34 0l124 695h313q66 0 110.5 -20t71 -54.5t37.5 -80.5t11 -97q0 -76 -18.5 -155t-58.5 -143t-102.5 -104.5t-149.5 -40.5h-338zM167 105h190q67 0 110 32.5t68.5 82t35.5 109.5t10 114q0 30 -5.5 56.5t-19.5 46.5t-39.5 32t-65.5 12
h-199z" />
    <glyph glyph-name="Ntilde" unicode="&#xd1;" horiz-adv-x="768" 
d="M528 175l92 520h113l-123 -695h-134l-234 529l-94 -529h-113l123 695h139zM308 752q4 21 14 40.5t25 34.5t34.5 24t42.5 9q18 0 31.5 -5t25 -11t23 -11t25.5 -5q25 0 36.5 8t14.5 24h67q-4 -24 -15.5 -43.5t-27.5 -34t-36 -22.5t-42 -8q-20 0 -32.5 5.5t-23 12t-22 12
t-27.5 5.5q-17 0 -30 -9t-16 -26h-67z" />
    <glyph glyph-name="Ograve" unicode="&#xd2;" 
d="M318 -12q-137 0 -210 64.5t-73 202.5q0 92 27 174t79 144t128.5 98t175.5 36q63 0 115.5 -16.5t90 -49t58 -81.5t20.5 -114q0 -104 -30 -188.5t-84.5 -144.5t-130 -92.5t-166.5 -32.5zM430 601q-70 0 -123 -28.5t-88 -75.5t-53 -107t-18 -122q0 -176 182 -176
q66 0 119 26t90 71.5t57 106.5t20 130q0 86 -50.5 130.5t-135.5 44.5zM458 737l-68 86l6 37h100l54 -123h-92z" />
    <glyph glyph-name="Oacute" unicode="&#xd3;" 
d="M318 -12q-137 0 -210 64.5t-73 202.5q0 92 27 174t79 144t128.5 98t175.5 36q63 0 115.5 -16.5t90 -49t58 -81.5t20.5 -114q0 -104 -30 -188.5t-84.5 -144.5t-130 -92.5t-166.5 -32.5zM430 601q-70 0 -123 -28.5t-88 -75.5t-53 -107t-18 -122q0 -176 182 -176
q66 0 119 26t90 71.5t57 106.5t20 130q0 86 -50.5 130.5t-135.5 44.5zM371 737l98 123h97l-4 -25l-102 -98h-89z" />
    <glyph glyph-name="Ocircumflex" unicode="&#xd4;" 
d="M318 -12q-137 0 -210 64.5t-73 202.5q0 92 27 174t79 144t128.5 98t175.5 36q63 0 115.5 -16.5t90 -49t58 -81.5t20.5 -114q0 -104 -30 -188.5t-84.5 -144.5t-130 -92.5t-166.5 -32.5zM430 601q-70 0 -123 -28.5t-88 -75.5t-53 -107t-18 -122q0 -176 182 -176
q66 0 119 26t90 71.5t57 106.5t20 130q0 86 -50.5 130.5t-135.5 44.5zM526 860l73 -97l-5 -26h-83l-32 81l-62 -81h-84l5 26l107 97h81z" />
    <glyph glyph-name="Otilde" unicode="&#xd5;" 
d="M318 -12q-137 0 -210 64.5t-73 202.5q0 92 27 174t79 144t128.5 98t175.5 36q63 0 115.5 -16.5t90 -49t58 -81.5t20.5 -114q0 -104 -30 -188.5t-84.5 -144.5t-130 -92.5t-166.5 -32.5zM430 601q-70 0 -123 -28.5t-88 -75.5t-53 -107t-18 -122q0 -176 182 -176
q66 0 119 26t90 71.5t57 106.5t20 130q0 86 -50.5 130.5t-135.5 44.5zM311 752q4 21 14 40.5t25 34.5t34.5 24t42.5 9q18 0 31.5 -5t25 -11t23 -11t25.5 -5q25 0 36.5 8t14.5 24h67q-4 -24 -15.5 -43.5t-27.5 -34t-36 -22.5t-42 -8q-20 0 -32.5 5.5t-23 12t-22 12t-27.5 5.5
q-17 0 -30 -9t-16 -26h-67z" />
    <glyph glyph-name="Odieresis" unicode="&#xd6;" 
d="M318 -12q-137 0 -210 64.5t-73 202.5q0 92 27 174t79 144t128.5 98t175.5 36q63 0 115.5 -16.5t90 -49t58 -81.5t20.5 -114q0 -104 -30 -188.5t-84.5 -144.5t-130 -92.5t-166.5 -32.5zM430 601q-70 0 -123 -28.5t-88 -75.5t-53 -107t-18 -122q0 -176 182 -176
q66 0 119 26t90 71.5t57 106.5t20 130q0 86 -50.5 130.5t-135.5 44.5zM365 860q24 0 42 -17t18 -41q0 -25 -17.5 -42t-42.5 -17t-42.5 17t-17.5 42q0 24 18 41t42 17zM567 860q24 0 42 -17t18 -41q0 -25 -17.5 -42t-42.5 -17t-42.5 17t-17.5 42q0 24 18 41t42 17z" />
    <glyph glyph-name="multiply" unicode="&#xd7;" horiz-adv-x="491" 
d="M449 461l-147 -148l147 -147l-56 -56l-147 147l-148 -147l-56 55l148 148l-148 148l56 56l148 -148l147 148z" />
    <glyph glyph-name="Oslash" unicode="&#xd8;" 
d="M712 707l61 -56l-708 -663l-64 54zM318 -12q-137 0 -210 64.5t-73 202.5q0 92 27 174t79 144t128.5 98t175.5 36q63 0 115.5 -16.5t90 -49t58 -81.5t20.5 -114q0 -104 -30 -188.5t-84.5 -144.5t-130 -92.5t-166.5 -32.5zM430 601q-70 0 -123 -28.5t-88 -75.5t-53 -107
t-18 -122q0 -176 182 -176q66 0 119 26t90 71.5t57 106.5t20 130q0 86 -50.5 130.5t-135.5 44.5z" />
    <glyph glyph-name="Ugrave" unicode="&#xd9;" horiz-adv-x="716" 
d="M233 695l-69 -391q-5 -24 -8 -48.5t-3 -50.5q0 -33 11.5 -54.5t31 -34t45.5 -18t55 -5.5q52 0 88.5 15.5t61.5 44t39.5 68t22.5 87.5l68 387h113l-68 -387q-12 -71 -38 -129.5t-67 -101t-99 -66t-135 -23.5q-52 0 -96 11.5t-76 36.5t-50 64.5t-18 94.5q0 30 3 59t8 58
l67 383h113zM414 737l-68 86l6 37h100l54 -123h-92z" />
    <glyph glyph-name="Uacute" unicode="&#xda;" horiz-adv-x="716" 
d="M233 695l-69 -391q-5 -24 -8 -48.5t-3 -50.5q0 -33 11.5 -54.5t31 -34t45.5 -18t55 -5.5q52 0 88.5 15.5t61.5 44t39.5 68t22.5 87.5l68 387h113l-68 -387q-12 -71 -38 -129.5t-67 -101t-99 -66t-135 -23.5q-52 0 -96 11.5t-76 36.5t-50 64.5t-18 94.5q0 30 3 59t8 58
l67 383h113zM332 737l98 123h97l-4 -25l-102 -98h-89z" />
    <glyph glyph-name="Ucircumflex" unicode="&#xdb;" horiz-adv-x="716" 
d="M233 695l-69 -391q-5 -24 -8 -48.5t-3 -50.5q0 -33 11.5 -54.5t31 -34t45.5 -18t55 -5.5q52 0 88.5 15.5t61.5 44t39.5 68t22.5 87.5l68 387h113l-68 -387q-12 -71 -38 -129.5t-67 -101t-99 -66t-135 -23.5q-52 0 -96 11.5t-76 36.5t-50 64.5t-18 94.5q0 30 3 59t8 58
l67 383h113zM488 860l73 -97l-5 -26h-83l-32 81l-62 -81h-84l5 26l107 97h81z" />
    <glyph glyph-name="Udieresis" unicode="&#xdc;" horiz-adv-x="716" 
d="M233 695l-69 -391q-5 -24 -8 -48.5t-3 -50.5q0 -33 11.5 -54.5t31 -34t45.5 -18t55 -5.5q52 0 88.5 15.5t61.5 44t39.5 68t22.5 87.5l68 387h113l-68 -387q-12 -71 -38 -129.5t-67 -101t-99 -66t-135 -23.5q-52 0 -96 11.5t-76 36.5t-50 64.5t-18 94.5q0 30 3 59t8 58
l67 383h113zM318 860q24 0 42 -17t18 -41q0 -25 -17.5 -42t-42.5 -17t-42.5 17t-17.5 42q0 24 18 41t42 17zM520 860q24 0 42 -17t18 -41q0 -25 -17.5 -42t-42.5 -17t-42.5 17t-17.5 42q0 24 18 41t42 17z" />
    <glyph glyph-name="Yacute" unicode="&#xdd;" horiz-adv-x="633" 
d="M323 304l-51 -304h-116l51 305q-11 3 -15 14l-167 358l115 30l139 -302h7l235 301l109 -30l-285 -359q-9 -10 -22 -13zM271 737l98 123h97l-4 -25l-102 -98h-89z" />
    <glyph glyph-name="Thorn" unicode="&#xde;" horiz-adv-x="645" 
d="M246 554h185q44 0 82.5 -7.5t67.5 -26.5t45.5 -51t16.5 -80q0 -65 -21.5 -110.5t-59.5 -75t-90.5 -43t-114.5 -13.5h-185l-24 -147h-115l123 696h115zM227 449l-37 -198h181q36 0 66.5 4.5t52 18t33.5 38t12 63.5q0 26 -10 40.5t-26.5 22t-38 9.5t-43.5 2h-190z" />
    <glyph glyph-name="germandbls" unicode="&#xdf;" horiz-adv-x="715" 
d="M230 413h-75l16 90h75q0 2 1.5 8.5t1.5 7.5q22 94 79.5 141.5t156.5 47.5q32 0 63.5 -6t56 -20.5t40 -38t15.5 -59.5q0 -26 -9 -49.5t-22.5 -45.5t-29.5 -42.5t-30 -40.5q-6 -8 -10 -18t-4 -21t6.5 -21.5t16 -20t21 -18t20.5 -14.5q2 -1 4 -3q15 -11 29 -24t25 -28
t17.5 -32.5t6.5 -35.5q0 -47 -16 -81.5t-44 -57t-66 -33.5t-81 -11q-63 0 -108 30t-64 92l-3 10l101 44l4 -12q10 -30 26 -49.5t51 -19.5q33 0 58 20t25 53q0 13 -7 24.5t-17 22t-22 19.5t-22 17q-14 11 -28 23t-25 25.5t-17.5 29.5t-6.5 35q0 34 17 61t37 52t37 51t17 58
q0 14 -7.5 22t-18.5 12t-24 5t-25 1q-51 0 -76 -23.5t-36 -69.5l-4 -17h101l-44 -90h-74q-11 -61 -20.5 -116t-20.5 -117l-42 -243q-5 -30 -18 -56t-34 -45.5t-49 -30.5t-63 -11q-20 0 -41 3.5t-41 8.5l16 84h50q25 0 45.5 12.5t25.5 38.5z" />
    <glyph glyph-name="agrave" unicode="&#xe0;" horiz-adv-x="561" 
d="M350 46q-31 -22 -65 -40t-74 -18q-86 0 -131 49.5t-45 135.5q0 80 20 143.5t60 108t99.5 68t138.5 23.5q49 0 88.5 -10.5t83.5 -30.5l-63 -359q-3 -18 -3 -36q-1 -17 4 -33t10 -31l5 -16h-115q-8 14 -10.5 25t-2.5 21zM361 159l44 248q-18 8 -35 10t-37 2q-53 0 -90 -19
t-60 -51t-33.5 -75t-10.5 -91q0 -45 18.5 -71.5t64.5 -26.5q19 0 38 6.5t37 17t34.5 24t29.5 26.5zM339 585l-50 97l4 25h92l31 -122h-77z" />
    <glyph glyph-name="aacute" unicode="&#xe1;" horiz-adv-x="561" 
d="M350 46q-31 -22 -65 -40t-74 -18q-86 0 -131 49.5t-45 135.5q0 80 20 143.5t60 108t99.5 68t138.5 23.5q49 0 88.5 -10.5t83.5 -30.5l-63 -359q-3 -18 -3 -36q-1 -17 4 -33t10 -31l5 -16h-115q-8 14 -10.5 25t-2.5 21zM361 159l44 248q-18 8 -35 10t-37 2q-53 0 -90 -19
t-60 -51t-33.5 -75t-10.5 -91q0 -45 18.5 -71.5t64.5 -26.5q19 0 38 6.5t37 17t34.5 24t29.5 26.5zM293 585l73 122h92l-4 -25l-84 -97h-77z" />
    <glyph glyph-name="acircumflex" unicode="&#xe2;" horiz-adv-x="561" 
d="M350 46q-31 -22 -65 -40t-74 -18q-86 0 -131 49.5t-45 135.5q0 80 20 143.5t60 108t99.5 68t138.5 23.5q49 0 88.5 -10.5t83.5 -30.5l-63 -359q-3 -18 -3 -36q-1 -17 4 -33t10 -31l5 -16h-115q-8 14 -10.5 25t-2.5 21zM361 159l44 248q-18 8 -35 10t-37 2q-53 0 -90 -19
t-60 -51t-33.5 -75t-10.5 -91q0 -45 18.5 -71.5t64.5 -26.5q19 0 38 6.5t37 17t34.5 24t29.5 26.5zM434 707l73 -97l-5 -26h-83l-27 81l-67 -81h-92l5 26l115 97h81z" />
    <glyph glyph-name="atilde" unicode="&#xe3;" horiz-adv-x="561" 
d="M350 46q-31 -22 -65 -40t-74 -18q-86 0 -131 49.5t-45 135.5q0 80 20 143.5t60 108t99.5 68t138.5 23.5q49 0 88.5 -10.5t83.5 -30.5l-63 -359q-3 -18 -3 -36q-1 -17 4 -33t10 -31l5 -16h-115q-8 14 -10.5 25t-2.5 21zM361 159l44 248q-18 8 -35 10t-37 2q-53 0 -90 -19
t-60 -51t-33.5 -75t-10.5 -91q0 -45 18.5 -71.5t64.5 -26.5q19 0 38 6.5t37 17t34.5 24t29.5 26.5zM180 599q4 21 14 40.5t25 34.5t34.5 24t42.5 9q18 0 31.5 -5t25.5 -11t23.5 -11t25.5 -5q25 0 36 8t14 24h67q-4 -24 -15.5 -43.5t-27.5 -34t-36 -22.5t-42 -8
q-20 0 -32.5 5.5t-23 12t-22 12t-27.5 5.5q-17 0 -30 -9t-16 -26h-67z" />
    <glyph glyph-name="adieresis" unicode="&#xe4;" horiz-adv-x="561" 
d="M350 46q-31 -22 -65 -40t-74 -18q-86 0 -131 49.5t-45 135.5q0 80 20 143.5t60 108t99.5 68t138.5 23.5q49 0 88.5 -10.5t83.5 -30.5l-63 -359q-3 -18 -3 -36q-1 -17 4 -33t10 -31l5 -16h-115q-8 14 -10.5 25t-2.5 21zM361 159l44 248q-18 8 -35 10t-37 2q-53 0 -90 -19
t-60 -51t-33.5 -75t-10.5 -91q0 -45 18.5 -71.5t64.5 -26.5q19 0 38 6.5t37 17t34.5 24t29.5 26.5zM255 707q24 0 42 -17t18 -41q0 -25 -17.5 -42t-42.5 -17t-42.5 17t-17.5 42q0 24 18 41t42 17zM457 707q24 0 42 -17t18 -41q0 -25 -17.5 -42t-42.5 -17t-42.5 17t-17.5 42
q0 24 18 41t42 17z" />
    <glyph glyph-name="aring" unicode="&#xe5;" horiz-adv-x="561" 
d="M350 46q-31 -22 -65 -40t-74 -18q-86 0 -131 49.5t-45 135.5q0 80 20 143.5t60 108t99.5 68t138.5 23.5q49 0 88.5 -10.5t83.5 -30.5l-63 -359q-3 -18 -3 -36q-1 -17 4 -33t10 -31l5 -16h-115q-8 14 -10.5 25t-2.5 21zM361 159l44 248q-18 8 -35 10t-37 2q-53 0 -90 -19
t-60 -51t-33.5 -75t-10.5 -91q0 -45 18.5 -71.5t64.5 -26.5q19 0 38 6.5t37 17t34.5 24t29.5 26.5zM268 631q0 40 28 68t68 28t68 -28t28 -68t-28 -68t-68 -28t-68 28t-28 68zM322 631q0 -17 12 -29t29 -12t29 12t12 29t-12 29t-29 12t-29 -12t-12 -29z" />
    <glyph glyph-name="ae" unicode="&#xe6;" horiz-adv-x="929" 
d="M510 207l-1 -3q-3 -15 -3 -27q0 -26 11.5 -44t31 -28.5t45 -15t52.5 -4.5q38 0 66.5 10t54.5 37l5 6l92 -41l-9 -11q-42 -54 -101 -76t-126 -22q-26 0 -53.5 1.5t-53.5 7.5t-48.5 18t-38.5 34q-63 -36 -121.5 -48.5t-126.5 -12.5q-31 0 -58 9t-47.5 26.5t-32 43
t-11.5 57.5q0 40 17 71.5t44.5 53.5t64 33.5t75.5 11.5h178q3 14 5.5 28t2.5 31q0 19 -8 31.5t-21 20t-28.5 11t-30.5 3.5q-24 0 -42 -3t-32.5 -10t-27 -19t-24.5 -31l-105 26l7 13q37 68 97.5 94.5t139.5 26.5q22 0 45.5 -1.5t45 -7.5t39.5 -17.5t31 -30.5q41 33 94 45
t105 12q36 0 70.5 -8.5t61 -27.5t43 -48t16.5 -69q0 -54 -22 -85.5t-57.5 -47t-78.5 -19.5t-85 -4h-147zM401 198h-175q-33 0 -55.5 -14.5t-22.5 -46.5q0 -28 18 -40t44 -12q48 0 99.5 13t92.5 38q-3 24 -3 38v11t2 13zM527 300h144q18 0 39.5 1t39.5 7.5t30 19.5t12 37
q0 17 -10 27.5t-25 16.5t-31.5 8t-29.5 2q-60 0 -105.5 -26t-63.5 -93z" />
    <glyph glyph-name="ccedilla" unicode="&#xe7;" horiz-adv-x="532" 
d="M342 516q54 0 94.5 -17.5t74.5 -59.5l-79 -66q-13 13 -24 21.5t-23.5 14t-26.5 8t-33 2.5q-46 0 -81.5 -18.5t-60 -49t-37 -70t-12.5 -81.5q0 -50 28 -82.5t96 -32.5q31 0 63.5 10t61.5 39l59 -68q-45 -42 -95 -60t-102 -18q-56 0 -96 15t-66 42t-38 64t-12 81
q0 72 21 132t60.5 103t97 67t130.5 24zM289 9l-30 -68q20 -11 27 -24t7 -28q0 -25 -10.5 -43t-28 -29.5t-39 -17t-42.5 -5.5q-19 0 -39.5 3t-37.5 10l25 55q14 -5 27.5 -7.5t27.5 -2.5q16 0 28 9t12 25q0 11 -7.5 20t-27.5 11l42 92h66z" />
    <glyph glyph-name="egrave" unicode="&#xe8;" horiz-adv-x="559" 
d="M141 180q0 -29 9.5 -47t25.5 -29t37.5 -15t46.5 -4q38 0 70.5 12.5t59.5 40.5l5 6l91 -41l-9 -11q-44 -54 -102.5 -79t-127.5 -25q-49 0 -88.5 10.5t-67 33.5t-42.5 59t-15 87q0 69 19.5 130t58.5 107.5t96.5 73.5t132.5 27q37 0 71.5 -8.5t60.5 -26.5t41.5 -47t15.5 -71
q0 -50 -19.5 -81.5t-53 -51t-78 -28.5t-93.5 -12zM154 278l143 9q21 1 43.5 4.5t41 12t30.5 23.5t12 39q0 18 -10 28.5t-25 16t-32 7t-30 1.5q-68 0 -112.5 -40t-60.5 -101zM310 585l-50 97l4 25h92l31 -122h-77z" />
    <glyph glyph-name="eacute" unicode="&#xe9;" horiz-adv-x="559" 
d="M141 180q0 -29 9.5 -47t25.5 -29t37.5 -15t46.5 -4q38 0 70.5 12.5t59.5 40.5l5 6l91 -41l-9 -11q-44 -54 -102.5 -79t-127.5 -25q-49 0 -88.5 10.5t-67 33.5t-42.5 59t-15 87q0 69 19.5 130t58.5 107.5t96.5 73.5t132.5 27q37 0 71.5 -8.5t60.5 -26.5t41.5 -47t15.5 -71
q0 -50 -19.5 -81.5t-53 -51t-78 -28.5t-93.5 -12zM154 278l143 9q21 1 43.5 4.5t41 12t30.5 23.5t12 39q0 18 -10 28.5t-25 16t-32 7t-30 1.5q-68 0 -112.5 -40t-60.5 -101zM270 585l73 122h92l-4 -25l-84 -97h-77z" />
    <glyph glyph-name="ecircumflex" unicode="&#xea;" horiz-adv-x="559" 
d="M141 180q0 -29 9.5 -47t25.5 -29t37.5 -15t46.5 -4q38 0 70.5 12.5t59.5 40.5l5 6l91 -41l-9 -11q-44 -54 -102.5 -79t-127.5 -25q-49 0 -88.5 10.5t-67 33.5t-42.5 59t-15 87q0 69 19.5 130t58.5 107.5t96.5 73.5t132.5 27q37 0 71.5 -8.5t60.5 -26.5t41.5 -47t15.5 -71
q0 -50 -19.5 -81.5t-53 -51t-78 -28.5t-93.5 -12zM154 278l143 9q21 1 43.5 4.5t41 12t30.5 23.5t12 39q0 18 -10 28.5t-25 16t-32 7t-30 1.5q-68 0 -112.5 -40t-60.5 -101zM421 707l73 -97l-5 -26h-83l-27 81l-67 -81h-92l5 26l115 97h81z" />
    <glyph glyph-name="edieresis" unicode="&#xeb;" horiz-adv-x="559" 
d="M141 180q0 -29 9.5 -47t25.5 -29t37.5 -15t46.5 -4q38 0 70.5 12.5t59.5 40.5l5 6l91 -41l-9 -11q-44 -54 -102.5 -79t-127.5 -25q-49 0 -88.5 10.5t-67 33.5t-42.5 59t-15 87q0 69 19.5 130t58.5 107.5t96.5 73.5t132.5 27q37 0 71.5 -8.5t60.5 -26.5t41.5 -47t15.5 -71
q0 -50 -19.5 -81.5t-53 -51t-78 -28.5t-93.5 -12zM154 278l143 9q21 1 43.5 4.5t41 12t30.5 23.5t12 39q0 18 -10 28.5t-25 16t-32 7t-30 1.5q-68 0 -112.5 -40t-60.5 -101zM268 707q24 0 42 -17t18 -41q0 -25 -17.5 -42t-42.5 -17t-42.5 17t-17.5 42q0 24 18 41t42 17z
M470 707q24 0 42 -17t18 -41q0 -25 -17.5 -42t-42.5 -17t-42.5 17t-17.5 42q0 24 18 41t42 17z" />
    <glyph glyph-name="igrave" unicode="&#xec;" horiz-adv-x="234" 
d="M9 0l89 504h109l-89 -504h-109zM164 585l-50 97l4 25h92l31 -122h-77z" />
    <glyph glyph-name="iacute" unicode="&#xed;" horiz-adv-x="260" 
d="M9 0l89 504h109l-89 -504h-109zM101 585l73 122h92l-4 -25l-84 -97h-77z" />
    <glyph glyph-name="icircumflex" unicode="&#xee;" horiz-adv-x="326" 
d="M25 0l89 504h109l-89 -504h-109zM260 707l73 -97l-5 -26h-83l-27 81l-67 -81h-92l5 26l115 97h81z" />
    <glyph glyph-name="idieresis" unicode="&#xef;" horiz-adv-x="374" 
d="M46 0l89 504h109l-89 -504h-109zM116 707q24 0 42 -17t18 -41q0 -25 -17.5 -42t-42.5 -17t-42.5 17t-17.5 42q0 24 18 41t42 17zM318 707q24 0 42 -17t18 -41q0 -25 -17.5 -42t-42.5 -17t-42.5 17t-17.5 42q0 24 18 41t42 17z" />
    <glyph glyph-name="eth" unicode="&#xf0;" horiz-adv-x="543" 
d="M280 629q-15 16 -30 26.5t-32 23.5l64 64q13 -8 23.5 -14t20.5 -14t21.5 -18.5t25.5 -25.5l114 48l22 -68l-91 -38q43 -65 62.5 -130t19.5 -135q0 -69 -16 -133.5t-50.5 -115t-89.5 -81t-132 -30.5q-53 0 -90 15t-60 41t-34 61t-11 76q0 63 19 121t55 103t89 71.5
t121 26.5q17 0 36 -4.5t35 -11.5q-7 25 -19 46.5t-26 37.5l-128 -53l-25 67zM399 296q0 54 -22.5 83t-81.5 29q-48 0 -82 -19t-55.5 -50.5t-31 -71.5t-9.5 -82q0 -22 5 -41t17.5 -32.5t34 -21.5t53.5 -8q46 0 78.5 18t53.5 48t30.5 68.5t9.5 79.5z" />
    <glyph glyph-name="ntilde" unicode="&#xf1;" horiz-adv-x="568" 
d="M209 374l-65 -374h-110l66 370q2 12 3 22t1 19q0 14 -2.5 27.5t-9.5 31.5l106 46q6 -14 10 -25t6 -27q29 23 64 37.5t73 14.5q39 0 71.5 -13.5t55.5 -36.5t36 -54t13 -66q0 -17 -3 -33l-55 -313h-110l57 318q1 5 1.5 11t0.5 11q0 37 -23 58t-59 21q-35 0 -67.5 -12.5
t-59.5 -32.5zM193 599q4 21 14 40.5t25 34.5t34.5 24t42.5 9q18 0 31.5 -5t25.5 -11t23.5 -11t25.5 -5q25 0 36 8t14 24h67q-4 -24 -15.5 -43.5t-27.5 -34t-36 -22.5t-42 -8q-20 0 -32.5 5.5t-23 12t-22 12t-27.5 5.5q-17 0 -30 -9t-16 -26h-67z" />
    <glyph glyph-name="ograve" unicode="&#xf2;" horiz-adv-x="579" 
d="M242 -12q-44 0 -82 11.5t-66 34.5t-44 57t-16 80q0 69 18.5 131.5t56 110t94 75.5t132.5 28q45 0 83.5 -12.5t67 -37t44.5 -60.5t16 -82q0 -67 -21 -127.5t-60 -107t-95.5 -74t-127.5 -27.5zM447 316q0 56 -35 79.5t-89 23.5q-50 0 -86 -19.5t-59 -51t-34.5 -73
t-11.5 -84.5q0 -31 8 -51.5t24 -32.5t39 -17t53 -5q49 0 85 20t59.5 52t35 73.5t11.5 85.5zM321 585l-50 97l4 25h92l31 -122h-77z" />
    <glyph glyph-name="oacute" unicode="&#xf3;" horiz-adv-x="579" 
d="M242 -12q-44 0 -82 11.5t-66 34.5t-44 57t-16 80q0 69 18.5 131.5t56 110t94 75.5t132.5 28q45 0 83.5 -12.5t67 -37t44.5 -60.5t16 -82q0 -67 -21 -127.5t-60 -107t-95.5 -74t-127.5 -27.5zM447 316q0 56 -35 79.5t-89 23.5q-50 0 -86 -19.5t-59 -51t-34.5 -73
t-11.5 -84.5q0 -31 8 -51.5t24 -32.5t39 -17t53 -5q49 0 85 20t59.5 52t35 73.5t11.5 85.5zM297 585l73 122h92l-4 -25l-84 -97h-77z" />
    <glyph glyph-name="ocircumflex" unicode="&#xf4;" horiz-adv-x="579" 
d="M242 -12q-44 0 -82 11.5t-66 34.5t-44 57t-16 80q0 69 18.5 131.5t56 110t94 75.5t132.5 28q45 0 83.5 -12.5t67 -37t44.5 -60.5t16 -82q0 -67 -21 -127.5t-60 -107t-95.5 -74t-127.5 -27.5zM447 316q0 56 -35 79.5t-89 23.5q-50 0 -86 -19.5t-59 -51t-34.5 -73
t-11.5 -84.5q0 -31 8 -51.5t24 -32.5t39 -17t53 -5q49 0 85 20t59.5 52t35 73.5t11.5 85.5zM430 707l73 -97l-5 -26h-83l-27 81l-67 -81h-92l5 26l115 97h81z" />
    <glyph glyph-name="otilde" unicode="&#xf5;" horiz-adv-x="579" 
d="M242 -12q-44 0 -82 11.5t-66 34.5t-44 57t-16 80q0 69 18.5 131.5t56 110t94 75.5t132.5 28q45 0 83.5 -12.5t67 -37t44.5 -60.5t16 -82q0 -67 -21 -127.5t-60 -107t-95.5 -74t-127.5 -27.5zM447 316q0 56 -35 79.5t-89 23.5q-50 0 -86 -19.5t-59 -51t-34.5 -73
t-11.5 -84.5q0 -31 8 -51.5t24 -32.5t39 -17t53 -5q49 0 85 20t59.5 52t35 73.5t11.5 85.5zM192 599q4 21 14 40.5t25 34.5t34.5 24t42.5 9q18 0 31.5 -5t25.5 -11t23.5 -11t25.5 -5q25 0 36 8t14 24h67q-4 -24 -15.5 -43.5t-27.5 -34t-36 -22.5t-42 -8q-20 0 -32.5 5.5
t-23 12t-22 12t-27.5 5.5q-17 0 -30 -9t-16 -26h-67z" />
    <glyph glyph-name="odieresis" unicode="&#xf6;" horiz-adv-x="579" 
d="M242 -12q-44 0 -82 11.5t-66 34.5t-44 57t-16 80q0 69 18.5 131.5t56 110t94 75.5t132.5 28q45 0 83.5 -12.5t67 -37t44.5 -60.5t16 -82q0 -67 -21 -127.5t-60 -107t-95.5 -74t-127.5 -27.5zM447 316q0 56 -35 79.5t-89 23.5q-50 0 -86 -19.5t-59 -51t-34.5 -73
t-11.5 -84.5q0 -31 8 -51.5t24 -32.5t39 -17t53 -5q49 0 85 20t59.5 52t35 73.5t11.5 85.5zM260 707q24 0 42 -17t18 -41q0 -25 -17.5 -42t-42.5 -17t-42.5 17t-17.5 42q0 24 18 41t42 17zM462 707q24 0 42 -17t18 -41q0 -25 -17.5 -42t-42.5 -17t-42.5 17t-17.5 42
q0 24 18 41t42 17z" />
    <glyph glyph-name="divide" unicode="&#xf7;" horiz-adv-x="500" 
d="M247 220q25 0 42.5 -17.5t17.5 -42.5q0 -24 -18 -41.5t-42 -17.5q-26 0 -43 17t-17 42q0 26 17 43t43 17zM247 526q25 0 42.5 -17.5t17.5 -42.5q0 -24 -18 -41.5t-42 -17.5q-26 0 -43 17t-17 42q0 26 17 43t43 17zM15 366h472q5 -17 7 -28.5t2 -22.5t-2 -22.5t-7 -28.5
h-472q-10 31 -10 51t10 51z" />
    <glyph glyph-name="oslash" unicode="&#xf8;" horiz-adv-x="579" 
d="M506 516l65 -58l-507 -470l-63 59zM242 -12q-44 0 -82 11.5t-66 34.5t-44 57t-16 80q0 69 18.5 131.5t56 110t94 75.5t132.5 28q45 0 83.5 -12.5t67 -37t44.5 -60.5t16 -82q0 -67 -21 -127.5t-60 -107t-95.5 -74t-127.5 -27.5zM447 316q0 56 -35 79.5t-89 23.5
q-50 0 -86 -19.5t-59 -51t-34.5 -73t-11.5 -84.5q0 -31 8 -51.5t24 -32.5t39 -17t53 -5q49 0 85 20t59.5 52t35 73.5t11.5 85.5z" />
    <glyph glyph-name="ugrave" unicode="&#xf9;" horiz-adv-x="572" 
d="M366 159l56 326l116 31l-69 -392q-2 -12 -3 -22t-1 -20q0 -20 4.5 -39t12.5 -43h-114q-7 12 -10 21.5t-4 23.5q-32 -24 -69 -40.5t-79 -16.5q-87 0 -126 36t-39 105q0 13 1 27t4 29l52 300l116 31l-59 -335q-2 -10 -3 -20t-1 -18q0 -26 14 -42t54 -16q20 0 40 7t39 17.5
t36 24t32 25.5zM321 585l-50 97l4 25h92l31 -122h-77z" />
    <glyph glyph-name="uacute" unicode="&#xfa;" horiz-adv-x="572" 
d="M366 159l56 326l116 31l-69 -392q-2 -12 -3 -22t-1 -20q0 -20 4.5 -39t12.5 -43h-114q-7 12 -10 21.5t-4 23.5q-32 -24 -69 -40.5t-79 -16.5q-87 0 -126 36t-39 105q0 13 1 27t4 29l52 300l116 31l-59 -335q-2 -10 -3 -20t-1 -18q0 -26 14 -42t54 -16q20 0 40 7t39 17.5
t36 24t32 25.5zM293 585l73 122h92l-4 -25l-84 -97h-77z" />
    <glyph glyph-name="ucircumflex" unicode="&#xfb;" horiz-adv-x="572" 
d="M366 159l56 326l116 31l-69 -392q-2 -12 -3 -22t-1 -20q0 -20 4.5 -39t12.5 -43h-114q-7 12 -10 21.5t-4 23.5q-32 -24 -69 -40.5t-79 -16.5q-87 0 -126 36t-39 105q0 13 1 27t4 29l52 300l116 31l-59 -335q-2 -10 -3 -20t-1 -18q0 -26 14 -42t54 -16q20 0 40 7t39 17.5
t36 24t32 25.5zM414 707l73 -97l-5 -26h-83l-27 81l-67 -81h-92l5 26l115 97h81z" />
    <glyph glyph-name="udieresis" unicode="&#xfc;" horiz-adv-x="572" 
d="M366 159l56 326l116 31l-69 -392q-2 -12 -3 -22t-1 -20q0 -20 4.5 -39t12.5 -43h-114q-7 12 -10 21.5t-4 23.5q-32 -24 -69 -40.5t-79 -16.5q-87 0 -126 36t-39 105q0 13 1 27t4 29l52 300l116 31l-59 -335q-2 -10 -3 -20t-1 -18q0 -26 14 -42t54 -16q20 0 40 7t39 17.5
t36 24t32 25.5zM252 707q24 0 42 -17t18 -41q0 -25 -17.5 -42t-42.5 -17t-42.5 17t-17.5 42q0 24 18 41t42 17zM454 707q24 0 42 -17t18 -41q0 -25 -17.5 -42t-42.5 -17t-42.5 17t-17.5 42q0 24 18 41t42 17z" />
    <glyph glyph-name="yacute" unicode="&#xfd;" horiz-adv-x="574" 
d="M260 98l209 419l102 -31l-300 -586q-11 -20 -23.5 -39t-29 -34t-38 -24t-49.5 -9q-19 0 -40 3.5t-39 8.5l12 86h52q19 0 34.5 6.5t23.5 23.5l35 74q-25 10 -41.5 31t-23.5 48l-100 411l108 30l99 -405q1 -4 2.5 -8.5t6.5 -4.5zM264 585l73 122h92l-4 -25l-84 -97h-77z
" />
    <glyph glyph-name="thorn" unicode="&#xfe;" horiz-adv-x="568" 
d="M253 485q29 17 59.5 24t64.5 7q92 0 140 -52t48 -143q0 -65 -16 -125t-49.5 -106t-86.5 -74t-126 -28q-32 0 -61.5 6t-56.5 24l-37 -212h-109l154 869l114 32zM473 315q0 53 -27.5 79t-79.5 26q-49 0 -81 -23.5t-50.5 -59.5t-26 -79.5t-7.5 -82.5q0 -20 4.5 -37t15.5 -29
t30.5 -19t49.5 -7q50 0 83 21t53 54t28 74.5t8 82.5z" />
    <glyph glyph-name="ydieresis" unicode="&#xff;" horiz-adv-x="574" 
d="M260 98l209 419l102 -31l-300 -586q-11 -20 -23.5 -39t-29 -34t-38 -24t-49.5 -9q-19 0 -40 3.5t-39 8.5l12 86h52q19 0 34.5 6.5t23.5 23.5l35 74q-25 10 -41.5 31t-23.5 48l-100 411l108 30l99 -405q1 -4 2.5 -8.5t6.5 -4.5zM212 707q24 0 42 -17t18 -41
q0 -25 -17.5 -42t-42.5 -17t-42.5 17t-17.5 42q0 24 18 41t42 17zM414 707q24 0 42 -17t18 -41q0 -25 -17.5 -42t-42.5 -17t-42.5 17t-17.5 42q0 24 18 41t42 17z" />
    <glyph glyph-name="Amacron" unicode="&#x100;" horiz-adv-x="704" 
d="M236 199l-107 -199h-122l382 695h136l149 -695h-117l-42 199h-279zM289 296h206l-51 239l-5 55l-19 -55zM327 844h296q2 -10 2 -18q0 -19 -5 -37t-13 -35h-296q-1 4 -1 15q0 38 17 75z" />
    <glyph glyph-name="amacron" unicode="&#x101;" horiz-adv-x="561" 
d="M350 46q-31 -22 -65 -40t-74 -18q-86 0 -131 49.5t-45 135.5q0 80 20 143.5t60 108t99.5 68t138.5 23.5q49 0 88.5 -10.5t83.5 -30.5l-63 -359q-3 -18 -3 -36q-1 -17 4 -33t10 -31l5 -16h-115q-8 14 -10.5 25t-2.5 21zM361 159l44 248q-18 8 -35 10t-37 2q-53 0 -90 -19
t-60 -51t-33.5 -75t-10.5 -91q0 -45 18.5 -71.5t64.5 -26.5q19 0 38 6.5t37 17t34.5 24t29.5 26.5zM202 695h296q2 -8 2 -16q0 -40 -18 -74h-296q-2 8 -2 16q0 39 18 74z" />
    <glyph glyph-name="Abreve" unicode="&#x102;" horiz-adv-x="704" 
d="M236 199l-107 -199h-122l382 695h136l149 -695h-117l-42 199h-279zM289 296h206l-51 239l-5 55l-19 -55zM452 738q-25 0 -48.5 5.5t-41.5 17t-28.5 30t-10.5 45.5q0 5 0.5 11.5t1.5 12.5h71q-1 -4 -1 -11q0 -24 19.5 -34t48.5 -10q30 0 56 12t31 43h71q-6 -33 -23 -56.5
t-40 -38t-51 -21t-55 -6.5z" />
    <glyph glyph-name="abreve" unicode="&#x103;" horiz-adv-x="561" 
d="M350 46q-31 -22 -65 -40t-74 -18q-86 0 -131 49.5t-45 135.5q0 80 20 143.5t60 108t99.5 68t138.5 23.5q49 0 88.5 -10.5t83.5 -30.5l-63 -359q-3 -18 -3 -36q-1 -17 4 -33t10 -31l5 -16h-115q-8 14 -10.5 25t-2.5 21zM361 159l44 248q-18 8 -35 10t-37 2q-53 0 -90 -19
t-60 -51t-33.5 -75t-10.5 -91q0 -45 18.5 -71.5t64.5 -26.5q19 0 38 6.5t37 17t34.5 24t29.5 26.5zM348 585q-25 0 -48.5 5.5t-41.5 17t-28.5 30t-10.5 45.5q0 5 0.5 11.5t1.5 12.5h71q-1 -4 -1 -11q0 -24 19.5 -34t48.5 -10q30 0 56 12t31 43h71q-6 -33 -23 -56.5t-40 -38
t-51 -21t-55 -6.5z" />
    <glyph glyph-name="Aogonek" unicode="&#x104;" horiz-adv-x="704" 
d="M236 199l-107 -199h-122l382 695h136l149 -695h-117l-42 199h-279zM289 296h206l-51 239l-5 55l-19 -55zM657 11q-35 -26 -52 -51t-17 -55q0 -14 6.5 -22t24.5 -8q19 0 46 9l-12 -71q-23 -10 -47 -14.5t-41 -4.5q-36 0 -58.5 20.5t-22.5 52.5q0 35 20.5 72.5t55.5 71.5
h97z" />
    <glyph glyph-name="aogonek" unicode="&#x105;" horiz-adv-x="561" 
d="M350 46q-31 -22 -65 -40t-74 -18q-86 0 -131 49.5t-45 135.5q0 80 20 143.5t60 108t99.5 68t138.5 23.5q49 0 88.5 -10.5t83.5 -30.5l-63 -359q-3 -18 -3 -36q-1 -17 4 -33t10 -31l5 -16h-115q-8 14 -10.5 25t-2.5 21zM361 159l44 248q-18 8 -35 10t-37 2q-53 0 -90 -19
t-60 -51t-33.5 -75t-10.5 -91q0 -45 18.5 -71.5t64.5 -26.5q19 0 38 6.5t37 17t34.5 24t29.5 26.5zM469 11q-35 -26 -52 -51t-17 -55q0 -14 6.5 -22t24.5 -8q19 0 46 9l-12 -71q-23 -10 -47 -14.5t-41 -4.5q-36 0 -58.5 20.5t-22.5 52.5q0 35 20.5 72.5t55.5 71.5h97z" />
    <glyph glyph-name="Cacute" unicode="&#x106;" horiz-adv-x="677" 
d="M322 93q46 0 87.5 17t76.5 47l9 8l67 -76l-9 -8q-51 -47 -114 -70t-132 -23q-75 0 -127.5 20.5t-85 57t-47 86t-14.5 106.5q0 95 25 177t75.5 142.5t125.5 95t175 34.5q68 0 123.5 -21.5t97.5 -76.5l-89 -76q-30 37 -64.5 52.5t-82.5 15.5q-73 0 -125 -28.5t-85 -75.5
t-48.5 -108t-15.5 -126q0 -37 8.5 -68t29 -53.5t54.5 -35.5t85 -13zM368 737l98 123h97l-4 -25l-102 -98h-89z" />
    <glyph glyph-name="cacute" unicode="&#x107;" horiz-adv-x="532" 
d="M342 516q54 0 94.5 -17.5t74.5 -59.5l-79 -66q-13 13 -24 21.5t-23.5 14t-26.5 8t-33 2.5q-46 0 -81.5 -18.5t-60 -49t-37 -70t-12.5 -81.5q0 -50 28 -82.5t96 -32.5q31 0 63.5 10t61.5 39l59 -68q-45 -42 -95 -60t-102 -18q-56 0 -96 15t-66 42t-38 64t-12 81
q0 72 21 132t60.5 103t97 67t130.5 24zM312 585l73 122h92l-4 -25l-84 -97h-77z" />
    <glyph glyph-name="Ccircumflex" unicode="&#x108;" horiz-adv-x="677" 
d="M322 93q46 0 87.5 17t76.5 47l9 8l67 -76l-9 -8q-51 -47 -114 -70t-132 -23q-75 0 -127.5 20.5t-85 57t-47 86t-14.5 106.5q0 95 25 177t75.5 142.5t125.5 95t175 34.5q68 0 123.5 -21.5t97.5 -76.5l-89 -76q-30 37 -64.5 52.5t-82.5 15.5q-73 0 -125 -28.5t-85 -75.5
t-48.5 -108t-15.5 -126q0 -37 8.5 -68t29 -53.5t54.5 -35.5t85 -13zM516 860l73 -97l-5 -26h-83l-32 81l-62 -81h-84l5 26l107 97h81z" />
    <glyph glyph-name="ccircumflex" unicode="&#x109;" horiz-adv-x="532" 
d="M342 516q54 0 94.5 -17.5t74.5 -59.5l-79 -66q-13 13 -24 21.5t-23.5 14t-26.5 8t-33 2.5q-46 0 -81.5 -18.5t-60 -49t-37 -70t-12.5 -81.5q0 -50 28 -82.5t96 -32.5q31 0 63.5 10t61.5 39l59 -68q-45 -42 -95 -60t-102 -18q-56 0 -96 15t-66 42t-38 64t-12 81
q0 72 21 132t60.5 103t97 67t130.5 24zM409 707l73 -97l-5 -26h-83l-27 81l-67 -81h-92l5 26l115 97h81z" />
    <glyph glyph-name="Cdotaccent" unicode="&#x10a;" horiz-adv-x="677" 
d="M322 93q46 0 87.5 17t76.5 47l9 8l67 -76l-9 -8q-51 -47 -114 -70t-132 -23q-75 0 -127.5 20.5t-85 57t-47 86t-14.5 106.5q0 95 25 177t75.5 142.5t125.5 95t175 34.5q68 0 123.5 -21.5t97.5 -76.5l-89 -76q-30 37 -64.5 52.5t-82.5 15.5q-73 0 -125 -28.5t-85 -75.5
t-48.5 -108t-15.5 -126q0 -37 8.5 -68t29 -53.5t54.5 -35.5t85 -13zM449 860q24 0 42 -17t18 -41q0 -25 -17.5 -42t-42.5 -17t-42.5 17t-17.5 42q0 24 18 41t42 17z" />
    <glyph glyph-name="cdotaccent" unicode="&#x10b;" horiz-adv-x="532" 
d="M342 516q54 0 94.5 -17.5t74.5 -59.5l-79 -66q-13 13 -24 21.5t-23.5 14t-26.5 8t-33 2.5q-46 0 -81.5 -18.5t-60 -49t-37 -70t-12.5 -81.5q0 -50 28 -82.5t96 -32.5q31 0 63.5 10t61.5 39l59 -68q-45 -42 -95 -60t-102 -18q-56 0 -96 15t-66 42t-38 64t-12 81
q0 72 21 132t60.5 103t97 67t130.5 24zM373 707q24 0 42 -17t18 -41q0 -25 -17.5 -42t-42.5 -17t-42.5 17t-17.5 42q0 24 18 41t42 17z" />
    <glyph glyph-name="Ccaron" unicode="&#x10c;" horiz-adv-x="677" 
d="M322 93q46 0 87.5 17t76.5 47l9 8l67 -76l-9 -8q-51 -47 -114 -70t-132 -23q-75 0 -127.5 20.5t-85 57t-47 86t-14.5 106.5q0 95 25 177t75.5 142.5t125.5 95t175 34.5q68 0 123.5 -21.5t97.5 -76.5l-89 -76q-30 37 -64.5 52.5t-82.5 15.5q-73 0 -125 -28.5t-85 -75.5
t-48.5 -108t-15.5 -126q0 -37 8.5 -68t29 -53.5t54.5 -35.5t85 -13zM410 737l-72 97l4 26h84l33 -81l61 81h83l-4 -26l-108 -97h-81z" />
    <glyph glyph-name="ccaron" unicode="&#x10d;" horiz-adv-x="532" 
d="M342 516q54 0 94.5 -17.5t74.5 -59.5l-79 -66q-13 13 -24 21.5t-23.5 14t-26.5 8t-33 2.5q-46 0 -81.5 -18.5t-60 -49t-37 -70t-12.5 -81.5q0 -50 28 -82.5t96 -32.5q31 0 63.5 10t61.5 39l59 -68q-45 -42 -95 -60t-102 -18q-56 0 -96 15t-66 42t-38 64t-12 81
q0 72 21 132t60.5 103t97 67t130.5 24zM314 584l-72 97l4 26h84l33 -81l61 81h83l-4 -26l-108 -97h-81z" />
    <glyph glyph-name="Dcaron" unicode="&#x10e;" horiz-adv-x="738" 
d="M34 0l124 695h313q66 0 110.5 -20t71 -54.5t37.5 -80.5t11 -97q0 -76 -18.5 -155t-58.5 -143t-102.5 -104.5t-149.5 -40.5h-338zM167 105h190q67 0 110 32.5t68.5 82t35.5 109.5t10 114q0 30 -5.5 56.5t-19.5 46.5t-39.5 32t-65.5 12h-199zM351 737l-72 97l4 26h84
l33 -81l61 81h83l-4 -26l-108 -97h-81z" />
    <glyph glyph-name="dcaron" unicode="&#x10f;" horiz-adv-x="679" 
d="M414 506l29 171l114 30l-103 -582q-3 -20 -3 -37q0 -39 16 -88h-114q-8 15 -10 25.5t-2 21.5q-34 -25 -72 -42t-80 -17q-50 0 -84.5 15.5t-55.5 42.5t-30.5 62.5t-9.5 74.5q0 75 21.5 137t62 106.5t100 69t134.5 24.5q23 0 44 -4t43 -10zM351 159l45 253q-20 6 -40 8.5
t-40 2.5q-52 0 -90 -17.5t-63 -48t-37 -72.5t-12 -91q0 -21 4 -40.5t14 -35t27 -24.5t43 -9q19 0 40 7t40.5 17.5t37 23.5t31.5 26zM635 570q-12 4 -18 13.5t-6 22.5q0 26 18 40t37 14q21 0 32 -14t11 -33q0 -21 -8.5 -38.5t-23 -31.5t-32.5 -24.5t-36 -17.5l-18 33
q13 5 25.5 14t18.5 22z" />
    <glyph glyph-name="Dcroat" unicode="&#x110;" horiz-adv-x="738" 
d="M376 388l-16 -82h-358l16 82h358zM34 0l124 695h313q66 0 110.5 -20t71 -54.5t37.5 -80.5t11 -97q0 -76 -18.5 -155t-58.5 -143t-102.5 -104.5t-149.5 -40.5h-338zM167 105h190q67 0 110 32.5t68.5 82t35.5 109.5t10 114q0 30 -5.5 56.5t-19.5 46.5t-39.5 32t-65.5 12
h-199z" />
    <glyph glyph-name="dcroat" unicode="&#x111;" horiz-adv-x="586" 
d="M619 631l-30 -81h-296l11 81h315zM414 506l29 171l114 30l-103 -582q-3 -20 -3 -37q0 -39 16 -88h-114q-8 15 -10 25.5t-2 21.5q-34 -25 -72 -42t-80 -17q-50 0 -84.5 15.5t-55.5 42.5t-30.5 62.5t-9.5 74.5q0 75 21.5 137t62 106.5t100 69t134.5 24.5q23 0 44 -4t43 -10
zM351 159l45 253q-20 6 -40 8.5t-40 2.5q-52 0 -90 -17.5t-63 -48t-37 -72.5t-12 -91q0 -21 4 -40.5t14 -35t27 -24.5t43 -9q19 0 40 7t40.5 17.5t37 23.5t31.5 26z" />
    <glyph glyph-name="Emacron" unicode="&#x112;" horiz-adv-x="708" 
d="M251 590l-30 -169h344l-19 -105h-344l-37 -211h407l-18 -105h-520l122 695h528l-51 -105h-382zM288 844h296q2 -10 2 -18q0 -19 -5 -37t-13 -35h-296q-1 4 -1 15q0 38 17 75z" />
    <glyph glyph-name="emacron" unicode="&#x113;" horiz-adv-x="559" 
d="M141 180q0 -29 9.5 -47t25.5 -29t37.5 -15t46.5 -4q38 0 70.5 12.5t59.5 40.5l5 6l91 -41l-9 -11q-44 -54 -102.5 -79t-127.5 -25q-49 0 -88.5 10.5t-67 33.5t-42.5 59t-15 87q0 69 19.5 130t58.5 107.5t96.5 73.5t132.5 27q37 0 71.5 -8.5t60.5 -26.5t41.5 -47t15.5 -71
q0 -50 -19.5 -81.5t-53 -51t-78 -28.5t-93.5 -12zM154 278l143 9q21 1 43.5 4.5t41 12t30.5 23.5t12 39q0 18 -10 28.5t-25 16t-32 7t-30 1.5q-68 0 -112.5 -40t-60.5 -101zM225 695h296q2 -8 2 -16q0 -40 -18 -74h-296q-2 8 -2 16q0 39 18 74z" />
    <glyph glyph-name="Edotaccent" unicode="&#x116;" horiz-adv-x="708" 
d="M251 590l-30 -169h344l-19 -105h-344l-37 -211h407l-18 -105h-520l122 695h528l-51 -105h-382zM449 860q24 0 42 -17t18 -41q0 -25 -17.5 -42t-42.5 -17t-42.5 17t-17.5 42q0 24 18 41t42 17z" />
    <glyph glyph-name="edotaccent" unicode="&#x117;" horiz-adv-x="559" 
d="M141 180q0 -29 9.5 -47t25.5 -29t37.5 -15t46.5 -4q38 0 70.5 12.5t59.5 40.5l5 6l91 -41l-9 -11q-44 -54 -102.5 -79t-127.5 -25q-49 0 -88.5 10.5t-67 33.5t-42.5 59t-15 87q0 69 19.5 130t58.5 107.5t96.5 73.5t132.5 27q37 0 71.5 -8.5t60.5 -26.5t41.5 -47t15.5 -71
q0 -50 -19.5 -81.5t-53 -51t-78 -28.5t-93.5 -12zM154 278l143 9q21 1 43.5 4.5t41 12t30.5 23.5t12 39q0 18 -10 28.5t-25 16t-32 7t-30 1.5q-68 0 -112.5 -40t-60.5 -101zM367 707q24 0 42 -17t18 -41q0 -25 -17.5 -42t-42.5 -17t-42.5 17t-17.5 42q0 24 18 41t42 17z" />
    <glyph glyph-name="Eogonek" unicode="&#x118;" horiz-adv-x="708" 
d="M251 590l-30 -169h344l-19 -105h-344l-37 -211h407l-18 -105h-520l122 695h528l-51 -105h-382zM543 11q-35 -26 -52 -51t-17 -55q0 -14 6.5 -22t24.5 -8q19 0 46 9l-12 -71q-23 -10 -47 -14.5t-41 -4.5q-36 0 -58.5 20.5t-22.5 52.5q0 35 20.5 72.5t55.5 71.5h97z" />
    <glyph glyph-name="eogonek" unicode="&#x119;" horiz-adv-x="559" 
d="M141 180q0 -29 9.5 -47t25.5 -29t37.5 -15t46.5 -4q38 0 70.5 12.5t59.5 40.5l5 6l91 -41l-9 -11q-44 -54 -102.5 -79t-127.5 -25q-49 0 -88.5 10.5t-67 33.5t-42.5 59t-15 87q0 69 19.5 130t58.5 107.5t96.5 73.5t132.5 27q37 0 71.5 -8.5t60.5 -26.5t41.5 -47t15.5 -71
q0 -50 -19.5 -81.5t-53 -51t-78 -28.5t-93.5 -12zM154 278l143 9q21 1 43.5 4.5t41 12t30.5 23.5t12 39q0 18 -10 28.5t-25 16t-32 7t-30 1.5q-68 0 -112.5 -40t-60.5 -101zM311 11q-35 -26 -52 -51t-17 -55q0 -14 6.5 -22t24.5 -8q19 0 46 9l-12 -71q-23 -10 -47 -14.5
t-41 -4.5q-36 0 -58.5 20.5t-22.5 52.5q0 35 20.5 72.5t55.5 71.5h97z" />
    <glyph glyph-name="Ecaron" unicode="&#x11a;" horiz-adv-x="708" 
d="M251 590l-30 -169h344l-19 -105h-344l-37 -211h407l-18 -105h-520l122 695h528l-51 -105h-382zM402 737l-72 97l4 26h84l33 -81l61 81h83l-4 -26l-108 -97h-81z" />
    <glyph glyph-name="ecaron" unicode="&#x11b;" horiz-adv-x="559" 
d="M141 180q0 -29 9.5 -47t25.5 -29t37.5 -15t46.5 -4q38 0 70.5 12.5t59.5 40.5l5 6l91 -41l-9 -11q-44 -54 -102.5 -79t-127.5 -25q-49 0 -88.5 10.5t-67 33.5t-42.5 59t-15 87q0 69 19.5 130t58.5 107.5t96.5 73.5t132.5 27q37 0 71.5 -8.5t60.5 -26.5t41.5 -47t15.5 -71
q0 -50 -19.5 -81.5t-53 -51t-78 -28.5t-93.5 -12zM154 278l143 9q21 1 43.5 4.5t41 12t30.5 23.5t12 39q0 18 -10 28.5t-25 16t-32 7t-30 1.5q-68 0 -112.5 -40t-60.5 -101zM331 584l-72 97l4 26h84l33 -81l61 81h83l-4 -26l-108 -97h-81z" />
    <glyph glyph-name="Gcircumflex" unicode="&#x11c;" horiz-adv-x="697" 
d="M479 119l26 146h-150l18 107h260l-57 -319l-5 -3q-52 -28 -110 -45t-118 -17q-65 0 -121.5 14.5t-98.5 46t-66 80.5t-24 117q0 97 24.5 181t75 146t128 98t184.5 36q65 0 121.5 -23t93.5 -78l7 -9l-91 -66l-7 10q-11 17 -27 28.5t-34.5 18.5t-38.5 10t-39 3
q-78 0 -132 -27.5t-88 -74t-49 -108.5t-15 -130q0 -48 17 -80.5t46.5 -52t69 -27.5t84.5 -8q27 0 59.5 7t56.5 19zM507 860l73 -97l-5 -26h-83l-32 81l-62 -81h-84l5 26l107 97h81z" />
    <glyph glyph-name="gcircumflex" unicode="&#x11d;" horiz-adv-x="595" 
d="M406 171l41 237q-18 6 -38.5 8.5t-40.5 2.5q-55 0 -92.5 -20t-60.5 -54t-33 -78t-10 -93q0 -45 23.5 -61.5t64.5 -16.5q20 0 39.5 7t38.5 18t36 24t32 26zM384 49q-30 -21 -64.5 -35.5t-72.5 -14.5q-87 0 -133 42.5t-46 131.5q0 76 19.5 139.5t58.5 108.5t97 70t136 25
q52 0 97 -9t92 -32l-80 -459q-9 -50 -32 -91t-57.5 -70t-79.5 -45t-97 -16q-27 0 -51.5 3.5t-47.5 11t-46.5 19.5t-50.5 30l67 89q20 -14 37.5 -23t34.5 -14.5t34.5 -8t37.5 -2.5q63 0 96.5 30.5t44.5 88.5zM448 707l73 -97l-5 -26h-83l-27 81l-67 -81h-92l5 26l115 97h81z
" />
    <glyph glyph-name="Gbreve" unicode="&#x11e;" horiz-adv-x="697" 
d="M479 119l26 146h-150l18 107h260l-57 -319l-5 -3q-52 -28 -110 -45t-118 -17q-65 0 -121.5 14.5t-98.5 46t-66 80.5t-24 117q0 97 24.5 181t75 146t128 98t184.5 36q65 0 121.5 -23t93.5 -78l7 -9l-91 -66l-7 10q-11 17 -27 28.5t-34.5 18.5t-38.5 10t-39 3
q-78 0 -132 -27.5t-88 -74t-49 -108.5t-15 -130q0 -48 17 -80.5t46.5 -52t69 -27.5t84.5 -8q27 0 59.5 7t56.5 19zM438 738q-25 0 -48.5 5.5t-41.5 17t-28.5 30t-10.5 45.5q0 5 0.5 11.5t1.5 12.5h71q-1 -4 -1 -11q0 -24 19.5 -34t48.5 -10q30 0 56 12t31 43h71
q-6 -33 -23 -56.5t-40 -38t-51 -21t-55 -6.5z" />
    <glyph glyph-name="gbreve" unicode="&#x11f;" horiz-adv-x="595" 
d="M406 171l41 237q-18 6 -38.5 8.5t-40.5 2.5q-55 0 -92.5 -20t-60.5 -54t-33 -78t-10 -93q0 -45 23.5 -61.5t64.5 -16.5q20 0 39.5 7t38.5 18t36 24t32 26zM384 49q-30 -21 -64.5 -35.5t-72.5 -14.5q-87 0 -133 42.5t-46 131.5q0 76 19.5 139.5t58.5 108.5t97 70t136 25
q52 0 97 -9t92 -32l-80 -459q-9 -50 -32 -91t-57.5 -70t-79.5 -45t-97 -16q-27 0 -51.5 3.5t-47.5 11t-46.5 19.5t-50.5 30l67 89q20 -14 37.5 -23t34.5 -14.5t34.5 -8t37.5 -2.5q63 0 96.5 30.5t44.5 88.5zM380 585q-25 0 -48.5 5.5t-41.5 17t-28.5 30t-10.5 45.5
q0 5 0.5 11.5t1.5 12.5h71q-1 -4 -1 -11q0 -24 19.5 -34t48.5 -10q30 0 56 12t31 43h71q-6 -33 -23 -56.5t-40 -38t-51 -21t-55 -6.5z" />
    <glyph glyph-name="Gdotaccent" unicode="&#x120;" horiz-adv-x="697" 
d="M479 119l26 146h-150l18 107h260l-57 -319l-5 -3q-52 -28 -110 -45t-118 -17q-65 0 -121.5 14.5t-98.5 46t-66 80.5t-24 117q0 97 24.5 181t75 146t128 98t184.5 36q65 0 121.5 -23t93.5 -78l7 -9l-91 -66l-7 10q-11 17 -27 28.5t-34.5 18.5t-38.5 10t-39 3
q-78 0 -132 -27.5t-88 -74t-49 -108.5t-15 -130q0 -48 17 -80.5t46.5 -52t69 -27.5t84.5 -8q27 0 59.5 7t56.5 19zM466 860q24 0 42 -17t18 -41q0 -25 -17.5 -42t-42.5 -17t-42.5 17t-17.5 42q0 24 18 41t42 17z" />
    <glyph glyph-name="gdotaccent" unicode="&#x121;" horiz-adv-x="595" 
d="M406 171l41 237q-18 6 -38.5 8.5t-40.5 2.5q-55 0 -92.5 -20t-60.5 -54t-33 -78t-10 -93q0 -45 23.5 -61.5t64.5 -16.5q20 0 39.5 7t38.5 18t36 24t32 26zM384 49q-30 -21 -64.5 -35.5t-72.5 -14.5q-87 0 -133 42.5t-46 131.5q0 76 19.5 139.5t58.5 108.5t97 70t136 25
q52 0 97 -9t92 -32l-80 -459q-9 -50 -32 -91t-57.5 -70t-79.5 -45t-97 -16q-27 0 -51.5 3.5t-47.5 11t-46.5 19.5t-50.5 30l67 89q20 -14 37.5 -23t34.5 -14.5t34.5 -8t37.5 -2.5q63 0 96.5 30.5t44.5 88.5zM393 707q24 0 42 -17t18 -41q0 -25 -17.5 -42t-42.5 -17t-42.5 17
t-17.5 42q0 24 18 41t42 17z" />
    <glyph glyph-name="Gcommaaccent" unicode="&#x122;" horiz-adv-x="697" 
d="M479 119l26 146h-150l18 107h260l-57 -319l-5 -3q-52 -28 -110 -45t-118 -17q-65 0 -121.5 14.5t-98.5 46t-66 80.5t-24 117q0 97 24.5 181t75 146t128 98t184.5 36q65 0 121.5 -23t93.5 -78l7 -9l-91 -66l-7 10q-11 17 -27 28.5t-34.5 18.5t-38.5 10t-39 3
q-78 0 -132 -27.5t-88 -74t-49 -108.5t-15 -130q0 -48 17 -80.5t46.5 -52t69 -27.5t84.5 -8q27 0 59.5 7t56.5 19zM274 -137q-12 4 -18 13.5t-6 22.5q0 26 18 40t37 14q21 0 32 -14t11 -33q0 -21 -8.5 -38.5t-23 -31.5t-32.5 -24.5t-36 -17.5l-18 33q13 5 25.5 14t18.5 22z
" />
    <glyph glyph-name="gcommaaccent" unicode="&#x123;" horiz-adv-x="595" 
d="M406 171l41 237q-18 6 -38.5 8.5t-40.5 2.5q-55 0 -92.5 -20t-60.5 -54t-33 -78t-10 -93q0 -45 23.5 -61.5t64.5 -16.5q20 0 39.5 7t38.5 18t36 24t32 26zM384 49q-30 -21 -64.5 -35.5t-72.5 -14.5q-87 0 -133 42.5t-46 131.5q0 76 19.5 139.5t58.5 108.5t97 70t136 25
q52 0 97 -9t92 -32l-80 -459q-9 -50 -32 -91t-57.5 -70t-79.5 -45t-97 -16q-27 0 -51.5 3.5t-47.5 11t-46.5 19.5t-50.5 30l67 89q20 -14 37.5 -23t34.5 -14.5t34.5 -8t37.5 -2.5q63 0 96.5 30.5t44.5 88.5zM435.004 637.991q11.999 -3.99902 17.999 -13.499
q5.99902 -9.49902 5.99902 -22.498q0 -25.999 -17.998 -39.998q-17.999 -13.999 -36.998 -13.999q-20.999 0 -31.998 13.999t-10.999 32.998q0 20.999 8.49902 38.498q8.5 17.499 22.999 31.498t32.498 24.498q17.999 10.5 35.9971 17.499l17.999 -32.998
q-12.999 -4.99902 -25.498 -13.999q-12.499 -8.99902 -18.499 -21.999z" />
    <glyph glyph-name="Hcircumflex" unicode="&#x124;" horiz-adv-x="750" 
d="M204 315l-56 -315h-113l123 695h113l-48 -274h331l48 274h114l-123 -695h-114l56 315h-331zM511 860l73 -97l-5 -26h-83l-32 81l-62 -81h-84l5 26l107 97h81z" />
    <glyph glyph-name="hcircumflex" unicode="&#x125;" horiz-adv-x="536" 
d="M189 308l-54 -308h-109l120 677l114 30l-44 -246q29 23 64.5 33t72.5 10q36 0 66.5 -11.5t52 -33t34 -51t12.5 -65.5q0 -22 -3 -41l-54 -302h-109l56 317q2 5 2 11.5v11.5q0 30 -20.5 48.5t-52.5 18.5q-49 0 -90 -26t-58 -73zM287 860l73 -97l-5 -26h-83l-32 81l-62 -81
h-84l5 26l107 97h81z" />
    <glyph glyph-name="Hbar" unicode="&#x126;" horiz-adv-x="750" 
d="M777 586l-19 -82h-717l19 82h717zM204 315l-56 -315h-113l123 695h113l-48 -274h331l48 274h114l-123 -695h-114l56 315h-331z" />
    <glyph glyph-name="hbar" unicode="&#x127;" horiz-adv-x="548" 
d="M196 309l-54 -309h-110l96 543h-73l14 79h73l10 56l115 30l-15 -86h158l-39 -79h-133l-15 -81q30 23 64.5 33t72.5 10q36 0 66.5 -12t52 -33t34 -51t12.5 -66q-1 -10 -1 -20t-2 -21l-54 -302h-109l56 317q1 5 1 14l1 11q0 35 -22 50.5t-51 15.5q-51 0 -89.5 -26
t-58.5 -73z" />
    <glyph glyph-name="uni012A" unicode="&#x12a;" horiz-adv-x="254" 
d="M245 695l-122 -695h-114l122 695h114zM55 844h296q2 -10 2 -18q0 -19 -5 -37t-13 -35h-296q-1 4 -1 15q0 38 17 75z" />
    <glyph glyph-name="imacron" unicode="&#x12b;" horiz-adv-x="360" 
d="M30 0l89 504h109l-89 -504h-109zM57 695h296q2 -8 2 -16q0 -40 -18 -74h-296q-2 8 -2 16q0 39 18 74z" />
    <glyph glyph-name="Iogonek" unicode="&#x12e;" horiz-adv-x="254" 
d="M245 695l-122 -695h-114l122 695h114zM117 11q-35 -26 -52 -51t-17 -55q0 -14 6.5 -22t24.5 -8q19 0 46 9l-12 -71q-23 -10 -47 -14.5t-41 -4.5q-36 0 -58.5 20.5t-22.5 52.5q0 35 20.5 72.5t55.5 71.5h97z" />
    <glyph glyph-name="iogonek" unicode="&#x12f;" horiz-adv-x="241" 
d="M203 11q-35 -26 -52 -51t-17 -55q0 -14 6.5 -22t24.5 -8q19 0 46 9l-12 -71q-23 -10 -47 -14.5t-41 -4.5q-36 0 -58.5 20.5t-22.5 52.5q0 35 20.5 72.5t55.5 71.5h97z" />
    <glyph glyph-name="Idotaccent" unicode="&#x130;" horiz-adv-x="254" 
d="M245 695l-122 -695h-114l122 695h114zM206 860q24 0 42 -17t18 -41q0 -25 -17.5 -42t-42.5 -17t-42.5 17t-17.5 42q0 24 18 41t42 17z" />
    <glyph glyph-name="dotlessi" unicode="&#x131;" horiz-adv-x="224" 
d="M14 0l89 504h109l-89 -504h-109z" />
    <glyph glyph-name="IJ" unicode="&#x132;" horiz-adv-x="523" 
d="M207 695l-76 -434h-114l76 434h114zM162 -12q-73 0 -117 42t-44 116v16t1 13t2.5 13t3.5 17h112l-3 -14q-4 -16 -4 -38q0 -32 17 -46t47 -14q55 0 83 29.5t37 81.5l87 491h115l-87 -495q-17 -99 -82.5 -155.5t-167.5 -56.5z" />
    <glyph glyph-name="ij" unicode="&#x133;" horiz-adv-x="469" 
d="M18 0l89 504h109l-89 -504h-109zM313 504h109l-99 -565q-5 -29 -17.5 -55.5t-33 -46.5t-49 -31.5t-65.5 -11.5q-19 0 -41.5 4t-42.5 8l16 86h54q24 0 45 13.5t26 36.5zM191 707q24 0 42 -17t18 -41q0 -25 -17.5 -42t-42.5 -17t-42.5 17t-17.5 42q0 24 18 41t42 17z
M402 707q24 0 42 -17t18 -41q0 -25 -17.5 -42t-42.5 -17t-42.5 17t-17.5 42q0 24 18 41t42 17z" />
    <glyph glyph-name="Jcircumflex" unicode="&#x134;" horiz-adv-x="523" 
d="M162 -12q-73 0 -117 42t-44 116v16t1 13t2.5 13t3.5 17h112l-3 -14q-4 -16 -4 -38q0 -32 17 -46t47 -14q55 0 83 29.5t37 81.5l87 491h115l-87 -495q-17 -99 -82.5 -155.5t-167.5 -56.5zM517 860l73 -97l-5 -26h-83l-32 81l-62 -81h-84l5 26l107 97h81z" />
    <glyph glyph-name="jcircumflex" unicode="&#x135;" horiz-adv-x="238" 
d="M105 504h109l-99 -565q-5 -29 -17.5 -55.5t-33 -46.5t-49 -31.5t-65.5 -11.5q-19 0 -41.5 4t-42.5 8l16 86h54q24 0 45 13.5t26 36.5zM239 707l73 -97l-5 -26h-83l-27 81l-67 -81h-92l5 26l115 97h81z" />
    <glyph glyph-name="Kcommaaccent" unicode="&#x136;" horiz-adv-x="670" 
d="M216 402h46l243 293h138l-276 -338l195 -357h-134l-171 313h-56l-55 -313h-113l122 695h113zM227 -137q-12 4 -18 13.5t-6 22.5q0 26 18 40t37 14q21 0 32 -14t11 -33q0 -21 -8.5 -38.5t-23 -31.5t-32.5 -24.5t-36 -17.5l-18 33q13 5 25.5 14t18.5 22z" />
    <glyph glyph-name="kcommaaccent" unicode="&#x137;" horiz-adv-x="517" 
d="M187 300h24l182 204h118l-214 -246l94 -153q8 -12 21.5 -16.5t27.5 -4.5h13l-13 -84q-14 -7 -24.5 -9.5t-26.5 -2.5t-29 6.5t-23.5 16t-19.5 21.5t-16 24l-103 164h-25l-37 -220h-109l116 677l114 30zM189 -137q-12 4 -18 13.5t-6 22.5q0 26 18 40t37 14q21 0 32 -14
t11 -33q0 -21 -8.5 -38.5t-23 -31.5t-32.5 -24.5t-36 -17.5l-18 33q13 5 25.5 14t18.5 22z" />
    <glyph glyph-name="Lacute" unicode="&#x139;" horiz-adv-x="512" 
d="M160 105h348l-52 -105h-428l123 695h113zM194 737l98 123h97l-4 -25l-102 -98h-89z" />
    <glyph glyph-name="lacute" unicode="&#x13a;" horiz-adv-x="266" 
d="M112 678l114 30l-101 -576q-1 -4 -1 -7.5v-6.5q0 -33 42 -33h64l-15 -84q-20 -6 -40.5 -9.5t-40.5 -3.5q-63 0 -92 33t-29 84q0 7 0.5 16t2.5 16zM138 737l98 123h97l-4 -25l-102 -98h-89z" />
    <glyph glyph-name="Lcommaaccent" unicode="&#x13b;" horiz-adv-x="512" 
d="M160 105h348l-52 -105h-428l123 695h113zM224 -137q-12 4 -18 13.5t-6 22.5q0 26 18 40t37 14q21 0 32 -14t11 -33q0 -21 -8.5 -38.5t-23 -31.5t-32.5 -24.5t-36 -17.5l-18 33q13 5 25.5 14t18.5 22z" />
    <glyph glyph-name="lcommaaccent" unicode="&#x13c;" horiz-adv-x="266" 
d="M112 678l114 30l-101 -576q-1 -4 -1 -7.5v-6.5q0 -33 42 -33h64l-15 -84q-20 -6 -40.5 -9.5t-40.5 -3.5q-63 0 -92 33t-29 84q0 7 0.5 16t2.5 16zM64 -137q-12 4 -18 13.5t-6 22.5q0 26 18 40t37 14q21 0 32 -14t11 -33q0 -21 -8.5 -38.5t-23 -31.5t-32.5 -24.5
t-36 -17.5l-18 33q13 5 25.5 14t18.5 22z" />
    <glyph glyph-name="Lcaron" unicode="&#x13d;" horiz-adv-x="512" 
d="M160 105h348l-52 -105h-428l123 695h113zM429 617q-12 4 -18 13.5t-6 22.5q0 26 18 40t37 14q21 0 32 -14t11 -33q0 -21 -8.5 -38.5t-23 -31.5t-32.5 -24.5t-36 -17.5l-18 33q13 5 25.5 14t18.5 22z" />
    <glyph glyph-name="lcaron" unicode="&#x13e;" horiz-adv-x="384" 
d="M112 678l114 30l-101 -576q-1 -4 -1 -7.5v-6.5q0 -33 42 -33h64l-15 -84q-20 -6 -40.5 -9.5t-40.5 -3.5q-63 0 -92 33t-29 84q0 7 0.5 16t2.5 16zM331 617q-12 4 -18 13.5t-6 22.5q0 26 18 40t37 14q21 0 32 -14t11 -33q0 -21 -8.5 -38.5t-23 -31.5t-32.5 -24.5
t-36 -17.5l-18 33q13 5 25.5 14t18.5 22z" />
    <glyph glyph-name="Ldot" unicode="&#x13f;" horiz-adv-x="512" 
d="M160 105h348l-52 -105h-428l123 695h113zM407 529q24 0 42 -18t18 -42q0 -25 -17.5 -42.5t-42.5 -17.5q-26 0 -44 17t-18 43q0 25 18.5 42.5t43.5 17.5z" />
    <glyph glyph-name="ldot" unicode="&#x140;" horiz-adv-x="352" 
d="M112 678l114 30l-101 -576q-1 -4 -1 -7.5v-6.5q0 -33 42 -33h64l-15 -84q-20 -6 -40.5 -9.5t-40.5 -3.5q-63 0 -92 33t-29 84q0 7 0.5 16t2.5 16zM322 529q24 0 42 -18t18 -42q0 -25 -17.5 -42.5t-42.5 -17.5q-26 0 -44 17t-18 43q0 25 18.5 42.5t43.5 17.5z" />
    <glyph glyph-name="Lslash" unicode="&#x141;" horiz-adv-x="512" 
d="M-20 178l21 112l366 269l-18 -108zM160 105h348l-52 -105h-428l123 695h113z" />
    <glyph glyph-name="lslash" unicode="&#x142;" horiz-adv-x="266" 
d="M-53 178l21 112l333 246l-21 -112zM112 678l114 30l-101 -576q-1 -4 -1 -7.5v-6.5q0 -33 42 -33h64l-15 -84q-20 -6 -40.5 -9.5t-40.5 -3.5q-63 0 -92 33t-29 84q0 7 0.5 16t2.5 16z" />
    <glyph glyph-name="Nacute" unicode="&#x143;" horiz-adv-x="768" 
d="M528 175l92 520h113l-123 -695h-134l-234 529l-94 -529h-113l123 695h139zM404 737l98 123h97l-4 -25l-102 -98h-89z" />
    <glyph glyph-name="nacute" unicode="&#x144;" horiz-adv-x="568" 
d="M209 374l-65 -374h-110l66 370q2 12 3 22t1 19q0 14 -2.5 27.5t-9.5 31.5l106 46q6 -14 10 -25t6 -27q29 23 64 37.5t73 14.5q39 0 71.5 -13.5t55.5 -36.5t36 -54t13 -66q0 -17 -3 -33l-55 -313h-110l57 318q1 5 1.5 11t0.5 11q0 37 -23 58t-59 21q-35 0 -67.5 -12.5
t-59.5 -32.5zM293 585l73 122h92l-4 -25l-84 -97h-77z" />
    <glyph glyph-name="Ncommaaccent" unicode="&#x145;" horiz-adv-x="768" 
d="M528 175l92 520h113l-123 -695h-134l-234 529l-94 -529h-113l123 695h139zM291 -137q-12 4 -18 13.5t-6 22.5q0 26 18 40t37 14q21 0 32 -14t11 -33q0 -21 -8.5 -38.5t-23 -31.5t-32.5 -24.5t-36 -17.5l-18 33q13 5 25.5 14t18.5 22z" />
    <glyph glyph-name="ncommaaccent" unicode="&#x146;" horiz-adv-x="568" 
d="M209 374l-65 -374h-110l66 370q2 12 3 22t1 19q0 14 -2.5 27.5t-9.5 31.5l106 46q6 -14 10 -25t6 -27q29 23 64 37.5t73 14.5q39 0 71.5 -13.5t55.5 -36.5t36 -54t13 -66q0 -17 -3 -33l-55 -313h-110l57 318q1 5 1.5 11t0.5 11q0 37 -23 58t-59 21q-35 0 -67.5 -12.5
t-59.5 -32.5zM207 -137q-12 4 -18 13.5t-6 22.5q0 26 18 40t37 14q21 0 32 -14t11 -33q0 -21 -8.5 -38.5t-23 -31.5t-32.5 -24.5t-36 -17.5l-18 33q13 5 25.5 14t18.5 22z" />
    <glyph glyph-name="Ncaron" unicode="&#x147;" horiz-adv-x="768" 
d="M528 175l92 520h113l-123 -695h-134l-234 529l-94 -529h-113l123 695h139zM428 737l-72 97l4 26h84l33 -81l61 81h83l-4 -26l-108 -97h-81z" />
    <glyph glyph-name="ncaron" unicode="&#x148;" horiz-adv-x="568" 
d="M209 374l-65 -374h-110l66 370q2 12 3 22t1 19q0 14 -2.5 27.5t-9.5 31.5l106 46q6 -14 10 -25t6 -27q29 23 64 37.5t73 14.5q39 0 71.5 -13.5t55.5 -36.5t36 -54t13 -66q0 -17 -3 -33l-55 -313h-110l57 318q1 5 1.5 11t0.5 11q0 37 -23 58t-59 21q-35 0 -67.5 -12.5
t-59.5 -32.5zM316 584l-72 97l4 26h84l33 -81l61 81h83l-4 -26l-108 -97h-81z" />
    <glyph glyph-name="Omacron" unicode="&#x14c;" 
d="M318 -12q-137 0 -210 64.5t-73 202.5q0 92 27 174t79 144t128.5 98t175.5 36q63 0 115.5 -16.5t90 -49t58 -81.5t20.5 -114q0 -104 -30 -188.5t-84.5 -144.5t-130 -92.5t-166.5 -32.5zM430 601q-70 0 -123 -28.5t-88 -75.5t-53 -107t-18 -122q0 -176 182 -176
q66 0 119 26t90 71.5t57 106.5t20 130q0 86 -50.5 130.5t-135.5 44.5zM335 844h296q2 -10 2 -18q0 -19 -5 -37t-13 -35h-296q-1 4 -1 15q0 38 17 75z" />
    <glyph glyph-name="omacron" unicode="&#x14d;" horiz-adv-x="579" 
d="M242 -12q-44 0 -82 11.5t-66 34.5t-44 57t-16 80q0 69 18.5 131.5t56 110t94 75.5t132.5 28q45 0 83.5 -12.5t67 -37t44.5 -60.5t16 -82q0 -67 -21 -127.5t-60 -107t-95.5 -74t-127.5 -27.5zM447 316q0 56 -35 79.5t-89 23.5q-50 0 -86 -19.5t-59 -51t-34.5 -73
t-11.5 -84.5q0 -31 8 -51.5t24 -32.5t39 -17t53 -5q49 0 85 20t59.5 52t35 73.5t11.5 85.5zM237 695h296q2 -8 2 -16q0 -40 -18 -74h-296q-2 8 -2 16q0 39 18 74z" />
    <glyph glyph-name="Ohungarumlaut" unicode="&#x150;" 
d="M318 -12q-137 0 -210 64.5t-73 202.5q0 92 27 174t79 144t128.5 98t175.5 36q63 0 115.5 -16.5t90 -49t58 -81.5t20.5 -114q0 -104 -30 -188.5t-84.5 -144.5t-130 -92.5t-166.5 -32.5zM430 601q-70 0 -123 -28.5t-88 -75.5t-53 -107t-18 -122q0 -176 182 -176
q66 0 119 26t90 71.5t57 106.5t20 130q0 86 -50.5 130.5t-135.5 44.5zM330 738l96 122h90l-4 -25l-101 -97h-81zM469 738l97 122h90l-4 -25l-101 -97h-82z" />
    <glyph glyph-name="ohungarumlaut" unicode="&#x151;" horiz-adv-x="579" 
d="M242 -12q-44 0 -82 11.5t-66 34.5t-44 57t-16 80q0 69 18.5 131.5t56 110t94 75.5t132.5 28q45 0 83.5 -12.5t67 -37t44.5 -60.5t16 -82q0 -67 -21 -127.5t-60 -107t-95.5 -74t-127.5 -27.5zM447 316q0 56 -35 79.5t-89 23.5q-50 0 -86 -19.5t-59 -51t-34.5 -73
t-11.5 -84.5q0 -31 8 -51.5t24 -32.5t39 -17t53 -5q49 0 85 20t59.5 52t35 73.5t11.5 85.5zM243 584l74 123h85l-4 -26l-85 -97h-70zM364 584l74 123h85l-4 -26l-85 -97h-70z" />
    <glyph glyph-name="OE" unicode="&#x152;" horiz-adv-x="1225" 
d="M768 590l-30 -169h344l-19 -105h-344l-37 -211h407l-18 -105h-520l11 65q-50 -38 -111 -57.5t-133 -19.5q-137 0 -210 64.5t-73 202.5q0 92 27 174t79 144t128.5 98t175.5 36q69 0 123.5 -19.5t92.5 -57.5l12 65h528l-51 -105h-382zM430 601q-70 0 -123 -28.5t-88 -75.5
t-53 -107t-18 -122q0 -176 182 -176q66 0 119 26t90 71.5t57 106.5t20 130q0 86 -50.5 130.5t-135.5 44.5z" />
    <glyph glyph-name="oe" unicode="&#x153;" horiz-adv-x="962" 
d="M544 180q0 -29 9.5 -47t25.5 -29t37.5 -15t46.5 -4q38 0 70.5 12.5t59.5 40.5l5 6l91 -41l-9 -11q-44 -54 -102.5 -79t-127.5 -25q-70 0 -119.5 22t-73.5 70q-39 -43 -93 -67.5t-122 -24.5q-44 0 -82 11.5t-66 34.5t-44 57t-16 80q0 69 18.5 131.5t56 110t94 75.5
t132.5 28q62 0 111 -24t75 -69q39 43 94.5 68t128.5 25q37 0 71.5 -8.5t60.5 -26.5t41.5 -47t15.5 -71q0 -50 -19.5 -81.5t-53 -51t-78 -28.5t-93.5 -12zM447 316q0 56 -35 79.5t-89 23.5q-50 0 -86 -19.5t-59 -51t-34.5 -73t-11.5 -84.5q0 -31 8 -51.5t24 -32.5t39 -17
t53 -5q49 0 85 20t59.5 52t35 73.5t11.5 85.5zM557 278l143 9q21 1 43.5 4.5t41 12t30.5 23.5t12 39q0 18 -10 28.5t-25 16t-32 7t-30 1.5q-68 0 -112.5 -40t-60.5 -101z" />
    <glyph glyph-name="Racute" unicode="&#x154;" horiz-adv-x="699" 
d="M196 284l-49 -284h-114l119 695h326q39 0 72 -11t58 -32t39 -52.5t14 -73.5q0 -102 -59 -165t-162 -74l100 -175q10 -18 20 -22t31 -4h13l-13 -86q-14 -7 -27.5 -9.5t-28.5 -2.5q-33 0 -56 21t-38 47l-121 208q-7 12 -20.5 16t-26.5 4h-77zM214 388h196q69 0 103.5 30
t34.5 98q0 41 -26 57.5t-62 16.5h-212zM320 737l98 123h97l-4 -25l-102 -98h-89z" />
    <glyph glyph-name="racute" unicode="&#x155;" horiz-adv-x="418" 
d="M209 463q22 25 51 39t62 14q43 0 95 -29l-55 -101q-19 11 -32.5 16t-26.5 5q-29 0 -50 -17t-35.5 -41.5t-23 -53t-12.5 -51.5l-43 -244h-109l65 370q2 11 3 21.5t1 20.5q0 33 -13 58l106 46q14 -25 17 -53zM178 585l73 122h92l-4 -25l-84 -97h-77z" />
    <glyph glyph-name="Rcommaaccent" unicode="&#x156;" horiz-adv-x="699" 
d="M196 284l-49 -284h-114l119 695h326q39 0 72 -11t58 -32t39 -52.5t14 -73.5q0 -102 -59 -165t-162 -74l100 -175q10 -18 20 -22t31 -4h13l-13 -86q-14 -7 -27.5 -9.5t-28.5 -2.5q-33 0 -56 21t-38 47l-121 208q-7 12 -20.5 16t-26.5 4h-77zM214 388h196q69 0 103.5 30
t34.5 98q0 41 -26 57.5t-62 16.5h-212zM257 -137q-12 4 -18 13.5t-6 22.5q0 26 18 40t37 14q21 0 32 -14t11 -33q0 -21 -8.5 -38.5t-23 -31.5t-32.5 -24.5t-36 -17.5l-18 33q13 5 25.5 14t18.5 22z" />
    <glyph glyph-name="rcommaaccent" unicode="&#x157;" horiz-adv-x="418" 
d="M209 463q22 25 51 39t62 14q43 0 95 -29l-55 -101q-19 11 -32.5 16t-26.5 5q-29 0 -50 -17t-35.5 -41.5t-23 -53t-12.5 -51.5l-43 -244h-109l65 370q2 11 3 21.5t1 20.5q0 33 -13 58l106 46q14 -25 17 -53zM127 -137q-12 4 -18 13.5t-6 22.5q0 26 18 40t37 14
q21 0 32 -14t11 -33q0 -21 -8.5 -38.5t-23 -31.5t-32.5 -24.5t-36 -17.5l-18 33q13 5 25.5 14t18.5 22z" />
    <glyph glyph-name="Rcaron" unicode="&#x158;" horiz-adv-x="699" 
d="M196 284l-49 -284h-114l119 695h326q39 0 72 -11t58 -32t39 -52.5t14 -73.5q0 -102 -59 -165t-162 -74l100 -175q10 -18 20 -22t31 -4h13l-13 -86q-14 -7 -27.5 -9.5t-28.5 -2.5q-33 0 -56 21t-38 47l-121 208q-7 12 -20.5 16t-26.5 4h-77zM214 388h196q69 0 103.5 30
t34.5 98q0 41 -26 57.5t-62 16.5h-212zM332 737l-72 97l4 26h84l33 -81l61 81h83l-4 -26l-108 -97h-81z" />
    <glyph glyph-name="rcaron" unicode="&#x159;" horiz-adv-x="418" 
d="M209 463q22 25 51 39t62 14q43 0 95 -29l-55 -101q-19 11 -32.5 16t-26.5 5q-29 0 -50 -17t-35.5 -41.5t-23 -53t-12.5 -51.5l-43 -244h-109l65 370q2 11 3 21.5t1 20.5q0 33 -13 58l106 46q14 -25 17 -53zM209 584l-72 97l4 26h84l33 -81l61 81h83l-4 -26l-108 -97h-81z
" />
    <glyph glyph-name="Sacute" unicode="&#x15a;" horiz-adv-x="646" 
d="M618 599l-87 -65q-34 41 -78 54.5t-92 13.5q-25 0 -50 -4.5t-44.5 -15.5t-32 -29t-12.5 -44q0 -36 26 -57t65.5 -36t85 -28t85 -34t65.5 -53.5t26 -86.5q0 -59 -23 -101.5t-62 -70t-90 -41t-107 -13.5q-45 0 -87.5 10t-79 30t-64 50t-42.5 71l101 45q23 -48 69 -75
t112 -27q27 0 55.5 5.5t51.5 18t37.5 33t14.5 50.5q0 33 -26.5 53t-66 34t-85.5 27.5t-85.5 35t-66 55.5t-26.5 89q0 59 23 99.5t61 66t88 37t103 11.5q76 0 139.5 -28.5t98.5 -79.5zM317 737l98 123h97l-4 -25l-102 -98h-89z" />
    <glyph glyph-name="sacute" unicode="&#x15b;" horiz-adv-x="496" 
d="M463 436l-78 -63q-16 20 -39 34.5t-70 14.5q-15 0 -31.5 -2.5t-30 -8.5t-22.5 -16.5t-9 -25.5q0 -21 20 -33.5t50 -22.5t65.5 -20t65.5 -25.5t50 -39.5t20 -62q0 -48 -20.5 -81.5t-53 -55t-73 -31.5t-80.5 -10q-71 0 -126.5 27t-78.5 86l89 48q21 -40 57 -52.5t75 -12.5
q45 0 72 14.5t27 47.5q0 22 -20 35t-49.5 23t-64 19.5t-64 25t-49.5 41t-20 66.5q0 46 20.5 76.5t52.5 49t70.5 26.5t74.5 8q55 0 99.5 -21t70.5 -59zM249 585l73 122h92l-4 -25l-84 -97h-77z" />
    <glyph glyph-name="Scircumflex" unicode="&#x15c;" horiz-adv-x="646" 
d="M618 599l-87 -65q-34 41 -78 54.5t-92 13.5q-25 0 -50 -4.5t-44.5 -15.5t-32 -29t-12.5 -44q0 -36 26 -57t65.5 -36t85 -28t85 -34t65.5 -53.5t26 -86.5q0 -59 -23 -101.5t-62 -70t-90 -41t-107 -13.5q-45 0 -87.5 10t-79 30t-64 50t-42.5 71l101 45q23 -48 69 -75
t112 -27q27 0 55.5 5.5t51.5 18t37.5 33t14.5 50.5q0 33 -26.5 53t-66 34t-85.5 27.5t-85.5 35t-66 55.5t-26.5 89q0 59 23 99.5t61 66t88 37t103 11.5q76 0 139.5 -28.5t98.5 -79.5zM446 860l73 -97l-5 -26h-83l-32 81l-62 -81h-84l5 26l107 97h81z" />
    <glyph glyph-name="scircumflex" unicode="&#x15d;" horiz-adv-x="496" 
d="M463 436l-78 -63q-16 20 -39 34.5t-70 14.5q-15 0 -31.5 -2.5t-30 -8.5t-22.5 -16.5t-9 -25.5q0 -21 20 -33.5t50 -22.5t65.5 -20t65.5 -25.5t50 -39.5t20 -62q0 -48 -20.5 -81.5t-53 -55t-73 -31.5t-80.5 -10q-71 0 -126.5 27t-78.5 86l89 48q21 -40 57 -52.5t75 -12.5
q45 0 72 14.5t27 47.5q0 22 -20 35t-49.5 23t-64 19.5t-64 25t-49.5 41t-20 66.5q0 46 20.5 76.5t52.5 49t70.5 26.5t74.5 8q55 0 99.5 -21t70.5 -59zM351 707l73 -97l-5 -26h-83l-27 81l-67 -81h-92l5 26l115 97h81z" />
    <glyph glyph-name="Scedilla" unicode="&#x15e;" horiz-adv-x="646" 
d="M618 599l-87 -65q-34 41 -78 54.5t-92 13.5q-25 0 -50 -4.5t-44.5 -15.5t-32 -29t-12.5 -44q0 -36 26 -57t65.5 -36t85 -28t85 -34t65.5 -53.5t26 -86.5q0 -59 -23 -101.5t-62 -70t-90 -41t-107 -13.5q-45 0 -87.5 10t-79 30t-64 50t-42.5 71l101 45q23 -48 69 -75
t112 -27q27 0 55.5 5.5t51.5 18t37.5 33t14.5 50.5q0 33 -26.5 53t-66 34t-85.5 27.5t-85.5 35t-66 55.5t-26.5 89q0 59 23 99.5t61 66t88 37t103 11.5q76 0 139.5 -28.5t98.5 -79.5zM321 9l-30 -68q20 -11 27 -24t7 -28q0 -25 -10.5 -43t-28 -29.5t-39 -17t-42.5 -5.5
q-19 0 -39.5 3t-37.5 10l25 55q14 -5 27.5 -7.5t27.5 -2.5q16 0 28 9t12 25q0 11 -7.5 20t-27.5 11l42 92h66z" />
    <glyph glyph-name="scedilla" unicode="&#x15f;" horiz-adv-x="496" 
d="M463 436l-78 -63q-16 20 -39 34.5t-70 14.5q-15 0 -31.5 -2.5t-30 -8.5t-22.5 -16.5t-9 -25.5q0 -21 20 -33.5t50 -22.5t65.5 -20t65.5 -25.5t50 -39.5t20 -62q0 -48 -20.5 -81.5t-53 -55t-73 -31.5t-80.5 -10q-71 0 -126.5 27t-78.5 86l89 48q21 -40 57 -52.5t75 -12.5
q45 0 72 14.5t27 47.5q0 22 -20 35t-49.5 23t-64 19.5t-64 25t-49.5 41t-20 66.5q0 46 20.5 76.5t52.5 49t70.5 26.5t74.5 8q55 0 99.5 -21t70.5 -59zM265 9l-30 -68q20 -11 27 -24t7 -28q0 -25 -10.5 -43t-28 -29.5t-39 -17t-42.5 -5.5q-19 0 -39.5 3t-37.5 10l25 55
q14 -5 27.5 -7.5t27.5 -2.5q16 0 28 9t12 25q0 11 -7.5 20t-27.5 11l42 92h66z" />
    <glyph glyph-name="Scaron" unicode="&#x160;" horiz-adv-x="646" 
d="M618 599l-87 -65q-34 41 -78 54.5t-92 13.5q-25 0 -50 -4.5t-44.5 -15.5t-32 -29t-12.5 -44q0 -36 26 -57t65.5 -36t85 -28t85 -34t65.5 -53.5t26 -86.5q0 -59 -23 -101.5t-62 -70t-90 -41t-107 -13.5q-45 0 -87.5 10t-79 30t-64 50t-42.5 71l101 45q23 -48 69 -75
t112 -27q27 0 55.5 5.5t51.5 18t37.5 33t14.5 50.5q0 33 -26.5 53t-66 34t-85.5 27.5t-85.5 35t-66 55.5t-26.5 89q0 59 23 99.5t61 66t88 37t103 11.5q76 0 139.5 -28.5t98.5 -79.5zM341 737l-72 97l4 26h84l33 -81l61 81h83l-4 -26l-108 -97h-81z" />
    <glyph glyph-name="scaron" unicode="&#x161;" horiz-adv-x="496" 
d="M463 436l-78 -63q-16 20 -39 34.5t-70 14.5q-15 0 -31.5 -2.5t-30 -8.5t-22.5 -16.5t-9 -25.5q0 -21 20 -33.5t50 -22.5t65.5 -20t65.5 -25.5t50 -39.5t20 -62q0 -48 -20.5 -81.5t-53 -55t-73 -31.5t-80.5 -10q-71 0 -126.5 27t-78.5 86l89 48q21 -40 57 -52.5t75 -12.5
q45 0 72 14.5t27 47.5q0 22 -20 35t-49.5 23t-64 19.5t-64 25t-49.5 41t-20 66.5q0 46 20.5 76.5t52.5 49t70.5 26.5t74.5 8q55 0 99.5 -21t70.5 -59zM253 584l-72 97l4 26h84l33 -81l61 81h83l-4 -26l-108 -97h-81z" />
    <glyph glyph-name="Tcommaaccent" unicode="&#x162;" horiz-adv-x="628" 
d="M371 590l-104 -590h-113l104 590h-232l18 105h581l-51 -105h-203zM168 -137q-12 4 -18 13.5t-6 22.5q0 26 18 40t37 14q21 0 32 -14t11 -33q0 -21 -8.5 -38.5t-23 -31.5t-32.5 -24.5t-36 -17.5l-18 33q13 5 25.5 14t18.5 22z" />
    <glyph glyph-name="tcommaaccent" unicode="&#x163;" horiz-adv-x="312" 
d="M84 414h-57l15 90h57l19 101l116 31l-25 -132h96l-43 -90h-68l-51 -283q-1 -4 -1 -8v-7q0 -31 41 -31h50l-15 -85q-17 -4 -33.5 -8t-33.5 -4q-31 0 -53.5 9.5t-37.5 25.5t-22 38t-7 47q0 13 3 27zM65 -137q-12 4 -18 13.5t-6 22.5q0 26 18 40t37 14q21 0 32 -14t11 -33
q0 -21 -8.5 -38.5t-23 -31.5t-32.5 -24.5t-36 -17.5l-18 33q13 5 25.5 14t18.5 22z" />
    <glyph glyph-name="Tcaron" unicode="&#x164;" horiz-adv-x="628" 
d="M371 590l-104 -590h-113l104 590h-232l18 105h581l-51 -105h-203zM310 737l-72 97l4 26h84l33 -81l61 81h83l-4 -26l-108 -97h-81z" />
    <glyph glyph-name="tcaron" unicode="&#x165;" horiz-adv-x="382" 
d="M84 414h-57l15 90h57l19 101l116 31l-25 -132h96l-43 -90h-68l-51 -283q-1 -4 -1 -8v-7q0 -31 41 -31h50l-15 -85q-17 -4 -33.5 -8t-33.5 -4q-31 0 -53.5 9.5t-37.5 25.5t-22 38t-7 47q0 13 3 27zM343 617q-12 4 -18 13.5t-6 22.5q0 26 18 40t37 14q21 0 32 -14t11 -33
q0 -21 -8.5 -38.5t-23 -31.5t-32.5 -24.5t-36 -17.5l-18 33q13 5 25.5 14t18.5 22z" />
    <glyph glyph-name="Umacron" unicode="&#x16a;" horiz-adv-x="716" 
d="M233 695l-69 -391q-5 -24 -8 -48.5t-3 -50.5q0 -33 11.5 -54.5t31 -34t45.5 -18t55 -5.5q52 0 88.5 15.5t61.5 44t39.5 68t22.5 87.5l68 387h113l-68 -387q-12 -71 -38 -129.5t-67 -101t-99 -66t-135 -23.5q-52 0 -96 11.5t-76 36.5t-50 64.5t-18 94.5q0 30 3 59t8 58
l67 383h113zM286 844h296q2 -10 2 -18q0 -19 -5 -37t-13 -35h-296q-1 4 -1 15q0 38 17 75z" />
    <glyph glyph-name="umacron" unicode="&#x16b;" horiz-adv-x="572" 
d="M366 159l56 326l116 31l-69 -392q-2 -12 -3 -22t-1 -20q0 -20 4.5 -39t12.5 -43h-114q-7 12 -10 21.5t-4 23.5q-32 -24 -69 -40.5t-79 -16.5q-87 0 -126 36t-39 105q0 13 1 27t4 29l52 300l116 31l-59 -335q-2 -10 -3 -20t-1 -18q0 -26 14 -42t54 -16q20 0 40 7t39 17.5
t36 24t32 25.5zM216 695h296q2 -8 2 -16q0 -40 -18 -74h-296q-2 8 -2 16q0 39 18 74z" />
    <glyph glyph-name="Uring" unicode="&#x16e;" horiz-adv-x="716" 
d="M233 695l-69 -391q-5 -24 -8 -48.5t-3 -50.5q0 -33 11.5 -54.5t31 -34t45.5 -18t55 -5.5q52 0 88.5 15.5t61.5 44t39.5 68t22.5 87.5l68 387h113l-68 -387q-12 -71 -38 -129.5t-67 -101t-99 -66t-135 -23.5q-52 0 -96 11.5t-76 36.5t-50 64.5t-18 94.5q0 30 3 59t8 58
l67 383h113zM319 748q0 40 28 68t68 28t68 -28t28 -68t-28 -68t-68 -28t-68 28t-28 68zM373 748q0 -17 12 -29t29 -12t29 12t12 29t-12 29t-29 12t-29 -12t-12 -29z" />
    <glyph glyph-name="uring" unicode="&#x16f;" horiz-adv-x="572" 
d="M366 159l56 326l116 31l-69 -392q-2 -12 -3 -22t-1 -20q0 -20 4.5 -39t12.5 -43h-114q-7 12 -10 21.5t-4 23.5q-32 -24 -69 -40.5t-79 -16.5q-87 0 -126 36t-39 105q0 13 1 27t4 29l52 300l116 31l-59 -335q-2 -10 -3 -20t-1 -18q0 -26 14 -42t54 -16q20 0 40 7t39 17.5
t36 24t32 25.5zM248 631q0 40 28 68t68 28t68 -28t28 -68t-28 -68t-68 -28t-68 28t-28 68zM302 631q0 -17 12 -29t29 -12t29 12t12 29t-12 29t-29 12t-29 -12t-12 -29z" />
    <glyph glyph-name="Uhungarumlaut" unicode="&#x170;" horiz-adv-x="716" 
d="M233 695l-69 -391q-5 -24 -8 -48.5t-3 -50.5q0 -33 11.5 -54.5t31 -34t45.5 -18t55 -5.5q52 0 88.5 15.5t61.5 44t39.5 68t22.5 87.5l68 387h113l-68 -387q-12 -71 -38 -129.5t-67 -101t-99 -66t-135 -23.5q-52 0 -96 11.5t-76 36.5t-50 64.5t-18 94.5q0 30 3 59t8 58
l67 383h113zM292 738l96 122h90l-4 -25l-101 -97h-81zM431 738l97 122h90l-4 -25l-101 -97h-82z" />
    <glyph glyph-name="uhungarumlaut" unicode="&#x171;" horiz-adv-x="572" 
d="M366 159l56 326l116 31l-69 -392q-2 -12 -3 -22t-1 -20q0 -20 4.5 -39t12.5 -43h-114q-7 12 -10 21.5t-4 23.5q-32 -24 -69 -40.5t-79 -16.5q-87 0 -126 36t-39 105q0 13 1 27t4 29l52 300l116 31l-59 -335q-2 -10 -3 -20t-1 -18q0 -26 14 -42t54 -16q20 0 40 7t39 17.5
t36 24t32 25.5zM229 584l74 123h85l-4 -26l-85 -97h-70zM350 584l74 123h85l-4 -26l-85 -97h-70z" />
    <glyph glyph-name="Uogonek" unicode="&#x172;" horiz-adv-x="716" 
d="M233 695l-69 -391q-5 -24 -8 -48.5t-3 -50.5q0 -33 11.5 -54.5t31 -34t45.5 -18t55 -5.5q52 0 88.5 15.5t61.5 44t39.5 68t22.5 87.5l68 387h113l-68 -387q-12 -71 -38 -129.5t-67 -101t-99 -66t-135 -23.5q-52 0 -96 11.5t-76 36.5t-50 64.5t-18 94.5q0 30 3 59t8 58
l67 383h113zM344 11q-35 -26 -52 -51t-17 -55q0 -14 6.5 -22t24.5 -8q19 0 46 9l-12 -71q-23 -10 -47 -14.5t-41 -4.5q-36 0 -58.5 20.5t-22.5 52.5q0 35 20.5 72.5t55.5 71.5h97z" />
    <glyph glyph-name="uogonek" unicode="&#x173;" horiz-adv-x="572" 
d="M366 159l56 326l116 31l-69 -392q-2 -12 -3 -22t-1 -20q0 -20 4.5 -39t12.5 -43h-114q-7 12 -10 21.5t-4 23.5q-32 -24 -69 -40.5t-79 -16.5q-87 0 -126 36t-39 105q0 13 1 27t4 29l52 300l116 31l-59 -335q-2 -10 -3 -20t-1 -18q0 -26 14 -42t54 -16q20 0 40 7t39 17.5
t36 24t32 25.5zM473 11q-35 -26 -52 -51t-17 -55q0 -14 6.5 -22t24.5 -8q19 0 46 9l-12 -71q-23 -10 -47 -14.5t-41 -4.5q-36 0 -58.5 20.5t-22.5 52.5q0 35 20.5 72.5t55.5 71.5h97z" />
    <glyph glyph-name="Ydieresis" unicode="&#x178;" horiz-adv-x="633" 
d="M323 304l-51 -304h-116l51 305q-11 3 -15 14l-167 358l115 30l139 -302h7l235 301l109 -30l-285 -359q-9 -10 -22 -13zM244 860q24 0 42 -17t18 -41q0 -25 -17.5 -42t-42.5 -17t-42.5 17t-17.5 42q0 24 18 41t42 17zM446 860q24 0 42 -17t18 -41q0 -25 -17.5 -42
t-42.5 -17t-42.5 17t-17.5 42q0 24 18 41t42 17z" />
    <glyph glyph-name="Zacute" unicode="&#x179;" horiz-adv-x="715" 
d="M174 105h445l-17 -105h-574l9 59q4 23 15.5 42.5t27.5 36.5l390 414l53 38h-394l49 105h500l-9 -56q-4 -23 -15 -43t-28 -36l-406 -425zM371 737l98 123h97l-4 -25l-102 -98h-89z" />
    <glyph glyph-name="zacute" unicode="&#x17a;" horiz-adv-x="582" 
d="M193 92l80 5h250l-45 -97h-441l6 42q3 23 16 45.5t29 38.5l291 290l-70 -5h-208l14 93h424l-4 -29q-4 -26 -16.5 -46t-29.5 -38zM292 585l73 122h92l-4 -25l-84 -97h-77z" />
    <glyph glyph-name="Zdotaccent" unicode="&#x17b;" horiz-adv-x="715" 
d="M174 105h445l-17 -105h-574l9 59q4 23 15.5 42.5t27.5 36.5l390 414l53 38h-394l49 105h500l-9 -56q-4 -23 -15 -43t-28 -36l-406 -425zM442 860q24 0 42 -17t18 -41q0 -25 -17.5 -42t-42.5 -17t-42.5 17t-17.5 42q0 24 18 41t42 17z" />
    <glyph glyph-name="zdotaccent" unicode="&#x17c;" horiz-adv-x="582" 
d="M193 92l80 5h250l-45 -97h-441l6 42q3 23 16 45.5t29 38.5l291 290l-70 -5h-208l14 93h424l-4 -29q-4 -26 -16.5 -46t-29.5 -38zM345 707q24 0 42 -17t18 -41q0 -25 -17.5 -42t-42.5 -17t-42.5 17t-17.5 42q0 24 18 41t42 17z" />
    <glyph glyph-name="Zcaron" unicode="&#x17d;" horiz-adv-x="715" 
d="M174 105h445l-17 -105h-574l9 59q4 23 15.5 42.5t27.5 36.5l390 414l53 38h-394l49 105h500l-9 -56q-4 -23 -15 -43t-28 -36l-406 -425zM395 737l-72 97l4 26h84l33 -81l61 81h83l-4 -26l-108 -97h-81z" />
    <glyph glyph-name="zcaron" unicode="&#x17e;" horiz-adv-x="582" 
d="M193 92l80 5h250l-45 -97h-441l6 42q3 23 16 45.5t29 38.5l291 290l-70 -5h-208l14 93h424l-4 -29q-4 -26 -16.5 -46t-29.5 -38zM305 584l-72 97l4 26h84l33 -81l61 81h83l-4 -26l-108 -97h-81z" />
    <glyph glyph-name="uni018F" unicode="&#x18f;" horiz-adv-x="720" 
d="M569 388q2 16 3 31.5t1 31.5q0 84 -48 119.5t-129 35.5q-58 0 -108 -23t-82 -74l-5 -9l-100 51l7 11q24 38 58 65.5t74 45.5t83.5 26.5t87.5 8.5q62 0 112.5 -14t86.5 -43.5t55.5 -75.5t19.5 -110q0 -111 -27 -199.5t-78.5 -150t-126 -94.5t-170.5 -33
q-122 0 -187.5 62.5t-65.5 182.5q0 42 6 80t15 75h518zM548 283h-403q-1 -11 -2 -20.5t-1 -20.5q0 -74 40 -113.5t115 -39.5q47 0 88.5 13.5t74.5 38.5t55.5 61t32.5 81z" />
    <glyph glyph-name="florin" unicode="&#x192;" horiz-adv-x="478" 
d="M333 482h113l-45 -90h-84l-67 -372q-5 -29 -17 -55t-32.5 -46t-49 -32t-66.5 -12q-24 0 -47 5.5t-34 9.5l15 83h50q25 0 46 12.5t26 38.5l66 368h-70l16 90h70l17 82q12 57 49.5 94t103.5 37q18 0 35.5 -3.5t45.5 -11.5l-14 -83h-61q-20 0 -33.5 -9.5t-18.5 -32.5z" />
    <glyph glyph-name="uni01CF" unicode="&#x1cf;" horiz-adv-x="254" 
d="M245 695l-122 -695h-114l122 695h114zM143 737l-72 97l4 26h84l33 -81l61 81h83l-4 -26l-108 -97h-81z" />
    <glyph glyph-name="uni01D0" unicode="&#x1d0;" horiz-adv-x="329" 
d="M31 0l89 504h109l-89 -504h-109zM142 584l-72 97l4 26h84l33 -81l61 81h83l-4 -26l-108 -97h-81z" />
    <glyph glyph-name="Gcaron" unicode="&#x1e6;" horiz-adv-x="697" 
d="M479 119l26 146h-150l18 107h260l-57 -319l-5 -3q-52 -28 -110 -45t-118 -17q-65 0 -121.5 14.5t-98.5 46t-66 80.5t-24 117q0 97 24.5 181t75 146t128 98t184.5 36q65 0 121.5 -23t93.5 -78l7 -9l-91 -66l-7 10q-11 17 -27 28.5t-34.5 18.5t-38.5 10t-39 3
q-78 0 -132 -27.5t-88 -74t-49 -108.5t-15 -130q0 -48 17 -80.5t46.5 -52t69 -27.5t84.5 -8q27 0 59.5 7t56.5 19zM409 763l-72 97l4 26h84l33 -81l61 81h83l-4 -26l-108 -97h-81z" />
    <glyph glyph-name="gcaron" unicode="&#x1e7;" horiz-adv-x="595" 
d="M406 171l41 237q-18 6 -38.5 8.5t-40.5 2.5q-55 0 -92.5 -20t-60.5 -54t-33 -78t-10 -93q0 -45 23.5 -61.5t64.5 -16.5q20 0 39.5 7t38.5 18t36 24t32 26zM384 49q-30 -21 -64.5 -35.5t-72.5 -14.5q-87 0 -133 42.5t-46 131.5q0 76 19.5 139.5t58.5 108.5t97 70t136 25
q52 0 97 -9t92 -32l-80 -459q-9 -50 -32 -91t-57.5 -70t-79.5 -45t-97 -16q-27 0 -51.5 3.5t-47.5 11t-46.5 19.5t-50.5 30l67 89q20 -14 37.5 -23t34.5 -14.5t34.5 -8t37.5 -2.5q63 0 96.5 30.5t44.5 88.5zM344 584l-72 97l4 26h84l33 -81l61 81h83l-4 -26l-108 -97h-81z
" />
    <glyph glyph-name="Scommaaccent" unicode="&#x218;" horiz-adv-x="646" 
d="M618 599l-87 -65q-34 41 -78 54.5t-92 13.5q-25 0 -50 -4.5t-44.5 -15.5t-32 -29t-12.5 -44q0 -36 26 -57t65.5 -36t85 -28t85 -34t65.5 -53.5t26 -86.5q0 -59 -23 -101.5t-62 -70t-90 -41t-107 -13.5q-45 0 -87.5 10t-79 30t-64 50t-42.5 71l101 45q23 -48 69 -75
t112 -27q27 0 55.5 5.5t51.5 18t37.5 33t14.5 50.5q0 33 -26.5 53t-66 34t-85.5 27.5t-85.5 35t-66 55.5t-26.5 89q0 59 23 99.5t61 66t88 37t103 11.5q76 0 139.5 -28.5t98.5 -79.5zM223 -137q-12 4 -18 13.5t-6 22.5q0 26 18 40t37 14q21 0 32 -14t11 -33
q0 -21 -8.5 -38.5t-23 -31.5t-32.5 -24.5t-36 -17.5l-18 33q13 5 25.5 14t18.5 22z" />
    <glyph glyph-name="scommaaccent" unicode="&#x219;" horiz-adv-x="496" 
d="M463 436l-78 -63q-16 20 -39 34.5t-70 14.5q-15 0 -31.5 -2.5t-30 -8.5t-22.5 -16.5t-9 -25.5q0 -21 20 -33.5t50 -22.5t65.5 -20t65.5 -25.5t50 -39.5t20 -62q0 -48 -20.5 -81.5t-53 -55t-73 -31.5t-80.5 -10q-71 0 -126.5 27t-78.5 86l89 48q21 -40 57 -52.5t75 -12.5
q45 0 72 14.5t27 47.5q0 22 -20 35t-49.5 23t-64 19.5t-64 25t-49.5 41t-20 66.5q0 46 20.5 76.5t52.5 49t70.5 26.5t74.5 8q55 0 99.5 -21t70.5 -59zM182 -137q-12 4 -18 13.5t-6 22.5q0 26 18 40t37 14q21 0 32 -14t11 -33q0 -21 -8.5 -38.5t-23 -31.5t-32.5 -24.5
t-36 -17.5l-18 33q13 5 25.5 14t18.5 22z" />
    <glyph glyph-name="uni0237" unicode="&#x237;" horiz-adv-x="366" 
d="M241 504h109l-99 -565q-5 -29 -17.5 -55.5t-33 -46.5t-49 -31.5t-65.5 -11.5q-19 0 -41.5 4t-42.5 8l16 86h54q24 0 45 13.5t26 36.5z" />
    <glyph glyph-name="uni0259" unicode="&#x259;" horiz-adv-x="566" 
d="M428 287l1 12q1 5 1 11v11q0 31 -9 51t-26 31.5t-40.5 16t-52.5 4.5q-40 0 -76 -16t-62 -46l-78 53q46 59 102.5 80.5t130.5 21.5q102 0 157.5 -44t55.5 -147q0 -74 -21 -136t-59 -107t-93 -70t-122 -25q-93 0 -149.5 44.5t-56.5 139.5q0 33 2 60.5t8 54.5h387zM411 194
h-275q1 -54 30.5 -83.5t82.5 -29.5q27 0 53.5 7t49 21.5t38.5 35.5t21 49z" />
    <glyph glyph-name="circumflex" unicode="&#x2c6;" horiz-adv-x="320" 
d="M215 860l73 -97l-5 -26h-83l-32 81l-62 -81h-84l5 26l107 97h81z" />
    <glyph glyph-name="caron" unicode="&#x2c7;" horiz-adv-x="314" 
d="M102 737l-72 97l4 26h84l33 -81l61 81h83l-4 -26l-108 -97h-81z" />
    <glyph glyph-name="uni02C9" unicode="&#x2c9;" horiz-adv-x="419" 
d="M69 844h296q2 -10 2 -18q0 -19 -5 -37t-13 -35h-296q-1 4 -1 15q0 38 17 75z" />
    <glyph glyph-name="breve" unicode="&#x2d8;" horiz-adv-x="365" 
d="M169 738q-25 0 -48.5 5.5t-41.5 17t-28.5 30t-10.5 45.5q0 5 0.5 11.5t1.5 12.5h71q-1 -4 -1 -11q0 -24 19.5 -34t48.5 -10q30 0 56 12t31 43h71q-6 -33 -23 -56.5t-40 -38t-51 -21t-55 -6.5z" />
    <glyph glyph-name="dotaccent" unicode="&#x2d9;" horiz-adv-x="187" 
d="M93 860q24 0 42 -17t18 -41q0 -25 -17.5 -42t-42.5 -17t-42.5 17t-17.5 42q0 24 18 41t42 17z" />
    <glyph glyph-name="ring" unicode="&#x2da;" horiz-adv-x="260" 
d="M34 748q0 40 28 68t68 28t68 -28t28 -68t-28 -68t-68 -28t-68 28t-28 68zM88 748q0 -17 12 -29t29 -12t29 12t12 29t-12 29t-29 12t-29 -12t-12 -29z" />
    <glyph glyph-name="ogonek" unicode="&#x2db;" horiz-adv-x="241" 
d="M203 11q-35 -26 -52 -51t-17 -55q0 -14 6.5 -22t24.5 -8q19 0 46 9l-12 -71q-23 -10 -47 -14.5t-41 -4.5q-36 0 -58.5 20.5t-22.5 52.5q0 35 20.5 72.5t55.5 71.5h97z" />
    <glyph glyph-name="tilde" unicode="&#x2dc;" horiz-adv-x="411" 
d="M37 752q4 21 14 40.5t25 34.5t34.5 24t42.5 9q18 0 31.5 -5t25 -11t23 -11t25.5 -5q25 0 36.5 8t14.5 24h67q-4 -24 -15.5 -43.5t-27.5 -34t-36 -22.5t-42 -8q-20 0 -32.5 5.5t-23 12t-22 12t-27.5 5.5q-17 0 -30 -9t-16 -26h-67z" />
    <glyph glyph-name="hungarumlaut" unicode="&#x2dd;" horiz-adv-x="379" 
d="M27 738l96 122h90l-4 -25l-101 -97h-81zM166 738l97 122h90l-4 -25l-101 -97h-82z" />
    <glyph glyph-name="gravecomb" unicode="&#x300;" horiz-adv-x="178" 
d="M71 585l-50 97l4 25h92l31 -122h-77z" />
    <glyph glyph-name="acutecomb" unicode="&#x301;" horiz-adv-x="193" 
d="M17 585l73 122h92l-4 -25l-84 -97h-77z" />
    <glyph glyph-name="uni0302" unicode="&#x302;" horiz-adv-x="328" 
d="M222 707l73 -97l-5 -26h-83l-27 81l-67 -81h-92l5 26l115 97h81z" />
    <glyph glyph-name="tildecomb" unicode="&#x303;" horiz-adv-x="410" 
d="M37 599q4 21 14 40.5t25 34.5t34.5 24t42.5 9q18 0 31.5 -5t25.5 -11t23.5 -11t25.5 -5q25 0 36 8t14 24h67q-4 -24 -15.5 -43.5t-27.5 -34t-36 -22.5t-42 -8q-20 0 -32.5 5.5t-23 12t-22 12t-27.5 5.5q-17 0 -30 -9t-16 -26h-67z" />
    <glyph glyph-name="uni0304" unicode="&#x304;" horiz-adv-x="420" 
d="M70 695h296q2 -8 2 -16q0 -40 -18 -74h-296q-2 8 -2 16q0 39 18 74z" />
    <glyph glyph-name="uni0306" unicode="&#x306;" horiz-adv-x="364" 
d="M169 585q-25 0 -48.5 5.5t-41.5 17t-28.5 30t-10.5 45.5q0 5 0.5 11.5t1.5 12.5h71q-1 -4 -1 -11q0 -24 19.5 -34t48.5 -10q30 0 56 12t31 43h71q-6 -33 -23 -56.5t-40 -38t-51 -21t-55 -6.5z" />
    <glyph glyph-name="uni0307" unicode="&#x307;" horiz-adv-x="186" 
d="M93 707q24 0 42 -17t18 -41q0 -25 -17.5 -42t-42.5 -17t-42.5 17t-17.5 42q0 24 18 41t42 17z" />
    <glyph glyph-name="uni0308" unicode="&#x308;" horiz-adv-x="414" 
d="M106 707q24 0 42 -17t18 -41q0 -25 -17.5 -42t-42.5 -17t-42.5 17t-17.5 42q0 24 18 41t42 17zM308 707q24 0 42 -17t18 -41q0 -25 -17.5 -42t-42.5 -17t-42.5 17t-17.5 42q0 24 18 41t42 17z" />
    <glyph glyph-name="uni030A" unicode="&#x30a;" horiz-adv-x="260" 
d="M34 631q0 40 28 68t68 28t68 -28t28 -68t-28 -68t-68 -28t-68 28t-28 68zM88 631q0 -17 12 -29t29 -12t29 12t12 29t-12 29t-29 12t-29 -12t-12 -29z" />
    <glyph glyph-name="uni030B" unicode="&#x30b;" horiz-adv-x="334" 
d="M29 584l74 123h85l-4 -26l-85 -97h-70zM150 584l74 123h85l-4 -26l-85 -97h-70z" />
    <glyph glyph-name="uni030C" unicode="&#x30c;" horiz-adv-x="314" 
d="M102 584l-72 97l4 26h84l33 -81l61 81h83l-4 -26l-108 -97h-81z" />
    <glyph glyph-name="uni0326" unicode="&#x326;" horiz-adv-x="156" 
d="M64 -137q-12 4 -18 13.5t-6 22.5q0 26 18 40t37 14q21 0 32 -14t11 -33q0 -21 -8.5 -38.5t-23 -31.5t-32.5 -24.5t-36 -17.5l-18 33q13 5 25.5 14t18.5 22z" />
    <glyph glyph-name="uni0327" unicode="&#x327;" horiz-adv-x="239" 
d="M199 9l-30 -68q20 -11 27 -24t7 -28q0 -25 -10.5 -43t-28 -29.5t-39 -17t-42.5 -5.5q-19 0 -39.5 3t-37.5 10l25 55q14 -5 27.5 -7.5t27.5 -2.5q16 0 28 9t12 25q0 11 -7.5 20t-27.5 11l42 92h66z" />
    <glyph glyph-name="uni0328" unicode="&#x328;" horiz-adv-x="241" 
d="M203 11q-35 -26 -52 -51t-17 -55q0 -14 6.5 -22t24.5 -8q19 0 46 9l-12 -71q-23 -10 -47 -14.5t-41 -4.5q-36 0 -58.5 20.5t-22.5 52.5q0 35 20.5 72.5t55.5 71.5h97z" />
    <glyph glyph-name="Pi" unicode="&#x3a0;" horiz-adv-x="668" 
d="M456 0v590h-245v-590h-112v590h-56v105h582v-105h-57v-590h-112z" />
    <glyph glyph-name="Sigma" unicode="&#x3a3;" horiz-adv-x="656" 
d="M633 645h-444l234 -291q17 -22 17 -47q0 -24 -16 -46l-226 -299h435v-105h-579v103l265 347l-265 340v103h579v-105z" />
    <glyph glyph-name="pi" unicode="&#x3c0;" horiz-adv-x="662" 
d="M510 145q0 -60 62 -60h39v-85q-16 -5 -40 -8.5t-41 -3.5q-28 0 -51.5 9t-41 25.5t-27 39.5t-9.5 50v299h-194v-411h-109v411h-61v93h552v-93h-79v-266z" />
    <glyph glyph-name="afii10023" unicode="&#x401;" horiz-adv-x="708" 
d="M251 590l-30 -169h344l-19 -105h-344l-37 -211h407l-18 -105h-520l122 695h528l-51 -105h-382zM323 860q24 0 42 -17t18 -41q0 -25 -17.5 -42t-42.5 -17t-42.5 17t-17.5 42q0 24 18 41t42 17zM525 860q24 0 42 -17t18 -41q0 -25 -17.5 -42t-42.5 -17t-42.5 17t-17.5 42
q0 24 18 41t42 17z" />
    <glyph glyph-name="afii10051" unicode="&#x402;" horiz-adv-x="786" 
d="M155 0l104 591h-232l18 105h576l-51 -105h-198l-37 -207q22 11 49.5 22t57 19.5t58.5 13.5t55 5q42 0 79 -10t64.5 -31t43 -54t15.5 -79q0 -60 -15.5 -111.5t-48 -89.5t-83.5 -59.5t-122 -21.5q-24 0 -48 3.5t-47 11.5l39 105q19 -6 39 -8t40 -2q68 0 100 37.5t32 96.5
q0 30 -9 50t-24.5 31.5t-37.5 16.5t-48 5q-24 0 -51.5 -5t-55.5 -13.5t-54 -19.5t-47 -22l-48 -275h-113z" />
    <glyph glyph-name="afii10052" unicode="&#x403;" horiz-adv-x="491" 
d="M250 590l-104 -590h-114l122 695h473l-51 -105h-326zM315 737l98 123h97l-4 -25l-102 -98h-89z" />
    <glyph glyph-name="afii10053" unicode="&#x404;" horiz-adv-x="681" 
d="M158 307q-2 -17 -3.5 -35t-1.5 -35q0 -42 12 -70t34.5 -44.5t54.5 -23t71 -6.5q46 0 88 17t77 48l8 7l67 -76l-8 -8q-51 -46 -114.5 -69.5t-132.5 -23.5q-56 0 -106 12.5t-88 39.5t-60.5 70.5t-22.5 105.5q0 112 26 202.5t77 155t126.5 99.5t174.5 35q30 0 60 -5
t58 -15.5t53 -27.5t44 -41l7 -9l-89 -76l-8 10q-25 32 -62.5 45t-76.5 13q-100 0 -160 -49t-86 -141h245l-18 -105h-246z" />
    <glyph glyph-name="afii10054" unicode="&#x405;" horiz-adv-x="646" 
d="M618 599l-87 -65q-34 41 -78 54.5t-92 13.5q-25 0 -50 -4.5t-44.5 -15.5t-32 -29t-12.5 -44q0 -36 26 -57t65.5 -36t85 -28t85 -34t65.5 -53.5t26 -86.5q0 -59 -23 -101.5t-62 -70t-90 -41t-107 -13.5q-45 0 -87.5 10t-79 30t-64 50t-42.5 71l101 45q23 -48 69 -75
t112 -27q27 0 55.5 5.5t51.5 18t37.5 33t14.5 50.5q0 33 -26.5 53t-66 34t-85.5 27.5t-85.5 35t-66 55.5t-26.5 89q0 59 23 99.5t61 66t88 37t103 11.5q76 0 139.5 -28.5t98.5 -79.5z" />
    <glyph glyph-name="afii10055" unicode="&#x406;" horiz-adv-x="228" 
d="M168 695v-695h-113v695h113z" />
    <glyph glyph-name="afii10056" unicode="&#x407;" horiz-adv-x="254" 
d="M245 695l-122 -695h-114l122 695h114zM100 860q24 0 42 -17t18 -41q0 -25 -17.5 -42t-42.5 -17t-42.5 17t-17.5 42q0 24 18 41t42 17zM302 860q24 0 42 -17t18 -41q0 -25 -17.5 -42t-42.5 -17t-42.5 17t-17.5 42q0 24 18 41t42 17z" />
    <glyph glyph-name="afii10057" unicode="&#x408;" horiz-adv-x="523" 
d="M162 -12q-73 0 -117 42t-44 116v16t1 13t2.5 13t3.5 17h112l-3 -14q-4 -16 -4 -38q0 -32 17 -46t47 -14q55 0 83 29.5t37 81.5l87 491h115l-87 -495q-17 -99 -82.5 -155.5t-167.5 -56.5z" />
    <glyph glyph-name="afii10058" unicode="&#x409;" horiz-adv-x="1065" 
d="M649 401h203q39 0 73.5 -7.5t61 -25.5t41.5 -47.5t15 -73.5q0 -125 -68.5 -186t-194.5 -61h-316l104 590h-58q-42 0 -73 -13t-53 -37t-36 -56.5t-22 -71.5q-8 -38 -19.5 -84t-26.5 -93t-34.5 -91.5t-44 -79t-55.5 -55.5t-68 -21q-17 0 -29.5 3t-27.5 9l15 85h9
q23 0 42 6.5t33 29.5l18 35q25 49 39.5 101.5t26 104t24.5 100t36 90t59.5 74.5t96.5 53q49 16 104 16h176zM791 104q73 0 105 28t32 99q0 22 -8 35t-21.5 20t-30.5 8.5t-35 1.5h-203l-33 -192h194z" />
    <glyph glyph-name="afii10059" unicode="&#x40a;" horiz-adv-x="1091" 
d="M210 315l-56 -315h-113l123 695h113l-48 -274h331l48 274h116l-51 -294h203q39 0 73.5 -7.5t61 -25.5t41.5 -47.5t15 -73.5q0 -125 -68.5 -186t-194.5 -61h-319l56 315h-331zM654 296l-34 -192h195q73 0 105 28t32 99q0 22 -8 35t-21.5 20t-30.5 8.5t-35 1.5h-203z" />
    <glyph glyph-name="afii10060" unicode="&#x40b;" horiz-adv-x="795" 
d="M375 590l-34 -191q25 7 53 15.5t56 15.5t56 12t55 5q43 0 80 -12t64 -35.5t42 -57.5t15 -78q0 -14 -1.5 -27.5t-3.5 -27.5l-37 -209h-115l37 209q2 12 3 22.5t1 20.5q0 48 -28 71t-89 23q-23 0 -49.5 -5t-53.5 -12t-53.5 -15t-48.5 -14l-53 -300h-115l104 590h-229
l18 105h574l-52 -105h-196z" />
    <glyph glyph-name="afii10061" unicode="&#x40c;" horiz-adv-x="670" 
d="M314 737l98 123h97l-4 -25l-102 -98h-89zM216 402h46l243 293h138l-276 -338l195 -357h-134l-171 313h-56l-55 -313h-113l122 695h113z" />
    <glyph glyph-name="afii10062" unicode="&#x40e;" horiz-adv-x="604" 
d="M224 199q-21 11 -34 29t-21 40l-138 411l115 30l133 -388q1 -3 3.5 -9t6.5 -8l236 405l103 -31l-347 -586q-11 -19 -24.5 -37.5t-30.5 -33.5t-38 -24t-48 -9q-18 0 -40 4.5t-40 8.5l12 85h44q22 0 35 5.5t24 24.5zM303 738q-25 0 -48.5 5.5t-41.5 17t-28.5 30t-10.5 45.5
q0 5 0.5 11.5t1.5 12.5h71q-1 -4 -1 -11q0 -24 19.5 -34t48.5 -10q30 0 56 12t31 43h71q-6 -33 -23 -56.5t-40 -38t-51 -21t-55 -6.5z" />
    <glyph glyph-name="afii10145" unicode="&#x40f;" horiz-adv-x="740" 
d="M597 0h-233l-26 -142h-105l26 142h-232l122 696h115l-104 -591h339l104 591h116z" />
    <glyph glyph-name="afii10017" unicode="&#x410;" horiz-adv-x="704" 
d="M236 199l-107 -199h-122l382 695h136l149 -695h-117l-42 199h-279zM289 296h206l-51 239l-5 55l-19 -55z" />
    <glyph glyph-name="afii10018" unicode="&#x411;" horiz-adv-x="669" 
d="M250 590l-33 -180h187q42 0 80.5 -6t68 -23.5t47 -47.5t17.5 -78q0 -64 -21 -112t-59 -79.5t-91 -47.5t-116 -16h-298l123 695h480l-53 -105h-332zM199 305l-35 -200h183q36 0 65.5 6.5t50.5 22t32.5 40.5t11.5 61q0 26 -11.5 40.5t-29.5 21t-38.5 7.5t-38.5 1h-190z" />
    <glyph glyph-name="afii10019" unicode="&#x412;" horiz-adv-x="671" 
d="M540 373q37 -21 57.5 -55.5t20.5 -77.5q0 -61 -22 -106t-59.5 -75t-88.5 -44.5t-108 -14.5h-308l123 695h289q37 0 70.5 -8t59.5 -25.5t41.5 -46t15.5 -70.5q0 -57 -23 -98t-68 -74zM201 310l-36 -205h194q68 0 105.5 28.5t37.5 98.5q0 22 -9 37t-23.5 24t-33 13t-37.5 4
h-198zM250 590l-31 -176h159q26 0 51.5 7t45.5 21t32 35.5t12 51.5q0 18 -8.5 29.5t-21 18.5t-28 10t-29.5 3h-182z" />
    <glyph glyph-name="afii10020" unicode="&#x413;" horiz-adv-x="627" 
d="M250 590l-104 -590h-114l122 695h473l-51 -105h-326z" />
    <glyph glyph-name="afii10021" unicode="&#x414;" horiz-adv-x="789" 
d="M643 105h65l-43 -248h-106l25 143h-436l-25 -143h-106l43 248h10q56 0 85 45q39 61 64 129t41.5 137.5t26.5 138t21 130.5l2 10h437zM531 105l86 485h-216l-24 -127q-9 -47 -19.5 -94.5t-25.5 -93t-34.5 -89t-46.5 -81.5h280z" />
    <glyph glyph-name="afii10022" unicode="&#x415;" horiz-adv-x="708" 
d="M251 590l-30 -169h344l-19 -105h-344l-37 -211h407l-18 -105h-520l122 695h528l-51 -105h-382z" />
    <glyph glyph-name="afii10024" unicode="&#x416;" horiz-adv-x="1015" 
d="M562 310l-54 -310h-118l54 310h-20q-14 0 -28 -4.5t-23 -16.5l-170 -235q-20 -28 -47.5 -47t-62.5 -19q-17 0 -31 3.5t-31 8.5l15 94h18q13 0 26 4t21 15l155 219q23 33 58 47l-168 316h134l154 -290h17l54 303h118l-54 -303h20l244 290h139l-271 -319q12 -8 20 -16.5
t13 -22.5l81 -228q4 -11 17 -13.5t23 -2.5h19l-16 -93q-14 -5 -27.5 -9t-30.5 -4q-33 0 -56 19t-34 50l-84 231q-5 14 -18.5 18.5t-26.5 4.5h-29z" />
    <glyph glyph-name="afii10025" unicode="&#x417;" horiz-adv-x="574" 
d="M447 362q32 -20 46 -56.5t14 -72.5q0 -60 -22 -106t-59.5 -77t-88.5 -46.5t-109 -15.5q-69 0 -123 26.5t-85 90.5l-4 9l98 59l6 -11q20 -38 49.5 -53t72.5 -15q65 0 106.5 29t41.5 97q0 27 -11 44t-28.5 26.5t-39 13.5t-43.5 4h-65l18 103h61q25 0 50.5 8t46.5 23.5
t34.5 37.5t13.5 49q0 21 -7.5 35t-20.5 22t-29.5 11.5t-35.5 3.5q-44 0 -73.5 -16t-58.5 -48l-7 -8l-81 61l8 9q47 57 100 82.5t127 25.5q38 0 72.5 -11t61 -32.5t42.5 -53t16 -71.5q0 -52 -26.5 -99t-67.5 -78z" />
    <glyph glyph-name="afii10026" unicode="&#x418;" 
d="M581 509l-428 -509h-118l123 695h114l-90 -510l429 510h117l-123 -695h-114z" />
    <glyph glyph-name="afii10027" unicode="&#x419;" horiz-adv-x="637" 
d="M581 509l-428 -509h-118l123 695h114l-90 -510l429 510h117l-123 -695h-114zM457 738q-25 0 -48.5 5.5t-41.5 17t-28.5 30t-10.5 45.5q0 5 0.5 11.5t1.5 12.5h71q-1 -4 -1 -11q0 -24 19.5 -34t48.5 -10q30 0 56 12t31 43h71q-6 -33 -23 -56.5t-40 -38t-51 -21t-55 -6.5z
" />
    <glyph glyph-name="afii10028" unicode="&#x41a;" horiz-adv-x="670" 
d="M216 402h46l243 293h138l-276 -338l195 -357h-134l-171 313h-56l-55 -313h-113l122 695h113z" />
    <glyph glyph-name="afii10029" unicode="&#x41b;" horiz-adv-x="722" 
d="M557 590h-58q-69 0 -114.5 -37.5t-60.5 -100.5q-11 -44 -21 -88.5t-23.5 -90.5t-32 -93t-45.5 -95q-11 -18 -25.5 -35t-31.5 -31t-36.5 -22.5t-41.5 -8.5q-17 0 -29.5 3t-27.5 9l15 85h9q23 0 42 6.5t33 29.5l18 35q25 49 39.5 101.5t26 103.5t24.5 99.5t36 90t60 74.5
t96 53q26 9 51.5 13t52.5 4h176l-121 -695h-113z" />
    <glyph glyph-name="afii10030" unicode="&#x41c;" horiz-adv-x="889" 
d="M428 233l273 462h151l-123 -695h-113l92 518l-252 -436h-111l-99 452l-95 -534h-113l123 695h165z" />
    <glyph glyph-name="afii10031" unicode="&#x41d;" horiz-adv-x="750" 
d="M204 315l-56 -315h-113l123 695h113l-48 -274h331l48 274h114l-123 -695h-114l56 315h-331z" />
    <glyph glyph-name="afii10032" unicode="&#x41e;" 
d="M318 -12q-137 0 -210 64.5t-73 202.5q0 92 27 174t79 144t128.5 98t175.5 36q63 0 115.5 -16.5t90 -49t58 -81.5t20.5 -114q0 -104 -30 -188.5t-84.5 -144.5t-130 -92.5t-166.5 -32.5zM430 601q-70 0 -123 -28.5t-88 -75.5t-53 -107t-18 -122q0 -176 182 -176
q66 0 119 26t90 71.5t57 106.5t20 130q0 86 -50.5 130.5t-135.5 44.5z" />
    <glyph glyph-name="afii10033" unicode="&#x41f;" horiz-adv-x="739" 
d="M573 590h-321l-104 -590h-113l123 695h547l-123 -695h-113z" />
    <glyph glyph-name="afii10034" unicode="&#x420;" horiz-adv-x="672" 
d="M191 250l-44 -250h-114l122 695h325q49 0 84.5 -13.5t58 -37t33.5 -55.5t11 -69q0 -56 -18.5 -105.5t-52.5 -86t-80.5 -57.5t-103.5 -21h-221zM250 590l-40 -234h206q33 0 59 12t45 32.5t29 48.5t10 60q0 34 -19 57.5t-67 23.5h-223z" />
    <glyph glyph-name="afii10035" unicode="&#x421;" horiz-adv-x="677" 
d="M322 93q46 0 87.5 17t76.5 47l9 8l67 -76l-9 -8q-51 -47 -114 -70t-132 -23q-75 0 -127.5 20.5t-85 57t-47 86t-14.5 106.5q0 95 25 177t75.5 142.5t125.5 95t175 34.5q68 0 123.5 -21.5t97.5 -76.5l-89 -76q-30 37 -64.5 52.5t-82.5 15.5q-73 0 -125 -28.5t-85 -75.5
t-48.5 -108t-15.5 -126q0 -37 8.5 -68t29 -53.5t54.5 -35.5t85 -13z" />
    <glyph glyph-name="afii10036" unicode="&#x422;" horiz-adv-x="628" 
d="M371 590l-104 -590h-113l104 590h-232l18 105h581l-51 -105h-203z" />
    <glyph glyph-name="afii10037" unicode="&#x423;" horiz-adv-x="640" 
d="M234 199q-21 11 -34 29t-21 40l-138 411l115 30l133 -388q1 -3 3.5 -9t6.5 -8l236 405l103 -31l-347 -586q-11 -19 -24.5 -37.5t-30.5 -33.5t-38 -24t-48 -9q-18 0 -40 4.5t-40 8.5l12 85h44q22 0 35 5.5t24 24.5z" />
    <glyph glyph-name="afii10038" unicode="&#x424;" horiz-adv-x="780" 
d="M402 104l-19 -103h-113l18 102q-30 -9 -62 -9q-45 0 -82 12.5t-64 37t-42 60t-15 81.5q0 64 19.5 125.5t56.5 109.5t91.5 77t125.5 29q16 0 32 -2.5t31 -7.5l16 92h113l-16 -91q16 4 31.5 6.5t32.5 2.5q45 0 82 -13t63.5 -37.5t41 -60t14.5 -81.5q0 -64 -19 -125
t-56 -109t-91 -77t-124 -29q-17 0 -33 2.5t-32 7.5zM307 209l53 302q-15 6 -31 8t-32 2q-40 0 -71 -19.5t-52 -50t-31.5 -67.5t-10.5 -72q0 -53 25.5 -83.5t80.5 -30.5q17 0 35 2.5t34 8.5zM420 208q16 -6 31 -8t32 -2q42 0 73.5 19.5t52 50.5t30.5 69t10 74
q0 47 -27.5 78.5t-75.5 31.5q-19 0 -37.5 -2.5t-35.5 -8.5z" />
    <glyph glyph-name="afii10039" unicode="&#x425;" horiz-adv-x="804" 
d="M354 362l-166 315l116 30l101 -186l33 -78l58 80l166 185l109 -31l-279 -318l206 -359h-136l-135 241l-17 43l-32 -46l-216 -238h-141z" />
    <glyph glyph-name="afii10040" unicode="&#x426;" horiz-adv-x="745" 
d="M600 105h66l-44 -248h-105l25 143h-527l123 695h113l-104 -590h340l104 590h113z" />
    <glyph glyph-name="afii10041" unicode="&#x427;" horiz-adv-x="642" 
d="M423 280q-44 -29 -93.5 -44t-101.5 -15q-43 0 -82 12.5t-68 36.5t-46.5 59t-17.5 80q0 13 1.5 25.5t3.5 24.5l42 236h114l-42 -239q-3 -15 -3 -29q0 -48 30.5 -78.5t78.5 -30.5q57 0 108.5 22t96.5 55l53 300h113l-123 -695h-113z" />
    <glyph glyph-name="afii10042" unicode="&#x428;" horiz-adv-x="954" 
d="M170 104h208l100 567h113l-100 -567h207l104 591h113l-122 -695h-754l122 695h113z" />
    <glyph glyph-name="afii10043" unicode="&#x429;" horiz-adv-x="938" 
d="M791 104h63l-45 -247h-103l25 143h-714l123 695h113l-104 -591h208l100 567h113l-100 -567h207l104 591h113z" />
    <glyph glyph-name="afii10044" unicode="&#x42a;" horiz-adv-x="677" 
d="M194 590h-139l-14 105h285l-50 -285h199q39 0 74 -8t61 -26t41 -48t15 -75q0 -59 -19 -106t-53.5 -79.5t-83 -50t-107.5 -17.5h-313zM258 304l-36 -200h190q68 0 104 31t36 99q0 23 -8 37t-21.5 21.5t-30.5 9.5t-36 2h-198z" />
    <glyph glyph-name="afii10045" unicode="&#x42b;" horiz-adv-x="918" 
d="M880 695l-123 -695h-113l123 695h113zM223 401h203q39 0 73.5 -7.5t61 -25.5t41.5 -47.5t15 -73.5q0 -125 -68.5 -186t-194.5 -61h-316l123 695h113zM204 296l-34 -192h195q73 0 105 28t32 99q0 22 -8 35t-21.5 20t-30.5 8.5t-35 1.5h-203z" />
    <glyph glyph-name="afii10046" unicode="&#x42c;" horiz-adv-x="620" 
d="M217 401h203q39 0 73.5 -7.5t61 -25.5t41.5 -47.5t15 -73.5q0 -125 -68.5 -186t-194.5 -61h-316l123 695h113zM198 296l-34 -192h195q73 0 105 28t32 99q0 22 -8 35t-21.5 20t-30.5 8.5t-35 1.5h-203z" />
    <glyph glyph-name="afii10047" unicode="&#x42d;" horiz-adv-x="665" 
d="M501 307h-247l19 105h246q1 8 1.5 15.5t0.5 14.5q0 83 -51 121.5t-137 38.5q-36 0 -71 -10t-64 -32l-10 -7l-52 88l9 6q46 32 96.5 46.5t105.5 14.5q67 0 120 -16t90 -48.5t56.5 -82.5t19.5 -118q0 -106 -32 -190t-87.5 -143t-129.5 -90.5t-159 -31.5q-54 0 -105.5 18
t-89.5 60l-8 8l86 79l8 -9q23 -25 56.5 -37.5t67.5 -12.5q110 0 173 55t88 158z" />
    <glyph glyph-name="afii10048" unicode="&#x42e;" horiz-adv-x="965" 
d="M297 291h-95l-51 -291h-113l122 695h113l-53 -300h93q15 66 46 123.5t76.5 99.5t105 66t130.5 24q125 0 190 -68t65 -189q0 -86 -23 -169t-70 -148.5t-118 -105.5t-167 -40q-59 0 -105.5 17.5t-79 54t-49.5 94t-17 137.5zM821 435q0 78 -40 122.5t-123 44.5
q-69 0 -117.5 -31t-80 -80t-46 -110t-14.5 -120q0 -81 39 -124t125 -43q69 0 117.5 31t79.5 80.5t45.5 110t14.5 119.5z" />
    <glyph glyph-name="afii10049" unicode="&#x42f;" horiz-adv-x="760" 
d="M265 286q-68 8 -104.5 52t-36.5 116q0 59 18.5 104t52 75.5t81 46t105.5 15.5h345l-122 -695h-116l49 283h-90q-16 0 -32 -5.5t-27 -17.5l-178 -206q-21 -25 -50 -45.5t-64 -20.5q-10 0 -26 1.5t-43 10.5l14 84h9q23 0 38 5.5t30 22.5zM592 590h-216q-65 0 -101 -27
t-36 -93q0 -24 8 -39.5t21 -25t30.5 -13.5t37.5 -4h220z" />
    <glyph glyph-name="afii10065" unicode="&#x430;" horiz-adv-x="561" 
d="M350 46q-31 -22 -65 -40t-74 -18q-86 0 -131 49.5t-45 135.5q0 80 20 143.5t60 108t99.5 68t138.5 23.5q49 0 88.5 -10.5t83.5 -30.5l-63 -359q-3 -18 -3 -36q-1 -17 4 -33t10 -31l5 -16h-115q-8 14 -10.5 25t-2.5 21zM361 159l44 248q-18 8 -35 10t-37 2q-53 0 -90 -19
t-60 -51t-33.5 -75t-10.5 -91q0 -45 18.5 -71.5t64.5 -26.5q19 0 38 6.5t37 17t34.5 24t29.5 26.5z" />
    <glyph glyph-name="afii10066" unicode="&#x431;" horiz-adv-x="580" 
d="M187 462q29 20 62.5 28.5t67.5 8.5q40 0 76.5 -13t64 -37.5t43.5 -59t16 -76.5q0 -65 -20 -124t-58 -103.5t-92 -71t-123 -26.5q-90 0 -143 49t-53 140q0 58 7 119t23.5 118t43.5 107t66 87.5t91 59.5t119 22q26 0 54 5t51 30l70 -65q-30 -38 -64 -54t-83 -16
q-81 0 -139 -30.5t-80 -97.5zM130 193q0 -51 28.5 -79.5t79.5 -28.5q46 0 79 18.5t54.5 49t32 69.5t10.5 80q0 48 -32 74t-77 26t-78 -17t-54.5 -46t-32 -66.5t-10.5 -79.5z" />
    <glyph glyph-name="afii10067" unicode="&#x432;" horiz-adv-x="503" 
d="M384 272q13 -6 26 -15t23.5 -22t17.5 -30t7 -39q0 -53 -18.5 -87t-51 -54.5t-75 -28.5t-90.5 -8q-190 0 -190 193q0 65 18 125.5t53 107t88 74.5t124 28q28 0 54.5 -7.5t47 -23t32.5 -39t12 -54.5q0 -42 -21 -71t-57 -49zM136 213q-1 -2 -1 -6v-24q0 -57 23 -77.5
t80 -20.5q18 0 37.5 3t36 11t27.5 21t11 34q0 38 -29.5 53t-80.5 15zM150 296l110 9q18 1 34.5 6t29.5 13t21 20t8 29q0 23 -13.5 34.5t-36.5 11.5q-62 0 -99.5 -33t-53.5 -90z" />
    <glyph glyph-name="afii10068" unicode="&#x433;" horiz-adv-x="474" 
d="M443 391q0 -41 -13 -70t-35.5 -49.5t-53 -34t-66.5 -23.5q-20 -5 -46 -10.5t-49.5 -14.5t-39.5 -22.5t-16 -35.5q0 -16 7.5 -25.5t19 -14t25.5 -6t27 -1.5q45 0 78.5 14t69.5 42l9 7l57 -77l-10 -7q-26 -18 -49.5 -32t-48 -23.5t-51.5 -14.5t-60 -5q-34 0 -65 7t-55 23
t-38 42t-14 64q0 53 23.5 84t59 49t77 28t77 20.5t59 26.5t23.5 47q0 14 -7 22.5t-18 13t-24 5.5t-24 1q-35 0 -62.5 -11t-53.5 -33l-8 -7l-65 69l10 8q44 35 88 52t101 17q28 0 57 -7.5t52 -22.5t37.5 -38.5t14.5 -56.5z" />
    <glyph glyph-name="afii10069" unicode="&#x434;" horiz-adv-x="542" 
d="M393 480q-7 34 -27 59t-47.5 41.5t-60.5 24t-66 7.5h-12t-12 -1l17 96q165 0 244.5 -75.5t79.5 -236.5q0 -71 -14 -143.5t-47.5 -131t-90 -95.5t-140.5 -37q-53 0 -90 15.5t-60 42t-33.5 62t-10.5 76.5q0 66 19 123.5t55 100t88.5 67t120.5 24.5q49 0 87 -19zM392 291
q0 48 -21.5 79.5t-76.5 31.5q-48 0 -80.5 -19t-52 -49.5t-28 -68.5t-8.5 -77q0 -22 5 -40.5t17 -32.5t32.5 -22t51.5 -8q42 0 72.5 18.5t50 47.5t29 66t9.5 74z" />
    <glyph glyph-name="afii10070" unicode="&#x435;" horiz-adv-x="559" 
d="M141 180q0 -29 9.5 -47t25.5 -29t37.5 -15t46.5 -4q38 0 70.5 12.5t59.5 40.5l5 6l91 -41l-9 -11q-44 -54 -102.5 -79t-127.5 -25q-49 0 -88.5 10.5t-67 33.5t-42.5 59t-15 87q0 69 19.5 130t58.5 107.5t96.5 73.5t132.5 27q37 0 71.5 -8.5t60.5 -26.5t41.5 -47t15.5 -71
q0 -50 -19.5 -81.5t-53 -51t-78 -28.5t-93.5 -12zM154 278l143 9q21 1 43.5 4.5t41 12t30.5 23.5t12 39q0 18 -10 28.5t-25 16t-32 7t-30 1.5q-68 0 -112.5 -40t-60.5 -101z" />
    <glyph glyph-name="afii10072" unicode="&#x436;" horiz-adv-x="867" 
d="M541 220h-59l-38 -220h-109l38 220h-54q-12 -69 -36 -114t-59.5 -71.5t-81 -36.5t-99.5 -10l17 97q46 0 77.5 15t50.5 44t27 71t8 96q0 34 -6.5 55t-21 33t-37.5 16t-56 4l17 97q46 0 84 -7.5t65.5 -30.5t42.5 -65.5t15 -111.5h62l36 203h109l-35 -203h51q12 67 37.5 109
t61.5 65.5t80.5 32t95.5 8.5l-17 -97q-24 0 -44 -1.5t-36.5 -8.5t-30 -20t-24.5 -35q-19 -38 -24 -78.5t-5 -82.5q0 -35 7 -56t22 -32.5t37.5 -15.5t54.5 -4l-17 -97h-15q-99 0 -145.5 53.5t-46.5 148.5v15t1 15z" />
    <glyph glyph-name="afii10073" unicode="&#x437;" horiz-adv-x="477" 
d="M374 268q47 -34 47 -92q0 -49 -18.5 -84.5t-50.5 -58.5t-74 -34t-88 -11q-55 0 -98.5 19.5t-72.5 68.5l82 59q20 -23 45 -36.5t57 -13.5q24 0 44.5 2.5t36.5 11t25 24.5t9 44q0 17 -8.5 26.5t-21.5 14.5t-28 6.5t-28 1.5h-59l16 90h60q16 0 32.5 4.5t30 13.5t22 22
t8.5 30q0 14 -8 22.5t-19.5 13.5t-24.5 7t-24 2q-26 0 -51.5 -8.5t-42.5 -29.5l-7 -8l-83 56l10 9q36 40 85.5 58t102.5 18q30 0 59 -7t52 -22.5t37 -39.5t14 -57q0 -39 -18 -69.5t-50 -52.5z" />
    <glyph glyph-name="afii10074" unicode="&#x438;" horiz-adv-x="572" 
d="M366 159l56 326l116 31l-69 -392q-2 -12 -3 -22t-1 -20q0 -20 4.5 -39t12.5 -43h-114q-7 12 -10 21.5t-4 23.5q-32 -24 -69 -40.5t-79 -16.5q-87 0 -126 36t-39 105q0 13 1 27t4 29l52 300l116 31l-59 -335q-2 -10 -3 -20t-1 -18q0 -26 14 -42t54 -16q20 0 40 7t39 17.5
t36 24t32 25.5z" />
    <glyph glyph-name="afii10075" unicode="&#x439;" horiz-adv-x="490" 
d="M330 585q-25 0 -48.5 5.5t-41.5 17t-28.5 30t-10.5 45.5q0 5 0.5 11.5t1.5 12.5h71q-1 -4 -1 -11q0 -24 19.5 -34t48.5 -10q30 0 56 12t31 43h71q-6 -33 -23 -56.5t-40 -38t-51 -21t-55 -6.5zM366 159l56 326l116 31l-69 -392q-2 -12 -3 -22t-1 -20q0 -20 4.5 -39
t12.5 -43h-114q-7 12 -10 21.5t-4 23.5q-32 -24 -69 -40.5t-79 -16.5q-87 0 -126 36t-39 105q0 13 1 27t4 29l52 300l116 31l-59 -335q-2 -10 -3 -20t-1 -18q0 -26 14 -42t54 -16q20 0 40 7t39 17.5t36 24t32 25.5z" />
    <glyph glyph-name="afii10076" unicode="&#x43a;" horiz-adv-x="550" 
d="M194 299h29l181 205h119l-213 -246l92 -153q8 -12 22 -16.5t28 -4.5h13l-15 -84q-8 -4 -17 -7l-16 -4t-16 -2q-15 0 -28 6.5t-24 16.5t-20 22t-16 24l-102 163h-31l-38 -219h-109l84 485l114 31z" />
    <glyph glyph-name="afii10077" unicode="&#x43b;" horiz-adv-x="609" 
d="M449 411h-42q-51 0 -85 -30.5t-47 -80.5q-8 -32 -14.5 -54.5t-12 -39.5t-10.5 -30.5t-10 -25.5q-10 -26 -26.5 -54.5t-37.5 -52.5t-46.5 -39.5t-52.5 -15.5q-15 0 -27.5 3.5t-26.5 8.5l15 85h10q22 0 39 5t32 27.5t31.5 69.5t38.5 131q10 39 31 73t52.5 59t72.5 39.5
t91 14.5h150l-89 -504h-109z" />
    <glyph glyph-name="afii10078" unicode="&#x43c;" horiz-adv-x="724" 
d="M547 335l-164 -261h-98l-76 273l-61 -347h-109l88 504h154l76 -285l183 285h145l-88 -504h-109z" />
    <glyph glyph-name="afii10079" unicode="&#x43d;" horiz-adv-x="591" 
d="M395 224h-213l-39 -224h-109l86 485l114 31l-35 -198h213l30 167l114 31l-91 -516h-109z" />
    <glyph glyph-name="afii10080" unicode="&#x43e;" horiz-adv-x="579" 
d="M242 -12q-44 0 -82 11.5t-66 34.5t-44 57t-16 80q0 69 18.5 131.5t56 110t94 75.5t132.5 28q45 0 83.5 -12.5t67 -37t44.5 -60.5t16 -82q0 -67 -21 -127.5t-60 -107t-95.5 -74t-127.5 -27.5zM447 316q0 56 -35 79.5t-89 23.5q-50 0 -86 -19.5t-59 -51t-34.5 -73
t-11.5 -84.5q0 -31 8 -51.5t24 -32.5t39 -17t53 -5q49 0 85 20t59.5 52t35 73.5t11.5 85.5z" />
    <glyph glyph-name="afii10081" unicode="&#x43f;" horiz-adv-x="568" 
d="M209 374l-65 -374h-110l66 370q2 12 3 22t1 19q0 14 -2.5 27.5t-9.5 31.5l106 46q6 -14 10 -25t6 -27q29 23 64 37.5t73 14.5q39 0 71.5 -13.5t55.5 -36.5t36 -54t13 -66q0 -17 -3 -33l-55 -313h-110l57 318q1 5 1.5 11t0.5 11q0 37 -23 58t-59 21q-35 0 -67.5 -12.5
t-59.5 -32.5z" />
    <glyph glyph-name="afii10082" unicode="&#x440;" horiz-adv-x="586" 
d="M181 41l-41 -235h-110l101 565q1 11 2.5 19.5t1.5 16.5q0 32 -16 63l108 46q14 -24 17 -52q30 25 68 38.5t77 13.5t73 -13.5t59.5 -38t40 -58t14.5 -73.5q0 -64 -14.5 -126t-47 -110.5t-83 -78.5t-122.5 -30q-36 0 -69 14.5t-59 38.5zM238 365l-37 -211q22 -28 53 -49
t68 -21q45 0 73.5 23t45 58.5t23 76.5t6.5 77q0 48 -24.5 74.5t-72.5 26.5q-38 0 -72 -14.5t-63 -40.5z" />
    <glyph glyph-name="afii10083" unicode="&#x441;" horiz-adv-x="532" 
d="M342 516q54 0 94.5 -17.5t74.5 -59.5l-79 -66q-13 13 -24 21.5t-23.5 14t-26.5 8t-33 2.5q-46 0 -81.5 -18.5t-60 -49t-37 -70t-12.5 -81.5q0 -50 28 -82.5t96 -32.5q31 0 63.5 10t61.5 39l59 -68q-45 -42 -95 -60t-102 -18q-56 0 -96 15t-66 42t-38 64t-12 81
q0 72 21 132t60.5 103t97 67t130.5 24z" />
    <glyph glyph-name="afii10084" unicode="&#x442;" horiz-adv-x="856" 
d="M220 464q29 22 62 37t66 15q41 0 78 -14t60 -49q35 28 76.5 45.5t86.5 17.5q34 0 63.5 -10t51.5 -29t34 -47.5t12 -64.5q0 -11 -1 -21t-3 -21l-57 -323h-109l58 328q2 8 2 14.5v13.5q0 29 -16 46t-54 17q-30 0 -60.5 -12.5t-53.5 -32.5l-66 -374h-109l62 350q2 10 2 15
q0 16 -7 26.5t-17.5 16.5t-23 8.5t-24.5 2.5q-32 0 -62.5 -12t-54.5 -33l-66 -374h-109l66 370q2 11 2 20t2 17q0 16 -3.5 31t-9.5 32l107 46q6 -14 9.5 -26t5.5 -26z" />
    <glyph glyph-name="afii10085" unicode="&#x443;" horiz-adv-x="574" 
d="M260 98l209 419l102 -31l-300 -586q-11 -20 -23.5 -39t-29 -34t-38 -24t-49.5 -9q-19 0 -40 3.5t-39 8.5l12 86h52q19 0 34.5 6.5t23.5 23.5l35 74q-25 10 -41.5 31t-23.5 48l-100 411l108 30l99 -405q1 -4 2.5 -8.5t6.5 -4.5z" />
    <glyph glyph-name="afii10086" unicode="&#x444;" horiz-adv-x="758" 
d="M394 29l-15 -91q-5 -29 -19.5 -55t-36.5 -45.5t-49.5 -31.5t-58.5 -12q-20 0 -41 4.5t-41 7.5l15 86h51q24 0 46 12.5t26 37.5l14 86q-24 -18 -52 -29t-58 -11q-41 0 -71 15.5t-49.5 42t-29 60.5t-9.5 71q0 58 16 118.5t48 109.5t81.5 80t117.5 31q24 0 46.5 -7t41.5 -22
l14 75q6 30 18.5 56.5t32.5 46t48 31t65 11.5q20 0 40.5 -3.5t40.5 -8.5l-15 -86h-57q-26 0 -44 -14t-23 -41l-12 -65q25 16 49.5 21.5t47.5 5.5q40 0 71.5 -15t53.5 -40.5t33.5 -60t11.5 -73.5q0 -55 -14 -114.5t-44 -109.5t-77 -82.5t-112 -32.5q-32 0 -56 11t-45 30z
M347 380q-27 39 -78 39q-42 0 -70 -24t-44.5 -59.5t-23 -75.5t-6.5 -73q0 -17 2 -35t8.5 -33t19 -24.5t34.5 -9.5q35 0 63.5 20t53.5 42zM414 139q19 -25 41 -39.5t52 -14.5q39 0 63.5 25.5t38.5 61.5t19 75.5t5 67.5q0 20 -3.5 39t-12.5 33.5t-24 23.5t-38 9q-28 0 -54 -13
t-46 -30z" />
    <glyph glyph-name="afii10087" unicode="&#x445;" horiz-adv-x="589" 
d="M294 174l-145 -174h-128l228 267l-115 218l108 31l79 -164l134 164l101 -32l-188 -220l138 -264h-124z" />
    <glyph glyph-name="afii10088" unicode="&#x446;" horiz-adv-x="569" 
d="M341 47q-32 -24 -70 -41.5t-80 -17.5q-36 0 -66 8t-52 25.5t-34.5 44t-12.5 64.5q0 19 1.5 31.5t3.5 23.5l55 312l115 30l-62 -346q-2 -8 -3 -17t-1 -17q0 -18 6 -30t16 -19t22.5 -10t24.5 -3q21 0 41 7t38 17.5t35 23.5t32 26l60 338l115 30l-71 -402q-1 -4 -1 -7.5
v-6.5q0 -8 3 -13t13 -5h40l-32 -184h-94l16 92q-20 2 -36 14t-22 32z" />
    <glyph glyph-name="afii10089" unicode="&#x447;" horiz-adv-x="506" 
d="M331 333l27 151l115 32l-91 -516h-110l38 212q-29 -22 -62 -34t-69 -12q-33 0 -63 8.5t-52 26.5t-35 46.5t-13 67.5q0 10 1 19.5t3 19.5l23 130l115 32l-29 -159q-1 -7 -1.5 -14t-0.5 -15q0 -65 65 -65q40 0 75 22.5t64 47.5z" />
    <glyph glyph-name="afii10090" unicode="&#x448;" horiz-adv-x="816" 
d="M595 33q-26 -20 -56.5 -32.5t-63.5 -12.5q-40 0 -69 15t-51 49q-34 -30 -71.5 -47t-83.5 -17q-70 0 -112.5 43.5t-42.5 113.5q0 11 1 23t3 23l52 293l115 32l-58 -331q-3 -14 -3 -27q0 -29 14.5 -51.5t49.5 -22.5t57 10.5t48 33.5l61 342l114 32l-60 -339q-3 -14 -3 -26
q0 -24 13 -38t44 -14q35 0 57.5 10.5t48.5 32.5l63 357l114 31l-70 -402q-2 -9 -3 -18t-1 -18q0 -17 4 -32.5t10 -30.5l6 -15h-115l-3 5q-8 11 -9 28z" />
    <glyph glyph-name="afii10091" unicode="&#x449;" horiz-adv-x="803" 
d="M630 -12q-19 2 -34.5 14.5t-20.5 31.5q-26 -20 -56.5 -33t-63.5 -13q-37 0 -69.5 15.5t-51.5 48.5q-32 -30 -70.5 -47t-83.5 -17q-72 0 -114 44t-42 115q0 11 1.5 22t3.5 22l51 293l116 32l-60 -330q-3 -15 -3 -31q0 -32 15 -51.5t48 -19.5q30 0 58 11t49 33l61 342
l115 32l-61 -339q-1 -5 -1.5 -10.5t-0.5 -10.5q0 -26 11.5 -41.5t45.5 -15.5q62 0 105 43l63 357l115 31l-72 -409v-7q0 -7 2.5 -13.5t12.5 -6.5h41l-32 -183h-94z" />
    <glyph glyph-name="afii10092" unicode="&#x44a;" horiz-adv-x="555" 
d="M149 411h-97l-15 93h238l-36 -204q31 9 65 13t66 4q33 0 64 -6t55 -20.5t39 -38.5t15 -61q0 -53 -24 -91.5t-61.5 -63.5t-84.5 -36.5t-93 -11.5q-52 0 -101.5 9.5t-96.5 30.5zM222 203l-18 -104q20 -8 45 -11.5t47 -3.5t46 4.5t44.5 15t34 28t13.5 44.5q0 29 -22.5 40
t-54.5 12h-4q-18 0 -37 -2.5t-37 -6.5t-33 -8t-24 -8z" />
    <glyph glyph-name="afii10093" unicode="&#x44b;" horiz-adv-x="737" 
d="M700 516l-89 -513h-110l84 482zM197 302q58 18 120 18q33 0 64 -8t55 -25.5t38 -44t14 -62.5q0 -54 -22 -90.5t-58.5 -59t-83.5 -32.5t-96 -10q-48 0 -92.5 8.5t-88.5 28.5l-8 3l79 448l116 40zM180 206l-18 -107q19 -8 39.5 -11t40.5 -3q24 0 48.5 4t44 13t32 24.5
t12.5 38.5q0 16 -7.5 27t-19 18t-25.5 10t-28 3q-28 0 -60.5 -3t-58.5 -14z" />
    <glyph glyph-name="afii10094" unicode="&#x44c;" horiz-adv-x="491" 
d="M190 302q58 18 120 18q33 0 64 -8t55 -25.5t38 -44t14 -62.5q0 -54 -22 -90.5t-58.5 -59t-83.5 -32.5t-96 -10q-48 0 -92.5 8.5t-88.5 28.5l-8 3l79 448l116 40zM173 206l-18 -107q19 -8 39.5 -11t40.5 -3q24 0 48.5 4t44 13t32 24.5t12.5 38.5q0 16 -7.5 27t-19 18
t-25.5 10t-28 3q-28 0 -60.5 -3t-58.5 -14z" />
    <glyph glyph-name="afii10095" unicode="&#x44d;" horiz-adv-x="509" 
d="M358 212h-178l17 93h178q0 58 -22 86t-73 28q-41 0 -70 -10.5t-55 -40.5l-65 74q22 21 42.5 35t42.5 22.5t47 12.5t56 4q94 0 145.5 -50t51.5 -143q0 -65 -16.5 -125.5t-51 -107t-86.5 -74.5t-124 -28q-29 0 -53.5 3.5t-45.5 12.5t-39.5 24.5t-36.5 38.5l86 69
q19 -30 40 -40.5t58 -10.5q65 0 101.5 33.5t50.5 93.5z" />
    <glyph glyph-name="afii10096" unicode="&#x44e;" horiz-adv-x="777" 
d="M267 212h-82l-37 -212h-109l84 484l116 32l-38 -211h81q26 97 92 154t172 57q93 0 142 -47t49 -138q0 -64 -17 -125.5t-52.5 -110t-89 -78t-126.5 -29.5q-101 0 -144 48.5t-43 134.5q0 10 0.5 20t1.5 21zM635 327q0 51 -25 71.5t-77 20.5q-48 0 -81 -23t-53 -58
t-28.5 -77t-8.5 -79q0 -21 4.5 -39t16.5 -30.5t32 -20t51 -7.5q49 0 82 23t52 58t27 78t8 83z" />
    <glyph glyph-name="afii10097" unicode="&#x44f;" horiz-adv-x="593" 
d="M193 187q-49 11 -72 47t-23 88q0 45 16.5 79t44.5 57t65.5 34.5t80.5 11.5h254l-89 -504h-110l31 174h-59q-22 0 -34 -15l-88 -104q-23 -26 -53.5 -46.5t-67.5 -20.5q-17 0 -31.5 2.5t-29.5 9.5l15 85h10q25 0 45 9.5t36.5 24.5t30.5 33t28 35zM433 411h-131
q-41 0 -67.5 -18.5t-26.5 -60.5q0 -28 13 -46.5t39 -18.5h148z" />
    <glyph glyph-name="afii10071" unicode="&#x451;" horiz-adv-x="559" 
d="M141 180q0 -29 9.5 -47t25.5 -29t37.5 -15t46.5 -4q38 0 70.5 12.5t59.5 40.5l5 6l91 -41l-9 -11q-44 -54 -102.5 -79t-127.5 -25q-49 0 -88.5 10.5t-67 33.5t-42.5 59t-15 87q0 69 19.5 130t58.5 107.5t96.5 73.5t132.5 27q37 0 71.5 -8.5t60.5 -26.5t41.5 -47t15.5 -71
q0 -50 -19.5 -81.5t-53 -51t-78 -28.5t-93.5 -12zM154 278l143 9q21 1 43.5 4.5t41 12t30.5 23.5t12 39q0 18 -10 28.5t-25 16t-32 7t-30 1.5q-68 0 -112.5 -40t-60.5 -101zM257 707q24 0 42 -17t18 -41q0 -25 -17.5 -42t-42.5 -17t-42.5 17t-17.5 42q0 24 18 41t42 17z
M459 707q24 0 42 -17t18 -41q0 -25 -17.5 -42t-42.5 -17t-42.5 17t-17.5 42q0 24 18 41t42 17z" />
    <glyph glyph-name="afii10099" unicode="&#x452;" horiz-adv-x="535" 
d="M225 543l-15 -81q30 23 64.5 33t72.5 10q36 0 66.5 -11.5t52 -32.5t34 -51t12.5 -67q0 -20 -1 -27.5t-2 -13.5l-65 -363q-5 -29 -18.5 -55.5t-34.5 -46.5t-49 -31.5t-63 -11.5q-1 0 -9.5 1t-20.5 3t-25.5 4.5t-25.5 6.5l15 83h50q25 0 46 12.5t26 38.5l67 374l2 25
q0 33 -20.5 49.5t-52.5 16.5q-51 0 -89.5 -26.5t-58.5 -72.5l-54 -309h-110l96 543h-73l15 79h73l9 56l115 30l-15 -86h158l-38 -79h-134z" />
    <glyph glyph-name="afii10100" unicode="&#x453;" horiz-adv-x="414" 
d="M182 430l-76 -430h-86l88 504h306l-35 -74h-197zM209 585l73 122h92l-4 -25l-84 -97h-77z" />
    <glyph glyph-name="afii10101" unicode="&#x454;" horiz-adv-x="507" 
d="M155 304h175l-16 -93h-182l-1 -11q-1 -5 -1 -9.5v-9.5q0 -53 28.5 -76.5t81.5 -23.5q33 0 58 14t48 36l8 8l64 -70l-9 -8q-41 -37 -83.5 -55t-98.5 -18q-91 0 -142.5 46.5t-51.5 138.5q0 68 19 130.5t55.5 110t90 75.5t122.5 28q27 0 49 -3.5t40.5 -12t35.5 -22.5t35 -35
l7 -9l-84 -56l-7 -1q-17 24 -38 34.5t-50 10.5q-27 0 -52 -9t-45 -25t-35 -38t-21 -47z" />
    <glyph glyph-name="afii10102" unicode="&#x455;" horiz-adv-x="496" 
d="M463 436l-78 -63q-16 20 -39 34.5t-70 14.5q-15 0 -31.5 -2.5t-30 -8.5t-22.5 -16.5t-9 -25.5q0 -21 20 -33.5t50 -22.5t65.5 -20t65.5 -25.5t50 -39.5t20 -62q0 -48 -20.5 -81.5t-53 -55t-73 -31.5t-80.5 -10q-71 0 -126.5 27t-78.5 86l89 48q21 -40 57 -52.5t75 -12.5
q45 0 72 14.5t27 47.5q0 22 -20 35t-49.5 23t-64 19.5t-64 25t-49.5 41t-20 66.5q0 46 20.5 76.5t52.5 49t70.5 26.5t74.5 8q55 0 99.5 -21t70.5 -59z" />
    <glyph glyph-name="afii10103" unicode="&#x456;" horiz-adv-x="154" 
 />
    <glyph glyph-name="afii10104" unicode="&#x457;" horiz-adv-x="369" 
d="M52 0l89 504h109l-89 -504h-109zM124 707q24 0 42 -17t18 -41q0 -25 -17.5 -42t-42.5 -17t-42.5 17t-17.5 42q0 24 18 41t42 17zM326 707q24 0 42 -17t18 -41q0 -25 -17.5 -42t-42.5 -17t-42.5 17t-17.5 42q0 24 18 41t42 17z" />
    <glyph glyph-name="afii10105" unicode="&#x458;" horiz-adv-x="162" 
 />
    <glyph glyph-name="afii10106" unicode="&#x459;" horiz-adv-x="866" 
d="M549 302q58 18 120 18q33 0 64 -8t55 -25.5t38 -44t14 -62.5q0 -54 -22 -90.5t-58.5 -59t-83.5 -32.5t-96 -10q-48 0 -92.5 8.5t-88.5 28.5l-8 3l67 383h-41q-51 0 -85 -30.5t-47 -80.5q-8 -32 -14.5 -54.5t-12 -39.5t-10.5 -30.5t-10 -25.5q-10 -26 -26.5 -54.5
t-37.5 -52.5t-46.5 -39.5t-52.5 -15.5q-15 0 -27.5 3.5t-26.5 8.5l15 85h10q22 0 39 5t32 27.5t31.5 69.5t38.5 131q10 39 31 73t52.5 59t72.5 39.5t91 14.5h150zM532 206l-18 -107q19 -8 39.5 -11t40.5 -3q24 0 48.5 4t44 13t32 24.5t12.5 38.5q0 16 -7.5 27t-19 18
t-25.5 10t-28 3q-28 0 -60.5 -3t-58.5 -14z" />
    <glyph glyph-name="afii10107" unicode="&#x45a;" horiz-adv-x="841" 
d="M525 302q58 18 120 18q33 0 64 -8t55 -25.5t38 -44t14 -62.5q0 -54 -22 -90.5t-58.5 -59t-83.5 -32.5t-96 -10q-48 0 -93.5 9t-95.5 31l34 196h-213l-39 -224h-109l86 485l114 31l-35 -198h213l28 158l116 40zM508 206l-18 -107q19 -8 39.5 -11t40.5 -3q24 0 48.5 4
t44 13t32 24.5t12.5 38.5q0 16 -7.5 27t-19 18t-25.5 10t-28 3q-28 0 -60.5 -3t-58.5 -14z" />
    <glyph glyph-name="afii10108" unicode="&#x45b;" horiz-adv-x="536" 
d="M368 630l-28 -77h-295l11 77h312zM189 308l-54 -308h-109l120 677l114 30l-44 -246q29 23 64.5 33t72.5 10q36 0 66.5 -11.5t52 -33t34 -51t12.5 -65.5q0 -22 -3 -41l-54 -302h-109l56 317q2 5 2 11.5v11.5q0 30 -20.5 48.5t-52.5 18.5q-49 0 -90 -26t-58 -73z" />
    <glyph glyph-name="afii10109" unicode="&#x45c;" horiz-adv-x="427" 
d="M194 299h29l181 205h119l-213 -246l92 -153q8 -12 22 -16.5t28 -4.5h13l-15 -84q-8 -4 -17 -7l-16 -4t-16 -2q-15 0 -28 6.5t-24 16.5t-20 22t-16 24l-102 163h-31l-38 -219h-109l84 485l114 31zM147 585l73 122h92l-4 -25l-84 -97h-77z" />
    <glyph glyph-name="afii10110" unicode="&#x45e;" horiz-adv-x="574" 
d="M260 98l209 419l102 -31l-300 -586q-11 -20 -23.5 -39t-29 -34t-38 -24t-49.5 -9q-19 0 -40 3.5t-39 8.5l12 86h52q19 0 34.5 6.5t23.5 23.5l35 74q-25 10 -41.5 31t-23.5 48l-100 411l108 30l99 -405q1 -4 2.5 -8.5t6.5 -4.5zM312 585q-25 0 -48.5 5.5t-41.5 17
t-28.5 30t-10.5 45.5q0 5 0.5 11.5t1.5 12.5h71q-1 -4 -1 -11q0 -24 19.5 -34t48.5 -10q30 0 56 12t31 43h71q-6 -33 -23 -56.5t-40 -38t-51 -21t-55 -6.5z" />
    <glyph glyph-name="afii10193" unicode="&#x45f;" horiz-adv-x="575" 
d="M117 505h109l-72 -412h216l73 412h108l-88 -505h-170l-17 -92h-93l17 92h-171z" />
    <glyph glyph-name="afii10146" unicode="&#x462;" horiz-adv-x="626" 
d="M448 586l-35 -70h-362l13 70h384zM220 401h203q39 0 73.5 -7.5t61 -25.5t41.5 -47.5t15 -73.5q0 -125 -68.5 -186t-194.5 -61h-316l123 695h113zM201 296l-34 -192h195q73 0 105 28t32 99q0 22 -8 35t-21.5 20t-30.5 8.5t-35 1.5h-203z" />
    <glyph glyph-name="afii10194" unicode="&#x463;" horiz-adv-x="509" 
d="M230 505h155l-40 -84h-129l-22 -119q32 9 66 13.5t66 4.5q33 0 64.5 -6.5t55.5 -21.5t39 -39.5t15 -60.5q0 -54 -22.5 -92.5t-59.5 -63.5t-84 -36.5t-96 -11.5q-48 0 -97.5 8.5t-93.5 28.5l-8 4l67 392h-79l14 84h80l29 164l116 39zM178 206l-17 -106q20 -8 45 -11.5
t46 -3.5q24 0 48.5 3.5t44.5 12.5t32.5 24.5t12.5 39.5q0 16 -7.5 27.5t-19.5 18t-26.5 9.5t-28.5 3q-32 0 -66 -3t-64 -14z" />
    <glyph glyph-name="afii10147" unicode="&#x472;" 
d="M317 -12q-137 0 -209.5 64.5t-72.5 202.5q0 92 27 174.5t79 144t128.5 97.5t175.5 36q63 0 115.5 -16.5t90 -49t58 -81.5t20.5 -114q0 -103 -30 -187.5t-84.5 -144.5t-130.5 -93t-167 -33zM602 318q-38 -33 -73.5 -50t-73.5 -17q-33 0 -62 11.5t-51 20.5l-56 23
q-17 3 -29 6t-27 3q-20 0 -42.5 -10t-39.5 -23v-14q0 -90 45.5 -132.5t136.5 -42.5q56 0 99 16.5t76 46t56.5 71t40.5 91.5zM159 363q29 23 61 35.5t63 12.5q18 0 33.5 -3.5t31.5 -9.5t34 -13t41 -14l7 -2q19 -6 37.5 -11.5t38.5 -5.5q26 0 57 14t52 38q1 5 1 11v12
q0 86 -50.5 130t-135.5 44q-57 0 -102 -19t-79 -51.5t-56.5 -75.5t-33.5 -92z" />
    <glyph glyph-name="afii10195" unicode="&#x473;" horiz-adv-x="579" 
d="M242 -12q-44 0 -82 11.5t-66 34.5t-44 57t-16 80q0 69 18.5 131.5t56 110t94 75.5t132.5 28q45 0 83.5 -12.5t67 -37t44.5 -60.5t16 -82q0 -67 -21 -127.5t-60 -107t-95.5 -74t-127.5 -27.5zM432 220q-22 -18 -46 -28t-48 -10q-16 1 -31.5 5t-29.5 10l-62 25
q-11 3 -20.5 5t-19.5 2q-14 0 -33 -8l-9 -5q-1 -6 -1 -12.5v-12.5q0 -31 8 -51.5t24 -32.5t38.5 -17t52.5 -5q71 0 114.5 39t62.5 96zM144 277q16 11 34 16.5t35 5.5q17 -1 31.5 -5t29.5 -9l21 -8q19 -10 40.5 -15.5t39.5 -5.5q16 0 36 7t35 22q1 8 1 15.5v15.5
q0 56 -35 79.5t-89 23.5q-37 0 -66 -11t-51.5 -30t-37.5 -45t-24 -56z" />
    <glyph glyph-name="afii10148" unicode="&#x474;" horiz-adv-x="739" 
d="M260 125l38 93l220 395q23 41 61 68.5t88 27.5q42 0 74 -23l58 -41l-64 -76l-8 5q-6 4 -11.5 7.5t-11.5 6.5l-22 9q-7 4 -17 4q-19 0 -32 -9t-21 -23l-312 -569h-129l-140 679l114 29l104 -492z" />
    <glyph glyph-name="afii10196" unicode="&#x475;" horiz-adv-x="561" 
d="M202 142l34 73l112 206q23 42 61 69.5t86 27.5q39 0 74 -24l58 -41l-65 -71l-7 4q-17 6 -34 15.5t-31 9.5q-20 0 -34 -12t-23 -29l-203 -370h-104l-94 485l103 31l58 -305z" />
    <glyph glyph-name="afii10050" unicode="&#x490;" horiz-adv-x="572" 
d="M13 0l122 696h305l25 141h106l-43 -245h-298l-104 -592h-113z" />
    <glyph glyph-name="afii10098" unicode="&#x491;" horiz-adv-x="461" 
d="M9 0l88 505h234l34 191h94l-50 -284h-219l-72 -412h-109z" />
    <glyph glyph-name="uni04A4" unicode="&#x4a4;" horiz-adv-x="1048" 
d="M565 421l50 274h433l-51 -105h-287l-106 -590h-113l55 315h-277q-35 0 -53.5 -19t-24.5 -52l-43 -244h-113l122 695h113l-49 -285q16 8 34.5 9.5t35.5 1.5h274z" />
    <glyph glyph-name="uni04A5" unicode="&#x4a5;" horiz-adv-x="753" 
d="M537 412l-72 -412h-109l39 224h-213l-39 -224h-109l86 485l114 31l-35 -198h213l35 198h306l-52 -104h-164z" />
    <glyph glyph-name="endash" unicode="&#x2013;" horiz-adv-x="664" 
d="M60 326h544q3 -9 4 -22.5t1 -22.5q0 -14 -0.5 -24t-4.5 -23h-544q-3 13 -4 23t-1 24q0 9 1.5 22.5t3.5 22.5z" />
    <glyph glyph-name="emdash" unicode="&#x2014;" horiz-adv-x="1100" 
d="M60 327h980q2 -8 3.5 -22.5t1.5 -23.5q0 -8 -1.5 -23t-3.5 -23h-980q-2 9 -3.5 23t-1.5 23q0 10 1.5 23.5t3.5 22.5z" />
    <glyph glyph-name="quoteleft" unicode="&#x2018;" horiz-adv-x="202" 
d="M112 586q18 -3 29.5 -17t11.5 -33q0 -29 -21 -49.5t-49 -20.5q-17 0 -28 6.5t-18 17.5t-10 25t-3 28q0 66 38 107.5t100 56.5l23 -51q-13 -5 -26.5 -10t-24 -13t-17 -18.5t-6.5 -25.5z" />
    <glyph glyph-name="quoteright" unicode="&#x2019;" horiz-adv-x="202" 
d="M91 587q-18 3 -29.5 17t-11.5 33q0 29 21 49.5t49 20.5q16 0 27.5 -6.5t18.5 -17.5t10 -25t3 -28q0 -66 -38 -107.5t-100 -56.5l-23 51q13 4 26.5 9.5t24 13.5t17 18.5t6.5 25.5z" />
    <glyph glyph-name="quotedblleft" unicode="&#x201c;" horiz-adv-x="423" 
d="M127 586q18 -3 29.5 -17t11.5 -33q0 -29 -21 -49.5t-49 -20.5q-17 0 -28 6.5t-18 17.5t-10 25t-3 28q0 66 38 107.5t100 56.5l23 -51q-13 -5 -26.5 -10t-24 -13t-17 -18.5t-6.5 -25.5zM315 586q18 -3 29.5 -17t11.5 -33q0 -29 -21 -49.5t-49 -20.5q-17 0 -28 6.5
t-18 17.5t-10 25t-3 28q0 66 38 107.5t100 56.5l23 -51q-13 -5 -26.5 -10t-24 -13t-17 -18.5t-6.5 -25.5z" />
    <glyph glyph-name="quotedblright" unicode="&#x201d;" horiz-adv-x="422" 
d="M296 587q-18 3 -29.5 17t-11.5 33q0 29 21 49.5t49 20.5q16 0 27.5 -6.5t18.5 -17.5t10 -25t3 -28q0 -66 -38 -107.5t-100 -56.5l-23 51q13 4 26.5 9.5t24 13.5t17 18.5t6.5 25.5zM108 587q-18 3 -29.5 17t-11.5 33q0 29 21 49.5t49 20.5q16 0 27.5 -6.5t18.5 -17.5
t10 -25t3 -28q0 -66 -38 -107.5t-100 -56.5l-23 51q13 4 26.5 9.5t24 13.5t17 18.5t6.5 25.5z" />
    <glyph glyph-name="quotedblbase" unicode="&#x201e;" horiz-adv-x="422" 
d="M296 -23q-18 3 -29.5 17t-11.5 33q0 29 21 49.5t49 20.5q16 0 27.5 -6.5t18.5 -17.5t10 -25t3 -28q0 -66 -38 -107.5t-100 -56.5l-23 51q13 4 26.5 9.5t24 13.5t17 18.5t6.5 25.5zM108 -23q-18 3 -29.5 17t-11.5 33q0 29 21 49.5t49 20.5q16 0 27.5 -6.5t18.5 -17.5
t10 -25t3 -28q0 -66 -38 -107.5t-100 -56.5l-23 51q13 4 26.5 9.5t24 13.5t17 18.5t6.5 25.5z" />
    <glyph glyph-name="dagger" unicode="&#x2020;" horiz-adv-x="514" 
d="M196 405h-191l16 97h192l34 193h109l-34 -193h192l-18 -97h-192l-125 -600h-68z" />
    <glyph glyph-name="daggerdbl" unicode="&#x2021;" horiz-adv-x="583" 
d="M264 405h-192l17 97h192l34 193h109l-34 -193h192l-17 -97h-192l-70 -322h205l-13 -77h-206l-43 -201h-68l30 201h-206l13 77h203z" />
    <glyph glyph-name="bullet" unicode="&#x2022;" horiz-adv-x="346" 
d="M173 494q26 0 51 -10t44.5 -28t31.5 -43.5t12 -56.5q0 -25 -9.5 -50t-27.5 -44.5t-43.5 -31.5t-58.5 -12q-25 0 -50 9.5t-45 27.5t-32.5 43.5t-12.5 57.5q0 26 10 51t28.5 44.5t44.5 31t57 11.5z" />
    <glyph glyph-name="ellipsis" unicode="&#x2026;" horiz-adv-x="676" 
d="M339 108q24 0 42 -18t18 -42q0 -25 -17.5 -42.5t-42.5 -17.5q-26 0 -44 17t-18 43q0 25 18.5 42.5t43.5 17.5zM566 108q24 0 42 -18t18 -42q0 -25 -17.5 -42.5t-42.5 -17.5q-26 0 -44 17t-18 43q0 25 18.5 42.5t43.5 17.5zM112 108q24 0 42 -18t18 -42q0 -25 -17.5 -42.5
t-42.5 -17.5q-26 0 -44 17t-18 43q0 25 18.5 42.5t43.5 17.5z" />
    <glyph glyph-name="perthousand" unicode="&#x2030;" horiz-adv-x="1029" 
d="M261 563q0 22 -7.5 39.5t-35.5 17.5q-24 0 -40.5 -14t-26.5 -34.5t-14 -44t-4 -42.5q0 -22 8 -40.5t34 -18.5q23 0 39 14.5t26.5 35.5t15.5 44.5t5 42.5zM165 340q-35 0 -58 11t-36.5 29.5t-19.5 42.5t-6 50q0 42 10.5 83.5t33 75t57 54.5t82.5 21q33 0 55.5 -10.5
t37 -29t21 -43t6.5 -52.5q0 -44 -11.5 -85.5t-34.5 -74t-57.5 -52.5t-79.5 -20zM923 211q0 22 -7.5 39.5t-35.5 17.5q-25 0 -41.5 -14.5t-26 -35t-13.5 -44t-4 -41.5q0 -22 8 -40.5t34 -18.5q23 0 39 14.5t26.5 35.5t15.5 44.5t5 42.5zM827 -12q-35 0 -58 11t-36.5 29.5
t-19.5 42.5t-6 50q0 42 10.5 83.5t33 75t57 54.5t82.5 21q33 0 55.5 -10.5t37 -29t21 -43t6.5 -52.5q0 -44 -11.5 -85.5t-34.5 -74t-57.5 -52.5t-79.5 -20zM157 -12h-99l500 719h98zM581 211q0 22 -7.5 39.5t-35.5 17.5q-25 0 -41.5 -14.5t-26 -35t-13.5 -44t-4 -41.5
q0 -22 8 -40.5t34 -18.5q23 0 39 14.5t26.5 35.5t15.5 44.5t5 42.5zM485 -12q-35 0 -58 11t-36.5 29.5t-19.5 42.5t-6 50q0 42 10.5 83.5t33 75t57 54.5t82.5 21q33 0 55.5 -10.5t37 -29t21 -43t6.5 -52.5q0 -44 -11.5 -85.5t-34.5 -74t-57.5 -52.5t-79.5 -20z" />
    <glyph glyph-name="guilsinglleft" unicode="&#x2039;" horiz-adv-x="309" 
d="M132 256q28 -50 45.5 -104t31.5 -109h-83q-19 55 -50 107.5t-66 100.5l-6 9l8 6q51 49 99.5 100t89.5 110h92l-3 -5q-34 -59 -73.5 -111.5t-84.5 -103.5z" />
    <glyph glyph-name="guilsinglright" unicode="&#x203a;" horiz-adv-x="310" 
d="M178 261q-28 50 -45.5 104t-31.5 109h83q19 -55 50 -107.5t66 -100.5l6 -9l-8 -6q-51 -49 -99.5 -100t-89.5 -110h-92l3 5q34 59 73.5 111.5t84.5 103.5z" />
    <glyph glyph-name="fraction" unicode="&#x2044;" horiz-adv-x="733" 
d="M101 -12h-101l635 719h98z" />
    <glyph glyph-name="uni2070" unicode="&#x2070;" horiz-adv-x="350" 
d="M145 340q-31 0 -52 12.5t-34 32.5t-18.5 45.5t-5.5 51.5q0 39 9.5 78.5t29.5 71t52.5 51t78.5 19.5q60 0 85.5 -36.5t25.5 -93.5q0 -38 -10 -79t-30.5 -75t-53 -56t-77.5 -22zM244 566q0 25 -9 44.5t-38 19.5q-30 0 -48 -15.5t-28 -38t-13.5 -49t-3.5 -48.5
q0 -26 10 -46.5t40 -20.5q26 0 43 16.5t27.5 40t15 50t4.5 47.5z" />
    <glyph glyph-name="uni2074" unicode="&#x2074;" horiz-adv-x="318" 
d="M157 420h-155l11 62l187 213h77l-36 -206h50l-34 -69h-28l-13 -73h-72zM169 489l16 87l-78 -87h62z" />
    <glyph glyph-name="uni2075" unicode="&#x2075;" horiz-adv-x="324" 
d="M150 625l-7 -30q15 4 33 4q44 0 72.5 -25.5t28.5 -75.5q0 -32 -10 -60.5t-28.5 -50t-45.5 -34.5t-61 -13q-77 0 -109 76l66 28q16 -36 52 -36q35 0 51 25t16 55q0 18 -10 30t-30 12q-29 0 -49 -23l-4 -3h-65l47 190h199l-33 -69h-113z" />
    <glyph glyph-name="uni2076" unicode="&#x2076;" horiz-adv-x="315" 
d="M171 583q48 0 73.5 -30t25.5 -76q0 -66 -38 -101.5t-100 -35.5q-28 0 -47 8.5t-31 23t-17 34t-5 40.5q0 36 7.5 80.5t26.5 83.5t51 65.5t81 26.5q30 0 49.5 -9t39.5 -30l-50 -48q-11 11 -18 15t-24 4q-23 0 -42.5 -15t-32.5 -47q17 7 30 9t21 2zM97 449q0 -41 42 -41
q34 0 49 18.5t15 47.5q0 40 -40 40q-33 0 -49.5 -18t-16.5 -47z" />
    <glyph glyph-name="uni2077" unicode="&#x2077;" horiz-adv-x="311" 
d="M54 625l11 69h244l-6 -36q-4 -26 -27 -46q-61 -52 -100.5 -120t-55.5 -146h-73q14 85 54.5 156.5t91.5 122.5h-139z" />
    <glyph glyph-name="uni2078" unicode="&#x2078;" horiz-adv-x="309" 
d="M94 535q-14 11 -19.5 27.5t-5.5 34.5q0 24 9.5 43t26 33t38 21.5t45.5 7.5q37 0 63 -22.5t26 -60.5q0 -29 -16 -47t-38 -31q20 -14 29.5 -29t9.5 -39q0 -29 -11 -53.5t-30 -42t-44.5 -27.5t-53.5 -10q-44 0 -71.5 23t-27.5 69q0 37 19 61.5t51 41.5zM172 568
q14 7 25.5 16.5t11.5 26.5q0 11 -8 17t-21 6q-42 0 -42 -34q0 -15 11 -20.5zM149 506q-23 -8 -40 -23t-17 -41q0 -17 12 -25.5t29 -8.5q27 0 44 14t17 40q0 18 -15.5 28.5t-29.5 15.5z" />
    <glyph glyph-name="uni2079" unicode="&#x2079;" horiz-adv-x="318" 
d="M198 469q-9 -5 -23.5 -8t-27.5 -3q-45 0 -71 26t-26 72q0 30 10 56.5t28 46.5t44 31.5t58 11.5q53 0 74 -30t21 -78q0 -21 -3 -48t-10.5 -55t-19.5 -55.5t-30.5 -48.5t-44 -34t-58.5 -13q-32 0 -53 9.5t-41 33.5l55 48q17 -23 44 -23q29 0 46.5 16t25.5 40zM155 527
q35 0 51.5 19.5t16.5 51.5q0 19 -11.5 27t-30.5 8q-33 0 -50 -22t-17 -51q0 -20 11.5 -26.5t29.5 -6.5z" />
    <glyph glyph-name="uni2080" unicode="&#x2080;" horiz-adv-x="310" 
d="M145 -5q-31 0 -52 12.5t-34 32.5t-18.5 45.5t-5.5 51.5q0 39 9.5 78.5t29.5 71t52.5 51t78.5 19.5q60 0 85.5 -36.5t25.5 -93.5q0 -38 -10 -79t-30.5 -75t-53 -56t-77.5 -22zM244 221q0 25 -9 44.5t-38 19.5q-30 0 -48 -15.5t-28 -38t-13.5 -49t-3.5 -48.5
q0 -26 10 -46.5t40 -20.5q26 0 43 16.5t27.5 40t15 50t4.5 47.5z" />
    <glyph glyph-name="uni2081" unicode="&#x2081;" horiz-adv-x="236" 
d="M79 69l30 172l-35 -29l-41 51l105 86h68l-49 -280h47l-12 -68h-176l12 68h51z" />
    <glyph glyph-name="uni2082" unicode="&#x2082;" horiz-adv-x="283" 
d="M132 68h146l-12 -68h-246l7 41q4 27 28 48l162 116q11 8 19.5 23t8.5 29q0 20 -13 24.5t-29 4.5q-26 0 -40.5 -10.5t-28.5 -30.5l-59 31q25 36 56 57.5t77 21.5q45 0 75.5 -22.5t30.5 -70.5q0 -30 -13.5 -57t-36.5 -47z" />
    <glyph glyph-name="uni2083" unicode="&#x2083;" horiz-adv-x="279" 
d="M218 214q29 -10 44.5 -30.5t15.5 -53.5q0 -63 -40 -99t-103 -36q-48 0 -73.5 21t-36.5 66l64 27q10 -23 19 -34.5t36 -11.5q29 0 46 13.5t17 42.5q0 20 -13.5 30t-32.5 10h-48l11 52l70 69h-119l12 69h216l-8 -40q-5 -26 -22 -43z" />
    <glyph glyph-name="uni2084" unicode="&#x2084;" horiz-adv-x="309" 
d="M157 74h-155l11 62l187 213h77l-36 -206h50l-34 -69h-28l-13 -73h-72zM169 143l16 87l-78 -87h62z" />
    <glyph glyph-name="uni2085" unicode="&#x2085;" horiz-adv-x="276" 
d="M150 280l-7 -30q15 4 33 4q44 0 72.5 -25.5t28.5 -75.5q0 -32 -10 -60.5t-28.5 -50t-45.5 -34.5t-61 -13q-77 0 -109 76l66 28q16 -36 52 -36q35 0 51 25t16 55q0 18 -10 30t-30 12q-29 0 -49 -23l-4 -3h-65l47 190h199l-33 -69h-113z" />
    <glyph glyph-name="uni2086" unicode="&#x2086;" horiz-adv-x="276" 
d="M171 238q48 0 73.5 -30t25.5 -76q0 -66 -38 -101.5t-100 -35.5q-28 0 -47 8.5t-31 23t-17 34t-5 40.5q0 36 7.5 80.5t26.5 83.5t51 65.5t81 26.5q30 0 49.5 -9t39.5 -30l-50 -48q-11 11 -18 15t-24 4q-23 0 -42.5 -15t-32.5 -47q17 7 30 9t21 2zM97 104q0 -41 42 -41
q34 0 49 18.5t15 47.5q0 40 -40 40q-33 0 -49.5 -18t-16.5 -47z" />
    <glyph glyph-name="uni2087" unicode="&#x2087;" horiz-adv-x="281" 
d="M54 279l11 69h244l-6 -36q-4 -26 -27 -46q-61 -52 -100.5 -120t-55.5 -146h-73q14 85 54.5 156.5t91.5 122.5h-139z" />
    <glyph glyph-name="uni2088" unicode="&#x2088;" horiz-adv-x="271" 
d="M94 190q-14 11 -19.5 27.5t-5.5 34.5q0 24 9.5 43t26 33t38 21.5t45.5 7.5q37 0 63 -22.5t26 -60.5q0 -29 -16 -47t-38 -31q20 -14 29.5 -29t9.5 -39q0 -29 -11 -53.5t-30 -42t-44.5 -27.5t-53.5 -10q-44 0 -71.5 23t-27.5 69q0 37 19 61.5t51 41.5zM172 223
q14 7 25.5 16.5t11.5 26.5q0 11 -8 17t-21 6q-42 0 -42 -34q0 -15 11 -20.5zM149 161q-23 -8 -40 -23t-17 -41q0 -17 12 -25.5t29 -8.5q27 0 44 14t17 40q0 18 -15.5 28.5t-29.5 15.5z" />
    <glyph glyph-name="uni2089" unicode="&#x2089;" horiz-adv-x="273" 
d="M198 124q-9 -5 -23.5 -8t-27.5 -3q-45 0 -71 26t-26 72q0 30 10 56.5t28 46.5t44 31.5t58 11.5q53 0 74 -30t21 -78q0 -21 -3 -48t-10.5 -55t-19.5 -55.5t-30.5 -48.5t-44 -34t-58.5 -13q-32 0 -53 9.5t-41 33.5l55 48q17 -23 44 -23q29 0 46.5 16t25.5 40zM155 182
q35 0 51.5 19.5t16.5 51.5q0 19 -11.5 27t-30.5 8q-33 0 -50 -22t-17 -51q0 -20 11.5 -26.5t29.5 -6.5z" />
    <glyph glyph-name="lira" unicode="&#x20a4;" horiz-adv-x="639" 
d="M157 210h-97l13 85h105l-2 29q-1 6 -1.5 12t-2.5 11h-89l15 85h60v31q0 60 22 104t58 73t82 43t94 14q60 0 111.5 -23t86.5 -83l-89 -70l-7 13q-17 35 -44.5 50t-65.5 15q-29 0 -55.5 -6.5t-47 -22t-32.5 -42t-12 -65.5v-15.5t1 -15.5h175l-15 -85h-145l3 -13
q1 -9 1.5 -15.5t0.5 -12.5q0 -7 -1 -11h131l-14 -85h-135q-12 -27 -28 -46t-35 -42q8 1 15.5 1h15.5q25 0 49 -6.5t47.5 -14t47.5 -14t49 -6.5q21 0 42 10.5t49 23.5l30 -88q-34 -17 -66.5 -28.5t-67.5 -11.5q-39 0 -65 6t-47 13t-42 13t-49 6q-15 0 -36 -3.5t-43 -9.5
t-42.5 -14t-35.5 -16q-4 16 -7 27.5t-6 21.5t-7 21t-9 28q41 26 79 57t58 72z" />
    <glyph glyph-name="Euro" unicode="&#x20ac;" horiz-adv-x="683" 
d="M224 322h251l-33 -86h-227v-8q0 -39 11.5 -65t32.5 -41.5t51 -22t68 -6.5q61 0 114 33l11 7l45 -91l-9 -6q-79 -48 -175 -48q-53 0 -99.5 11t-82.5 39t-57.5 76t-23.5 122h-85l41 86h53l7 39h-79l41 85h57q17 61 50.5 108t79 78.5t102 47.5t120.5 16q51 0 90 -13t80 -43
l-74 -88q-26 21 -50.5 30.5t-59.5 9.5q-85 0 -140.5 -34t-82.5 -112h271l-32 -85h-259l-5 -21z" />
    <glyph glyph-name="grivna" unicode="&#x20b4;" horiz-adv-x="505" 
d="M100 232h-80l22 89h134l35 38h-161l22 89h230q10 10 22.5 22t23.5 25.5t18 28t7 29.5q0 26 -20.5 40t-43.5 14q-38 0 -71.5 -15.5t-62.5 -38.5l-9 -7l-50 70l9 6q44 35 92 55.5t105 20.5q28 0 54.5 -9.5t46 -27t31.5 -42t12 -54.5q0 -36 -13.5 -62t-35.5 -55h58l-20 -89
h-122l-36 -38h149l-21 -89h-216l-18 -22.5t-19.5 -26t-16 -27t-6.5 -25.5q0 -14 7 -24t18 -16t23.5 -9t24.5 -3q38 0 74 13.5t67 35.5l9 7l47 -72l-9 -7q-45 -32 -95.5 -50t-105.5 -18q-29 0 -56 8.5t-48.5 25t-34.5 40.5t-13 56q0 35 11.5 60t31.5 54z" />
    <glyph glyph-name="uni2103" unicode="&#x2103;" horiz-adv-x="879" 
d="M524 93q46 0 87.5 17t76.5 47l9 8l67 -76l-9 -8q-51 -47 -114 -70t-132 -23q-75 0 -127.5 20.5t-85 57t-47 86t-14.5 106.5q0 95 25 177t75.5 142.5t125.5 95t175 34.5q68 0 123.5 -21.5t97.5 -76.5l-89 -76q-30 37 -64.5 52.5t-82.5 15.5q-73 0 -125 -28.5t-85 -75.5
t-48.5 -108t-15.5 -126q0 -37 8.5 -68t29 -53.5t54.5 -35.5t85 -13zM70 707q30 0 55.5 -11t44.5 -30t30 -44.5t11 -55.5q0 -29 -11 -54.5t-30 -44.5t-45 -29.5t-55 -10.5t-54.5 10.5t-44.5 29.5t-30 44.5t-11 54.5q0 30 11 55.5t30 44.5t44.5 30t54.5 11zM70 637
q-30 0 -50 -20.5t-20 -50.5q0 -29 20.5 -49t49.5 -20q30 0 50.5 20t20.5 49q0 30 -20.5 50.5t-50.5 20.5z" />
    <glyph glyph-name="fahrenheit" unicode="&#x2109;" horiz-adv-x="872" 
d="M467 590l-29 -169h330l-19 -105h-330l-56 -316h-113l123 695h499l-53 -105h-352zM71 707q30 0 55.5 -11t44.5 -30t30 -44.5t11 -55.5q0 -29 -11 -54.5t-30 -44.5t-45 -29.5t-55 -10.5t-54.5 10.5t-44.5 29.5t-30 44.5t-11 54.5q0 30 11 55.5t30 44.5t44.5 30t54.5 11z
M71 637q-30 0 -50 -20.5t-20 -50.5q0 -29 20.5 -49t49.5 -20q30 0 50.5 20t20.5 49q0 30 -20.5 50.5t-50.5 20.5z" />
    <glyph glyph-name="afii61352" unicode="&#x2116;" horiz-adv-x="1137" 
d="M732 126h314q1 -7 1.5 -13.5t0.5 -12.5q0 -21 -4.5 -37t-9.5 -24h-314q-2 10 -2 20q0 17 4 36.5t10 30.5zM896 179q-64 0 -102 33t-38 99q0 49 11.5 94t36.5 79t64.5 54.5t94.5 20.5q65 0 103 -36t38 -102q0 -48 -13.5 -92t-39.5 -77t-65 -53t-90 -20zM1023 409
q0 41 -18.5 55.5t-50.5 14.5t-54.5 -12.5t-36.5 -33.5t-20.5 -49t-6.5 -59q0 -18 3 -31t10.5 -20.5t21 -11t35.5 -3.5q31 0 53.5 12t36.5 32t20.5 47.5t6.5 58.5zM528 175l92 520h113l-123 -695h-134l-234 529l-94 -529h-113l123 695h139z" />
    <glyph glyph-name="trademark" unicode="&#x2122;" horiz-adv-x="890" 
d="M239 623v-317h-77v317h-125v72h329l-28 -72h-99zM405 306v389h118l96 -252l96 252h119v-389h-77v295l-97 -254h-83l-95 254v-295h-77z" />
    <glyph glyph-name="Omega" unicode="&#x2126;" horiz-adv-x="774" 
d="M165 93q-51 51 -77 115t-26 136v22q0 73 21.5 134.5t63 106.5t101 70t135.5 25t136 -25t102 -69t64 -105.5t22 -134.5v-24q0 -73 -26 -136.5t-78 -114.5l135 10v-103h-303v99l8 3q42 13 68.5 37t42 56.5t21.5 70.5t6 78v24q0 46 -11 89.5t-34.5 77t-61 54t-90.5 20.5
q-54 0 -91.5 -20.5t-60.5 -54t-33.5 -77.5t-10.5 -91v-22q0 -41 6 -79t21.5 -70t42.5 -56t69 -37l8 -3v-99h-297v103z" />
    <glyph glyph-name="oneeighth" unicode="&#x215b;" horiz-adv-x="651" 
d="M97 -12h-101l635 719h98zM479 190q-14 11 -19.5 27.5t-5.5 34.5q0 24 9.5 43t26 33t38 21.5t45.5 7.5q37 0 63 -22.5t26 -60.5q0 -29 -16 -47t-38 -31q20 -14 29.5 -29t9.5 -39q0 -29 -11 -53.5t-30 -42t-44.5 -27.5t-53.5 -10q-44 0 -71.5 23t-27.5 69q0 37 19 61.5
t51 41.5zM557 223q14 7 25.5 16.5t11.5 26.5q0 11 -8 17t-21 6q-42 0 -42 -34q0 -15 11 -20.5zM534 161q-23 -8 -40 -23t-17 -41q0 -17 12 -25.5t29 -8.5q27 0 44 14t17 40q0 18 -15.5 28.5t-29.5 15.5zM110 415l30 172l-35 -29l-41 51l105 86h68l-49 -280h47l-12 -68h-176
l12 68h51z" />
    <glyph glyph-name="threeeighths" unicode="&#x215c;" horiz-adv-x="651" 
d="M97 -12h-101l635 719h98zM459 190q-14 11 -19.5 27.5t-5.5 34.5q0 24 9.5 43t26 33t38 21.5t45.5 7.5q37 0 63 -22.5t26 -60.5q0 -29 -16 -47t-38 -31q20 -14 29.5 -29t9.5 -39q0 -29 -11 -53.5t-30 -42t-44.5 -27.5t-53.5 -10q-44 0 -71.5 23t-27.5 69q0 37 19 61.5
t51 41.5zM537 223q14 7 25.5 16.5t11.5 26.5q0 11 -8 17t-21 6q-42 0 -42 -34q0 -15 11 -20.5zM514 161q-23 -8 -40 -23t-17 -41q0 -17 12 -25.5t29 -8.5q27 0 44 14t17 40q0 18 -15.5 28.5t-29.5 15.5zM233 559q29 -10 44.5 -30.5t15.5 -53.5q0 -63 -40 -99t-103 -36
q-48 0 -73.5 21t-36.5 66l64 27q10 -23 19 -34.5t36 -11.5q29 0 46 13.5t17 42.5q0 20 -13.5 30t-32.5 10h-48l11 52l70 69h-119l12 69h216l-8 -40q-5 -26 -22 -43z" />
    <glyph glyph-name="fiveeighths" unicode="&#x215d;" horiz-adv-x="651" 
d="M95 -12h-101l635 719h98zM461 190q-14 11 -19.5 27.5t-5.5 34.5q0 24 9.5 43t26 33t38 21.5t45.5 7.5q37 0 63 -22.5t26 -60.5q0 -29 -16 -47t-38 -31q20 -14 29.5 -29t9.5 -39q0 -29 -11 -53.5t-30 -42t-44.5 -27.5t-53.5 -10q-44 0 -71.5 23t-27.5 69q0 37 19 61.5
t51 41.5zM539 223q14 7 25.5 16.5t11.5 26.5q0 11 -8 17t-21 6q-42 0 -42 -34q0 -15 11 -20.5zM516 161q-23 -8 -40 -23t-17 -41q0 -17 12 -25.5t29 -8.5q27 0 44 14t17 40q0 18 -15.5 28.5t-29.5 15.5zM152 625l-7 -30q15 4 33 4q44 0 72.5 -25.5t28.5 -75.5
q0 -32 -10 -60.5t-28.5 -50t-45.5 -34.5t-61 -13q-77 0 -109 76l66 28q16 -36 52 -36q35 0 51 25t16 55q0 18 -10 30t-30 12q-29 0 -49 -23l-4 -3h-65l47 190h199l-33 -69h-113z" />
    <glyph glyph-name="seveneighths" unicode="&#x215e;" horiz-adv-x="651" 
d="M76 -12h-101l635 719h98zM466 190q-14 11 -19.5 27.5t-5.5 34.5q0 24 9.5 43t26 33t38 21.5t45.5 7.5q37 0 63 -22.5t26 -60.5q0 -29 -16 -47t-38 -31q20 -14 29.5 -29t9.5 -39q0 -29 -11 -53.5t-30 -42t-44.5 -27.5t-53.5 -10q-44 0 -71.5 23t-27.5 69q0 37 19 61.5
t51 41.5zM544 223q14 7 25.5 16.5t11.5 26.5q0 11 -8 17t-21 6q-42 0 -42 -34q0 -15 11 -20.5zM521 161q-23 -8 -40 -23t-17 -41q0 -17 12 -25.5t29 -8.5q27 0 44 14t17 40q0 18 -15.5 28.5t-29.5 15.5zM84 625l11 69h244l-6 -36q-4 -26 -27 -46q-61 -52 -100.5 -120
t-55.5 -146h-73q14 85 54.5 156.5t91.5 122.5h-139z" />
    <glyph glyph-name="arrowleft" unicode="&#x2190;" horiz-adv-x="672" 
d="M672 341v-80h-507l172 -178l-50 -55l-273 273l273 274l50 -50l-172 -184h507z" />
    <glyph glyph-name="arrowup" unicode="&#x2191;" horiz-adv-x="553" 
d="M237 556l-184 -172l-50 50l274 273l273 -273l-55 -50l-178 172v-507h-80v507z" />
    <glyph glyph-name="arrowright" unicode="&#x2192;" horiz-adv-x="672" 
d="M507 341l-172 184l50 50l273 -274l-273 -273l-50 55l172 178h-507v80h507z" />
    <glyph glyph-name="arrowdown" unicode="&#x2193;" horiz-adv-x="553" 
d="M237 707h80v-507l178 172l55 -50l-273 -273l-274 273l50 50l184 -172v507z" />
    <glyph glyph-name="uni2196" unicode="&#x2196;" horiz-adv-x="541" 
d="M91 476v-252h-70v387h383v-78h-248l359 -359l-57 -57z" />
    <glyph glyph-name="uni2198" unicode="&#x2198;" horiz-adv-x="541" 
d="M448 252v252h70v-387h-383v78h248l-359 359l57 57z" />
    <glyph glyph-name="uni21E0" unicode="&#x21e0;" horiz-adv-x="646" 
d="M190 358q15 0 25.5 -10.5t10.5 -25.5t-10.5 -25.5t-25.5 -10.5q-14 0 -24.5 10.5t-10.5 25.5t10.5 25.5t24.5 10.5zM206 517l40 -39l-156 -156l156 -156l-40 -39l-170 170q-10 10 -10 25q0 14 10 26zM610 358q15 0 25.5 -10.5t10.5 -25.5t-10.5 -25.5t-25.5 -10.5
q-14 0 -25 10.5t-11 25.5t11 25.5t25 10.5zM330 358q15 0 25.5 -10.5t10.5 -25.5t-10.5 -25.5t-25.5 -10.5q-14 0 -24.5 10.5t-10.5 25.5t10.5 25.5t24.5 10.5zM470 358q15 0 25.5 -10.5t10.5 -25.5t-10.5 -25.5t-25.5 -10.5q-14 0 -24.5 10.5t-10.5 25.5t10.5 25.5
t24.5 10.5z" />
    <glyph glyph-name="uni21E1" unicode="&#x21e1;" horiz-adv-x="392" 
d="M232 543q0 -15 -10.5 -25.5t-25.5 -10.5t-25.5 10.5t-10.5 25.5q0 14 10.5 24.5t25.5 10.5t25.5 -10.5t10.5 -24.5zM391 527l-39 -40l-156 156l-156 -156l-39 40l170 170q10 10 25 10q14 0 26 -10zM232 123q0 -15 -10.5 -25.5t-25.5 -10.5t-25.5 10.5t-10.5 25.5
q0 14 10.5 25t25.5 11t25.5 -11t10.5 -25zM232 403q0 -15 -10.5 -25.5t-25.5 -10.5t-25.5 10.5t-10.5 25.5q0 14 10.5 24.5t25.5 10.5t25.5 -10.5t10.5 -24.5zM232 263q0 -15 -10.5 -25.5t-25.5 -10.5t-25.5 10.5t-10.5 25.5q0 14 10.5 24.5t25.5 10.5t25.5 -10.5
t10.5 -24.5z" />
    <glyph glyph-name="uni21E2" unicode="&#x21e2;" horiz-adv-x="646" 
d="M456 358q14 0 24.5 -10.5t10.5 -25.5t-10.5 -25.5t-24.5 -10.5q-15 0 -25.5 10.5t-10.5 25.5t10.5 25.5t25.5 10.5zM610 348q10 -12 10 -26q0 -15 -10 -25l-170 -170l-40 39l156 156l-156 156l40 39zM36 358q14 0 25 -10.5t11 -25.5t-11 -25.5t-25 -10.5
q-15 0 -25.5 10.5t-10.5 25.5t10.5 25.5t25.5 10.5zM316 358q14 0 24.5 -10.5t10.5 -25.5t-10.5 -25.5t-24.5 -10.5q-15 0 -25.5 10.5t-10.5 25.5t10.5 25.5t25.5 10.5zM176 358q14 0 24.5 -10.5t10.5 -25.5t-10.5 -25.5t-24.5 -10.5q-15 0 -25.5 10.5t-10.5 25.5t10.5 25.5
t25.5 10.5z" />
    <glyph glyph-name="uni21E3" unicode="&#x21e3;" horiz-adv-x="392" 
d="M232 251q0 -14 -10.5 -24.5t-25.5 -10.5t-25.5 10.5t-10.5 24.5q0 15 10.5 25.5t25.5 10.5t25.5 -10.5t10.5 -25.5zM222 97q-12 -10 -26 -10q-15 0 -25 10l-170 170l39 40l156 -156l156 156l39 -40zM232 671q0 -14 -10.5 -25t-25.5 -11t-25.5 11t-10.5 25q0 15 10.5 25.5
t25.5 10.5t25.5 -10.5t10.5 -25.5zM232 391q0 -14 -10.5 -24.5t-25.5 -10.5t-25.5 10.5t-10.5 24.5q0 15 10.5 25.5t25.5 10.5t25.5 -10.5t10.5 -25.5zM232 531q0 -14 -10.5 -24.5t-25.5 -10.5t-25.5 10.5t-10.5 24.5q0 15 10.5 25.5t25.5 10.5t25.5 -10.5t10.5 -25.5z" />
    <glyph glyph-name="partialdiff" unicode="&#x2202;" horiz-adv-x="480" 
d="M312 463q-32 56 -78 106t-102 80l-13 7l48 57l8 -4q61 -35 113 -83t89.5 -107t58.5 -128t21 -147q0 -51 -13 -96t-40 -79.5t-68 -54.5t-97 -20q-57 0 -97.5 20t-66.5 54.5t-38.5 79.5t-12.5 96q0 48 14.5 90t42.5 73.5t68.5 50t91.5 18.5q16 0 36 -3.5t35 -9.5zM367 245
q0 28 -7.5 53.5t-23.5 45t-39.5 31t-54.5 11.5q-33 0 -57 -11t-39.5 -30.5t-23 -45.5t-7.5 -55q0 -32 5.5 -61t19.5 -51t38 -35t62 -13q37 0 61.5 13.5t39 36t20.5 51.5t6 60z" />
    <glyph glyph-name="Delta" unicode="&#x2206;" horiz-adv-x="646" 
d="M362 695l266 -605v-90h-610v90l263 605h81zM115 92q17 2 32.5 4t29.5 4h261l71 -10l-181 420l-16 64l-15 -64z" />
    <glyph glyph-name="minus" unicode="&#x2212;" horiz-adv-x="595" 
d="M61 365h473q2 -10 4 -25t2 -26q0 -8 -1.5 -23.5t-4.5 -26.5h-473q-3 11 -5 26t-2 24t2 24.5t5 26.5z" />
    <glyph glyph-name="radical" unicode="&#x221a;" horiz-adv-x="657" 
d="M257 28l7 48l184 694h203v-86h-137l-202 -775h-105l-92 297h-115v86h181l67 -216z" />
    <glyph glyph-name="infinity" unicode="&#x221e;" horiz-adv-x="617" 
d="M284 264q-25 -29 -54.5 -40.5t-64.5 -11.5q-30 0 -54 10t-41 27t-26 41t-9 52q0 58 34.5 94.5t95.5 36.5q35 0 63 -13t51 -36q26 36 63 52t79 16q67 0 109.5 -36t42.5 -115q0 -72 -38.5 -111.5t-113.5 -39.5q-45 0 -79.5 18t-57.5 56zM317 326q3 -14 15 -26t28 -21
t33 -14t31 -5q38 0 59 19.5t21 61.5q0 43 -22 62.5t-58 19.5q-45 0 -71 -29t-36 -68zM247 361q-17 17 -37 29.5t-45 12.5q-62 0 -62 -61q0 -27 16.5 -43.5t45.5 -16.5q17 0 30 7t23 18t17 25.5t12 28.5z" />
    <glyph glyph-name="integral" unicode="&#x222b;" horiz-adv-x="311" 
d="M230 -59v-12q0 -35 -11 -60t-30 -42t-44 -25t-53 -8q-18 0 -39.5 5t-39.5 8v84h51q8 0 18.5 1.5t19.5 7t15 15.5t6 28l-43 788q0 37 12.5 62t32 40t44 21t49.5 6q16 0 31 -3l49 -10v-84h-52q-25 0 -42 -11.5t-17 -40.5z" />
    <glyph glyph-name="approxequal" unicode="&#x2248;" horiz-adv-x="563" 
d="M518 232q-43 -40 -81 -61t-83 -21q-29 0 -57 10t-56 22t-56 22t-56 10q-20 0 -45 -11t-45 -28v73q35 30 70 46t73 16q29 0 57.5 -9t56 -20.5t55 -20.5t54.5 -9q26 0 57 15t56 40v-74zM518 446q-43 -40 -81 -61t-83 -21q-29 0 -57 10t-56 22t-56 22t-56 10q-20 0 -45 -11
t-45 -28v73q35 30 70 46t73 16q30 0 58.5 -9t56 -20.5t54.5 -20.5t54 -9q26 0 56.5 14.5t56.5 40.5v-74z" />
    <glyph glyph-name="notequal" unicode="&#x2260;" horiz-adv-x="489" 
d="M18 289h164l31 107h-195q-3 11 -4.5 26.5t-1.5 23.5t1.5 24t4.5 28h226l25 84h94l-24 -84h132q2 -10 4.5 -25.5t2.5 -26.5q0 -10 -2.5 -25.5t-4.5 -24.5h-162l-32 -107h194q4 -12 5.5 -27.5t1.5 -23.5q0 -10 -2.5 -25.5t-4.5 -24.5h-224l-26 -85h-94l25 85h-134
q-3 11 -4.5 26.5t-1.5 23.5q0 11 2 26t4 25z" />
    <glyph glyph-name="lessequal" unicode="&#x2264;" horiz-adv-x="509" 
d="M449 450l-292 -111l292 -114v-108l-432 183v79l432 180v-109zM449 91q2 -10 4.5 -25.5t2.5 -26.5q0 -10 -2.5 -25.5t-4.5 -24.5h-430q-4 11 -5.5 26t-1.5 24t1.5 25t5.5 27h430z" />
    <glyph glyph-name="greaterequal" unicode="&#x2265;" horiz-adv-x="509" 
d="M60 559l432 -180v-79l-432 -183v108l292 114l-292 111v109zM490 91q4 -11 5.5 -27t1.5 -25t-1.5 -24t-5.5 -26h-430q-2 9 -4.5 24.5t-2.5 25.5q0 11 2.5 26.5t4.5 25.5h430z" />
    <glyph glyph-name="lozenge" unicode="&#x25ca;" horiz-adv-x="468" 
d="M208 695h52l195 -349l-195 -346h-52l-195 346zM376 346l-142 263l-142 -263l142 -259z" />
    <glyph glyph-name="uni2605" unicode="&#x2605;" horiz-adv-x="574" 
d="M287 623l88 -171l190 -31l-136 -137l29 -190l-171 87l-172 -87l29 190l-135 137l190 31z" />
    <glyph glyph-name="uni2639" unicode="&#x2639;" horiz-adv-x="586" 
d="M293 596q54 0 101 -20.5t82.5 -55.5t56 -82.5t20.5 -101.5t-20.5 -101t-56 -82.5t-82.5 -56t-101 -20.5t-101.5 20.5t-82.5 56t-55.5 82.5t-20.5 101t20.5 101.5t55.5 82.5t82.5 55.5t101.5 20.5zM293 558q-46 0 -86.5 -17.5t-70.5 -47.5t-47.5 -70.5t-17.5 -86.5
t17.5 -86t47.5 -70t70.5 -47.5t86.5 -17.5t86 17.5t70 47.5t47.5 70t17.5 86t-17.5 86.5t-47.5 70.5t-70 47.5t-86 17.5zM144 205q19 42 58.5 68.5t90.5 26.5q48 0 88 -25.5t61 -69.5l-31 -14q-15 33 -46.5 54t-71.5 21t-71 -20.5t-48 -54.5zM393 453q14 0 24 -10.5
t10 -24.5t-10 -24t-24 -10t-24.5 10t-10.5 24t10.5 24.5t24.5 10.5zM193 453q14 0 24 -10.5t10 -24.5t-10 -24t-24 -10t-24.5 10t-10.5 24t10.5 24.5t24.5 10.5z" />
    <glyph glyph-name="smileface" unicode="&#x263a;" horiz-adv-x="586" 
d="M293 596q54 0 101.5 -20.5t82.5 -55.5t55.5 -82.5t20.5 -101.5t-20.5 -101t-55.5 -82.5t-82.5 -56t-101.5 -20.5t-101.5 20.5t-82.5 56t-55.5 82.5t-20.5 101t20.5 101.5t55.5 82.5t82.5 55.5t101.5 20.5zM293 558q-46 0 -86.5 -17.5t-70.5 -47.5t-47.5 -70.5
t-17.5 -86.5t17.5 -86t47.5 -70t70.5 -47.5t86.5 -17.5t86.5 17.5t70.5 47.5t47.5 70t17.5 86t-17.5 86.5t-47.5 70.5t-70.5 47.5t-86.5 17.5zM193 453q14 0 24 -10.5t10 -24.5t-10 -24t-24 -10t-24.5 10t-10.5 24t10.5 24.5t24.5 10.5zM393 453q14 0 24 -10.5t10 -24.5
t-10 -24t-24 -10t-24 10t-10 24t10 24.5t24 10.5zM442 267q-20 -43 -59.5 -69t-89.5 -26t-89.5 26t-59.5 69l31 14q15 -34 46.5 -54.5t71.5 -20.5q39 0 71 20.5t47 54.5z" />
    <glyph glyph-name="uni2709" unicode="&#x2709;" horiz-adv-x="1014" 
d="M451 371q26 -20 56 -20q32 0 56 20l293 237h-699zM637 355l265 -211v422zM591 314q-40 -28 -84 -28q-45 0 -85 28l-265 -212h699zM376 355l-265 211v-422zM55 665h903v-619h-903v619z" />
    <glyph glyph-name="uniE024" unicode="&#xe024;" horiz-adv-x="570" 
d="M335 516q42 0 78.5 -11t63.5 -32.5t42.5 -55t15.5 -78.5q0 -70 -16 -133.5t-51 -112t-91 -77t-136 -28.5q-99 0 -152.5 48.5t-53.5 149.5q0 69 18 129.5t55.5 105t93.5 70t133 25.5zM322 424q-54 0 -88.5 -21t-54.5 -54.5t-28 -76.5t-8 -86q0 -54 28.5 -80t82.5 -26
q51 0 84.5 21.5t53.5 55.5t28 76.5t8 83.5q0 107 -106 107z" />
    <glyph glyph-name="uniE025" unicode="&#xe025;" horiz-adv-x="400" 
d="M145 96l47 269l-85 -49l-44 89l167 99h95l-72 -408h111l-17 -96h-329l17 96h110z" />
    <glyph glyph-name="uniE026" unicode="&#xe026;" horiz-adv-x="536" 
d="M163 96h301l-17 -96h-425l12 71q8 45 38 73.5t70 48t84 34t81.5 32.5t61.5 43t24 65q0 18 -7 29.5t-18.5 17.5t-26 8t-29.5 2q-42 0 -75 -20t-57 -52l-6 -8l-82 46l7 11q41 60 96.5 87.5t130.5 27.5q32 0 62.5 -8t54.5 -24.5t39 -42t15 -61.5q0 -54 -20 -91t-51.5 -62.5
t-70 -42.5t-75.5 -30.5t-68.5 -26.5t-48.5 -31z" />
    <glyph glyph-name="uniE027" unicode="&#xe027;" horiz-adv-x="569" 
d="M356 233q69 -17 102 -58.5t33 -101.5q0 -62 -17.5 -113t-51.5 -88t-84.5 -57.5t-116.5 -20.5q-77 0 -127.5 35t-71.5 110l-3 10l105 43l3 -12q13 -45 38.5 -61.5t70.5 -16.5q79 0 112.5 41.5t33.5 112.5q0 43 -31.5 61.5t-100.5 18.5h-55l15 94l166 168h-241l18 106h388
l-12 -62q-7 -42 -40 -75z" />
    <glyph glyph-name="uniE028" unicode="&#xe028;" horiz-adv-x="546" 
d="M299 -11h-298l18 100l364 415h114l-73 -412h97l-50 -103h-65l-32 -183h-107zM317 92l42 234l-205 -234h163z" />
    <glyph glyph-name="uniE029" unicode="&#xe029;" horiz-adv-x="573" 
d="M250 398l-27 -111q45 14 88 14q40 0 74 -13t59 -36.5t39 -57t14 -75.5q0 -62 -16.5 -120t-50.5 -104t-85 -73.5t-121 -27.5q-84 0 -132.5 37.5t-68.5 117.5l104 43q12 -50 35.5 -70t76.5 -20q43 0 71.5 18t45.5 47t24.5 65t7.5 71q0 47 -22.5 68.5t-69.5 21.5
q-38 0 -66.5 -14t-54.5 -41h-96l91 366h379l-20 -106h-279z" />
    <glyph glyph-name="uniE02A" unicode="&#xe02a;" horiz-adv-x="545" 
d="M173 407q26 20 60.5 31t65.5 11q87 0 136 -42t49 -131q0 -60 -17.5 -112.5t-51.5 -91.5t-84 -61.5t-115 -22.5q-56 0 -91.5 16t-56 43t-28.5 64t-8 79q0 52 7 108.5t23 110.5t41.5 102.5t62.5 85.5t86 58.5t112 21.5q39 0 78.5 -12t68.5 -41l8 -8l-82 -83l-9 9
q-16 16 -37 21.5t-43 5.5q-35 0 -64 -12.5t-50.5 -34.5t-37 -51.5t-23.5 -63.5zM289 345q-35 0 -63 -12.5t-47 -34t-29 -50t-10 -61.5q0 -46 21.5 -68.5t69.5 -22.5q40 0 67.5 13t44.5 36t24.5 53t7.5 65q0 41 -22.5 61.5t-63.5 20.5z" />
    <glyph glyph-name="uniE02B" unicode="&#xe02b;" horiz-adv-x="540" 
d="M56 398l18 106h465l-11 -67q-9 -50 -51 -86q-124 -104 -208.5 -244t-112.5 -301h-112q15 85 44 166.5t70.5 156.5t95 142.5t116.5 126.5h-314z" />
    <glyph glyph-name="uniE02C" unicode="&#xe02c;" horiz-adv-x="535" 
d="M173 356q-32 21 -47 51t-15 68q0 46 18.5 83.5t49 64t71.5 40.5t86 14q33 0 63 -8t53 -24t37 -41.5t14 -59.5q0 -32 -8 -57.5t-23 -46.5t-36 -38.5t-46 -33.5q39 -23 61.5 -58.5t22.5 -82.5q0 -54 -21 -98t-56.5 -75.5t-83 -48.5t-99.5 -17q-39 0 -74 9t-61 28.5
t-41 49.5t-15 72q0 77 41 127t109 82zM304 411q16 8 32 20t29 27t21 32.5t8 36.5q0 14 -7 22.5t-17.5 13.5t-23.5 6.5t-25 1.5q-20 0 -38 -5t-32 -15t-22.5 -25t-8.5 -36q0 -16 7 -27.5t17.5 -20t24 -15t26.5 -12.5zM258 312q-24 -9 -46.5 -23.5t-40.5 -34t-29 -43
t-11 -50.5q0 -22 8.5 -35t22.5 -19.5t32 -8.5t36 -2q28 0 53 6.5t43.5 20.5t29 35.5t10.5 50.5q0 23 -10.5 39t-26 27.5t-34.5 20t-37 16.5z" />
    <glyph glyph-name="uniE02D" unicode="&#xe02d;" horiz-adv-x="550" 
d="M372 59q-27 -17 -59 -24.5t-64 -7.5q-88 0 -135 47.5t-47 135.5q0 57 19 112t54 98t85 69.5t112 26.5q47 0 81.5 -14.5t56.5 -40.5t32.5 -62.5t10.5 -79.5q0 -46 -6 -103t-20 -115.5t-38 -113.5t-60 -98t-86 -69t-116 -26q-45 0 -88 15.5t-73 50.5l-7 9l89 73l7 -8
q17 -18 38 -25t45 -7q34 0 62 13.5t49 35t35.5 50t22.5 58.5zM264 132q39 0 66.5 17t45 44.5t26 61.5t8.5 68q0 45 -19.5 67.5t-68.5 22.5q-38 0 -66 -17t-46.5 -43.5t-28 -59.5t-9.5 -66q0 -47 22 -71t70 -24z" />
    <glyph glyph-name="f_b" unicode="&#xe1a6;" horiz-adv-x="819" 
d="M415 586q-5 8 -15 12.5t-22 6.5t-24 2.5t-21 0.5q-11 0 -25.5 -3t-28 -9t-23 -15.5t-11.5 -22.5l-8 -54h101l-43 -90h-73l-85 -476q-5 -29 -18 -55t-33 -46t-48.5 -31.5t-64.5 -11.5q-17 0 -36 4.5t-35 7.5l16 86h39q25 0 45.5 12t25.5 38l84 472h-63l15 90h63l11 57
q5 36 23.5 63.5t46.5 46t63.5 27.5t74.5 9q27 0 58.5 -6t58 -19.5t44.5 -36t18 -54.5l-25 -140q31 26 65 40.5t75 14.5q39 0 71 -13.5t55 -37.5t35.5 -56.5t12.5 -70.5q0 -76 -18.5 -138.5t-56.5 -107.5t-96 -69.5t-136 -24.5q-51 0 -97 10t-94 31zM473 304l-35 -205
q19 -8 41 -11t42 -3q52 0 88.5 19t59.5 51t33.5 74.5t10.5 90.5q0 40 -22 64.5t-64 24.5q-53 0 -93 -28.5t-61 -76.5z" />
    <glyph glyph-name="f_h" unicode="&#xe1a7;" horiz-adv-x="820" 
d="M405 586q-5 8 -15 12.5t-21 6.5t-22.5 2.5t-20.5 0.5q-12 0 -26.5 -3t-28 -9t-23.5 -15.5t-12 -22.5l-9 -53h101l-43 -90h-73l-85 -475q-6 -31 -22 -57.5t-38.5 -46t-49.5 -30.5t-54 -11q-16 0 -35.5 4.5t-34.5 8.5l15 85h39q23 0 45 12.5t27 38.5l84 471h-63l15 90h63
l9 57q6 36 25 63t48 45.5t64.5 27.5t74.5 9q27 0 58 -6t57.5 -19.5t44 -36t17.5 -54.5l-24 -130q30 23 64.5 33t72.5 10q75 0 119.5 -43t44.5 -118q0 -22 -3 -41l-53 -302h-110l57 317q1 6 1.5 12t0.5 11q0 38 -22 52.5t-51 14.5q-105 0 -148 -98l-54 -309h-110z" />
    <glyph glyph-name="f_j" unicode="&#xe1f8;" horiz-adv-x="527" 
d="M129 504l10 58q6 36 24 63t45 45.5t61.5 27.5t74.5 9q19 0 50.5 -3.5t60.5 -12.5t50.5 -26t21.5 -44q0 -13 -5.5 -25.5t-15 -22t-22 -15.5t-25.5 -6q-20 0 -31 9t-22.5 19.5t-28 19.5t-46.5 9q-12 0 -26 -3t-26 -9.5t-20.5 -16t-10.5 -22.5l-10 -54h92l-43 -90h-64
l-86 -476q-5 -29 -17.5 -55t-33 -46t-49 -31.5t-65.5 -11.5q-16 0 -35.5 4t-34.5 8l15 86h39q25 0 46 12t26 38l86 472h-63l15 90h63zM402 -62q-5 -29 -17 -55.5t-32.5 -46t-49 -31t-66.5 -11.5q-17 0 -39 3t-37 9l16 86h53q53 0 62 50l101 562h110z" />
    <glyph glyph-name="f_f_j" unicode="&#xe1f9;" horiz-adv-x="824" 
d="M248 504h184l10 58q6 36 25.5 63t48.5 45.5t65 27.5t76 9q19 0 48.5 -3.5t57.5 -12.5t47.5 -26t19.5 -44q0 -13 -5.5 -25.5t-15 -22t-22 -15.5t-25.5 -6q-20 0 -29.5 9t-19 19.5t-24.5 19.5t-45 9q-12 0 -27.5 -3t-29 -9.5t-24 -16t-12.5 -22.5l-10 -54h92l-43 -90h-64
l-86 -476q-5 -29 -17.5 -55t-33 -46t-49 -31.5t-65.5 -11.5q-16 0 -35.5 4t-34.5 8l15 86h39q25 0 46 12t26 38l86 472h-185l-84 -475q-13 -71 -58.5 -108t-106.5 -37q-17 0 -40.5 4.5t-40.5 7.5l15 86h50q25 0 46 12.5t26 38.5l83 471h-70l17 90h70l9 59q4 28 16.5 54.5
t33 46t49 31.5t65.5 12q21 0 41.5 -3t40.5 -8l-15 -87h-61q-25 0 -41 -13t-20 -37zM715 -62q-5 -29 -17 -55.5t-32.5 -46t-49 -31t-66.5 -11.5q-17 0 -39 3t-37 9l16 86h53q53 0 62 50l101 562h110z" />
    <glyph glyph-name="uniE37F" unicode="&#xe37f;" horiz-adv-x="994" 
d="M287 331q-5 -17 -18 -24.5t-30 -7.5q-49 0 -49 50v30q0 23 14.5 36t34.5 13q17 0 30 -7.5t18 -24.5l-27 -10q-2 8 -7.5 12t-13.5 4q-10 0 -15.5 -6t-5.5 -15v-34q0 -10 6 -16t15 -6q8 0 13.5 4t7.5 12zM147 300v60h-4l-20 -43h-16l-19 43h-4v-60h-29v128h26l34 -76l33 76
h27v-128h-28zM853 390h-4l-14 -40h32zM886 300l-10 26h-50l-10 -26h-26l50 128h22l49 -128h-25zM744 428q19 0 33.5 -10.5t14.5 -30.5v-44q0 -22 -16 -32.5t-35 -10.5h-47v128h50zM722 325h18q14 0 19.5 7.5t5.5 19.5v24q0 26 -25 26h-18v-77zM589 300v128h90v-26h-62v-26
h30l9 -24h-39v-27h62v-25h-90zM544 389q0 13 -16 13h-24v-28h23q7 0 12 3.5t5 11.5zM542 300l-20 49h-18v-49h-29v128h57q17 0 29 -11t12 -28q0 -12 -6.5 -21t-16.5 -14l24 -54h-32zM461 428v-26h-63v-26h31l9 -24h-40v-27h63v-25h-91v52h-42v-52h-28v128h28v-52h42v52h91z
M923 300l-12 31h31l12 -31h-31z" />
    <glyph glyph-name="information" unicode="&#xe389;" horiz-adv-x="776" 
d="M388 695q73 0 138 -27.5t113 -75t76 -112t28 -137.5q0 -74 -28 -138.5t-76 -112.5t-113 -76t-138 -28q-74 0 -138.5 28t-112.5 76t-76 112.5t-28 138.5q0 73 28 137.5t76 112t112.5 75t138.5 27.5zM388 635q-61 0 -115 -22.5t-94 -62t-63 -93t-23 -114.5t23 -115t63 -94
t94 -63t115 -23t115 23t94 63t63 94t23 115t-23 114.5t-63 93t-94 62t-115 22.5zM343 352h-51v66h148v-324h-97v258zM388 598q27 0 46 -19t19 -46t-19 -45.5t-46 -18.5t-46 18.5t-19 45.5t19 46t46 19z" />
    <glyph glyph-name="T_h" unicode="&#xe40c;" horiz-adv-x="966" 
d="M619 308l-54 -308h-109l104 590h-189l-104 -590h-113l104 590h-232l18 105h644l-42 -234q29 23 64.5 33t72.5 10q36 0 66.5 -11.5t52 -33t34 -51t12.5 -65.5q0 -22 -3 -41l-54 -302h-109l56 317q2 5 2 11.5v11.5q0 30 -20.5 48.5t-52.5 18.5q-49 0 -90 -26t-58 -73z" />
    <glyph glyph-name="H_alternate" unicode="&#xe40d;" horiz-adv-x="750" 
d="M221 410q16 8 34.5 9.5t35.5 1.5h263l48 274h114l-123 -695h-114l56 315h-266q-35 0 -53.5 -19t-24.5 -52l-43 -244h-113l123 695h113z" />
    <glyph glyph-name="A_alternate" unicode="&#xe40e;" horiz-adv-x="705" 
d="M516 199h-189q-38 0 -72 -14.5t-53 -49.5l-73 -135h-123l387 695h137l144 -695h-117zM496 297l-47 231v70l-33 -74l-127 -232q6 3 15.5 4t16.5 1h175z" />
    <glyph glyph-name="B_alternate" unicode="&#xe40f;" horiz-adv-x="671" 
d="M540 373q37 -21 57.5 -55.5t20.5 -77.5q0 -61 -22 -106t-59.5 -75t-88.5 -44.5t-108 -14.5h-308l123 695h289q37 0 70.5 -8t59.5 -25.5t41.5 -46t15.5 -70.5q0 -57 -23 -98t-68 -74zM217 403q16 8 35 9.5t36 1.5h90q26 0 51.5 7t45.5 21t32 35.5t12 51.5q0 18 -8.5 29.5
t-21 18.5t-28 10t-29.5 3h-182zM266 310q-35 0 -53 -19t-24 -52l-24 -134h194q68 0 105.5 28.5t37.5 98.5q0 22 -9 37t-23.5 24t-33 13t-37.5 4h-133z" />
    <glyph glyph-name="F_alternate" unicode="&#xe410;" horiz-adv-x="655" 
d="M219 410q16 8 35.5 9.5t36.5 1.5h260l-19 -105h-266q-35 0 -53 -19t-24 -52l-43 -245h-113l123 695h499l-53 -105h-352z" />
    <glyph glyph-name="P_alternate" unicode="&#xe411;" horiz-adv-x="672" 
d="M209 344q16 8 35.5 9.5t36.5 1.5h135q33 0 59 12t45 33t29 49t10 60q0 34 -19 57.5t-67 23.5h-223zM256 250q-35 0 -53 -19t-24 -52l-32 -179h-114l122 695h325q49 0 84.5 -13.5t58 -37t33.5 -55.5t11 -69q0 -56 -18.5 -105.5t-52.5 -86t-80.5 -57.5t-103.5 -21h-156z
" />
    <glyph glyph-name="R_alternate" unicode="&#xe412;" horiz-adv-x="699" 
d="M211 377q16 8 36.5 9.5t37.5 1.5h125q69 0 103.5 30t34.5 98q0 41 -26 57.5t-62 16.5h-212zM261 284q-35 0 -53 -19t-24 -52l-37 -213h-114l119 695h326q39 0 72 -11t58 -32t39 -52.5t14 -73.5q0 -102 -59 -165t-162 -74l100 -175q10 -18 20 -22t31 -4h13l-13 -86
q-14 -7 -27.5 -9.5t-28.5 -2.5q-33 0 -56 21t-38 47l-121 208q-7 12 -20.5 16t-26.5 4h-12z" />
    <glyph glyph-name="E_alternate" unicode="&#xe413;" horiz-adv-x="708" 
d="M267 316q-35 0 -53 -19t-24 -52l-25 -140h407l-18 -105h-520l122 695h528l-51 -105h-382l-32 -180q16 8 35.5 9.5t36.5 1.5h274l-19 -105h-279z" />
    <glyph glyph-name="afii10018_alternate" unicode="&#xe414;" horiz-adv-x="669" 
d="M263 305q-35 0 -53.5 -19t-23.5 -52l-22 -129h183q36 0 65.5 6.5t50.5 22t32.5 40.5t11.5 61q0 26 -11.5 40.5t-29.5 21t-38.5 7.5t-38.5 1h-126zM215 399q16 8 36.5 9.5t37.5 1.5h115q42 0 80.5 -6t68 -23.5t47 -47.5t17.5 -78q0 -64 -21 -112t-59 -79.5t-91 -47.5
t-116 -16h-298l123 695h480l-53 -105h-332z" />
    <glyph glyph-name="afii10044_alternate" unicode="&#xe415;" horiz-adv-x="677" 
d="M322 304q-35 0 -53 -19t-24 -52l-23 -129h190q68 0 104 31t36 99q0 23 -8 37t-21.5 21.5t-30.5 9.5t-36 2h-134zM274 399q16 8 36.5 9.5t37.5 1.5h127q39 0 74 -8t61 -26t41 -48t15 -75q0 -59 -19 -106t-53.5 -79.5t-83 -50t-107.5 -17.5h-313l104 590h-139l-14 105h285z
" />
    <glyph glyph-name="afii10045_alternate" unicode="&#xe416;" horiz-adv-x="921" 
d="M868 695l-122 -695h-90l122 695h90zM880 695l-102 -695h-134l123 695h113zM270 296q-35 0 -54 -19t-25 -52l-21 -121h195q73 0 105 28t32 99q0 22 -8 35t-21.5 20t-30.5 8.5t-35 1.5h-137zM221 387q16 8 36.5 11t37.5 3h131q39 0 73.5 -7.5t61 -25.5t41.5 -47.5t15 -73.5
q0 -125 -68.5 -186t-194.5 -61h-316l123 695h113z" />
    <glyph glyph-name="afii10046_alternate" unicode="&#xe417;" horiz-adv-x="620" 
d="M264 296q-35 0 -54 -19t-25 -52l-21 -121h195q73 0 105 28t32 99q0 22 -8 35t-21.5 20t-30.5 8.5t-35 1.5h-137zM214 387q16 8 37 11t38 3h131q39 0 73.5 -7.5t61 -25.5t41.5 -47.5t15 -73.5q0 -125 -68.5 -186t-194.5 -61h-316l123 695h113z" />
    <glyph glyph-name="afii10049_alternate" unicode="&#xe418;" horiz-adv-x="760" 
d="M525 212q0 33 -20.5 52t-55.5 19q-19 0 -35 -6t-26 -17l-178 -206q-22 -25 -50.5 -45.5t-63.5 -20.5q-10 0 -26 1.5t-43 10.5l14 84h9q23 0 38 5.5t30 22.5l147 174q-68 8 -104.5 52t-36.5 116q0 59 18.5 104t52 75.5t81 46t105.5 15.5h345l-122 -695h-116zM483 388
q17 0 36 -1.5t35 -9.5l38 213h-216q-65 0 -101 -27t-36 -93q0 -24 8 -39.5t21 -25t30.5 -13.5t37.5 -4h147z" />
    <glyph glyph-name="P_ruble" unicode="&#xe41a;" horiz-adv-x="736" 
d="M69 377h90l56 318h325q49 0 84.5 -13.5t58 -37t33.5 -55.5t11 -69q0 -56 -18 -102t-51 -79t-79.5 -51t-103.5 -18h-221l-11 -61h181l-20 -106h-179l-18 -103h-114l18 103h-87l19 106h86l11 61h-90zM310 590l-37 -213h206q66 0 103 34t37 98q0 34 -19 57.5t-67 23.5h-223z
" />
    <glyph glyph-name="b_alternate" unicode="&#xe41b;" horiz-adv-x="541" 
d="M180 319l-41 -238q21 -11 46 -15t50 -4q57 0 96.5 22t64 58.5t35.5 85.5t11 103q0 45 -26 73t-71 28q-55 0 -98.5 -30t-66.5 -83zM119 532q2 14 3.5 27.5t1.5 27.5q0 19 -2.5 37.5t-7.5 35.5l108 47q14 -48 14 -98q0 -18 -2.5 -37.5t-5.5 -39.5l-14 -81q31 26 65 40.5
t75 14.5q39 0 71 -13.5t55 -37.5t35.5 -56.5t12.5 -70.5q0 -76 -18.5 -138.5t-56.5 -107.5t-96 -69.5t-136 -24.5q-51 0 -97 10t-94 31z" />
    <glyph glyph-name="d_alternate" unicode="&#xe41c;" horiz-adv-x="570" 
d="M351 159l45 253q-20 6 -40 8.5t-40 2.5q-52 0 -90 -17.5t-63 -48t-37 -72.5t-12 -91q0 -21 4 -40.5t14 -35t27 -24.5t43 -9q19 0 40 7t40.5 17.5t37 23.5t31.5 26zM418 532q3 14 4 27.5t1 27.5q0 19 -2.5 37.5t-7.5 35.5l107 47q14 -48 14 -98q0 -18 -2.5 -37.5
t-5.5 -39.5l-72 -407q-3 -20 -3 -37q0 -39 16 -88h-114q-8 15 -10 25.5t-2 21.5q-34 -25 -72 -42t-80 -17q-50 0 -84.5 15.5t-55.5 42.5t-30.5 62.5t-9.5 74.5q0 75 21.5 137t62 106.5t100 69t134.5 24.5q23 0 44 -4t43 -10l1 12z" />
    <glyph glyph-name="h_alternate" unicode="&#xe41d;" horiz-adv-x="537" 
d="M122 532q2 14 3.5 27.5t1.5 27.5q0 19 -2.5 37.5t-7.5 35.5l108 47q14 -48 14 -98q0 -18 -3 -37.5t-6 -39.5l-12 -71q29 23 64.5 33t72.5 10q36 0 66.5 -11.5t52 -33t34 -51t12.5 -65.5q0 -22 -3 -41l-54 -302h-109l56 317q2 5 2 11.5v11.5q0 30 -20.5 48.5t-52.5 18.5
q-49 0 -90 -26t-58 -73l-54 -308h-109z" />
    <glyph glyph-name="k_alternate" unicode="&#xe41e;" horiz-adv-x="517" 
d="M120 532q2 14 3.5 27.5t1.5 27.5q0 19 -2.5 37.5t-7.5 35.5l108 47q14 -48 14 -98q0 -18 -2.5 -37.5t-5.5 -39.5l-41 -232h24l182 204h118l-214 -246l94 -153q8 -12 21.5 -16.5t27.5 -4.5h13l-13 -84q-14 -7 -24.5 -9.5t-26.5 -2.5t-29 6.5t-23.5 16t-19.5 21.5t-16 24
l-103 164h-25l-37 -220h-109z" />
    <glyph glyph-name="l_alternate" unicode="&#xe41f;" horiz-adv-x="260" 
d="M88 532q2 14 3.5 27.5t1.5 27.5q0 19 -2.5 37.5t-7.5 35.5l108 47q14 -48 14 -98q0 -18 -2.5 -37.5t-5.5 -39.5l-70 -400q-1 -4 -1 -7.5v-6.5q0 -33 42 -33h64l-15 -84q-20 -6 -40.5 -9.5t-40.5 -3.5q-63 0 -92 33t-29 84q0 7 0.5 16t2.5 16z" />
    <glyph glyph-name="t_alternate" unicode="&#xe420;" horiz-adv-x="311" 
d="M306 504l-43 -90h-68l-51 -283q-1 -4 -1 -8v-7q0 -31 41 -31h50l-15 -85q-17 -4 -33.5 -8t-33.5 -4q-31 0 -53.5 9.5t-37.5 25.5t-22 38t-7 47q0 13 3 27l50 279h-57l15 90h57q5 18 5 35q0 13 -2.5 25.5t-6.5 24.5l105 47q7 -17 11.5 -36t4.5 -39t-2.5 -31.5t-4.5 -25.5
h96z" />
    <glyph glyph-name="afii10094_alternate" unicode="&#xe421;" horiz-adv-x="492" 
d="M90 341q2 14 3.5 27.5t1.5 27.5q0 19 -2.5 37.5t-7.5 35.5l108 47q14 -48 14 -98q0 -18 -2 -37.5t-6 -39.5l-7 -39q58 18 120 18q33 0 64 -8t55 -25.5t38 -44t14 -62.5q0 -54 -22 -90.5t-58.5 -59t-83.5 -32.5t-96 -10q-48 0 -92.5 8.5t-88.5 28.5l-8 3zM175 206
l-18 -107q19 -8 39.5 -11t40.5 -3q24 0 48.5 4t44 13t32 24.5t12.5 38.5q0 16 -7.5 27t-19 18t-25.5 10t-28 3q-28 0 -60.5 -3t-58.5 -14z" />
    <glyph glyph-name="afii10093_alternate" unicode="&#xe422;" horiz-adv-x="737" 
d="M96 341q2 14 3.5 27.5t1.5 27.5q0 19 -2.5 37.5t-7.5 35.5l108 47q14 -48 14 -98q0 -18 -2 -37.5t-6 -39.5l-7 -39q58 18 120 18q33 0 64 -8t55 -25.5t38 -44t14 -62.5q0 -54 -22 -90.5t-58.5 -59t-83.5 -32.5t-96 -10q-48 0 -92.5 8.5t-88.5 28.5l-8 3zM701 516
l-89 -488l-110 -25l84 482zM181 206l-18 -107q19 -8 39.5 -11t40.5 -3q24 0 48.5 4t44 13t32 24.5t12.5 38.5q0 16 -7.5 27t-19 18t-25.5 10t-28 3q-28 0 -60.5 -3t-58.5 -14z" />
    <glyph glyph-name="f_r" unicode="&#xe423;" horiz-adv-x="691" 
d="M482 504q5 -10 6.5 -20t3.5 -21q22 25 51 39t62 14q43 0 95 -29l-55 -101q-19 11 -32.5 16t-26.5 5q-29 0 -50 -17t-35.5 -41.5t-23 -53t-12.5 -51.5l-43 -244h-109l65 370q2 11 3 22t1 22h-150l-84 -475q-13 -71 -58.5 -108t-106.5 -37q-17 0 -40.5 4.5t-40.5 7.5l15 86
h50q25 0 46 12.5t26 38.5l83 471h-70l17 90h70l9 59q4 28 16.5 54.5t33 46t49 31.5t65.5 12q21 0 41.5 -3t40.5 -8l-15 -87h-61q-25 0 -41 -13t-20 -37l-9 -55h234z" />
    <glyph glyph-name="i_t" unicode="&#xe424;" horiz-adv-x="544" 
d="M316 414h-127l-73 -414h-109l89 504h235l19 101l116 31l-25 -132h96l-43 -90h-68l-51 -283q-1 -4 -1 -8v-7q0 -31 41 -31h50l-15 -85q-17 -4 -33.5 -8t-33.5 -4q-31 0 -53.5 9.5t-37.5 25.5t-22 38t-7 47q0 13 3 27zM167 707q24 0 42 -17t18 -41q0 -25 -17.5 -42
t-42.5 -17t-42.5 17t-17.5 42q0 24 18 41t42 17z" />
    <glyph glyph-name="i_f" unicode="&#xe425;" horiz-adv-x="532" 
d="M459 504h113l-45 -90h-84l-84 -475q-13 -71 -58.5 -108t-106.5 -37q-17 0 -40.5 4.5t-40.5 7.5l15 86h50q25 0 46 12.5t26 38.5l83 471h-144l-73 -414h-109l89 504h254l9 59q4 28 16.5 54.5t33 46t49 31.5t65.5 12q21 0 41.5 -3.5t40.5 -8.5l-15 -86h-61q-25 0 -41 -13
t-20 -37zM177 707q24 0 42 -17t18 -41q0 -25 -17.5 -42t-42.5 -17t-42.5 17t-17.5 42q0 24 18 41t42 17z" />
    <glyph glyph-name="t_i" unicode="&#xe426;" horiz-adv-x="554" 
d="M311 0l73 414h-195l-51 -283q-1 -4 -1 -8v-7q0 -31 41 -31h50l-15 -85q-17 -4 -33.5 -8t-33.5 -4q-31 0 -53.5 9.5t-37.5 25.5t-22 38t-7 47q0 13 3 27l50 279h-57l15 90h57l19 101l116 31l-25 -132h305l-89 -504h-109zM481 707q24 0 42 -17t18 -41q0 -25 -17.5 -42
t-42.5 -17t-42.5 17t-17.5 42q0 24 18 41t42 17z" />
    <glyph glyph-name="w_w_w" unicode="&#xe427;" horiz-adv-x="1933" 
d="M1647 163l170 353l94 -32l-231 -484h-109l-47 252l-135 -252h-110l-39 305l-146 -305h-109l-47 252l-135 -252h-110l-40 307l-146 -307h-109l-47 252l-135 -252h-110l-62 485l104 31l46 -353l141 271h92l47 -271l170 353h91l46 -353l141 271h92l47 -271l170 353h90
l46 -353l141 271h92z" />
    <glyph glyph-name="l_l" unicode="&#xe428;" horiz-adv-x="510" 
d="M112 678l114 30l-101 -576q-1 -4 -1 -7.5v-6.5q0 -33 42 -33h92q-1 5 -1 10v10q0 7 0.5 16t2.5 16l96 541l114 30l-101 -576q-1 -4 -1 -7.5v-6.5q0 -33 42 -33h64l-15 -84q-20 -6 -40.5 -9.5t-40.5 -3.5q-19 0 -34 3.5t-28 8.5q-59 -7 -101.5 -9.5t-80.5 -2.5
q-63 0 -92 33t-29 84q0 7 0.5 16t2.5 16z" />
    <glyph glyph-name="m_m" unicode="&#xe429;" horiz-adv-x="1438" 
d="M203 476q29 22 62 37t66 15q41 0 78 -14t60 -49q35 28 76.5 45.5t86.5 17.5q43 0 78 -15.5t56 -45.5q19 17 41.5 28.5t44.5 19t42.5 10.5t35.5 3q41 0 78 -14t60 -49q35 28 76.5 45.5t86.5 17.5q34 0 63.5 -10t51.5 -29t34 -47.5t12 -64.5q0 -11 -1 -21t-3 -21l-59 -335
h-109l60 340q2 8 2 14.5v13.5q0 29 -16 46t-54 17q-30 0 -60.5 -12.5t-53.5 -32.5l-68 -386h-109l64 362q2 10 2 15q0 16 -7 26.5t-17.5 16.5t-23 8.5t-24.5 2.5q-32 0 -62.5 -12t-54.5 -33l-68 -386h-109l60 340q2 8 2 14.5v13.5q0 29 -16 46t-54 17q-30 0 -60.5 -12.5
t-53.5 -32.5l-68 -386h-109l64 362q2 10 2 15q0 16 -7 26.5t-17.5 16.5t-23 8.5t-24.5 2.5q-32 0 -62.5 -12t-54.5 -33l-68 -386h-109l68 382q2 10 2.5 18t1.5 16v3q0 16 -3.5 31t-9.5 32l107 46q6 -14 9.5 -26t5.5 -26z" />
    <glyph glyph-name="H_E" unicode="&#xe42a;" horiz-adv-x="1123" 
d="M221 410q16 8 34.5 9.5t35.5 1.5h252l48 274h508l-51 -105h-361l-30 -169h323l-19 -105h-322l-38 -211h386l-18 -105h-500l55 315h-255q-35 0 -53.5 -19t-24.5 -52l-43 -244h-113l123 695h113z" />
    <glyph glyph-name="n_m" unicode="&#xe42c;" horiz-adv-x="1163" 
d="M197 374l-65 -374h-110l66 370q2 12 3 22t1 19q0 14 -2.5 27.5t-9.5 31.5l106 46q6 -14 10 -25t6 -27q29 23 64 37.5t73 14.5q44 0 79.5 -16.5t58.5 -45.5q55 40 101.5 51t76.5 11q41 0 78 -14t60 -49q35 28 76.5 45.5t86.5 17.5q34 0 63.5 -10t51.5 -29t34 -47.5
t12 -64.5q-1 -11 -1.5 -21t-2.5 -21l-58 -323h-109l59 328q2 8 2 14.5v13.5q0 29 -16 46t-54 17q-30 0 -60.5 -12.5t-53.5 -32.5l-67 -374h-109l63 350q2 10 2 15q0 16 -7 26.5t-17.5 16.5t-23 8.5t-24.5 2.5q-32 0 -62.5 -12t-54.5 -33l-66 -374h-110l57 318q1 5 1.5 11
t0.5 11q0 37 -23 58t-59 21q-35 0 -67.5 -12.5t-59.5 -32.5z" />
    <glyph glyph-name="afii10104_afii10104" unicode="&#xe42d;" horiz-adv-x="551" 
d="M228 0l89 504h109l-89 -504h-109zM7 0l89 504h109l-89 -504h-109zM98 707q24 0 42 -17t18 -41q0 -25 -17.5 -42t-42.5 -17t-42.5 17t-17.5 42q0 24 18 41t42 17zM478 707q24 0 42 -17t18 -41q0 -25 -17.5 -42t-42.5 -17t-42.5 17t-17.5 42q0 24 18 41t42 17zM300 707
q24 0 42 -17t18 -41q0 -25 -17.5 -42t-42.5 -17t-42.5 17t-17.5 42q0 24 18 41t42 17z" />
    <glyph glyph-name="i_alternate" unicode="&#xe42e;" horiz-adv-x="247" 
d="M67 341q2 14 3.5 27.5t1.5 27.5q0 19 -2.5 37.5t-7.5 35.5l108 47q14 -48 14 -98q0 -18 -2.5 -37.5t-5.5 -39.5l-60 -341h-109zM174 707q24 0 42 -17t18 -41q0 -25 -17.5 -42t-42.5 -17t-42.5 17t-17.5 42q0 24 18 41t42 17z" />
    <glyph glyph-name="_ordinal" unicode="&#xe42f;" horiz-adv-x="498" 
d="M183 447q-36 8 -53 35t-17 65q0 33 12 58t33 42.5t48.5 26t59.5 8.5h188l-66 -373h-81l23 129h-44q-15 0 -25 -11l-65 -77q-18 -21 -41 -35.5t-49 -14.5q-12 0 -23 2t-22 7l11 63h8q33 0 54 20zM361 613h-97q-30 0 -50 -13.5t-20 -44.5q0 -21 9.5 -34.5t29.5 -13.5h109z
M30 249q-3 -8 -4.5 -24t-1.5 -21q0 -7 1.5 -23t4.5 -24h388q3 8 4.5 24t1.5 23q0 5 -1.5 21t-4.5 24h-388z" />
    <glyph glyph-name="_ordinal" unicode="&#xe430;" horiz-adv-x="874" 
d="M556 447q-36 8 -53 35t-17 65q0 33 12 58t33 42.5t48.5 26t59.5 8.5h188l-66 -373h-81l23 129h-44q-15 0 -25 -11l-65 -77q-18 -21 -41 -35.5t-49 -14.5q-12 0 -23 2t-22 7l11 63h8q33 0 54 20zM734 613h-97q-30 0 -50 -13.5t-20 -44.5q0 -21 9.5 -34.5t29.5 -13.5h109z
M48 249q-3 -8 -4.5 -24t-1.5 -21q0 -7 1.5 -23t4.5 -24h746q3 8 4.5 24t1.5 23q0 5 -1.5 21t-4.5 24h-746zM303 343q-23 -17 -48 -30t-55 -13q-63 0 -96.5 37t-33.5 100q0 119 59 186.5t177 67.5q37 0 65.5 -7.5t61.5 -22.5l-47 -266q-1 -7 -1.5 -13.5t-0.5 -13.5
q0 -12 3 -24t7 -23l4 -12h-85q-10 19 -10 34zM312 427l32 183q-14 6 -26.5 7.5t-26.5 1.5q-39 0 -66.5 -14t-45 -38t-25 -55.5t-7.5 -67.5q0 -32 13.5 -52t48.5 -20q28 0 55.5 17.5t47.5 37.5z" />
    <glyph glyph-name="e_ordinal" unicode="&#xe431;" horiz-adv-x="475" 
d="M142 442q0 -42 25.5 -56t62.5 -14q58 0 97 39l3 5l68 -31l-7 -8q-31 -40 -75.5 -58.5t-94.5 -18.5q-73 0 -115.5 33t-42.5 108q0 51 14.5 96t43 79.5t71 54.5t98.5 20q28 0 53 -6t44.5 -19.5t31 -35t11.5 -52.5q0 -36 -14.5 -59.5t-39 -38t-57 -21t-69.5 -9.5zM152 515
l106 6q16 1 32.5 3.5t30 9t22.5 17.5t9 29q0 13 -7.5 21t-18.5 12t-23.5 5t-22.5 1q-51 0 -84 -29.5t-44 -74.5zM35 249q-3 -8 -4.5 -24t-1.5 -21q0 -7 1.5 -23t4.5 -24h378q3 8 4.5 24t1.5 23q0 5 -1.5 21t-4.5 24h-378z" />
    <glyph glyph-name="o_e_ordinal" unicode="&#xe432;" horiz-adv-x="878" 
d="M219 300q-33 0 -61 8.5t-48.5 25.5t-32.5 42.5t-12 59.5q0 51 13.5 97t41.5 81t70 56t98 21q33 0 61.5 -9.5t49.5 -27.5t33 -44.5t12 -60.5q0 -50 -15.5 -95t-44.5 -79t-70.5 -54.5t-94.5 -20.5zM371 543q0 42 -26 59t-66 17q-37 0 -63.5 -14.5t-44 -38t-25.5 -54
t-8 -62.5q0 -45 23 -61.5t68 -16.5q36 0 63 14.5t44.5 38.5t26 55t8.5 63zM542 442q0 -42 25.5 -56t62.5 -14q58 0 97 39l3 5l68 -31l-7 -8q-31 -40 -75.5 -58.5t-94.5 -18.5q-73 0 -115.5 33t-42.5 108q0 51 14.5 96t43 79.5t71 54.5t98.5 20q28 0 53 -6t44.5 -19.5t31 -35
t11.5 -52.5q0 -36 -14.5 -59.5t-39 -38t-57 -21t-69.5 -9.5zM552 515l106 6q16 1 32.5 3.5t30 9t22.5 17.5t9 29q0 13 -7.5 21t-18.5 12t-23.5 5t-22.5 1q-51 0 -84 -29.5t-44 -74.5zM49 249q-3 -8 -4.5 -24t-1.5 -21q0 -7 1.5 -23t4.5 -24h750q3 8 4.5 24t1.5 23
q0 5 -1.5 21t-4.5 24h-750z" />
    <glyph glyph-name="oe_ordinal" unicode="&#xe433;" horiz-adv-x="786" 
d="M449 442q0 -42 25.5 -56t62.5 -14q57 0 96 39l4 5l67 -31l-7 -8q-31 -40 -75 -58.5t-95 -18.5q-52 0 -88.5 16.5t-54.5 51.5q-29 -32 -68.5 -50t-90.5 -18q-33 0 -61 8.5t-48.5 25.5t-32.5 42.5t-12 59.5q0 51 13.5 97t41.5 81t70 56t98 21q46 0 82 -17.5t56 -51.5
q29 32 70 50.5t95 18.5q28 0 53 -6t44.5 -19.5t31 -35t11.5 -52.5q0 -36 -15 -60t-39.5 -38t-57.5 -20.5t-69 -9.5zM377 543q0 42 -26 59t-66 17q-37 0 -63.5 -14.5t-44 -38t-25.5 -54t-8 -62.5q0 -45 23 -61.5t68 -16.5q36 0 63 14.5t44.5 38.5t26 55t8.5 63zM458 515
l106 6q15 1 31.5 3.5t30.5 8.5t23 17.5t9 29.5q0 13 -7.5 21t-18.5 12t-23.5 5t-22.5 1q-50 0 -83 -29.5t-45 -74.5zM45 249q-3 -8 -4.5 -24t-1.5 -21q0 -7 1.5 -23t4.5 -24h670q3 8 4.5 24t1.5 23q0 5 -1.5 21t-4.5 24h-670z" />
    </font>
</defs>
</svg>
