<?xml version="1.0" standalone="no"?>
<!DOCTYPE svg PUBLIC "-//W3C//DTD SVG 1.1//EN" "http://www.w3.org/Graphics/SVG/1.1/DTD/svg11.dtd" >
<svg>
<metadata>
Created by FontForge 20110222 at Fri Oct 11 06:09:03 2013
 By Orthosie Webhosting
Copyright (c) 2011 by Michael Chereda. All rights reserved.
</metadata>
<defs>
<font id="CasperBold" horiz-adv-x="560" >
  <font-face 
    font-family="CasperBold"
    font-weight="700"
    font-stretch="normal"
    units-per-em="1000"
    panose-1="2 0 8 6 4 0 0 2 0 4"
    ascent="800"
    descent="-200"
    x-height="504"
    cap-height="695"
    bbox="-69 -216 1910 860"
    underline-thickness="50"
    underline-position="-50"
    unicode-range="U+0002-FB09"
  />
<missing-glyph horiz-adv-x="250" 
 />
    <glyph glyph-name=".notdef" horiz-adv-x="250" 
 />
    <glyph glyph-name=".null" horiz-adv-x="0" 
 />
    <glyph glyph-name="nonmarkingreturn" horiz-adv-x="250" 
 />
    <glyph glyph-name="uni0000" horiz-adv-x="456" 
 />
    <glyph glyph-name="uni0000" horiz-adv-x="456" 
 />
    <glyph glyph-name="uni0002" horiz-adv-x="0" 
 />
    <glyph glyph-name="space" unicode=" " horiz-adv-x="300" 
 />
    <glyph glyph-name="space" unicode="&#xa0;" horiz-adv-x="300" 
 />
    <glyph glyph-name="exclam" unicode="!" horiz-adv-x="212" 
d="M107 104q23 0 41 -18t18 -41t-18 -40t-41 -17q-24 0 -42 16t-18 41t18 42t42 17zM171 695l-25 -539h-79l-26 539h130z" />
    <glyph glyph-name="quotedbl" unicode="&#x22;" horiz-adv-x="407" 
d="M178 695l-24 -248h-79l-26 248h129zM357 695l-25 -248h-78l-26 248h129z" />
    <glyph glyph-name="numbersign" unicode="#" horiz-adv-x="589" 
d="M262 498h128l40 197h94l-41 -197h81v-93h-100l-30 -147h130v-93h-149l-36 -177h-93l35 177h-127l-36 -177h-93l36 177h-75v93h94l29 147h-123v93h142l41 197h94zM340 258l30 147h-127l-30 -147h127z" />
    <glyph glyph-name="dollar" unicode="$" horiz-adv-x="537" 
d="M44 516q0 43 14.5 75.5t39.5 54.5t58 35t69 19v57h86v-55q55 -5 100 -29.5t83 -67.5l-76 -69q-18 18 -34 29.5t-32.5 19t-35.5 10.5t-44 3q-23 0 -43 -4t-35.5 -13t-24.5 -24t-9 -37q0 -25 7 -40t19.5 -24.5t29.5 -17t37 -16.5q22 -11 39.5 -17.5t33.5 -12.5t33.5 -13.5
t40.5 -18.5q52 -25 83.5 -65.5t31.5 -106.5q0 -49 -15.5 -85t-42.5 -60.5t-64.5 -38.5t-81.5 -18v-77h-86v79q-68 9 -121 46t-87 102l93 49q29 -44 64.5 -69.5t97.5 -25.5q28 0 52 5t41 16t27 29.5t10 44.5q0 23 -7.5 37.5t-20 24t-29.5 16.5t-36 16q-23 11 -40.5 18
t-33.5 13.5t-33.5 13.5t-40.5 17q-27 12 -48.5 26.5t-36.5 35t-23.5 48t-8.5 65.5z" />
    <glyph glyph-name="uni0025" unicode="%" horiz-adv-x="803" 
d="M260 -12h-93l373 719h92zM684 173q0 16 -3 33t-10.5 31t-19 22.5t-27.5 8.5q-18 0 -30 -8.5t-18.5 -22t-9.5 -30.5t-3 -34t3 -35t9.5 -32t18.5 -23t30 -9q16 0 27.5 9.5t19 23.5t10.5 31.5t3 34.5zM622 -12q-39 0 -66.5 15t-45 40.5t-26 59t-8.5 70.5t8.5 70t26 58
t45 39.5t66.5 14.5q38 0 66 -15t46 -40t27 -58t9 -69t-8.5 -69t-26 -59t-44.5 -41.5t-65 -15.5h-4zM242 525q0 16 -3.5 33t-10.5 31t-19 22.5t-28 8.5q-18 0 -29.5 -8.5t-18.5 -22t-10 -30.5t-3 -34t3 -35t9.5 -32t18.5 -23t30 -9q17 0 28.5 9.5t19 23.5t10.5 31.5t3 34.5z
M180 340q-39 0 -66.5 15t-45.5 40.5t-26 59t-8 70.5t8.5 70t26 58t45 39.5t66.5 14.5q38 0 65.5 -15t45.5 -40t27 -58t9 -69t-8.5 -69t-25.5 -59t-44.5 -41.5t-64.5 -15.5h-4z" />
    <glyph glyph-name="ampersand" unicode="&#x26;" horiz-adv-x="645" 
d="M41 204q0 55 20.5 97t68.5 71q-29 29 -45 65.5t-16 78.5q0 48 17 84t47 59.5t70 35.5t86 12q49 0 94 -14.5t77 -54.5l-86 -67q-17 17 -39 24t-47 7q-55 0 -83.5 -22t-28.5 -64q0 -41 26 -69t69 -28h148q0 41 -10 81l102 49q11 -32 14 -64.5t3 -65.5h87v-101h-87v-171
q0 -32 22 -46.5t51 -14.5h16v-87q-16 -5 -35.5 -8t-36.5 -3q-29 0 -55 13t-43 37q-35 -30 -68.5 -40t-78.5 -10q-53 0 -100 12t-82 38t-56 66t-21 96v4zM419 318h-146q-60 0 -94.5 -23t-34.5 -84q0 -35 13 -57.5t34.5 -36t49.5 -18.5t59 -5q42 0 69 12t50 40v172z" />
    <glyph glyph-name="quotesingle" unicode="'" horiz-adv-x="202" 
d="M164 695l-24 -248h-79l-26 248h129z" />
    <glyph glyph-name="parenleft" unicode="(" horiz-adv-x="293" 
d="M271 708q-73 -106 -111.5 -216t-38.5 -240q0 -129 38.5 -240.5t111.5 -217.5h-97q-34 51 -63 106t-50 112.5t-32.5 117.5t-11.5 122t12 122t33 117t49.5 111.5t62.5 105.5h97z" />
    <glyph glyph-name="parenright" unicode=")" horiz-adv-x="293" 
d="M119 708q34 -51 62.5 -105.5t49.5 -111.5t33 -117t12 -122t-11.5 -122t-32.5 -117.5t-50 -112.5t-63 -106h-97q73 106 111.5 217.5t38.5 240.5q0 130 -38.5 240t-111.5 216h97z" />
    <glyph glyph-name="asterisk" unicode="*" horiz-adv-x="379" 
d="M329 630l32 -88l-119 -27l81 -95l-77 -53l-57 94l-56 -94l-77 53l81 95l-120 27l33 88l109 -52l-17 117h94l-17 -117z" />
    <glyph glyph-name="plus" unicode="+" horiz-adv-x="475" 
d="M11 367h176v176q9 2 24.5 4.5t25.5 2.5t26 -2.5t25 -4.5v-176h176q4 -12 5.5 -27t1.5 -23q0 -11 -2.5 -26.5t-4.5 -25.5h-176v-175q-9 -2 -25 -4.5t-26 -2.5t-25.5 2t-24.5 5v175h-176q-4 11 -5.5 27t-1.5 25q0 8 1.5 23.5t5.5 26.5z" />
    <glyph glyph-name="comma" unicode="," horiz-adv-x="199" 
d="M99 104q21 0 35.5 -8.5t23 -22t12.5 -32t4 -37.5q0 -51 -29 -90.5t-77 -57.5l-28 44q23 7 42 27t19 44q0 8 -3 17q-24 0 -42 16t-18 41t18.5 42t42.5 17z" />
    <glyph glyph-name="hyphen" unicode="-" horiz-adv-x="396" 
d="M65 225q-2 10 -5 25.5t-3 25.5q0 11 2.5 26.5t5.5 25.5h265q3 -10 5.5 -25.5t2.5 -25.5q0 -11 -2 -26.5t-6 -25.5h-265z" />
    <glyph glyph-name="period" unicode="." horiz-adv-x="192" 
d="M97 104q23 0 40.5 -18t17.5 -41q0 -24 -17.5 -40.5t-40.5 -16.5q-24 0 -42 16t-18 41t18 42t42 17z" />
    <glyph glyph-name="slash" unicode="/" horiz-adv-x="301" 
d="M97 -12h-94l202 719h93z" />
    <glyph glyph-name="zero" unicode="0" horiz-adv-x="565" 
d="M415 346q0 35 -3.5 77t-16.5 78.5t-39.5 61t-71.5 24.5t-71.5 -23.5t-40 -59.5t-17.5 -78.5t-4 -79.5q0 -36 3.5 -80t17 -81.5t39.5 -63t72 -25.5t72 25.5t39.5 63t17 81t3.5 80.5zM283 695q51 0 89 -15.5t65 -41.5t44 -61t26.5 -73.5t13 -79t3.5 -78.5q0 -57 -9 -120.5
t-35.5 -116t-74 -87t-124.5 -34.5t-124 35t-73 88t-34.5 116t-8.5 119q0 58 9 119.5t35 112.5t73.5 84t124.5 33z" />
    <glyph glyph-name="one" unicode="1" horiz-adv-x="423" 
d="M70 107h108v434l-88 -83l-68 73l158 151h108v-575h109v-107h-327v107z" />
    <glyph glyph-name="two" unicode="2" horiz-adv-x="548" 
d="M57 573q32 64 89 93t127 29q46 0 86 -10t70 -32t47 -57t17 -84q0 -45 -12.5 -85t-52.5 -80l-235 -240h310v-107h-461v79q0 46 33 79l251 240q27 26 38 52.5t11 61.5q0 37 -29 56t-76 19q-42 0 -74 -17.5t-46 -43.5z" />
    <glyph glyph-name="three" unicode="3" horiz-adv-x="515" 
d="M56 682h388v-60q0 -38 -25 -69l-122 -149q95 -15 136.5 -67t41.5 -140q0 -48 -15.5 -87t-45 -66t-71 -41.5t-93.5 -14.5q-152 0 -213 137l98 43q8 -20 17.5 -33.5t23 -22t31.5 -12.5t43 -4q63 0 90.5 23.5t27.5 80.5q0 34 -9.5 56t-28.5 34.5t-47.5 17.5t-66.5 5h-53v89
l139 174h-246v106z" />
    <glyph glyph-name="four" unicode="4" horiz-adv-x="514" 
d="M290 0v163h-286v107l283 412h110v-416h96l-32 -103h-64v-163h-107zM290 266v245l-167 -245h167z" />
    <glyph glyph-name="five" unicode="5" horiz-adv-x="513" 
d="M142 169q7 -18 16 -31.5t22 -22.5t30.5 -14t42.5 -5q34 0 56 9t34.5 26.5t17 42.5t4.5 57q0 40 -9 66.5t-24 41.5t-35.5 21t-43.5 6q-36 0 -62 -15.5t-43 -36.5h-100l26 368h367v-106h-268l-9 -132q20 13 44 21.5t56 8.5q107 0 157.5 -62.5t50.5 -180.5q0 -111 -54 -177
t-165 -66q-75 0 -128 33.5t-84 103.5z" />
    <glyph glyph-name="six" unicode="6" horiz-adv-x="526" 
d="M272 -12q-61 0 -105 22t-72.5 58.5t-42 84.5t-13.5 100v32q0 67 9 139.5t37 132.5t80 99t138 39q40 0 85 -12t75 -38l-55 -89q-20 17 -49.5 24t-55.5 7q-38 0 -66 -14t-46.5 -36.5t-28.5 -52.5t-12 -61q29 20 56.5 30.5t62.5 10.5q109 0 163.5 -52.5t54.5 -173.5
q0 -56 -13 -102t-39 -79t-67 -51t-96 -18zM274 358q-57 0 -90.5 -33t-33.5 -99q0 -130 122 -130q57 0 82 29t25 102q0 63 -22.5 97t-82.5 34z" />
    <glyph glyph-name="seven" unicode="7" horiz-adv-x="494" 
d="M34 682h453v-65q0 -46 -33 -79q-107 -107 -167 -243q-60 -135 -60 -291v-4h-106v4q0 176 65 324q60 136 162 248h-314v106z" />
    <glyph glyph-name="eight" unicode="8" horiz-adv-x="504" 
d="M253 84q62 0 91 30t29 83q0 33 -11.5 54t-30.5 35t-43.5 24.5t-49.5 21.5q-21 -8 -40.5 -21t-34 -30.5t-23.5 -38.5t-9 -45q0 -55 31 -84t91 -29zM252 -12q-48 0 -88 14t-68.5 40t-44 63.5t-15.5 85.5q0 31 10.5 58t28 49.5t41.5 40t51 29.5q-51 23 -76.5 65t-25.5 98
q0 37 15 67.5t40.5 52t60 33t72.5 11.5q39 0 73 -11.5t59.5 -32.5t40.5 -51.5t15 -68.5q0 -54 -27 -88t-69 -62q56 -25 89.5 -75t33.5 -113q0 -48 -15.5 -86t-44 -64.5t-68.5 -40.5t-88 -14zM346 525q0 19 -8 33t-21 23t-30 13t-34 4t-33 -4.5t-29.5 -13.5t-21.5 -22.5
t-8 -32.5q0 -29 8.5 -45.5t23.5 -27t35 -18t42 -16.5q35 17 55.5 41.5t20.5 65.5z" />
    <glyph glyph-name="nine" unicode="9" horiz-adv-x="509" 
d="M35 461q1 48 15.5 90.5t41.5 74.5t66.5 50.5t91.5 18.5q57 0 98 -19.5t67.5 -53.5t39 -78.5t12.5 -95.5v-72q0 -42 -3 -87t-11.5 -88t-24.5 -81.5t-42 -68t-63.5 -46.5t-88.5 -17q-45 0 -91 15t-78 47l71 69q20 -18 42 -26.5t52 -8.5q40 0 68 18t44.5 46.5t24 63.5
t7.5 69q-27 -27 -59 -37.5t-69 -10.5q-51 0 -90.5 17.5t-66 48.5t-40.5 72.5t-14 89.5zM246 326q32 0 55 11t37.5 30t21 44t6.5 53q0 29 -6 53.5t-20 42.5t-36 28t-55 10q-32 0 -54.5 -10t-36.5 -28t-20.5 -42.5t-6.5 -53.5q0 -31 5.5 -56.5t19 -43.5t35.5 -28t55 -10z" />
    <glyph glyph-name="colon" unicode=":" horiz-adv-x="208" 
d="M105 504q23 0 40.5 -18t17.5 -41q0 -24 -17.5 -40.5t-40.5 -16.5q-24 0 -42 16t-18 41t18 42t42 17zM105 104q23 0 40.5 -18t17.5 -41q0 -24 -17.5 -40.5t-40.5 -16.5q-24 0 -42 16t-18 41t18 42t42 17z" />
    <glyph glyph-name="semicolon" unicode=";" horiz-adv-x="187" 
d="M91 504q23 0 40.5 -18t17.5 -41q0 -24 -17.5 -40.5t-40.5 -16.5q-24 0 -42 16t-18 41t18 42t42 17zM91 104q21 0 35.5 -8.5t23 -22t12.5 -32t4 -37.5q0 -51 -29 -90.5t-77 -57.5l-28 44q23 7 42 27t19 44q0 8 -3 17q-24 0 -42 16t-18 41t18.5 42t42.5 17z" />
    <glyph glyph-name="less" unicode="&#x3c;" horiz-adv-x="469" 
d="M432 453l-303 -111l303 -114v-108l-432 183v79l432 180v-109z" />
    <glyph glyph-name="equal" unicode="=" horiz-adv-x="585" 
d="M66 289h453q4 -12 5.5 -27t1.5 -23q0 -10 -2 -25.5t-5 -25.5h-453q-3 11 -4.5 26.5t-1.5 24.5q0 10 2 25t4 25zM66 498h453q3 -10 5 -25.5t2 -25.5t-2 -25.5t-5 -25.5h-453q-3 11 -4.5 26.5t-1.5 24.5q0 8 1.5 23.5t4.5 27.5z" />
    <glyph glyph-name="greater" unicode="&#x3e;" horiz-adv-x="492" 
d="M60 562l432 -180v-79l-432 -183v108l303 114l-303 111v109z" />
    <glyph glyph-name="question" unicode="?" horiz-adv-x="424" 
d="M16 645q18 16 41 27.5t48.5 19.5t51.5 12t50 4q46 0 84 -10t65 -32t41.5 -56.5t14.5 -83.5q0 -35 -11 -61t-28.5 -47.5t-39 -42t-42.5 -43.5q-33 -37 -47 -82.5t-14 -94.5h-87q0 30 3 62t11.5 63.5t22 60.5t34.5 52q13 14 29 28.5t30.5 31t24.5 34.5t10 39q0 38 -27 59.5
t-86 21.5q-35 0 -62 -13t-50 -33zM186 104q23 0 41 -17.5t18 -41.5t-18 -40.5t-41 -16.5t-41 16.5t-18 40.5t17.5 41.5t41.5 17.5z" />
    <glyph glyph-name="at" unicode="@" horiz-adv-x="989" 
d="M428 116q15 0 33.5 6.5t37.5 15.5t36 19.5t31 18.5v45h-148q-27 0 -41 -15.5t-14 -41.5q0 -29 18 -38.5t47 -9.5zM659 163q35 -28 67 -28q38 0 60 16.5t33.5 42.5t15 58.5t3.5 64.5q0 66 -23.5 119.5t-66.5 90.5t-103.5 57t-133.5 20q-81 0 -149 -22t-116.5 -65.5
t-76 -108.5t-27.5 -151q0 -93 28.5 -161t78 -112t117 -65.5t145.5 -21.5q38 0 71.5 4t65 14.5t61 28t59.5 44.5l69 -70q-66 -65 -150 -94.5t-176 -29.5q-99 0 -185 28t-150 85.5t-101 144.5t-37 205q0 112 38 196.5t102.5 141t150.5 85t182 28.5q97 0 178.5 -25t140.5 -74
t91.5 -122t32.5 -169q0 -50 -14.5 -100.5t-43.5 -91.5t-71.5 -66.5t-98.5 -25.5q-41 0 -83.5 17t-71.5 43q-35 -26 -71.5 -43t-80.5 -17q-29 0 -55.5 9.5t-47 26.5t-32.5 41t-12 54q0 31 11 56.5t30.5 43.5t46 27.5t57.5 9.5h149v10q0 46 -22.5 66.5t-65.5 21.5
q-38 0 -67.5 -8t-61.5 -26l-40 69q41 24 81 35t88 11q35 0 68 -10t58 -30t40 -49t15 -66v-163z" />
    <glyph glyph-name="A" unicode="A" horiz-adv-x="701" 
d="M244 296h209l-91 233l-16 78l-16 -78zM210 198l-73 -198h-119l259 695h135l272 -695h-117l-77 198h-280z" />
    <glyph glyph-name="B" unicode="B" horiz-adv-x="645" 
d="M351 414q43 0 69.5 22.5t26.5 78.5q0 45 -25 60t-68 15h-181v-176h178zM173 309v-204h203q63 0 92.5 28t29.5 77q0 53 -28.5 76t-88.5 23h-208zM496 369q54 -27 82.5 -68t28.5 -103q0 -52 -18 -89.5t-49.5 -61.5t-73 -35.5t-89.5 -11.5h-317v695h302q44 0 81 -10.5
t64 -32.5t42 -56t15 -81q0 -87 -68 -140v-6z" />
    <glyph glyph-name="C" unicode="C" horiz-adv-x="625" 
d="M155 347q0 -59 8.5 -106t31 -80t63 -50.5t105.5 -17.5q46 0 81 10.5t67 44.5l75 -70q-45 -48 -102 -69t-121 -21q-87 0 -148.5 26t-100.5 73t-57.5 112.5t-18.5 145.5v37q0 76 21.5 136.5t63 102.5t102 64t138.5 22q61 0 119 -20t102 -65l-76 -77q-32 32 -66 44t-79 12
q-107 0 -157.5 -56.5t-50.5 -164.5v-33z" />
    <glyph glyph-name="D" unicode="D" horiz-adv-x="698" 
d="M389 0h-329v695h327q76 0 127.5 -28t83 -74.5t45 -107.5t13.5 -127q0 -69 -11.5 -133.5t-41.5 -114.5t-82 -80t-132 -30zM173 105h181q60 0 95.5 21.5t54.5 56.5t25 81t6 94q0 46 -7 88.5t-27 74t-55.5 50.5t-92.5 19h-180v-485z" />
    <glyph glyph-name="E" unicode="E" horiz-adv-x="616" 
d="M568 0h-508v695h511l-33 -105h-366v-169h333v-106h-333v-210h396v-105z" />
    <glyph glyph-name="F" unicode="F" horiz-adv-x="543" 
d="M60 0v695h482l-33 -105h-336v-169h318v-106h-318v-315h-113z" />
    <glyph glyph-name="G" unicode="G" horiz-adv-x="661" 
d="M528 543q-31 34 -70.5 46t-81.5 12q-63 0 -106.5 -16t-70 -47.5t-38 -77t-11.5 -103.5v-25q0 -113 58 -176t185 -63q29 0 56.5 7t53.5 18v137h-127v106h236v-312q-49 -26 -108.5 -43.5t-116.5 -17.5q-81 0 -146 23t-110 67.5t-69.5 109t-24.5 147.5v23q0 79 21.5 143.5
t64.5 110.5t106 70.5t147 24.5q66 0 128 -22t106 -74z" />
    <glyph glyph-name="H" unicode="H" horiz-adv-x="678" 
d="M172 317v-316h-112v695h112v-273h332v273h113v-695h-113v316h-332z" />
    <glyph glyph-name="I" unicode="I" horiz-adv-x="238" 
d="M173 695v-695h-113v695h113z" />
    <glyph glyph-name="J" unicode="J" horiz-adv-x="460" 
d="M191 -12q-31 0 -60 7t-53 22t-41.5 37.5t-26.5 52.5q-5 18 -7.5 36.5t-2.5 38.5h111q0 -13 3 -28.5t11.5 -29t24.5 -22.5t42 -9q30 0 49.5 8t30 23.5t14.5 38t4 51.5v481h115v-504q0 -100 -57 -151.5t-157 -51.5z" />
    <glyph glyph-name="K" unicode="K" horiz-adv-x="620" 
d="M173 695v-292h54l192 292h126l-216 -337l258 -358h-131l-226 314h-57v-314h-113v695h113z" />
    <glyph glyph-name="L" unicode="L" horiz-adv-x="511" 
d="M173 695v-590h338l-31 -105h-420v695h113z" />
    <glyph glyph-name="M" unicode="M" horiz-adv-x="812" 
d="M60 0v695h152l195 -486l195 486h149v-695h-113v524l-177 -442h-109l-179 454v-536h-113z" />
    <glyph glyph-name="N" unicode="N" horiz-adv-x="696" 
d="M60 0v695h138l324 -521v521h113v-695h-133l-329 533v-533h-113z" />
    <glyph glyph-name="O" unicode="O" horiz-adv-x="753" 
d="M377 -12q-84 0 -147.5 26.5t-105.5 74.5t-63.5 114t-21.5 145v27q0 73 25 134.5t70 105t107 68t136 24.5t136 -24.5t106.5 -68t69.5 -105t25 -134.5v-27q0 -79 -21 -145t-63.5 -114t-105.5 -74.5t-147 -26.5zM377 602q-110 0 -165.5 -62t-55.5 -167v-23q0 -55 11 -102
t37 -81.5t67.5 -54t103.5 -19.5q64 0 106.5 18.5t68 52.5t36.5 81.5t11 104.5v23q0 105 -55.5 167t-164.5 62z" />
    <glyph glyph-name="P" unicode="P" horiz-adv-x="611" 
d="M60 0v695h344q49 0 87 -16t63 -44.5t38 -68t13 -87.5t-12.5 -90t-37 -72.5t-62.5 -48t-89 -17.5h-231v-251h-113zM173 591v-234h192q66 0 96.5 29.5t30.5 92.5q0 60 -32.5 86t-94.5 26h-192z" />
    <glyph glyph-name="Q" unicode="Q" horiz-adv-x="744" 
d="M166 -29q66 0 110 -6q22 -3 40.5 -7.5t35.5 -9.5t32.5 -10.5t29.5 -11.5t30.5 -11.5t35.5 -10.5q18 -5 39.5 -9t47.5 -7q25 -3 56.5 -5t69.5 -2v-97q-76 0 -125 6q-50 6 -86 15q-38 9 -66 21q-15 6 -30.5 11.5t-32.5 10.5t-36.5 9t-41.5 8t-49.5 6t-59.5 4v96zM365 -12
q-84 0 -147 26.5t-105.5 74.5t-63.5 114t-21 145v27q0 73 25 134.5t69.5 105t106.5 68t136 24.5t136 -24.5t107 -68t70 -105t25 -134.5v-27q0 -79 -21.5 -145t-63.5 -114t-105.5 -74.5t-147.5 -26.5zM365 602q-110 0 -165 -62t-55 -167v-23q0 -55 11 -102t36.5 -81.5
t67.5 -54t103 -19.5q64 0 106.5 18.5t68.5 52.5t37 81.5t11 104.5v23q0 105 -56 167t-165 62z" />
    <glyph glyph-name="R" unicode="R" horiz-adv-x="657" 
d="M301 259q-11 14 -28 20t-34 6h-66v-285h-113v695h328q44 0 81 -14t63.5 -40.5t41.5 -63t15 -81.5q0 -90 -45.5 -147.5t-129.5 -63.5l132 -167q16 -20 29 -26t38 -6v-86q-10 -5 -24 -8.5t-26 -3.5q-30 0 -54 20.5t-41 42.5zM173 389h187q64 0 90 23.5t26 83.5
q0 48 -23.5 71.5t-80.5 23.5h-199v-202z" />
    <glyph glyph-name="S" unicode="S" horiz-adv-x="610" 
d="M57 519q0 52 24 87.5t62 58t84.5 32.5t91.5 10q32 0 64.5 -6.5t63.5 -19t58 -31t48 -42.5l-77 -69q-35 35 -76.5 48.5t-91.5 13.5q-23 0 -46.5 -4t-43.5 -13t-32.5 -24t-12.5 -37q0 -25 6.5 -41t19 -26.5t29.5 -17.5t38 -14q48 -16 97 -26.5t96 -33.5q52 -25 83.5 -66
t31.5 -107q0 -57 -24 -96t-62 -63t-85.5 -34t-95.5 -10q-42 0 -83 9.5t-77.5 28.5t-66.5 47t-50 66l93 49q29 -45 75.5 -70t109.5 -25q28 0 55.5 5t49 16t35 29.5t13.5 44.5q0 23 -7 38.5t-20 25.5t-30 17t-36 13q-49 17 -98.5 28t-96.5 34q-26 13 -47.5 27.5t-36.5 35
t-23.5 47.5t-8.5 65z" />
    <glyph glyph-name="T" unicode="T" horiz-adv-x="592" 
d="M349 590v-590h-113v590h-220v105h564l-33 -105h-198z" />
    <glyph glyph-name="U" unicode="U" horiz-adv-x="673" 
d="M165 695v-389q0 -53 7.5 -93t26.5 -66.5t52.5 -40t85.5 -13.5q50 0 83 14t52.5 41t27.5 67t8 91v389h113v-396q0 -73 -15 -130.5t-48.5 -97.5t-88 -61.5t-132.5 -21.5q-81 0 -135.5 20.5t-87.5 60.5t-47.5 98t-14.5 132v396h113z" />
    <glyph glyph-name="V" unicode="V" horiz-adv-x="685" 
d="M127 707l189 -493l26 -104l25 104l192 493l108 -30l-261 -677h-127l-261 677z" />
    <glyph glyph-name="W" unicode="W" horiz-adv-x="984" 
d="M565 614l134 -432l140 525l109 -30l-180 -677h-131l-129 414l-16 100l-16 -100l-129 -414h-131l-180 677l109 30l140 -526l134 433h146z" />
    <glyph glyph-name="X" unicode="X" horiz-adv-x="746" 
d="M350 246l-180 -246h-132l269 361l-223 317l108 29l137 -191l44 -89l44 89l137 191l108 -29l-223 -317l269 -361h-132l-181 246l-22 54z" />
    <glyph glyph-name="Y" unicode="Y" horiz-adv-x="634" 
d="M622 678l-227 -354q-7 -10 -20 -10v-314h-116v314q-13 0 -20 10l-226 354l108 29l191 -301h11l190 301z" />
    <glyph glyph-name="Z" unicode="Z" horiz-adv-x="696" 
d="M96 695h537v-43q0 -42 -28 -73l-376 -435l-46 -39h461v-105h-597v46q0 40 28 73l352 412l73 59h-436z" />
    <glyph glyph-name="bracketleft" unicode="[" horiz-adv-x="286" 
d="M256 600h-92v-700h92v-94h-196v889h196v-95z" />
    <glyph glyph-name="backslash" unicode="\" horiz-adv-x="301" 
d="M3 707h93l202 -719h-94z" />
    <glyph glyph-name="bracketright" unicode="]" horiz-adv-x="287" 
d="M28 695h196v-889h-196v94h92v700h-92v95z" />
    <glyph glyph-name="asciicircum" unicode="^" horiz-adv-x="485" 
d="M20 327l167 380h111l167 -380h-107l-116 290l-112 -290h-110z" />
    <glyph glyph-name="underscore" unicode="_" horiz-adv-x="701" 
d="M65 -122h571q2 -8 3 -21t1 -21t-1 -21.5t-3 -21.5h-571q-2 11 -3.5 24t-1.5 19q0 5 1.5 18.5t3.5 23.5z" />
    <glyph glyph-name="grave" unicode="`" horiz-adv-x="217" 
d="M106 737l-84 86v37h100l76 -123h-92z" />
    <glyph glyph-name="a" unicode="a" 
d="M221 85q18 0 40 7.5t44 18.5t42.5 23.5t36.5 21.5v52h-175q-32 0 -48.5 -17t-16.5 -49q0 -35 22 -46t55 -11zM280 516q42 0 80.5 -12t68 -35.5t47 -57.5t17.5 -78v-218q0 -34 6.5 -59.5t22.5 -55.5h-115q-8 11 -12 28t-6 31q-41 -30 -84.5 -50.5t-94.5 -20.5
q-34 0 -65.5 11t-55.5 31.5t-38.5 49t-14.5 63.5q0 37 13 67t36.5 51t55 32t67.5 11h176v12q0 55 -26.5 79t-77.5 25q-46 0 -80.5 -9.5t-72.5 -29.5l-47 81q49 28 96 41t104 13z" />
    <glyph glyph-name="b" unicode="b" horiz-adv-x="531" 
d="M168 296v-192q23 -11 48.5 -15t51.5 -4q43 0 70.5 9t44 28t23 48.5t6.5 69.5v11q0 27 -2.5 55.5t-12 51t-29.5 37t-55 14.5q-55 0 -93 -30t-52 -83zM169 438h6q27 33 60.5 50.5t77.5 17.5q54 0 93 -20t64.5 -53t38 -76t12.5 -89v-23q0 -125 -64 -191t-190 -66
q-24 0 -51 2t-55 6.5t-54 11.5t-48 16v652l109 31z" />
    <glyph glyph-name="c" unicode="c" horiz-adv-x="494" 
d="M289 516q45 0 89 -16t76 -48l-68 -67q-27 21 -48.5 27.5t-52.5 6.5q-76 0 -110.5 -38.5t-34.5 -111.5v-16q0 -39 7 -70t23.5 -52.5t44.5 -33.5t70 -12q31 0 56 6t50 26l64 -62q-33 -35 -77.5 -51t-92.5 -16q-65 0 -112 19t-77 54t-44.5 83t-14.5 107v19q0 115 66.5 180.5
t185.5 65.5z" />
    <glyph glyph-name="d" unicode="d" horiz-adv-x="552" 
d="M370 396q-22 13 -50.5 18t-53.5 5q-40 0 -67.5 -11t-45 -31t-25 -48t-7.5 -61v-37q0 -28 4 -54.5t15.5 -46.5t31.5 -32.5t52 -12.5q21 0 41.5 7t39.5 18.5t35.5 25.5t29.5 29v231zM370 677l109 30v-592q0 -19 2 -34t5 -28q4 -12 9 -25.5t13 -27.5h-115q-6 10 -12 27
q-4 18 -6 32q-30 -30 -68.5 -50.5t-82.5 -20.5q-52 0 -91.5 17t-66.5 47t-40.5 71.5t-13.5 89.5v48q0 127 67 191t195 64q49 0 96 -19v180z" />
    <glyph glyph-name="e" unicode="e" horiz-adv-x="549" 
d="M149 218q0 -29 7.5 -53.5t25 -42t46.5 -27.5t72 -10q38 0 59 11t45 34l90 -37q-32 -54 -85 -79.5t-114 -25.5q-125 0 -190 65t-65 192v11v25t1 23q2 48 22 87t53 67t76 43t91 15q55 0 98 -17.5t73 -49t45.5 -76t15.5 -98.5v-57h-366zM149 311h257q0 24 -9 44t-25.5 34
t-39 22t-49.5 8q-25 0 -49 -6t-43 -19.5t-30.5 -34t-11.5 -48.5z" />
    <glyph glyph-name="f" unicode="f" horiz-adv-x="307" 
d="M78 560q0 28 7.5 54.5t23.5 47t42 33t62 12.5q17 0 38.5 -3.5t37.5 -8.5v-86h-40q-31 0 -46.5 -17t-15.5 -47v-41h97l-29 -90h-68v-414h-109v414h-63v90h63v56z" />
    <glyph glyph-name="g" unicode="g" horiz-adv-x="545" 
d="M252 97q42 0 73.5 23t57.5 57v227q-23 8 -41.5 11.5t-42.5 3.5q-42 0 -70.5 -8t-46 -26t-25 -46.5t-7.5 -70.5v-44q0 -30 3.5 -53.5t14.5 -40t31 -25t53 -8.5zM383 66q-28 -28 -59 -47t-72 -19q-103 0 -157 58.5t-54 159.5v52q0 126 65.5 186t190.5 60q48 0 99.5 -8.5
t95.5 -27.5v-462q0 -49 -18 -90t-50 -71t-75 -46.5t-92 -16.5q-55 0 -104 13t-97 41l51 89q38 -23 73 -31t79 -8q65 0 94.5 33.5t29.5 96.5v38z" />
    <glyph glyph-name="h" unicode="h" horiz-adv-x="549" 
d="M312 504q41 0 76.5 -12.5t62 -35.5t41.5 -56t15 -73v-327h-109v315q0 48 -24.5 70t-64.5 22q-54 0 -85.5 -26.5t-54.5 -79.5v-301h-109v676l109 31v-265q29 35 64 48.5t79 13.5z" />
    <glyph glyph-name="i" unicode="i" horiz-adv-x="212" 
d="M54 0v504h109v-504h-109zM106 707q25 0 42 -16q18 -18 18 -42q0 -26 -18 -42q-17 -16 -42 -16q-26 0 -42 16q-18 16 -18 42q0 24 18 42q16 16 42 16z" />
    <glyph glyph-name="j" unicode="j" horiz-adv-x="212" 
d="M54 504h109v-586q0 -27 -10 -50t-27 -39.5t-41 -25.5t-52 -9q-17 0 -42 4t-42 8v86h43q62 0 62 60v552zM106 707q25 0 42 -16q18 -18 18 -42q0 -26 -18 -42q-17 -16 -42 -16q-26 0 -42 16q-18 16 -18 42q0 24 18 42q16 16 42 16z" />
    <glyph glyph-name="k" unicode="k" horiz-adv-x="472" 
d="M168 707v-407h37l146 204h111l-170 -245l110 -151q14 -20 31 -23t34 -3v-82q-12 -6 -28 -9t-25 -3q-14 0 -26.5 6t-23 15.5t-19.5 20.5t-16 21l-125 169h-36v-220h-109v677z" />
    <glyph glyph-name="l" unicode="l" horiz-adv-x="275" 
d="M56 677l109 30v-562q0 -60 62 -60h39v-85q-16 -5 -40 -8.5t-41 -3.5q-28 0 -51.5 9t-41 25.5t-27 39.5t-9.5 50v565z" />
    <glyph glyph-name="m" unicode="m" horiz-adv-x="848" 
d="M180 457q10 12 24 22.5t30.5 18.5t33.5 13t32 5q47 0 83.5 -15t63.5 -54q35 32 70 50.5t84 18.5q42 0 76.5 -12.5t60 -35.5t39.5 -56t14 -75v-337h-109v327q0 44 -18.5 68.5t-68.5 24.5q-32 0 -56 -14t-47 -36v-370h-109v338q0 43 -22.5 62.5t-62.5 19.5q-33 0 -64 -13
t-54 -37v-370h-109v380q0 27 -3.5 47.5t-14.5 43.5l97 45q8 -14 14 -28t10 -31h6z" />
    <glyph glyph-name="n" unicode="n" horiz-adv-x="569" 
d="M305 420q-16 0 -34 -3.5t-35 -9.5t-32.5 -15.5t-26.5 -21.5v-370h-109v380q0 27 -4 47.5t-15 43.5l98 45q8 -14 14 -28t10 -31h6q13 13 30.5 24t36.5 19t38.5 12t36.5 4q43 0 78.5 -11.5t61.5 -33.5t40.5 -55.5t14.5 -76.5v-339h-109v317q0 103 -100 103z" />
    <glyph glyph-name="o" unicode="o" horiz-adv-x="573" 
d="M432 252v20q0 66 -35 107t-111 41t-110 -41t-34 -108v-23q0 -36 6 -65.5t22 -51.5t44 -34t72 -12t72 12.5t44.5 35t23 53t6.5 66.5zM285 -12q-60 0 -106 20.5t-77 56t-47 83.5t-16 104v19q1 53 18.5 98t49.5 77.5t77 51t101 18.5q53 0 98.5 -18.5t79.5 -50.5t53 -77
t19 -97v-21q0 -56 -16.5 -104t-48.5 -83.5t-78.5 -56t-106.5 -20.5z" />
    <glyph glyph-name="p" unicode="p" horiz-adv-x="561" 
d="M314 516q56 0 99.5 -17.5t73.5 -48.5t45.5 -75t15.5 -96v-64q0 -56 -16 -98.5t-45.5 -71t-71 -43t-91.5 -14.5q-39 0 -79 20t-68 47v-249h-109v574q0 27 -4.5 47t-13.5 44l97 45q8 -14 14 -28t10 -31h6q26 29 62.5 44t74.5 15zM312 420q-39 0 -75 -21t-60 -51v-184
q13 -15 30 -29t36 -25t39.5 -18t41.5 -7q34 0 56.5 10.5t35.5 28.5t18 43t5 54v51q0 31 -6 58t-21 47t-39.5 31.5t-60.5 11.5z" />
    <glyph glyph-name="q" unicode="q" horiz-adv-x="541" 
d="M235 85q21 0 40 7t35.5 18.5t31.5 25.5t29 29v238q-43 17 -93 17q-85 0 -121.5 -39.5t-36.5 -124.5v-22q0 -29 5 -56t18 -47.5t35.5 -33t56.5 -12.5zM237 -12q-54 0 -96 17t-71 48t-44 73t-15 92v52q0 63 19.5 109.5t55.5 77t86.5 45t112.5 14.5q48 0 99 -8.5t96 -27.5
v-674h-109v249q-28 -27 -61.5 -47t-72.5 -20z" />
    <glyph glyph-name="r" unicode="r" horiz-adv-x="366" 
d="M173 453q19 30 44 46.5t62 16.5q39 0 83 -22l-38 -101q-25 15 -49 15q-32 0 -52 -17.5t-31 -44t-15 -56.5t-4 -54v-236h-109v380q0 27 -4 48.5t-15 42.5l98 45q8 -15 14.5 -30.5t9.5 -32.5h6z" />
    <glyph glyph-name="s" unicode="s" horiz-adv-x="489" 
d="M251 516q51 0 94.5 -19t75.5 -54l-68 -67q-19 20 -42.5 31.5t-61.5 11.5q-42 0 -69.5 -10.5t-27.5 -34.5q0 -12 6.5 -21t16 -15t21.5 -10t24 -7q37 -11 74 -20t72 -25q18 -8 34 -20t28.5 -27t20 -33t7.5 -40q0 -46 -17.5 -78t-47 -52t-68 -29t-79.5 -9q-67 0 -120.5 22.5
t-87.5 83.5l81 51q23 -32 51.5 -46t80.5 -14q98 0 98 58q0 24 -20 37t-47 21q-36 11 -77.5 20t-76.5 26q-39 19 -60 50.5t-21 79.5q0 34 15 60t42 43.5t65 26.5t84 9z" />
    <glyph glyph-name="t" unicode="t" horiz-adv-x="292" 
d="M71 414h-57v90h57v108l109 24v-132h80l-28 -90h-52v-269q0 -60 62 -60h25v-86q-14 -5 -27.5 -8t-28.5 -3q-28 0 -53.5 7.5t-44.5 23.5t-30.5 41.5t-11.5 61.5v292z" />
    <glyph glyph-name="u" unicode="u" 
d="M246 -12q-94 0 -143 45t-49 139v313l109 31v-321q0 -26 2.5 -46t11.5 -34.5t25.5 -22t43.5 -7.5q21 0 39 7t34.5 18.5t31 25.5t27.5 29v320l109 31v-401q0 -38 7 -62q3 -12 8.5 -25.5t13.5 -27.5h-115q-8 12 -13 28.5t-5 30.5q-29 -30 -61.5 -50.5t-75.5 -20.5z" />
    <glyph glyph-name="v" unicode="v" horiz-adv-x="509" 
d="M203 0l-184 489l99 27l116 -307l21 -98l20 98l116 307l99 -27l-184 -489h-103z" />
    <glyph glyph-name="w" unicode="w" horiz-adv-x="763" 
d="M426 434l96 -274l108 356l98 -31l-147 -485h-111l-69 195l-20 97l-20 -97l-68 -195h-111l-147 485l98 31l107 -356l96 274h90z" />
    <glyph glyph-name="x" unicode="x" horiz-adv-x="555" 
d="M278 182l-119 -182h-121l182 266l-151 220l100 30l109 -167l108 167l100 -30l-151 -220l182 -266h-121z" />
    <glyph glyph-name="y" unicode="y" horiz-adv-x="564" 
d="M332 -107q-8 -20 -18 -37.5t-24.5 -31.5t-32.5 -22t-41 -8q-17 0 -39.5 3.5t-39.5 8.5v86h42q22 0 31.5 4.5t18.5 27.5l30 81q-47 0 -63 40l-168 441l103 30l144 -376q7 -18 28 -18l146 394l104 -30z" />
    <glyph glyph-name="z" unicode="z" horiz-adv-x="597" 
d="M72 504h459v-21q0 -44 -32 -78l-304 -323l95 15h255l-27 -97h-463v29q0 21 9 41q4 10 9.5 19t12.5 17l299 318l-84 -13h-229v93z" />
    <glyph glyph-name="braceleft" unicode="{" horiz-adv-x="341" 
d="M304 610h-46q-23 0 -39 -16q-16 -15 -16 -39v-207q0 -16 -6 -31q-7 -16 -15 -25q-8 -11 -20 -21q-11 -9 -21 -15q10 -6 21 -15t20 -20q8 -11 15 -26q6 -15 6 -32v-217q0 -23 16 -38q16 -16 39 -16h35v-98h-58q-25 0 -50 10q-25 11 -42 28q-17 15 -28 41q-10 25 -10 50
v200q0 28 -8 43q-8 18 -22 26q-13 9 -32 12q-20 3 -39 3v98q19 0 39 3q19 3 32 12q15 9 22 25q8 15 8 44v189q0 14 2.5 26.5t7.5 24.5q11 24 28 41q20 20 42 28q21 10 50 10h69v-98z" />
    <glyph glyph-name="bar" unicode="|" horiz-adv-x="224" 
d="M158 -194q-11 -3 -26 -4.5t-23 -1.5t-23 1.5t-26 4.5v889q11 3 26 4.5t23 1.5t23 -1.5t26 -4.5v-889z" />
    <glyph glyph-name="braceright" unicode="}" horiz-adv-x="340" 
d="M36 708h69q29 0 50 -10q22 -8 42 -28q17 -17 28 -41q5 -12 7.5 -24.5t2.5 -26.5v-189q0 -29 8 -44q7 -16 22 -25q13 -9 32 -12t39 -3v-98q-20 0 -39 -3t-32 -12q-14 -8 -22 -26q-8 -15 -8 -43v-200q0 -25 -10 -50q-11 -26 -28 -41q-17 -17 -42 -28q-25 -10 -50 -10h-58
v98h35q23 0 39 16q16 15 16 38v217q0 17 6 32q7 15 15 26q9 11 20 20q10 9 21 15q-11 6 -21 15q-12 10 -20 21q-8 9 -15 25q-6 15 -6 31v207q0 24 -16 39q-16 16 -39 16h-46v98z" />
    <glyph glyph-name="asciitilde" unicode="~" horiz-adv-x="558" 
d="M512 312q-41 -39 -81 -61q-41 -21 -83 -21q-30 0 -57 10q-14 5 -28 10.5t-28 11.5t-28.5 11.5t-28.5 10.5t-27.5 7.5t-27.5 2.5q-21 0 -45 -11q-26 -13 -45 -28v73q35 28 71 45t72 17q29 0 56 -9l28 -10t28 -11t28 -10.5t28 -9.5q28 -9 55 -9q29 0 57 14q15 8 29 17.5
t27 23.5v-74z" />
    <glyph glyph-name="exclamdown" unicode="&#xa1;" horiz-adv-x="163" 
d="M107 397.006q23 0 41 17.999t18 40.998q0 22.998 -18 39.9971t-41 16.999q-24 0 -42 -15.999t-18 -40.9971q0 -24.999 18 -41.998t42 -16.999zM171 -193.958l-25 538.968h-79l-26 -538.968h130z" />
    <glyph glyph-name="cent" unicode="&#xa2;" horiz-adv-x="453" 
d="M314 502q35 -6 66.5 -21t55.5 -40l-68 -67q-27 21 -48.5 27.5t-52.5 6.5q-76 0 -110.5 -33t-34.5 -105v-16q0 -39 7 -68t23.5 -49t44.5 -30t70 -10q31 0 56 6t50 26l64 -62q-25 -26 -56.5 -41.5t-66.5 -21.5v-95h-86v93q-109 10 -159 75.5t-50 174.5v19q0 104 54.5 162.5
t154.5 69.5v65h86v-66z" />
    <glyph glyph-name="sterling" unicode="&#xa3;" horiz-adv-x="601" 
d="M234 369h148v-85h-128q1 -5 1 -14q0 -42 -13 -75t-37 -69q5 1 9.5 1h9.5q33 0 59.5 -6.5t51 -15t48.5 -15t53 -6.5q23 0 44.5 10.5t40.5 21.5l45 -88l-11 -5q-30 -14 -57 -24.5t-62 -10.5q-27 0 -52 6.5t-49.5 14.5t-49 14.5t-48.5 6.5q-26 0 -45.5 -2t-36.5 -6.5
t-34.5 -13t-40.5 -20.5q-11 24 -23 47.5t-24 48.5q22 18 43.5 37.5t38.5 41t27.5 46.5t10.5 55v10t-1 10h-106v85h85q-6 19 -12 34.5t-10.5 31t-7.5 32.5t-3 38v6q0 46 17.5 80.5t47.5 57.5t69.5 34.5t83.5 11.5q69 0 121 -25.5t94 -79.5l-78 -71q-26 39 -56.5 56.5
t-78.5 17.5q-25 0 -46.5 -3.5t-37.5 -13t-25 -26.5t-9 -44v-4q0 -35 11.5 -68t22.5 -65z" />
    <glyph glyph-name="currency" unicode="&#xa4;" horiz-adv-x="584" 
d="M400 551l67 67l72 -70l-68 -67q7 -11 12 -23l10 -24q9 -30 9 -63q0 -59 -30 -108l67 -65l-70 -73l-68 67q-20 -13 -46 -21q-29 -10 -63 -10q-32 0 -62 9q-23 7 -46 21l-66 -67l-73 70l68 68q-31 49 -31 109q0 32 9 62q8 26 21 46l-66 66l70 73l66 -68q49 31 110 31
q32 0 62 -9q26 -8 46 -21zM292 481q-22 0 -43 -9q-20 -8 -35 -23q-16 -16 -23 -35q-9 -21 -9 -43t9 -43q7 -20 23 -35q15 -15 35 -24q22 -8 43 -8q22 0 43 9q19 7 35 23q15 15 24 35q8 22 8 43t-8 43q-9 20 -24 35q-16 15 -35 23q-21 9 -43 9z" />
    <glyph glyph-name="yen" unicode="&#xa5;" horiz-adv-x="647" 
d="M628 666l-195 -304h127v-89h-179v-61h179v-89h-179v-123h-116v123h-178v89h178v61h-178v89h126l-194 304l108 30l191 -302h11l190 302z" />
    <glyph glyph-name="brokenbar" unicode="&#xa6;" horiz-adv-x="223" 
d="M158 -194v361h-98v-361q11 -3 25.5 -4.5t22.5 -1.5t23 1.5t27 4.5zM158 695v-362h-98v362q11 3 25.5 4.5t22.5 1.5t23 -1.5t27 -4.5z" />
    <glyph glyph-name="section" unicode="&#xa7;" horiz-adv-x="525" 
d="M150 419q-30 27 -51 55q-26 38 -26 86q0 39 15.5 67t41.5 46t59.5 26.5t69.5 8.5q65 0 118.5 -23t93.5 -75l6 -9l-77 -64l-7 9q-27 33 -57.5 50.5t-74.5 17.5q-15 0 -30 -1.5t-27 -7t-20 -16t-8 -27.5q0 -14 8 -28t20 -26t25.5 -22t24.5 -17q55 -35 88.5 -57t52.5 -35
t28 -20t15 -13q11 -11 21 -23.5t18 -26.5q15 -29 15 -61q0 -14 -2 -27.5t-7 -26.5q-18 -41 -57 -63l-50 -25q34 -30 55.5 -63.5t21.5 -80.5q0 -39 -15 -67.5t-40 -47.5t-58 -28.5t-69 -9.5q-69 0 -123.5 26.5t-99.5 77.5l-8 9l80 70l7 -9q31 -35 63 -54t80 -19q13 0 27 2
t25.5 7t19 15t7.5 26q0 21 -15 40t-36 36t-44 31t-38 24l-11 7q-15 10 -30.5 19.5t-31.5 20.5q-14 10 -28 20.5t-26 23.5q-25 23 -39 50q-16 28 -16 60q0 26 8 48t26 41q18 20 39.5 31.5t42.5 21.5zM301 146q23 12 45 23.5t36 31.5q4 5 5 14t1 15t-2.5 11t-5.5 10
q-12 15 -24 26q-19 16 -37 27l-94 60q-15 -7 -30.5 -14t-28 -16t-20.5 -22t-8 -32q0 -14 13 -27.5t23 -21.5q21 -17 43 -31.5t45 -28.5z" />
    <glyph glyph-name="dieresis" unicode="&#xa8;" horiz-adv-x="424" 
d="M313 860q24 0 42 -16.5t18 -41.5q0 -26 -18 -42t-42 -16q-25 0 -42.5 16t-17.5 42q0 25 17.5 41.5t42.5 16.5zM111 860q24 0 42 -16.5t18 -41.5q0 -26 -18 -42t-42 -16q-25 0 -42.5 16t-17.5 42q0 25 17.5 41.5t42.5 16.5z" />
    <glyph glyph-name="copyright" unicode="&#xa9;" horiz-adv-x="818" 
d="M410 708q84 0 152.5 -28t117 -77t75 -114t26.5 -140q0 -74 -26.5 -140t-75 -115t-117 -77.5t-152.5 -28.5q-83 0 -151.5 28.5t-118 77t-76.5 114.5t-27 141t27 140.5t75.5 114t117.5 76.5t153 28zM410 625q-63 0 -116 -20t-91.5 -56t-60 -87t-21.5 -113q0 -63 22 -114
t60.5 -87t91.5 -56t115 -20q63 0 115.5 20t90.5 57t59.5 87.5t21.5 112.5t-21 113t-59.5 87t-91 56t-115.5 20zM305 358q0 -63 23 -97.5t89 -34.5q26 0 40.5 4.5t32.5 18.5l62 -60q-55 -56 -135 -56q-51 0 -89.5 16t-64 45.5t-38 70.5t-12.5 92q0 43 14.5 81t40.5 65.5
t61.5 43.5t77.5 16q43 0 78.5 -11t65.5 -43l-64 -66q-15 14 -31 21.5t-43 7.5q-31 0 -51.5 -9t-33 -24.5t-18 -36.5t-5.5 -44z" />
    <glyph glyph-name="ordfeminine" unicode="&#xaa;" horiz-adv-x="414" 
d="M279 392q-27 -17 -57.5 -28.5t-62.5 -11.5q-51 0 -86 29t-35 81q0 25 9.5 44.5t26 33.5t38 21.5t45.5 7.5h115v8q0 32 -18.5 45t-47.5 13h-4q-32 0 -55 -9t-48 -22l-35 59q18 11 34.5 19t33 13.5t34.5 8.5t40 3q30 0 57 -9t47 -26t31.5 -42t11.5 -57v-124q0 -21 4 -37
t14 -35l9 -17h-87l-3 5q-8 11 -11 27zM272 468v29h-114q-17 0 -28.5 -9.5t-11.5 -25.5q0 -19 15.5 -28t32.5 -9q10 0 24 4.5t29 11t28.5 14t24.5 13.5z" />
    <glyph glyph-name="guillemotleft" unicode="&#xab;" horiz-adv-x="519" 
d="M467 476q-24 -57 -53 -113t-65 -104q36 -49 65 -104.5t53 -113.5h-83q-30 60 -70.5 113.5t-85.5 104.5q45 51 85.5 104t70.5 113h83zM257 476q-24 -57 -53 -113t-65 -104q36 -49 65 -104.5t53 -113.5h-83q-29 61 -70 114t-86 104q45 50 86 103.5t70 113.5h83z" />
    <glyph glyph-name="logicalnot" unicode="&#xac;" horiz-adv-x="535" 
d="M2 513h472v-299h-104v195h-368v104z" />
    <glyph glyph-name="uni00AD" unicode="&#xad;" horiz-adv-x="395" 
d="M66 229q-8 26 -8 43q0 10 2 20t6 23h263q4 -13 6 -23t2 -20q0 -17 -8 -43h-263z" />
    <glyph glyph-name="registered" unicode="&#xae;" horiz-adv-x="539" 
d="M243 445v-82h-56v226h98q15 0 29 -4t25 -14q23 -19 23 -51q0 -14 -3.5 -27t-11.5 -24q-5 -8 -13 -12.5t-17 -7.5l26 -38q5 -8 15 -8h9v-36q-6 -4 -11.5 -6t-13.5 -2q-12 0 -25 6.5t-20 17.5l-37 55q-4 7 -17 7zM243 499h42q14 0 20 3t6 17q0 11 -8 14t-18 3h-42v-37z
M269 707q47 0 89.5 -18.5t75 -50.5t51.5 -74.5t19 -90.5t-18.5 -90.5t-51 -74t-75 -50t-90.5 -18.5t-90 18.5t-74 50.5t-50.5 74t-18.5 90q0 49 18.5 91.5t50.5 74t74 50t90 18.5zM269 639q-34 0 -64 -13.5t-52.5 -36t-35.5 -53t-13 -63.5q0 -34 13 -64t35.5 -52.5
t52.5 -35.5t64 -13t64 13t52.5 35.5t36 52.5t13.5 64t-13 64t-35.5 52.5t-53 36t-64.5 13.5z" />
    <glyph glyph-name="degree" unicode="&#xb0;" horiz-adv-x="353" 
d="M176 707q30 0 55.5 -11t44.5 -30t30 -44.5t11 -55.5q0 -29 -11 -54.5t-30 -44.5t-45 -29.5t-55 -10.5t-54.5 10.5t-44.5 29.5t-30 44.5t-11 54.5q0 30 11 55.5t30 44.5t44.5 30t54.5 11zM176 637q-30 0 -50 -20.5t-20 -50.5q0 -29 20.5 -49t49.5 -20q30 0 50.5 20
t20.5 49q0 30 -20.5 50.5t-50.5 20.5z" />
    <glyph glyph-name="plusminus" unicode="&#xb1;" horiz-adv-x="518" 
d="M32 101h453q3 -12 5 -27t2 -23q0 -10 -2.5 -25.5t-4.5 -25.5h-453q-4 11 -5.5 26.5t-1.5 24.5q0 8 1.5 23.5t5.5 26.5zM32 400h175v166q10 3 25.5 5t25.5 2t25.5 -2.5t25.5 -4.5v-166h176q3 -11 5 -26.5t2 -23.5q0 -10 -2.5 -26t-4.5 -25h-176v-166q-10 -2 -25.5 -4.5
t-25.5 -2.5t-25.5 2.5t-25.5 4.5v166h-175q-4 11 -5.5 26.5t-1.5 24.5q0 8 1.5 23.5t5.5 26.5z" />
    <glyph glyph-name="twosuperior" unicode="&#xb2;" horiz-adv-x="338" 
d="M139 415h148v-68h-246v39q0 29 20 49l138 128q18 15 18 37q0 20 -11.5 27t-34.5 7q-24 0 -39 -11t-25 -31l-63 30l5 10q17 35 47 52.5t68 17.5q52 0 87 -22.5t35 -77.5q0 -23 -8 -46.5t-25 -38.5z" />
    <glyph glyph-name="threesuperior" unicode="&#xb3;" horiz-adv-x="324" 
d="M204 559q39 -11 58 -36.5t19 -69.5q0 -57 -31.5 -85t-88.5 -28q-42 0 -73 18.5t-48 56.5l-4 11l62 28l5 -9q11 -20 23 -28.5t35 -8.5q24 0 37.5 11t13.5 35q0 27 -14.5 38.5t-41.5 11.5h-46v51l60 71h-120v69h215v-39q0 -26 -15 -44z" />
    <glyph glyph-name="acute" unicode="&#xb4;" horiz-adv-x="209" 
d="M18 737l76 123h97v-25l-84 -98h-89z" />
    <glyph glyph-name="mu" unicode="&#xb5;" horiz-adv-x="534" 
d="M253 -12q-48 0 -84 12v-194h-109v680l109 30v-321q0 -26 2.5 -46t11.5 -34.5t25.5 -22t44.5 -7.5q20 0 38 7t34.5 18.5t31 26t27.5 28.5v321l109 30v-401q0 -39 7 -61q7 -24 22 -54h-115q-8 11 -12 28q-4 16 -6 31q-29 -30 -61.5 -50.5t-74.5 -20.5z" />
    <glyph glyph-name="paragraph" unicode="&#xb6;" horiz-adv-x="635" 
d="M595 606h-68v-800h-97v800h-85v-800h-93v471h-11q-50 0 -91.5 15t-71 43t-46 68t-16.5 90t17 87.5t47.5 63t71.5 38.5t89 13h354v-89z" />
    <glyph glyph-name="periodcentered" unicode="&#xb7;" horiz-adv-x="190" 
d="M96 417q23 0 40.5 -18t17.5 -41q0 -24 -17.5 -40.5t-40.5 -16.5q-24 0 -42 16t-18 41t18 42t42 17z" />
    <glyph glyph-name="cedilla" unicode="&#xb8;" horiz-adv-x="232" 
d="M170 6l-18 -65q29 -14 37 -32.5t8 -39.5q0 -39 -31.5 -57t-73.5 -18q-19 0 -40.5 3t-39.5 10l16 55q14 -5 28.5 -7.5t28.5 -2.5q17 0 25.5 8t8.5 20q0 11 -9 23t-32 14l26 92z" />
    <glyph glyph-name="onesuperior" unicode="&#xb9;" horiz-adv-x="256" 
d="M48 415h52v189l-31 -30l-45 45l80 76h70v-280h49v-68h-175v68z" />
    <glyph glyph-name="ordmasculine" unicode="&#xba;" horiz-adv-x="427" 
d="M214 707q90 0 131 -48t41 -132t-40 -132.5t-131 -48.5t-132.5 47.5t-41.5 133.5q0 85 41 132.5t132 47.5zM214 635q-28 0 -46 -7.5t-28 -22t-13.5 -34.5t-3.5 -44q0 -25 3.5 -45t13.5 -34.5t28 -22.5t47 -8q28 0 45 8.5t27 23.5t13.5 35t3.5 43q0 24 -3.5 43.5t-13.5 34
t-27.5 22.5t-45.5 8z" />
    <glyph glyph-name="guillemotright" unicode="&#xbb;" horiz-adv-x="519" 
d="M135 476q30 -60 70.5 -113t85.5 -104q-45 -51 -85.5 -104.5t-70.5 -113.5h-83q24 58 53 113.5t65 104.5q-36 48 -65 104t-53 113h83zM345 476q29 -60 70 -113.5t86 -103.5q-45 -51 -86 -104t-70 -114h-83q24 58 53 113.5t65 104.5q-36 48 -65 104t-53 113h83z" />
    <glyph glyph-name="onequarter" unicode="&#xbc;" horiz-adv-x="694" 
d="M69 415h52v189l-31 -30l-45 45l80 76h70v-280h49v-68h-175v68zM533 74h-155v60l150 215h77v-206h49l-23 -69h-26v-73h-72v73zM533 143v89l-64 -89h64zM170 -12h-100l507 719h98z" />
    <glyph glyph-name="onehalf" unicode="&#xbd;" horiz-adv-x="695" 
d="M77 415h52v189l-31 -30l-45 45l80 76h70v-280h49v-68h-175v68zM507 69h148v-68h-246v39q0 29 20 49l138 128q18 15 18 37q0 20 -11.5 27t-34.5 7q-24 0 -39 -11t-25 -31l-63 30l5 10q17 35 47 52.5t68 17.5q52 0 87 -22.5t35 -77.5q0 -23 -8 -46.5t-25 -38.5zM145 -12
h-100l507 719h98z" />
    <glyph glyph-name="threequarters" unicode="&#xbe;" horiz-adv-x="684" 
d="M212 559q39 -11 58 -36.5t19 -69.5q0 -57 -31.5 -85t-88.5 -28q-42 0 -73 18.5t-48 56.5l-4 11l62 28l5 -9q11 -20 23 -28.5t35 -8.5q24 0 37.5 11t13.5 35q0 27 -14.5 38.5t-41.5 11.5h-46v51l60 71h-120v69h215v-39q0 -26 -15 -44zM516 74h-155v60l150 215h77v-206h49
l-23 -69h-26v-73h-72v73zM516 143v89l-64 -89h64zM160 -12h-100l507 719h98z" />
    <glyph glyph-name="questiondown" unicode="&#xbf;" horiz-adv-x="384" 
d="M368.001 -142.961q-17.999 -15.999 -40.9971 -27.498q-22.999 -11.499 -48.4971 -19.499q-25.499 -7.99902 -51.4971 -11.999q-25.999 -4 -49.9971 -4q-45.9971 0 -83.9951 10q-37.9971 9.99902 -64.9961 31.998q-26.998 21.998 -41.4971 56.4961t-14.499 83.4951
q0 34.998 10.999 60.9961t28.498 47.4971t38.998 41.9971q21.499 20.499 42.4971 43.498q32.998 36.9971 46.9971 82.4951q13.999 45.4971 13.999 94.4941h86.9951q0 -29.998 -3 -61.9961t-11.499 -63.4961q-8.5 -31.498 -21.999 -60.4971q-13.499 -28.998 -34.498 -51.9961
q-12.999 -14 -28.998 -28.499t-30.498 -30.998t-24.498 -34.498q-10 -17.998 -10 -38.9971q0 -37.998 26.999 -59.4961q26.998 -21.499 85.9941 -21.499q34.998 0 61.9961 12.999q26.999 12.999 49.9971 32.998zM198.012 398.006q-22.999 0 -40.998 17.499t-17.999 41.498
q0 23.998 17.999 40.4971t40.998 16.499q22.998 0 40.9971 -16.499t17.999 -40.4971q0 -23.999 -17.499 -41.498t-41.4971 -17.499z" />
    <glyph glyph-name="Agrave" unicode="&#xc0;" horiz-adv-x="701" 
d="M244 296h209l-91 233l-16 78l-16 -78zM210 198l-73 -198h-119l259 695h135l272 -695h-117l-77 198h-280zM341 737l-84 86v37h100l76 -123h-92z" />
    <glyph glyph-name="Aacute" unicode="&#xc1;" horiz-adv-x="701" 
d="M244 296h209l-91 233l-16 78l-16 -78zM210 198l-73 -198h-119l259 695h135l272 -695h-117l-77 198h-280zM261 737l76 123h97v-25l-84 -98h-89z" />
    <glyph glyph-name="Acircumflex" unicode="&#xc2;" horiz-adv-x="701" 
d="M244 296h209l-91 233l-16 78l-16 -78zM210 198l-73 -198h-119l259 695h135l272 -695h-117l-77 198h-280zM385 860l90 -97v-26h-83l-47 81l-47 -81h-84v26l90 97h81z" />
    <glyph glyph-name="Atilde" unicode="&#xc3;" horiz-adv-x="701" 
d="M244 296h209l-91 233l-16 78l-16 -78zM210 198l-73 -198h-119l259 695h135l272 -695h-117l-77 198h-280zM187 752q0 21 6.5 40.5t19.5 34.5t30.5 24t40.5 9q18 0 32 -5t27 -11t25.5 -11t26.5 -5q25 0 35 8t10 24h67q0 -48 -29 -78t-73 -30q-20 0 -33.5 5.5t-25.5 12
t-24 12t-28 5.5q-17 0 -28.5 -9t-11.5 -26h-67z" />
    <glyph glyph-name="Adieresis" unicode="&#xc4;" horiz-adv-x="701" 
d="M244 296h209l-91 233l-16 78l-16 -78zM210 198l-73 -198h-119l259 695h135l272 -695h-117l-77 198h-280zM448 860q24 0 42 -16.5t18 -41.5q0 -26 -18 -42t-42 -16q-25 0 -42.5 16t-17.5 42q0 25 17.5 41.5t42.5 16.5zM246 860q24 0 42 -16.5t18 -41.5q0 -26 -18 -42
t-42 -16q-25 0 -42.5 16t-17.5 42q0 25 17.5 41.5t42.5 16.5z" />
    <glyph glyph-name="Aring" unicode="&#xc5;" horiz-adv-x="701" 
d="M244 296h209l-91 233l-16 78l-16 -78zM210 198l-73 -198h-119l259 695h135l272 -695h-117l-77 198h-280zM250 748q0 40 28 68t68 28t68 -28t28 -68t-28 -68t-68 -28t-68 28t-28 68zM304 748q0 -17 12 -29t29 -12t29 12t12 29t-12 29t-29 12t-29 -12t-12 -29z" />
    <glyph glyph-name="AE" unicode="&#xc6;" horiz-adv-x="990" 
d="M942 0h-458v198h-252l-93 -198h-121l325 695h602l-33 -105h-316v-169h283v-106h-283v-210h346v-105zM266 296h218v294h-74z" />
    <glyph glyph-name="Ccedilla" unicode="&#xc7;" horiz-adv-x="625" 
d="M155 347q0 -59 8.5 -106t31 -80t63 -50.5t105.5 -17.5q46 0 81 10.5t67 44.5l75 -70q-45 -48 -102 -69t-121 -21q-87 0 -148.5 26t-100.5 73t-57.5 112.5t-18.5 145.5v37q0 76 21.5 136.5t63 102.5t102 64t138.5 22q61 0 119 -20t102 -65l-76 -77q-32 32 -66 44t-79 12
q-107 0 -157.5 -56.5t-50.5 -164.5v-33zM362 6l-18 -65q29 -14 37 -32.5t8 -39.5q0 -39 -31.5 -57t-73.5 -18q-19 0 -40.5 3t-39.5 10l16 55q14 -5 28.5 -7.5t28.5 -2.5q17 0 25.5 8t8.5 20q0 11 -9 23t-32 14l26 92z" />
    <glyph glyph-name="Egrave" unicode="&#xc8;" horiz-adv-x="616" 
d="M568 0h-508v695h511l-33 -105h-366v-169h333v-106h-333v-210h396v-105zM306 737l-84 86v37h100l76 -123h-92z" />
    <glyph glyph-name="Eacute" unicode="&#xc9;" horiz-adv-x="616" 
d="M568 0h-508v695h511l-33 -105h-366v-169h333v-106h-333v-210h396v-105zM238 737l76 123h97v-25l-84 -98h-89z" />
    <glyph glyph-name="Ecircumflex" unicode="&#xca;" horiz-adv-x="616" 
d="M568 0h-508v695h511l-33 -105h-366v-169h333v-106h-333v-210h396v-105zM359 860l90 -97v-26h-83l-47 81l-47 -81h-84v26l90 97h81z" />
    <glyph glyph-name="Edieresis" unicode="&#xcb;" horiz-adv-x="616" 
d="M568 0h-508v695h511l-33 -105h-366v-169h333v-106h-333v-210h396v-105zM429 860q24 0 42 -16.5t18 -41.5q0 -26 -18 -42t-42 -16q-25 0 -42.5 16t-17.5 42q0 25 17.5 41.5t42.5 16.5zM227 860q24 0 42 -16.5t18 -41.5q0 -26 -18 -42t-42 -16q-25 0 -42.5 16t-17.5 42
q0 25 17.5 41.5t42.5 16.5z" />
    <glyph glyph-name="Igrave" unicode="&#xcc;" horiz-adv-x="238" 
d="M173 695v-695h-113v695h113zM115 737l-84 86v37h100l76 -123h-92z" />
    <glyph glyph-name="Iacute" unicode="&#xcd;" horiz-adv-x="238" 
d="M173 695v-695h-113v695h113zM31 737l76 123h97v-25l-84 -98h-89z" />
    <glyph glyph-name="Icircumflex" unicode="&#xce;" horiz-adv-x="238" 
d="M173 695v-695h-113v695h113zM159 860l90 -97v-26h-83l-47 81l-47 -81h-84v26l90 97h81z" />
    <glyph glyph-name="Idieresis" unicode="&#xcf;" horiz-adv-x="238" 
d="M173 695v-695h-113v695h113zM221 860q24 0 42 -16.5t18 -41.5q0 -26 -18 -42t-42 -16q-25 0 -42.5 16t-17.5 42q0 25 17.5 41.5t42.5 16.5zM19 860q24 0 42 -16.5t18 -41.5q0 -26 -18 -42t-42 -16q-25 0 -42.5 16t-17.5 42q0 25 17.5 41.5t42.5 16.5z" />
    <glyph glyph-name="Eth" unicode="&#xd0;" horiz-adv-x="698" 
d="M358 388v-82h-358v82h358zM389 0h-329v695h327q76 0 127.5 -28t83 -74.5t45 -107.5t13.5 -127q0 -69 -11.5 -133.5t-41.5 -114.5t-82 -80t-132 -30zM173 105h181q60 0 95.5 21.5t54.5 56.5t25 81t6 94q0 46 -7 88.5t-27 74t-55.5 50.5t-92.5 19h-180v-485z" />
    <glyph glyph-name="Ntilde" unicode="&#xd1;" horiz-adv-x="696" 
d="M60 0v695h138l324 -521v521h113v-695h-133l-329 533v-533h-113zM198 752q0 21 6.5 40.5t19.5 34.5t30.5 24t40.5 9q18 0 32 -5t27 -11t25.5 -11t26.5 -5q25 0 35 8t10 24h67q0 -48 -29 -78t-73 -30q-20 0 -33.5 5.5t-25.5 12t-24 12t-28 5.5q-17 0 -28.5 -9t-11.5 -26
h-67z" />
    <glyph glyph-name="Ograve" unicode="&#xd2;" horiz-adv-x="753" 
d="M377 -12q-84 0 -147.5 26.5t-105.5 74.5t-63.5 114t-21.5 145v27q0 73 25 134.5t70 105t107 68t136 24.5t136 -24.5t106.5 -68t69.5 -105t25 -134.5v-27q0 -79 -21 -145t-63.5 -114t-105.5 -74.5t-147 -26.5zM377 602q-110 0 -165.5 -62t-55.5 -167v-23q0 -55 11 -102
t37 -81.5t67.5 -54t103.5 -19.5q64 0 106.5 18.5t68 52.5t36.5 81.5t11 104.5v23q0 105 -55.5 167t-164.5 62zM366 737l-84 86v37h100l76 -123h-92z" />
    <glyph glyph-name="Oacute" unicode="&#xd3;" horiz-adv-x="753" 
d="M377 -12q-84 0 -147.5 26.5t-105.5 74.5t-63.5 114t-21.5 145v27q0 73 25 134.5t70 105t107 68t136 24.5t136 -24.5t106.5 -68t69.5 -105t25 -134.5v-27q0 -79 -21 -145t-63.5 -114t-105.5 -74.5t-147 -26.5zM377 602q-110 0 -165.5 -62t-55.5 -167v-23q0 -55 11 -102
t37 -81.5t67.5 -54t103.5 -19.5q64 0 106.5 18.5t68 52.5t36.5 81.5t11 104.5v23q0 105 -55.5 167t-164.5 62zM298 737l76 123h97v-25l-84 -98h-89z" />
    <glyph glyph-name="Ocircumflex" unicode="&#xd4;" horiz-adv-x="753" 
d="M377 -12q-84 0 -147.5 26.5t-105.5 74.5t-63.5 114t-21.5 145v27q0 73 25 134.5t70 105t107 68t136 24.5t136 -24.5t106.5 -68t69.5 -105t25 -134.5v-27q0 -79 -21 -145t-63.5 -114t-105.5 -74.5t-147 -26.5zM377 602q-110 0 -165.5 -62t-55.5 -167v-23q0 -55 11 -102
t37 -81.5t67.5 -54t103.5 -19.5q64 0 106.5 18.5t68 52.5t36.5 81.5t11 104.5v23q0 105 -55.5 167t-164.5 62zM419 860l90 -97v-26h-83l-47 81l-47 -81h-84v26l90 97h81z" />
    <glyph glyph-name="Otilde" unicode="&#xd5;" horiz-adv-x="753" 
d="M377 -12q-84 0 -147.5 26.5t-105.5 74.5t-63.5 114t-21.5 145v27q0 73 25 134.5t70 105t107 68t136 24.5t136 -24.5t106.5 -68t69.5 -105t25 -134.5v-27q0 -79 -21 -145t-63.5 -114t-105.5 -74.5t-147 -26.5zM377 602q-110 0 -165.5 -62t-55.5 -167v-23q0 -55 11 -102
t37 -81.5t67.5 -54t103.5 -19.5q64 0 106.5 18.5t68 52.5t36.5 81.5t11 104.5v23q0 105 -55.5 167t-164.5 62zM210 752q0 21 6.5 40.5t19.5 34.5t30.5 24t40.5 9q18 0 32 -5t27 -11t25.5 -11t26.5 -5q25 0 35 8t10 24h67q0 -48 -29 -78t-73 -30q-20 0 -33.5 5.5t-25.5 12
t-24 12t-28 5.5q-17 0 -28.5 -9t-11.5 -26h-67z" />
    <glyph glyph-name="Odieresis" unicode="&#xd6;" horiz-adv-x="753" 
d="M377 -12q-84 0 -147.5 26.5t-105.5 74.5t-63.5 114t-21.5 145v27q0 73 25 134.5t70 105t107 68t136 24.5t136 -24.5t106.5 -68t69.5 -105t25 -134.5v-27q0 -79 -21 -145t-63.5 -114t-105.5 -74.5t-147 -26.5zM377 602q-110 0 -165.5 -62t-55.5 -167v-23q0 -55 11 -102
t37 -81.5t67.5 -54t103.5 -19.5q64 0 106.5 18.5t68 52.5t36.5 81.5t11 104.5v23q0 105 -55.5 167t-164.5 62zM489 860q24 0 42 -16.5t18 -41.5q0 -26 -18 -42t-42 -16q-25 0 -42.5 16t-17.5 42q0 25 17.5 41.5t42.5 16.5zM287 860q24 0 42 -16.5t18 -41.5q0 -26 -18 -42
t-42 -16q-25 0 -42.5 16t-17.5 42q0 25 17.5 41.5t42.5 16.5z" />
    <glyph glyph-name="multiply" unicode="&#xd7;" horiz-adv-x="524" 
d="M335 314l147 -147l-72 -72l-147 147l-148 -147l-73 71l148 148l-148 148l73 72l148 -148l146 148l73 -72z" />
    <glyph glyph-name="Oslash" unicode="&#xd8;" horiz-adv-x="753" 
d="M660 707l73 -61l-630 -658l-72 62zM377 -12q-84 0 -147.5 26.5t-105.5 74.5t-63.5 114t-21.5 145v27q0 73 25 134.5t70 105t107 68t136 24.5t136 -24.5t106.5 -68t69.5 -105t25 -134.5v-27q0 -79 -21 -145t-63.5 -114t-105.5 -74.5t-147 -26.5zM377 602
q-110 0 -165.5 -62t-55.5 -167v-23q0 -55 11 -102t37 -81.5t67.5 -54t103.5 -19.5q64 0 106.5 18.5t68 52.5t36.5 81.5t11 104.5v23q0 105 -55.5 167t-164.5 62z" />
    <glyph glyph-name="Ugrave" unicode="&#xd9;" horiz-adv-x="673" 
d="M165 695v-389q0 -53 7.5 -93t26.5 -66.5t52.5 -40t85.5 -13.5q50 0 83 14t52.5 41t27.5 67t8 91v389h113v-396q0 -73 -15 -130.5t-48.5 -97.5t-88 -61.5t-132.5 -21.5q-81 0 -135.5 20.5t-87.5 60.5t-47.5 98t-14.5 132v396h113zM327 737l-84 86v37h100l76 -123h-92z" />
    <glyph glyph-name="Uacute" unicode="&#xda;" horiz-adv-x="673" 
d="M165 695v-389q0 -53 7.5 -93t26.5 -66.5t52.5 -40t85.5 -13.5q50 0 83 14t52.5 41t27.5 67t8 91v389h113v-396q0 -73 -15 -130.5t-48.5 -97.5t-88 -61.5t-132.5 -21.5q-81 0 -135.5 20.5t-87.5 60.5t-47.5 98t-14.5 132v396h113zM264 737l76 123h97v-25l-84 -98h-89z" />
    <glyph glyph-name="Ucircumflex" unicode="&#xdb;" horiz-adv-x="673" 
d="M165 695v-389q0 -53 7.5 -93t26.5 -66.5t52.5 -40t85.5 -13.5q50 0 83 14t52.5 41t27.5 67t8 91v389h113v-396q0 -73 -15 -130.5t-48.5 -97.5t-88 -61.5t-132.5 -21.5q-81 0 -135.5 20.5t-87.5 60.5t-47.5 98t-14.5 132v396h113zM390 860l90 -97v-26h-83l-47 81l-47 -81
h-84v26l90 97h81z" />
    <glyph glyph-name="Udieresis" unicode="&#xdc;" horiz-adv-x="673" 
d="M165 695v-389q0 -53 7.5 -93t26.5 -66.5t52.5 -40t85.5 -13.5q50 0 83 14t52.5 41t27.5 67t8 91v389h113v-396q0 -73 -15 -130.5t-48.5 -97.5t-88 -61.5t-132.5 -21.5q-81 0 -135.5 20.5t-87.5 60.5t-47.5 98t-14.5 132v396h113zM442 860q24 0 42 -16.5t18 -41.5
q0 -26 -18 -42t-42 -16q-25 0 -42.5 16t-17.5 42q0 25 17.5 41.5t42.5 16.5zM240 860q24 0 42 -16.5t18 -41.5q0 -26 -18 -42t-42 -16q-25 0 -42.5 16t-17.5 42q0 25 17.5 41.5t42.5 16.5z" />
    <glyph glyph-name="Yacute" unicode="&#xdd;" horiz-adv-x="634" 
d="M622 678l-227 -354q-7 -10 -20 -10v-314h-116v314q-13 0 -20 10l-226 354l108 29l191 -301h11l190 301zM248 737l76 123h97v-25l-84 -98h-89z" />
    <glyph glyph-name="Thorn" unicode="&#xde;" horiz-adv-x="604" 
d="M60 695h114v-130h199q54 0 96.5 -11.5t72 -37t45 -67.5t15.5 -102v-5q0 -61 -17.5 -102t-48.5 -65.5t-74 -35t-94 -10.5h-194v-129h-114v695zM174 449v-216h194q33 0 56.5 5t38 17.5t21.5 34.5t7 57q0 34 -6 54.5t-19.5 31t-36 13.5t-56.5 3h-199z" />
    <glyph glyph-name="germandbls" unicode="&#xdf;" horiz-adv-x="592" 
d="M275 369q0 28 11 50t23.5 42.5t23.5 41.5t11 45q0 34 -25 49t-55 15t-49 -8.5t-30.5 -23.5t-15.5 -36t-4 -47v-497h-109v497q0 101 51.5 155.5t156.5 54.5q37 0 71.5 -9.5t61.5 -29t43 -49.5t16 -71q0 -26 -11 -48t-23.5 -42t-23.5 -38.5t-11 -36.5q0 -19 13.5 -34.5
t34 -30t44 -30.5t44 -35.5t34 -44t13.5 -57.5q0 -36 -15 -65.5t-40.5 -51.5t-58 -34t-67.5 -12q-72 0 -116.5 34t-74.5 97l94 45q8 -16 16.5 -30.5t20 -26t26 -18t34.5 -6.5q29 0 48 16.5t19 45.5q0 18 -13.5 33.5t-33.5 30.5t-43.5 31.5t-43.5 35.5t-33.5 41.5t-13.5 51.5z
" />
    <glyph glyph-name="agrave" unicode="&#xe0;" 
d="M221 85q18 0 40 7.5t44 18.5t42.5 23.5t36.5 21.5v52h-175q-32 0 -48.5 -17t-16.5 -49q0 -35 22 -46t55 -11zM280 516q42 0 80.5 -12t68 -35.5t47 -57.5t17.5 -78v-218q0 -34 6.5 -59.5t22.5 -55.5h-115q-8 11 -12 28t-6 31q-41 -30 -84.5 -50.5t-94.5 -20.5
q-34 0 -65.5 11t-55.5 31.5t-38.5 49t-14.5 63.5q0 37 13 67t36.5 51t55 32t67.5 11h176v12q0 55 -26.5 79t-77.5 25q-46 0 -80.5 -9.5t-72.5 -29.5l-47 81q49 28 96 41t104 13zM267 585l-67 97v25h92l52 -122h-77z" />
    <glyph glyph-name="aacute" unicode="&#xe1;" 
d="M221 85q18 0 40 7.5t44 18.5t42.5 23.5t36.5 21.5v52h-175q-32 0 -48.5 -17t-16.5 -49q0 -35 22 -46t55 -11zM280 516q42 0 80.5 -12t68 -35.5t47 -57.5t17.5 -78v-218q0 -34 6.5 -59.5t22.5 -55.5h-115q-8 11 -12 28t-6 31q-41 -30 -84.5 -50.5t-94.5 -20.5
q-34 0 -65.5 11t-55.5 31.5t-38.5 49t-14.5 63.5q0 37 13 67t36.5 51t55 32t67.5 11h176v12q0 55 -26.5 79t-77.5 25q-46 0 -80.5 -9.5t-72.5 -29.5l-47 81q49 28 96 41t104 13zM213 585l52 122h92v-25l-67 -97h-77z" />
    <glyph glyph-name="acircumflex" unicode="&#xe2;" 
d="M221 85q18 0 40 7.5t44 18.5t42.5 23.5t36.5 21.5v52h-175q-32 0 -48.5 -17t-16.5 -49q0 -35 22 -46t55 -11zM280 516q42 0 80.5 -12t68 -35.5t47 -57.5t17.5 -78v-218q0 -34 6.5 -59.5t22.5 -55.5h-115q-8 11 -12 28t-6 31q-41 -30 -84.5 -50.5t-94.5 -20.5
q-34 0 -65.5 11t-55.5 31.5t-38.5 49t-14.5 63.5q0 37 13 67t36.5 51t55 32t67.5 11h176v12q0 55 -26.5 79t-77.5 25q-46 0 -80.5 -9.5t-72.5 -29.5l-47 81q49 28 96 41t104 13zM325 707l90 -97v-26h-83l-47 81l-47 -81h-84v26l90 97h81z" />
    <glyph glyph-name="atilde" unicode="&#xe3;" 
d="M221 85q18 0 40 7.5t44 18.5t42.5 23.5t36.5 21.5v52h-175q-32 0 -48.5 -17t-16.5 -49q0 -35 22 -46t55 -11zM280 516q42 0 80.5 -12t68 -35.5t47 -57.5t17.5 -78v-218q0 -34 6.5 -59.5t22.5 -55.5h-115q-8 11 -12 28t-6 31q-41 -30 -84.5 -50.5t-94.5 -20.5
q-34 0 -65.5 11t-55.5 31.5t-38.5 49t-14.5 63.5q0 37 13 67t36.5 51t55 32t67.5 11h176v12q0 55 -26.5 79t-77.5 25q-46 0 -80.5 -9.5t-72.5 -29.5l-47 81q49 28 96 41t104 13zM135 599q0 21 6.5 40.5t19.5 34.5t30.5 24t40.5 9q18 0 32 -5t27 -11t25.5 -11t26.5 -5
q25 0 35 8t10 24h67q0 -48 -29 -78t-73 -30q-20 0 -33.5 5.5t-25.5 12t-24 12t-28 5.5q-17 0 -28.5 -9t-11.5 -26h-67z" />
    <glyph glyph-name="adieresis" unicode="&#xe4;" 
d="M221 85q18 0 40 7.5t44 18.5t42.5 23.5t36.5 21.5v52h-175q-32 0 -48.5 -17t-16.5 -49q0 -35 22 -46t55 -11zM280 516q42 0 80.5 -12t68 -35.5t47 -57.5t17.5 -78v-218q0 -34 6.5 -59.5t22.5 -55.5h-115q-8 11 -12 28t-6 31q-41 -30 -84.5 -50.5t-94.5 -20.5
q-34 0 -65.5 11t-55.5 31.5t-38.5 49t-14.5 63.5q0 37 13 67t36.5 51t55 32t67.5 11h176v12q0 55 -26.5 79t-77.5 25q-46 0 -80.5 -9.5t-72.5 -29.5l-47 81q49 28 96 41t104 13zM384 707q24 0 42 -16.5t18 -41.5q0 -26 -18 -42t-42 -16q-25 0 -42.5 16t-17.5 42
q0 25 17.5 41.5t42.5 16.5zM182 707q24 0 42 -16.5t18 -41.5q0 -26 -18 -42t-42 -16q-25 0 -42.5 16t-17.5 42q0 25 17.5 41.5t42.5 16.5z" />
    <glyph glyph-name="aring" unicode="&#xe5;" 
d="M221 85q18 0 40 7.5t44 18.5t42.5 23.5t36.5 21.5v52h-175q-32 0 -48.5 -17t-16.5 -49q0 -35 22 -46t55 -11zM280 516q42 0 80.5 -12t68 -35.5t47 -57.5t17.5 -78v-218q0 -34 6.5 -59.5t22.5 -55.5h-115q-8 11 -12 28t-6 31q-41 -30 -84.5 -50.5t-94.5 -20.5
q-34 0 -65.5 11t-55.5 31.5t-38.5 49t-14.5 63.5q0 37 13 67t36.5 51t55 32t67.5 11h176v12q0 55 -26.5 79t-77.5 25q-46 0 -80.5 -9.5t-72.5 -29.5l-47 81q49 28 96 41t104 13zM174 631q0 40 28 68t68 28t68 -28t28 -68t-28 -68t-68 -28t-68 28t-28 68zM228 631
q0 -17 12 -29t29 -12t29 12t12 29t-12 29t-29 12t-29 -12t-12 -29z" />
    <glyph glyph-name="ae" unicode="&#xe6;" horiz-adv-x="906" 
d="M451 447q36 35 87 52t101 17q116 0 174.5 -65t58.5 -176v-57h-378q0 -38 12 -63.5t33 -41t51 -22t66 -6.5q35 0 61 14.5t47 42.5l6 7l96 -39l-7 -11q-33 -57 -89 -84t-120 -27q-27 0 -55.5 3.5t-55.5 12t-51.5 22.5t-43.5 35q-54 -35 -111 -54t-123 -19q-37 0 -68.5 10
t-55 30t-37 48.5t-13.5 66.5q0 36 14 65.5t37.5 51t54.5 33.5t66 12h177v24q0 23 -8.5 40t-23 28t-33.5 16.5t-40 5.5q-24 0 -44 -3.5t-38 -9.5t-36 -15t-38 -21l-48 85q26 15 49.5 26.5t47.5 19t49.5 11.5t57.5 4q50 0 95.5 -16.5t75.5 -52.5zM399 146q-6 17 -8.5 31
t-4.5 32h-177q-28 0 -46.5 -20t-18.5 -47q0 -33 22.5 -45t54.5 -12q48 0 93 18t85 43zM494 311h269q-1 54 -35.5 81t-88.5 27q-25 0 -50.5 -7t-46 -20.5t-34 -33.5t-14.5 -47z" />
    <glyph glyph-name="ccedilla" unicode="&#xe7;" horiz-adv-x="494" 
d="M289 516q45 0 89 -16t76 -48l-68 -67q-27 21 -48.5 27.5t-52.5 6.5q-76 0 -110.5 -38.5t-34.5 -111.5v-16q0 -39 7 -70t23.5 -52.5t44.5 -33.5t70 -12q31 0 56 6t50 26l64 -62q-33 -35 -77.5 -51t-92.5 -16q-65 0 -112 19t-77 54t-44.5 83t-14.5 107v19q0 115 66.5 180.5
t185.5 65.5zM299 6l-18 -65q29 -14 37 -32.5t8 -39.5q0 -39 -31.5 -57t-73.5 -18q-19 0 -40.5 3t-39.5 10l16 55q14 -5 28.5 -7.5t28.5 -2.5q17 0 25.5 8t8.5 20q0 11 -9 23t-32 14l26 92z" />
    <glyph glyph-name="egrave" unicode="&#xe8;" horiz-adv-x="549" 
d="M149 218q0 -29 7.5 -53.5t25 -42t46.5 -27.5t72 -10q38 0 59 11t45 34l90 -37q-32 -54 -85 -79.5t-114 -25.5q-125 0 -190 65t-65 192v11v25t1 23q2 48 22 87t53 67t76 43t91 15q55 0 98 -17.5t73 -49t45.5 -76t15.5 -98.5v-57h-366zM149 311h257q0 24 -9 44t-25.5 34
t-39 22t-49.5 8q-25 0 -49 -6t-43 -19.5t-30.5 -34t-11.5 -48.5zM271 585l-67 97v25h92l52 -122h-77z" />
    <glyph glyph-name="eacute" unicode="&#xe9;" horiz-adv-x="549" 
d="M149 218q0 -29 7.5 -53.5t25 -42t46.5 -27.5t72 -10q38 0 59 11t45 34l90 -37q-32 -54 -85 -79.5t-114 -25.5q-125 0 -190 65t-65 192v11v25t1 23q2 48 22 87t53 67t76 43t91 15q55 0 98 -17.5t73 -49t45.5 -76t15.5 -98.5v-57h-366zM149 311h257q0 24 -9 44t-25.5 34
t-39 22t-49.5 8q-25 0 -49 -6t-43 -19.5t-30.5 -34t-11.5 -48.5zM215 585l52 122h92v-25l-67 -97h-77z" />
    <glyph glyph-name="ecircumflex" unicode="&#xea;" horiz-adv-x="549" 
d="M149 218q0 -29 7.5 -53.5t25 -42t46.5 -27.5t72 -10q38 0 59 11t45 34l90 -37q-32 -54 -85 -79.5t-114 -25.5q-125 0 -190 65t-65 192v11v25t1 23q2 48 22 87t53 67t76 43t91 15q55 0 98 -17.5t73 -49t45.5 -76t15.5 -98.5v-57h-366zM149 311h257q0 24 -9 44t-25.5 34
t-39 22t-49.5 8q-25 0 -49 -6t-43 -19.5t-30.5 -34t-11.5 -48.5zM312 707l90 -97v-26h-83l-47 81l-47 -81h-84v26l90 97h81z" />
    <glyph glyph-name="edieresis" unicode="&#xeb;" horiz-adv-x="549" 
d="M149 218q0 -29 7.5 -53.5t25 -42t46.5 -27.5t72 -10q38 0 59 11t45 34l90 -37q-32 -54 -85 -79.5t-114 -25.5q-125 0 -190 65t-65 192v11v25t1 23q2 48 22 87t53 67t76 43t91 15q55 0 98 -17.5t73 -49t45.5 -76t15.5 -98.5v-57h-366zM149 311h257q0 24 -9 44t-25.5 34
t-39 22t-49.5 8q-25 0 -49 -6t-43 -19.5t-30.5 -34t-11.5 -48.5zM380 707q24 0 42 -16.5t18 -41.5q0 -26 -18 -42t-42 -16q-25 0 -42.5 16t-17.5 42q0 25 17.5 41.5t42.5 16.5zM178 707q24 0 42 -16.5t18 -41.5q0 -26 -18 -42t-42 -16q-25 0 -42.5 16t-17.5 42
q0 25 17.5 41.5t42.5 16.5z" />
    <glyph glyph-name="igrave" unicode="&#xec;" horiz-adv-x="203" 
d="M47 0v504h109v-504h-109zM97 585l-67 97v25h92l52 -122h-77z" />
    <glyph glyph-name="iacute" unicode="&#xed;" horiz-adv-x="202" 
d="M45 0v504h109v-504h-109zM28 585l52 122h92v-25l-67 -97h-77z" />
    <glyph glyph-name="icircumflex" unicode="&#xee;" horiz-adv-x="291" 
d="M89 0v504h109v-504h-109zM186 707l90 -97v-26h-83l-47 81l-47 -81h-84v26l90 97h81z" />
    <glyph glyph-name="idieresis" unicode="&#xef;" horiz-adv-x="361" 
d="M129 0v504h109v-504h-109zM281 707q24 0 42 -16.5t18 -41.5q0 -26 -18 -42t-42 -16q-25 0 -42.5 16t-17.5 42q0 25 17.5 41.5t42.5 16.5zM79 707q24 0 42 -16.5t18 -41.5q0 -26 -18 -42t-42 -16q-25 0 -42.5 16t-17.5 42q0 25 17.5 41.5t42.5 16.5z" />
    <glyph glyph-name="eth" unicode="&#xf0;" horiz-adv-x="523" 
d="M182 757q19 -11 37 -22t35 -24q15 -11 29.5 -23t28.5 -25l99 47l35 -66l-81 -38q59 -72 91 -157.5t32 -178.5v-25q0 -55 -14 -102t-43 -81.5t-72.5 -54t-103.5 -19.5t-103 19.5t-71 54t-41 81.5t-13 103v17q0 51 15 95t44 76t71.5 50.5t97.5 18.5q14 0 32.5 -3t32.5 -6
q-11 17 -24.5 34.5t-26.5 33.5l-112 -52l-34 65l92 43q-20 19 -42 36t-45 31zM392 246v24q0 62 -35 100t-101 38q-69 0 -101.5 -40.5t-32.5 -104.5v-17q0 -36 6 -65.5t21.5 -51.5t41.5 -34t66 -12q39 0 65 13t41.5 35t22 51.5t6.5 63.5z" />
    <glyph glyph-name="ntilde" unicode="&#xf1;" horiz-adv-x="569" 
d="M305 420q-16 0 -34 -3.5t-35 -9.5t-32.5 -15.5t-26.5 -21.5v-370h-109v380q0 27 -4 47.5t-15 43.5l98 45q8 -14 14 -28t10 -31h6q13 13 30.5 24t36.5 19t38.5 12t36.5 4q43 0 78.5 -11.5t61.5 -33.5t40.5 -55.5t14.5 -76.5v-339h-109v317q0 103 -100 103zM124 599
q0 21 6.5 40.5t19.5 34.5t30.5 24t40.5 9q18 0 32 -5t27 -11t25.5 -11t26.5 -5q25 0 35 8t10 24h67q0 -48 -29 -78t-73 -30q-20 0 -33.5 5.5t-25.5 12t-24 12t-28 5.5q-17 0 -28.5 -9t-11.5 -26h-67z" />
    <glyph glyph-name="ograve" unicode="&#xf2;" horiz-adv-x="573" 
d="M432 252v20q0 66 -35 107t-111 41t-110 -41t-34 -108v-23q0 -36 6 -65.5t22 -51.5t44 -34t72 -12t72 12.5t44.5 35t23 53t6.5 66.5zM285 -12q-60 0 -106 20.5t-77 56t-47 83.5t-16 104v19q1 53 18.5 98t49.5 77.5t77 51t101 18.5q53 0 98.5 -18.5t79.5 -50.5t53 -77
t19 -97v-21q0 -56 -16.5 -104t-48.5 -83.5t-78.5 -56t-106.5 -20.5zM283 585l-67 97v25h92l52 -122h-77z" />
    <glyph glyph-name="oacute" unicode="&#xf3;" horiz-adv-x="573" 
d="M432 252v20q0 66 -35 107t-111 41t-110 -41t-34 -108v-23q0 -36 6 -65.5t22 -51.5t44 -34t72 -12t72 12.5t44.5 35t23 53t6.5 66.5zM285 -12q-60 0 -106 20.5t-77 56t-47 83.5t-16 104v19q1 53 18.5 98t49.5 77.5t77 51t101 18.5q53 0 98.5 -18.5t79.5 -50.5t53 -77
t19 -97v-21q0 -56 -16.5 -104t-48.5 -83.5t-78.5 -56t-106.5 -20.5zM227 585l52 122h92v-25l-67 -97h-77z" />
    <glyph glyph-name="ocircumflex" unicode="&#xf4;" horiz-adv-x="573" 
d="M432 252v20q0 66 -35 107t-111 41t-110 -41t-34 -108v-23q0 -36 6 -65.5t22 -51.5t44 -34t72 -12t72 12.5t44.5 35t23 53t6.5 66.5zM285 -12q-60 0 -106 20.5t-77 56t-47 83.5t-16 104v19q1 53 18.5 98t49.5 77.5t77 51t101 18.5q53 0 98.5 -18.5t79.5 -50.5t53 -77
t19 -97v-21q0 -56 -16.5 -104t-48.5 -83.5t-78.5 -56t-106.5 -20.5zM334 707l90 -97v-26h-83l-47 81l-47 -81h-84v26l90 97h81z" />
    <glyph glyph-name="otilde" unicode="&#xf5;" horiz-adv-x="573" 
d="M432 252v20q0 66 -35 107t-111 41t-110 -41t-34 -108v-23q0 -36 6 -65.5t22 -51.5t44 -34t72 -12t72 12.5t44.5 35t23 53t6.5 66.5zM285 -12q-60 0 -106 20.5t-77 56t-47 83.5t-16 104v19q1 53 18.5 98t49.5 77.5t77 51t101 18.5q53 0 98.5 -18.5t79.5 -50.5t53 -77
t19 -97v-21q0 -56 -16.5 -104t-48.5 -83.5t-78.5 -56t-106.5 -20.5zM123 599q0 21 6.5 40.5t19.5 34.5t30.5 24t40.5 9q18 0 32 -5t27 -11t25.5 -11t26.5 -5q25 0 35 8t10 24h67q0 -48 -29 -78t-73 -30q-20 0 -33.5 5.5t-25.5 12t-24 12t-28 5.5q-17 0 -28.5 -9t-11.5 -26
h-67z" />
    <glyph glyph-name="odieresis" unicode="&#xf6;" horiz-adv-x="573" 
d="M432 252v20q0 66 -35 107t-111 41t-110 -41t-34 -108v-23q0 -36 6 -65.5t22 -51.5t44 -34t72 -12t72 12.5t44.5 35t23 53t6.5 66.5zM285 -12q-60 0 -106 20.5t-77 56t-47 83.5t-16 104v19q1 53 18.5 98t49.5 77.5t77 51t101 18.5q53 0 98.5 -18.5t79.5 -50.5t53 -77
t19 -97v-21q0 -56 -16.5 -104t-48.5 -83.5t-78.5 -56t-106.5 -20.5zM392 707q24 0 42 -16.5t18 -41.5q0 -26 -18 -42t-42 -16q-25 0 -42.5 16t-17.5 42q0 25 17.5 41.5t42.5 16.5zM190 707q24 0 42 -16.5t18 -41.5q0 -26 -18 -42t-42 -16q-25 0 -42.5 16t-17.5 42
q0 25 17.5 41.5t42.5 16.5z" />
    <glyph glyph-name="divide" unicode="&#xf7;" horiz-adv-x="500" 
d="M247 220q23 0 42 -17q18 -18 18 -43q0 -24 -18 -42q-19 -17 -42 -17q-24 0 -43 17q-17 19 -17 42q0 24 17 43q19 17 43 17zM247 526q23 0 42 -17q18 -18 18 -43q0 -24 -18 -42q-19 -17 -42 -17q-24 0 -43 17q-17 19 -17 42q0 24 17 43q19 17 43 17zM15 366h472
q5 -17 7 -28.5t2 -22.5t-2 -22.5t-7 -28.5h-472q-10 31 -10 51t10 51z" />
    <glyph glyph-name="oslash" unicode="&#xf8;" horiz-adv-x="573" 
d="M484 516l59 -52l-456 -476l-61 50zM432 252v20q0 66 -35 107t-111 41t-110 -41t-34 -108v-23q0 -36 6 -65.5t22 -51.5t44 -34t72 -12t72 12.5t44.5 35t23 53t6.5 66.5zM285 -12q-60 0 -106 20.5t-77 56t-47 83.5t-16 104v19q1 53 18.5 98t49.5 77.5t77 51t101 18.5
q53 0 98.5 -18.5t79.5 -50.5t53 -77t19 -97v-21q0 -56 -16.5 -104t-48.5 -83.5t-78.5 -56t-106.5 -20.5z" />
    <glyph glyph-name="ugrave" unicode="&#xf9;" 
d="M246 -12q-94 0 -143 45t-49 139v313l109 31v-321q0 -26 2.5 -46t11.5 -34.5t25.5 -22t43.5 -7.5q21 0 39 7t34.5 18.5t31 25.5t27.5 29v320l109 31v-401q0 -38 7 -62q3 -12 8.5 -25.5t13.5 -27.5h-115q-8 12 -13 28.5t-5 30.5q-29 -30 -61.5 -50.5t-75.5 -20.5zM275 585
l-67 97v25h92l52 -122h-77z" />
    <glyph glyph-name="uacute" unicode="&#xfa;" 
d="M246 -12q-94 0 -143 45t-49 139v313l109 31v-321q0 -26 2.5 -46t11.5 -34.5t25.5 -22t43.5 -7.5q21 0 39 7t34.5 18.5t31 25.5t27.5 29v320l109 31v-401q0 -38 7 -62q3 -12 8.5 -25.5t13.5 -27.5h-115q-8 12 -13 28.5t-5 30.5q-29 -30 -61.5 -50.5t-75.5 -20.5zM218 585
l52 122h92v-25l-67 -97h-77z" />
    <glyph glyph-name="ucircumflex" unicode="&#xfb;" 
d="M246 -12q-94 0 -143 45t-49 139v313l109 31v-321q0 -26 2.5 -46t11.5 -34.5t25.5 -22t43.5 -7.5q21 0 39 7t34.5 18.5t31 25.5t27.5 29v320l109 31v-401q0 -38 7 -62q3 -12 8.5 -25.5t13.5 -27.5h-115q-8 12 -13 28.5t-5 30.5q-29 -30 -61.5 -50.5t-75.5 -20.5zM331 707
l90 -97v-26h-83l-47 81l-47 -81h-84v26l90 97h81z" />
    <glyph glyph-name="udieresis" unicode="&#xfc;" 
d="M246 -12q-94 0 -143 45t-49 139v313l109 31v-321q0 -26 2.5 -46t11.5 -34.5t25.5 -22t43.5 -7.5q21 0 39 7t34.5 18.5t31 25.5t27.5 29v320l109 31v-401q0 -38 7 -62q3 -12 8.5 -25.5t13.5 -27.5h-115q-8 12 -13 28.5t-5 30.5q-29 -30 -61.5 -50.5t-75.5 -20.5zM381 707
q24 0 42 -16.5t18 -41.5q0 -26 -18 -42t-42 -16q-25 0 -42.5 16t-17.5 42q0 25 17.5 41.5t42.5 16.5zM179 707q24 0 42 -16.5t18 -41.5q0 -26 -18 -42t-42 -16q-25 0 -42.5 16t-17.5 42q0 25 17.5 41.5t42.5 16.5z" />
    <glyph glyph-name="yacute" unicode="&#xfd;" horiz-adv-x="564" 
d="M332 -107q-8 -20 -18 -37.5t-24.5 -31.5t-32.5 -22t-41 -8q-17 0 -39.5 3.5t-39.5 8.5v86h42q22 0 31.5 4.5t18.5 27.5l30 81q-47 0 -63 40l-168 441l103 30l144 -376q7 -18 28 -18l146 394l104 -30zM235 585l52 122h92v-25l-67 -97h-77z" />
    <glyph glyph-name="thorn" unicode="&#xfe;" horiz-adv-x="517" 
d="M169 485q18 11 42 19q19 7 39 9.5t40 2.5q51 0 95.5 -18.5t73.5 -55.5q29 -35 43 -81q14 -50 14 -102q0 -26 -3.5 -52.5t-8.5 -50.5q-11 -49 -38 -88q-27 -38 -71 -59q-24 -12 -51 -16.5t-54 -4.5q-20 0 -40 2.5t-40 8.5q-11 4 -21 8.5t-20 10.5v-212h-109v873l109 32
v-226zM408 325q-7 29 -21 51q-14 21 -37 32q-14 7 -29 9.5t-30 2.5t-30 -2.5t-29 -9.5q-21 -10 -37 -32q-8 -11 -12.5 -23.5t-7.5 -26.5q-6 -30 -6 -70q0 -17 1 -34t3 -32q2 -14 5.5 -28.5t10.5 -27.5q13 -23 36 -37q14 -8 32 -10.5t34 -2.5q17 0 34 3t31 11q24 13 37 37
q14 26 17 56q2 16 3.5 33t1.5 34q0 18 -1.5 35t-5.5 32z" />
    <glyph glyph-name="ydieresis" unicode="&#xff;" horiz-adv-x="564" 
d="M332 -107q-8 -20 -18 -37.5t-24.5 -31.5t-32.5 -22t-41 -8q-17 0 -39.5 3.5t-39.5 8.5v86h42q22 0 31.5 4.5t18.5 27.5l30 81q-47 0 -63 40l-168 441l103 30l144 -376q7 -18 28 -18l146 394l104 -30zM393 707q24 0 42 -16.5t18 -41.5q0 -26 -18 -42t-42 -16
q-25 0 -42.5 16t-17.5 42q0 25 17.5 41.5t42.5 16.5zM191 707q24 0 42 -16.5t18 -41.5q0 -26 -18 -42t-42 -16q-25 0 -42.5 16t-17.5 42q0 25 17.5 41.5t42.5 16.5z" />
    <glyph glyph-name="Amacron" unicode="&#x100;" horiz-adv-x="701" 
d="M244 296h209l-91 233l-16 78l-16 -78zM210 198l-73 -198h-119l259 695h135l272 -695h-117l-77 198h-280zM199 844h296q4 -8 5.5 -22t1.5 -23t-1.5 -23t-5.5 -22h-296q-4 8 -5.5 22t-1.5 24q0 9 1.5 22.5t5.5 21.5z" />
    <glyph glyph-name="amacron" unicode="&#x101;" 
d="M221 85q18 0 40 7.5t44 18.5t42.5 23.5t36.5 21.5v52h-175q-32 0 -48.5 -17t-16.5 -49q0 -35 22 -46t55 -11zM280 516q42 0 80.5 -12t68 -35.5t47 -57.5t17.5 -78v-218q0 -34 6.5 -59.5t22.5 -55.5h-115q-8 11 -12 28t-6 31q-41 -30 -84.5 -50.5t-94.5 -20.5
q-34 0 -65.5 11t-55.5 31.5t-38.5 49t-14.5 63.5q0 37 13 67t36.5 51t55 32t67.5 11h176v12q0 55 -26.5 79t-77.5 25q-46 0 -80.5 -9.5t-72.5 -29.5l-47 81q49 28 96 41t104 13zM134 695h296q4 -8 5.5 -22t1.5 -23t-1.5 -23t-5.5 -22h-296q-4 8 -5.5 22t-1.5 24
q0 9 1.5 22.5t5.5 21.5z" />
    <glyph glyph-name="Abreve" unicode="&#x102;" horiz-adv-x="701" 
d="M244 296h209l-91 233l-16 78l-16 -78zM210 198l-73 -198h-119l259 695h135l272 -695h-117l-77 198h-280zM346 738q-28 0 -54.5 6.5t-47.5 21.5t-33.5 38t-12.5 56h71q0 -30 22.5 -42.5t54.5 -12.5q30 0 53.5 12t23.5 43h71q0 -33 -13 -56.5t-34 -38t-47.5 -21t-53.5 -6.5
z" />
    <glyph glyph-name="abreve" unicode="&#x103;" 
d="M221 85q18 0 40 7.5t44 18.5t42.5 23.5t36.5 21.5v52h-175q-32 0 -48.5 -17t-16.5 -49q0 -35 22 -46t55 -11zM280 516q42 0 80.5 -12t68 -35.5t47 -57.5t17.5 -78v-218q0 -34 6.5 -59.5t22.5 -55.5h-115q-8 11 -12 28t-6 31q-41 -30 -84.5 -50.5t-94.5 -20.5
q-34 0 -65.5 11t-55.5 31.5t-38.5 49t-14.5 63.5q0 37 13 67t36.5 51t55 32t67.5 11h176v12q0 55 -26.5 79t-77.5 25q-46 0 -80.5 -9.5t-72.5 -29.5l-47 81q49 28 96 41t104 13zM280 585q-28 0 -54.5 6.5t-47.5 21.5t-33.5 38t-12.5 56h71q0 -30 22.5 -42.5t54.5 -12.5
q30 0 53.5 12t23.5 43h71q0 -33 -13 -56.5t-34 -38t-47.5 -21t-53.5 -6.5z" />
    <glyph glyph-name="Aogonek" unicode="&#x104;" horiz-adv-x="701" 
d="M244 296h209l-91 233l-16 78l-16 -78zM210 198l-73 -198h-119l259 695h135l272 -695h-117l-77 198h-280zM665 11q-27 -20 -39.5 -44t-12.5 -44t7.5 -34t30.5 -14q18 0 44 9v-71q-21 -10 -44 -14.5t-40 -4.5q-20 0 -38 6.5t-31 18.5t-20.5 28.5t-7.5 35.5q0 27 13 63
t41 65h97z" />
    <glyph glyph-name="aogonek" unicode="&#x105;" 
d="M221 85q18 0 40 7.5t44 18.5t42.5 23.5t36.5 21.5v52h-175q-32 0 -48.5 -17t-16.5 -49q0 -35 22 -46t55 -11zM280 516q42 0 80.5 -12t68 -35.5t47 -57.5t17.5 -78v-218q0 -34 6.5 -59.5t22.5 -55.5h-115q-8 11 -12 28t-6 31q-41 -30 -84.5 -50.5t-94.5 -20.5
q-34 0 -65.5 11t-55.5 31.5t-38.5 49t-14.5 63.5q0 37 13 67t36.5 51t55 32t67.5 11h176v12q0 55 -26.5 79t-77.5 25q-46 0 -80.5 -9.5t-72.5 -29.5l-47 81q49 28 96 41t104 13zM507 11q-27 -20 -39.5 -44t-12.5 -44t7.5 -34t30.5 -14q18 0 44 9v-71q-21 -10 -44 -14.5
t-40 -4.5q-20 0 -38 6.5t-31 18.5t-20.5 28.5t-7.5 35.5q0 27 13 63t41 65h97z" />
    <glyph glyph-name="Cacute" unicode="&#x106;" horiz-adv-x="625" 
d="M155 347q0 -59 8.5 -106t31 -80t63 -50.5t105.5 -17.5q46 0 81 10.5t67 44.5l75 -70q-45 -48 -102 -69t-121 -21q-87 0 -148.5 26t-100.5 73t-57.5 112.5t-18.5 145.5v37q0 76 21.5 136.5t63 102.5t102 64t138.5 22q61 0 119 -20t102 -65l-76 -77q-32 32 -66 44t-79 12
q-107 0 -157.5 -56.5t-50.5 -164.5v-33zM277 737l76 123h97v-25l-84 -98h-89z" />
    <glyph glyph-name="cacute" unicode="&#x107;" horiz-adv-x="494" 
d="M289 516q45 0 89 -16t76 -48l-68 -67q-27 21 -48.5 27.5t-52.5 6.5q-76 0 -110.5 -38.5t-34.5 -111.5v-16q0 -39 7 -70t23.5 -52.5t44.5 -33.5t70 -12q31 0 56 6t50 26l64 -62q-33 -35 -77.5 -51t-92.5 -16q-65 0 -112 19t-77 54t-44.5 83t-14.5 107v19q0 115 66.5 180.5
t185.5 65.5zM211 585l52 122h92v-25l-67 -97h-77z" />
    <glyph glyph-name="Ccircumflex" unicode="&#x108;" horiz-adv-x="625" 
d="M155 347q0 -59 8.5 -106t31 -80t63 -50.5t105.5 -17.5q46 0 81 10.5t67 44.5l75 -70q-45 -48 -102 -69t-121 -21q-87 0 -148.5 26t-100.5 73t-57.5 112.5t-18.5 145.5v37q0 76 21.5 136.5t63 102.5t102 64t138.5 22q61 0 119 -20t102 -65l-76 -77q-32 32 -66 44t-79 12
q-107 0 -157.5 -56.5t-50.5 -164.5v-33zM397 860l90 -97v-26h-83l-47 81l-47 -81h-84v26l90 97h81z" />
    <glyph glyph-name="ccircumflex" unicode="&#x109;" horiz-adv-x="494" 
d="M289 516q45 0 89 -16t76 -48l-68 -67q-27 21 -48.5 27.5t-52.5 6.5q-76 0 -110.5 -38.5t-34.5 -111.5v-16q0 -39 7 -70t23.5 -52.5t44.5 -33.5t70 -12q31 0 56 6t50 26l64 -62q-33 -35 -77.5 -51t-92.5 -16q-65 0 -112 19t-77 54t-44.5 83t-14.5 107v19q0 115 66.5 180.5
t185.5 65.5zM326 707l90 -97v-26h-83l-47 81l-47 -81h-84v26l90 97h81z" />
    <glyph glyph-name="Cdotaccent" unicode="&#x10a;" horiz-adv-x="625" 
d="M155 347q0 -59 8.5 -106t31 -80t63 -50.5t105.5 -17.5q46 0 81 10.5t67 44.5l75 -70q-45 -48 -102 -69t-121 -21q-87 0 -148.5 26t-100.5 73t-57.5 112.5t-18.5 145.5v37q0 76 21.5 136.5t63 102.5t102 64t138.5 22q61 0 119 -20t102 -65l-76 -77q-32 32 -66 44t-79 12
q-107 0 -157.5 -56.5t-50.5 -164.5v-33zM359 860q25 0 42 -16q18 -18 18 -42q0 -26 -18 -42q-17 -16 -42 -16q-26 0 -42 16q-18 16 -18 42q0 24 18 42q16 16 42 16z" />
    <glyph glyph-name="cdotaccent" unicode="&#x10b;" horiz-adv-x="494" 
d="M289 516q45 0 89 -16t76 -48l-68 -67q-27 21 -48.5 27.5t-52.5 6.5q-76 0 -110.5 -38.5t-34.5 -111.5v-16q0 -39 7 -70t23.5 -52.5t44.5 -33.5t70 -12q31 0 56 6t50 26l64 -62q-33 -35 -77.5 -51t-92.5 -16q-65 0 -112 19t-77 54t-44.5 83t-14.5 107v19q0 115 66.5 180.5
t185.5 65.5zM278 707q25 0 42 -16q18 -18 18 -42q0 -26 -18 -42q-17 -16 -42 -16q-26 0 -42 16q-18 16 -18 42q0 24 18 42q16 16 42 16z" />
    <glyph glyph-name="Ccaron" unicode="&#x10c;" horiz-adv-x="625" 
d="M155 347q0 -59 8.5 -106t31 -80t63 -50.5t105.5 -17.5q46 0 81 10.5t67 44.5l75 -70q-45 -48 -102 -69t-121 -21q-87 0 -148.5 26t-100.5 73t-57.5 112.5t-18.5 145.5v37q0 76 21.5 136.5t63 102.5t102 64t138.5 22q61 0 119 -20t102 -65l-76 -77q-32 32 -66 44t-79 12
q-107 0 -157.5 -56.5t-50.5 -164.5v-33zM325 737l-90 97v26h84l47 -81l47 81h83v-26l-90 -97h-81z" />
    <glyph glyph-name="ccaron" unicode="&#x10d;" horiz-adv-x="494" 
d="M289 516q45 0 89 -16t76 -48l-68 -67q-27 21 -48.5 27.5t-52.5 6.5q-76 0 -110.5 -38.5t-34.5 -111.5v-16q0 -39 7 -70t23.5 -52.5t44.5 -33.5t70 -12q31 0 56 6t50 26l64 -62q-33 -35 -77.5 -51t-92.5 -16q-65 0 -112 19t-77 54t-44.5 83t-14.5 107v19q0 115 66.5 180.5
t185.5 65.5zM247 584l-90 97v26h84l47 -81l47 81h83v-26l-90 -97h-81z" />
    <glyph glyph-name="Dcaron" unicode="&#x10e;" horiz-adv-x="698" 
d="M389 0h-329v695h327q76 0 127.5 -28t83 -74.5t45 -107.5t13.5 -127q0 -69 -11.5 -133.5t-41.5 -114.5t-82 -80t-132 -30zM173 105h181q60 0 95.5 21.5t54.5 56.5t25 81t6 94q0 46 -7 88.5t-27 74t-55.5 50.5t-92.5 19h-180v-485zM260 737l-90 97v26h84l47 -81l47 81h83
v-26l-90 -97h-81z" />
    <glyph glyph-name="dcaron" unicode="&#x10f;" horiz-adv-x="604" 
d="M370 396q-22 13 -50.5 18t-53.5 5q-40 0 -67.5 -11t-45 -31t-25 -48t-7.5 -61v-37q0 -28 4 -54.5t15.5 -46.5t31.5 -32.5t52 -12.5q21 0 41.5 7t39.5 18.5t35.5 25.5t29.5 29v231zM370 677l109 30v-592q0 -19 2 -34t5 -28q4 -12 9 -25.5t13 -27.5h-115q-6 10 -12 27
q-4 18 -6 32q-30 -30 -68.5 -50.5t-82.5 -20.5q-52 0 -91.5 17t-66.5 47t-40.5 71.5t-13.5 89.5v48q0 127 67 191t195 64q49 0 96 -19v180zM562 570q-14 5 -22.5 17t-8.5 27q0 20 13.5 33t32.5 13q24 0 38 -17.5t14 -40.5q0 -38 -23.5 -62.5t-57.5 -38.5l-25 33q13 5 24 14
t15 22z" />
    <glyph glyph-name="Dcroat" unicode="&#x110;" horiz-adv-x="698" 
d="M358 388v-82h-358v82h358zM389 0h-329v695h327q76 0 127.5 -28t83 -74.5t45 -107.5t13.5 -127q0 -69 -11.5 -133.5t-41.5 -114.5t-82 -80t-132 -30zM173 105h181q60 0 95.5 21.5t54.5 56.5t25 81t6 94q0 46 -7 88.5t-27 74t-55.5 50.5t-92.5 19h-180v-485z" />
    <glyph glyph-name="dcroat" unicode="&#x111;" horiz-adv-x="552" 
d="M585 628l-21 -71h-293v71h314zM370 396q-22 13 -50.5 18t-53.5 5q-40 0 -67.5 -11t-45 -31t-25 -48t-7.5 -61v-37q0 -28 4 -54.5t15.5 -46.5t31.5 -32.5t52 -12.5q21 0 41.5 7t39.5 18.5t35.5 25.5t29.5 29v231zM370 677l109 30v-592q0 -19 2 -34t5 -28q4 -12 9 -25.5
t13 -27.5h-115q-6 10 -12 27q-4 18 -6 32q-30 -30 -68.5 -50.5t-82.5 -20.5q-52 0 -91.5 17t-66.5 47t-40.5 71.5t-13.5 89.5v48q0 127 67 191t195 64q49 0 96 -19v180z" />
    <glyph glyph-name="Emacron" unicode="&#x112;" horiz-adv-x="616" 
d="M568 0h-508v695h511l-33 -105h-366v-169h333v-106h-333v-210h396v-105zM180 844h296q4 -8 5.5 -22t1.5 -23t-1.5 -23t-5.5 -22h-296q-4 8 -5.5 22t-1.5 24q0 9 1.5 22.5t5.5 21.5z" />
    <glyph glyph-name="emacron" unicode="&#x113;" horiz-adv-x="549" 
d="M149 218q0 -29 7.5 -53.5t25 -42t46.5 -27.5t72 -10q38 0 59 11t45 34l90 -37q-32 -54 -85 -79.5t-114 -25.5q-125 0 -190 65t-65 192v11v25t1 23q2 48 22 87t53 67t76 43t91 15q55 0 98 -17.5t73 -49t45.5 -76t15.5 -98.5v-57h-366zM149 311h257q0 24 -9 44t-25.5 34
t-39 22t-49.5 8q-25 0 -49 -6t-43 -19.5t-30.5 -34t-11.5 -48.5zM131 695h296q4 -8 5.5 -22t1.5 -23t-1.5 -23t-5.5 -22h-296q-4 8 -5.5 22t-1.5 24q0 9 1.5 22.5t5.5 21.5z" />
    <glyph glyph-name="Edotaccent" unicode="&#x116;" horiz-adv-x="616" 
d="M568 0h-508v695h511l-33 -105h-366v-169h333v-106h-333v-210h396v-105zM321 860q25 0 42 -16q18 -18 18 -42q0 -26 -18 -42q-17 -16 -42 -16q-26 0 -42 16q-18 16 -18 42q0 24 18 42q16 16 42 16z" />
    <glyph glyph-name="edotaccent" unicode="&#x117;" horiz-adv-x="549" 
d="M149 218q0 -29 7.5 -53.5t25 -42t46.5 -27.5t72 -10q38 0 59 11t45 34l90 -37q-32 -54 -85 -79.5t-114 -25.5q-125 0 -190 65t-65 192v11v25t1 23q2 48 22 87t53 67t76 43t91 15q55 0 98 -17.5t73 -49t45.5 -76t15.5 -98.5v-57h-366zM149 311h257q0 24 -9 44t-25.5 34
t-39 22t-49.5 8q-25 0 -49 -6t-43 -19.5t-30.5 -34t-11.5 -48.5zM282 707q25 0 42 -16q18 -18 18 -42q0 -26 -18 -42q-17 -16 -42 -16q-26 0 -42 16q-18 16 -18 42q0 24 18 42q16 16 42 16z" />
    <glyph glyph-name="Eogonek" unicode="&#x118;" horiz-adv-x="616" 
d="M568 0h-508v695h511l-33 -105h-366v-169h333v-106h-333v-210h396v-105zM549 11q-27 -20 -39.5 -44t-12.5 -44t7.5 -34t30.5 -14q18 0 44 9v-71q-21 -10 -44 -14.5t-40 -4.5q-20 0 -38 6.5t-31 18.5t-20.5 28.5t-7.5 35.5q0 27 13 63t41 65h97z" />
    <glyph glyph-name="eogonek" unicode="&#x119;" horiz-adv-x="549" 
d="M149 218q0 -29 7.5 -53.5t25 -42t46.5 -27.5t72 -10q38 0 59 11t45 34l90 -37q-32 -54 -85 -79.5t-114 -25.5q-125 0 -190 65t-65 192v11v25t1 23q2 48 22 87t53 67t76 43t91 15q55 0 98 -17.5t73 -49t45.5 -76t15.5 -98.5v-57h-366zM149 311h257q0 24 -9 44t-25.5 34
t-39 22t-49.5 8q-25 0 -49 -6t-43 -19.5t-30.5 -34t-11.5 -48.5zM352 11q-27 -20 -39.5 -44t-12.5 -44t7.5 -34t30.5 -14q18 0 44 9v-71q-21 -10 -44 -14.5t-40 -4.5q-20 0 -38 6.5t-31 18.5t-20.5 28.5t-7.5 35.5q0 27 13 63t41 65h97z" />
    <glyph glyph-name="Ecaron" unicode="&#x11a;" horiz-adv-x="616" 
d="M568 0h-508v695h511l-33 -105h-366v-169h333v-106h-333v-210h396v-105zM287 737l-90 97v26h84l47 -81l47 81h83v-26l-90 -97h-81z" />
    <glyph glyph-name="ecaron" unicode="&#x11b;" horiz-adv-x="549" 
d="M149 218q0 -29 7.5 -53.5t25 -42t46.5 -27.5t72 -10q38 0 59 11t45 34l90 -37q-32 -54 -85 -79.5t-114 -25.5q-125 0 -190 65t-65 192v11v25t1 23q2 48 22 87t53 67t76 43t91 15q55 0 98 -17.5t73 -49t45.5 -76t15.5 -98.5v-57h-366zM149 311h257q0 24 -9 44t-25.5 34
t-39 22t-49.5 8q-25 0 -49 -6t-43 -19.5t-30.5 -34t-11.5 -48.5zM241 584l-90 97v26h84l47 -81l47 81h83v-26l-90 -97h-81z" />
    <glyph glyph-name="Gcircumflex" unicode="&#x11c;" horiz-adv-x="661" 
d="M528 543q-31 34 -70.5 46t-81.5 12q-63 0 -106.5 -16t-70 -47.5t-38 -77t-11.5 -103.5v-25q0 -113 58 -176t185 -63q29 0 56.5 7t53.5 18v137h-127v106h236v-312q-49 -26 -108.5 -43.5t-116.5 -17.5q-81 0 -146 23t-110 67.5t-69.5 109t-24.5 147.5v23q0 79 21.5 143.5
t64.5 110.5t106 70.5t147 24.5q66 0 128 -22t106 -74zM412 860l90 -97v-26h-83l-47 81l-47 -81h-84v26l90 97h81z" />
    <glyph glyph-name="gcircumflex" unicode="&#x11d;" horiz-adv-x="545" 
d="M252 97q42 0 73.5 23t57.5 57v227q-23 8 -41.5 11.5t-42.5 3.5q-42 0 -70.5 -8t-46 -26t-25 -46.5t-7.5 -70.5v-44q0 -30 3.5 -53.5t14.5 -40t31 -25t53 -8.5zM383 66q-28 -28 -59 -47t-72 -19q-103 0 -157 58.5t-54 159.5v52q0 126 65.5 186t190.5 60q48 0 99.5 -8.5
t95.5 -27.5v-462q0 -49 -18 -90t-50 -71t-75 -46.5t-92 -16.5q-55 0 -104 13t-97 41l51 89q38 -23 73 -31t79 -8q65 0 94.5 33.5t29.5 96.5v38zM339 707l90 -97v-26h-83l-47 81l-47 -81h-84v26l90 97h81z" />
    <glyph glyph-name="Gbreve" unicode="&#x11e;" horiz-adv-x="661" 
d="M528 543q-31 34 -70.5 46t-81.5 12q-63 0 -106.5 -16t-70 -47.5t-38 -77t-11.5 -103.5v-25q0 -113 58 -176t185 -63q29 0 56.5 7t53.5 18v137h-127v106h236v-312q-49 -26 -108.5 -43.5t-116.5 -17.5q-81 0 -146 23t-110 67.5t-69.5 109t-24.5 147.5v23q0 79 21.5 143.5
t64.5 110.5t106 70.5t147 24.5q66 0 128 -22t106 -74zM376 738q-28 0 -54.5 6.5t-47.5 21.5t-33.5 38t-12.5 56h71q0 -30 22.5 -42.5t54.5 -12.5q30 0 53.5 12t23.5 43h71q0 -33 -13 -56.5t-34 -38t-47.5 -21t-53.5 -6.5z" />
    <glyph glyph-name="gbreve" unicode="&#x11f;" horiz-adv-x="545" 
d="M252 97q42 0 73.5 23t57.5 57v227q-23 8 -41.5 11.5t-42.5 3.5q-42 0 -70.5 -8t-46 -26t-25 -46.5t-7.5 -70.5v-44q0 -30 3.5 -53.5t14.5 -40t31 -25t53 -8.5zM383 66q-28 -28 -59 -47t-72 -19q-103 0 -157 58.5t-54 159.5v52q0 126 65.5 186t190.5 60q48 0 99.5 -8.5
t95.5 -27.5v-462q0 -49 -18 -90t-50 -71t-75 -46.5t-92 -16.5q-55 0 -104 13t-97 41l51 89q38 -23 73 -31t79 -8q65 0 94.5 33.5t29.5 96.5v38zM293 585q-28 0 -54.5 6.5t-47.5 21.5t-33.5 38t-12.5 56h71q0 -30 22.5 -42.5t54.5 -12.5q30 0 53.5 12t23.5 43h71
q0 -33 -13 -56.5t-34 -38t-47.5 -21t-53.5 -6.5z" />
    <glyph glyph-name="Gdotaccent" unicode="&#x120;" horiz-adv-x="661" 
d="M528 543q-31 34 -70.5 46t-81.5 12q-63 0 -106.5 -16t-70 -47.5t-38 -77t-11.5 -103.5v-25q0 -113 58 -176t185 -63q29 0 56.5 7t53.5 18v137h-127v106h236v-312q-49 -26 -108.5 -43.5t-116.5 -17.5q-81 0 -146 23t-110 67.5t-69.5 109t-24.5 147.5v23q0 79 21.5 143.5
t64.5 110.5t106 70.5t147 24.5q66 0 128 -22t106 -74zM375 860q25 0 42 -16q18 -18 18 -42q0 -26 -18 -42q-17 -16 -42 -16q-26 0 -42 16q-18 16 -18 42q0 24 18 42q16 16 42 16z" />
    <glyph glyph-name="gdotaccent" unicode="&#x121;" horiz-adv-x="545" 
d="M252 97q42 0 73.5 23t57.5 57v227q-23 8 -41.5 11.5t-42.5 3.5q-42 0 -70.5 -8t-46 -26t-25 -46.5t-7.5 -70.5v-44q0 -30 3.5 -53.5t14.5 -40t31 -25t53 -8.5zM383 66q-28 -28 -59 -47t-72 -19q-103 0 -157 58.5t-54 159.5v52q0 126 65.5 186t190.5 60q48 0 99.5 -8.5
t95.5 -27.5v-462q0 -49 -18 -90t-50 -71t-75 -46.5t-92 -16.5q-55 0 -104 13t-97 41l51 89q38 -23 73 -31t79 -8q65 0 94.5 33.5t29.5 96.5v38zM297 707q25 0 42 -16q18 -18 18 -42q0 -26 -18 -42q-17 -16 -42 -16q-26 0 -42 16q-18 16 -18 42q0 24 18 42q16 16 42 16z" />
    <glyph glyph-name="Gcommaaccent" unicode="&#x122;" horiz-adv-x="661" 
d="M528 543q-31 34 -70.5 46t-81.5 12q-63 0 -106.5 -16t-70 -47.5t-38 -77t-11.5 -103.5v-25q0 -113 58 -176t185 -63q29 0 56.5 7t53.5 18v137h-127v106h236v-312q-49 -26 -108.5 -43.5t-116.5 -17.5q-81 0 -146 23t-110 67.5t-69.5 109t-24.5 147.5v23q0 79 21.5 143.5
t64.5 110.5t106 70.5t147 24.5q66 0 128 -22t106 -74zM355 -137q-14 5 -22.5 17t-8.5 27q0 20 13.5 33t32.5 13q24 0 38 -17.5t14 -40.5q0 -38 -23.5 -62.5t-57.5 -38.5l-25 33q13 5 24 14t15 22z" />
    <glyph glyph-name="gcommaaccent" unicode="&#x123;" horiz-adv-x="545" 
d="M252 97q42 0 73.5 23t57.5 57v227q-23 8 -41.5 11.5t-42.5 3.5q-42 0 -70.5 -8t-46 -26t-25 -46.5t-7.5 -70.5v-44q0 -30 3.5 -53.5t14.5 -40t31 -25t53 -8.5zM383 66q-28 -28 -59 -47t-72 -19q-103 0 -157 58.5t-54 159.5v52q0 126 65.5 186t190.5 60q48 0 99.5 -8.5
t95.5 -27.5v-462q0 -49 -18 -90t-50 -71t-75 -46.5t-92 -16.5q-55 0 -104 13t-97 41l51 89q38 -23 73 -31t79 -8q65 0 94.5 33.5t29.5 96.5v38zM306.004 637.991q13.999 -4.99902 22.499 -16.999q8.49902 -11.999 8.49902 -26.998q0 -19.999 -13.499 -32.998
t-32.498 -12.999q-23.998 0 -37.9971 17.499q-14 17.499 -14 40.4971q0 37.998 23.499 62.4971q23.498 24.498 57.4961 38.4971l24.999 -32.998q-12.999 -4.99902 -23.999 -13.999q-10.999 -8.99902 -14.999 -21.999z" />
    <glyph glyph-name="Hcircumflex" unicode="&#x124;" horiz-adv-x="678" 
d="M172 317v-316h-112v695h112v-273h332v273h113v-695h-113v316h-332zM380 860l90 -97v-26h-83l-47 81l-47 -81h-84v26l90 97h81z" />
    <glyph glyph-name="hcircumflex" unicode="&#x125;" horiz-adv-x="549" 
d="M312 504q41 0 76.5 -12.5t62 -35.5t41.5 -56t15 -73v-327h-109v315q0 48 -24.5 70t-64.5 22q-54 0 -85.5 -26.5t-54.5 -79.5v-301h-109v676l109 31v-265q29 35 64 48.5t79 13.5zM154 860l90 -97v-26h-83l-47 81l-47 -81h-84v26l90 97h81z" />
    <glyph glyph-name="Hbar" unicode="&#x126;" horiz-adv-x="678" 
d="M699 597v-82h-717v82h717zM172 317v-316h-112v695h112v-273h332v273h113v-695h-113v316h-332z" />
    <glyph glyph-name="hbar" unicode="&#x127;" horiz-adv-x="549" 
d="M318 629l-25 -81h-293v81h318zM312 504q41 0 76.5 -12.5t62 -35.5t41.5 -56t15 -73v-327h-109v315q0 48 -24.5 70t-64.5 22q-54 0 -85.5 -26.5t-54.5 -79.5v-301h-109v676l109 31v-265q29 35 64 48.5t79 13.5z" />
    <glyph glyph-name="uni012A" unicode="&#x12a;" horiz-adv-x="238" 
d="M173 695v-695h-113v695h113zM-28 844h296q4 -8 5.5 -22t1.5 -23t-1.5 -23t-5.5 -22h-296q-4 8 -5.5 22t-1.5 24q0 9 1.5 22.5t5.5 21.5z" />
    <glyph glyph-name="imacron" unicode="&#x12b;" horiz-adv-x="332" 
d="M114 0v504h109v-504h-109zM18 695h296q4 -8 5.5 -22t1.5 -23t-1.5 -23t-5.5 -22h-296q-4 8 -5.5 22t-1.5 24q0 9 1.5 22.5t5.5 21.5z" />
    <glyph glyph-name="Iogonek" unicode="&#x12e;" horiz-adv-x="238" 
d="M173 695v-695h-113v695h113zM164 11q-27 -20 -39.5 -44t-12.5 -44t7.5 -34t30.5 -14q18 0 44 9v-71q-21 -10 -44 -14.5t-40 -4.5q-20 0 -38 6.5t-31 18.5t-20.5 28.5t-7.5 35.5q0 27 13 63t41 65h97z" />
    <glyph glyph-name="iogonek" unicode="&#x12f;" horiz-adv-x="237" 
d="M177 11q-24 -9 -38.5 -34t-14.5 -49q0 -18 9.5 -30.5t29.5 -12.5q18 0 44 9v-81q-41 -19 -74 -19q-20 0 -38 6.5t-31 18.5t-20.5 28.5t-7.5 35.5q0 27 13 63t41 65h87z" />
    <glyph glyph-name="Idotaccent" unicode="&#x130;" horiz-adv-x="238" 
d="M173 695v-695h-113v695h113zM119 860q25 0 42 -16q18 -18 18 -42q0 -26 -18 -42q-17 -16 -42 -16q-26 0 -42 16q-18 16 -18 42q0 24 18 42q16 16 42 16z" />
    <glyph glyph-name="dotlessi" unicode="&#x131;" horiz-adv-x="235" 
d="M60 0v504h109v-504h-109z" />
    <glyph glyph-name="IJ" unicode="&#x132;" horiz-adv-x="460" 
d="M113 695v-457h-113v457h113zM191 -12q-31 0 -60 7t-53 22t-41.5 37.5t-26.5 52.5q-5 18 -7.5 36.5t-2.5 38.5h111q0 -13 3 -28.5t11.5 -29t24.5 -22.5t42 -9q30 0 49.5 8t30 23.5t14.5 38t4 51.5v481h115v-504q0 -100 -57 -151.5t-157 -51.5z" />
    <glyph glyph-name="ij" unicode="&#x133;" horiz-adv-x="405" 
d="M51 0v504h109v-504h-109zM245 504h109v-586q0 -27 -10 -50t-27 -39.5t-41 -25.5t-52 -9q-17 0 -42 4t-42 8v86h43q62 0 62 60v552zM106 707q25 0 42 -16q18 -18 18 -42q0 -26 -18 -42q-17 -16 -42 -16q-26 0 -42 16q-18 16 -18 42q0 24 18 42q16 16 42 16zM299 707
q25 0 42 -16q18 -18 18 -42q0 -26 -18 -42q-17 -16 -42 -16q-26 0 -42 16q-18 16 -18 42q0 24 18 42q16 16 42 16z" />
    <glyph glyph-name="Jcircumflex" unicode="&#x134;" horiz-adv-x="460" 
d="M191 -12q-31 0 -60 7t-53 22t-41.5 37.5t-26.5 52.5q-5 18 -7.5 36.5t-2.5 38.5h111q0 -13 3 -28.5t11.5 -29t24.5 -22.5t42 -9q30 0 49.5 8t30 23.5t14.5 38t4 51.5v481h115v-504q0 -100 -57 -151.5t-157 -51.5zM391 860l90 -97v-26h-83l-47 81l-47 -81h-84v26l90 97h81
z" />
    <glyph glyph-name="jcircumflex" unicode="&#x135;" horiz-adv-x="212" 
d="M54 504h109v-586q0 -27 -10 -50t-27 -39.5t-41 -25.5t-52 -9q-17 0 -42 4t-42 8v86h43q62 0 62 60v552zM146 707l90 -97v-26h-83l-47 81l-47 -81h-84v26l90 97h81z" />
    <glyph glyph-name="Kcommaaccent" unicode="&#x136;" horiz-adv-x="620" 
d="M173 695v-292h54l192 292h126l-216 -337l258 -358h-131l-226 314h-57v-314h-113v695h113zM262 -137q-14 5 -22.5 17t-8.5 27q0 20 13.5 33t32.5 13q24 0 38 -17.5t14 -40.5q0 -38 -23.5 -62.5t-57.5 -38.5l-25 33q13 5 24 14t15 22z" />
    <glyph glyph-name="kcommaaccent" unicode="&#x137;" horiz-adv-x="472" 
d="M168 707v-407h37l146 204h111l-170 -245l110 -151q14 -20 31 -23t34 -3v-82q-12 -6 -28 -9t-25 -3q-14 0 -26.5 6t-23 15.5t-19.5 20.5t-16 21l-125 169h-36v-220h-109v677zM217 -137q-14 5 -22.5 17t-8.5 27q0 20 13.5 33t32.5 13q24 0 38 -17.5t14 -40.5
q0 -38 -23.5 -62.5t-57.5 -38.5l-25 33q13 5 24 14t15 22z" />
    <glyph glyph-name="Lacute" unicode="&#x139;" horiz-adv-x="511" 
d="M173 695v-590h338l-31 -105h-420v695h113zM92 737l76 123h97v-25l-84 -98h-89z" />
    <glyph glyph-name="lacute" unicode="&#x13a;" horiz-adv-x="275" 
d="M56 677l109 30v-562q0 -60 62 -60h39v-85q-16 -5 -40 -8.5t-41 -3.5q-28 0 -51.5 9t-41 25.5t-27 39.5t-9.5 50v565zM60 737l76 123h97v-25l-84 -98h-89z" />
    <glyph glyph-name="Lcommaaccent" unicode="&#x13b;" horiz-adv-x="511" 
d="M173 695v-590h338l-31 -105h-420v695h113zM227 -137q-14 5 -22.5 17t-8.5 27q0 20 13.5 33t32.5 13q24 0 38 -17.5t14 -40.5q0 -38 -23.5 -62.5t-57.5 -38.5l-25 33q13 5 24 14t15 22z" />
    <glyph glyph-name="lcommaaccent" unicode="&#x13c;" horiz-adv-x="275" 
d="M56 677l109 30v-562q0 -60 62 -60h39v-85q-16 -5 -40 -8.5t-41 -3.5q-28 0 -51.5 9t-41 25.5t-27 39.5t-9.5 50v565zM120 -137q-14 5 -22.5 17t-8.5 27q0 20 13.5 33t32.5 13q24 0 38 -17.5t14 -40.5q0 -38 -23.5 -62.5t-57.5 -38.5l-25 33q13 5 24 14t15 22z" />
    <glyph glyph-name="Lcaron" unicode="&#x13d;" horiz-adv-x="511" 
d="M173 695v-590h338l-31 -105h-420v695h113zM352 617q-14 5 -22.5 17t-8.5 27q0 20 13.5 33t32.5 13q24 0 38 -17.5t14 -40.5q0 -38 -23.5 -62.5t-57.5 -38.5l-25 33q13 5 24 14t15 22z" />
    <glyph glyph-name="lcaron" unicode="&#x13e;" horiz-adv-x="275" 
d="M56 677l109 30v-562q0 -60 62 -60h39v-85q-16 -5 -40 -8.5t-41 -3.5q-28 0 -51.5 9t-41 25.5t-27 39.5t-9.5 50v565zM234 617q-14 5 -22.5 17t-8.5 27q0 20 13.5 33t32.5 13q24 0 38 -17.5t14 -40.5q0 -38 -23.5 -62.5t-57.5 -38.5l-25 33q13 5 24 14t15 22z" />
    <glyph glyph-name="Ldot" unicode="&#x13f;" horiz-adv-x="511" 
d="M173 695v-590h338l-31 -105h-420v695h113zM388 526q23 0 40.5 -18t17.5 -41q0 -24 -17.5 -40.5t-40.5 -16.5q-24 0 -42 16t-18 41t18 42t42 17z" />
    <glyph glyph-name="ldot" unicode="&#x140;" horiz-adv-x="275" 
d="M56 677l109 30v-562q0 -60 62 -60h39v-85q-16 -5 -40 -8.5t-41 -3.5q-28 0 -51.5 9t-41 25.5t-27 39.5t-9.5 50v565zM273 526q23 0 40.5 -18t17.5 -41q0 -24 -17.5 -40.5t-40.5 -16.5q-24 0 -42 16t-18 41t18 42t42 17z" />
    <glyph glyph-name="Lslash" unicode="&#x141;" horiz-adv-x="511" 
d="M0 179v109l319 271v-109zM173 695v-590h338l-31 -105h-420v695h113z" />
    <glyph glyph-name="lslash" unicode="&#x142;" horiz-adv-x="275" 
d="M0 199v109l269 229v-109zM56 677l109 30v-562q0 -60 62 -60h39v-85q-16 -5 -40 -8.5t-41 -3.5q-28 0 -51.5 9t-41 25.5t-27 39.5t-9.5 50v565z" />
    <glyph glyph-name="Nacute" unicode="&#x143;" horiz-adv-x="696" 
d="M60 0v695h138l324 -521v521h113v-695h-133l-329 533v-533h-113zM312 737l76 123h97v-25l-84 -98h-89z" />
    <glyph glyph-name="nacute" unicode="&#x144;" horiz-adv-x="569" 
d="M305 420q-16 0 -34 -3.5t-35 -9.5t-32.5 -15.5t-26.5 -21.5v-370h-109v380q0 27 -4 47.5t-15 43.5l98 45q8 -14 14 -28t10 -31h6q13 13 30.5 24t36.5 19t38.5 12t36.5 4q43 0 78.5 -11.5t61.5 -33.5t40.5 -55.5t14.5 -76.5v-339h-109v317q0 103 -100 103zM220 585l52 122
h92v-25l-67 -97h-77z" />
    <glyph glyph-name="Ncommaaccent" unicode="&#x145;" horiz-adv-x="696" 
d="M60 0v695h138l324 -521v521h113v-695h-133l-329 533v-533h-113zM319 -137q-14 5 -22.5 17t-8.5 27q0 20 13.5 33t32.5 13q24 0 38 -17.5t14 -40.5q0 -38 -23.5 -62.5t-57.5 -38.5l-25 33q13 5 24 14t15 22z" />
    <glyph glyph-name="ncommaaccent" unicode="&#x146;" horiz-adv-x="569" 
d="M305 420q-16 0 -34 -3.5t-35 -9.5t-32.5 -15.5t-26.5 -21.5v-370h-109v380q0 27 -4 47.5t-15 43.5l98 45q8 -14 14 -28t10 -31h6q13 13 30.5 24t36.5 19t38.5 12t36.5 4q43 0 78.5 -11.5t61.5 -33.5t40.5 -55.5t14.5 -76.5v-339h-109v317q0 103 -100 103zM278 -137
q-14 5 -22.5 17t-8.5 27q0 20 13.5 33t32.5 13q24 0 38 -17.5t14 -40.5q0 -38 -23.5 -62.5t-57.5 -38.5l-25 33q13 5 24 14t15 22z" />
    <glyph glyph-name="Ncaron" unicode="&#x147;" horiz-adv-x="696" 
d="M60 0v695h138l324 -521v521h113v-695h-133l-329 533v-533h-113zM315 737l-90 97v26h84l47 -81l47 81h83v-26l-90 -97h-81z" />
    <glyph glyph-name="ncaron" unicode="&#x148;" horiz-adv-x="569" 
d="M305 420q-16 0 -34 -3.5t-35 -9.5t-32.5 -15.5t-26.5 -21.5v-370h-109v380q0 27 -4 47.5t-15 43.5l98 45q8 -14 14 -28t10 -31h6q13 13 30.5 24t36.5 19t38.5 12t36.5 4q43 0 78.5 -11.5t61.5 -33.5t40.5 -55.5t14.5 -76.5v-339h-109v317q0 103 -100 103zM246 584l-90 97
v26h84l47 -81l47 81h83v-26l-90 -97h-81z" />
    <glyph glyph-name="Omacron" unicode="&#x14c;" horiz-adv-x="753" 
d="M377 -12q-84 0 -147.5 26.5t-105.5 74.5t-63.5 114t-21.5 145v27q0 73 25 134.5t70 105t107 68t136 24.5t136 -24.5t106.5 -68t69.5 -105t25 -134.5v-27q0 -79 -21 -145t-63.5 -114t-105.5 -74.5t-147 -26.5zM377 602q-110 0 -165.5 -62t-55.5 -167v-23q0 -55 11 -102
t37 -81.5t67.5 -54t103.5 -19.5q64 0 106.5 18.5t68 52.5t36.5 81.5t11 104.5v23q0 105 -55.5 167t-164.5 62zM230 844h296q4 -8 5.5 -22t1.5 -23t-1.5 -23t-5.5 -22h-296q-4 8 -5.5 22t-1.5 24q0 9 1.5 22.5t5.5 21.5z" />
    <glyph glyph-name="omacron" unicode="&#x14d;" horiz-adv-x="573" 
d="M432 252v20q0 66 -35 107t-111 41t-110 -41t-34 -108v-23q0 -36 6 -65.5t22 -51.5t44 -34t72 -12t72 12.5t44.5 35t23 53t6.5 66.5zM285 -12q-60 0 -106 20.5t-77 56t-47 83.5t-16 104v19q1 53 18.5 98t49.5 77.5t77 51t101 18.5q53 0 98.5 -18.5t79.5 -50.5t53 -77
t19 -97v-21q0 -56 -16.5 -104t-48.5 -83.5t-78.5 -56t-106.5 -20.5zM133 695h296q4 -8 5.5 -22t1.5 -23t-1.5 -23t-5.5 -22h-296q-4 8 -5.5 22t-1.5 24q0 9 1.5 22.5t5.5 21.5z" />
    <glyph glyph-name="Ohungarumlaut" unicode="&#x150;" horiz-adv-x="753" 
d="M377 -12q-84 0 -147.5 26.5t-105.5 74.5t-63.5 114t-21.5 145v27q0 73 25 134.5t70 105t107 68t136 24.5t136 -24.5t106.5 -68t69.5 -105t25 -134.5v-27q0 -79 -21 -145t-63.5 -114t-105.5 -74.5t-147 -26.5zM377 602q-110 0 -165.5 -62t-55.5 -167v-23q0 -55 11 -102
t37 -81.5t67.5 -54t103.5 -19.5q64 0 106.5 18.5t68 52.5t36.5 81.5t11 104.5v23q0 105 -55.5 167t-164.5 62zM263 738l75 122h80v-25l-84 -97h-71zM392 738l76 122h80v-25l-84 -97h-72z" />
    <glyph glyph-name="ohungarumlaut" unicode="&#x151;" horiz-adv-x="573" 
d="M432 252v20q0 66 -35 107t-111 41t-110 -41t-34 -108v-23q0 -36 6 -65.5t22 -51.5t44 -34t72 -12t72 12.5t44.5 35t23 53t6.5 66.5zM285 -12q-60 0 -106 20.5t-77 56t-47 83.5t-16 104v19q1 53 18.5 98t49.5 77.5t77 51t101 18.5q53 0 98.5 -18.5t79.5 -50.5t53 -77
t19 -97v-21q0 -56 -16.5 -104t-48.5 -83.5t-78.5 -56t-106.5 -20.5zM189 584l52 123h65v-26l-67 -97h-50zM290 584l52 123h65v-26l-67 -97h-50z" />
    <glyph glyph-name="OE" unicode="&#x152;" horiz-adv-x="1157" 
d="M1109 0h-508v61q-42 -35 -97.5 -54t-126.5 -19q-84 0 -147.5 26.5t-105.5 74.5t-63.5 114t-21.5 145v27q0 73 25 134.5t70 105t107 68t136 24.5q66 0 123 -20t101 -56v64h511l-33 -105h-366v-169h333v-106h-333v-210h396v-105zM377 602q-110 0 -165.5 -62t-55.5 -167v-23
q0 -55 11 -102t37 -81.5t67.5 -54t103.5 -19.5q64 0 106.5 18.5t68 52.5t36.5 81.5t11 104.5v23q0 105 -55.5 167t-164.5 62z" />
    <glyph glyph-name="oe" unicode="&#x153;" horiz-adv-x="941" 
d="M541 218q0 -29 7.5 -53.5t25 -42t46.5 -27.5t72 -10q38 0 59 11t45 34l90 -37q-32 -54 -85 -79.5t-114 -25.5q-145 0 -208 87q-32 -41 -81 -64t-113 -23q-60 0 -106 20.5t-77 56t-47 83.5t-16 104v19q1 53 18.5 98t49.5 77.5t77 51t101 18.5q60 0 110 -23t84 -64
q34 42 85 64.5t111 22.5q55 0 98 -17.5t73 -49t45.5 -76t15.5 -98.5v-57h-366zM432 245v27q0 66 -35 107t-111 41t-110 -41t-34 -108v-23q0 -36 6 -65.5t22 -51.5t44 -34t72 -12q42 0 69.5 11.5t44 32t24 48.5t8.5 61v7zM541 311h257q0 24 -9 44t-25.5 34t-39 22t-49.5 8
q-25 0 -49 -6t-43 -19.5t-30.5 -34t-11.5 -48.5z" />
    <glyph glyph-name="Racute" unicode="&#x154;" horiz-adv-x="657" 
d="M301 259q-11 14 -28 20t-34 6h-66v-285h-113v695h328q44 0 81 -14t63.5 -40.5t41.5 -63t15 -81.5q0 -90 -45.5 -147.5t-129.5 -63.5l132 -167q16 -20 29 -26t38 -6v-86q-10 -5 -24 -8.5t-26 -3.5q-30 0 -54 20.5t-41 42.5zM173 389h187q64 0 90 23.5t26 83.5
q0 48 -23.5 71.5t-80.5 23.5h-199v-202zM230 737l76 123h97v-25l-84 -98h-89z" />
    <glyph glyph-name="racute" unicode="&#x155;" horiz-adv-x="366" 
d="M173 453q19 30 44 46.5t62 16.5q39 0 83 -22l-38 -101q-25 15 -49 15q-32 0 -52 -17.5t-31 -44t-15 -56.5t-4 -54v-236h-109v380q0 27 -4 48.5t-15 42.5l98 45q8 -15 14.5 -30.5t9.5 -32.5h6zM133 585l52 122h92v-25l-67 -97h-77z" />
    <glyph glyph-name="Rcommaaccent" unicode="&#x156;" horiz-adv-x="657" 
d="M301 259q-11 14 -28 20t-34 6h-66v-285h-113v695h328q44 0 81 -14t63.5 -40.5t41.5 -63t15 -81.5q0 -90 -45.5 -147.5t-129.5 -63.5l132 -167q16 -20 29 -26t38 -6v-86q-10 -5 -24 -8.5t-26 -3.5q-30 0 -54 20.5t-41 42.5zM173 389h187q64 0 90 23.5t26 83.5
q0 48 -23.5 71.5t-80.5 23.5h-199v-202zM303 -137q-14 5 -22.5 17t-8.5 27q0 20 13.5 33t32.5 13q24 0 38 -17.5t14 -40.5q0 -38 -23.5 -62.5t-57.5 -38.5l-25 33q13 5 24 14t15 22z" />
    <glyph glyph-name="rcommaaccent" unicode="&#x157;" horiz-adv-x="366" 
d="M173 453q19 30 44 46.5t62 16.5q39 0 83 -22l-38 -101q-25 15 -49 15q-32 0 -52 -17.5t-31 -44t-15 -56.5t-4 -54v-236h-109v380q0 27 -4 48.5t-15 42.5l98 45q8 -15 14.5 -30.5t9.5 -32.5h6zM100 -137q-14 5 -22.5 17t-8.5 27q0 20 13.5 33t32.5 13q24 0 38 -17.5
t14 -40.5q0 -38 -23.5 -62.5t-57.5 -38.5l-25 33q13 5 24 14t15 22z" />
    <glyph glyph-name="Rcaron" unicode="&#x158;" horiz-adv-x="657" 
d="M301 259q-11 14 -28 20t-34 6h-66v-285h-113v695h328q44 0 81 -14t63.5 -40.5t41.5 -63t15 -81.5q0 -90 -45.5 -147.5t-129.5 -63.5l132 -167q16 -20 29 -26t38 -6v-86q-10 -5 -24 -8.5t-26 -3.5q-30 0 -54 20.5t-41 42.5zM173 389h187q64 0 90 23.5t26 83.5
q0 48 -23.5 71.5t-80.5 23.5h-199v-202zM249 737l-90 97v26h84l47 -81l47 81h83v-26l-90 -97h-81z" />
    <glyph glyph-name="rcaron" unicode="&#x159;" horiz-adv-x="366" 
d="M173 453q19 30 44 46.5t62 16.5q39 0 83 -22l-38 -101q-25 15 -49 15q-32 0 -52 -17.5t-31 -44t-15 -56.5t-4 -54v-236h-109v380q0 27 -4 48.5t-15 42.5l98 45q8 -15 14.5 -30.5t9.5 -32.5h6zM157 584l-90 97v26h84l47 -81l47 81h83v-26l-90 -97h-81z" />
    <glyph glyph-name="Sacute" unicode="&#x15a;" horiz-adv-x="610" 
d="M57 519q0 52 24 87.5t62 58t84.5 32.5t91.5 10q32 0 64.5 -6.5t63.5 -19t58 -31t48 -42.5l-77 -69q-35 35 -76.5 48.5t-91.5 13.5q-23 0 -46.5 -4t-43.5 -13t-32.5 -24t-12.5 -37q0 -25 6.5 -41t19 -26.5t29.5 -17.5t38 -14q48 -16 97 -26.5t96 -33.5q52 -25 83.5 -66
t31.5 -107q0 -57 -24 -96t-62 -63t-85.5 -34t-95.5 -10q-42 0 -83 9.5t-77.5 28.5t-66.5 47t-50 66l93 49q29 -45 75.5 -70t109.5 -25q28 0 55.5 5t49 16t35 29.5t13.5 44.5q0 23 -7 38.5t-20 25.5t-30 17t-36 13q-49 17 -98.5 28t-96.5 34q-26 13 -47.5 27.5t-36.5 35
t-23.5 47.5t-8.5 65zM232 737l76 123h97v-25l-84 -98h-89z" />
    <glyph glyph-name="sacute" unicode="&#x15b;" horiz-adv-x="489" 
d="M251 516q51 0 94.5 -19t75.5 -54l-68 -67q-19 20 -42.5 31.5t-61.5 11.5q-42 0 -69.5 -10.5t-27.5 -34.5q0 -12 6.5 -21t16 -15t21.5 -10t24 -7q37 -11 74 -20t72 -25q18 -8 34 -20t28.5 -27t20 -33t7.5 -40q0 -46 -17.5 -78t-47 -52t-68 -29t-79.5 -9q-67 0 -120.5 22.5
t-87.5 83.5l81 51q23 -32 51.5 -46t80.5 -14q98 0 98 58q0 24 -20 37t-47 21q-36 11 -77.5 20t-76.5 26q-39 19 -60 50.5t-21 79.5q0 34 15 60t42 43.5t65 26.5t84 9zM186 585l52 122h92v-25l-67 -97h-77z" />
    <glyph glyph-name="Scircumflex" unicode="&#x15c;" horiz-adv-x="610" 
d="M57 519q0 52 24 87.5t62 58t84.5 32.5t91.5 10q32 0 64.5 -6.5t63.5 -19t58 -31t48 -42.5l-77 -69q-35 35 -76.5 48.5t-91.5 13.5q-23 0 -46.5 -4t-43.5 -13t-32.5 -24t-12.5 -37q0 -25 6.5 -41t19 -26.5t29.5 -17.5t38 -14q48 -16 97 -26.5t96 -33.5q52 -25 83.5 -66
t31.5 -107q0 -57 -24 -96t-62 -63t-85.5 -34t-95.5 -10q-42 0 -83 9.5t-77.5 28.5t-66.5 47t-50 66l93 49q29 -45 75.5 -70t109.5 -25q28 0 55.5 5t49 16t35 29.5t13.5 44.5q0 23 -7 38.5t-20 25.5t-30 17t-36 13q-49 17 -98.5 28t-96.5 34q-26 13 -47.5 27.5t-36.5 35
t-23.5 47.5t-8.5 65zM346 860l90 -97v-26h-83l-47 81l-47 -81h-84v26l90 97h81z" />
    <glyph glyph-name="scircumflex" unicode="&#x15d;" horiz-adv-x="489" 
d="M251 516q51 0 94.5 -19t75.5 -54l-68 -67q-19 20 -42.5 31.5t-61.5 11.5q-42 0 -69.5 -10.5t-27.5 -34.5q0 -12 6.5 -21t16 -15t21.5 -10t24 -7q37 -11 74 -20t72 -25q18 -8 34 -20t28.5 -27t20 -33t7.5 -40q0 -46 -17.5 -78t-47 -52t-68 -29t-79.5 -9q-67 0 -120.5 22.5
t-87.5 83.5l81 51q23 -32 51.5 -46t80.5 -14q98 0 98 58q0 24 -20 37t-47 21q-36 11 -77.5 20t-76.5 26q-39 19 -60 50.5t-21 79.5q0 34 15 60t42 43.5t65 26.5t84 9zM293 707l90 -97v-26h-83l-47 81l-47 -81h-84v26l90 97h81z" />
    <glyph glyph-name="Scedilla" unicode="&#x15e;" horiz-adv-x="610" 
d="M57 519q0 52 24 87.5t62 58t84.5 32.5t91.5 10q32 0 64.5 -6.5t63.5 -19t58 -31t48 -42.5l-77 -69q-35 35 -76.5 48.5t-91.5 13.5q-23 0 -46.5 -4t-43.5 -13t-32.5 -24t-12.5 -37q0 -25 6.5 -41t19 -26.5t29.5 -17.5t38 -14q48 -16 97 -26.5t96 -33.5q52 -25 83.5 -66
t31.5 -107q0 -57 -24 -96t-62 -63t-85.5 -34t-95.5 -10q-42 0 -83 9.5t-77.5 28.5t-66.5 47t-50 66l93 49q29 -45 75.5 -70t109.5 -25q28 0 55.5 5t49 16t35 29.5t13.5 44.5q0 23 -7 38.5t-20 25.5t-30 17t-36 13q-49 17 -98.5 28t-96.5 34q-26 13 -47.5 27.5t-36.5 35
t-23.5 47.5t-8.5 65zM359 6l-18 -65q29 -14 37 -32.5t8 -39.5q0 -39 -31.5 -57t-73.5 -18q-19 0 -40.5 3t-39.5 10l16 55q14 -5 28.5 -7.5t28.5 -2.5q17 0 25.5 8t8.5 20q0 11 -9 23t-32 14l26 92z" />
    <glyph glyph-name="scedilla" unicode="&#x15f;" horiz-adv-x="489" 
d="M251 516q51 0 94.5 -19t75.5 -54l-68 -67q-19 20 -42.5 31.5t-61.5 11.5q-42 0 -69.5 -10.5t-27.5 -34.5q0 -12 6.5 -21t16 -15t21.5 -10t24 -7q37 -11 74 -20t72 -25q18 -8 34 -20t28.5 -27t20 -33t7.5 -40q0 -46 -17.5 -78t-47 -52t-68 -29t-79.5 -9q-67 0 -120.5 22.5
t-87.5 83.5l81 51q23 -32 51.5 -46t80.5 -14q98 0 98 58q0 24 -20 37t-47 21q-36 11 -77.5 20t-76.5 26q-39 19 -60 50.5t-21 79.5q0 34 15 60t42 43.5t65 26.5t84 9zM274 6l-18 -65q29 -14 37 -32.5t8 -39.5q0 -39 -31.5 -57t-73.5 -18q-19 0 -40.5 3t-39.5 10l16 55
q14 -5 28.5 -7.5t28.5 -2.5q17 0 25.5 8t8.5 20q0 11 -9 23t-32 14l26 92z" />
    <glyph glyph-name="Scaron" unicode="&#x160;" horiz-adv-x="610" 
d="M57 519q0 52 24 87.5t62 58t84.5 32.5t91.5 10q32 0 64.5 -6.5t63.5 -19t58 -31t48 -42.5l-77 -69q-35 35 -76.5 48.5t-91.5 13.5q-23 0 -46.5 -4t-43.5 -13t-32.5 -24t-12.5 -37q0 -25 6.5 -41t19 -26.5t29.5 -17.5t38 -14q48 -16 97 -26.5t96 -33.5q52 -25 83.5 -66
t31.5 -107q0 -57 -24 -96t-62 -63t-85.5 -34t-95.5 -10q-42 0 -83 9.5t-77.5 28.5t-66.5 47t-50 66l93 49q29 -45 75.5 -70t109.5 -25q28 0 55.5 5t49 16t35 29.5t13.5 44.5q0 23 -7 38.5t-20 25.5t-30 17t-36 13q-49 17 -98.5 28t-96.5 34q-26 13 -47.5 27.5t-36.5 35
t-23.5 47.5t-8.5 65zM274 737l-90 97v26h84l47 -81l47 81h83v-26l-90 -97h-81z" />
    <glyph glyph-name="scaron" unicode="&#x161;" horiz-adv-x="489" 
d="M251 516q51 0 94.5 -19t75.5 -54l-68 -67q-19 20 -42.5 31.5t-61.5 11.5q-42 0 -69.5 -10.5t-27.5 -34.5q0 -12 6.5 -21t16 -15t21.5 -10t24 -7q37 -11 74 -20t72 -25q18 -8 34 -20t28.5 -27t20 -33t7.5 -40q0 -46 -17.5 -78t-47 -52t-68 -29t-79.5 -9q-67 0 -120.5 22.5
t-87.5 83.5l81 51q23 -32 51.5 -46t80.5 -14q98 0 98 58q0 24 -20 37t-47 21q-36 11 -77.5 20t-76.5 26q-39 19 -60 50.5t-21 79.5q0 34 15 60t42 43.5t65 26.5t84 9zM211 584l-90 97v26h84l47 -81l47 81h83v-26l-90 -97h-81z" />
    <glyph glyph-name="Tcommaaccent" unicode="&#x162;" horiz-adv-x="592" 
d="M349 590v-590h-113v590h-220v105h564l-33 -105h-198zM274 -137q-14 5 -22.5 17t-8.5 27q0 20 13.5 33t32.5 13q24 0 38 -17.5t14 -40.5q0 -38 -23.5 -62.5t-57.5 -38.5l-25 33q13 5 24 14t15 22z" />
    <glyph glyph-name="tcommaaccent" unicode="&#x163;" horiz-adv-x="292" 
d="M71 414h-57v90h57v108l109 24v-132h80l-28 -90h-52v-269q0 -60 62 -60h25v-86q-14 -5 -27.5 -8t-28.5 -3q-28 0 -53.5 7.5t-44.5 23.5t-30.5 41.5t-11.5 61.5v292zM135 -137q-14 5 -22.5 17t-8.5 27q0 20 13.5 33t32.5 13q24 0 38 -17.5t14 -40.5q0 -38 -23.5 -62.5
t-57.5 -38.5l-25 33q13 5 24 14t15 22z" />
    <glyph glyph-name="Tcaron" unicode="&#x164;" horiz-adv-x="592" 
d="M349 590v-590h-113v590h-220v105h564l-33 -105h-198zM250 737l-90 97v26h84l47 -81l47 81h83v-26l-90 -97h-81z" />
    <glyph glyph-name="tcaron" unicode="&#x165;" horiz-adv-x="317" 
d="M71 414h-57v90h57v108l109 24v-132h80l-28 -90h-52v-269q0 -60 62 -60h25v-86q-14 -5 -27.5 -8t-28.5 -3q-28 0 -53.5 7.5t-44.5 23.5t-30.5 41.5t-11.5 61.5v292zM273 617q-14 5 -22.5 17t-8.5 27q0 20 13.5 33t32.5 13q24 0 38 -17.5t14 -40.5q0 -38 -23.5 -62.5
t-57.5 -38.5l-25 33q13 5 24 14t15 22z" />
    <glyph glyph-name="Umacron" unicode="&#x16a;" horiz-adv-x="673" 
d="M165 695v-389q0 -53 7.5 -93t26.5 -66.5t52.5 -40t85.5 -13.5q50 0 83 14t52.5 41t27.5 67t8 91v389h113v-396q0 -73 -15 -130.5t-48.5 -97.5t-88 -61.5t-132.5 -21.5q-81 0 -135.5 20.5t-87.5 60.5t-47.5 98t-14.5 132v396h113zM188 844h296q4 -8 5.5 -22t1.5 -23
t-1.5 -23t-5.5 -22h-296q-4 8 -5.5 22t-1.5 24q0 9 1.5 22.5t5.5 21.5z" />
    <glyph glyph-name="umacron" unicode="&#x16b;" 
d="M246 -12q-94 0 -143 45t-49 139v313l109 31v-321q0 -26 2.5 -46t11.5 -34.5t25.5 -22t43.5 -7.5q21 0 39 7t34.5 18.5t31 25.5t27.5 29v320l109 31v-401q0 -38 7 -62q3 -12 8.5 -25.5t13.5 -27.5h-115q-8 12 -13 28.5t-5 30.5q-29 -30 -61.5 -50.5t-75.5 -20.5zM137 695
h296q4 -8 5.5 -22t1.5 -23t-1.5 -23t-5.5 -22h-296q-4 8 -5.5 22t-1.5 24q0 9 1.5 22.5t5.5 21.5z" />
    <glyph glyph-name="Uring" unicode="&#x16e;" horiz-adv-x="673" 
d="M165 695v-389q0 -53 7.5 -93t26.5 -66.5t52.5 -40t85.5 -13.5q50 0 83 14t52.5 41t27.5 67t8 91v389h113v-396q0 -73 -15 -130.5t-48.5 -97.5t-88 -61.5t-132.5 -21.5q-81 0 -135.5 20.5t-87.5 60.5t-47.5 98t-14.5 132v396h113zM240 748q0 40 28 68t68 28t68 -28t28 -68
t-28 -68t-68 -28t-68 28t-28 68zM294 748q0 -17 12 -29t29 -12t29 12t12 29t-12 29t-29 12t-29 -12t-12 -29z" />
    <glyph glyph-name="uring" unicode="&#x16f;" 
d="M246 -12q-94 0 -143 45t-49 139v313l109 31v-321q0 -26 2.5 -46t11.5 -34.5t25.5 -22t43.5 -7.5q21 0 39 7t34.5 18.5t31 25.5t27.5 29v320l109 31v-401q0 -38 7 -62q3 -12 8.5 -25.5t13.5 -27.5h-115q-8 12 -13 28.5t-5 30.5q-29 -30 -61.5 -50.5t-75.5 -20.5zM190 631
q0 40 28 68t68 28t68 -28t28 -68t-28 -68t-68 -28t-68 28t-28 68zM244 631q0 -17 12 -29t29 -12t29 12t12 29t-12 29t-29 12t-29 -12t-12 -29z" />
    <glyph glyph-name="Uhungarumlaut" unicode="&#x170;" horiz-adv-x="673" 
d="M165 695v-389q0 -53 7.5 -93t26.5 -66.5t52.5 -40t85.5 -13.5q50 0 83 14t52.5 41t27.5 67t8 91v389h113v-396q0 -73 -15 -130.5t-48.5 -97.5t-88 -61.5t-132.5 -21.5q-81 0 -135.5 20.5t-87.5 60.5t-47.5 98t-14.5 132v396h113zM229 738l75 122h80v-25l-84 -97h-71z
M358 738l76 122h80v-25l-84 -97h-72z" />
    <glyph glyph-name="uhungarumlaut" unicode="&#x171;" 
d="M246 -12q-94 0 -143 45t-49 139v313l109 31v-321q0 -26 2.5 -46t11.5 -34.5t25.5 -22t43.5 -7.5q21 0 39 7t34.5 18.5t31 25.5t27.5 29v320l109 31v-401q0 -38 7 -62q3 -12 8.5 -25.5t13.5 -27.5h-115q-8 12 -13 28.5t-5 30.5q-29 -30 -61.5 -50.5t-75.5 -20.5zM197 584
l52 123h65v-26l-67 -97h-50zM298 584l52 123h65v-26l-67 -97h-50z" />
    <glyph glyph-name="Uogonek" unicode="&#x172;" horiz-adv-x="673" 
d="M165 695v-389q0 -53 7.5 -93t26.5 -66.5t52.5 -40t85.5 -13.5q50 0 83 14t52.5 41t27.5 67t8 91v389h113v-396q0 -73 -15 -130.5t-48.5 -97.5t-88 -61.5t-132.5 -21.5q-81 0 -135.5 20.5t-87.5 60.5t-47.5 98t-14.5 132v396h113zM397 11q-27 -20 -39.5 -44t-12.5 -44
t7.5 -34t30.5 -14q18 0 44 9v-71q-21 -10 -44 -14.5t-40 -4.5q-20 0 -38 6.5t-31 18.5t-20.5 28.5t-7.5 35.5q0 27 13 63t41 65h97z" />
    <glyph glyph-name="uogonek" unicode="&#x173;" 
d="M246 -12q-94 0 -143 45t-49 139v313l109 31v-321q0 -26 2.5 -46t11.5 -34.5t25.5 -22t43.5 -7.5q21 0 39 7t34.5 18.5t31 25.5t27.5 29v320l109 31v-401q0 -38 7 -62q3 -12 8.5 -25.5t13.5 -27.5h-115q-8 12 -13 28.5t-5 30.5q-29 -30 -61.5 -50.5t-75.5 -20.5zM498 11
q-27 -20 -39.5 -44t-12.5 -44t7.5 -34t30.5 -14q18 0 44 9v-71q-21 -10 -44 -14.5t-40 -4.5q-20 0 -38 6.5t-31 18.5t-20.5 28.5t-7.5 35.5q0 27 13 63t41 65h97z" />
    <glyph glyph-name="Ydieresis" unicode="&#x178;" horiz-adv-x="634" 
d="M622 678l-227 -354q-7 -10 -20 -10v-314h-116v314q-13 0 -20 10l-226 354l108 29l191 -301h11l190 301zM418 860q24 0 42 -16.5t18 -41.5q0 -26 -18 -42t-42 -16q-25 0 -42.5 16t-17.5 42q0 25 17.5 41.5t42.5 16.5zM216 860q24 0 42 -16.5t18 -41.5q0 -26 -18 -42
t-42 -16q-25 0 -42.5 16t-17.5 42q0 25 17.5 41.5t42.5 16.5z" />
    <glyph glyph-name="Zacute" unicode="&#x179;" horiz-adv-x="696" 
d="M96 695h537v-43q0 -42 -28 -73l-376 -435l-46 -39h461v-105h-597v46q0 40 28 73l352 412l73 59h-436zM291 737l76 123h97v-25l-84 -98h-89z" />
    <glyph glyph-name="zacute" unicode="&#x17a;" horiz-adv-x="597" 
d="M72 504h459v-21q0 -44 -32 -78l-304 -323l95 15h255l-27 -97h-463v29q0 21 9 41q4 10 9.5 19t12.5 17l299 318l-84 -13h-229v93zM240 585l52 122h92v-25l-67 -97h-77z" />
    <glyph glyph-name="Zdotaccent" unicode="&#x17b;" horiz-adv-x="696" 
d="M96 695h537v-43q0 -42 -28 -73l-376 -435l-46 -39h461v-105h-597v46q0 40 28 73l352 412l73 59h-436zM357 860q25 0 42 -16q18 -18 18 -42q0 -26 -18 -42q-17 -16 -42 -16q-26 0 -42 16q-18 16 -18 42q0 24 18 42q16 16 42 16z" />
    <glyph glyph-name="zdotaccent" unicode="&#x17c;" horiz-adv-x="597" 
d="M72 504h459v-21q0 -44 -32 -78l-304 -323l95 15h255l-27 -97h-463v29q0 21 9 41q4 10 9.5 19t12.5 17l299 318l-84 -13h-229v93zM315 707q25 0 42 -16q18 -18 18 -42q0 -26 -18 -42q-17 -16 -42 -16q-26 0 -42 16q-18 16 -18 42q0 24 18 42q16 16 42 16z" />
    <glyph glyph-name="Zcaron" unicode="&#x17d;" horiz-adv-x="696" 
d="M96 695h537v-43q0 -42 -28 -73l-376 -435l-46 -39h461v-105h-597v46q0 40 28 73l352 412l73 59h-436zM342 737l-90 97v26h84l47 -81l47 81h83v-26l-90 -97h-81z" />
    <glyph glyph-name="zcaron" unicode="&#x17e;" horiz-adv-x="597" 
d="M72 504h459v-21q0 -44 -32 -78l-304 -323l95 15h255l-27 -97h-463v29q0 21 9 41q4 10 9.5 19t12.5 17l299 318l-84 -13h-229v93zM280 584l-90 97v26h84l47 -81l47 81h83v-26l-90 -97h-81z" />
    <glyph glyph-name="uni018F" unicode="&#x18f;" horiz-adv-x="705" 
d="M553 387q0 9 -0.5 17.5t-1.5 16.5q-10 93 -61.5 138.5t-151.5 45.5q-26 0 -52 -4t-50 -14t-43.5 -26.5t-31.5 -41.5l-4 -10l-102 39l5 11q19 40 49 68t67.5 46t79 26t83.5 8q91 0 153 -25.5t100 -72.5t55 -114t17 -150v-26q0 -76 -20 -137.5t-60 -104.5t-100 -66
t-139 -23h-7q-76 0 -133 24.5t-94.5 68.5t-56.5 104t-19 131v71h518zM551 282h-402q1 -41 14 -76.5t37 -61.5t58.5 -40.5t79.5 -14.5h8q45 0 82 13.5t64 39t42 61t17 79.5z" />
    <glyph glyph-name="florin" unicode="&#x192;" horiz-adv-x="393" 
d="M251 482h97v-89h-97v-361q0 -34 -13 -62.5t-34.5 -49.5t-51 -32.5t-62.5 -11.5q-23 0 -41 4t-38 12l13 81h51q29 0 49 14t20 45v361h-75v89h75v59q0 34 12.5 62t34.5 48.5t51 32t62 11.5q37 0 71 -13l9 -3l-14 -78h-61q-26 0 -42 -17t-16 -43v-59z" />
    <glyph glyph-name="uni01CF" unicode="&#x1cf;" horiz-adv-x="238" 
d="M173 695v-695h-113v695h113zM77 737l-90 97v26h84l47 -81l47 81h83v-26l-90 -97h-81z" />
    <glyph glyph-name="uni01D0" unicode="&#x1d0;" horiz-adv-x="294" 
d="M90 0v504h109v-504h-109zM103 584l-90 97v26h84l47 -81l47 81h83v-26l-90 -97h-81z" />
    <glyph glyph-name="Gcaron" unicode="&#x1e6;" horiz-adv-x="661" 
d="M528 543q-31 34 -70.5 46t-81.5 12q-63 0 -106.5 -16t-70 -47.5t-38 -77t-11.5 -103.5v-25q0 -113 58 -176t185 -63q29 0 56.5 7t53.5 18v137h-127v106h236v-312q-49 -26 -108.5 -43.5t-116.5 -17.5q-81 0 -146 23t-110 67.5t-69.5 109t-24.5 147.5v23q0 79 21.5 143.5
t64.5 110.5t106 70.5t147 24.5q66 0 128 -22t106 -74zM340 737l-90 97v26h84l47 -81l47 81h83v-26l-90 -97h-81z" />
    <glyph glyph-name="gcaron" unicode="&#x1e7;" horiz-adv-x="545" 
d="M252 97q42 0 73.5 23t57.5 57v227q-23 8 -41.5 11.5t-42.5 3.5q-42 0 -70.5 -8t-46 -26t-25 -46.5t-7.5 -70.5v-44q0 -30 3.5 -53.5t14.5 -40t31 -25t53 -8.5zM383 66q-28 -28 -59 -47t-72 -19q-103 0 -157 58.5t-54 159.5v52q0 126 65.5 186t190.5 60q48 0 99.5 -8.5
t95.5 -27.5v-462q0 -49 -18 -90t-50 -71t-75 -46.5t-92 -16.5q-55 0 -104 13t-97 41l51 89q38 -23 73 -31t79 -8q65 0 94.5 33.5t29.5 96.5v38zM258 584l-90 97v26h84l47 -81l47 81h83v-26l-90 -97h-81z" />
    <glyph glyph-name="Scommaaccent" unicode="&#x218;" horiz-adv-x="610" 
d="M57 519q0 52 24 87.5t62 58t84.5 32.5t91.5 10q32 0 64.5 -6.5t63.5 -19t58 -31t48 -42.5l-77 -69q-35 35 -76.5 48.5t-91.5 13.5q-23 0 -46.5 -4t-43.5 -13t-32.5 -24t-12.5 -37q0 -25 6.5 -41t19 -26.5t29.5 -17.5t38 -14q48 -16 97 -26.5t96 -33.5q52 -25 83.5 -66
t31.5 -107q0 -57 -24 -96t-62 -63t-85.5 -34t-95.5 -10q-42 0 -83 9.5t-77.5 28.5t-66.5 47t-50 66l93 49q29 -45 75.5 -70t109.5 -25q28 0 55.5 5t49 16t35 29.5t13.5 44.5q0 23 -7 38.5t-20 25.5t-30 17t-36 13q-49 17 -98.5 28t-96.5 34q-26 13 -47.5 27.5t-36.5 35
t-23.5 47.5t-8.5 65zM293 -137q-14 5 -22.5 17t-8.5 27q0 20 13.5 33t32.5 13q24 0 38 -17.5t14 -40.5q0 -38 -23.5 -62.5t-57.5 -38.5l-25 33q13 5 24 14t15 22z" />
    <glyph glyph-name="scommaaccent" unicode="&#x219;" horiz-adv-x="489" 
d="M251 516q51 0 94.5 -19t75.5 -54l-68 -67q-19 20 -42.5 31.5t-61.5 11.5q-42 0 -69.5 -10.5t-27.5 -34.5q0 -12 6.5 -21t16 -15t21.5 -10t24 -7q37 -11 74 -20t72 -25q18 -8 34 -20t28.5 -27t20 -33t7.5 -40q0 -46 -17.5 -78t-47 -52t-68 -29t-79.5 -9q-67 0 -120.5 22.5
t-87.5 83.5l81 51q23 -32 51.5 -46t80.5 -14q98 0 98 58q0 24 -20 37t-47 21q-36 11 -77.5 20t-76.5 26q-39 19 -60 50.5t-21 79.5q0 34 15 60t42 43.5t65 26.5t84 9zM237 -137q-14 5 -22.5 17t-8.5 27q0 20 13.5 33t32.5 13q24 0 38 -17.5t14 -40.5q0 -38 -23.5 -62.5
t-57.5 -38.5l-25 33q13 5 24 14t15 22z" />
    <glyph glyph-name="uni0237" unicode="&#x237;" horiz-adv-x="209" 
d="M54 504h109v-586q0 -27 -10 -50t-27 -39.5t-41 -25.5t-52 -9q-17 0 -42 4t-42 8v86h43q62 0 62 60v552z" />
    <glyph glyph-name="uni0259" unicode="&#x259;" 
d="M416 286q-4 70 -39.5 103.5t-114.5 33.5q-36 0 -62.5 -16t-49.5 -42l-5 -6l-96 36l6 12q34 57 91.5 83t120.5 26q67 0 115 -18.5t78.5 -53.5t45 -84.5t14.5 -112.5v-13q0 -54 -16.5 -99.5t-48 -78t-76 -50.5t-101.5 -18t-102 16.5t-76.5 47.5t-48 75.5t-16.5 100.5v58
h381zM416 193h-273q0 -29 11 -50t30 -34.5t43 -20.5t50 -7q25 0 50 7t45 20.5t32 34.5t12 50z" />
    <glyph glyph-name="circumflex" unicode="&#x2c6;" horiz-adv-x="322" 
d="M201 860l90 -97v-26h-83l-47 81l-47 -81h-84v26l90 97h81z" />
    <glyph glyph-name="caron" unicode="&#x2c7;" horiz-adv-x="316" 
d="M117 737l-90 97v26h84l47 -81l47 81h83v-26l-90 -97h-81z" />
    <glyph glyph-name="uni02C9" unicode="&#x2c9;" horiz-adv-x="429" 
d="M66 844h296q4 -8 5.5 -22t1.5 -23t-1.5 -23t-5.5 -22h-296q-4 8 -5.5 22t-1.5 24q0 9 1.5 22.5t5.5 21.5z" />
    <glyph glyph-name="breve" unicode="&#x2d8;" horiz-adv-x="370" 
d="M185 738q-28 0 -54.5 6.5t-47.5 21.5t-33.5 38t-12.5 56h71q0 -30 22.5 -42.5t54.5 -12.5q30 0 53.5 12t23.5 43h71q0 -33 -13 -56.5t-34 -38t-47.5 -21t-53.5 -6.5z" />
    <glyph glyph-name="dotaccent" unicode="&#x2d9;" horiz-adv-x="196" 
d="M98 860q25 0 42 -16q18 -18 18 -42q0 -26 -18 -42q-17 -16 -42 -16q-26 0 -42 16q-18 16 -18 42q0 24 18 42q16 16 42 16z" />
    <glyph glyph-name="ring" unicode="&#x2da;" horiz-adv-x="265" 
d="M36 748q0 40 28 68t68 28t68 -28t28 -68t-28 -68t-68 -28t-68 28t-28 68zM90 748q0 -17 12 -29t29 -12t29 12t12 29t-12 29t-29 12t-29 -12t-12 -29z" />
    <glyph glyph-name="ogonek" unicode="&#x2db;" horiz-adv-x="249" 
d="M188 11q-27 -20 -39.5 -44t-12.5 -44t7.5 -34t30.5 -14q18 0 44 9v-71q-21 -10 -44 -14.5t-40 -4.5q-20 0 -38 6.5t-31 18.5t-20.5 28.5t-7.5 35.5q0 27 13 63t41 65h97z" />
    <glyph glyph-name="tilde" unicode="&#x2dc;" horiz-adv-x="409" 
d="M45 752q0 21 6.5 40.5t19.5 34.5t30.5 24t40.5 9q18 0 32 -5t27 -11t25.5 -11t26.5 -5q25 0 35 8t10 24h67q0 -48 -29 -78t-73 -30q-20 0 -33.5 5.5t-25.5 12t-24 12t-28 5.5q-17 0 -28.5 -9t-11.5 -26h-67z" />
    <glyph glyph-name="hungarumlaut" unicode="&#x2dd;" horiz-adv-x="348" 
d="M32 738l75 122h80v-25l-84 -97h-71zM161 738l76 122h80v-25l-84 -97h-72z" />
    <glyph glyph-name="gravecomb" unicode="&#x300;" horiz-adv-x="187" 
d="M86 585l-67 97v25h92l52 -122h-77z" />
    <glyph glyph-name="acutecomb" unicode="&#x301;" horiz-adv-x="187" 
d="M24 585l52 122h92v-25l-67 -97h-77z" />
    <glyph glyph-name="uni0302" unicode="&#x302;" horiz-adv-x="322" 
d="M201 707l90 -97v-26h-83l-47 81l-47 -81h-84v26l90 97h81z" />
    <glyph glyph-name="tildecomb" unicode="&#x303;" horiz-adv-x="408" 
d="M45 599q0 21 6.5 40.5t19.5 34.5t30.5 24t40.5 9q18 0 32 -5t27 -11t25.5 -11t26.5 -5q25 0 35 8t10 24h67q0 -48 -29 -78t-73 -30q-20 0 -33.5 5.5t-25.5 12t-24 12t-28 5.5q-17 0 -28.5 -9t-11.5 -26h-67z" />
    <glyph glyph-name="uni0304" unicode="&#x304;" horiz-adv-x="429" 
d="M66 695h296q4 -8 5.5 -22t1.5 -23t-1.5 -23t-5.5 -22h-296q-4 8 -5.5 22t-1.5 24q0 9 1.5 22.5t5.5 21.5z" />
    <glyph glyph-name="uni0306" unicode="&#x306;" horiz-adv-x="370" 
d="M185 585q-28 0 -54.5 6.5t-47.5 21.5t-33.5 38t-12.5 56h71q0 -30 22.5 -42.5t54.5 -12.5q30 0 53.5 12t23.5 43h71q0 -33 -13 -56.5t-34 -38t-47.5 -21t-53.5 -6.5z" />
    <glyph glyph-name="uni0307" unicode="&#x307;" horiz-adv-x="196" 
d="M98 707q25 0 42 -16q18 -18 18 -42q0 -26 -18 -42q-17 -16 -42 -16q-26 0 -42 16q-18 16 -18 42q0 24 18 42q16 16 42 16z" />
    <glyph glyph-name="uni0308" unicode="&#x308;" horiz-adv-x="424" 
d="M313 707q24 0 42 -16.5t18 -41.5q0 -26 -18 -42t-42 -16q-25 0 -42.5 16t-17.5 42q0 25 17.5 41.5t42.5 16.5zM111 707q24 0 42 -16.5t18 -41.5q0 -26 -18 -42t-42 -16q-25 0 -42.5 16t-17.5 42q0 25 17.5 41.5t42.5 16.5z" />
    <glyph glyph-name="uni030A" unicode="&#x30a;" horiz-adv-x="265" 
d="M36 631q0 40 28 68t68 28t68 -28t28 -68t-28 -68t-68 -28t-68 28t-28 68zM90 631q0 -17 12 -29t29 -12t29 12t12 29t-12 29t-29 12t-29 -12t-12 -29z" />
    <glyph glyph-name="uni030B" unicode="&#x30b;" horiz-adv-x="283" 
d="M35 584l52 123h65v-26l-67 -97h-50zM136 584l52 123h65v-26l-67 -97h-50z" />
    <glyph glyph-name="uni030C" unicode="&#x30c;" horiz-adv-x="316" 
d="M117 584l-90 97v26h84l47 -81l47 81h83v-26l-90 -97h-81z" />
    <glyph glyph-name="uni0326" unicode="&#x326;" horiz-adv-x="158" 
d="M67 -137q-14 5 -22.5 17t-8.5 27q0 20 13.5 33t32.5 13q24 0 38 -17.5t14 -40.5q0 -38 -23.5 -62.5t-57.5 -38.5l-25 33q13 5 24 14t15 22z" />
    <glyph glyph-name="uni0327" unicode="&#x327;" horiz-adv-x="232" 
d="M170 6l-18 -65q29 -14 37 -32.5t8 -39.5q0 -39 -31.5 -57t-73.5 -18q-19 0 -40.5 3t-39.5 10l16 55q14 -5 28.5 -7.5t28.5 -2.5q17 0 25.5 8t8.5 20q0 11 -9 23t-32 14l26 92z" />
    <glyph glyph-name="uni0328" unicode="&#x328;" horiz-adv-x="249" 
d="M188 11q-27 -20 -39.5 -44t-12.5 -44t7.5 -34t30.5 -14q18 0 44 9v-71q-21 -10 -44 -14.5t-40 -4.5q-20 0 -38 6.5t-31 18.5t-20.5 28.5t-7.5 35.5q0 27 13 63t41 65h97z" />
    <glyph glyph-name="Pi" unicode="&#x3a0;" horiz-adv-x="675" 
d="M460 0v590h-245v-590h-112v590h-56v105h582v-105h-57v-590h-112z" />
    <glyph glyph-name="Sigma" unicode="&#x3a3;" horiz-adv-x="662" 
d="M637 645h-444l234 -291q17 -22 17 -47q0 -24 -16 -46l-226 -299h435v-105h-579v103l265 347l-265 340v103h579v-105z" />
    <glyph glyph-name="pi" unicode="&#x3c0;" horiz-adv-x="669" 
d="M513 145q0 -60 62 -60h39v-85q-16 -5 -40 -8.5t-41 -3.5q-28 0 -51.5 9t-41 25.5t-27 39.5t-9.5 50v299h-194v-411h-109v411h-61v93h552v-93h-79v-266z" />
    <glyph glyph-name="afii10023" unicode="&#x401;" horiz-adv-x="616" 
d="M568 0h-508v695h511l-33 -105h-366v-169h333v-106h-333v-210h396v-105zM429 860q24 0 42 -16.5t18 -41.5q0 -26 -18 -42t-42 -16q-25 0 -42.5 16t-17.5 42q0 25 17.5 41.5t42.5 16.5zM227 860q24 0 42 -16.5t18 -41.5q0 -26 -18 -42t-42 -16q-25 0 -42.5 16t-17.5 42
q0 25 17.5 41.5t42.5 16.5z" />
    <glyph glyph-name="afii10051" unicode="&#x402;" horiz-adv-x="830" 
d="M252 0v590h-231v105h575l-33 -105h-198v-207q19 11 44 22t51.5 19.5t52.5 13.5t49 5q64 0 109 -16t73.5 -46t41.5 -73.5t13 -97.5q0 -53 -10 -94t-34 -69.5t-64 -43.5t-100 -15q-24 0 -51 3.5t-50 8.5l16 105q20 -5 40.5 -6.5t40.5 -1.5q30 0 51.5 5t35.5 17.5t21 34
t7 53.5q0 35 -10 59.5t-28 39.5t-44 21.5t-58 6.5q-51 0 -101.5 -18.5t-95.5 -41.5v-274h-113z" />
    <glyph glyph-name="afii10052" unicode="&#x403;" horiz-adv-x="491" 
d="M60 0v695h457l-34 -105h-310v-590h-113zM234 737l76 123h97v-25l-84 -98h-89z" />
    <glyph glyph-name="afii10053" unicode="&#x404;" horiz-adv-x="643" 
d="M163 306q0 -13 1 -26t3 -26q11 -88 59.5 -124.5t140.5 -36.5q44 0 82.5 15.5t68.5 47.5l8 8l80 -74l-8 -9q-46 -48 -105.5 -70.5t-125.5 -22.5q-65 0 -121 14.5t-98 45.5t-69 79.5t-33 116.5q-2 26 -3.5 52t-1.5 52v37q0 23 1.5 47t5.5 47q9 62 38.5 105.5t72.5 70.5
t96.5 39.5t111.5 12.5q63 0 123.5 -21t105.5 -68l8 -8l-77 -66l-8 -3q-30 31 -70 45.5t-82 14.5q-80 0 -131.5 -32t-66.5 -112q-4 -22 -6 -46h240v-105h-240z" />
    <glyph glyph-name="afii10054" unicode="&#x405;" horiz-adv-x="610" 
d="M57 519q0 52 24 87.5t62 58t84.5 32.5t91.5 10q32 0 64.5 -6.5t63.5 -19t58 -31t48 -42.5l-77 -69q-35 35 -76.5 48.5t-91.5 13.5q-23 0 -46.5 -4t-43.5 -13t-32.5 -24t-12.5 -37q0 -25 6.5 -41t19 -26.5t29.5 -17.5t38 -14q48 -16 97 -26.5t96 -33.5q52 -25 83.5 -66
t31.5 -107q0 -57 -24 -96t-62 -63t-85.5 -34t-95.5 -10q-42 0 -83 9.5t-77.5 28.5t-66.5 47t-50 66l93 49q29 -45 75.5 -70t109.5 -25q28 0 55.5 5t49 16t35 29.5t13.5 44.5q0 23 -7 38.5t-20 25.5t-30 17t-36 13q-49 17 -98.5 28t-96.5 34q-26 13 -47.5 27.5t-36.5 35
t-23.5 47.5t-8.5 65z" />
    <glyph glyph-name="afii10055" unicode="&#x406;" horiz-adv-x="238" 
d="M173 695v-695h-113v695h113z" />
    <glyph glyph-name="afii10056" unicode="&#x407;" horiz-adv-x="238" 
d="M173 695v-695h-113v695h113zM221 860q24 0 42 -16.5t18 -41.5q0 -26 -18 -42t-42 -16q-25 0 -42.5 16t-17.5 42q0 25 17.5 41.5t42.5 16.5zM19 860q24 0 42 -16.5t18 -41.5q0 -26 -18 -42t-42 -16q-25 0 -42.5 16t-17.5 42q0 25 17.5 41.5t42.5 16.5z" />
    <glyph glyph-name="afii10057" unicode="&#x408;" horiz-adv-x="460" 
d="M191 -12q-31 0 -60 7t-53 22t-41.5 37.5t-26.5 52.5q-5 18 -7.5 36.5t-2.5 38.5h111q0 -13 3 -28.5t11.5 -29t24.5 -22.5t42 -9q30 0 49.5 8t30 23.5t14.5 38t4 51.5v481h115v-504q0 -100 -57 -151.5t-157 -51.5z" />
    <glyph glyph-name="afii10058" unicode="&#x409;" horiz-adv-x="1017" 
d="M997 202q0 -52 -16.5 -90t-46.5 -63t-71.5 -37t-91.5 -12h-314v590h-181l-31 -351q-2 -16 -4.5 -34.5t-6.5 -40.5q-5 -30 -14.5 -61.5t-26.5 -57t-42 -41.5t-62 -16q-22 0 -46 12v94q42 0 60.5 25.5t24.5 59.5q3 17 5.5 37.5t4.5 46.5l35 432h397v-276h217
q106 0 158 -58.5t52 -158.5zM884 209q0 51 -24 78t-88 27h-202v-209h197q64 0 90.5 27t26.5 77z" />
    <glyph glyph-name="afii10059" unicode="&#x40a;" horiz-adv-x="1046" 
d="M172 317v-317h-112v695h112v-272h312v272h113v-276h217q106 0 158 -58.5t52 -158.5q0 -52 -16.5 -90t-46.5 -63t-71.5 -37t-91.5 -12h-314v317h-312zM911 209q0 51 -24 78t-88 27h-202v-209h197q64 0 90.5 27t26.5 77z" />
    <glyph glyph-name="afii10060" unicode="&#x40b;" horiz-adv-x="838" 
d="M368 590v-191l120 35q22 6 44.5 9.5t45.5 3.5q54 0 96 -18.5t71 -50.5t44.5 -75.5t15.5 -93.5v-209h-115v186q0 31 -8.5 59.5t-25.5 51t-42 36t-57 13.5q-29 0 -65 -11l-124 -35v-300h-115v590h-229v105h574l-33 -105h-197z" />
    <glyph glyph-name="afii10061" unicode="&#x40c;" horiz-adv-x="620" 
d="M223 737l76 123h97v-25l-84 -98h-89zM173 695v-292h54l192 292h126l-216 -337l258 -358h-131l-226 314h-57v-314h-113v695h113z" />
    <glyph glyph-name="afii10062" unicode="&#x40e;" horiz-adv-x="604" 
d="M291 203q-24 9 -41.5 27t-28.5 41l-195 408l109 29l176 -367q6 -12 13 -16.5t19 -4.5l174 388l105 -28l-266 -593q-8 -19 -17.5 -36.5t-24 -31.5t-35.5 -22.5t-52 -8.5q-17 0 -34.5 4.5t-33.5 7.5v91h34q23 0 38.5 6.5t25.5 29.5zM319 738q-28 0 -54.5 6.5t-47.5 21.5
t-33.5 38t-12.5 56h71q0 -30 22.5 -42.5t54.5 -12.5q30 0 53.5 12t23.5 43h71q0 -33 -13 -56.5t-34 -38t-47.5 -21t-53.5 -6.5z" />
    <glyph glyph-name="afii10145" unicode="&#x40f;" horiz-adv-x="657" 
d="M613 0h-233v-142h-105v142h-232v695h115v-590h339v590h116v-695z" />
    <glyph glyph-name="afii10017" unicode="&#x410;" horiz-adv-x="701" 
d="M244 296h209l-91 233l-16 78l-16 -78zM210 198l-73 -198h-119l259 695h135l272 -695h-117l-77 198h-280z" />
    <glyph glyph-name="afii10018" unicode="&#x411;" horiz-adv-x="637" 
d="M603 216q0 -110 -60 -163t-164 -53h-319v695h474l-34 -105h-327v-169h211q105 0 162 -52t57 -153zM494 216q0 58 -33 79t-97 21h-191v-212h186q31 0 56 5.5t42.5 18t27 34t9.5 54.5z" />
    <glyph glyph-name="afii10019" unicode="&#x412;" horiz-adv-x="645" 
d="M351 414q43 0 69.5 22.5t26.5 78.5q0 45 -25 60t-68 15h-181v-176h178zM173 309v-204h203q63 0 92.5 28t29.5 77q0 53 -28.5 76t-88.5 23h-208zM496 369q54 -27 82.5 -68t28.5 -103q0 -52 -18 -89.5t-49.5 -61.5t-73 -35.5t-89.5 -11.5h-317v695h302q44 0 81 -10.5
t64 -32.5t42 -56t15 -81q0 -87 -68 -140v-6z" />
    <glyph glyph-name="afii10020" unicode="&#x413;" horiz-adv-x="517" 
d="M60 0v695h457l-34 -105h-310v-590h-113z" />
    <glyph glyph-name="afii10021" unicode="&#x414;" horiz-adv-x="730" 
d="M34 -143v236q23 0 36 4q16 4 28 16q6 5 11.5 13t10.5 18t10 22t11 28q14 38 22.5 76.5t10.5 78.5q6 79 6 166v180h437v-602h65v-236h-106v143h-448v-143h-94zM505 93v497h-216v-75q0 -27 -0.5 -54t-1.5 -54q-2 -28 -4 -55t-6 -53q-8 -56 -22 -106q-8 -26 -18 -51t-23 -49
h291z" />
    <glyph glyph-name="afii10022" unicode="&#x415;" horiz-adv-x="616" 
d="M568 0h-508v695h511l-33 -105h-366v-169h333v-106h-333v-210h396v-105z" />
    <glyph glyph-name="afii10024" unicode="&#x416;" horiz-adv-x="959" 
d="M420 0v309h-33q-17 0 -33 -4.5t-24 -20.5l-128 -235q-14 -26 -42.5 -43.5t-59.5 -17.5q-22 0 -46 12v93q7 0 16 0.5t17.5 2.5t15.5 7t11 13l112 209q8 17 21 27.5t30 19.5l-228 323h137l204 -290h30v303h118v-303h30l205 290h137l-228 -323q16 -9 29 -19.5t22 -27.5
l111 -209q9 -17 25 -20t35 -3v-93q-24 -12 -46 -12q-30 0 -58.5 17.5t-42.5 43.5l-128 235q-9 16 -24.5 20.5t-32.5 4.5h-34v-309h-118z" />
    <glyph glyph-name="afii10025" unicode="&#x417;" horiz-adv-x="529" 
d="M490 203q0 -60 -20 -101.5t-52.5 -66.5t-73.5 -36t-83 -11q-44 0 -77.5 5.5t-60.5 17.5t-48.5 32t-40.5 49l71 70q26 -39 59.5 -54t79.5 -15q63 0 99 29.5t36 82.5q0 36 -11.5 57t-31 32t-46.5 14.5t-58 3.5h-52v103h55q51 0 85 24t34 78q0 43 -28.5 63.5t-75.5 20.5
q-22 0 -38 -2.5t-29.5 -8.5t-26 -17t-26.5 -27l-86 57q38 59 90 81.5t121 22.5q101 0 156 -49.5t55 -138.5q0 -19 -5.5 -42.5t-15.5 -45t-23.5 -39.5t-29.5 -26q48 -18 73 -59t25 -104z" />
    <glyph glyph-name="afii10026" unicode="&#x418;" horiz-adv-x="690" 
d="M516 0v520l-346 -520h-110v695h113v-516l343 516h113v-695h-113z" />
    <glyph glyph-name="afii10027" unicode="&#x419;" horiz-adv-x="637" 
d="M516 0v520l-346 -520h-110v695h113v-516l343 516h113v-695h-113zM338 738q-28 0 -54.5 6.5t-47.5 21.5t-33.5 38t-12.5 56h71q0 -30 22.5 -42.5t54.5 -12.5q30 0 53.5 12t23.5 43h71q0 -33 -13 -56.5t-34 -38t-47.5 -21t-53.5 -6.5z" />
    <glyph glyph-name="afii10028" unicode="&#x41a;" horiz-adv-x="620" 
d="M173 695v-292h54l192 292h126l-216 -337l258 -358h-131l-226 314h-57v-314h-113v695h113z" />
    <glyph glyph-name="afii10029" unicode="&#x41b;" horiz-adv-x="630" 
d="M78 -12q-22 0 -46 12v94q42 0 60.5 25.5t24.5 59.5q3 17 5.5 37.5t4.5 46.5l35 432h407v-695h-113v590h-191l-31 -351q-2 -16 -4.5 -34.5t-6.5 -40.5q-5 -30 -14.5 -61.5t-26.5 -57t-42 -41.5t-62 -16z" />
    <glyph glyph-name="afii10030" unicode="&#x41c;" horiz-adv-x="812" 
d="M60 0v695h152l195 -486l195 486h149v-695h-113v524l-177 -442h-109l-179 454v-536h-113z" />
    <glyph glyph-name="afii10031" unicode="&#x41d;" horiz-adv-x="678" 
d="M172 317v-316h-112v695h112v-273h332v273h113v-695h-113v316h-332z" />
    <glyph glyph-name="afii10032" unicode="&#x41e;" horiz-adv-x="753" 
d="M377 -12q-84 0 -147.5 26.5t-105.5 74.5t-63.5 114t-21.5 145v27q0 73 25 134.5t70 105t107 68t136 24.5t136 -24.5t106.5 -68t69.5 -105t25 -134.5v-27q0 -79 -21 -145t-63.5 -114t-105.5 -74.5t-147 -26.5zM377 602q-110 0 -165.5 -62t-55.5 -167v-23q0 -55 11 -102
t37 -81.5t67.5 -54t103.5 -19.5q64 0 106.5 18.5t68 52.5t36.5 81.5t11 104.5v23q0 105 -55.5 167t-164.5 62z" />
    <glyph glyph-name="afii10033" unicode="&#x41f;" horiz-adv-x="668" 
d="M494 0v590h-321v-590h-113v695h547v-695h-113z" />
    <glyph glyph-name="afii10034" unicode="&#x420;" horiz-adv-x="611" 
d="M60 0v695h344q49 0 87 -16t63 -44.5t38 -68t13 -87.5t-12.5 -90t-37 -72.5t-62.5 -48t-89 -17.5h-231v-251h-113zM173 591v-234h192q66 0 96.5 29.5t30.5 92.5q0 60 -32.5 86t-94.5 26h-192z" />
    <glyph glyph-name="afii10035" unicode="&#x421;" horiz-adv-x="625" 
d="M155 347q0 -59 8.5 -106t31 -80t63 -50.5t105.5 -17.5q46 0 81 10.5t67 44.5l75 -70q-45 -48 -102 -69t-121 -21q-87 0 -148.5 26t-100.5 73t-57.5 112.5t-18.5 145.5v37q0 76 21.5 136.5t63 102.5t102 64t138.5 22q61 0 119 -20t102 -65l-76 -77q-32 32 -66 44t-79 12
q-107 0 -157.5 -56.5t-50.5 -164.5v-33z" />
    <glyph glyph-name="afii10036" unicode="&#x422;" horiz-adv-x="592" 
d="M349 590v-590h-113v590h-220v105h564l-33 -105h-198z" />
    <glyph glyph-name="afii10037" unicode="&#x423;" horiz-adv-x="632" 
d="M291 203q-24 9 -41.5 27t-28.5 41l-195 408l109 29l176 -367q6 -12 13 -16.5t19 -4.5l174 388l105 -28l-266 -593q-8 -19 -17.5 -36.5t-24 -31.5t-35.5 -22.5t-52 -8.5q-17 0 -34.5 4.5t-33.5 7.5v91h34q23 0 38.5 6.5t25.5 29.5z" />
    <glyph glyph-name="afii10038" unicode="&#x424;" horiz-adv-x="807" 
d="M347 0v96q-17 -6 -40 -10t-40 -4q-59 0 -103.5 20.5t-74 56.5t-44 84.5t-14.5 105.5v20q0 57 14.5 105.5t44 84.5t74 56.5t103.5 20.5q17 0 40 -4.5t40 -9.5v85h113v-85q17 5 40 9.5t40 4.5q59 0 103.5 -20.5t74 -56.5t44 -84.5t14.5 -105.5v-20q0 -57 -14.5 -105.5
t-44 -84.5t-74 -56.5t-103.5 -20.5q-17 0 -40 4t-40 10v-96h-113zM671 346v26q0 34 -8 63t-24.5 50.5t-43 33.5t-62.5 12q-42 0 -73 -15v-315q16 -9 34.5 -12t36.5 -3q37 0 63.5 12t43 33.5t24.5 51t9 63.5zM136 346q1 -34 9 -63.5t24.5 -51t42.5 -33.5t64 -12q18 0 36.5 3
t34.5 12v315q-32 15 -73 15q-36 0 -62.5 -12t-43 -33.5t-24.5 -50.5t-8 -63v-26z" />
    <glyph glyph-name="afii10039" unicode="&#x425;" horiz-adv-x="746" 
d="M350 246l-180 -246h-132l269 361l-223 317l108 29l137 -191l44 -89l44 89l137 191l108 -29l-223 -317l269 -361h-132l-181 246l-22 54z" />
    <glyph glyph-name="afii10040" unicode="&#x426;" horiz-adv-x="708" 
d="M594 105h66v-248h-105v143h-527v695h113v-590h340v590h113v-590z" />
    <glyph glyph-name="afii10041" unicode="&#x427;" horiz-adv-x="608" 
d="M434 695h113v-695h-113v302q-53 -35 -95 -52t-91 -17q-52 0 -95.5 15t-75 43.5t-49.5 70.5t-18 95v238h114v-214q0 -32 7 -59.5t21.5 -47.5t37.5 -32t56 -12q50 0 97.5 22t90.5 60v283z" />
    <glyph glyph-name="afii10042" unicode="&#x428;" horiz-adv-x="875" 
d="M814 695v-695h-754v695h113v-590h208v566h113v-566h207v590h113z" />
    <glyph glyph-name="afii10043" unicode="&#x429;" horiz-adv-x="895" 
d="M781 695v-590h63v-248h-103v143h-714v695h113v-590h208v566h113v-566h207v590h113z" />
    <glyph glyph-name="afii10044" unicode="&#x42a;" horiz-adv-x="745" 
d="M732 209q0 -60 -16 -100t-46 -64.5t-71.5 -34.5t-92.5 -10h-310v590h-136l-33 105h282v-273h202q51 0 91.5 -10.5t69.5 -35.5t44.5 -65.5t15.5 -101.5zM619 209q0 33 -7.5 54t-21.5 33t-35 16t-49 4h-197v-211h193q28 0 50 4t37 15.5t22.5 31.5t7.5 53z" />
    <glyph glyph-name="afii10045" unicode="&#x42b;" horiz-adv-x="840" 
d="M779 695v-695h-113v695h113zM600 202q0 -52 -16.5 -90t-46.5 -63t-71.5 -37t-91.5 -12h-314v695h113v-282h217q106 0 158 -55.5t52 -155.5zM487 209q0 51 -24 75t-88 24h-202v-203h197q64 0 90.5 27t26.5 77z" />
    <glyph glyph-name="afii10046" unicode="&#x42c;" horiz-adv-x="605" 
d="M600 202q0 -52 -16.5 -90t-46.5 -63t-71.5 -37t-91.5 -12h-314v695h113v-276h217q106 0 158 -58.5t52 -158.5zM487 209q0 51 -24 78t-88 27h-202v-209h197q64 0 90.5 27t26.5 77z" />
    <glyph glyph-name="afii10047" unicode="&#x42d;" horiz-adv-x="613" 
d="M55 642q43 34 97.5 49.5t108.5 15.5q157 0 235.5 -85.5t78.5 -236.5v-37q0 -80 -18 -146t-57 -113.5t-100.5 -74t-148.5 -26.5q-60 0 -114.5 17.5t-98.5 62.5q15 17 35 40t36 39q33 -32 64.5 -43t77.5 -11q105 0 151.5 52t51.5 161h-229v105h229q-6 101 -53 145.5
t-140 44.5q-42 0 -72.5 -13t-64.5 -38z" />
    <glyph glyph-name="afii10048" unicode="&#x42e;" horiz-adv-x="929" 
d="M769 349v19q0 51 -9.5 94t-32.5 74t-61 48t-96 17q-57 0 -93.5 -17.5t-58.5 -48.5t-30.5 -74t-8.5 -94v-18q0 -54 6 -100.5t26 -81t58 -54.5t102 -20q63 0 102 19t60 53t28.5 81t7.5 103zM268 290h-92v-290h-116v695h116v-301h90q4 69 21.5 127t53.5 99t92 64t136 23
q86 0 146 -26t97.5 -71.5t54 -107.5t16.5 -134v-19q0 -77 -14 -142.5t-49 -114.5t-96 -76.5t-154 -27.5q-80 0 -135 21t-90.5 60.5t-53.5 95.5t-23 125z" />
    <glyph glyph-name="afii10049" unicode="&#x42f;" horiz-adv-x="685" 
d="M204 51q-17 -23 -46 -43t-60 -20q-11 0 -29.5 3.5t-28.5 8.5v62q25 0 39.5 6t30.5 26l165 202q-91 5 -146.5 58t-55.5 147q0 51 18 87.5t49 60t72 35t87 11.5h325v-695h-114v295h-64q-17 0 -34.5 -6.5t-28.5 -20.5zM510 590h-208q-56 0 -86 -18t-30 -71q0 -58 28 -79.5
t88 -21.5h208v190z" />
    <glyph glyph-name="afii10065" unicode="&#x430;" 
d="M221 85q18 0 40 7.5t44 18.5t42.5 23.5t36.5 21.5v52h-175q-32 0 -48.5 -17t-16.5 -49q0 -35 22 -46t55 -11zM280 516q42 0 80.5 -12t68 -35.5t47 -57.5t17.5 -78v-218q0 -34 6.5 -59.5t22.5 -55.5h-115q-8 11 -12 28t-6 31q-41 -30 -84.5 -50.5t-94.5 -20.5
q-34 0 -65.5 11t-55.5 31.5t-38.5 49t-14.5 63.5q0 37 13 67t36.5 51t55 32t67.5 11h176v12q0 55 -26.5 79t-77.5 25q-46 0 -80.5 -9.5t-72.5 -29.5l-47 81q49 28 96 41t104 13z" />
    <glyph glyph-name="afii10066" unicode="&#x431;" horiz-adv-x="554" 
d="M412 256q0 36 -5.5 65t-20 49.5t-40.5 31t-67 10.5q-72 0 -104.5 -40.5t-32.5 -108.5q0 -38 5 -70.5t19 -56.5t40.5 -37.5t70.5 -13.5q39 0 65 13.5t41.5 36.5t22 53t6.5 64v4zM36 284q0 55 5 116t23.5 116t55 98t98.5 63q23 7 48.5 9t50 5t46 10t36.5 24l92 -73
q-21 -34 -57.5 -48t-75.5 -14q-45 0 -86.5 -9t-68.5 -27q-57 -38 -72 -119q52 69 161 69q112 0 168 -64t56 -185q0 -62 -16 -111t-46.5 -84t-75 -53.5t-102.5 -18.5q-115 0 -177.5 74.5t-62.5 214.5v7z" />
    <glyph glyph-name="afii10067" unicode="&#x432;" horiz-adv-x="534" 
d="M292 318q29 0 49.5 11t20.5 37t-18.5 35.5t-48.5 9.5h-126v-93h123zM384 160q0 36 -21.5 50t-53.5 14h-140v-127h133q35 0 58.5 11.5t23.5 51.5zM422 276q34 -20 52.5 -49.5t18.5 -69.5v-4q0 -37 -15.5 -65.5t-40.5 -48t-58 -29.5t-67 -10h-252v504h248q31 0 60.5 -8
t52 -24.5t36.5 -42t14 -59.5q0 -29 -15 -55.5t-34 -38.5z" />
    <glyph glyph-name="afii10068" unicode="&#x433;" horiz-adv-x="379" 
d="M169 411v-411h-109v504h317l-29 -93h-179z" />
    <glyph glyph-name="afii10069" unicode="&#x434;" horiz-adv-x="632" 
d="M35 -112v209q37 0 60.5 21t36 51.5t17.5 65t7 61.5q3 54 3 105v103h368v-407h56v-209h-94v112h-360v-112h-94zM208 97h216v314h-162v-10q0 -32 -0.5 -60t-1.5 -51q-2 -53 -13 -102t-39 -91z" />
    <glyph glyph-name="afii10070" unicode="&#x435;" horiz-adv-x="549" 
d="M149 218q0 -29 7.5 -53.5t25 -42t46.5 -27.5t72 -10q38 0 59 11t45 34l90 -37q-32 -54 -85 -79.5t-114 -25.5q-125 0 -190 65t-65 192v11v25t1 23q2 48 22 87t53 67t76 43t91 15q55 0 98 -17.5t73 -49t45.5 -76t15.5 -98.5v-57h-366zM149 311h257q0 24 -9 44t-25.5 34
t-39 22t-49.5 8q-25 0 -49 -6t-43 -19.5t-30.5 -34t-11.5 -48.5z" />
    <glyph glyph-name="afii10072" unicode="&#x436;" horiz-adv-x="778" 
d="M335 0v219h-19l-108 -168q-20 -32 -47 -47.5t-57 -15.5q-20 0 -44 12v86q17 0 36.5 6t29.5 21l95 145l-168 246h121l139 -204h22v204h109v-204h21l139 204h121l-168 -246l96 -145q10 -14 29.5 -20.5t36.5 -6.5v-86q-24 -12 -44 -12q-31 0 -59 17.5t-46 45.5l-107 168h-19
v-219h-109z" />
    <glyph glyph-name="afii10073" unicode="&#x437;" horiz-adv-x="447" 
d="M37 444q29 39 74.5 55.5t92.5 16.5q34 0 67 -6.5t59 -23t42.5 -44t16.5 -69.5q0 -32 -15 -60.5t-43 -44.5q37 -17 57 -48t20 -72q0 -47 -16.5 -77.5t-44.5 -49t-64.5 -26t-75.5 -7.5q-48 0 -93.5 17.5t-75.5 55.5l57 70q20 -21 51.5 -33.5t60.5 -12.5q50 0 74 16t24 53
t-29 49t-69 12h-45v90h50q39 0 58.5 11t19.5 46q0 29 -18.5 43t-61.5 14q-59 0 -95 -43z" />
    <glyph glyph-name="afii10074" unicode="&#x438;" horiz-adv-x="558" 
d="M389 0v346l-213 -346h-116v488l108 28v-359l214 347h115v-504h-108z" />
    <glyph glyph-name="afii10075" unicode="&#x439;" horiz-adv-x="490" 
d="M383 0v346l-213 -346h-116v488l108 28v-359l214 347h115v-504h-108zM276 585q-28 0 -54.5 6.5t-47.5 21.5t-33.5 38t-12.5 56h71q0 -30 22.5 -42.5t54.5 -12.5q30 0 53.5 12t23.5 43h71q0 -33 -13 -56.5t-34 -38t-47.5 -21t-53.5 -6.5z" />
    <glyph glyph-name="afii10076" unicode="&#x43a;" horiz-adv-x="511" 
d="M168 516v-216h38l145 204h111l-170 -245l110 -151q14 -20 31.5 -23t34.5 -3v-82q-12 -6 -28.5 -9t-25.5 -3q-14 0 -26 6t-22.5 15.5t-20 20.5t-16.5 21l-124 169h-37v-220h-109v486z" />
    <glyph glyph-name="afii10077" unicode="&#x43b;" horiz-adv-x="554" 
d="M124 248l20 256h350v-504h-109v411h-147l-13 -168q-5 -54 -15 -101t-28 -81t-44.5 -53.5t-62.5 -19.5q-21 1 -44 12v85q10 0 13 1t11 3q19 5 31.5 21.5t20 39t11.5 48.5t6 50z" />
    <glyph glyph-name="afii10078" unicode="&#x43c;" horiz-adv-x="679" 
d="M618 504v-504h-97v373l-134 -299h-94l-135 303v-377h-98v504h158l122 -272l122 272h156z" />
    <glyph glyph-name="afii10079" unicode="&#x43d;" horiz-adv-x="551" 
d="M490 516v-516h-109v225h-213v-225h-109v485l109 31v-197h213v166z" />
    <glyph glyph-name="afii10080" unicode="&#x43e;" horiz-adv-x="573" 
d="M432 252v20q0 66 -35 107t-111 41t-110 -41t-34 -108v-23q0 -36 6 -65.5t22 -51.5t44 -34t72 -12t72 12.5t44.5 35t23 53t6.5 66.5zM285 -12q-60 0 -106 20.5t-77 56t-47 83.5t-16 104v19q1 53 18.5 98t49.5 77.5t77 51t101 18.5q53 0 98.5 -18.5t79.5 -50.5t53 -77
t19 -97v-21q0 -56 -16.5 -104t-48.5 -83.5t-78.5 -56t-106.5 -20.5z" />
    <glyph glyph-name="afii10081" unicode="&#x43f;" horiz-adv-x="542" 
d="M169 411v-411h-109v504h421v-504h-109v411h-203z" />
    <glyph glyph-name="afii10082" unicode="&#x440;" horiz-adv-x="561" 
d="M314 516q56 0 99.5 -17.5t73.5 -48.5t45.5 -75t15.5 -96v-64q0 -56 -16 -98.5t-45.5 -71t-71 -43t-91.5 -14.5q-39 0 -79 20t-68 47v-249h-109v574q0 27 -4.5 47t-13.5 44l97 45q8 -14 14 -28t10 -31h6q26 29 62.5 44t74.5 15zM312 420q-39 0 -75 -21t-60 -51v-184
q13 -15 30 -29t36 -25t39.5 -18t41.5 -7q34 0 56.5 10.5t35.5 28.5t18 43t5 54v51q0 31 -6 58t-21 47t-39.5 31.5t-60.5 11.5z" />
    <glyph glyph-name="afii10083" unicode="&#x441;" horiz-adv-x="494" 
d="M289 516q45 0 89 -16t76 -48l-68 -67q-27 21 -48.5 27.5t-52.5 6.5q-76 0 -110.5 -38.5t-34.5 -111.5v-16q0 -39 7 -70t23.5 -52.5t44.5 -33.5t70 -12q31 0 56 6t50 26l64 -62q-33 -35 -77.5 -51t-92.5 -16q-65 0 -112 19t-77 54t-44.5 83t-14.5 107v19q0 115 66.5 180.5
t185.5 65.5z" />
    <glyph glyph-name="afii10084" unicode="&#x442;" horiz-adv-x="470" 
d="M291 411v-411h-109v411h-163v93h434l-22 -93h-140z" />
    <glyph glyph-name="afii10085" unicode="&#x443;" horiz-adv-x="564" 
d="M332 -107q-8 -20 -18 -37.5t-24.5 -31.5t-32.5 -22t-41 -8q-17 0 -39.5 3.5t-39.5 8.5v86h42q22 0 31.5 4.5t18.5 27.5l30 81q-47 0 -63 40l-168 441l103 30l144 -376q7 -18 28 -18l146 394l104 -30z" />
    <glyph glyph-name="afii10086" unicode="&#x444;" horiz-adv-x="749" 
d="M205 85q29 0 59.5 15.5t55.5 29.5v241q-39 48 -98 48q-36 0 -55.5 -16.5t-29 -41.5t-11 -54.5t-1.5 -54.5q0 -28 2 -57.5t10.5 -54t24.5 -40t43 -15.5zM545 85q27 0 43 15.5t24 40t10 54t2 57.5q0 25 -1.5 54.5t-10.5 54.5t-28.5 41.5t-55.5 16.5q-60 0 -99 -48v-241
q26 -14 56.5 -29.5t59.5 -15.5zM429 -194h-109v220q-31 -17 -63.5 -27.5t-68.5 -10.5q-37 0 -65 13t-48 35.5t-32.5 52t-18.5 63.5q-8 46 -8 88q0 26 2 50.5t6 49.5q6 38 19.5 70.5t36 56t54 36.5t73.5 13q29 0 62 -10t52 -32v203l108 30v-232q20 21 53 31t60 10
q42 0 73.5 -13t54 -36.5t36.5 -56t20 -70.5q4 -25 5.5 -49.5t1.5 -50.5q0 -22 -1.5 -44t-5.5 -44q-6 -34 -18.5 -63.5t-32.5 -52t-48.5 -35.5t-65.5 -13q-35 0 -67.5 10.5t-64.5 27.5v-220z" />
    <glyph glyph-name="afii10087" unicode="&#x445;" horiz-adv-x="555" 
d="M278 182l-119 -182h-121l182 266l-151 220l100 30l109 -167l108 167l100 -30l-151 -220l182 -266h-121z" />
    <glyph glyph-name="afii10088" unicode="&#x446;" horiz-adv-x="559" 
d="M27 485l109 31v-423h213v392l109 31v-423h54v-204h-93v111h-392v485z" />
    <glyph glyph-name="afii10089" unicode="&#x447;" horiz-adv-x="496" 
d="M11 485l109 31v-144q0 -24 3 -43.5t12 -34t24.5 -22.5t41.5 -8q38 0 69.5 23.5t55.5 52.5v145l109 31v-516h-109v229q-29 -29 -60 -45.5t-65 -16.5q-88 0 -139 45t-51 133v140z" />
    <glyph glyph-name="afii10090" unicode="&#x448;" horiz-adv-x="790" 
d="M449 502v-405h171v388l109 31v-516h-669v485l109 31v-419h171v374z" />
    <glyph glyph-name="afii10091" unicode="&#x449;" horiz-adv-x="801" 
d="M25 485l109 31v-419h171v374l109 31v-405h171v388l109 31v-419h56v-209h-94v112h-631v485z" />
    <glyph glyph-name="afii10092" unicode="&#x44a;" horiz-adv-x="595" 
d="M580 153q0 -41 -12 -70t-34.5 -47.5t-53.5 -27t-69 -8.5h-256v411h-95l-30 93h223v-185h162q78 0 121.5 -36.5t43.5 -129.5zM482 164q0 36 -17.5 48t-60.5 12h-151v-127h147q20 0 35.5 1.5t26 8.5t15.5 20.5t5 36.5z" />
    <glyph glyph-name="afii10093" unicode="&#x44b;" horiz-adv-x="707" 
d="M646 516v-516h-109v485zM495 158q0 -42 -12.5 -71.5t-35.5 -49t-54.5 -28.5t-68.5 -9h-264v491l109 25v-194h159q78 0 122.5 -40t44.5 -124zM386 158q0 43 -20 55t-61 12h-136v-128h137q19 0 34 1t25 7t15.5 18t5.5 35z" />
    <glyph glyph-name="afii10094" unicode="&#x44c;" horiz-adv-x="502" 
d="M495 158q0 -42 -12.5 -71.5t-35.5 -49t-54.5 -28.5t-68.5 -9h-264v491l109 25v-194h159q78 0 122.5 -40t44.5 -124zM386 158q0 43 -20 55t-61 12h-136v-128h137q19 0 34 1t25 7t15.5 18t5.5 35z" />
    <glyph glyph-name="afii10095" unicode="&#x44d;" horiz-adv-x="473" 
d="M38 447q38 38 81.5 53.5t98.5 15.5q57 0 98.5 -21.5t68 -58t39 -84t12.5 -99.5q0 -55 -13.5 -103t-42 -84t-72 -57t-104.5 -21q-51 0 -90 16.5t-75 54.5l64 69q21 -26 43.5 -34.5t55.5 -8.5q31 0 55.5 10t41.5 26.5t25.5 38.5t8.5 47h-167v93h167q0 51 -34 85t-96 34
q-34 0 -54.5 -10.5t-36.5 -31.5z" />
    <glyph glyph-name="afii10096" unicode="&#x44e;" horiz-adv-x="750" 
d="M603 252v19q0 70 -28 109t-98 39q-71 0 -100 -39.5t-29 -109.5v-18q0 -34 4.5 -66.5t18.5 -57.5t39 -40t67 -15q40 0 65 15.5t38.5 41t18 57.5t4.5 65zM249 211h-81v-211h-109v484l109 32v-212h81q6 100 61 156t166 56q58 0 101 -19.5t71.5 -52.5t42 -77.5t13.5 -95.5
v-20q0 -54 -13 -102t-40.5 -84t-71 -56.5t-103.5 -20.5q-56 0 -97 16t-69 45t-43 70t-18 92z" />
    <glyph glyph-name="afii10097" unicode="&#x44f;" horiz-adv-x="547" 
d="M178 196q-64 8 -93.5 45.5t-29.5 112.5q0 41 16 69.5t41.5 46.5t57.5 26t65 8h251v-504h-109v185h-49q-12 0 -22 -4t-17 -15l-74 -115q-17 -26 -49 -44.5t-64 -18.5q-11 0 -27.5 3.5t-26.5 8.5v85q17 0 39 5.5t33 20.5zM377 411h-138q-38 0 -56 -19t-18 -50q0 -32 16 -48
t58 -16h138v133z" />
    <glyph glyph-name="afii10071" unicode="&#x451;" horiz-adv-x="549" 
d="M149 218q0 -29 7.5 -53.5t25 -42t46.5 -27.5t72 -10q38 0 59 11t45 34l90 -37q-32 -54 -85 -79.5t-114 -25.5q-125 0 -190 65t-65 192v11v25t1 23q2 48 22 87t53 67t76 43t91 15q55 0 98 -17.5t73 -49t45.5 -76t15.5 -98.5v-57h-366zM149 311h257q0 24 -9 44t-25.5 34
t-39 22t-49.5 8q-25 0 -49 -6t-43 -19.5t-30.5 -34t-11.5 -48.5zM384 707q24 0 42 -16.5t18 -41.5q0 -26 -18 -42t-42 -16q-25 0 -42.5 16t-17.5 42q0 25 17.5 41.5t42.5 16.5zM182 707q24 0 42 -16.5t18 -41.5q0 -26 -18 -42t-42 -16q-25 0 -42.5 16t-17.5 42
q0 25 17.5 41.5t42.5 16.5z" />
    <glyph glyph-name="afii10099" unicode="&#x452;" horiz-adv-x="556" 
d="M524 -71q0 -27 -9.5 -51.5t-26.5 -43t-40.5 -29.5t-51.5 -11q-18 0 -41.5 4t-40.5 8v86h30q28 0 49.5 14.5t21.5 45.5v355q0 48 -21.5 74t-67.5 26q-44 0 -79 -22t-61 -85v-300h-109v553h-63v79h63v44l109 31v-75h162l-21 -79h-141v-111q29 35 64 48.5t79 13.5
q46 0 82.5 -14t61.5 -39t38 -59.5t13 -74.5v-388z" />
    <glyph glyph-name="afii10100" unicode="&#x453;" horiz-adv-x="334" 
d="M165 411v-411h-109v504h317l-29 -93h-179zM171 585l52 122h92v-25l-67 -97h-77z" />
    <glyph glyph-name="afii10101" unicode="&#x454;" horiz-adv-x="486" 
d="M141 304h177v-93h-177q3 -61 35 -95.5t95 -34.5q32 0 54 13t42 36l8 9l74 -69l-8 -8q-36 -40 -76 -57t-94 -17q-109 0 -164.5 55t-66.5 161q-2 12 -2 24v24v25.5t2 25.5q1 12 2.5 24t4.5 24q20 81 80.5 123t143.5 42q28 0 51 -4t43 -12.5t38.5 -22t38.5 -33.5l8 -9
l-73 -68l-8 9q-20 24 -43 35t-55 11q-42 0 -74 -19.5t-47 -57.5q-8 -21 -9 -41z" />
    <glyph glyph-name="afii10102" unicode="&#x455;" horiz-adv-x="489" 
d="M251 516q51 0 94.5 -19t75.5 -54l-68 -67q-19 20 -42.5 31.5t-61.5 11.5q-42 0 -69.5 -10.5t-27.5 -34.5q0 -12 6.5 -21t16 -15t21.5 -10t24 -7q37 -11 74 -20t72 -25q18 -8 34 -20t28.5 -27t20 -33t7.5 -40q0 -46 -17.5 -78t-47 -52t-68 -29t-79.5 -9q-67 0 -120.5 22.5
t-87.5 83.5l81 51q23 -32 51.5 -46t80.5 -14q98 0 98 58q0 24 -20 37t-47 21q-36 11 -77.5 20t-76.5 26q-39 19 -60 50.5t-21 79.5q0 34 15 60t42 43.5t65 26.5t84 9z" />
    <glyph glyph-name="afii10103" unicode="&#x456;" horiz-adv-x="154" 
 />
    <glyph glyph-name="afii10104" unicode="&#x457;" horiz-adv-x="361" 
d="M129 0v504h109v-504h-109zM281 707q24 0 42 -16.5t18 -41.5q0 -26 -18 -42t-42 -16q-25 0 -42.5 16t-17.5 42q0 25 17.5 41.5t42.5 16.5zM79 707q24 0 42 -16.5t18 -41.5q0 -26 -18 -42t-42 -16q-25 0 -42.5 16t-17.5 42q0 25 17.5 41.5t42.5 16.5z" />
    <glyph glyph-name="afii10105" unicode="&#x458;" horiz-adv-x="162" 
 />
    <glyph glyph-name="afii10106" unicode="&#x459;" horiz-adv-x="855" 
d="M832 158q0 -42 -12.5 -71.5t-35.5 -49t-54.5 -28.5t-68.5 -9h-264v411h-147l-13 -168q-5 -54 -15 -101t-28 -81t-44.5 -53.5t-62.5 -19.5q-21 1 -44 12v85q10 0 13 1t11 3q19 5 31.5 21.5t20 39t11.5 48.5t6 50l20 256h350v-182h159q78 0 122.5 -40t44.5 -124zM723 158
q0 43 -20 55t-61 12h-136v-128h137q19 0 34 1t25 7t15.5 18t5.5 35z" />
    <glyph glyph-name="afii10107" unicode="&#x45a;" horiz-adv-x="821" 
d="M797 158q0 -42 -12.5 -71.5t-35.5 -49t-54.5 -28.5t-68.5 -9h-244v225h-213v-225h-109v485l109 31v-197h213v172l109 25v-194h139q78 0 122.5 -40t44.5 -124zM688 158q0 43 -20 55t-61 12h-116v-128h117q19 0 34 1t25 7t15.5 18t5.5 35z" />
    <glyph glyph-name="afii10108" unicode="&#x45b;" horiz-adv-x="549" 
d="M315 631l-23 -76h-292v76h315zM312 504q41 0 76.5 -12.5t62 -35.5t41.5 -56t15 -73v-327h-109v315q0 48 -24.5 70t-64.5 22q-54 0 -85.5 -26.5t-54.5 -79.5v-301h-109v676l109 31v-265q29 35 64 48.5t79 13.5z" />
    <glyph glyph-name="afii10109" unicode="&#x45c;" horiz-adv-x="427" 
d="M168 516v-216h38l145 204h111l-170 -245l110 -151q14 -20 31.5 -23t34.5 -3v-82q-12 -6 -28.5 -9t-25.5 -3q-14 0 -26 6t-22.5 15.5t-20 20.5t-16.5 21l-124 169h-37v-220h-109v486zM206 585l52 122h92v-25l-67 -97h-77z" />
    <glyph glyph-name="afii10110" unicode="&#x45e;" horiz-adv-x="564" 
d="M332 -107q-8 -20 -18 -37.5t-24.5 -31.5t-32.5 -22t-41 -8q-17 0 -39.5 3.5t-39.5 8.5v86h42q22 0 31.5 4.5t18.5 27.5l30 81q-47 0 -63 40l-168 441l103 30l144 -376q7 -18 28 -18l146 394l104 -30zM293 585q-28 0 -54.5 6.5t-47.5 21.5t-33.5 38t-12.5 56h71
q0 -30 22.5 -42.5t54.5 -12.5q30 0 53.5 12t23.5 43h71q0 -33 -13 -56.5t-34 -38t-47.5 -21t-53.5 -6.5z" />
    <glyph glyph-name="afii10193" unicode="&#x45f;" horiz-adv-x="523" 
d="M46 504h98v-411h236v411h96v-504h-168v-92h-93v92h-169v504z" />
    <glyph glyph-name="afii10146" unicode="&#x462;" horiz-adv-x="684" 
d="M413 596l-29 -90h-355v90h384zM671 202q0 -52 -16.5 -90t-46.5 -63t-71.5 -37t-91.5 -12h-314v695h113v-276h217q106 0 158 -58.5t52 -158.5zM558 209q0 51 -24 78t-88 27h-202v-209h197q64 0 90.5 27t26.5 77z" />
    <glyph glyph-name="afii10194" unicode="&#x463;" horiz-adv-x="639" 
d="M239 307h133q41 0 76 -6.5t60.5 -23t39.5 -45.5t14 -74q0 -44 -15.5 -74t-41.5 -49t-61 -27t-75 -8h-238v420h-77v84h77v175l108 32v-207h157l-27 -84h-130v-113zM239 213v-116h141q14 0 27.5 1t24 7t17 17.5t6.5 32.5q0 20 -7.5 31.5t-18 17.5t-23.5 7.5t-23 1.5h-144z
" />
    <glyph glyph-name="afii10147" unicode="&#x472;" horiz-adv-x="753" 
d="M377 -12q-84 0 -147.5 26.5t-105.5 74.5t-63.5 114t-21.5 145v27q0 73 25 134t70 105t107 68.5t136 24.5t136 -24.5t106.5 -68.5t69.5 -105t25 -134v-27q0 -79 -21 -145t-63.5 -114t-105.5 -74.5t-147 -26.5zM597 332q-32 -28 -62 -44q-39 -21 -83 -21q-14 0 -28.5 2.5
t-28.5 7.5t-28 10.5t-28 11.5t-28.5 11.5t-28.5 10.5q-26 10 -55 10q-23 0 -45 -11l-12 -6t-12 -7q4 -47 17.5 -86t39.5 -67.5t65.5 -44.5t94.5 -16q61 0 103 17t68 48.5t37.5 75.5t13.5 98zM156 380q14 9 26.5 17t25.5 14q33 16 72 16q29 0 56 -9l28 -10l28 -10
q27 -11 56 -21q28 -9 55 -9t57 15q21 10 36 22q-8 91 -63 143.5t-156 52.5q-108 0 -163.5 -60t-57.5 -161z" />
    <glyph glyph-name="afii10195" unicode="&#x473;" horiz-adv-x="573" 
d="M431 223q-7 -5 -13 -8.5t-12 -7.5q-30 -15 -62 -15q-23 0 -43 7q-11 4 -21.5 8t-21.5 9t-21 8.5t-21 7.5q-22 8 -42 8q-14 0 -32 -8q1 -33 8 -60t23.5 -46.5t44 -30t68.5 -10.5q39 0 66 10.5t43.5 28.5t25 43.5t10.5 55.5zM143 290q4 3 8 5.5t9 4.5q25 12 54 12
q22 0 42 -7q19 -6 43 -15q11 -5 21 -8.5t21 -7.5q21 -6 41 -6q22 0 43 10q2 2 7 4q-3 62 -38 99.5t-108 37.5q-71 0 -104.5 -35t-38.5 -94zM285 -12q-60 0 -106 20t-77 55.5t-47 84t-16 104.5v19q1 52 18.5 97t49.5 78t77 51.5t101 18.5q53 0 98.5 -18.5t79.5 -51t53 -77
t19 -96.5v-21q0 -56 -16.5 -104.5t-48.5 -84t-78.5 -55.5t-106.5 -20z" />
    <glyph glyph-name="afii10148" unicode="&#x474;" horiz-adv-x="749" 
d="M368 214l157 403q19 48 53.5 69t77.5 21q36 0 66 -18.5t59 -36.5l-33 -89q-6 3 -15.5 8.5t-20 10t-20 8t-15.5 3.5q-41 0 -56 -38l-214 -555h-127l-261 677l109 30l189 -493l25 -107z" />
    <glyph glyph-name="afii10196" unicode="&#x475;" horiz-adv-x="569" 
d="M275 209l82 218q15 39 51.5 64t79.5 25q38 0 70 -21l52 -33l-40 -74l-26 14q-10 5 -20.5 8.5t-21.5 3.5q-23 0 -36.5 -13t-21.5 -33l-138 -368h-103l-184 489l99 27l116 -307l20 -98z" />
    <glyph glyph-name="afii10050" unicode="&#x490;" horiz-adv-x="438" 
d="M32 0v695h305v140h99v-245h-291v-590h-113z" />
    <glyph glyph-name="afii10098" unicode="&#x491;" horiz-adv-x="351" 
d="M22 0v504h227v191h95v-284h-213v-411h-109z" />
    <glyph glyph-name="uni04A4" unicode="&#x4a4;" horiz-adv-x="922" 
d="M505 0v315h-244q-43 0 -65 -22q-23 -23 -23 -65v-228h-113v695h113v-295q19 10 41 16q11 2 22.5 3.5t24.5 1.5h244v274h417l-35 -105h-269v-590h-113z" />
    <glyph glyph-name="uni04A5" unicode="&#x4a5;" horiz-adv-x="690" 
d="M485 411v-411h-109v224h-207v-224h-109v485l109 31v-198h207v186h312l-32 -93h-171z" />
    <glyph glyph-name="endash" unicode="&#x2013;" horiz-adv-x="674" 
d="M65 326h544q3 -9 4 -22.5t1 -22.5q0 -14 -0.5 -24t-4.5 -23h-544q-3 13 -4 23t-1 24q0 9 1.5 22.5t3.5 22.5z" />
    <glyph glyph-name="emdash" unicode="&#x2014;" horiz-adv-x="1110" 
d="M65 327h980q2 -8 3.5 -22.5t1.5 -23.5q0 -8 -1.5 -23t-3.5 -23h-980q-2 9 -3.5 23t-1.5 23q0 10 1.5 23.5t3.5 22.5z" />
    <glyph glyph-name="quoteleft" unicode="&#x2018;" horiz-adv-x="198" 
d="M101 459q-21 0 -35.5 8.5t-23 22t-12.5 31.5t-4 38q0 51 29 90.5t77 57.5l28 -44q-23 -7 -42 -27t-19 -44q0 -8 3 -17q24 0 42 -16t18 -41t-18.5 -42t-42.5 -17z" />
    <glyph glyph-name="quoteright" unicode="&#x2019;" horiz-adv-x="199" 
d="M99 707q21 0 35.5 -8.5t23 -22t12.5 -32t4 -37.5q0 -51 -29 -90.5t-77 -57.5l-28 44q23 7 42 27t19 44q0 8 -3 17q-24 0 -42 16t-18 41t18.5 42t42.5 17z" />
    <glyph glyph-name="quotedblleft" unicode="&#x201c;" horiz-adv-x="425" 
d="M314 459q-21 0 -35.5 8.5t-23 22t-12.5 31.5t-4 38q0 51 29 90.5t77 57.5l28 -44q-23 -7 -42 -27t-19 -44q0 -8 3 -17q24 0 42 -16t18 -41t-18.5 -42t-42.5 -17zM119 459q-21 0 -35.5 8.5t-23 22t-12.5 31.5t-4 38q0 51 29 90.5t77 57.5l28 -44q-23 -7 -42 -27t-19 -44
q0 -8 3 -17q24 0 42 -16t18 -41t-18.5 -42t-42.5 -17z" />
    <glyph glyph-name="quotedblright" unicode="&#x201d;" horiz-adv-x="425" 
d="M111 707q21 0 35.5 -8.5t23 -22t12.5 -32t4 -37.5q0 -51 -29 -90.5t-77 -57.5l-28 44q23 7 42 27t19 44q0 8 -3 17q-24 0 -42 16t-18 41t18.5 42t42.5 17zM306 707q21 0 35.5 -8.5t23 -22t12.5 -32t4 -37.5q0 -51 -29 -90.5t-77 -57.5l-28 44q23 7 42 27t19 44q0 8 -3 17
q-24 0 -42 16t-18 41t18.5 42t42.5 17z" />
    <glyph glyph-name="quotedblbase" unicode="&#x201e;" horiz-adv-x="425" 
d="M111 104q21 0 35.5 -8.5t23 -22t12.5 -32t4 -37.5q0 -51 -29 -90.5t-77 -57.5l-28 44q23 7 42 27t19 44q0 8 -3 17q-24 0 -42 16t-18 41t18.5 42t42.5 17zM306 104q21 0 35.5 -8.5t23 -22t12.5 -32t4 -37.5q0 -51 -29 -90.5t-77 -57.5l-28 44q23 7 42 27t19 44q0 8 -3 17
q-24 0 -42 16t-18 41t18.5 42t42.5 17z" />
    <glyph glyph-name="dagger" unicode="&#x2020;" horiz-adv-x="494" 
d="M193 402h-192v100h191v193h109v-193h192v-100h-192l-20 -596h-67z" />
    <glyph glyph-name="daggerdbl" unicode="&#x2021;" horiz-adv-x="498" 
d="M196 402h-193v100h191v193h109v-193h192v-100h-194l-11 -330h205v-76h-206l-7 -190h-67l-7 190h-205v76h203z" />
    <glyph glyph-name="bullet" unicode="&#x2022;" horiz-adv-x="351" 
d="M176 493q31 0 54 -11q27 -11 45 -29q19 -20 29 -44q11 -23 11 -54q0 -14 -2.5 -27.5t-8.5 -26.5q-10 -24 -29 -44q-20 -19 -45 -29q-23 -11 -54 -11q-30 0 -55 11q-24 10 -44 29q-19 19 -30 44q-6 13 -8.5 26.5t-2.5 27.5q0 31 11 54q10 24 30 44q20 19 44 29
q25 11 55 11z" />
    <glyph glyph-name="ellipsis" unicode="&#x2026;" horiz-adv-x="660" 
d="M548 104q23 0 40.5 -18t17.5 -41q0 -24 -17.5 -40.5t-40.5 -16.5q-24 0 -42 16t-18 41t18 42t42 17zM331 104q23 0 40.5 -18t17.5 -41q0 -24 -17.5 -40.5t-40.5 -16.5q-24 0 -42 16t-18 41t18 42t42 17zM114 104q23 0 40.5 -18t17.5 -41q0 -24 -17.5 -40.5t-40.5 -16.5
q-24 0 -42 16t-18 41t18 42t42 17z" />
    <glyph glyph-name="perthousand" unicode="&#x2030;" horiz-adv-x="1059" 
d="M286 -12h-93l272 719h92zM957 173q0 16 -3 33t-10.5 31t-19 22.5t-27.5 8.5q-18 0 -30 -8.5t-18.5 -22t-9.5 -30.5t-3 -34t3 -35t9.5 -32t18.5 -23t30 -9q16 0 27.5 9.5t19 23.5t10.5 31.5t3 34.5zM895 -12q-39 0 -66.5 15t-45 40.5t-26 59t-8.5 70.5t8.5 70t26 58
t45 39.5t66.5 14.5q38 0 66 -15t46 -40t27 -58t9 -69t-8.5 -69t-26 -59t-44.5 -41.5t-65 -15.5h-4zM247 525q0 16 -3.5 33t-10.5 31t-19 22.5t-28 8.5q-18 0 -29.5 -8.5t-18.5 -22t-10 -30.5t-3 -34t3 -35t9.5 -32t18.5 -23t30 -9q17 0 28.5 9.5t19 23.5t10.5 31.5t3 34.5z
M185 340q-39 0 -66.5 15t-45.5 40.5t-26 59t-8 70.5t8.5 70t26 58t45 39.5t66.5 14.5q38 0 65.5 -15t45.5 -40t27 -58t9 -69t-8.5 -69t-25.5 -59t-44.5 -41.5t-64.5 -15.5h-4zM622 173q0 16 -3 33t-10.5 31t-19 22.5t-27.5 8.5q-18 0 -30 -8.5t-18.5 -22t-9.5 -30.5t-3 -34
t3 -35t9.5 -32t18.5 -23t30 -9q16 0 27.5 9.5t19 23.5t10.5 31.5t3 34.5zM560 -12q-39 0 -66.5 15t-45 40.5t-26 59t-8.5 70.5t8.5 70t26 58t45 39.5t66.5 14.5q38 0 66 -15t46 -40t27 -58t9 -69t-8.5 -69t-26 -59t-44.5 -41.5t-65 -15.5h-4z" />
    <glyph glyph-name="guilsinglleft" unicode="&#x2039;" horiz-adv-x="285" 
d="M240 477q-24 -57 -53 -113t-65 -104q36 -49 65 -104.5t53 -113.5h-83q-30 60 -70.5 113.5t-85.5 104.5q45 51 85.5 104t70.5 113h83z" />
    <glyph glyph-name="guilsinglright" unicode="&#x203a;" horiz-adv-x="285" 
d="M128 477q29 -60 70 -113.5t86 -103.5q-45 -51 -86 -104t-70 -114h-83q24 58 53 113.5t65 104.5q-36 48 -65 104t-53 113h83z" />
    <glyph glyph-name="fraction" unicode="&#x2044;" horiz-adv-x="605" 
d="M100 -12h-100l507 719h98z" />
    <glyph glyph-name="uni2070" unicode="&#x2070;" horiz-adv-x="353" 
d="M241 522q0 19 -2 38.5t-8.5 35t-19 25t-33.5 9.5q-23 0 -36.5 -9t-20 -24t-8 -34.5t-1.5 -40.5q0 -19 2.5 -39t9.5 -36t20 -26t34 -10q20 0 32.5 10.5t19 27t9 36t2.5 37.5zM178 340q-39 0 -65.5 16t-42.5 41.5t-23 58.5t-7 66q0 35 7.5 67.5t24 57.5t42.5 40t64 15
t64 -15t41.5 -40t22.5 -57.5t7 -67.5q0 -32 -6.5 -64.5t-22.5 -58.5t-41.5 -42.5t-64.5 -16.5z" />
    <glyph glyph-name="uni2074" unicode="&#x2074;" horiz-adv-x="307" 
d="M161 420h-155v60l150 215h77v-206h49l-23 -69h-26v-73h-72v73zM161 489v89l-64 -89h64z" />
    <glyph glyph-name="uni2075" unicode="&#x2075;" horiz-adv-x="319" 
d="M127 626l-2 -33q15 4 35 4q63 0 91 -35t28 -93q0 -57 -29.5 -93t-89.5 -36q-86 0 -119 77l-5 11l64 28l5 -10q9 -21 20.5 -29t34.5 -8t36.5 17t13.5 43q0 25 -10.5 42t-39.5 17q-18 0 -28.5 -6.5t-18.5 -19.5h-64l13 193h198l-21 -69h-112z" />
    <glyph glyph-name="uni2076" unicode="&#x2076;" horiz-adv-x="316" 
d="M111 574q7 8 24 14t34 6q28 0 48.5 -10t34.5 -27t21 -40t7 -49t-8.5 -49t-24 -40.5t-37.5 -28t-49 -10.5q-44 0 -68 17t-35.5 44t-14 60t-2.5 65q0 28 6.5 59t21.5 57t38.5 43t57.5 17q31 0 53.5 -8.5t45.5 -29.5l-43 -49q-19 19 -54 19q-12 0 -21.5 -6t-16.5 -15
t-11.5 -19.5t-6.5 -19.5zM111 464q0 -24 11.5 -40t38.5 -16q28 0 39 17t11 42q0 26 -10 42t-39 16t-40 -17.5t-11 -43.5z" />
    <glyph glyph-name="uni2077" unicode="&#x2077;" horiz-adv-x="289" 
d="M151 347h-69q0 21 2 41.5t6 41.5q5 21 10.5 41.5t13.5 40.5q14 38 39 77q6 10 12.5 19t13.5 18h-144v69h244v-34q0 -27 -19 -48q-54 -52 -82 -122q-27 -69 -27 -144z" />
    <glyph glyph-name="uni2078" unicode="&#x2078;" horiz-adv-x="311" 
d="M91 534q-20 14 -29 33t-9 43q0 43 28 67t74 24q47 0 75 -24t28 -67q0 -26 -10.5 -39t-29.5 -29q25 -17 39.5 -42.5t14.5 -55.5q0 -54 -32.5 -79t-85.5 -25t-84.5 25t-31.5 79q0 28 15 51.5t38 38.5zM148 506q-17 -8 -29 -22.5t-12 -34.5q0 -41 48 -41t48 41
q0 19 -8.5 29.5t-25.5 18.5zM164 568q13 9 19 17.5t6 19.5q0 14 -10.5 20.5t-23.5 6.5t-23 -7t-10 -21q0 -16 11.5 -21.5t30.5 -14.5z" />
    <glyph glyph-name="uni2079" unicode="&#x2079;" horiz-adv-x="316" 
d="M206 471q-11 -7 -25 -10t-27 -3q-57 0 -86 32.5t-29 87.5t29.5 89.5t87.5 34.5q39 0 62 -16t35.5 -41.5t16.5 -56t4 -58.5q0 -17 -1 -33.5t-3 -34.5q-7 -52 -36.5 -87t-87.5 -35q-32 0 -53 10t-44 32l48 49q11 -14 20 -18.5t28 -4.5t30.5 6.5t17.5 16t8.5 20.5t4.5 20z
M154 527q28 0 39.5 12.5t11.5 38.5q0 55 -50 55q-26 0 -37.5 -13.5t-11.5 -41.5q0 -19 9.5 -35t38.5 -16z" />
    <glyph glyph-name="uni2080" unicode="&#x2080;" horiz-adv-x="310" 
d="M241 177q0 19 -2 38.5t-8.5 35t-19 25t-33.5 9.5q-23 0 -36.5 -9t-20 -24t-8 -34.5t-1.5 -40.5q0 -19 2.5 -39t9.5 -36t20 -26t34 -10q20 0 32.5 10.5t19 27t9 36t2.5 37.5zM178 -5q-39 0 -65.5 16t-42.5 41.5t-23 58.5t-7 66q0 35 7.5 67.5t24 57.5t42.5 40t64 15
t64 -15t41.5 -40t22.5 -57.5t7 -67.5q0 -32 -6.5 -64.5t-22.5 -58.5t-41.5 -42.5t-64.5 -16.5z" />
    <glyph glyph-name="uni2081" unicode="&#x2081;" horiz-adv-x="236" 
d="M48 69h52v189l-31 -30l-45 45l80 76h70v-280h49v-68h-175v68z" />
    <glyph glyph-name="uni2082" unicode="&#x2082;" horiz-adv-x="283" 
d="M139 69h148v-68h-246v39q0 29 20 49l138 128q18 15 18 37q0 20 -11.5 27t-34.5 7q-24 0 -39 -11t-25 -31l-63 30l5 10q17 35 47 52.5t68 17.5q52 0 87 -22.5t35 -77.5q0 -23 -8 -46.5t-25 -38.5z" />
    <glyph glyph-name="uni2083" unicode="&#x2083;" horiz-adv-x="279" 
d="M204 214q39 -11 58 -36.5t19 -69.5q0 -57 -31.5 -85t-88.5 -28q-42 0 -73 18.5t-48 56.5l-4 11l62 28l5 -9q11 -20 23 -28.5t35 -8.5q24 0 37.5 11t13.5 35q0 27 -14.5 38.5t-41.5 11.5h-46v51l60 71h-120v69h215v-39q0 -26 -15 -44z" />
    <glyph glyph-name="uni2084" unicode="&#x2084;" horiz-adv-x="309" 
d="M161 74h-155v60l150 215h77v-206h49l-23 -69h-26v-73h-72v73zM161 143v89l-64 -89h64z" />
    <glyph glyph-name="uni2085" unicode="&#x2085;" horiz-adv-x="276" 
d="M127 281l-2 -33q15 4 35 4q63 0 91 -35t28 -93q0 -57 -29.5 -93t-89.5 -36q-86 0 -119 77l-5 11l64 28l5 -10q9 -21 20.5 -29t34.5 -8t36.5 17t13.5 43q0 25 -10.5 42t-39.5 17q-18 0 -28.5 -6.5t-18.5 -19.5h-64l13 193h198l-21 -69h-112z" />
    <glyph glyph-name="uni2086" unicode="&#x2086;" horiz-adv-x="276" 
d="M111 229q7 8 24 14t34 6q28 0 48.5 -10t34.5 -27t21 -40t7 -49t-8.5 -49t-24 -40.5t-37.5 -28t-49 -10.5q-44 0 -68 17t-35.5 44t-14 60t-2.5 65q0 28 6.5 59t21.5 57t38.5 43t57.5 17q31 0 53.5 -8.5t45.5 -29.5l-43 -49q-19 19 -54 19q-12 0 -21.5 -6t-16.5 -15
t-11.5 -19.5t-6.5 -19.5zM111 119q0 -24 11.5 -40t38.5 -16q28 0 39 17t11 42q0 26 -10 42t-39 16t-40 -17.5t-11 -43.5z" />
    <glyph glyph-name="uni2087" unicode="&#x2087;" horiz-adv-x="281" 
d="M151 1h-69q0 21 2 41.5t6 41.5q5 21 10.5 41.5t13.5 40.5q14 38 39 77q6 10 12.5 19t13.5 18h-144v69h244v-34q0 -27 -19 -48q-54 -52 -82 -122q-27 -69 -27 -144z" />
    <glyph glyph-name="uni2088" unicode="&#x2088;" horiz-adv-x="271" 
d="M91 189q-20 14 -29 33t-9 43q0 43 28 67t74 24q47 0 75 -24t28 -67q0 -26 -10.5 -39t-29.5 -29q25 -17 39.5 -42.5t14.5 -55.5q0 -54 -32.5 -79t-85.5 -25t-84.5 25t-31.5 79q0 28 15 51.5t38 38.5zM148 161q-17 -8 -29 -22.5t-12 -34.5q0 -41 48 -41t48 41
q0 19 -8.5 29.5t-25.5 18.5zM164 223q13 9 19 17.5t6 19.5q0 14 -10.5 20.5t-23.5 6.5t-23 -7t-10 -21q0 -16 11.5 -21.5t30.5 -14.5z" />
    <glyph glyph-name="uni2089" unicode="&#x2089;" horiz-adv-x="273" 
d="M206 126q-11 -7 -25 -10t-27 -3q-57 0 -86 32.5t-29 87.5t29.5 89.5t87.5 34.5q39 0 62 -16t35.5 -41.5t16.5 -56t4 -58.5q0 -17 -1 -33.5t-3 -34.5q-7 -52 -36.5 -87t-87.5 -35q-32 0 -53 10t-44 32l48 49q11 -14 20 -18.5t28 -4.5t30.5 6.5t17.5 16t8.5 20.5t4.5 20z
M154 182q28 0 39.5 12.5t11.5 38.5q0 55 -50 55q-26 0 -37.5 -13.5t-11.5 -41.5q0 -19 9.5 -35t38.5 -16z" />
    <glyph glyph-name="lira" unicode="&#x20a4;" horiz-adv-x="599" 
d="M205 122h5q8 1 15 1h15q27 0 51.5 -6t49 -13.5t48.5 -13.5t50 -6q23 0 44 10t40 21l45 -87l-10 -5q-30 -14 -57 -24.5t-62 -10.5q-27 0 -52 6t-49.5 13t-49 13t-48.5 6q-26 0 -45.5 -2t-37 -7t-35 -13t-40.5 -21q-11 25 -22.5 48.5t-24.5 47.5q17 15 34.5 29t32.5 29.5
t27 33t19 38.5h-98v85h104q-1 10 -6 23q-2 8 -4.5 15t-5.5 14h-88v85h60q-2 7 -3 13t-2 13q-5 23 -5 44v7q0 46 18 81t48 59t69.5 36t83.5 12q62 0 116 -23.5t92 -73.5l6 -8l-77 -71l-8 11q-44 67 -124 67q-24 0 -46 -5t-39 -16.5t-27 -29.5t-10 -44v-7q0 -9 1 -18.5
t3 -18.5q2 -7 3.5 -13.5t3.5 -14.5h173v-85h-144q2 -5 3.5 -10.5t3.5 -11.5q4 -15 6 -30h131v-85h-135q-7 -27 -19 -45.5t-27 -41.5z" />
    <glyph glyph-name="Euro" unicode="&#x20ac;" horiz-adv-x="631" 
d="M210 320h250l-17 -85h-227q7 -40 23 -67t40.5 -43.5t57 -24t71.5 -7.5q60 0 108 33l9 7l60 -89l-9 -7q-37 -26 -80 -37.5t-88 -11.5q-62 0 -114 15.5t-92 46.5t-66 77t-34 108h-83l26 85h52v43h-78l26 85h56q6 63 31.5 109.5t66 77t94 45.5t115.5 15q46 0 88 -11.5
t80 -36.5l9 -6l-60 -89l-9 6q-46 33 -108 33q-79 0 -129 -31t-63 -112h269l-16 -85h-259v-43z" />
    <glyph glyph-name="grivna" unicode="&#x20b4;" horiz-adv-x="493" 
d="M397 447h57v-89h-126l-37 -38h145v-89h-220q-17 -24 -30 -50.5t-13 -49.5t17 -37.5t61 -14.5h7q35 0 68 13t60 35l8 8l58 -71l-9 -8q-39 -31 -86 -49.5t-98 -18.5h-10q-39 0 -70.5 11t-53 30.5t-33 46t-11.5 57.5q0 47 27 98h-82v89h144q6 8 13.5 16t22.5 22h-158v89h236
q8 10 17.5 21t18 23t14 24.5t5.5 25.5q0 15 -7 26.5t-17.5 19.5t-24 12.5t-26.5 4.5h-4q-33 0 -64 -15t-56 -36l-8 -8l-60 68l8 8q37 35 82.5 54.5t97.5 19.5h5q30 0 60 -12t53.5 -32t38 -48t14.5 -59q0 -24 -9 -47.5t-25 -49.5z" />
    <glyph glyph-name="uni2103" unicode="&#x2103;" horiz-adv-x="815" 
d="M345 347q0 -59 8.5 -106t31 -80t63 -50.5t105.5 -17.5q46 0 81 10.5t67 44.5l75 -70q-45 -48 -102 -69t-121 -21q-87 0 -148.5 26t-100.5 73t-57.5 112.5t-18.5 145.5v37q0 76 21.5 136.5t63 102.5t102 64t138.5 22q61 0 119 -20t102 -65l-76 -77q-32 32 -66 44t-79 12
q-107 0 -157.5 -56.5t-50.5 -164.5v-33zM71 707q30 0 55.5 -11t44.5 -30t30 -44.5t11 -55.5q0 -29 -11 -54.5t-30 -44.5t-45 -29.5t-55 -10.5t-54.5 10.5t-44.5 29.5t-30 44.5t-11 54.5q0 30 11 55.5t30 44.5t44.5 30t54.5 11zM71 637q-30 0 -50 -20.5t-20 -50.5
q0 -29 20.5 -49t49.5 -20q30 0 50.5 20t20.5 49q0 30 -20.5 50.5t-50.5 20.5z" />
    <glyph glyph-name="fahrenheit" unicode="&#x2109;" horiz-adv-x="738" 
d="M255 0v695h482l-33 -105h-336v-169h318v-106h-318v-315h-113zM72 707q30 0 55.5 -11t44.5 -30t30 -44.5t11 -55.5q0 -29 -11 -54.5t-30 -44.5t-45 -29.5t-55 -10.5t-54.5 10.5t-44.5 29.5t-30 44.5t-11 54.5q0 30 11 55.5t30 44.5t44.5 30t54.5 11zM72 637
q-30 0 -50 -20.5t-20 -50.5q0 -29 20.5 -49t49.5 -20q30 0 50.5 20t20.5 49q0 30 -20.5 50.5t-50.5 20.5z" />
    <glyph glyph-name="afii61352" unicode="&#x2116;" horiz-adv-x="1066" 
d="M1028 371q0 -87 -42 -139t-133 -52q-92 0 -133.5 51t-41.5 140q0 91 45 139.5t130 48.5q88 0 131.5 -51.5t43.5 -136.5zM944 371q0 56 -21 80.5t-70 24.5q-29 0 -47 -8.5t-28 -23t-13.5 -33.5t-3.5 -40q0 -24 2.5 -44t12 -34.5t27.5 -22t50 -7.5q31 0 49 8t27.5 22.5
t12 34t2.5 43.5zM696 126h314q3 -11 4.5 -24t1.5 -21t-1.5 -22.5t-4.5 -24.5h-314q-3 10 -4.5 24.5t-1.5 22.5t1.5 21t4.5 24zM60 0v695h138l324 -521v521h113v-695h-133l-329 533v-533h-113z" />
    <glyph glyph-name="trademark" unicode="&#x2122;" horiz-adv-x="912" 
d="M242 623v-317h-77v317h-125v72h329l-28 -72h-99zM422 306v389h118l96 -252l96 252h119v-389h-77v295l-97 -254h-83l-95 254v-295h-77z" />
    <glyph glyph-name="Omega" unicode="&#x2126;" horiz-adv-x="780" 
d="M168 93q-51 51 -77 115t-26 136v22q0 73 21.5 134.5t63 106.5t101 70t135.5 25t136 -25t102 -69t64 -105.5t22 -134.5v-24q0 -73 -26 -136.5t-78 -114.5l135 10v-103h-303v99l8 3q42 13 68.5 37t42 56.5t21.5 70.5t6 78v24q0 46 -11 89.5t-34.5 77t-61 54t-90.5 20.5
q-54 0 -91.5 -20.5t-60.5 -54t-33.5 -77.5t-10.5 -91v-22q0 -41 6 -79t21.5 -70t42.5 -56t69 -37l8 -3v-99h-297v103z" />
    <glyph glyph-name="oneeighth" unicode="&#x215b;" horiz-adv-x="647" 
d="M145 -12h-100l507 719h98zM452 189q-20 14 -29 33t-9 43q0 43 28 67t74 24q47 0 75 -24t28 -67q0 -26 -10.5 -39t-29.5 -29q25 -17 39.5 -42.5t14.5 -55.5q0 -54 -32.5 -79t-85.5 -25t-84.5 25t-31.5 79q0 28 15 51.5t38 38.5zM509 161q-17 -8 -29 -22.5t-12 -34.5
q0 -41 48 -41t48 41q0 19 -8.5 29.5t-25.5 18.5zM525 223q13 9 19 17.5t6 19.5q0 14 -10.5 20.5t-23.5 6.5t-23 -7t-10 -21q0 -16 11.5 -21.5t30.5 -14.5zM75 415h52v189l-31 -30l-45 45l80 76h70v-280h49v-68h-175v68z" />
    <glyph glyph-name="threeeighths" unicode="&#x215c;" horiz-adv-x="656" 
d="M154 -12h-100l507 719h98zM456 189q-20 14 -29 33t-9 43q0 43 28 67t74 24q47 0 75 -24t28 -67q0 -26 -10.5 -39t-29.5 -29q25 -17 39.5 -42.5t14.5 -55.5q0 -54 -32.5 -79t-85.5 -25t-84.5 25t-31.5 79q0 28 15 51.5t38 38.5zM513 161q-17 -8 -29 -22.5t-12 -34.5
q0 -41 48 -41t48 41q0 19 -8.5 29.5t-25.5 18.5zM529 223q13 9 19 17.5t6 19.5q0 14 -10.5 20.5t-23.5 6.5t-23 -7t-10 -21q0 -16 11.5 -21.5t30.5 -14.5zM219 559q39 -11 58 -36.5t19 -69.5q0 -57 -31.5 -85t-88.5 -28q-42 0 -73 18.5t-48 56.5l-4 11l62 28l5 -9
q11 -20 23 -28.5t35 -8.5q24 0 37.5 11t13.5 35q0 27 -14.5 38.5t-41.5 11.5h-46v51l60 71h-120v69h215v-39q0 -26 -15 -44z" />
    <glyph glyph-name="fiveeighths" unicode="&#x215d;" horiz-adv-x="649" 
d="M147 -12h-100l507 719h98zM458 189q-20 14 -29 33t-9 43q0 43 28 67t74 24q47 0 75 -24t28 -67q0 -26 -10.5 -39t-29.5 -29q25 -17 39.5 -42.5t14.5 -55.5q0 -54 -32.5 -79t-85.5 -25t-84.5 25t-31.5 79q0 28 15 51.5t38 38.5zM515 161q-17 -8 -29 -22.5t-12 -34.5
q0 -41 48 -41t48 41q0 19 -8.5 29.5t-25.5 18.5zM531 223q13 9 19 17.5t6 19.5q0 14 -10.5 20.5t-23.5 6.5t-23 -7t-10 -21q0 -16 11.5 -21.5t30.5 -14.5zM129 626l-2 -33q15 4 35 4q63 0 91 -35t28 -93q0 -57 -29.5 -93t-89.5 -36q-86 0 -119 77l-5 11l64 28l5 -10
q9 -21 20.5 -29t34.5 -8t36.5 17t13.5 43q0 25 -10.5 42t-39.5 17q-18 0 -28.5 -6.5t-18.5 -19.5h-64l13 193h198l-21 -69h-112z" />
    <glyph glyph-name="seveneighths" unicode="&#x215e;" horiz-adv-x="637" 
d="M135 -12h-100l507 719h98zM456 189q-20 14 -29 33t-9 43q0 43 28 67t74 24q47 0 75 -24t28 -67q0 -26 -10.5 -39t-29.5 -29q25 -17 39.5 -42.5t14.5 -55.5q0 -54 -32.5 -79t-85.5 -25t-84.5 25t-31.5 79q0 28 15 51.5t38 38.5zM513 161q-17 -8 -29 -22.5t-12 -34.5
q0 -41 48 -41t48 41q0 19 -8.5 29.5t-25.5 18.5zM529 223q13 9 19 17.5t6 19.5q0 14 -10.5 20.5t-23.5 6.5t-23 -7t-10 -21q0 -16 11.5 -21.5t30.5 -14.5zM200 347h-69q0 21 2 41.5t6 41.5q5 21 10.5 41.5t13.5 40.5q14 38 39 77q6 10 12.5 19t13.5 18h-144v69h244v-34
q0 -27 -19 -48q-54 -52 -82 -122q-27 -69 -27 -144z" />
    <glyph glyph-name="arrowleft" unicode="&#x2190;" horiz-adv-x="674" 
d="M674 341v-80h-507l172 -178l-50 -55l-273 273l273 274l50 -50l-172 -184h507z" />
    <glyph glyph-name="arrowup" unicode="&#x2191;" horiz-adv-x="553" 
d="M237 556l-184 -172l-50 50l274 273l273 -273l-55 -50l-178 172v-507h-80v507z" />
    <glyph glyph-name="arrowright" unicode="&#x2192;" horiz-adv-x="674" 
d="M507 341l-172 184l50 50l273 -274l-273 -273l-50 55l172 178h-507v80h507z" />
    <glyph glyph-name="arrowdown" unicode="&#x2193;" horiz-adv-x="554" 
d="M237 707h80v-507l178 172l55 -50l-273 -273l-274 273l50 50l184 -172v507z" />
    <glyph glyph-name="uni2196" unicode="&#x2196;" horiz-adv-x="545" 
d="M102 476l-9 -252h-70v387h386l-3 -78h-248l359 -359l-57 -57z" />
    <glyph glyph-name="uni2198" unicode="&#x2198;" horiz-adv-x="546" 
d="M442 252l9 252h70v-387h-386l3 78h248l-359 359l57 57z" />
    <glyph glyph-name="uni21E0" unicode="&#x21e0;" horiz-adv-x="648" 
d="M192 358q15 0 25.5 -10.5t10.5 -25.5t-10.5 -25.5t-25.5 -10.5q-14 0 -24.5 10.5t-10.5 25.5t10.5 25.5t24.5 10.5zM208 517l40 -39l-156 -156l156 -156l-40 -39l-170 170q-10 10 -10 25q0 14 10 26zM612 358q15 0 25.5 -10.5t10.5 -25.5t-10.5 -25.5t-25.5 -10.5
q-14 0 -25 10.5t-11 25.5t11 25.5t25 10.5zM332 358q15 0 25.5 -10.5t10.5 -25.5t-10.5 -25.5t-25.5 -10.5q-14 0 -24.5 10.5t-10.5 25.5t10.5 25.5t24.5 10.5zM472 358q15 0 25.5 -10.5t10.5 -25.5t-10.5 -25.5t-25.5 -10.5q-14 0 -24.5 10.5t-10.5 25.5t10.5 25.5
t24.5 10.5z" />
    <glyph glyph-name="uni21E1" unicode="&#x21e1;" horiz-adv-x="392" 
d="M232 543q0 -15 -10.5 -25.5t-25.5 -10.5t-25.5 10.5t-10.5 25.5q0 14 10.5 24.5t25.5 10.5t25.5 -10.5t10.5 -24.5zM391 527l-39 -40l-156 156l-156 -156l-39 40l170 170q10 10 25 10q14 0 26 -10zM232 123q0 -15 -10.5 -25.5t-25.5 -10.5t-25.5 10.5t-10.5 25.5
q0 14 10.5 25t25.5 11t25.5 -11t10.5 -25zM232 403q0 -15 -10.5 -25.5t-25.5 -10.5t-25.5 10.5t-10.5 25.5q0 14 10.5 24.5t25.5 10.5t25.5 -10.5t10.5 -24.5zM232 263q0 -15 -10.5 -25.5t-25.5 -10.5t-25.5 10.5t-10.5 25.5q0 14 10.5 24.5t25.5 10.5t25.5 -10.5
t10.5 -24.5z" />
    <glyph glyph-name="uni21E2" unicode="&#x21e2;" horiz-adv-x="648" 
d="M456 358q14 0 24.5 -10.5t10.5 -25.5t-10.5 -25.5t-24.5 -10.5q-15 0 -25.5 10.5t-10.5 25.5t10.5 25.5t25.5 10.5zM610 348q10 -12 10 -26q0 -15 -10 -25l-170 -170l-40 39l156 156l-156 156l40 39zM36 358q14 0 25 -10.5t11 -25.5t-11 -25.5t-25 -10.5
q-15 0 -25.5 10.5t-10.5 25.5t10.5 25.5t25.5 10.5zM316 358q14 0 24.5 -10.5t10.5 -25.5t-10.5 -25.5t-24.5 -10.5q-15 0 -25.5 10.5t-10.5 25.5t10.5 25.5t25.5 10.5zM176 358q14 0 24.5 -10.5t10.5 -25.5t-10.5 -25.5t-24.5 -10.5q-15 0 -25.5 10.5t-10.5 25.5t10.5 25.5
t25.5 10.5z" />
    <glyph glyph-name="uni21E3" unicode="&#x21e3;" horiz-adv-x="392" 
d="M232 251q0 -14 -10.5 -24.5t-25.5 -10.5t-25.5 10.5t-10.5 24.5q0 15 10.5 25.5t25.5 10.5t25.5 -10.5t10.5 -25.5zM222 97q-12 -10 -26 -10q-15 0 -25 10l-170 170l39 40l156 -156l156 156l39 -40zM232 671q0 -14 -10.5 -25t-25.5 -11t-25.5 11t-10.5 25q0 15 10.5 25.5
t25.5 10.5t25.5 -10.5t10.5 -25.5zM232 391q0 -14 -10.5 -24.5t-25.5 -10.5t-25.5 10.5t-10.5 24.5q0 15 10.5 25.5t25.5 10.5t25.5 -10.5t10.5 -25.5zM232 531q0 -14 -10.5 -24.5t-25.5 -10.5t-25.5 10.5t-10.5 24.5q0 15 10.5 25.5t25.5 10.5t25.5 -10.5t10.5 -25.5z" />
    <glyph glyph-name="partialdiff" unicode="&#x2202;" horiz-adv-x="484" 
d="M314 457q-32 56 -78 106t-102 80l-13 7l48 57l8 -4q102 -59 165.5 -138.5t96.5 -191.5q11 -36 15.5 -66.5t4.5 -68.5q0 -51 -13 -96t-40 -79.5t-68 -54.5t-97 -20q-57 0 -97.5 20t-66.5 54.5t-38.5 79.5t-12.5 96q0 48 14.5 90t42.5 73.5t68.5 50t91.5 18.5q16 0 36 -3.5
t35 -9.5zM369 239q0 28 -7.5 53.5t-23.5 45t-39.5 31t-54.5 11.5q-33 0 -57 -11t-39.5 -30.5t-23 -45.5t-7.5 -55q0 -32 5.5 -61t19.5 -51t38 -35t62 -13q37 0 61.5 13.5t39 36t20.5 51.5t6 60z" />
    <glyph glyph-name="Delta" unicode="&#x2206;" horiz-adv-x="648" 
d="M363 695l266 -605v-90h-610v90l263 605h81zM116 92q17 2 32.5 4t29.5 4h261l71 -10l-181 420l-16 64l-15 -64z" />
    <glyph glyph-name="minus" unicode="&#x2212;" horiz-adv-x="605" 
d="M66 365h473q2 -10 4 -25t2 -26q0 -8 -1.5 -23.5t-4.5 -26.5h-473q-3 11 -5 26t-2 24t2 24.5t5 26.5z" />
    <glyph glyph-name="radical" unicode="&#x221a;" horiz-adv-x="658" 
d="M257 28l7 48l184 694h203v-86h-137l-202 -775h-105l-92 297h-115v86h181l67 -216z" />
    <glyph glyph-name="infinity" unicode="&#x221e;" horiz-adv-x="625" 
d="M287 264q-25 -29 -54.5 -40.5t-64.5 -11.5q-30 0 -54 10t-41 27t-26 41t-9 52q0 58 34.5 94.5t95.5 36.5q35 0 63 -13t51 -36q26 36 63 52t79 16q67 0 109.5 -36t42.5 -115q0 -72 -38.5 -111.5t-113.5 -39.5q-45 0 -79.5 18t-57.5 56zM320 326q3 -14 15 -26t28 -21
t33 -14t31 -5q38 0 59 19.5t21 61.5q0 43 -22 62.5t-58 19.5q-45 0 -71 -29t-36 -68zM250 361q-17 17 -37 29.5t-45 12.5q-62 0 -62 -61q0 -27 16.5 -43.5t45.5 -16.5q17 0 30 7t23 18t17 25.5t12 28.5z" />
    <glyph glyph-name="integral" unicode="&#x222b;" horiz-adv-x="313" 
d="M231 -59v-12q0 -35 -11 -60t-30 -42t-44 -25t-53 -8q-18 0 -39.5 5t-39.5 8v84h51q8 0 18.5 1.5t19.5 7t15 15.5t6 28l-43 776v12q0 37 12.5 62t32 40t44 21t49.5 6q16 0 31 -3l49 -10v-84h-52q-25 0 -42 -11.5t-17 -40.5z" />
    <glyph glyph-name="approxequal" unicode="&#x2248;" horiz-adv-x="570" 
d="M521 232q-21 -20 -41 -35t-40 -26q-39 -21 -83 -21q-14 0 -28.5 2.5t-28.5 7.5t-28 10.5t-28 11.5t-28.5 11.5t-28.5 10.5q-26 10 -55 10q-23 0 -45 -11q-25 -11 -45 -28v73q18 15 36 26.5t35 19.5q33 16 72 16q29 0 56 -9q14 -5 28.5 -9.5t28.5 -10.5t27.5 -11t27.5 -10
q28 -9 55 -9t57 15q32 16 56 40v-74zM521 446q-21 -20 -41 -35t-40 -26q-39 -21 -83 -21q-14 0 -28.5 2.5t-28.5 7.5t-28 10.5t-28 11.5t-28.5 11.5t-28.5 10.5q-26 10 -55 10q-23 0 -45 -11q-25 -11 -45 -28v73q18 15 36 26.5t35 19.5q33 16 72 16q29 0 56 -9
q14 -5 28.5 -10t28.5 -10q14 -6 27.5 -11t27.5 -10q28 -9 55 -9t57 15q29 13 56 40v-74z" />
    <glyph glyph-name="notequal" unicode="&#x2260;" horiz-adv-x="492" 
d="M19 288h164l31 107h-195q-3 11 -4.5 26.5t-1.5 23.5t1.5 24t4.5 28h226l25 84h94l-24 -84h132q2 -10 4.5 -25.5t2.5 -26.5q0 -10 -2.5 -25.5t-4.5 -24.5h-162l-32 -107h194q4 -12 5.5 -27.5t1.5 -23.5q0 -10 -2.5 -25.5t-4.5 -24.5h-224l-26 -85h-94l25 85h-134
q-3 11 -4.5 26.5t-1.5 23.5q0 11 2 26t4 25z" />
    <glyph glyph-name="lessequal" unicode="&#x2264;" horiz-adv-x="516" 
d="M451 473l-292 -111l292 -114v-108l-432 183v79l432 180v-109zM451 102q2 -10 4.5 -25.5t2.5 -26.5q0 -10 -2.5 -25.5t-4.5 -24.5h-430q-4 11 -5.5 26t-1.5 24t1.5 25t5.5 27h430z" />
    <glyph glyph-name="greaterequal" unicode="&#x2265;" horiz-adv-x="515" 
d="M64 582l432 -180v-79l-432 -183v108l292 114l-292 111v109zM494 102q4 -11 5.5 -27t1.5 -25t-1.5 -24t-5.5 -26h-430q-2 9 -4.5 24.5t-2.5 25.5q0 11 2.5 26.5t4.5 25.5h430z" />
    <glyph glyph-name="lozenge" unicode="&#x25ca;" horiz-adv-x="470" 
d="M209 695h52l195 -349l-195 -346h-52l-195 346zM377 346l-142 263l-142 -263l142 -259z" />
    <glyph glyph-name="uni2605" unicode="&#x2605;" horiz-adv-x="574" 
d="M287 623l88 -171l190 -31l-136 -137l29 -190l-171 87l-172 -87l29 190l-135 137l190 31z" />
    <glyph glyph-name="uni2639" unicode="&#x2639;" horiz-adv-x="592" 
d="M296 596q54 0 101 -20.5t82.5 -55.5t56 -82.5t20.5 -101.5t-20.5 -101t-56 -82.5t-82.5 -56t-101 -20.5t-101.5 20.5t-82.5 56t-55.5 82.5t-20.5 101t20.5 101.5t55.5 82.5t82.5 55.5t101.5 20.5zM296 558q-46 0 -86.5 -17.5t-70.5 -47.5t-47.5 -70.5t-17.5 -86.5
t17.5 -86t47.5 -70t70.5 -47.5t86.5 -17.5t86 17.5t70 47.5t47.5 70t17.5 86t-17.5 86.5t-47.5 70.5t-70 47.5t-86 17.5zM147 205q20 44 61 70q39 25 88 25q48 0 88 -26q39 -24 61 -69l-31 -14q-16 35 -48 55q-31 20 -70 20t-70 -20q-32 -20 -49 -55zM396 453q14 0 24 -10.5
t10 -24.5t-10 -24t-24 -10t-24.5 10t-10.5 24t10.5 24.5t24.5 10.5zM196 453q14 0 24 -10.5t10 -24.5t-10 -24t-24 -10t-24.5 10t-10.5 24t10.5 24.5t24.5 10.5z" />
    <glyph glyph-name="smileface" unicode="&#x263a;" horiz-adv-x="592" 
d="M296 596q54 0 101.5 -20.5t82.5 -55.5t55.5 -82.5t20.5 -101.5t-20.5 -101t-55.5 -82.5t-82.5 -56t-101.5 -20.5t-101.5 20.5t-82.5 56t-55.5 82.5t-20.5 101t20.5 101.5t55.5 82.5t82.5 55.5t101.5 20.5zM296 558q-46 0 -86.5 -17.5t-70.5 -47.5t-47.5 -70.5
t-17.5 -86.5t17.5 -86t47.5 -70t70.5 -47.5t86.5 -17.5t86.5 17.5t70.5 47.5t47.5 70t17.5 86t-17.5 86.5t-47.5 70.5t-70.5 47.5t-86.5 17.5zM196 453q14 0 24 -10.5t10 -24.5t-10 -24t-24 -10t-24.5 10t-10.5 24t10.5 24.5t24.5 10.5zM396 453q14 0 24 -10.5t10 -24.5
t-10 -24t-24 -10t-24 10t-10 24t10 24.5t24 10.5zM445 267q-10 -22 -25.5 -39.5t-35.5 -30.5q-39 -25 -88 -25t-88 25q-20 13 -35.5 30.5t-25.5 39.5l31 14q16 -35 48 -55q31 -20 70 -20t70 20q33 20 48 55z" />
    <glyph glyph-name="uni2709" unicode="&#x2709;" horiz-adv-x="1024" 
d="M456 371q26 -20 56 -20q32 0 56 20l293 237h-699zM642 355l265 -211v422zM596 314q-40 -28 -84 -28q-45 0 -85 28l-265 -212h699zM381 355l-265 211v-422zM60 665h903v-619h-903v619z" />
    <glyph glyph-name="uniE024" unicode="&#xe024;" horiz-adv-x="568" 
d="M286 516h4q64 0 109 -19t73.5 -53.5t41.5 -83t13 -106.5q0 -59 -13.5 -108t-42 -84t-74.5 -54.5t-110 -19.5q-66 0 -112.5 19t-76 53.5t-43.5 84t-14 109.5q0 61 14 109.5t43.5 82.5t76 52t111.5 18zM419 254q0 34 -4.5 65t-19 54t-40.5 37t-68 14q-43 0 -70 -13
t-42 -35.5t-20.5 -53.5t-5.5 -68t5.5 -68.5t20.5 -55t42 -37t71 -13.5q42 0 67.5 14.5t39.5 39t19 56t5 64.5z" />
    <glyph glyph-name="uniE025" unicode="&#xe025;" horiz-adv-x="415" 
d="M170 96v282l-79 -50l-59 88l135 88h111v-408h111v-96h-329v96h110z" />
    <glyph glyph-name="uniE026" unicode="&#xe026;" horiz-adv-x="512" 
d="M468 0h-425v57q0 16 3.5 31t11.5 29q16 28 40 47.5t51.5 34t57 26.5t56.5 25q17 8 32.5 17.5t27 22t18.5 28t7 36.5q0 39 -26 55t-70 16q-41 0 -68.5 -19.5t-47.5 -51.5l-5 -10l-88 45l5 11q34 67 86 91.5t124 24.5q37 0 71.5 -9t61.5 -27.5t43 -48t16 -69.5
q0 -38 -9.5 -65.5t-26.5 -49t-41 -39.5t-54 -36q-17 -10 -39.5 -19.5t-43.5 -19t-37 -19t-19 -18.5h288v-96z" />
    <glyph glyph-name="uniE027" unicode="&#xe027;" horiz-adv-x="526" 
d="M315 234q92 -20 130.5 -70t38.5 -139q0 -106 -56 -168.5t-169 -62.5q-159 0 -223 144l-5 11l98 43l5 -10q20 -44 49 -62t76 -18q29 0 51 10t37 27t22.5 40t7.5 49q0 60 -40.5 84t-111.5 24h-53v92l136 170h-242v106h387v-60q0 -42 -28 -76z" />
    <glyph glyph-name="uniE028" unicode="&#xe028;" horiz-adv-x="526" 
d="M301 -11h-298v99l293 416h112v-412h97l-33 -103h-64v-183h-107v183zM301 92v237l-164 -237h164z" />
    <glyph glyph-name="uniE029" unicode="&#xe029;" horiz-adv-x="525" 
d="M182 398l-7 -112q42 15 87 15q58 0 100 -20.5t69 -56t39.5 -82t12.5 -97.5t-11.5 -96.5t-38 -80t-68.5 -54.5t-103 -20q-159 0 -222 144l-5 11l98 43l5 -11q18 -44 47.5 -61.5t76.5 -17.5q37 0 59.5 11.5t34.5 31t16 45.5t4 55q-1 81 -33 114.5t-81 33.5q-66 0 -107 -50
l-3 -5h-95l26 366h379v-106h-280z" />
    <glyph glyph-name="uniE02A" unicode="&#xe02a;" horiz-adv-x="528" 
d="M154 422q20 14 43 23q38 16 75 16q26 0 50.5 -3.5t47.5 -13.5q43 -17 70 -49q14 -16 23 -35t15 -39q13 -45 13 -94q0 -51 -13.5 -95t-40.5 -76t-68.5 -50t-97.5 -18q-105 0 -157.5 57t-64.5 155q-4 30 -5.5 60t-1.5 59v17q0 63 10.5 124t39 109.5t78 78t126.5 29.5
q49 0 88.5 -14t75.5 -46l-69 -84q-23 20 -43.5 28.5t-51.5 8.5q-36 0 -61 -11.5t-42 -31t-26 -47t-13 -58.5zM277 357q-14 0 -27.5 -2.5t-26.5 -8.5q-23 -12 -37 -28q-16 -19 -23 -42q-7 -22 -7 -50q0 -27 6.5 -51t20.5 -41.5t35.5 -27.5t52.5 -10q33 0 54.5 10t34.5 27
t18 41t5 53q0 23 -5 51q-5 23 -16 41q-12 17 -31 27q-12 7 -26 9t-28 2z" />
    <glyph glyph-name="uniE02B" unicode="&#xe02b;" horiz-adv-x="503" 
d="M362 398h-332v106h465v-76q0 -50 -37 -87q-26 -26 -49.5 -49t-43.5 -54q-43 -65 -71 -132q-14 -35 -25 -71t-19 -73q-8 -38 -11.5 -70t-3.5 -70v-16h-107v16q0 87 16.5 165.5t50.5 159.5q30 73 71.5 133t95.5 118z" />
    <glyph glyph-name="uniE02C" unicode="&#xe02c;" horiz-adv-x="517" 
d="M153 355q-42 24 -64.5 63.5t-22.5 89.5q0 40 16 71.5t43 53t62 33t73 11.5t73 -11.5t61.5 -33t42 -53t15.5 -71.5q0 -49 -23 -80t-61 -59q52 -28 82 -76.5t30 -108.5q0 -49 -16.5 -86t-46 -61.5t-70 -36.5t-88.5 -12t-88.5 12t-70.5 36t-47 60.5t-17 85.5q0 61 33 103.5
t84 69.5zM245 312q-19 -8 -37 -20t-32.5 -28t-23.5 -35.5t-9 -41.5q0 -49 33 -70t84 -21q50 0 81.5 21.5t31.5 69.5q0 30 -12 49.5t-30.5 33t-41 23t-44.5 19.5zM276 411q31 17 50 39t19 58q0 16 -7.5 28t-20 20t-27.5 11.5t-30 3.5t-30 -4t-27.5 -11.5t-20.5 -19.5t-8 -28
q0 -23 9.5 -38t24.5 -25.5t33 -18.5t35 -15z" />
    <glyph glyph-name="uniE02D" unicode="&#xe02d;" horiz-adv-x="525" 
d="M374 61q-26 -19 -57 -26.5t-62 -7.5q-54 0 -95 18.5t-68.5 50.5t-41.5 76t-14 95q0 52 14.5 97.5t42.5 79t69.5 53t95.5 19.5q52 0 90.5 -15.5t65.5 -43.5t42 -68t21 -88q6 -59 6 -119v-32q0 -60 -9.5 -123t-36.5 -115t-74 -85t-122 -33q-48 0 -92.5 16t-79.5 50l-8 8
l77 75l8 -8q37 -33 91 -33q34 0 59 13.5t41.5 36t25 51t11.5 58.5zM255 132q32 0 53.5 11.5t35 30.5t19 44.5t5.5 53.5t-5 53.5t-18 45t-34 31.5t-54 12t-55.5 -11.5t-36.5 -31t-20 -45.5t-6 -54q0 -29 6 -54t19.5 -44.5t36 -30.5t54.5 -11z" />
    <glyph glyph-name="f_b" unicode="&#xe1a6;" horiz-adv-x="824" 
d="M363 582q-7 8 -18 13t-24 8t-25.5 4t-22.5 1q-11 0 -25.5 -1.5t-28 -6t-23 -13t-9.5 -21.5v-62h112l-28 -89h-84v-415h-109v415h-63v89h63v62q0 37 18 63.5t46 44t62.5 25.5t68.5 8q26 0 60.5 -5.5t65 -19t52 -35.5t21.5 -55v-127q27 26 62 38.5t71 12.5q39 0 73 -15
t61 -39.5t45 -57t24 -67.5q4 -20 5 -40.5t1 -40.5v-22q0 -129 -62.5 -187.5t-192.5 -58.5q-48 0 -96 8.5t-93 27.5l-7 3v555zM472 316v-216q20 -8 43 -11.5t45 -3.5q82 0 113.5 34.5t31.5 109.5v33q0 26 -4.5 54t-16 51t-31 38t-48.5 15q-24 0 -46 -8t-40 -22t-30.5 -33
t-16.5 -41z" />
    <glyph glyph-name="f_h" unicode="&#xe1a7;" horiz-adv-x="801" 
d="M350 584q-14 17 -39.5 21.5t-45.5 4.5q-12 0 -25.5 -3t-25.5 -9t-19.5 -15.5t-7.5 -21.5v-57h100l-28 -89h-72v-415h-109v415h-63v89h63v57q0 36 17.5 63.5t44.5 46t60 28t65 9.5q26 0 59.5 -5.5t63.5 -19t50.5 -35.5t20.5 -55v-133q27 25 58 34.5t66 9.5
q55 0 93.5 -19.5t62.5 -51.5t35 -74.5t11 -88.5v-270h-109v276q0 26 -3.5 50t-13 42t-28 28.5t-48.5 10.5q-50 0 -81.5 -26t-42.5 -71v-310h-109v584z" />
    <glyph glyph-name="f_j" unicode="&#xe1f8;" horiz-adv-x="492" 
d="M187 504h92l-28 -89h-64v-415h-109v415h-63v89h63v56q0 37 16 64.5t41.5 46t58 27.5t65.5 9q23 0 55 -3t61.5 -13.5t50 -29.5t20.5 -50q0 -23 -18 -40.5t-41 -17.5q-27 0 -45 20q-34 37 -83 37q-12 0 -24.5 -3t-23 -9t-17.5 -15.5t-7 -22.5v-56zM442 -59q0 -29 -11 -56
t-29.5 -47t-44.5 -32t-56 -12q-25 0 -42.5 4t-43.5 12v82h67q26 0 38 11.5t12 37.5v563h110v-563z" />
    <glyph glyph-name="f_f_j" unicode="&#xe1f9;" horiz-adv-x="736" 
d="M576 504h110v-563q0 -29 -11 -56t-30 -47t-45 -32t-56 -12q-25 0 -42 4t-43 12v82h66q26 0 38.5 11.5t12.5 37.5v563zM187 504h135v56q0 36 15.5 63.5t41 46t58 28t65.5 9.5q22 0 54 -3t62 -13.5t51 -29.5t21 -50q0 -23 -18.5 -40.5t-41.5 -17.5q-26 0 -44 20
q-34 37 -84 37q-11 0 -23.5 -3t-23 -9.5t-17.5 -16t-7 -21.5v-56h91l-28 -89h-63v-415h-109v415h-135v-415h-109v415h-63v89h63v57q0 29 11 55.5t29.5 46.5t44 32t55.5 12q21 0 37.5 -3t38.5 -9v-85h-57q-50 0 -50 -49v-57z" />
    <glyph glyph-name="uniE37F" unicode="&#xe37f;" horiz-adv-x="1003" 
d="M292 331q-5 -17 -18 -24.5t-30 -7.5q-49 0 -49 50v30q0 23 14.5 36t34.5 13q17 0 30 -7.5t18 -24.5l-27 -10q-2 8 -7.5 12t-13.5 4q-10 0 -15.5 -6t-5.5 -15v-34q0 -10 6 -16t15 -6q8 0 13.5 4t7.5 12zM152 300v60h-4l-20 -43h-16l-19 43h-4v-60h-29v128h26l34 -76l33 76
h27v-128h-28zM858 390h-4l-14 -40h32zM891 300l-10 26h-50l-10 -26h-26l50 128h22l49 -128h-25zM749 428q19 0 33.5 -10.5t14.5 -30.5v-44q0 -22 -16 -32.5t-35 -10.5h-47v128h50zM727 325h18q14 0 19.5 7.5t5.5 19.5v24q0 26 -25 26h-18v-77zM594 300v128h90v-26h-62v-26
h30l9 -24h-39v-27h62v-25h-90zM549 389q0 13 -16 13h-24v-28h23q7 0 12 3.5t5 11.5zM547 300l-20 49h-18v-49h-29v128h57q17 0 29 -11t12 -28q0 -12 -6.5 -21t-16.5 -14l24 -54h-32zM466 428v-26h-63v-26h31l9 -24h-40v-27h63v-25h-91v52h-42v-52h-28v128h28v-52h42v52h91z
M928 300l-12 31h31l12 -31h-31z" />
    <glyph glyph-name="information" unicode="&#xe389;" horiz-adv-x="782" 
d="M391 695q73 0 138 -27.5t113 -75t76 -112t28 -137.5q0 -74 -28 -138.5t-76 -112.5t-113 -76t-138 -28q-74 0 -138.5 28t-112.5 76t-76 112.5t-28 138.5q0 73 28 137.5t76 112t112.5 75t138.5 27.5zM391 635q-61 0 -115 -22.5t-94 -62t-63 -93t-23 -114.5t23 -115t63 -94
t94 -63t115 -23t115 23t94 63t63 94t23 115t-23 114.5t-63 93t-94 62t-115 22.5zM346 352h-51v66h148v-324h-97v258zM391 598q27 0 46 -19t19 -46t-19 -45.5t-46 -18.5t-46 18.5t-19 45.5t19 46t46 19z" />
    <glyph glyph-name="T_h" unicode="&#xe40c;" horiz-adv-x="1037" 
d="M805 504q41 0 76.5 -12.5t62 -35.5t41.5 -56t15 -73v-327h-109v315q0 48 -24.5 70t-64.5 22q-54 0 -85.5 -26.5t-54.5 -79.5v-301h-109v590h-189v-590h-113v590h-220v105h631v-253q29 35 64 48.5t79 13.5z" />
    <glyph glyph-name="H_alternate" unicode="&#xe40d;" horiz-adv-x="678" 
d="M172 396q19 14 49.5 20.5t62.5 6.5h220v273h113v-695h-113v316h-220q-53 0 -82.5 -29t-29.5 -82v-205h-112v695h112v-300z" />
    <glyph glyph-name="A_alternate" unicode="&#xe40e;" horiz-adv-x="702" 
d="M289 198q-38 0 -65.5 -20.5t-40.5 -54.5l-45 -123h-119l259 695h135l272 -695h-117l-77 198h-202zM241 285q10 6 22 8.5t24 2.5h167l-91 233l-16 78l-16 -78z" />
    <glyph glyph-name="B_alternate" unicode="&#xe40f;" horiz-adv-x="645" 
d="M496 369q54 -27 82.5 -68t28.5 -103q0 -52 -18 -89.5t-49.5 -61.5t-73 -35.5t-89.5 -11.5h-317v695h302q44 0 81 -10.5t64 -32.5t42 -56t15 -81q0 -87 -68 -140v-6zM173 387q19 14 49.5 20.5t62.5 6.5h66q43 0 69.5 22.5t26.5 78.5q0 45 -25 60t-68 15h-181v-203z
M285 309q-53 0 -82.5 -29.5t-29.5 -82.5v-92h203q63 0 92.5 28t29.5 77q0 53 -28.5 76t-88.5 23h-96z" />
    <glyph glyph-name="F_alternate" unicode="&#xe410;" horiz-adv-x="543" 
d="M285 315q-53 0 -82.5 -29t-29.5 -82v-204h-113v695h482l-33 -105h-336v-196q19 14 49.5 20.5t62.5 6.5h206v-106h-206z" />
    <glyph glyph-name="P_alternate" unicode="&#xe411;" horiz-adv-x="611" 
d="M173 330q19 14 49.5 20.5t62.5 6.5h80q66 0 96.5 29.5t30.5 92.5q0 60 -32.5 86t-94.5 26h-192v-261zM285 251q-53 0 -82.5 -29t-29.5 -82v-140h-113v695h344q49 0 87 -16t63 -44.5t38 -68t13 -87.5t-12.5 -90t-37 -72.5t-62.5 -48t-89 -17.5h-119z" />
    <glyph glyph-name="R_alternate" unicode="&#xe412;" horiz-adv-x="657" 
d="M173 362q19 14 49.5 20.5t62.5 6.5h75q64 0 90 23.5t26 83.5q0 48 -23.5 71.5t-80.5 23.5h-199v-229zM281 283q-53 0 -80.5 -27.5t-27.5 -80.5v-175h-113v695h328q44 0 81 -14t63.5 -40.5t41.5 -63t15 -81.5q0 -90 -45.5 -147.5t-129.5 -63.5l132 -167q16 -20 29 -26
t38 -6v-86q-10 -5 -24 -8.5t-26 -3.5q-30 0 -54 20.5t-41 42.5z" />
    <glyph glyph-name="E_alternate" unicode="&#xe413;" horiz-adv-x="616" 
d="M284 315q-53 0 -82.5 -29t-29.5 -82v-99h396v-105h-508v695h511l-33 -105h-366v-196q19 14 49.5 20.5t62.5 6.5h221v-106h-221z" />
    <glyph glyph-name="afii10018_alternate" unicode="&#xe414;" horiz-adv-x="637" 
d="M173 394q19 14 49.5 20.5t62.5 6.5h99q105 0 162 -52t57 -153q0 -110 -60 -163t-164 -53h-319v695h474l-34 -105h-327v-196zM285 316q-53 0 -82.5 -29t-29.5 -82v-101h186q31 0 56 5.5t42.5 18t27 34t9.5 54.5q0 58 -33 79t-97 21h-79z" />
    <glyph glyph-name="afii10044_alternate" unicode="&#xe415;" horiz-adv-x="745" 
d="M309 395q19 14 49.5 20.5t62.5 6.5h90q51 0 91.5 -10.5t69.5 -35.5t44.5 -65.5t15.5 -101.5q0 -60 -16 -100t-46 -64.5t-71.5 -34.5t-92.5 -10h-310v590h-136l-33 105h282v-300zM421 316q-53 0 -82.5 -29t-29.5 -82v-100h193q28 0 50 4t37 15.5t22.5 31.5t7.5 53t-7.5 54
t-21.5 33t-35 16t-49 4h-85z" />
    <glyph glyph-name="afii10045_alternate" unicode="&#xe416;" horiz-adv-x="840" 
d="M779 695v-695h-113v695h113zM173 386q19 14 49.5 20.5t62.5 6.5h105q106 0 158 -55.5t52 -155.5q0 -52 -16.5 -90t-46.5 -63t-71.5 -37t-91.5 -12h-314v695h113v-309zM285 308q-53 0 -82.5 -29t-29.5 -82v-92h197q64 0 90.5 27t26.5 77q0 51 -24 75t-88 24h-90z" />
    <glyph glyph-name="afii10046_alternate" unicode="&#xe417;" horiz-adv-x="605" 
d="M173 392q19 14 49.5 20.5t62.5 6.5h105q106 0 158 -58.5t52 -158.5q0 -52 -16.5 -90t-46.5 -63t-71.5 -37t-91.5 -12h-314v695h113v-303zM285 314q-53 0 -82.5 -29t-29.5 -82v-98h197q64 0 90.5 27t26.5 77q0 51 -24 78t-88 27h-90z" />
    <glyph glyph-name="afii10049_alternate" unicode="&#xe418;" horiz-adv-x="685" 
d="M204 51q-17 -23 -46 -43t-60 -20q-11 0 -29.5 3.5t-28.5 8.5v62q25 0 39.5 6t30.5 26l165 202q-91 5 -146.5 58t-55.5 147q0 51 18 87.5t49 60t72 35t87 11.5h325v-695h-114v188q0 106 -106 106zM398 400q32 0 62.5 -6.5t49.5 -20.5v217h-208q-56 0 -86 -18t-30 -71
q0 -58 28 -79.5t88 -21.5h96z" />
    <glyph glyph-name="a_alternate" unicode="&#xe419;" horiz-adv-x="557" 
d="M385 49q-39 -26 -85 -43.5t-94 -17.5q-35 0 -65.5 10t-53.5 29.5t-36.5 48t-13.5 65.5q0 35 12 62t33 46.5t49.5 32t60.5 18.5l186 34v10q0 22 -9.5 37t-24.5 24t-35 13t-41 4q-22 0 -40 -2.5t-35 -7.5t-34 -13t-36 -19l-47 82q26 15 48.5 25.5t46 16.5t48.5 9t56 3
q43 0 81.5 -10.5t66.5 -32.5t44.5 -55.5t16.5 -79.5v-214q0 -14 1 -28.5t6 -28.5q7 -25 20 -51l9 -16h-115l-3 5q-5 7 -8 14.5t-5 15.5q-2 4 -2.5 7.5t-1.5 6.5zM378 245l-170 -37q-25 -5 -43 -22t-18 -45q0 -31 22 -44.5t50 -13.5q16 0 37.5 7t44 17.5t43 21.5t34.5 19v97z
" />
    <glyph glyph-name="P_ruble" unicode="&#xe41a;" horiz-adv-x="678" 
d="M38 209h81v61h-81v107h81v318h344q100 0 150.5 -55t50.5 -151q0 -48 -12.5 -88.5t-37 -69t-62.5 -44.5t-89 -16h-231v-62h212v-106h-212v-103h-113v103h-81v106zM232 591v-214h192q66 0 96.5 24.5t30.5 87.5q0 60 -32.5 81t-94.5 21h-192z" />
    <glyph glyph-name="b_alternate" unicode="&#xe41b;" horiz-adv-x="546" 
d="M182 296v-192q23 -11 48.5 -15t51.5 -4q43 0 70.5 9t44 28t23 48.5t6.5 69.5v11q0 27 -2.5 55.5t-12 51t-29.5 37t-55 14.5q-55 0 -93 -30t-52 -83zM73 535q0 32 -7 63.5t-21 61.5l101 47q37 -83 37 -173v-96h6q27 33 60.5 50.5t77.5 17.5q54 0 93 -20t64.5 -53t38 -76
t12.5 -89v-23q0 -125 -64 -191t-190 -66q-24 0 -51 2t-55 6.5t-54 11.5t-48 16v511z" />
    <glyph glyph-name="d_alternate" unicode="&#xe41c;" horiz-adv-x="553" 
d="M370 396q-22 13 -50.5 18t-53.5 5q-40 0 -67.5 -11t-45 -31t-25 -48t-7.5 -61v-37q0 -28 4 -54.5t15.5 -46.5t31.5 -32.5t52 -12.5q21 0 41.5 7t39.5 18.5t35.5 25.5t29.5 29v231zM370 534q0 92 36 173l101 -47q-14 -30 -21 -61.5t-7 -63.5v-420q0 -19 2 -34t5 -28
q4 -12 9 -25.5t13 -27.5h-115q-6 10 -12 27q-4 18 -6 32q-30 -30 -68.5 -50.5t-82.5 -20.5q-52 0 -91.5 17t-66.5 47t-40.5 71.5t-13.5 89.5v48q0 127 67 191t195 64q49 0 96 -19v37z" />
    <glyph glyph-name="h_alternate" unicode="&#xe41d;" horiz-adv-x="536" 
d="M73 535q0 32 -7 63.5t-21 61.5l101 47q36 -81 36 -173v-92q29 35 64 48.5t79 13.5q41 0 76.5 -12.5t62 -35.5t41.5 -56t15 -73v-327h-109v315q0 48 -24.5 70t-64.5 22q-54 0 -85.5 -26.5t-54.5 -79.5v-301h-109v535z" />
    <glyph glyph-name="k_alternate" unicode="&#xe41e;" horiz-adv-x="485" 
d="M71 535q0 32 -7 63.5t-21 61.5l101 47q36 -81 36 -173v-234h37l146 204h111l-170 -245l110 -151q14 -20 31 -23t34 -3v-82q-12 -6 -28 -9t-25 -3q-14 0 -26.5 6t-23 15.5t-19.5 20.5t-16 21l-125 169h-36v-220h-109v535z" />
    <glyph glyph-name="l_alternate" unicode="&#xe41f;" horiz-adv-x="277" 
d="M167 145q0 -60 62 -60h39v-85q-16 -5 -40 -8.5t-41 -3.5q-28 0 -51.5 9t-41 25.5t-27 39.5t-9.5 50v423q0 32 -7 63.5t-21 61.5l101 47q36 -81 36 -173v-389z" />
    <glyph glyph-name="t_alternate" unicode="&#xe420;" horiz-adv-x="289" 
d="M72 504q0 32 -6.5 53t-21.5 45l101 47q20 -35 28 -67.5t8 -77.5h80l-28 -90h-52v-269q0 -60 62 -60h25v-86q-14 -5 -27.5 -8t-28.5 -3q-28 0 -53.5 7.5t-44.5 23.5t-30.5 41.5t-11.5 61.5v292h-57v90h57z" />
    <glyph glyph-name="afii10094_alternate" unicode="&#xe421;" horiz-adv-x="516" 
d="M399 158q0 43 -20 55t-61 12h-136v-128h137q19 0 34 1t25 7t15.5 18t5.5 35zM73 343q0 32 -7 64t-21 62l101 47q36 -81 36 -173v-21h159q78 0 122.5 -40t44.5 -124q0 -42 -12.5 -71.5t-35.5 -49t-54.5 -28.5t-68.5 -9h-264v343z" />
    <glyph glyph-name="afii10093_alternate" unicode="&#xe422;" horiz-adv-x="723" 
d="M76 343q0 32 -7 64t-21 62l101 47q36 -81 36 -173v-21h159q78 0 122.5 -40t44.5 -124q0 -42 -12.5 -71.5t-35.5 -49t-54.5 -28.5t-68.5 -9h-264v343zM662 516v-516h-109v485zM402 158q0 43 -20 55t-61 12h-136v-128h137q19 0 34 1t25 7t15.5 18t5.5 35z" />
    <glyph glyph-name="f_r" unicode="&#xe423;" horiz-adv-x="636" 
d="M419 504q6 -12 11 -24.5t7 -26.5h6q19 30 44 46.5t62 16.5q39 0 83 -22l-38 -101q-25 15 -49 15q-32 0 -52 -17.5t-31 -44t-15 -56.5t-4 -54v-236h-109v380q0 9 -0.5 17.5t-1.5 16.5h-145v-414h-109v414h-63v90h63v56q0 28 7.5 54.5t23.5 47t42 33t62 12.5
q17 0 38.5 -3.5t37.5 -8.5v-86h-40q-31 0 -46.5 -17t-15.5 -47v-41h232z" />
    <glyph glyph-name="i_t" unicode="&#xe424;" horiz-adv-x="487" 
d="M266 414h-108v-414h-109v504h217v108l109 24v-132h80l-28 -90h-52v-269q0 -60 62 -60h25v-86q-14 -5 -27.5 -8t-28.5 -3q-28 0 -53.5 7.5t-44.5 23.5t-30.5 41.5t-11.5 61.5v292zM106 707q25 0 42 -16q18 -18 18 -42q0 -26 -18 -42q-17 -16 -42 -16q-26 0 -42 16
q-18 16 -18 42q0 24 18 42q16 16 42 16z" />
    <glyph glyph-name="i_f" unicode="&#xe425;" horiz-adv-x="489" 
d="M49 504h211v56q0 28 7.5 54.5t23.5 47t42 33t62 12.5q17 0 38.5 -3.5t37.5 -8.5v-86h-40q-31 0 -46.5 -17t-15.5 -47v-41h97l-29 -90h-68v-414h-109v414h-102v-414h-109v504zM106 707q25 0 42 -16q18 -18 18 -42q0 -26 -18 -42q-17 -16 -42 -16q-26 0 -42 16
q-18 16 -18 42q0 24 18 42q16 16 42 16z" />
    <glyph glyph-name="t_i" unicode="&#xe426;" horiz-adv-x="510" 
d="M349 0v414h-169v-269q0 -60 62 -60h25v-86q-14 -5 -27.5 -8t-28.5 -3q-28 0 -53.5 7.5t-44.5 23.5t-30.5 41.5t-11.5 61.5v292h-57v90h57v108l109 24v-132h278v-504h-109zM404 707q25 0 42 -16q18 -18 18 -42q0 -26 -18 -42q-17 -16 -42 -16q-26 0 -42 16q-18 16 -18 42
q0 24 18 42q16 16 42 16z" />
    <glyph glyph-name="w_w_w" unicode="&#xe427;" horiz-adv-x="1945" 
d="M426 434l96 -274l108 356h95l107 -356l96 274h90l96 -274l108 356h93l107 -356l96 274h90l96 -274l108 356l98 -31l-147 -485h-111l-69 195l-20 97l-20 -97l-68 -195h-111l-96 315l-95 -315h-111l-69 195l-20 97l-20 -97l-68 -195h-111l-97 318l-96 -318h-111l-69 195
l-20 97l-20 -97l-68 -195h-111l-147 485l98 31l107 -356l96 274h90z" />
    <glyph glyph-name="l_l" unicode="&#xe428;" horiz-adv-x="527" 
d="M56 677l109 30v-562q0 -60 62 -60h83q-1 6 -1.5 12.5t-0.5 14.5v565l109 30v-562q0 -60 62 -60h39v-85q-16 -5 -40 -8.5t-41 -3.5q-45 0 -78 22q-25 -7 -71.5 -14.5t-102.5 -7.5q-28 0 -51.5 9t-41 25.5t-27 39.5t-9.5 50v565z" />
    <glyph glyph-name="m_m" unicode="&#xe429;" horiz-adv-x="1433" 
d="M180 457q20 23 48.5 41t58.5 18q47 0 83.5 -15t63.5 -54q35 32 70 50.5t84 18.5q50 0 89.5 -17.5t64.5 -49.5q36 35 74.5 51t67.5 16q47 0 83.5 -15t63.5 -54q35 32 70 50.5t84 18.5q42 0 77 -12.5t60.5 -35.5t39.5 -56t14 -75v-337h-109v327q0 44 -19 68.5t-69 24.5
q-32 0 -56 -14t-47 -36v-370h-109v338q0 43 -22.5 62.5t-62.5 19.5q-33 0 -59 -13t-49 -36q1 -8 2 -16.5t1 -17.5v-337h-109v327q0 44 -18 68.5t-68 24.5q-32 0 -56 -14t-47 -36v-370h-109v338q0 43 -22.5 62.5t-62.5 19.5q-33 0 -57.5 -13t-47.5 -37v-370h-109v380
q0 27 -3.5 47.5t-14.5 43.5l97 45q8 -14 14 -28t10 -31h6z" />
    <glyph glyph-name="H_E" unicode="&#xe42a;" horiz-adv-x="1083" 
d="M1035 0h-521v317h-230q-53 0 -82.5 -29t-29.5 -82v-205h-112v695h112v-300q19 14 49.5 20.5t62.5 6.5h230v273h524l-33 -106h-378v-169h345v-106h-345v-210h408v-105z" />
    <glyph glyph-name="afii10074_afii10074" unicode="&#xe42b;" horiz-adv-x="886" 
d="M389 0v346l-213 -346h-116v488l108 28v-359l214 347h115v-347l214 347h115v-504h-108v346l-213 -346h-116z" />
    <glyph glyph-name="n_m" unicode="&#xe42c;" horiz-adv-x="1157" 
d="M295 420q-32 0 -63.5 -13t-54.5 -37v-370h-109v380q0 27 -4 47.5t-15 43.5l98 45q8 -14 14 -28t10 -31h6q26 27 62 43t70 16q51 0 90.5 -15.5t65.5 -47.5q14 17 32.5 29t37.5 19.5t37.5 11t32.5 3.5q47 0 85.5 -15t65.5 -54q35 32 70 50.5t84 18.5q42 0 76.5 -12.5
t60 -35.5t39.5 -56t14 -75v-337h-109v327q0 44 -18.5 68.5t-68.5 24.5q-32 0 -59 -14.5t-44 -35.5v-370h-109v338q0 43 -24.5 62.5t-64.5 19.5q-26 0 -56.5 -14t-47.5 -29q3 -18 3 -38v-339h-109v317q0 51 -23.5 77t-74.5 26z" />
    <glyph glyph-name="afii10104_afii10104" unicode="&#xe42d;" horiz-adv-x="568" 
d="M343 0v504h109v-504h-109zM122 0v504h109v-504h-109zM462 707q25 0 42 -16q18 -18 18 -42q0 -26 -18 -42q-17 -16 -42 -16q-26 0 -42 16q-18 16 -18 42q0 24 18 42q16 16 42 16zM284 707q25 0 42 -16q18 -18 18 -42q0 -26 -18 -42q-17 -16 -42 -16q-26 0 -42 16
q-18 16 -18 42q0 24 18 42q16 16 42 16zM106 707q25 0 42 -16q18 -18 18 -42q0 -26 -18 -42q-17 -16 -42 -16q-26 0 -42 16q-18 16 -18 42q0 24 18 42q16 16 42 16z" />
    <glyph glyph-name="i_alternate" unicode="&#xe42e;" horiz-adv-x="251" 
d="M74 343q0 32 -7 64t-21 62l101 47q36 -81 36 -173v-343h-109v343zM145 707q25 0 42 -16q18 -18 18 -42q0 -26 -18 -42q-17 -16 -42 -16q-26 0 -42 16q-18 16 -18 42q0 24 18 42q16 16 42 16z" />
    <glyph glyph-name="_ordinal" unicode="&#xe42f;" horiz-adv-x="479" 
d="M47 249q-3 -8 -4.5 -24t-1.5 -21q0 -7 1.5 -23t4.5 -24h378q3 8 4.5 24t1.5 23q0 5 -1.5 21t-4.5 24h-378zM166 454q-47 6 -69 34t-22 83q0 30 12 51.5t30.5 34.5t42.5 19t49 6h185v-373h-81v137h-36q-19 0 -29 -14l-54 -86q-12 -19 -36.5 -32.5t-47.5 -13.5
q-8 0 -20.5 2.5t-19.5 6.5v63q12 0 28.5 4.5t24.5 15.5zM313 614h-102q-29 0 -41.5 -14.5t-12.5 -37.5t12 -35t42 -12h102v99z" />
    <glyph glyph-name="_ordinal" unicode="&#xe430;" horiz-adv-x="857" 
d="M57 249q-3 -8 -4.5 -24t-1.5 -21q0 -7 1.5 -23t4.5 -24h744q3 8 4.5 24t1.5 23q0 5 -1.5 21t-4.5 24h-744zM542 454q-47 6 -69 34t-22 83q0 30 12 51.5t30.5 34.5t42.5 19t49 6h185v-373h-81v137h-36q-19 0 -29 -14l-54 -86q-12 -19 -36.5 -32.5t-47.5 -13.5
q-8 0 -20.5 2.5t-19.5 6.5v63q12 0 28.5 4.5t24.5 15.5zM689 614h-102q-29 0 -41.5 -14.5t-12.5 -37.5t12 -35t42 -12h102v99zM193 372q13 0 29.5 5.5t32.5 13.5t31.5 17t27.5 16v39h-130q-48 0 -48 -49q0 -26 16 -34t41 -8zM237 691q31 0 59 -9t50 -26t35 -42.5t13 -58.5
v-161q0 -25 5 -43.5t17 -41.5h-85q-6 8 -9 20.5t-5 23.5q-30 -23 -62 -38t-70 -15q-26 0 -49 8.5t-41 23.5t-28.5 36t-10.5 47q0 28 10 50t27 37.5t40 23.5t50 8h131v9q0 41 -19.5 58.5t-57.5 18.5q-34 0 -59.5 -7t-54.5 -22l-34 60q36 20 71 30t77 10z" />
    <glyph glyph-name="e_ordinal" unicode="&#xe431;" horiz-adv-x="460" 
d="M53 249q-3 -8 -4.5 -24t-1.5 -21q0 -7 1.5 -23t4.5 -24h359q3 8 4.5 24t1.5 23q0 5 -1.5 21t-4.5 24h-359zM132 470q0 -21 5.5 -39t18.5 -31t34.5 -20.5t53.5 -7.5q28 0 43.5 8t33.5 25l66 -27q-23 -40 -62.5 -59t-84.5 -19q-93 0 -141 48t-48 142v8v19t1 17q1 36 16 65
t39 49.5t56 31.5t68 11q82 0 127 -49t45 -129v-43h-271zM132 539h190q0 36 -25.5 58t-65.5 22q-19 0 -36.5 -4.5t-31.5 -14.5t-22.5 -25t-8.5 -36z" />
    <glyph glyph-name="o_e_ordinal" unicode="&#xe432;" horiz-adv-x="882" 
d="M57 249q-3 -8 -4.5 -24t-1.5 -21q0 -7 1.5 -23t4.5 -24h768q3 8 4.5 24t1.5 23q0 5 -1.5 21t-4.5 24h-768zM358 507q0 49 -25.5 81t-82.5 32t-82 -31.5t-25 -80.5v-12q0 -27 4.5 -49.5t16.5 -39t32.5 -26t53.5 -9.5t54 10t33 27t16.5 40t4.5 49v9zM249 300q-45 0 -79 15
t-57 41t-34.5 62t-11.5 77v15q0 39 13 72t36.5 57.5t57 38t75.5 13.5q39 0 73 -13.5t59 -37.5t39 -57t14 -72v-16q0 -41 -12.5 -77t-36 -62t-58 -41t-78.5 -15zM545 470q0 -21 5.5 -39t18.5 -31t34.5 -20.5t53.5 -7.5q28 0 43.5 8t33.5 25l66 -27q-23 -40 -62.5 -59
t-84.5 -19q-93 0 -141 48t-48 142v8v19t1 17q1 36 16 65t39 49.5t56 31.5t68 11q82 0 127 -49t45 -129v-43h-271zM545 539h190q0 36 -25.5 58t-65.5 22q-19 0 -36.5 -4.5t-31.5 -14.5t-22.5 -25t-8.5 -36z" />
    <glyph glyph-name="oe_ordinal" unicode="&#xe433;" horiz-adv-x="769" 
d="M437 470q0 -21 5.5 -39t18.5 -31t34.5 -20.5t53.5 -7.5q28 0 43.5 8t33.5 25l66 -27q-23 -40 -62.5 -59t-84.5 -19q-108 0 -154 64q-24 -30 -60 -47t-84 -17q-45 0 -79 15t-57 41t-34.5 62t-11.5 77v15q1 39 14 72t36.5 57.5t56.5 38t75 13.5q45 0 82 -17t62 -47
q25 30 62.5 47t82.5 17q82 0 127 -49t45 -129v-43h-271zM356 490v20q0 49 -25.5 79.5t-82.5 30.5t-82 -30.5t-25 -79.5v-17q0 -27 4.5 -49t16.5 -38t32.5 -25t53.5 -9q31 0 51.5 8.5t32.5 23.5t17.5 36t6.5 45v5zM437 539h190q0 36 -25.5 58t-65.5 22q-19 0 -36.5 -4.5
t-31.5 -14.5t-22.5 -25t-8.5 -36zM56 249q-3 -8 -4.5 -24t-1.5 -21q0 -7 1.5 -23t4.5 -24h656q3 8 4.5 24t1.5 23q0 5 -1.5 21t-4.5 24h-656z" />
    <glyph glyph-name="_ordinal" unicode="&#xe434;" horiz-adv-x="429" 
d="M296 309v255l-158 -255h-85v360l79 21v-266l159 257h84v-372h-79zM213 740q-21 0 -40.5 5t-34.5 16t-24.5 28t-9.5 42h52q0 -22 17 -31.5t40 -9.5t40 9t17 32h52q0 -25 -9.5 -42t-25 -28t-35 -16t-39.5 -5zM37 249q-3 -8 -4.5 -24t-1.5 -21q0 -7 1.5 -23t4.5 -24h355
q3 8 4.5 24t1.5 23q0 5 -1.5 21t-4.5 24h-355z" />
    <glyph glyph-name="_ordinal" unicode="&#xe435;" horiz-adv-x="918" 
d="M773 309v255l-158 -255h-85v360l79 21v-266l159 257h84v-372h-79zM690 740q-21 0 -40.5 5t-34.5 16t-24.5 28t-9.5 42h52q0 -22 17 -31.5t40 -9.5t40 9t17 32h52q0 -25 -9.5 -42t-25 -28t-35 -16t-39.5 -5zM27 249q-3 -8 -4.5 -24t-1.5 -21q0 -7 1.5 -23t4.5 -24h843
q3 8 4.5 24t1.5 23q0 5 -1.5 21t-4.5 24h-843zM470 691v-383h-81v360zM361 426q0 -62 -36 -90t-91 -28h-197v365l81 18v-144h119q57 0 90.5 -29.5t33.5 -91.5zM280 426q0 32 -15.5 40.5t-45.5 8.5h-101v-95h102q14 0 25.5 1t19 5.5t11.5 13.5t4 26z" />
    <glyph glyph-name="_ordinal" unicode="&#xe436;" horiz-adv-x="809" 
d="M666 309v255l-158 -255h-85v360l79 21v-266l159 257h84v-372h-79zM583 740q-21 0 -40.5 5t-34.5 16t-24.5 28t-9.5 42h52q0 -22 17 -31.5t40 -9.5t40 9t17 32h52q0 -25 -9.5 -42t-25 -28t-35 -16t-39.5 -5zM26 249q-3 -8 -4.5 -24t-1.5 -21q0 -7 1.5 -23t4.5 -24h737
q3 8 4.5 24t1.5 23q0 5 -1.5 21t-4.5 24h-737zM315 507q0 49 -25.5 81t-82.5 32t-82 -31.5t-25 -80.5v-12q0 -27 4.5 -49.5t16.5 -39t32.5 -26t53.5 -9.5t54 10t33 27t16.5 40t4.5 49v9zM206 300q-45 0 -79 15t-57 41t-34.5 62t-11.5 77v15q0 39 13 72t36.5 57.5t57 38
t75.5 13.5q39 0 73 -13.5t59 -37.5t39 -57t14 -72v-16q0 -41 -12.5 -77t-36 -62t-58 -41t-78.5 -15z" />
    <glyph glyph-name="ee_ordinal" unicode="&#xe437;" horiz-adv-x="882" 
d="M57 249q-3 -8 -4.5 -24t-1.5 -21q0 -7 1.5 -23t4.5 -24h768q3 8 4.5 24t1.5 23q0 5 -1.5 21t-4.5 24h-768zM148 470q0 -21 5.5 -39t18.5 -31t34.5 -20.5t53.5 -7.5q28 0 43.5 8t33.5 25l66 -27q-23 -40 -62.5 -59t-84.5 -19q-93 0 -141 48t-48 142v8v19t1 17q1 36 16 65
t39 49.5t56 31.5t68 11q82 0 127 -49t45 -129v-43h-271zM148 539h190q0 36 -25.5 58t-65.5 22q-19 0 -36.5 -4.5t-31.5 -14.5t-22.5 -25t-8.5 -36zM545 470q0 -21 5.5 -39t18.5 -31t34.5 -20.5t53.5 -7.5q28 0 43.5 8t33.5 25l66 -27q-23 -40 -62.5 -59t-84.5 -19
q-93 0 -141 48t-48 142v8v19t1 17q1 36 16 65t39 49.5t56 31.5t68 11q82 0 127 -49t45 -129v-43h-271zM545 539h190q0 36 -25.5 58t-65.5 22q-19 0 -36.5 -4.5t-31.5 -14.5t-22.5 -25t-8.5 -36z" />
    <glyph glyph-name="_ordinal" unicode="&#xe438;" horiz-adv-x="860" 
d="M56 249q-3 -8 -4.5 -24t-1.5 -21q0 -7 1.5 -23t4.5 -24h744q3 8 4.5 24t1.5 23q0 5 -1.5 21t-4.5 24h-744zM542 454q-47 6 -69 34t-22 83q0 30 12 51.5t30.5 34.5t42.5 19t49 6h185v-373h-81v137h-36q-19 0 -29 -14l-54 -86q-12 -19 -36.5 -32.5t-47.5 -13.5
q-8 0 -20.5 2.5t-19.5 6.5v63q12 0 28.5 4.5t24.5 15.5zM689 614h-102q-29 0 -41.5 -14.5t-12.5 -37.5t12 -35t42 -12h102v99zM175 454q-47 6 -69 34t-22 83q0 30 12 51.5t30.5 34.5t42.5 19t49 6h185v-373h-81v137h-36q-19 0 -29 -14l-54 -86q-12 -19 -36.5 -32.5
t-47.5 -13.5q-8 0 -20.5 2.5t-19.5 6.5v63q12 0 28.5 4.5t24.5 15.5zM322 614h-102q-29 0 -41.5 -14.5t-12.5 -37.5t12 -35t42 -12h102v99z" />
    <glyph glyph-name="_ordinal" unicode="&#xe439;" horiz-adv-x="808" 
d="M665 309v255l-158 -255h-85v360l79 21v-266l159 257h84v-372h-79zM582 740q-21 0 -40.5 5t-34.5 16t-24.5 28t-9.5 42h52q0 -22 17 -31.5t40 -9.5t40 9t17 32h52q0 -25 -9.5 -42t-25 -28t-35 -16t-39.5 -5zM27 249q-3 -8 -4.5 -24t-1.5 -21q0 -7 1.5 -23t4.5 -24h734
q3 8 4.5 24t1.5 23q0 5 -1.5 21t-4.5 24h-734zM286 309v255l-158 -255h-85v360l79 21v-266l159 257h84v-372h-79z" />
    <glyph glyph-name="st_ordinal" unicode="&#xe43a;" horiz-adv-x="598" 
d="M183 691q77 0 126 -54l-50 -50q-14 15 -31.5 23.5t-45.5 8.5q-32 0 -52 -7.5t-20 -25.5q0 -19 16.5 -26.5t33.5 -12.5q28 -9 55 -15.5t53 -18.5t46.5 -34.5t20.5 -54.5q0 -34 -13 -57.5t-35 -38.5t-50.5 -21.5t-58.5 -6.5q-50 0 -89.5 16.5t-64.5 61.5l60 38
q17 -24 38.5 -34t59.5 -10q72 0 72 43q0 17 -14.5 27t-34.5 16q-27 8 -57.5 15t-56.5 19q-60 28 -60 96q0 51 42 77t110 26zM395 616h-42v67h42v80l81 18v-98h60l-21 -67h-39v-199q0 -45 46 -45h19v-64q-22 -8 -42 -8q-21 0 -39.5 5.5t-33 17t-23 30.5t-8.5 46v217zM27 249
q-3 -8 -4.5 -24t-1.5 -21q0 -7 1.5 -23t4.5 -24h528q3 8 4.5 24t1.5 23q0 5 -1.5 21t-4.5 24h-528z" />
    <glyph glyph-name="nd_ordinal" unicode="&#xe43b;" horiz-adv-x="834" 
d="M213 620q-24 0 -50.5 -9.5t-43.5 -27.5v-274h-81v281q0 20 -3 35.5t-11 32.5l72 33q6 -11 10.5 -21t7.5 -23h5q19 20 49 32t56 12q63 0 103.5 -33t40.5 -98v-251h-81v235q0 76 -74 76zM672 602q-17 9 -38 13t-39 4q-59 0 -83 -31t-24 -81v-27q0 -21 3 -40.5t11.5 -34.5
t23 -24t38.5 -9q31 0 59.5 18.5t48.5 40.5v171zM672 810l81 22v-438q0 -14 1.5 -25t3.5 -21q2 -9 6.5 -18.5t9.5 -20.5h-85q-4 7 -9 20q-2 7 -3 13t-1 11q-23 -23 -51.5 -38t-60.5 -15q-38 0 -67.5 12.5t-49.5 35t-30 52.5t-10 66v36q0 94 50 141.5t144 47.5q34 0 71 -14
v133zM22 249q-3 -8 -4.5 -24t-1.5 -21q0 -7 1.5 -23t4.5 -24h758q3 8 4.5 24t1.5 23q0 5 -1.5 21t-4.5 24h-758z" />
    <glyph glyph-name="rd_ordinal" unicode="&#xe43c;" horiz-adv-x="710" 
d="M550 602q-17 9 -38 13t-39 4q-59 0 -83 -31t-24 -81v-27q0 -21 3 -40.5t11.5 -34.5t23 -24t38.5 -9q31 0 59.5 18.5t48.5 40.5v171zM550 810l81 22v-438q0 -14 1.5 -25t3.5 -21q2 -9 6.5 -18.5t9.5 -20.5h-85q-4 7 -9 20q-2 7 -3 13t-1 11q-23 -23 -51.5 -38t-60.5 -15
q-38 0 -67.5 12.5t-49.5 35t-30 52.5t-10 66v36q0 94 50 141.5t144 47.5q34 0 71 -14v133zM20 249q-3 -8 -4.5 -24t-1.5 -21q0 -7 1.5 -23t4.5 -24h638q3 8 4.5 24t1.5 23q0 5 -1.5 21t-4.5 24h-638zM134 645q14 22 32 34t45 12q31 0 63 -16l-28 -75q-18 11 -38 11
q-23 0 -37.5 -13t-22.5 -32.5t-11 -41.5t-3 -41v-174h-81v281q0 40 -14 68l73 33q6 -11 10.5 -22t6.5 -24h5z" />
    <glyph glyph-name="er_ordinal" unicode="&#xe43d;" horiz-adv-x="746" 
d="M541 645q14 22 32 34t45 12q31 0 63 -16l-28 -75q-18 11 -38 11q-23 0 -37.5 -13t-22.5 -32.5t-11 -41.5t-3 -41v-174h-81v281q0 40 -14 68l73 33q6 -11 10.5 -22t6.5 -24h5zM137 470q0 -21 5.5 -39t18.5 -31t34.5 -20.5t53.5 -7.5q28 0 43.5 8t33.5 25l66 -27
q-23 -40 -62.5 -59t-84.5 -19q-93 0 -141 48t-48 142v8v19t1 17q1 36 16 65t39 49.5t56 31.5t68 11q82 0 127 -49t45 -129v-43h-271zM137 539h190q0 36 -25.5 58t-65.5 22q-19 0 -36.5 -4.5t-31.5 -14.5t-22.5 -25t-8.5 -36zM58 249q-3 -8 -4.5 -24t-1.5 -21q0 -7 1.5 -23
t4.5 -24h626q3 8 4.5 24t1.5 23q0 5 -1.5 21t-4.5 24h-626z" />
    <glyph glyph-name="ere_ordinal" unicode="&#xe43e;" horiz-adv-x="1110" 
d="M544 645q14 22 32 34t45 12q31 0 63 -16l-28 -75q-18 11 -38 11q-23 0 -37.5 -13t-22.5 -32.5t-11 -41.5t-3 -41v-174h-81v281q0 40 -14 68l73 33q6 -11 10.5 -22t6.5 -24h5zM140 470q0 -21 5.5 -39t18.5 -31t34.5 -20.5t53.5 -7.5q28 0 43.5 8t33.5 25l66 -27
q-23 -40 -62.5 -59t-84.5 -19q-93 0 -141 48t-48 142v8v19t1 17q1 36 16 65t39 49.5t56 31.5t68 11q82 0 127 -49t45 -129v-43h-271zM140 539h190q0 36 -25.5 58t-65.5 22q-19 0 -36.5 -4.5t-31.5 -14.5t-22.5 -25t-8.5 -36zM61 249q-3 -8 -4.5 -24t-1.5 -21q0 -7 1.5 -23
t4.5 -24h990q3 8 4.5 24t1.5 23q0 5 -1.5 21t-4.5 24h-990zM771 470q0 -21 5.5 -39t18.5 -31t34.5 -20.5t53.5 -7.5q28 0 43.5 8t33.5 25l66 -27q-23 -40 -62.5 -59t-84.5 -19q-93 0 -141 48t-48 142v8v19t1 17q1 36 16 65t39 49.5t56 31.5t68 11q82 0 127 -49t45 -129v-43
h-271zM771 539h190q0 36 -25.5 58t-65.5 22q-19 0 -36.5 -4.5t-31.5 -14.5t-22.5 -25t-8.5 -36z" />
    <glyph glyph-name="em_ordinal" unicode="&#xe43f;" horiz-adv-x="1075" 
d="M140 470q0 -21 5.5 -39t18.5 -31t34.5 -20.5t53.5 -7.5q28 0 43.5 8t33.5 25l66 -27q-23 -40 -62.5 -59t-84.5 -19q-93 0 -141 48t-48 142v8v19t1 17q1 36 16 65t39 49.5t56 31.5t68 11q82 0 127 -49t45 -129v-43h-271zM140 539h190q0 36 -25.5 58t-65.5 22
q-19 0 -36.5 -4.5t-31.5 -14.5t-22.5 -25t-8.5 -36zM61 249q-3 -8 -4.5 -24t-1.5 -21q0 -7 1.5 -23t4.5 -24h956q3 8 4.5 24t1.5 23q0 5 -1.5 21t-4.5 24h-956zM538 647q7 9 17.5 17t22.5 14t25 9.5t24 3.5q35 0 61.5 -11t46.5 -40q26 24 52 37.5t62 13.5q63 0 102 -35
t39 -97v-250h-81v242q0 32 -13.5 50.5t-50.5 18.5q-23 0 -41 -10.5t-35 -26.5v-274h-81v250q0 32 -17 46.5t-46 14.5q-24 0 -47 -9.5t-40 -27.5v-274h-81v281q0 20 -2.5 35.5t-10.5 32.5l72 33q6 -11 10.5 -21t7.5 -23h4z" />
    <glyph glyph-name="eme_ordinal" unicode="&#xe440;" horiz-adv-x="1446" 
d="M1111 470q0 -21 5.5 -39t18.5 -31t34.5 -20.5t53.5 -7.5q28 0 43.5 8t33.5 25l66 -27q-23 -40 -62.5 -59t-84.5 -19q-93 0 -141 48t-48 142v8v19t1 17q1 36 16 65t39 49.5t56 31.5t68 11q82 0 127 -49t45 -129v-43h-271zM1111 539h190q0 36 -25.5 58t-65.5 22
q-19 0 -36.5 -4.5t-31.5 -14.5t-22.5 -25t-8.5 -36zM62 249q-3 -8 -4.5 -24t-1.5 -21q0 -7 1.5 -23t4.5 -24h1323q3 8 4.5 24t1.5 23q0 5 -1.5 21t-4.5 24h-1323zM539 647q7 9 17.5 17t22.5 14t25 9.5t24 3.5q35 0 61.5 -11t46.5 -40q26 24 52 37.5t62 13.5q63 0 102 -35
t39 -97v-250h-81v242q0 32 -13.5 50.5t-50.5 18.5q-23 0 -41 -10.5t-35 -26.5v-274h-81v250q0 32 -17 46.5t-46 14.5q-24 0 -47 -9.5t-40 -27.5v-274h-81v281q0 20 -2.5 35.5t-10.5 32.5l72 33q6 -11 10.5 -21t7.5 -23h4zM141 470q0 -21 5.5 -39t18.5 -31t34.5 -20.5
t53.5 -7.5q28 0 43.5 8t33.5 25l66 -27q-23 -40 -62.5 -59t-84.5 -19q-93 0 -141 48t-48 142v8v19t1 17q1 36 16 65t39 49.5t56 31.5t68 11q82 0 127 -49t45 -129v-43h-271zM141 539h190q0 36 -25.5 58t-65.5 22q-19 0 -36.5 -4.5t-31.5 -14.5t-22.5 -25t-8.5 -36z" />
    <glyph glyph-name="f_f_t" unicode="&#xeece;" horiz-adv-x="799" 
d="M187 414v-414h-109v414h-63v90h63v56q0 29 11 55.5t29.5 47t44.5 32.5t56 12q20 0 39 -3.5t42 -12.5v-82h-62q-26 0 -38.5 -11.5t-12.5 -37.5v-56h134v56q0 29 11 55.5t29.5 47t44.5 32.5t56 12q20 0 39 -3.5t42 -12.5v-82h-62q-26 0 -38.5 -11.5t-12.5 -37.5v-56h136v97
l109 30v-127h91l-28 -90h-63v-281q0 -25 19 -36.5t42 -11.5h38v-85q-17 -5 -28.5 -7t-19 -3.5t-12.5 -1.5h-9q-30 0 -55 12t-44 32t-29.5 46.5t-10.5 55.5v280h-136v-414h-109v414h-134z" />
    <glyph glyph-name="t_r" unicode="&#xeed8;" horiz-adv-x="637" 
d="M420 504q6 -12 11 -24.5t7 -26.5h6q19 30 44 46.5t62 16.5q39 0 83 -22l-38 -101q-25 15 -49 15q-32 0 -52 -17.5t-31 -44t-15 -56.5t-4 -54v-236h-109v380q0 9 -0.5 17.5t-1.5 16.5h-153v-269q0 -60 62 -60h25v-86q-14 -5 -27.5 -8t-28.5 -3q-28 0 -53.5 7.5t-44.5 23.5
t-30.5 41.5t-11.5 61.5v292h-57v90h57v108l109 24v-132h240z" />
    <glyph glyph-name="t_t" unicode="&#xeed9;" horiz-adv-x="542" 
d="M71 414h-57v90h57v108l109 24v-132h141v108l109 24v-132h80l-28 -90h-52v-269q0 -60 62 -60h25v-86q-14 -5 -27.5 -8t-28.5 -3q-28 0 -53.5 7.5t-44.5 23.5t-30.5 41.5t-11.5 61.5v292h-141v-269q0 -60 62 -60h25v-86q-14 -5 -27.5 -8t-28.5 -3q-28 0 -53.5 7.5
t-44.5 23.5t-30.5 41.5t-11.5 61.5v292z" />
    </font>
</defs>
</svg>
