<?xml version="1.0" standalone="no"?>
<!DOCTYPE svg PUBLIC "-//W3C//DTD SVG 1.1//EN" "http://www.w3.org/Graphics/SVG/1.1/DTD/svg11.dtd" >
<svg xmlns="http://www.w3.org/2000/svg">
<metadata>
Generated by SVGconv.
Copyright   : Copyright (c) 2013 by Gayane Bagdasaryan, Dmitry Rastvortsev. All rights reserved.
Designer    : Gayane Bagdasaryan, Dmitry Rastvortsev
Foundry     : Gayane Bagdasaryan, Dmitry Rastvortsev
Foundry URL : http://www.brownfox.org
</metadata>
<defs>
<font id="BrutalType" horiz-adv-x="557" >
<font-face units-per-em="1000" ascent="955" descent="277" />
<missing-glyph horiz-adv-x="500" />
<glyph unicode="&#13;" horiz-adv-x="249" />
<glyph unicode="&#32;" horiz-adv-x="249" />
<glyph unicode="&#33;" horiz-adv-x="271" d="M93 123h85v-123h-85zM96 700h80v-480l-80 0z" />
<glyph unicode="&#34;" horiz-adv-x="363" d="M50 624v81h87v-81l-16 -155h-55zM226 624v81h87v-81l-16 -155l-55 0z" />
<glyph unicode="&#35;" horiz-adv-x="655" d="M102 29l30 152h-98v74h114l38 190h-108v74h123l37 181h71v-29l-30 -152h165l37 181h71v-29l-31 -152h100v-74h-115l-38 -190h109v-74h-124l-37 -181h-71v29l30 152h-165l-36 -181h-72zM391 255l38 190h-166l-38 -190z" />
<glyph unicode="&#36;" horiz-adv-x="604" d="M128 227q0 -47 16 -79.5q16 -32.5 41.5 -52.5q25.5 -20 58.5 -28.5q33 -8.5 67 -8.5q74 0 110.5 34q36.5 34 36.5 84q0 24 -8.5 42q-8.5 18 -24 32q-15.5 14 -37.5 25q-22 11 -49 22l-77 31q-49 20 -85.5 38q-36.5 18 -60.5 40.5q-24 22.5 -35.5 51q-11.5 28.5 -11.5 69.5q0 34 12.5 66q12.5 32 37 57.5q24.5 25.5 61 42.5q36.5 17 84.5 21l0 91h80v-94q91 -14 142 -75q51 -61 51 -157l-81 0q0 45 -13.5 76.5q-13.5 31.5 -36 50.5q-22.5 19 -52 27.5q-29.5 8.5 -61.5 8.5q-67 0 -104.5 -30.5q-37.5 -30.5 -37.5 -81.5q0 -26 8 -43.5q8 -17.5 24.5 -31.5q16.5 -14 41 -26q24.5 -12 57.5 -25l78 -31q40 -16 73.5 -33.5q33.5 -17.5 57.5 -39.5q24 -22 37 -50.5q13 -28.5 13 -67.5q0 -40 -13 -74q-13 -34 -38 -59.5q-25 -25.5 -62 -42q-37 -16.5 -84 -20.5l0 -101h-80v102q-101 11 -158.5 72.5q-57.5 61.5 -57.5 167.5z" />
<glyph unicode="&#37;" horiz-adv-x="776" d="M193 413q40 0 60 22.5q20 22.5 20 54.5v87q0 33 -20 55.5q-20 22.5 -60 22.5q-39 0 -59 -22.5q-20 -22.5 -20 -55.5v-87q0 -32 20 -54.5q20 -22.5 59 -22.5zt0 0zM193 353q-72 0 -111 38.5q-39 38.5 -39 108.5v68q0 69 39 108q39 39 111 39q72 0 111.5 -39q39.5 -39 39.5 -108v-68q0 -70 -39.5 -108.5q-39.5 -38.5 -111.5 -38.5zt0 0zM156 29l398 671h65v-29l-399 -671h-64zM583 44q40 0 60 23q20 23 20 55v87q0 32 -20 55q-20 23 -60 23q-38 0 -58.5 -22.5q-20.5 -22.5 -20.5 -55.5v-87q0 -33 20.5 -55.5q20.5 -22.5 58.5 -22.5zt0 0zM583 -15q-72 0 -111 38.5q-39 38.5 -39 107.5v69q0 69 39 108q39 39 111 39q72 0 111.5 -39q39.5 -39 39.5 -108v-69q0 -69 -39.5 -107.5t-111.5 -38.5z" />
<glyph unicode="&#38;" horiz-adv-x="653" d="M619 0h-71l-72 75q-38 -41 -90 -64q-52 -23 -118 -23q-51 0 -92 14q-41 14 -70.5 39q-29.5 25 -45 60q-15.5 35 -15.5 77q0 29 6.5 53.5q6.5 24.5 20.5 47q14 22.5 35 44q21 21.5 51 45.5l22 18l-18 20q-14 15 -27 30.5q-13 15.5 -23 33q-10 17.5 -16.5 38q-6.5 20.5 -6.5 46.5q0 34 12.5 62q12.5 28 34 48q21.5 20 52 31.5q30.5 11.5 66.5 11.5q34 0 63.5 -10.5q29.5 -10.5 50.5 -30q21 -19.5 33 -48q12 -28.5 12 -63.5q0 -44 -23 -78q-23 -34 -55 -60l-43 -35l176 -188q33 66 33 154l75 0q0 -57 -13 -111q-13 -54 -39 -100l95 -99zM270 61q49 0 88 18q39 18 67 50l-193 205l-25 -20q-21 -18 -36.5 -32.5q-15.5 -14.5 -25.5 -29q-10 -14.5 -15 -30.5q-5 -16 -5 -36q0 -57 40.5 -91q40.5 -34 104.5 -34zt0 0zM169 552q0 -25 10 -43q10 -18 38 -48l25 -26l42 34q24 20 37.5 39.5q13.5 19.5 13.5 47.5q0 36 -24 57q-24 21 -58 21q-38 0 -61 -22.5t-23 -59.5z" />
<glyph unicode="&#39;" horiz-adv-x="187" d="M50 624v81h87v-81l-16 -155l-55 0z" />
<glyph unicode="&#40;" horiz-adv-x="306" d="M272 -160q-82 0 -130.5 46q-48.5 46 -48.5 134v558q0 88 48.5 134q48.5 46 130.5 46l0 -73q-47 0 -73 -28.5q-26 -28.5 -26 -74.5v-566q0 -46 26 -74.5q26 -28.5 73 -28.5l0 -73z" />
<glyph unicode="&#41;" horiz-adv-x="306" d="M34 -160q82 0 130.5 46q48.5 46 48.5 134v558q0 88 -48.5 134q-48.5 46 -130.5 46l0 -73q47 0 73 -28.5q26 -28.5 26 -74.5v-566q0 -46 -26 -74.5q-26 -28.5 -73 -28.5l0 -73z" />
<glyph unicode="&#42;" horiz-adv-x="428" d="M186 471l-117 -73l-32 56l122 65l-122 65l32 56l117 -73l-4 138h64l-5 -138l118 73l32 -56l-123 -65l123 -65l-32 -56l-118 73l5 -138l-64 0z" />
<glyph unicode="&#43;" horiz-adv-x="541" d="M234 279h-177v68h177v178h73v-178h177v-68h-177v-182l-73 0z" />
<glyph unicode="&#44;" horiz-adv-x="239" d="M93 132h88v-38l-83 -198l-64 0z" />
<glyph unicode="&#45;" horiz-adv-x="438" d="M63 350h313v-74l-313 0z" />
<glyph unicode="&#46;" horiz-adv-x="243" d="M75 132h94v-132l-94 0z" />
<glyph unicode="&#47;" horiz-adv-x="460" d="M43 -71l302 829h72v-29l-302 -829l-72 0z" />
<glyph unicode="&#48;" horiz-adv-x="603" d="M301 58q72 0 110.5 43.5q38.5 43.5 38.5 110.5v275q0 68 -38.5 111.5q-38.5 43.5 -110.5 43.5q-72 0 -110 -43.5q-38 -43.5 -38 -111.5v-275q0 -67 38 -110.5q38 -43.5 110 -43.5zt0 0zM301 -15q-52 0 -94 15.5q-42 15.5 -72 45.5q-30 30 -46 73q-16 43 -16 98v266q0 55 16 98q16 43 46 73q30 30 72 45.5q42 15.5 94 15.5q52 0 94.5 -15.5q42.5 -15.5 72.5 -45.5q30 -30 46 -73q16 -43 16 -98v-266q0 -55 -16 -98q-16 -43 -46 -73q-30 -30 -72.5 -45.5t-94.5 -15.5z" />
<glyph unicode="&#49;" horiz-adv-x="283" d="M110 598h-68v42l98 60h50v-700l-80 0z" />
<glyph unicode="&#50;" horiz-adv-x="560" d="M56 66l211 215q30 30 55.5 57q25.5 27 44 53.5q18.5 26.5 29 54q10.5 27.5 10.5 58.5q0 61 -34 99.5q-34 38.5 -100 38.5q-68 0 -103 -42.5q-35 -42.5 -36 -114.5l-80 0q0 55 16.5 98q16.5 43 46 72q29.5 29 69 44.5q39.5 15.5 86.5 15.5q51 0 91 -16q40 -16 67.5 -44q27.5 -28 42 -66.5q14.5 -38.5 14.5 -82.5q0 -42 -13.5 -78.5q-13.5 -36.5 -36 -68.5q-22.5 -32 -51 -62.5q-28.5 -30.5 -58.5 -60.5l-162 -163h330v-73l-439 0z" />
<glyph unicode="&#51;" horiz-adv-x="576" d="M284 -15q-53 0 -95.5 15.5q-42.5 15.5 -72.5 44.5q-30 29 -47 71q-17 42 -18 95l80 0q2 -69 42 -111q40 -42 114 -42q73 0 109.5 40q36.5 40 36.5 104q0 58 -36.5 92q-36.5 34 -101.5 34h-55v73h50q58 0 92 30.5q34 30.5 34 87.5q0 23 -7.5 45q-7.5 22 -23 39.5q-15.5 17.5 -40.5 28q-25 10.5 -59 10.5q-69 0 -104 -41q-35 -41 -36 -113l-80 0q1 110 61 168.5q60 58.5 159 58.5q51 0 90 -15q39 -15 65 -40.5q26 -25.5 39.5 -60q13.5 -34.5 13.5 -73.5q0 -63 -28 -100.5q-28 -37.5 -72 -57.5q24 -8 46 -23q22 -15 38 -36.5q16 -21.5 25.5 -50q9.5 -28.5 9.5 -61.5q0 -100 -60 -156t-169 -56z" />
<glyph unicode="&#52;" horiz-adv-x="547" d="M355 152h-322v62l262 486h71v-29l-241 -446h230v186h80v-186h89v-73h-89v-152l-80 0z" />
<glyph unicode="&#53;" horiz-adv-x="586" d="M296 -15q-96 0 -157.5 52q-61.5 52 -73.5 149l80 0q8 -59 49 -93.5q41 -34.5 104 -34.5q74 0 110 47q36 47 36 124q0 80 -39.5 122.5q-39.5 42.5 -104.5 42.5q-46 0 -78 -19q-32 -19 -50 -43l-79 0l33 368h358v-73h-292l-19 -213q28 22 61 34.5q33 12.5 80 12.5q43 0 81 -13q38 -13 66.5 -41q28.5 -28 45.5 -72q17 -44 17 -105q0 -58 -16 -103.5q-16 -45.5 -45.5 -77q-29.5 -31.5 -72 -48t-94.5 -16.5z" />
<glyph unicode="&#54;" horiz-adv-x="581" d="M296 -15q-110 0 -171.5 62q-61.5 62 -61.5 172q0 46 16.5 89q16.5 43 50.5 97l185 295h74v-29l-168 -262q20 12 46 19.5q26 7.5 60 7.5q44 0 81 -14.5q37 -14.5 63.5 -42.5q26.5 -28 41.5 -68q15 -40 15 -92q0 -110 -61.5 -172q-61.5 -62 -170.5 -62zt0 0zM296 58q75 0 113.5 43q38.5 43 38.5 114q0 69 -36.5 112q-36.5 43 -114.5 43q-73 0 -113.5 -41.5q-40.5 -41.5 -40.5 -113.5q0 -71 38.5 -114t114.5 -43z" />
<glyph unicode="&#55;" horiz-adv-x="536" d="M172 29l231 598h-282v-123h-75v196h440v-68l-242 -632l-72 0z" />
<glyph unicode="&#56;" horiz-adv-x="608" d="M304 -15q-116 0 -178.5 55.5q-62.5 55.5 -62.5 151.5q0 35 10.5 64q10.5 29 28 51q17.5 22 40.5 37q23 15 48 23q-43 19 -74.5 56q-31.5 37 -31.5 102q0 39 14.5 74q14.5 35 42 60.5q27.5 25.5 68.5 40.5q41 15 95 15q54 0 95 -15q41 -15 68.5 -40.5q27.5 -25.5 42 -60.5q14.5 -35 14.5 -74q0 -33 -8.5 -58q-8.5 -25 -23 -44q-14.5 -19 -33.5 -33q-19 -14 -40 -23q24 -8 47 -23q23 -15 40.5 -37q17.5 -22 28 -51q10.5 -29 10.5 -64q0 -96 -62.5 -151.5q-62.5 -55.5 -178.5 -55.5zt0 0zM163 519q0 -57 38.5 -90q38.5 -33 102.5 -33q64 0 102 33q38 33 38 90q0 55 -36 89q-36 34 -104 34q-68 0 -104.5 -34q-36.5 -34 -36.5 -89zt0 0zM144 195q0 -61 41 -99q41 -38 119 -38q78 0 119 38q41 38 41 99q0 61 -42.5 99.5q-42.5 38.5 -117.5 38.5q-75 0 -117.5 -38.5t-42.5 -99.5z" />
<glyph unicode="&#57;" horiz-adv-x="581" d="M199 29l165 263q-20 -13 -46 -20.5q-26 -7.5 -59 -7.5q-45 0 -83 14.5q-38 14.5 -65.5 42.5q-27.5 28 -42.5 69q-15 41 -15 93q0 108 61.5 170q61.5 62 171.5 62q110 0 171 -62q61 -62 61 -170q0 -45 -15.5 -88.5q-15.5 -43.5 -49.5 -99.5l-181 -295h-73zM286 642q-77 0 -115 -43q-38 -43 -38 -113q0 -70 37 -113.5q37 -43.5 114 -43.5q72 0 113 42q41 42 41 115q0 70 -38.5 113t-113.5 43z" />
<glyph unicode="&#58;" horiz-adv-x="243" d="M75 132h94v-132h-94zM75 514h94v-132l-94 0z" />
<glyph unicode="&#59;" horiz-adv-x="239" d="M93 132h88v-38l-83 -198h-64zM85 514h94v-132l-94 0z" />
<glyph unicode="&#60;" horiz-adv-x="502" d="M57 283v66l348 185h40v-56l-308 -162l308 -162v-57l-40 0z" />
<glyph unicode="&#61;" horiz-adv-x="541" d="M57 239h427v-68h-427zM57 455h427v-67l-427 0z" />
<glyph unicode="&#62;" horiz-adv-x="502" d="M57 154l308 162l-308 162v56h40l348 -185v-66l-348 -186l-40 0z" />
<glyph unicode="&#63;" horiz-adv-x="513" d="M208 327l84 58q21 15 39 28q18 13 31 29q13 16 20.5 35.5q7.5 19.5 7.5 46.5q0 22 -8 43.5q-8 21.5 -24 38q-16 16.5 -41 26.5q-25 10 -59 10q-67 0 -108 -40.5q-41 -40.5 -41 -113.5l-76 0q0 55 17.5 97.5q17.5 42.5 47.5 71q30 28.5 71 43.5q41 15 89 15q54 0 93.5 -16q39.5 -16 66 -42.5q26.5 -26.5 39.5 -60.5q13 -34 13 -71q0 -40 -13.5 -70.5q-13.5 -30.5 -34 -53.5q-20.5 -23 -44 -40.5q-23.5 -17.5 -44.5 -30.5l-46 -31v-79h-80zM206 123h85v-123l-85 0z" />
<glyph unicode="&#64;" horiz-adv-x="1002" d="M510 -151q-97 0 -177.5 32q-80.5 32 -138 89.5q-57.5 57.5 -89.5 137q-32 79.5 -32 174.5q0 97 32 177q32 80 89.5 137q57.5 57 138 88q80.5 31 177.5 31q88 0 164.5 -27.5q76.5 -27.5 133 -78.5q56.5 -51 89 -124q32.5 -73 32.5 -164q0 -59 -13 -107.5q-13 -48.5 -36.5 -83q-23.5 -34.5 -57 -53q-33.5 -18.5 -74.5 -18.5q-41 0 -74 19q-33 19 -45 64q-26 -32 -65 -56.5q-39 -24.5 -93 -24.5q-73 0 -119.5 44.5q-46.5 44.5 -46.5 125.5v101q0 81 46.5 126q46.5 45 119.5 45q27 0 50 -7q23 -7 42.5 -18q19.5 -11 35 -25q15.5 -14 26.5 -28l28 67h36v-300q0 -32 15 -51.5q15 -19.5 47 -19.5q23 0 43 12q20 12 35 37q15 25 23.5 62.5q8.5 37.5 8.5 88.5q0 78 -28 139.5q-28 61.5 -75.5 104.5q-47.5 43 -111.5 66q-64 23 -136 23q-81 0 -148.5 -26.5q-67.5 -26.5 -116.5 -75q-49 -48.5 -76 -117q-27 -68.5 -27 -153.5q0 -84 27 -152q27 -68 76 -117q49 -49 116.5 -75.5q67.5 -26.5 148.5 -26.5h25v-62zM484 126q45 0 78 21.5q33 21.5 57 49.5l0 166q-12 14 -25.5 27.5q-13.5 13.5 -30 24q-16.5 10.5 -36 16.5q-19.5 6 -43.5 6q-50 0 -80 -32.5q-30 -32.5 -30 -83.5v-78q0 -51 30 -84t80 -33z" />
<glyph unicode="&#65;" horiz-adv-x="656" d="M23 29l261 671h87l262 -671v-29h-86l-70 186h-302l-72 -186h-80zM450 260l-124 324l-125 -324z" />
<glyph unicode="&#66;" horiz-adv-x="655" d="M93 700h294q88 0 138 -46.5q50 -46.5 50 -137.5q0 -63 -25 -99q-25 -36 -66 -53q24 -7 45.5 -20q21.5 -13 37.5 -34q16 -21 25.5 -50q9.5 -29 9.5 -69q0 -94 -50.5 -142.5q-50.5 -48.5 -139.5 -48.5h-319zM397 77q58 0 88 31q30 31 30 88q0 58 -30 89.5q-30 31.5 -88 31.5h-217v-240zM374 391q56 0 85 30.5q29 30.5 29 85.5q0 56 -29.5 86q-29.5 30 -86.5 30h-192l0 -232z" />
<glyph unicode="&#67;" horiz-adv-x="659" d="M341 -15q-128 0 -198 66q-70 66 -70 186v226q0 120 70 186q70 66 198 66q51 0 97 -14.5q46 -14.5 81 -43.5q35 -29 56 -74q21 -45 21 -106v-10h-87v10q0 41 -15 70.5q-15 29.5 -39 49q-24 19.5 -54.5 29q-30.5 9.5 -60.5 9.5q-89 0 -134.5 -44q-45.5 -44 -45.5 -122v-238q0 -78 45.5 -122q45.5 -44 134.5 -44q30 0 60.5 9.5q30.5 9.5 54.5 29q24 19.5 39 49q15 29.5 15 70.5v10h87v-10q0 -61 -21 -106q-21 -45 -56 -74q-35 -29 -81 -43.5t-97 -14.5z" />
<glyph unicode="&#68;" horiz-adv-x="679" d="M337 77q88 0 135 45.5q47 45.5 47 119.5v216q0 74 -47 119.5q-47 45.5 -135 45.5h-157v-546zM93 700h244q61 0 111 -16q50 -16 85 -47.5q35 -31.5 54 -77q19 -45.5 19 -103.5v-212q0 -59 -19 -104q-19 -45 -54 -76.5q-35 -31.5 -85 -47.5q-50 -16 -111 -16l-244 0z" />
<glyph unicode="&#69;" horiz-adv-x="584" d="M93 700h436v-77h-349v-232h302v-77h-302v-237h350v-77l-437 0z" />
<glyph unicode="&#70;" horiz-adv-x="577" d="M93 700h441v-77h-353v-237h305v-77h-305v-309l-88 0z" />
<glyph unicode="&#71;" horiz-adv-x="689" d="M335 -15q-60 0 -108.5 17.5q-48.5 17.5 -82.5 50q-34 32.5 -52.5 79q-18.5 46.5 -18.5 105.5v226q0 120 72.5 186q72.5 66 200.5 66q51 0 97.5 -14q46.5 -14 82.5 -43q36 -29 58 -73q22 -44 22 -104v-6h-87v6q0 37 -14 66q-14 29 -38 48.5q-24 19.5 -55.5 29.5q-31.5 10 -67.5 10q-86 0 -135 -44q-49 -44 -49 -122v-232q0 -78 47.5 -125q47.5 -47 132.5 -47q124 0 179 112l0 106h-160v74h247v-357h-49l-24 87q-33 -50 -82 -76t-116 -26z" />
<glyph unicode="&#72;" horiz-adv-x="701" d="M93 700h87v-310h341v310h87v-700h-87v313h-341v-313l-87 0z" />
<glyph unicode="&#73;" horiz-adv-x="273" d="M93 700h87v-700l-87 0z" />
<glyph unicode="&#74;" horiz-adv-x="572" d="M256 -15q-51 0 -93.5 12.5q-42.5 12.5 -73.5 39q-31 26.5 -48.5 68q-17.5 41.5 -17.5 99.5v29h87v-30q0 -70 39.5 -104q39.5 -34 106.5 -34q31 0 58 8.5q27 8.5 46.5 26q19.5 17.5 30.5 44q11 26.5 11 62.5v494h87v-496q0 -57 -17.5 -98.5q-17.5 -41.5 -49 -68q-31.5 -26.5 -74 -39.5t-92.5 -13z" />
<glyph unicode="&#75;" horiz-adv-x="612" d="M93 700h87v-310h112l203 310h81v-29l-208 -315l221 -327v-29h-86l-210 313h-113v-313l-87 0z" />
<glyph unicode="&#76;" horiz-adv-x="561" d="M93 700h87v-623h358v-77l-445 0z" />
<glyph unicode="&#77;" horiz-adv-x="803" d="M93 700h84l226 -355l226 355h81v-700h-84v546l-196 -308h-57l-196 307v-545l-84 0z" />
<glyph unicode="&#78;" horiz-adv-x="701" d="M93 700h80l348 -539v539h87v-700h-80l-348 538v-538l-87 0z" />
<glyph unicode="&#79;" horiz-adv-x="684" d="M342 65q88 0 135 46.5q47 46.5 47 120.5v236q0 74 -47 120.5q-47 46.5 -135 46.5q-89 0 -135.5 -46.5q-46.5 -46.5 -46.5 -120.5v-236q0 -74 46.5 -120.5q46.5 -46.5 135.5 -46.5zt0 0zM342 -15q-62 0 -111.5 17q-49.5 17 -84.5 49q-35 32 -54 78.5q-19 46.5 -19 106.5v228q0 60 19 106.5q19 46.5 54 78.5q35 32 84.5 49q49.5 17 111.5 17q61 0 111 -17q50 -17 85 -49q35 -32 54 -78.5q19 -46.5 19 -106.5v-228q0 -60 -19 -106.5q-19 -46.5 -54 -78.5q-35 -32 -85 -49t-111 -17z" />
<glyph unicode="&#80;" horiz-adv-x="627" d="M93 700h293q91 0 142 -57q51 -57 51 -154q0 -96 -51 -153q-51 -57 -142 -57h-206v-279h-87zM371 356q53 0 86 34q33 34 33 99q0 66 -33 100q-33 34 -86 34h-191l0 -267z" />
<glyph unicode="&#81;" horiz-adv-x="685" d="M447 0q-21 -8 -50 -11.5q-29 -3.5 -55 -3.5q-62 0 -111.5 17q-49.5 17 -84.5 49q-35 32 -54 78.5q-19 46.5 -19 106.5v228q0 60 19 106.5q19 46.5 54 78.5q35 32 84.5 49q49.5 17 111.5 17q61 0 111 -17q50 -17 84.5 -49q34.5 -32 53.5 -78.5q19 -46.5 19 -106.5v-228q0 -69 -22 -116.5q-22 -47.5 -64 -79.5l88 -129v-30h-84zM342 65q88 0 135 45.5q47 45.5 47 120.5v238q0 75 -47 120.5q-47 45.5 -135 45.5q-89 0 -135.5 -45.5q-46.5 -45.5 -46.5 -120.5v-238q0 -75 46.5 -120.5t135.5 -45.5z" />
<glyph unicode="&#82;" horiz-adv-x="651" d="M93 700h293q99 0 151 -56q52 -56 52 -155q0 -84 -36 -132q-36 -48 -98 -69l145 -259v-29h-86l-155 277h-179v-277h-87zM371 354q62 0 95.5 34q33.5 34 33.5 101q0 68 -33.5 101q-33.5 33 -95.5 33h-191l0 -269z" />
<glyph unicode="&#83;" horiz-adv-x="633" d="M318 -15q-53 0 -101.5 14.5q-48.5 14.5 -86 44q-37.5 29.5 -60 75q-22.5 45.5 -22.5 108.5l87 0q0 -46 17.5 -77q17.5 -31 44.5 -50q27 -19 60 -27q33 -8 65 -8q78 0 117 32.5q39 32.5 39 80.5q0 24 -10 42q-10 18 -30 32.5q-20 14.5 -50 28q-30 13.5 -70 28.5l-50 18q-48 17 -85 34.5q-37 17.5 -62 40q-25 22.5 -38 51.5q-13 29 -13 69q0 43 16.5 78.5q16.5 35.5 47.5 61q31 25.5 75.5 39.5q44.5 14 101.5 14q54 0 100 -13.5q46 -13.5 80.5 -42q34.5 -28.5 54 -73q19.5 -44.5 19.5 -107.5l-87 0q0 43 -14 73q-14 30 -37.5 48.5q-23.5 18.5 -53.5 26.5q-30 8 -63 8q-72 0 -112.5 -30q-40.5 -30 -40.5 -77q0 -24 9 -41.5q9 -17.5 27 -31.5q18 -14 45.5 -26.5q27.5 -12.5 65.5 -25.5l47 -17q45 -17 85 -34.5q40 -17.5 70 -40.5q30 -23 47 -54.5q17 -31.5 17 -74.5q0 -42 -16 -78q-16 -36 -47.5 -62.5q-31.5 -26.5 -78.5 -41.5t-110 -15z" />
<glyph unicode="&#84;" horiz-adv-x="558" d="M236 623h-213v77h512v-77h-212v-623l-87 0z" />
<glyph unicode="&#85;" horiz-adv-x="681" d="M341 -15q-57 0 -104 16q-47 16 -81.5 46.5q-34.5 30.5 -53.5 76q-19 45.5 -19 104.5v472h87v-475q0 -73 45 -116.5q45 -43.5 126 -43.5q81 0 125.5 43q44.5 43 44.5 117v475h87v-472q0 -59 -19 -104q-19 -45 -53 -76q-34 -31 -81.5 -47t-103.5 -16z" />
<glyph unicode="&#86;" horiz-adv-x="656" d="M23 671v29h83l224 -584l221 584h82v-29l-261 -671l-87 0z" />
<glyph unicode="&#87;" horiz-adv-x="817" d="M43 671v29h86l111 -561l143 363h55l145 -365l110 563h81v-29l-138 -671h-82l-145 369l-146 -369l-82 0z" />
<glyph unicode="&#88;" horiz-adv-x="629" d="M33 29l227 330l-215 312v29h88l181 -273l187 273h82v-29l-216 -312l229 -330v-29h-88l-196 290l-196 -290l-83 0z" />
<glyph unicode="&#89;" horiz-adv-x="609" d="M261 278l-248 393v29h86l206 -335l211 335h79v-29l-247 -390v-281l-87 0z" />
<glyph unicode="&#90;" horiz-adv-x="577" d="M43 76l382 547h-368v77h468v-75l-382 -548h392v-77l-492 0z" />
<glyph unicode="&#91;" horiz-adv-x="323" d="M93 758h202v-73h-122v-772h122v-73l-202 0z" />
<glyph unicode="&#92;" horiz-adv-x="460" d="M417 -71l-302 829h-72v-29l302 -829l72 0z" />
<glyph unicode="&#93;" horiz-adv-x="323" d="M230 758h-202v-73h122v-772h-122v-73l202 0z" />
<glyph unicode="&#94;" horiz-adv-x="507" d="M57 416l161 289h69l162 -289v-29h-68l-129 229l-126 -229l-69 0z" />
<glyph unicode="&#95;" horiz-adv-x="540" d="M-1 -50h542v-68l-542 0z" />
<glyph unicode="&#96;" horiz-adv-x="292" d="M61 702v28h76l95 -140l-71 0z" />
<glyph unicode="&#97;" horiz-adv-x="547" d="M218 -12q-34 0 -65 9q-31 9 -54 27.5q-23 18.5 -37 46.5q-14 28 -14 66q0 79 53.5 121.5q53.5 42.5 159.5 42.5h129v51q0 45 -29 73q-29 28 -90 28q-60 0 -89 -27q-29 -27 -29 -68l-78 0q0 36 12 66.5q12 30.5 36 53q24 22.5 61 35.5q37 13 87 13q50 0 87.5 -13q37.5 -13 62 -35.5q24.5 -22.5 37 -53.5q12.5 -31 12.5 -67v-357h-48l-30 65q-12 -13 -29 -26.5q-17 -13.5 -39.5 -25q-22.5 -11.5 -49 -18.5q-26.5 -7 -56.5 -7zt0 0zM234 61q25 0 48 6.5q23 6.5 43 17q20 10.5 36.5 23.5q16.5 13 28.5 25l0 103h-129q-72 0 -102.5 -25q-30.5 -25 -30.5 -65q0 -45 30.5 -65t75.5 -20z" />
<glyph unicode="&#98;" horiz-adv-x="578" d="M329 -12q-58 0 -101 25q-43 25 -69 55l-28 -68h-48v705h80v-254q23 28 64.5 51.5q41.5 23.5 98.5 23.5q40 0 74 -12q34 -12 58.5 -36q24.5 -24 38 -59.5q13.5 -35.5 13.5 -81.5v-160q0 -46 -13.5 -81.5q-13.5 -35.5 -38 -59.5q-24.5 -24 -57.5 -36q-33 -12 -72 -12zt0 0zM314 61q52 0 84 33.5q32 33.5 32 88.5v148q0 55 -32 88.5q-32 33.5 -83 33.5q-24 0 -45.5 -7q-21.5 -7 -41 -18.5q-19.5 -11.5 -36 -26q-16.5 -14.5 -29.5 -29.5l0 -230q13 -15 29.5 -29.5q16.5 -14.5 35.5 -26q19 -11.5 40.5 -18.5t45.5 -7z" />
<glyph unicode="&#99;" horiz-adv-x="533" d="M270 -12q-100 0 -155 52.5q-55 52.5 -55 138.5v156q0 86 55 138.5q55 52.5 155 52.5q48 0 86 -13q38 -13 65 -37q27 -24 41.5 -58q14.5 -34 14.5 -76v-5h-80v6q0 48 -33 79q-33 31 -94 31q-65 0 -97.5 -32.5q-32.5 -32.5 -32.5 -83.5v-160q0 -51 32.5 -83.5q32.5 -32.5 97.5 -32.5q62 0 94.5 31.5q32.5 31.5 32.5 80.5v7h80v-6q0 -42 -14.5 -76.5q-14.5 -34.5 -41.5 -58.5q-27 -24 -65.5 -37.5t-85.5 -13.5z" />
<glyph unicode="&#100;" horiz-adv-x="578" d="M249 -12q-39 0 -72 12q-33 12 -57.5 36q-24.5 24 -38 59.5q-13.5 35.5 -13.5 81.5v160q0 46 13.5 81.5q13.5 35.5 38 59.5q24.5 24 58 36q33.5 12 74.5 12q57 0 98.5 -23.5q41.5 -23.5 64.5 -51.5l0 254h80v-705h-48l-28 68q-26 -30 -68.5 -55q-42.5 -25 -101.5 -25zt0 0zM264 61q24 0 45.5 7q21.5 7 40.5 18.5q19 11.5 35 26q16 14.5 30 29.5l0 230q-14 15 -30 29.5q-16 14.5 -35.5 26q-19.5 11.5 -41 18.5q-21.5 7 -45.5 7q-51 0 -83 -33.5q-32 -33.5 -32 -88.5v-148q0 -55 32 -88.5t84 -33.5z" />
<glyph unicode="&#101;" horiz-adv-x="541" d="M274 -12q-101 0 -157.5 51q-56.5 51 -56.5 138v158q0 43 14.5 78q14.5 35 42 60q27.5 25 67.5 39q40 14 90 14q98 0 153 -51q55 -51 55 -138v-107h-342v-51q0 -52 34 -85q34 -33 100 -33q58 0 88 25.5q30 25.5 37 67.5l80 0q-7 -76 -59 -121q-52 -45 -146 -45zt0 0zM402 295v42q0 51 -32.5 83.5q-32.5 32.5 -98.5 32.5q-64 0 -97.5 -32.5q-33.5 -32.5 -33.5 -83.5l0 -42z" />
<glyph unicode="&#102;" horiz-adv-x="334" d="M102 444h-84v70h84q0 41 8 76q8 35 28 61q20 26 53.5 41q33.5 15 84.5 15q10 0 19 -0.5q9 -0.5 16 -1.5l0 -72q-3 0 -11 0.5q-8 0.5 -15 0.5q-51 0 -77 -22.5q-26 -22.5 -26 -80.5v-17h124v-70h-124v-444l-80 0z" />
<glyph unicode="&#103;" horiz-adv-x="578" d="M288 -172q-93 0 -149.5 44.5q-56.5 44.5 -58.5 123.5l80 0q2 -38 33.5 -66.5q31.5 -28.5 94.5 -28.5q65 0 96 32q31 32 31 92v88q-23 -28 -64.5 -51.5q-41.5 -23.5 -98.5 -23.5q-41 0 -74.5 12q-33.5 12 -58 36q-24.5 24 -38 59.5q-13.5 35.5 -13.5 81.5v110q0 46 13.5 81.5q13.5 35.5 38 59.5q24.5 24 57.5 36q33 12 72 12q59 0 101 -25q42 -25 68 -55l29 68h48v-487q0 -101 -56.5 -150q-56.5 -49 -150.5 -49zt0 0zM266 111q24 0 45 7q21 7 40 18.5q19 11.5 35 25.5q16 14 29 29l0 182q-13 15 -29 29q-16 14 -35 25.5q-19 11.5 -40 18.5q-21 7 -45 7q-54 0 -86 -33q-32 -33 -32 -88v-100q0 -55 32 -88t86 -33z" />
<glyph unicode="&#104;" horiz-adv-x="583" d="M83 705h80v-254q26 29 67.5 52q41.5 23 98.5 23q37 0 69.5 -12.5q32.5 -12.5 56.5 -37q24 -24.5 37.5 -60.5q13.5 -36 13.5 -83v-333h-80v324q0 67 -33 98q-33 31 -81 31q-24 0 -45.5 -7.5q-21.5 -7.5 -41 -19q-19.5 -11.5 -35 -26q-15.5 -14.5 -27.5 -28.5l0 -372l-80 0z" />
<glyph unicode="&#105;" horiz-adv-x="246" d="M83 514h80v-514h-80zM83 705h80v-110l-80 0z" />
<glyph unicode="&#106;" horiz-adv-x="247" d="M12 -172q-10 0 -18.5 0.5q-8.5 0.5 -15.5 1.5l0 71h25q41 0 61 24q20 24 20 79v510h80v-511q0 -33 -7 -64.5q-7 -31.5 -24.5 -56q-17.5 -24.5 -47 -39.5q-29.5 -15 -73.5 -15zt0 0zM84 705h80v-110l-80 0z" />
<glyph unicode="&#107;" horiz-adv-x="526" d="M83 705h80v-407h88l153 216h66v-38l-148 -209l162 -229v-38h-72l-161 228h-88v-228l-80 0z" />
<glyph unicode="&#108;" horiz-adv-x="246" d="M83 705h80v-705l-80 0z" />
<glyph unicode="&#109;" horiz-adv-x="882" d="M83 514h48l28 -68q27 31 66.5 55.5q39.5 24.5 94.5 24.5q51 0 88 -23q37 -23 56 -69q14 17 32.5 33.5q18.5 16.5 41 29.5q22.5 13 48.5 21q26 8 55 8q77 0 120.5 -47q43.5 -47 43.5 -138v-341h-80v332q0 63 -29.5 92q-29.5 29 -73.5 29q-42 0 -77 -24q-35 -24 -63 -59q2 -17 2 -33q0 -16 0 -33v-304h-80v332q0 63 -29.5 92q-29.5 29 -73.5 29q-23 0 -43.5 -7.5q-20.5 -7.5 -38 -19.5q-17.5 -12 -32 -26.5q-14.5 -14.5 -24.5 -27.5l0 -372l-80 0z" />
<glyph unicode="&#110;" horiz-adv-x="583" d="M83 514h48l28 -68q27 31 69.5 55.5q42.5 24.5 99.5 24.5q39 0 71.5 -12.5q32.5 -12.5 56 -37q23.5 -24.5 37 -60.5q13.5 -36 13.5 -83v-333h-80v324q0 67 -33 98q-33 31 -81 31q-24 0 -46 -7.5q-22 -7.5 -41 -19q-19 -11.5 -34.5 -26q-15.5 -14.5 -27.5 -28.5l0 -372l-80 0z" />
<glyph unicode="&#111;" horiz-adv-x="547" d="M274 61q34 0 59 9.5q25 9.5 41.5 26q16.5 16.5 24.5 38.5q8 22 8 47v150q0 25 -8 47q-8 22 -24.5 38.5q-16.5 16.5 -41.5 26q-25 9.5 -59 9.5q-66 0 -100 -35q-34 -35 -34 -86v-150q0 -51 34 -86q34 -35 100 -35zt0 0zM274 -12q-53 0 -93 14.5q-40 14.5 -67 40.5q-27 26 -40.5 60.5q-13.5 34.5 -13.5 75.5v156q0 40 13.5 75q13.5 35 40.5 61q27 26 67 40.5q40 14.5 93 14.5q53 0 93 -14.5q40 -14.5 66.5 -40.5q26.5 -26 40 -61q13.5 -35 13.5 -75v-156q0 -41 -13.5 -75.5q-13.5 -34.5 -40 -60.5q-26.5 -26 -66.5 -40.5t-93 -14.5z" />
<glyph unicode="&#112;" horiz-adv-x="578" d="M329 526q39 0 72 -12q33 -12 57.5 -36q24.5 -24 38 -59.5q13.5 -35.5 13.5 -81.5v-160q0 -46 -13.5 -81.5q-13.5 -35.5 -38 -59.5q-24.5 -24 -58.5 -36q-34 -12 -74 -12q-57 0 -98.5 23.5q-41.5 23.5 -64.5 51.5l0 -223h-80v674h48l28 -68q26 30 69 55q43 25 101 25zt0 0zM314 61q52 0 84 33.5q32 33.5 32 88.5v148q0 55 -32 88.5q-32 33.5 -83 33.5q-24 0 -45.5 -7q-21.5 -7 -41 -18.5q-19.5 -11.5 -36 -26q-16.5 -14.5 -29.5 -29.5l0 -230q13 -15 29.5 -29.5q16.5 -14.5 35.5 -26q19 -11.5 40.5 -18.5t45.5 -7z" />
<glyph unicode="&#113;" horiz-adv-x="578" d="M249 526q59 0 101.5 -25q42.5 -25 68.5 -55l28 68h48v-674h-80v223q-23 -28 -64.5 -51.5q-41.5 -23.5 -98.5 -23.5q-41 0 -74.5 12q-33.5 12 -58 36q-24.5 24 -38 59.5q-13.5 35.5 -13.5 81.5v160q0 46 13.5 81.5q13.5 35.5 38 59.5q24.5 24 57.5 36q33 12 72 12zt0 0zM264 61q24 0 45.5 7q21.5 7 40.5 18.5q19 11.5 35 26q16 14.5 30 29.5l0 230q-14 15 -30 29.5q-16 14.5 -35.5 26q-19.5 11.5 -41 18.5q-21.5 7 -45.5 7q-51 0 -83 -33.5q-32 -33.5 -32 -88.5v-148q0 -55 32 -88.5t84 -33.5z" />
<glyph unicode="&#114;" horiz-adv-x="368" d="M83 514h42l29 -68q13 15 31 29q18 14 39.5 25.5q21.5 11.5 46 18.5q24.5 7 51.5 7h13v-78h-11q-101 0 -161 -72l0 -376l-80 0z" />
<glyph unicode="&#115;" horiz-adv-x="546" d="M277 -12q-48 0 -89 11.5q-41 11.5 -71 35q-30 23.5 -47 58q-17 34.5 -17 81.5l80 0q0 -29 12 -50.5q12 -21.5 33 -35.5q21 -14 48 -20.5q27 -6.5 57 -6.5q57 0 88.5 22q31.5 22 31.5 56q0 28 -18.5 44q-18.5 16 -61.5 27l-127 33q-26 7 -48.5 17q-22.5 10 -39 25q-16.5 15 -26 37q-9.5 22 -9.5 53q0 33 13.5 60.5q13.5 27.5 39 47.5q25.5 20 62.5 31.5q37 11.5 84 11.5q92 0 147.5 -45q55.5 -45 55.5 -136l-80 0q0 56 -36.5 82q-36.5 26 -92.5 26q-59 0 -86 -22q-27 -22 -27 -51q0 -27 16.5 -42q16.5 -15 56.5 -26l125 -31q60 -15 96 -45q36 -30 36 -91q0 -35 -14 -64q-14 -29 -41 -49.5q-27 -20.5 -65 -32t-86 -11.5z" />
<glyph unicode="&#116;" horiz-adv-x="367" d="M271 0q-48 0 -80 14.5q-32 14.5 -50.5 38q-18.5 23.5 -26 53.5q-7.5 30 -7.5 61v277h-84v70h84v107h80v-107h132v-70h-132v-275q0 -52 22.5 -74q22.5 -22 61.5 -22h48v-73l-48 0z" />
<glyph unicode="&#117;" horiz-adv-x="582" d="M499 0h-48l-29 68q-26 -31 -68.5 -55.5q-42.5 -24.5 -99.5 -24.5q-38 0 -70.5 12.5q-32.5 12.5 -56 37q-23.5 24.5 -36.5 60.5q-13 36 -13 83v333h80v-324q0 -67 32 -98q32 -31 80 -31q24 0 46 7.5q22 7.5 41 19q19 11.5 34.5 26q15.5 14.5 27.5 28.5l0 372l80 0z" />
<glyph unicode="&#118;" horiz-adv-x="505" d="M23 476v38h75l157 -406l154 406h73v-38l-192 -476l-75 0z" />
<glyph unicode="&#119;" horiz-adv-x="711" d="M494 108l96 406h72v-38l-119 -476h-78l-109 293l-110 -293h-79l-119 476v38h73l97 -406l109 309l58 0z" />
<glyph unicode="&#120;" horiz-adv-x="517" d="M308 259l167 -221v-38h-72l-146 198l-142 -198h-72v38l165 221l-163 217v38h73l141 -192l138 192h73l0 -38z" />
<glyph unicode="&#121;" horiz-adv-x="505" d="M159 -130l57 130l-193 476v38h75l157 -406l154 406h73v-38l-256 -636l-67 0z" />
<glyph unicode="&#122;" horiz-adv-x="520" d="M53 70l300 374h-288v70h385v-70l-302 -374h310v-70l-405 0z" />
<glyph unicode="&#123;" horiz-adv-x="327" d="M299 -160q-83 0 -131.5 46q-48.5 46 -48.5 134v169q0 42 -14.5 60.5q-14.5 18.5 -44.5 18.5h-27v74h27q32 0 45.5 20.5q13.5 20.5 13.5 58.5v157q0 88 48.5 134q48.5 46 131.5 46l0 -73q-48 0 -74 -28.5q-26 -28.5 -26 -74.5v-182q0 -42 -17.5 -64.5q-17.5 -22.5 -39.5 -30.5q22 -8 39.5 -30.5q17.5 -22.5 17.5 -64.5v-194q0 -46 26 -74.5q26 -28.5 74 -28.5l0 -73z" />
<glyph unicode="&#124;" horiz-adv-x="266" d="M93 758h80v-858l-80 0z" />
<glyph unicode="&#125;" horiz-adv-x="327" d="M28 -160q83 0 131.5 46q48.5 46 48.5 134v169q0 42 14.5 60.5q14.5 18.5 44.5 18.5h27v74h-27q-32 0 -45.5 20.5q-13.5 20.5 -13.5 58.5v157q0 88 -48.5 134q-48.5 46 -131.5 46l0 -73q48 0 74 -28.5q26 -28.5 26 -74.5v-182q0 -42 17.5 -64.5q17.5 -22.5 39.5 -30.5q-22 -8 -39.5 -30.5q-17.5 -22.5 -17.5 -64.5v-194q0 -46 -26 -74.5q-26 -28.5 -74 -28.5l0 -73z" />
<glyph unicode="&#126;" horiz-adv-x="479" d="M47 285q29 48 57 72.5q28 24.5 61 24.5q22 0 38 -7.5q16 -7.5 32 -18.5l21 -15q16 -11 28.5 -17q12.5 -6 26.5 -6q16 0 30 13q14 13 40 49l52 -37q-29 -49 -56.5 -74q-27.5 -25 -61.5 -25q-19 0 -34 6q-15 6 -30 16l-24 16q-17 11 -29.5 19q-12.5 8 -26.5 8q-19 0 -33.5 -13.5q-14.5 -13.5 -39.5 -48.5z" />
<glyph unicode="&#160;" horiz-adv-x="249" />
<glyph unicode="&#161;" horiz-adv-x="270" d="M95 298h80v-458h-80zM93 514h84v-123l-84 0z" />
<glyph unicode="&#162;" horiz-adv-x="536" d="M299 613q84 -7 132.5 -55.5q48.5 -48.5 48.5 -126.5v-6h-80v6q0 44 -27 73q-27 29 -76 35l0 -387q50 7 76.5 36q26.5 29 26.5 73v8h80v-6q0 -39 -13 -71.5q-13 -32.5 -36.5 -56.5q-23.5 -24 -57 -39q-33.5 -15 -74.5 -18l0 -78h-60v79q-85 8 -132 59q-47 51 -47 130v156q0 78 47 129q47 51 132 60l0 87h60zM140 266q0 -45 25 -75.5q25 -30.5 76 -37.5l0 386q-57 -10 -79 -45q-22 -35 -22 -88z" />
<glyph unicode="&#163;" horiz-adv-x="577" d="M43 73h74v247h-74v73h74v131q0 86 55 138.5q55 52.5 155 52.5q96 0 151.5 -50.5q55.5 -50.5 55.5 -140.5v-32h-80v32q0 54 -32.5 86q-32.5 32 -94.5 32q-65 0 -97.5 -32.5q-32.5 -32.5 -32.5 -83.5v-133h166v-73h-166v-247h337v-73l-491 0z" />
<glyph unicode="&#165;" horiz-adv-x="586" d="M252 111h-187v73h187v96h-187v73h144l-196 318v29h76l204 -341l204 341h75v-29l-197 -318h144v-73h-187v-96h187v-73h-187v-111l-80 0z" />
<glyph unicode="&#166;" horiz-adv-x="266" d="M93 244h80v-344h-80zM93 758h80v-323l-80 0z" />
<glyph unicode="&#167;" horiz-adv-x="574" d="M290 -172q-48 0 -91 12q-43 12 -75.5 37q-32.5 25 -51.5 62.5q-19 37.5 -19 88.5l77 0q0 -36 14.5 -60.5q14.5 -24.5 38 -39q23.5 -14.5 53.5 -21q30 -6.5 60 -6.5q58 0 94 22.5q36 22.5 36 69.5q0 18 -8.5 31.5q-8.5 13.5 -22.5 23.5q-14 10 -33 18q-19 8 -41 16l-64 23q-44 16 -79 33q-35 17 -59 38q-24 21 -37 47q-13 26 -13 61q0 44 19.5 81.5q19.5 37.5 46.5 66.5q-30 22 -45.5 47.5q-15.5 25.5 -15.5 68.5q0 34 14 63q14 29 41 50.5q27 21.5 66 33.5q39 12 88 12q47 0 88.5 -11q41.5 -11 72 -34.5q30.5 -23.5 48 -60.5q17.5 -37 17.5 -88l-77 0q0 34 -13.5 57q-13.5 23 -35 37q-21.5 14 -49 20.5q-27.5 6.5 -54.5 6.5q-55 0 -90.5 -22q-35.5 -22 -35.5 -65q0 -20 8.5 -34q8.5 -14 23 -24.5q14.5 -10.5 34 -18.5q19.5 -8 42.5 -16l64 -24q44 -17 79 -33.5q35 -16.5 59 -37q24 -20.5 37 -46q13 -25.5 13 -59.5q0 -44 -22 -81.5q-22 -37.5 -48 -66.5q31 -23 48 -48.5q17 -25.5 17 -69.5q0 -33 -14.5 -62q-14.5 -29 -42.5 -51q-28 -22 -69 -34.5q-41 -12.5 -93 -12.5zt0 0zM386 136q23 27 36.5 55q13.5 28 13.5 53q0 22 -11 39.5q-11 17.5 -29.5 31.5q-18.5 14 -42 25q-23.5 11 -48.5 20l-111 42q-45 -56 -45 -108q0 -23 11 -40q11 -17 28.5 -31q17.5 -14 40 -24.5q22.5 -10.5 45.5 -19.5z" />
<glyph unicode="&#168;" horiz-adv-x="376" d="M54 705h80v-110h-80zM243 705h80v-110l-80 0z" />
<glyph unicode="&#169;" horiz-adv-x="866" d="M433 140q-85 0 -129.5 44q-44.5 44 -44.5 119v95q0 75 44.5 119q44.5 44 129.5 44q35 0 65.5 -9.5q30.5 -9.5 53 -28.5q22.5 -19 35 -48q12.5 -29 12.5 -67v-3h-64v3q0 24 -8.5 41.5q-8.5 17.5 -22.5 29.5q-14 12 -32.5 18q-18.5 6 -39.5 6q-54 0 -81.5 -27q-27.5 -27 -27.5 -73v-104q0 -46 27.5 -73.5q27.5 -27.5 81.5 -27.5q21 0 39.5 6q18.5 6 32.5 18q14 12 22.5 30q8.5 18 8.5 42v2h64v-2q0 -38 -12.5 -67q-12.5 -29 -35 -48.5q-22.5 -19.5 -53 -29q-30.5 -9.5 -65.5 -9.5zt0 0zM433 -15q-76 0 -142 28q-66 28 -114.5 77q-48.5 49 -76 116q-27.5 67 -27.5 144q0 77 27.5 144q27.5 67 76 116q48.5 49 114.5 77q66 28 142 28q76 0 142 -28q66 -28 114.5 -77q48.5 -49 76 -116q27.5 -67 27.5 -144q0 -77 -27.5 -144q-27.5 -67 -76 -116q-48.5 -49 -114.5 -77q-66 -28 -142 -28zt0 0zM433 41q63 0 118 23.5q55 23.5 95.5 65q40.5 41.5 64 98q23.5 56.5 23.5 122.5q0 66 -23.5 122.5q-23.5 56.5 -64 98q-40.5 41.5 -95.5 65q-55 23.5 -118 23.5q-64 0 -119 -23.5q-55 -23.5 -95.5 -65q-40.5 -41.5 -63.5 -98q-23 -56.5 -23 -122.5q0 -66 23 -122.5q23 -56.5 63.5 -98q40.5 -41.5 95.5 -65t119 -23.5z" />
<glyph unicode="&#170;" horiz-adv-x="435" d="M176 353q-25 0 -46.5 6q-21.5 6 -38 18q-16.5 12 -26 31q-9.5 19 -9.5 45q0 52 35 79q35 27 113 27h81v28q0 26 -16.5 40.5q-16.5 14.5 -51.5 14.5q-34 0 -50.5 -15.5q-16.5 -15.5 -16.5 -41.5l-77 0q0 52 34.5 86q34.5 34 108.5 34q75 0 109.5 -31.5q34.5 -31.5 34.5 -81.5v-234h-46l-18 40q-18 -16 -48.5 -30.5q-30.5 -14.5 -71.5 -14.5zt0 0zM192 416q29 0 54 13q25 13 39 27l0 52h-75q-41 0 -59.5 -13q-18.5 -13 -18.5 -35q0 -24 17 -34t43 -10z" />
<glyph unicode="&#171;" horiz-adv-x="532" d="M38 272l156 208h70v-27l-137 -181l137 -182v-27h-70zM244 272l156 208h70v-27l-137 -181l137 -182v-27l-70 0z" />
<glyph unicode="&#172;" horiz-adv-x="541" d="M412 388h-355v67h427v-255l-72 0z" />
<glyph unicode="&#173;" horiz-adv-x="438" d="M63 350h313v-74l-313 0z" />
<glyph unicode="&#174;" horiz-adv-x="408" d="M136 632h79q29 0 45.5 -14q16.5 -14 16.5 -40q0 -23 -11.5 -36.5q-11.5 -13.5 -30.5 -18.5l42 -56v-12h-28l-47 64h-36v-64h-30zM215 546q14 0 23.5 7.5q9.5 7.5 9.5 21.5q0 14 -9.5 21q-9.5 7 -23.5 7h-49v-57zM204 371q-35 0 -65.5 13q-30.5 13 -53 36q-22.5 23 -35.5 54.5q-13 31.5 -13 68.5q0 37 13 68.5q13 31.5 35.5 54.5q22.5 23 53 36q30.5 13 65.5 13q35 0 65.5 -13q30.5 -13 53 -36q22.5 -23 35.5 -54.5q13 -31.5 13 -68.5q0 -37 -13 -68.5q-13 -31.5 -35.5 -54.5q-22.5 -23 -53 -36q-30.5 -13 -65.5 -13zt0 0zM204 400q28 0 53 11q25 11 43.5 30q18.5 19 29 45.5q10.5 26.5 10.5 56.5q0 30 -10.5 56.5q-10.5 26.5 -29 45.5q-18.5 19 -43.5 30q-25 11 -53 11q-29 0 -53.5 -11q-24.5 -11 -43 -30q-18.5 -19 -29 -45.5q-10.5 -26.5 -10.5 -56.5q0 -30 10.5 -56.5q10.5 -26.5 29 -45.5q18.5 -19 43 -30t53.5 -11z" />
<glyph unicode="&#175;" horiz-adv-x="435" d="M75 683h285v-66l-285 0z" />
<glyph unicode="&#176;" horiz-adv-x="387" d="M193 418q40 0 60 23q20 23 20 55v81q0 33 -20 55.5q-20 22.5 -60 22.5q-39 0 -59 -22.5q-20 -22.5 -20 -55.5v-81q0 -33 20 -55.5q20 -22.5 59 -22.5zt0 0zM193 358q-72 0 -111 39q-39 39 -39 108v63q0 69 39 108q39 39 111 39q72 0 111.5 -39q39.5 -39 39.5 -108v-63q0 -69 -39.5 -108t-111.5 -39z" />
<glyph unicode="&#177;" horiz-adv-x="541" d="M234 330h-177v67h177v170h73v-170h177v-67h-177v-175h-73zM57 79h427v-68l-427 0z" />
<glyph unicode="&#178;" horiz-adv-x="315" d="M38 419l105 86q26 22 41.5 38.5q15.5 16.5 15.5 40.5q0 23 -13.5 36.5q-13.5 13.5 -35.5 13.5q-23 0 -37.5 -14.5q-14.5 -14.5 -14.5 -42.5l-66 0q0 63 35 95.5q35 32.5 87 32.5q53 0 84.5 -31q31.5 -31 31.5 -80q0 -24 -6.5 -42.5q-6.5 -18.5 -17 -33.5q-10.5 -15 -24.5 -28q-14 -13 -30 -26l-53 -42h135v-64l-237 0z" />
<glyph unicode="&#179;" horiz-adv-x="327" d="M164 353q-59 0 -94.5 32.5q-35.5 32.5 -36.5 84.5l64 0q1 -24 18.5 -38.5q17.5 -14.5 47.5 -14.5q30 0 44 12.5q14 12.5 14 31.5q0 19 -15 30.5q-15 11.5 -40 11.5h-39v55h39q23 0 34.5 13q11.5 13 11.5 29q0 16 -13.5 28.5q-13.5 12.5 -40.5 12.5q-26 0 -42 -14.5q-16 -14.5 -16 -41.5l-62 0q0 57 33.5 88.5q33.5 31.5 88.5 31.5q57 0 87.5 -28q30.5 -28 30.5 -67q0 -27 -12 -45q-12 -18 -32 -27q23 -8 39 -28q16 -20 16 -50q0 -48 -32.5 -77.5t-92.5 -29.5z" />
<glyph unicode="&#180;" horiz-adv-x="292" d="M132 590h-71l95 140h76l0 -28z" />
<glyph unicode="&#181;" horiz-adv-x="587" d="M504 0h-48l-29 68q-26 -31 -63.5 -55.5q-37.5 -24.5 -94.5 -24.5q-27 0 -57.5 14q-30.5 14 -48.5 46l0 -208h-80v674h80v-324q0 -67 32 -98q32 -31 80 -31q24 0 46 7.5q22 7.5 41 19q19 11.5 34.5 26q15.5 14.5 27.5 28.5l0 372l80 0z" />
<glyph unicode="&#182;" horiz-adv-x="598" d="M218 368q-81 0 -128 42q-47 42 -47 120v8q0 80 47 121q47 41 128 41h286v-787h-76v714h-134v-714l-76 0z" />
<glyph unicode="&#183;" horiz-adv-x="243" d="M75 382h94v-132l-94 0z" />
<glyph unicode="&#184;" horiz-adv-x="293" d="M164 0h71l-91 -160h-76l0 28z" />
<glyph unicode="&#185;" horiz-adv-x="242" d="M91 605h-61v38l91 57h45v-342l-75 0z" />
<glyph unicode="&#186;" horiz-adv-x="406" d="M203 420q41 0 62 24q21 24 21 58v54q0 35 -21 58.5q-21 23.5 -62 23.5q-41 0 -62 -23.5q-21 -23.5 -21 -58.5v-54q0 -35 21 -58.5q21 -23.5 62 -23.5zt0 0zM203 353q-34 0 -63 9.5q-29 9.5 -50 28q-21 18.5 -33 46.5q-12 28 -12 65v54q0 37 12 64.5q12 27.5 33 46.5q21 19 50 28.5q29 9.5 63 9.5q69 0 113.5 -37.5q44.5 -37.5 44.5 -111.5v-54q0 -74 -44.5 -111.5t-113.5 -37.5z" />
<glyph unicode="&#187;" horiz-adv-x="532" d="M288 272l-156 208h-70v-27l137 -181l-137 -182v-27h70zM494 272l-156 208h-70v-27l137 -181l-137 -182v-27l70 0z" />
<glyph unicode="&#188;" horiz-adv-x="694" d="M79 29l399 671h64v-29l-399 -671h-64zM91 605h-61v38l91 57h45v-342h-75zM553 342v-36l-103 -177h97v71h75v-71h52v-64h-52v-65h-75v65h-181v53l132 224z" />
<glyph unicode="&#189;" horiz-adv-x="705" d="M79 29l399 671h64v-29l-399 -671h-64zM91 605h-61v38l91 57h45v-342h-75zM428 61l105 86q26 22 41.5 38.5q15.5 16.5 15.5 40.5q0 23 -13.5 36.5q-13.5 13.5 -35.5 13.5q-23 0 -37.5 -14.5q-14.5 -14.5 -14.5 -42.5l-66 0q0 63 35 95.5q35 32.5 87 32.5q53 0 84.5 -31q31.5 -31 31.5 -80q0 -24 -6.5 -42.5q-6.5 -18.5 -17 -33.5q-10.5 -15 -24.5 -28q-14 -13 -30 -26l-53 -42h135v-64l-237 0z" />
<glyph unicode="&#190;" horiz-adv-x="764" d="M150 29l399 671h64v-29l-399 -671h-64zM624 342v-36l-103 -177h97v71h75v-71h52v-64h-52v-65h-75v65h-181v53l132 224zM164 353q-59 0 -94.5 32.5q-35.5 32.5 -36.5 84.5l64 0q1 -24 18.5 -38.5q17.5 -14.5 47.5 -14.5q30 0 44 12.5q14 12.5 14 31.5q0 19 -15 30.5q-15 11.5 -40 11.5h-39v55h39q23 0 34.5 13q11.5 13 11.5 29q0 16 -13.5 28.5q-13.5 12.5 -40.5 12.5q-26 0 -42 -14.5q-16 -14.5 -16 -41.5l-62 0q0 57 33.5 88.5q33.5 31.5 88.5 31.5q57 0 87.5 -28q30.5 -28 30.5 -67q0 -27 -12 -45q-12 -18 -32 -27q23 -8 39 -28q16 -20 16 -50q0 -48 -32.5 -77.5t-92.5 -29.5z" />
<glyph unicode="&#191;" horiz-adv-x="513" d="M298 201l-80 -49q-23 -14 -41.5 -27q-18.5 -13 -32 -29q-13.5 -16 -21 -36.5q-7.5 -20.5 -7.5 -48.5q0 -21 8 -41q8 -20 24 -35q16 -15 41 -24.5q25 -9.5 59 -9.5q67 0 107.5 38.5q40.5 38.5 40.5 111.5l77 0q0 -55 -17.5 -97q-17.5 -42 -47.5 -70q-30 -28 -71 -42q-41 -14 -89 -14q-54 0 -93.5 15q-39.5 15 -66 40q-26.5 25 -39.5 58.5q-13 33.5 -13 69.5q0 39 13 68.5q13 29.5 33 52q20 22.5 44 39.5q24 17 45 30l47 29v68h80zM300 391h-85v123l85 0z" />
<glyph unicode="&#192;" horiz-adv-x="656" d="M23 29l261 671h87l262 -671v-29h-86l-70 186h-302l-72 -186h-80zM450 260l-124 324l-125 -324zM183 883v30h82l102 -151l-76 0z" />
<glyph unicode="&#193;" horiz-adv-x="656" d="M23 29l261 671h87l262 -671v-29h-86l-70 186h-302l-72 -186h-80zM450 260l-124 324l-125 -324zM374 762h-77l102 151h82l0 -30z" />
<glyph unicode="&#194;" horiz-adv-x="656" d="M23 29l261 671h87l262 -671v-29h-86l-70 186h-302l-72 -186h-80zM450 260l-124 324l-125 -324zM475 791v-29h-71l-78 91l-77 -91h-70v29l111 122l74 0z" />
<glyph unicode="&#195;" horiz-adv-x="656" d="M23 29l261 671h87l262 -671v-29h-86l-70 186h-302l-72 -186h-80zM450 260l-124 324l-125 -324zM145 796q27 46 52.5 71q25.5 25 57.5 25q20 0 37 -8q17 -8 32 -18l21 -13q14 -11 27 -17q13 -6 26 -6q15 0 28 12.5q13 12.5 37 46.5l49 -33q-26 -47 -52 -71.5q-26 -24.5 -59 -24.5q-19 0 -35 6q-16 6 -30 17l-20 13q-15 10 -28.5 18q-13.5 8 -27.5 8q-16 0 -29 -13q-13 -13 -37 -46z" />
<glyph unicode="&#196;" horiz-adv-x="656" d="M23 29l261 671h87l262 -671v-29h-86l-70 186h-302l-72 -186h-80zM450 260l-124 324l-125 -324zM183 886h86v-118h-86zM385 886h86v-118l-86 0z" />
<glyph unicode="&#197;" horiz-adv-x="656" d="M23 29l261 671h87l262 -671v-29h-86l-70 186h-302l-72 -186h-80zM450 260l-124 324l-125 -324zM218 846q0 22 8.5 41.5q8.5 19.5 23.5 34q15 14.5 34.5 22.5q19.5 8 41.5 8q23 0 42.5 -8q19.5 -8 34.5 -22.5q15 -14.5 23.5 -34q8.5 -19.5 8.5 -41.5q0 -22 -8.5 -40.5q-8.5 -18.5 -23.5 -33q-15 -14.5 -34.5 -22.5q-19.5 -8 -42.5 -8q-22 0 -41.5 8q-19.5 8 -34.5 22.5q-15 14.5 -23.5 33q-8.5 18.5 -8.5 40.5zt0 0zM270 846q0 -22 17 -38q17 -16 39 -16q24 0 40.5 16q16.5 16 16.5 38q0 23 -16.5 39q-16.5 16 -40.5 16q-22 0 -39 -16t-17 -39z" />
<glyph unicode="&#198;" horiz-adv-x="972" d="M13 29l422 671h482v-77h-349v-234h302v-74h-302v-238h350v-77h-437v186h-272l-118 -186h-78zM481 260v359l-226 -359z" />
<glyph unicode="&#199;" horiz-adv-x="659" d="M297 -12q-108 11 -166 75.5q-58 64.5 -58 173.5v226q0 120 70 186q70 66 198 66q51 0 97 -14.5q46 -14.5 81 -43.5q35 -29 56 -74q21 -45 21 -106v-10h-87v10q0 41 -15 70.5q-15 29.5 -39 49q-24 19.5 -54.5 29q-30.5 9.5 -60.5 9.5q-89 0 -134.5 -44q-45.5 -44 -45.5 -122v-238q0 -78 45.5 -122q45.5 -44 134.5 -44q30 0 60.5 9.5q30.5 9.5 54.5 29q24 19.5 39 49q15 29.5 15 70.5v10h87v-10q0 -57 -18 -100q-18 -43 -49.5 -72q-31.5 -29 -73 -45q-41.5 -16 -87.5 -20l-83 -146h-76l0 28z" />
<glyph unicode="&#200;" horiz-adv-x="584" d="M93 700h436v-77h-349v-232h302v-77h-302v-237h350v-77h-437zM193 883v30h82l102 -151l-76 0z" />
<glyph unicode="&#201;" horiz-adv-x="584" d="M93 700h436v-77h-349v-232h302v-77h-302v-237h350v-77h-437zM323 762h-77l102 151h82l0 -30z" />
<glyph unicode="&#202;" horiz-adv-x="584" d="M93 700h436v-77h-349v-232h302v-77h-302v-237h350v-77h-437zM462 791v-29h-71l-78 91l-77 -91h-70v29l111 122l74 0z" />
<glyph unicode="&#203;" horiz-adv-x="584" d="M93 700h436v-77h-349v-232h302v-77h-302v-237h350v-77h-437zM166 886h86v-118h-86zM368 886h86v-118l-86 0z" />
<glyph unicode="&#204;" horiz-adv-x="273" d="M93 700h87v-700h-87zM-5 883v30h82l102 -151l-76 0z" />
<glyph unicode="&#205;" horiz-adv-x="273" d="M93 700h87v-700h-87zM178 762h-77l102 151h82l0 -30z" />
<glyph unicode="&#206;" horiz-adv-x="273" d="M93 700h87v-700h-87zM285 791v-29h-71l-78 91l-77 -91h-70v29l111 122l74 0z" />
<glyph unicode="&#207;" horiz-adv-x="273" d="M93 700h87v-700h-87zM-7 887h86v-119h-86zM196 887h86v-119l-86 0z" />
<glyph unicode="&#208;" horiz-adv-x="702" d="M360 77q88 0 135 45.5q47 45.5 47 119.5v216q0 74 -47 119.5q-47 45.5 -135 45.5h-157v-235h173v-74h-173v-237zM116 314h-96v74h96v312h244q61 0 111 -16q50 -16 85 -47.5q35 -31.5 54 -77q19 -45.5 19 -103.5v-212q0 -59 -19 -104q-19 -45 -54 -76.5q-35 -31.5 -85 -47.5q-50 -16 -111 -16l-244 0z" />
<glyph unicode="&#209;" horiz-adv-x="701" d="M93 700h80l348 -539v539h87v-700h-80l-348 538v-538h-87zM170 796q27 46 52.5 71q25.5 25 57.5 25q20 0 37 -8q17 -8 32 -18l21 -13q14 -11 27 -17q13 -6 26 -6q15 0 28 12.5q13 12.5 37 46.5l49 -33q-26 -47 -52 -71.5q-26 -24.5 -59 -24.5q-19 0 -35 6q-16 6 -30 17l-20 13q-15 10 -28.5 18q-13.5 8 -27.5 8q-16 0 -29 -13q-13 -13 -37 -46z" />
<glyph unicode="&#210;" horiz-adv-x="684" d="M342 65q88 0 135 46.5q47 46.5 47 120.5v236q0 74 -47 120.5q-47 46.5 -135 46.5q-89 0 -135.5 -46.5q-46.5 -46.5 -46.5 -120.5v-236q0 -74 46.5 -120.5q46.5 -46.5 135.5 -46.5zt0 0zM342 -15q-62 0 -111.5 17q-49.5 17 -84.5 49q-35 32 -54 78.5q-19 46.5 -19 106.5v228q0 60 19 106.5q19 46.5 54 78.5q35 32 84.5 49q49.5 17 111.5 17q61 0 111 -17q50 -17 85 -49q35 -32 54 -78.5q19 -46.5 19 -106.5v-228q0 -60 -19 -106.5q-19 -46.5 -54 -78.5q-35 -32 -85 -49q-50 -17 -111 -17zt0 0zM214 883v30h82l102 -151l-76 0z" />
<glyph unicode="&#211;" horiz-adv-x="684" d="M342 65q88 0 135 46.5q47 46.5 47 120.5v236q0 74 -47 120.5q-47 46.5 -135 46.5q-89 0 -135.5 -46.5q-46.5 -46.5 -46.5 -120.5v-236q0 -74 46.5 -120.5q46.5 -46.5 135.5 -46.5zt0 0zM342 -15q-62 0 -111.5 17q-49.5 17 -84.5 49q-35 32 -54 78.5q-19 46.5 -19 106.5v228q0 60 19 106.5q19 46.5 54 78.5q35 32 84.5 49q49.5 17 111.5 17q61 0 111 -17q50 -17 85 -49q35 -32 54 -78.5q19 -46.5 19 -106.5v-228q0 -60 -19 -106.5q-19 -46.5 -54 -78.5q-35 -32 -85 -49q-50 -17 -111 -17zt0 0zM381 762h-77l102 151h82l0 -30z" />
<glyph unicode="&#212;" horiz-adv-x="684" d="M342 65q88 0 135 46.5q47 46.5 47 120.5v236q0 74 -47 120.5q-47 46.5 -135 46.5q-89 0 -135.5 -46.5q-46.5 -46.5 -46.5 -120.5v-236q0 -74 46.5 -120.5q46.5 -46.5 135.5 -46.5zt0 0zM342 -15q-62 0 -111.5 17q-49.5 17 -84.5 49q-35 32 -54 78.5q-19 46.5 -19 106.5v228q0 60 19 106.5q19 46.5 54 78.5q35 32 84.5 49q49.5 17 111.5 17q61 0 111 -17q50 -17 85 -49q35 -32 54 -78.5q19 -46.5 19 -106.5v-228q0 -60 -19 -106.5q-19 -46.5 -54 -78.5q-35 -32 -85 -49q-50 -17 -111 -17zt0 0zM490 791v-29h-71l-78 91l-77 -91h-70v29l111 122l74 0z" />
<glyph unicode="&#213;" horiz-adv-x="684" d="M342 65q88 0 135 46.5q47 46.5 47 120.5v236q0 74 -47 120.5q-47 46.5 -135 46.5q-89 0 -135.5 -46.5q-46.5 -46.5 -46.5 -120.5v-236q0 -74 46.5 -120.5q46.5 -46.5 135.5 -46.5zt0 0zM342 -15q-62 0 -111.5 17q-49.5 17 -84.5 49q-35 32 -54 78.5q-19 46.5 -19 106.5v228q0 60 19 106.5q19 46.5 54 78.5q35 32 84.5 49q49.5 17 111.5 17q61 0 111 -17q50 -17 85 -49q35 -32 54 -78.5q19 -46.5 19 -106.5v-228q0 -60 -19 -106.5q-19 -46.5 -54 -78.5q-35 -32 -85 -49q-50 -17 -111 -17zt0 0zM164 796q27 46 52.5 71q25.5 25 57.5 25q20 0 37 -8q17 -8 32 -18l21 -13q14 -11 27 -17q13 -6 26 -6q15 0 28 12.5q13 12.5 37 46.5l49 -33q-26 -47 -52 -71.5q-26 -24.5 -59 -24.5q-19 0 -35 6q-16 6 -30 17l-20 13q-15 10 -28.5 18q-13.5 8 -27.5 8q-16 0 -29 -13q-13 -13 -37 -46z" />
<glyph unicode="&#214;" horiz-adv-x="684" d="M342 65q88 0 135 46.5q47 46.5 47 120.5v236q0 74 -47 120.5q-47 46.5 -135 46.5q-89 0 -135.5 -46.5q-46.5 -46.5 -46.5 -120.5v-236q0 -74 46.5 -120.5q46.5 -46.5 135.5 -46.5zt0 0zM342 -15q-62 0 -111.5 17q-49.5 17 -84.5 49q-35 32 -54 78.5q-19 46.5 -19 106.5v228q0 60 19 106.5q19 46.5 54 78.5q35 32 84.5 49q49.5 17 111.5 17q61 0 111 -17q50 -17 85 -49q35 -32 54 -78.5q19 -46.5 19 -106.5v-228q0 -60 -19 -106.5q-19 -46.5 -54 -78.5q-35 -32 -85 -49q-50 -17 -111 -17zt0 0zM199 886h86v-118h-86zM401 886h86v-118l-86 0z" />
<glyph unicode="&#215;" horiz-adv-x="518" d="M57 160l150 151l-150 150l52 52l150 -150l150 150l52 -52l-151 -150l151 -151l-52 -51l-150 150l-150 -150z" />
<glyph unicode="&#216;" horiz-adv-x="683" d="M342 -15q-44 0 -81 9l-32 -94h-65v29l31 88q-58 30 -90 85.5q-32 55.5 -32 133.5v228q0 60 19 106.5q19 46.5 54 78.5q35 32 84.5 49q49.5 17 111.5 17q25 0 48 -3.5q23 -3.5 45 -8.5l33 97h65v-29l-33 -95q53 -31 81.5 -84.5q28.5 -53.5 28.5 -127.5v-228q0 -60 -19 -106.5q-19 -46.5 -53.5 -78.5q-34.5 -32 -84.5 -49q-50 -17 -111 -17zt0 0zM160 232q0 -90 65 -134l184 527q-14 5 -31 7.5q-17 2.5 -36 2.5q-89 0 -135.5 -46.5q-46.5 -46.5 -46.5 -120.5zM342 65q88 0 135 46.5q47 46.5 47 120.5v236q0 80 -55 126l-182 -523q24 -6 55 -6z" />
<glyph unicode="&#217;" horiz-adv-x="681" d="M341 -15q-57 0 -104 16q-47 16 -81.5 46.5q-34.5 30.5 -53.5 76q-19 45.5 -19 104.5v472h87v-475q0 -73 45 -116.5q45 -43.5 126 -43.5q81 0 125.5 43q44.5 43 44.5 117v475h87v-472q0 -59 -19 -104q-19 -45 -53 -76q-34 -31 -81.5 -47q-47.5 -16 -103.5 -16zt0 0zM218 883v30h82l102 -151l-76 0z" />
<glyph unicode="&#218;" horiz-adv-x="681" d="M341 -15q-57 0 -104 16q-47 16 -81.5 46.5q-34.5 30.5 -53.5 76q-19 45.5 -19 104.5v472h87v-475q0 -73 45 -116.5q45 -43.5 126 -43.5q81 0 125.5 43q44.5 43 44.5 117v475h87v-472q0 -59 -19 -104q-19 -45 -53 -76q-34 -31 -81.5 -47q-47.5 -16 -103.5 -16zt0 0zM371 762h-77l102 151h82l0 -30z" />
<glyph unicode="&#219;" horiz-adv-x="681" d="M341 -15q-57 0 -104 16q-47 16 -81.5 46.5q-34.5 30.5 -53.5 76q-19 45.5 -19 104.5v472h87v-475q0 -73 45 -116.5q45 -43.5 126 -43.5q81 0 125.5 43q44.5 43 44.5 117v475h87v-472q0 -59 -19 -104q-19 -45 -53 -76q-34 -31 -81.5 -47q-47.5 -16 -103.5 -16zt0 0zM489 791v-29h-71l-78 91l-77 -91h-70v29l111 122l74 0z" />
<glyph unicode="&#220;" horiz-adv-x="681" d="M341 -15q-57 0 -104 16q-47 16 -81.5 46.5q-34.5 30.5 -53.5 76q-19 45.5 -19 104.5v472h87v-475q0 -73 45 -116.5q45 -43.5 126 -43.5q81 0 125.5 43q44.5 43 44.5 117v475h87v-472q0 -59 -19 -104q-19 -45 -53 -76q-34 -31 -81.5 -47q-47.5 -16 -103.5 -16zt0 0zM197 886h86v-118h-86zM399 886h86v-118l-86 0z" />
<glyph unicode="&#221;" horiz-adv-x="609" d="M261 278l-248 393v29h86l206 -335l211 335h79v-29l-247 -390v-281h-87zM334 762h-77l102 151h82l0 -30z" />
<glyph unicode="&#222;" horiz-adv-x="627" d="M93 700h87v-137h206q91 0 142 -57q51 -57 51 -154q0 -96 -51 -153q-51 -57 -142 -57h-206v-142h-87zM371 219q53 0 86 34q33 34 33 99q0 66 -33 100.5q-33 34.5 -86 34.5h-191l0 -268z" />
<glyph unicode="&#223;" horiz-adv-x="591" d="M83 467q0 115 57 177.5q57 62.5 159 62.5q49 0 87.5 -14q38.5 -14 64.5 -38q26 -24 39.5 -56.5q13.5 -32.5 13.5 -68.5q0 -110 -89 -145q24 -7 46.5 -22.5q22.5 -15.5 39.5 -38.5q17 -23 27 -52.5q10 -29.5 10 -63.5q0 -100 -60 -154q-60 -54 -163 -54q-23 0 -41.5 2q-18.5 2 -25.5 4l0 71q8 -1 19 -2q8 -1 19.5 -1.5q11.5 -0.5 22.5 -0.5q76 0 112.5 38.5q36.5 38.5 36.5 100.5q0 64 -39 100q-39 36 -108 36h-53v70h46q60 0 88 28.5q28 28.5 28 78.5q0 45 -29.5 77q-29.5 32 -90.5 32q-66 0 -101.5 -40.5q-35.5 -40.5 -35.5 -118.5v-475l-80 0z" />
<glyph unicode="&#224;" horiz-adv-x="547" d="M218 -12q-34 0 -65 9q-31 9 -54 27.5q-23 18.5 -37 46.5q-14 28 -14 66q0 79 53.5 121.5q53.5 42.5 159.5 42.5h129v51q0 45 -29 73q-29 28 -90 28q-60 0 -89 -27q-29 -27 -29 -68l-78 0q0 36 12 66.5q12 30.5 36 53q24 22.5 61 35.5q37 13 87 13q50 0 87.5 -13q37.5 -13 62 -35.5q24.5 -22.5 37 -53.5q12.5 -31 12.5 -67v-357h-48l-30 65q-12 -13 -29 -26.5q-17 -13.5 -39.5 -25q-22.5 -11.5 -49 -18.5q-26.5 -7 -56.5 -7zt0 0zM234 61q25 0 48 6.5q23 6.5 43 17q20 10.5 36.5 23.5q16.5 13 28.5 25l0 103h-129q-72 0 -102.5 -25q-30.5 -25 -30.5 -65q0 -45 30.5 -65q30.5 -20 75.5 -20zt0 0zM176 702v28h76l95 -140l-71 0z" />
<glyph unicode="&#225;" horiz-adv-x="547" d="M218 -12q-34 0 -65 9q-31 9 -54 27.5q-23 18.5 -37 46.5q-14 28 -14 66q0 79 53.5 121.5q53.5 42.5 159.5 42.5h129v51q0 45 -29 73q-29 28 -90 28q-60 0 -89 -27q-29 -27 -29 -68l-78 0q0 36 12 66.5q12 30.5 36 53q24 22.5 61 35.5q37 13 87 13q50 0 87.5 -13q37.5 -13 62 -35.5q24.5 -22.5 37 -53.5q12.5 -31 12.5 -67v-357h-48l-30 65q-12 -13 -29 -26.5q-17 -13.5 -39.5 -25q-22.5 -11.5 -49 -18.5q-26.5 -7 -56.5 -7zt0 0zM234 61q25 0 48 6.5q23 6.5 43 17q20 10.5 36.5 23.5q16.5 13 28.5 25l0 103h-129q-72 0 -102.5 -25q-30.5 -25 -30.5 -65q0 -45 30.5 -65q30.5 -20 75.5 -20zt0 0zM297 590h-71l95 140h76l0 -28z" />
<glyph unicode="&#226;" horiz-adv-x="547" d="M218 -12q-34 0 -65 9q-31 9 -54 27.5q-23 18.5 -37 46.5q-14 28 -14 66q0 79 53.5 121.5q53.5 42.5 159.5 42.5h129v51q0 45 -29 73q-29 28 -90 28q-60 0 -89 -27q-29 -27 -29 -68l-78 0q0 36 12 66.5q12 30.5 36 53q24 22.5 61 35.5q37 13 87 13q50 0 87.5 -13q37.5 -13 62 -35.5q24.5 -22.5 37 -53.5q12.5 -31 12.5 -67v-357h-48l-30 65q-12 -13 -29 -26.5q-17 -13.5 -39.5 -25q-22.5 -11.5 -49 -18.5q-26.5 -7 -56.5 -7zt0 0zM234 61q25 0 48 6.5q23 6.5 43 17q20 10.5 36.5 23.5q16.5 13 28.5 25l0 103h-129q-72 0 -102.5 -25q-30.5 -25 -30.5 -65q0 -45 30.5 -65q30.5 -20 75.5 -20zt0 0zM414 617v-27h-67l-72 84l-72 -84h-66v27l104 113l69 0z" />
<glyph unicode="&#227;" horiz-adv-x="547" d="M218 -12q-34 0 -65 9q-31 9 -54 27.5q-23 18.5 -37 46.5q-14 28 -14 66q0 79 53.5 121.5q53.5 42.5 159.5 42.5h129v51q0 45 -29 73q-29 28 -90 28q-60 0 -89 -27q-29 -27 -29 -68l-78 0q0 36 12 66.5q12 30.5 36 53q24 22.5 61 35.5q37 13 87 13q50 0 87.5 -13q37.5 -13 62 -35.5q24.5 -22.5 37 -53.5q12.5 -31 12.5 -67v-357h-48l-30 65q-12 -13 -29 -26.5q-17 -13.5 -39.5 -25q-22.5 -11.5 -49 -18.5q-26.5 -7 -56.5 -7zt0 0zM234 61q25 0 48 6.5q23 6.5 43 17q20 10.5 36.5 23.5q16.5 13 28.5 25l0 103h-129q-72 0 -102.5 -25q-30.5 -25 -30.5 -65q0 -45 30.5 -65q30.5 -20 75.5 -20zt0 0zM107 634q27 45 51.5 69q24.5 24 55.5 24q20 0 36.5 -7.5q16.5 -7.5 31.5 -17.5l20 -13q14 -10 26.5 -16q12.5 -6 25.5 -6q14 0 27 12q13 12 36 45l48 -32q-26 -45 -51 -69q-25 -24 -57 -24q-19 0 -34.5 6q-15.5 6 -29.5 16l-19 13q-15 10 -28 17.5q-13 7.5 -27 7.5q-15 0 -28 -12.5q-13 -12.5 -36 -44.5z" />
<glyph unicode="&#228;" horiz-adv-x="547" d="M218 -12q-34 0 -65 9q-31 9 -54 27.5q-23 18.5 -37 46.5q-14 28 -14 66q0 79 53.5 121.5q53.5 42.5 159.5 42.5h129v51q0 45 -29 73q-29 28 -90 28q-60 0 -89 -27q-29 -27 -29 -68l-78 0q0 36 12 66.5q12 30.5 36 53q24 22.5 61 35.5q37 13 87 13q50 0 87.5 -13q37.5 -13 62 -35.5q24.5 -22.5 37 -53.5q12.5 -31 12.5 -67v-357h-48l-30 65q-12 -13 -29 -26.5q-17 -13.5 -39.5 -25q-22.5 -11.5 -49 -18.5q-26.5 -7 -56.5 -7zt0 0zM234 61q25 0 48 6.5q23 6.5 43 17q20 10.5 36.5 23.5q16.5 13 28.5 25l0 103h-129q-72 0 -102.5 -25q-30.5 -25 -30.5 -65q0 -45 30.5 -65q30.5 -20 75.5 -20zt0 0zM136 705h80v-110h-80zM325 705h80v-110l-80 0z" />
<glyph unicode="&#229;" horiz-adv-x="547" d="M218 -12q-34 0 -65 9q-31 9 -54 27.5q-23 18.5 -37 46.5q-14 28 -14 66q0 79 53.5 121.5q53.5 42.5 159.5 42.5h129v51q0 45 -29 73q-29 28 -90 28q-60 0 -89 -27q-29 -27 -29 -68l-78 0q0 36 12 66.5q12 30.5 36 53q24 22.5 61 35.5q37 13 87 13q50 0 87.5 -13q37.5 -13 62 -35.5q24.5 -22.5 37 -53.5q12.5 -31 12.5 -67v-357h-48l-30 65q-12 -13 -29 -26.5q-17 -13.5 -39.5 -25q-22.5 -11.5 -49 -18.5q-26.5 -7 -56.5 -7zt0 0zM234 61q25 0 48 6.5q23 6.5 43 17q20 10.5 36.5 23.5q16.5 13 28.5 25l0 103h-129q-72 0 -102.5 -25q-30.5 -25 -30.5 -65q0 -45 30.5 -65q30.5 -20 75.5 -20zt0 0zM173 667q0 21 8 39q8 18 22 31.5q14 13.5 32 21q18 7.5 39 7.5q21 0 39.5 -7.5q18.5 -7.5 32.5 -21q14 -13.5 22 -31.5q8 -18 8 -39q0 -20 -8 -37.5q-8 -17.5 -22 -31q-14 -13.5 -32.5 -21q-18.5 -7.5 -39.5 -7.5q-21 0 -39 7.5q-18 7.5 -32 21q-14 13.5 -22 31q-8 17.5 -8 37.5zt0 0zM222 667q0 -20 15.5 -35q15.5 -15 36.5 -15q22 0 37.5 15q15.5 15 15.5 35q0 22 -15.5 37q-15.5 15 -37.5 15q-21 0 -36.5 -15t-15.5 -37z" />
<glyph unicode="&#230;" horiz-adv-x="871" d="M218 -12q-35 0 -66 9q-31 9 -54 27.5q-23 18.5 -36.5 46q-13.5 27.5 -13.5 65.5q0 78 53.5 120q53.5 42 159.5 42h129v53q0 45 -29 73.5q-29 28.5 -90 28.5q-60 0 -89 -27q-29 -27 -29 -68l-78 0q0 36 12 66.5q12 30.5 36 53q24 22.5 61 35.5q37 13 87 13q62 0 102.5 -20.5q40.5 -20.5 61.5 -53.5q25 34 67 54q42 20 101 20q99 0 154 -51q55 -51 55 -138v-103h-342v-56q0 -52 34 -84.5q34 -32.5 99 -32.5q59 0 89 25.5q30 25.5 37 67.5l80 0q-7 -76 -59.5 -121q-52.5 -45 -146.5 -45q-75 0 -123 28q-48 28 -71 74q-14 -20 -33 -38.5q-19 -18.5 -43 -32.5q-24 -14 -53 -22.5q-29 -8.5 -62 -8.5zt0 0zM234 62q54 0 94 25.5q40 25.5 62 57.5l0 89h-129q-72 0 -102.5 -24.5q-30.5 -24.5 -30.5 -64.5q0 -44 30.5 -63.5q30.5 -19.5 75.5 -19.5zt0 0zM732 298v38q0 51 -32.5 84q-32.5 33 -98.5 33q-64 0 -97.5 -33q-33.5 -33 -33.5 -84l0 -38z" />
<glyph unicode="&#231;" horiz-adv-x="533" d="M228 -9q-80 11 -124 61q-44 50 -44 127v156q0 86 55 138.5q55 52.5 155 52.5q48 0 86 -13q38 -13 65 -37q27 -24 41.5 -58q14.5 -34 14.5 -76v-5h-80v6q0 48 -33 79q-33 31 -94 31q-65 0 -97.5 -32.5q-32.5 -32.5 -32.5 -83.5v-160q0 -51 32.5 -83.5q32.5 -32.5 97.5 -32.5q62 0 94.5 31.5q32.5 31.5 32.5 80.5v7h80v-6q0 -78 -48 -127q-48 -49 -129 -57l-85 -150h-76l0 28z" />
<glyph unicode="&#232;" horiz-adv-x="541" d="M274 -12q-101 0 -157.5 51q-56.5 51 -56.5 138v158q0 43 14.5 78q14.5 35 42 60q27.5 25 67.5 39q40 14 90 14q98 0 153 -51q55 -51 55 -138v-107h-342v-51q0 -52 34 -85q34 -33 100 -33q58 0 88 25.5q30 25.5 37 67.5l80 0q-7 -76 -59 -121q-52 -45 -146 -45zt0 0zM402 295v42q0 51 -32.5 83.5q-32.5 32.5 -98.5 32.5q-64 0 -97.5 -32.5q-33.5 -32.5 -33.5 -83.5v-42zM167 702v28h76l95 -140l-71 0z" />
<glyph unicode="&#233;" horiz-adv-x="541" d="M274 -12q-101 0 -157.5 51q-56.5 51 -56.5 138v158q0 43 14.5 78q14.5 35 42 60q27.5 25 67.5 39q40 14 90 14q98 0 153 -51q55 -51 55 -138v-107h-342v-51q0 -52 34 -85q34 -33 100 -33q58 0 88 25.5q30 25.5 37 67.5l80 0q-7 -76 -59 -121q-52 -45 -146 -45zt0 0zM402 295v42q0 51 -32.5 83.5q-32.5 32.5 -98.5 32.5q-64 0 -97.5 -32.5q-33.5 -32.5 -33.5 -83.5v-42zM279 590h-71l95 140h76l0 -28z" />
<glyph unicode="&#234;" horiz-adv-x="541" d="M274 -12q-101 0 -157.5 51q-56.5 51 -56.5 138v158q0 43 14.5 78q14.5 35 42 60q27.5 25 67.5 39q40 14 90 14q98 0 153 -51q55 -51 55 -138v-107h-342v-51q0 -52 34 -85q34 -33 100 -33q58 0 88 25.5q30 25.5 37 67.5l80 0q-7 -76 -59 -121q-52 -45 -146 -45zt0 0zM402 295v42q0 51 -32.5 83.5q-32.5 32.5 -98.5 32.5q-64 0 -97.5 -32.5q-33.5 -32.5 -33.5 -83.5v-42zM413 617v-27h-67l-72 84l-72 -84h-66v27l104 113l69 0z" />
<glyph unicode="&#235;" horiz-adv-x="541" d="M274 -12q-101 0 -157.5 51q-56.5 51 -56.5 138v158q0 43 14.5 78q14.5 35 42 60q27.5 25 67.5 39q40 14 90 14q98 0 153 -51q55 -51 55 -138v-107h-342v-51q0 -52 34 -85q34 -33 100 -33q58 0 88 25.5q30 25.5 37 67.5l80 0q-7 -76 -59 -121q-52 -45 -146 -45zt0 0zM402 295v42q0 51 -32.5 83.5q-32.5 32.5 -98.5 32.5q-64 0 -97.5 -32.5q-33.5 -32.5 -33.5 -83.5v-42zM138 705h80v-110h-80zM327 705h80v-110l-80 0z" />
<glyph unicode="&#236;" horiz-adv-x="246" d="M-11 700v28h76l95 -140h-71zM83 514h80v-514l-80 0z" />
<glyph unicode="&#237;" horiz-adv-x="246" d="M159 590h-71l95 140h76v-28zM83 514h80v-514l-80 0z" />
<glyph unicode="&#238;" horiz-adv-x="246" d="M83 514h80v-514h-80zM262 617v-27h-67l-72 84l-72 -84h-66v27l104 113l69 0z" />
<glyph unicode="&#239;" horiz-adv-x="246" d="M-11 705h80v-110h-80zM178 705h80v-110h-80zM83 514h80v-514l-80 0z" />
<glyph unicode="&#240;" horiz-adv-x="555" d="M276 -12q-50 0 -90 14q-40 14 -67.5 39q-27.5 25 -42 60q-14.5 35 -14.5 78v99q0 46 13.5 81.5q13.5 35.5 38 59.5q24.5 24 58 36.5q33.5 12.5 74.5 12.5q27 0 48.5 -5.5q21.5 -5.5 39 -14.5q17.5 -9 32 -20q14.5 -11 27.5 -23q-14 34 -35.5 64q-21.5 30 -49.5 65l-165 0v56h120l-62 77v38h72l90 -115h116v-56h-74q21 -29 37 -54.5q16 -25.5 26.5 -52.5q10.5 -27 16 -58q5.5 -31 5.5 -71v-121q0 -43 -14.5 -78q-14.5 -35 -42.5 -59.5q-28 -24.5 -67.5 -38q-39.5 -13.5 -89.5 -13.5zt0 0zM276 61q66 0 100 35q34 35 34 86v137q-26 29 -61.5 52.5q-35.5 23.5 -82.5 23.5q-57 0 -90.5 -33.5q-33.5 -33.5 -33.5 -88.5v-91q0 -25 8.5 -47q8.5 -22 25 -38.5q16.5 -16.5 41.5 -26t59 -9.5z" />
<glyph unicode="&#241;" horiz-adv-x="583" d="M83 514h48l28 -68q27 31 69.5 55.5q42.5 24.5 99.5 24.5q39 0 71.5 -12.5q32.5 -12.5 56 -37q23.5 -24.5 37 -60.5q13.5 -36 13.5 -83v-333h-80v324q0 67 -33 98q-33 31 -81 31q-24 0 -46 -7.5q-22 -7.5 -41 -19q-19 -11.5 -34.5 -26q-15.5 -14.5 -27.5 -28.5l0 -372h-80zM125 634q27 45 51.5 69q24.5 24 55.5 24q20 0 36.5 -7.5q16.5 -7.5 31.5 -17.5l20 -13q14 -10 26.5 -16q12.5 -6 25.5 -6q14 0 27 12q13 12 36 45l48 -32q-26 -45 -51 -69q-25 -24 -57 -24q-19 0 -34.5 6q-15.5 6 -29.5 16l-19 13q-15 10 -28 17.5q-13 7.5 -27 7.5q-15 0 -28 -12.5q-13 -12.5 -36 -44.5z" />
<glyph unicode="&#242;" horiz-adv-x="547" d="M274 61q34 0 59 9.5q25 9.5 41.5 26q16.5 16.5 24.5 38.5q8 22 8 47v150q0 25 -8 47q-8 22 -24.5 38.5q-16.5 16.5 -41.5 26q-25 9.5 -59 9.5q-66 0 -100 -35q-34 -35 -34 -86v-150q0 -51 34 -86q34 -35 100 -35zt0 0zM274 -12q-53 0 -93 14.5q-40 14.5 -67 40.5q-27 26 -40.5 60.5q-13.5 34.5 -13.5 75.5v156q0 40 13.5 75q13.5 35 40.5 61q27 26 67 40.5q40 14.5 93 14.5q53 0 93 -14.5q40 -14.5 66.5 -40.5q26.5 -26 40 -61q13.5 -35 13.5 -75v-156q0 -41 -13.5 -75.5q-13.5 -34.5 -40 -60.5q-26.5 -26 -66.5 -40.5q-40 -14.5 -93 -14.5zt0 0zM155 702v28h76l95 -140l-71 0z" />
<glyph unicode="&#243;" horiz-adv-x="547" d="M274 61q34 0 59 9.5q25 9.5 41.5 26q16.5 16.5 24.5 38.5q8 22 8 47v150q0 25 -8 47q-8 22 -24.5 38.5q-16.5 16.5 -41.5 26q-25 9.5 -59 9.5q-66 0 -100 -35q-34 -35 -34 -86v-150q0 -51 34 -86q34 -35 100 -35zt0 0zM274 -12q-53 0 -93 14.5q-40 14.5 -67 40.5q-27 26 -40.5 60.5q-13.5 34.5 -13.5 75.5v156q0 40 13.5 75q13.5 35 40.5 61q27 26 67 40.5q40 14.5 93 14.5q53 0 93 -14.5q40 -14.5 66.5 -40.5q26.5 -26 40 -61q13.5 -35 13.5 -75v-156q0 -41 -13.5 -75.5q-13.5 -34.5 -40 -60.5q-26.5 -26 -66.5 -40.5q-40 -14.5 -93 -14.5zt0 0zM295 590h-71l95 140h76l0 -28z" />
<glyph unicode="&#244;" horiz-adv-x="547" d="M274 61q34 0 59 9.5q25 9.5 41.5 26q16.5 16.5 24.5 38.5q8 22 8 47v150q0 25 -8 47q-8 22 -24.5 38.5q-16.5 16.5 -41.5 26q-25 9.5 -59 9.5q-66 0 -100 -35q-34 -35 -34 -86v-150q0 -51 34 -86q34 -35 100 -35zt0 0zM274 -12q-53 0 -93 14.5q-40 14.5 -67 40.5q-27 26 -40.5 60.5q-13.5 34.5 -13.5 75.5v156q0 40 13.5 75q13.5 35 40.5 61q27 26 67 40.5q40 14.5 93 14.5q53 0 93 -14.5q40 -14.5 66.5 -40.5q26.5 -26 40 -61q13.5 -35 13.5 -75v-156q0 -41 -13.5 -75.5q-13.5 -34.5 -40 -60.5q-26.5 -26 -66.5 -40.5q-40 -14.5 -93 -14.5zt0 0zM412 617v-27h-67l-72 84l-72 -84h-66v27l104 113l69 0z" />
<glyph unicode="&#245;" horiz-adv-x="547" d="M274 61q34 0 59 9.5q25 9.5 41.5 26q16.5 16.5 24.5 38.5q8 22 8 47v150q0 25 -8 47q-8 22 -24.5 38.5q-16.5 16.5 -41.5 26q-25 9.5 -59 9.5q-66 0 -100 -35q-34 -35 -34 -86v-150q0 -51 34 -86q34 -35 100 -35zt0 0zM274 -12q-53 0 -93 14.5q-40 14.5 -67 40.5q-27 26 -40.5 60.5q-13.5 34.5 -13.5 75.5v156q0 40 13.5 75q13.5 35 40.5 61q27 26 67 40.5q40 14.5 93 14.5q53 0 93 -14.5q40 -14.5 66.5 -40.5q26.5 -26 40 -61q13.5 -35 13.5 -75v-156q0 -41 -13.5 -75.5q-13.5 -34.5 -40 -60.5q-26.5 -26 -66.5 -40.5q-40 -14.5 -93 -14.5zt0 0zM95 634q27 45 51.5 69q24.5 24 55.5 24q20 0 36.5 -7.5q16.5 -7.5 31.5 -17.5l20 -13q14 -10 26.5 -16q12.5 -6 25.5 -6q14 0 27 12q13 12 36 45l48 -32q-26 -45 -51 -69q-25 -24 -57 -24q-19 0 -34.5 6q-15.5 6 -29.5 16l-19 13q-15 10 -28 17.5q-13 7.5 -27 7.5q-15 0 -28 -12.5q-13 -12.5 -36 -44.5z" />
<glyph unicode="&#246;" horiz-adv-x="547" d="M274 61q34 0 59 9.5q25 9.5 41.5 26q16.5 16.5 24.5 38.5q8 22 8 47v150q0 25 -8 47q-8 22 -24.5 38.5q-16.5 16.5 -41.5 26q-25 9.5 -59 9.5q-66 0 -100 -35q-34 -35 -34 -86v-150q0 -51 34 -86q34 -35 100 -35zt0 0zM274 -12q-53 0 -93 14.5q-40 14.5 -67 40.5q-27 26 -40.5 60.5q-13.5 34.5 -13.5 75.5v156q0 40 13.5 75q13.5 35 40.5 61q27 26 67 40.5q40 14.5 93 14.5q53 0 93 -14.5q40 -14.5 66.5 -40.5q26.5 -26 40 -61q13.5 -35 13.5 -75v-156q0 -41 -13.5 -75.5q-13.5 -34.5 -40 -60.5q-26.5 -26 -66.5 -40.5q-40 -14.5 -93 -14.5zt0 0zM138 705h80v-110h-80zM327 705h80v-110l-80 0z" />
<glyph unicode="&#247;" horiz-adv-x="541" d="M225 204h91v-119h-91zM57 347h427v-68h-427zM225 541h91v-119l-91 0z" />
<glyph unicode="&#248;" horiz-adv-x="550" d="M274 -12q-25 0 -47 3.5q-22 3.5 -41 9.5l-62 -127h-64v38l61 124q-31 26 -46 62.5q-15 36.5 -15 80.5v156q0 40 13.5 75q13.5 35 40 61q26.5 26 66.5 40.5q40 14.5 93 14.5q48 0 84 -12l66 132h64v-38l-63 -128q32 -26 47.5 -63.5q15.5 -37.5 15.5 -81.5v-156q0 -41 -13 -75.5q-13 -34.5 -39.5 -60.5q-26.5 -26 -66.5 -40.5q-40 -14.5 -94 -14.5zt0 0zM274 61q34 0 59 9.5q25 9.5 41.5 26q16.5 16.5 24.5 38.5q8 22 8 47v141q0 26 -5 46.5q-5 20.5 -20 39.5l-167 -338q23 -10 59 -10zt0 0zM140 182q0 -21 5.5 -39.5q5.5 -18.5 17.5 -32.5l165 335q-24 8 -55 8q-66 0 -99.5 -35q-33.5 -35 -33.5 -86z" />
<glyph unicode="&#249;" horiz-adv-x="582" d="M499 0h-48l-29 68q-26 -31 -68.5 -55.5q-42.5 -24.5 -99.5 -24.5q-38 0 -70.5 12.5q-32.5 12.5 -56 37q-23.5 24.5 -36.5 60.5q-13 36 -13 83v333h80v-324q0 -67 32 -98q32 -31 80 -31q24 0 46 7.5q22 7.5 41 19q19 11.5 34.5 26q15.5 14.5 27.5 28.5l0 372h80zM186 702v28h76l95 -140l-71 0z" />
<glyph unicode="&#250;" horiz-adv-x="582" d="M499 0h-48l-29 68q-26 -31 -68.5 -55.5q-42.5 -24.5 -99.5 -24.5q-38 0 -70.5 12.5q-32.5 12.5 -56 37q-23.5 24.5 -36.5 60.5q-13 36 -13 83v333h80v-324q0 -67 32 -98q32 -31 80 -31q24 0 46 7.5q22 7.5 41 19q19 11.5 34.5 26q15.5 14.5 27.5 28.5l0 372h80zM297 590h-71l95 140h76l0 -28z" />
<glyph unicode="&#251;" horiz-adv-x="582" d="M499 0h-48l-29 68q-26 -31 -68.5 -55.5q-42.5 -24.5 -99.5 -24.5q-38 0 -70.5 12.5q-32.5 12.5 -56 37q-23.5 24.5 -36.5 60.5q-13 36 -13 83v333h80v-324q0 -67 32 -98q32 -31 80 -31q24 0 46 7.5q22 7.5 41 19q19 11.5 34.5 26q15.5 14.5 27.5 28.5l0 372h80zM429 617v-27h-67l-72 84l-72 -84h-66v27l104 113l69 0z" />
<glyph unicode="&#252;" horiz-adv-x="582" d="M499 0h-48l-29 68q-26 -31 -68.5 -55.5q-42.5 -24.5 -99.5 -24.5q-38 0 -70.5 12.5q-32.5 12.5 -56 37q-23.5 24.5 -36.5 60.5q-13 36 -13 83v333h80v-324q0 -67 32 -98q32 -31 80 -31q24 0 46 7.5q22 7.5 41 19q19 11.5 34.5 26q15.5 14.5 27.5 28.5l0 372h80zM156 705h80v-110h-80zM345 705h80v-110l-80 0z" />
<glyph unicode="&#253;" horiz-adv-x="505" d="M159 -130l57 130l-193 476v38h75l157 -406l154 406h73v-38l-256 -636h-67zM271 590h-71l95 140h76l0 -28z" />
<glyph unicode="&#254;" horiz-adv-x="578" d="M327 526q40 0 73.5 -12q33.5 -12 58 -36q24.5 -24 38 -59.5q13.5 -35.5 13.5 -81.5v-160q0 -46 -13.5 -81.5q-13.5 -35.5 -38 -59.5q-24.5 -24 -58.5 -36q-34 -12 -74 -12q-57 0 -98.5 23.5q-41.5 23.5 -64.5 51.5l0 -223h-80v865h80v-255q25 29 66 52.5q41 23.5 98 23.5zt0 0zM314 61q52 0 84 33.5q32 33.5 32 88.5v148q0 55 -32 88.5q-32 33.5 -83 33.5q-24 0 -45.5 -7q-21.5 -7 -41 -18.5q-19.5 -11.5 -36 -26q-16.5 -14.5 -29.5 -29.5l0 -230q13 -15 29.5 -29.5q16.5 -14.5 35.5 -26q19 -11.5 40.5 -18.5t45.5 -7z" />
<glyph unicode="&#255;" horiz-adv-x="505" d="M159 -130l57 130l-193 476v38h75l157 -406l154 406h73v-38l-256 -636h-67zM117 705h80v-110h-80zM306 705h80v-110l-80 0z" />
<glyph unicode="&#256;" horiz-adv-x="656" d="M23 29l261 671h87l262 -671v-29h-86l-70 186h-302l-72 -186h-80zM450 260l-124 324l-125 -324zM175 863h306v-71l-306 0z" />
<glyph unicode="&#257;" horiz-adv-x="547" d="M218 -12q-34 0 -65 9q-31 9 -54 27.5q-23 18.5 -37 46.5q-14 28 -14 66q0 79 53.5 121.5q53.5 42.5 159.5 42.5h129v51q0 45 -29 73q-29 28 -90 28q-60 0 -89 -27q-29 -27 -29 -68l-78 0q0 36 12 66.5q12 30.5 36 53q24 22.5 61 35.5q37 13 87 13q50 0 87.5 -13q37.5 -13 62 -35.5q24.5 -22.5 37 -53.5q12.5 -31 12.5 -67v-357h-48l-30 65q-12 -13 -29 -26.5q-17 -13.5 -39.5 -25q-22.5 -11.5 -49 -18.5q-26.5 -7 -56.5 -7zt0 0zM234 61q25 0 48 6.5q23 6.5 43 17q20 10.5 36.5 23.5q16.5 13 28.5 25l0 103h-129q-72 0 -102.5 -25q-30.5 -25 -30.5 -65q0 -45 30.5 -65q30.5 -20 75.5 -20zt0 0zM133 683h285v-66l-285 0z" />
<glyph unicode="&#260;" horiz-adv-x="656" d="M625 -160q-47 0 -73.5 19.5q-26.5 19.5 -26.5 54.5q0 18 11.5 39.5q11.5 21.5 40.5 46.5l-30 0l-70 186h-302l-72 -186h-80v29l261 671h87l262 -671v-29q-27 -20 -39 -37q-12 -17 -12 -31q0 -20 16 -29q16 -9 44 -9h39v-54zM450 260l-124 324l-125 -324z" />
<glyph unicode="&#261;" horiz-adv-x="548" d="M462 -160q-47 0 -73.5 19.5q-26.5 19.5 -26.5 54.5q0 18 13.5 39.5q13.5 21.5 46.5 46.5l-30 65q-12 -13 -29 -26.5q-17 -13.5 -39.5 -25q-22.5 -11.5 -49 -18.5q-26.5 -7 -56.5 -7q-34 0 -65 9q-31 9 -54 27.5q-23 18.5 -37 46.5q-14 28 -14 66q0 79 53.5 121.5q53.5 42.5 159.5 42.5h129v51q0 45 -29 73q-29 28 -90 28q-60 0 -89 -27q-29 -27 -29 -68l-78 0q0 36 12 66.5q12 30.5 36 53q24 22.5 61 35.5q37 13 87 13q50 0 87.5 -13q37.5 -13 62 -35.5q24.5 -22.5 37 -53.5q12.5 -31 12.5 -67v-357q-27 -20 -39 -37q-12 -17 -12 -31q0 -20 16 -29q16 -9 44 -9h39v-54zM234 61q25 0 48 6.5q23 6.5 43 17q20 10.5 36.5 23.5q16.5 13 28.5 25l0 103h-129q-72 0 -102.5 -25q-30.5 -25 -30.5 -65q0 -45 30.5 -65t75.5 -20z" />
<glyph unicode="&#262;" horiz-adv-x="659" d="M341 -15q-128 0 -198 66q-70 66 -70 186v226q0 120 70 186q70 66 198 66q51 0 97 -14.5q46 -14.5 81 -43.5q35 -29 56 -74q21 -45 21 -106v-10h-87v10q0 41 -15 70.5q-15 29.5 -39 49q-24 19.5 -54.5 29q-30.5 9.5 -60.5 9.5q-89 0 -134.5 -44q-45.5 -44 -45.5 -122v-238q0 -78 45.5 -122q45.5 -44 134.5 -44q30 0 60.5 9.5q30.5 9.5 54.5 29q24 19.5 39 49q15 29.5 15 70.5v10h87v-10q0 -61 -21 -106q-21 -45 -56 -74q-35 -29 -81 -43.5q-46 -14.5 -97 -14.5zt0 0zM361 762h-77l102 151h82l0 -30z" />
<glyph unicode="&#263;" horiz-adv-x="533" d="M270 -12q-100 0 -155 52.5q-55 52.5 -55 138.5v156q0 86 55 138.5q55 52.5 155 52.5q48 0 86 -13q38 -13 65 -37q27 -24 41.5 -58q14.5 -34 14.5 -76v-5h-80v6q0 48 -33 79q-33 31 -94 31q-65 0 -97.5 -32.5q-32.5 -32.5 -32.5 -83.5v-160q0 -51 32.5 -83.5q32.5 -32.5 97.5 -32.5q62 0 94.5 31.5q32.5 31.5 32.5 80.5v7h80v-6q0 -42 -14.5 -76.5q-14.5 -34.5 -41.5 -58.5q-27 -24 -65.5 -37.5q-38.5 -13.5 -85.5 -13.5zt0 0zM296 590h-71l95 140h76l0 -28z" />
<glyph unicode="&#268;" horiz-adv-x="659" d="M341 -15q-128 0 -198 66q-70 66 -70 186v226q0 120 70 186q70 66 198 66q51 0 97 -14.5q46 -14.5 81 -43.5q35 -29 56 -74q21 -45 21 -106v-10h-87v10q0 41 -15 70.5q-15 29.5 -39 49q-24 19.5 -54.5 29q-30.5 9.5 -60.5 9.5q-89 0 -134.5 -44q-45.5 -44 -45.5 -122v-238q0 -78 45.5 -122q45.5 -44 134.5 -44q30 0 60.5 9.5q30.5 9.5 54.5 29q24 19.5 39 49q15 29.5 15 70.5v10h87v-10q0 -61 -21 -106q-21 -45 -56 -74q-35 -29 -81 -43.5q-46 -14.5 -97 -14.5zt0 0zM374 763h-74l-111 121v29h71l78 -95l77 95h70l0 -29z" />
<glyph unicode="&#269;" horiz-adv-x="533" d="M270 -12q-100 0 -155 52.5q-55 52.5 -55 138.5v156q0 86 55 138.5q55 52.5 155 52.5q48 0 86 -13q38 -13 65 -37q27 -24 41.5 -58q14.5 -34 14.5 -76v-5h-80v6q0 48 -33 79q-33 31 -94 31q-65 0 -97.5 -32.5q-32.5 -32.5 -32.5 -83.5v-160q0 -51 32.5 -83.5q32.5 -32.5 97.5 -32.5q62 0 94.5 31.5q32.5 31.5 32.5 80.5v7h80v-6q0 -42 -14.5 -76.5q-14.5 -34.5 -41.5 -58.5q-27 -24 -65.5 -37.5q-38.5 -13.5 -85.5 -13.5zt0 0zM310 590h-69l-104 113v27h67l72 -89l72 89h66l0 -27z" />
<glyph unicode="&#270;" horiz-adv-x="679" d="M337 77q88 0 135 45.5q47 45.5 47 119.5v216q0 74 -47 119.5q-47 45.5 -135 45.5h-157v-546zM93 700h244q61 0 111 -16q50 -16 85 -47.5q35 -31.5 54 -77q19 -45.5 19 -103.5v-212q0 -59 -19 -104q-19 -45 -54 -76.5q-35 -31.5 -85 -47.5q-50 -16 -111 -16h-244zM355 763h-74l-111 121v29h71l78 -95l77 95h70l0 -29z" />
<glyph unicode="&#271;" horiz-adv-x="686" d="M249 -12q-39 0 -72 12q-33 12 -57.5 36q-24.5 24 -38 59.5q-13.5 35.5 -13.5 81.5v160q0 46 13.5 81.5q13.5 35.5 38 59.5q24.5 24 58 36q33.5 12 74.5 12q57 0 98.5 -23.5q41.5 -23.5 64.5 -51.5l0 254h80v-705h-48l-28 68q-26 -30 -68.5 -55q-42.5 -25 -101.5 -25zt0 0zM264 61q24 0 45.5 7q21.5 7 40.5 18.5q19 11.5 35 26q16 14.5 30 29.5l0 230q-14 15 -30 29.5q-16 14.5 -35.5 26q-19.5 11.5 -41 18.5q-21.5 7 -45.5 7q-51 0 -83 -33.5q-32 -33.5 -32 -88.5v-148q0 -55 32 -88.5q32 -33.5 84 -33.5zt0 0zM624 705h87v-37l-73 -147l-63 0z" />
<glyph unicode="&#274;" horiz-adv-x="584" d="M93 700h436v-77h-349v-232h302v-77h-302v-237h350v-77h-437zM158 863h306v-71l-306 0z" />
<glyph unicode="&#275;" horiz-adv-x="541" d="M274 -12q-101 0 -157.5 51q-56.5 51 -56.5 138v158q0 43 14.5 78q14.5 35 42 60q27.5 25 67.5 39q40 14 90 14q98 0 153 -51q55 -51 55 -138v-107h-342v-51q0 -52 34 -85q34 -33 100 -33q58 0 88 25.5q30 25.5 37 67.5l80 0q-7 -76 -59 -121q-52 -45 -146 -45zt0 0zM402 295v42q0 51 -32.5 83.5q-32.5 32.5 -98.5 32.5q-64 0 -97.5 -32.5q-33.5 -32.5 -33.5 -83.5v-42zM132 683h285v-66l-285 0z" />
<glyph unicode="&#278;" horiz-adv-x="584" d="M93 700h436v-77h-349v-232h302v-77h-302v-237h350v-77h-437zM266 892h85v-118l-85 0z" />
<glyph unicode="&#279;" horiz-adv-x="541" d="M274 -12q-101 0 -157.5 51q-56.5 51 -56.5 138v158q0 43 14.5 78q14.5 35 42 60q27.5 25 67.5 39q40 14 90 14q98 0 153 -51q55 -51 55 -138v-107h-342v-51q0 -52 34 -85q34 -33 100 -33q58 0 88 25.5q30 25.5 37 67.5l80 0q-7 -76 -59 -121q-52 -45 -146 -45zt0 0zM402 295v42q0 51 -32.5 83.5q-32.5 32.5 -98.5 32.5q-64 0 -97.5 -32.5q-33.5 -32.5 -33.5 -83.5v-42zM235 710h80v-110l-80 0z" />
<glyph unicode="&#280;" horiz-adv-x="588" d="M93 700h436v-77h-349v-232h302v-77h-302v-237h350v-77q-27 -20 -39 -37q-12 -17 -12 -31q0 -20 16 -29q16 -9 44 -9h39v-54h-56q-47 0 -73.5 19.5q-26.5 19.5 -26.5 54.5q0 18 11.5 39.5q11.5 21.5 40.5 46.5l-381 0z" />
<glyph unicode="&#281;" horiz-adv-x="541" d="M381 -160q-48 0 -75.5 19.5q-27.5 19.5 -27.5 53.5q0 17 9.5 36q9.5 19 31.5 42q-23 -3 -45 -3q-101 0 -157.5 51q-56.5 51 -56.5 138v158q0 43 14.5 78q14.5 35 42 60q27.5 25 67.5 39q40 14 90 14q98 0 153 -51q55 -51 55 -138v-107h-342v-51q0 -52 34 -85q34 -33 100 -33q58 0 88 25.5q30 25.5 37 67.5l80 0q-3 -28 -10 -49q-7 -21 -17.5 -37q-10.5 -16 -22.5 -28.5q-12 -12.5 -24 -23.5q-22 -20 -38 -40q-16 -20 -16 -37q0 -32 52 -32h34v-67zM402 295v42q0 51 -32.5 83.5q-32.5 32.5 -98.5 32.5q-64 0 -97.5 -32.5q-33.5 -32.5 -33.5 -83.5l0 -42z" />
<glyph unicode="&#282;" horiz-adv-x="584" d="M93 700h436v-77h-349v-232h302v-77h-302v-237h350v-77h-437zM352 763h-74l-111 121v29h71l78 -95l77 95h70l0 -29z" />
<glyph unicode="&#283;" horiz-adv-x="541" d="M274 -12q-101 0 -157.5 51q-56.5 51 -56.5 138v158q0 43 14.5 78q14.5 35 42 60q27.5 25 67.5 39q40 14 90 14q98 0 153 -51q55 -51 55 -138v-107h-342v-51q0 -52 34 -85q34 -33 100 -33q58 0 88 25.5q30 25.5 37 67.5l80 0q-7 -76 -59 -121q-52 -45 -146 -45zt0 0zM402 295v42q0 51 -32.5 83.5q-32.5 32.5 -98.5 32.5q-64 0 -97.5 -32.5q-33.5 -32.5 -33.5 -83.5v-42zM307 590h-69l-104 113v27h67l72 -89l72 89h66l0 -27z" />
<glyph unicode="&#290;" horiz-adv-x="693" d="M335 -15q-60 0 -108.5 17.5q-48.5 17.5 -82.5 50q-34 32.5 -52.5 79q-18.5 46.5 -18.5 105.5v226q0 120 72.5 186q72.5 66 200.5 66q51 0 97.5 -14q46.5 -14 82.5 -43q36 -29 58 -73q22 -44 22 -104v-6h-87v6q0 37 -14 66q-14 29 -38 48.5q-24 19.5 -55.5 29.5q-31.5 10 -67.5 10q-86 0 -135 -44q-49 -44 -49 -122v-232q0 -78 47.5 -125q47.5 -47 132.5 -47q124 0 179 112l0 106h-160v74h247v-357h-49l-24 87q-33 -50 -82 -76q-49 -26 -116 -26zt0 0zM309 -67h87v-37l-73 -147l-63 0z" />
<glyph unicode="&#291;" horiz-adv-x="578" d="M288 -172q-93 0 -149.5 44.5q-56.5 44.5 -58.5 123.5l80 0q2 -38 33.5 -66.5q31.5 -28.5 94.5 -28.5q65 0 96 32q31 32 31 92v88q-23 -28 -64.5 -51.5q-41.5 -23.5 -98.5 -23.5q-41 0 -74.5 12q-33.5 12 -58 36q-24.5 24 -38 59.5q-13.5 35.5 -13.5 81.5v110q0 46 13.5 81.5q13.5 35.5 38 59.5q24.5 24 57.5 36q33 12 72 12q59 0 101 -25q42 -25 68 -55l29 68h48v-487q0 -101 -56.5 -150q-56.5 -49 -150.5 -49zt0 0zM266 111q24 0 45 7q21 7 40 18.5q19 11.5 35 25.5q16 14 29 29l0 182q-13 15 -29 29q-16 14 -35 25.5q-19 11.5 -40 18.5q-21 7 -45 7q-54 0 -86 -33q-32 -33 -32 -88v-100q0 -55 32 -88q32 -33 86 -33zt0 0zM333 586h-80v37l67 147l58 0z" />
<glyph unicode="&#298;" horiz-adv-x="273" d="M93 700h87v-700h-87zM-16 863h306v-71l-306 0z" />
<glyph unicode="&#299;" horiz-adv-x="246" d="M-19 683h285v-66h-285zM83 514h80v-514l-80 0z" />
<glyph unicode="&#302;" horiz-adv-x="273" d="M93 700h87v-700q-27 -20 -39 -37q-12 -17 -12 -31q0 -20 16 -29q16 -9 44 -9h39v-54h-56q-47 0 -73.5 19.5q-26.5 19.5 -26.5 54.5q0 18 11.5 39.5q11.5 21.5 40.5 46.5l-31 0z" />
<glyph unicode="&#303;" horiz-adv-x="246" d="M83 514h80v-514q-27 -20 -39 -37q-12 -17 -12 -31q0 -20 16 -29q16 -9 44 -9h39v-54h-56q-47 0 -73.5 19.5q-26.5 19.5 -26.5 54.5q0 18 11.5 39.5q11.5 21.5 40.5 46.5l-24 0zM83 705h80v-110l-80 0z" />
<glyph unicode="&#305;" horiz-adv-x="246" d="M83 514h80v-514l-80 0z" />
<glyph unicode="&#310;" horiz-adv-x="612" d="M93 700h87v-310h112l203 310h81v-29l-208 -315l221 -327v-29h-86l-210 313h-113v-313h-87zM286 -67h87v-37l-73 -147l-63 0z" />
<glyph unicode="&#311;" horiz-adv-x="526" d="M83 705h80v-407h88l153 216h66v-38l-148 -209l162 -229v-38h-72l-161 228h-88v-228h-80zM237 -67h80v-37l-67 -147l-58 0z" />
<glyph unicode="&#313;" horiz-adv-x="561" d="M93 700h87v-623h358v-77h-445zM178 762h-77l102 151h82l0 -30z" />
<glyph unicode="&#314;" horiz-adv-x="246" d="M83 705h80v-705h-80zM160 756h-71l95 140h76l0 -28z" />
<glyph unicode="&#315;" horiz-adv-x="561" d="M93 700h87v-623h358v-77h-445zM280 -67h87v-37l-73 -147l-63 0z" />
<glyph unicode="&#316;" horiz-adv-x="246" d="M83 705h80v-705h-80zM83 -67h80v-37l-67 -147l-58 0z" />
<glyph unicode="&#317;" horiz-adv-x="563" d="M93 700h87v-623h358v-77h-445zM453 700h87v-37l-73 -147l-63 0z" />
<glyph unicode="&#318;" horiz-adv-x="354" d="M83 705h80v-705h-80zM292 705h87v-37l-73 -147l-63 0z" />
<glyph unicode="&#321;" horiz-adv-x="601" d="M133 249l-78 -60h-31v71l109 83v357h87v-290l152 119h31v-72l-183 -142v-238h358v-77l-445 0z" />
<glyph unicode="&#322;" horiz-adv-x="393" d="M156 260l-117 -132h-39v60l156 176v341h80v-254l118 135h39v-60l-157 -178v-348l-80 0z" />
<glyph unicode="&#323;" horiz-adv-x="701" d="M93 700h80l348 -539v539h87v-700h-80l-348 538v-538h-87zM360 762h-77l102 151h82l0 -30z" />
<glyph unicode="&#324;" horiz-adv-x="583" d="M83 514h48l28 -68q27 31 69.5 55.5q42.5 24.5 99.5 24.5q39 0 71.5 -12.5q32.5 -12.5 56 -37q23.5 -24.5 37 -60.5q13.5 -36 13.5 -83v-333h-80v324q0 67 -33 98q-33 31 -81 31q-24 0 -46 -7.5q-22 -7.5 -41 -19q-19 -11.5 -34.5 -26q-15.5 -14.5 -27.5 -28.5l0 -372h-80zM325 590h-71l95 140h76l0 -28z" />
<glyph unicode="&#325;" horiz-adv-x="701" d="M93 700h80l348 -539v539h87v-700h-80l-348 538v-538h-87zM312 -67h87v-37l-73 -147l-63 0z" />
<glyph unicode="&#326;" horiz-adv-x="583" d="M83 514h48l28 -68q27 31 69.5 55.5q42.5 24.5 99.5 24.5q39 0 71.5 -12.5q32.5 -12.5 56 -37q23.5 -24.5 37 -60.5q13.5 -36 13.5 -83v-333h-80v324q0 67 -33 98q-33 31 -81 31q-24 0 -46 -7.5q-22 -7.5 -41 -19q-19 -11.5 -34.5 -26q-15.5 -14.5 -27.5 -28.5l0 -372h-80zM257 -67h80v-37l-67 -147l-58 0z" />
<glyph unicode="&#327;" horiz-adv-x="701" d="M93 700h80l348 -539v539h87v-700h-80l-348 538v-538h-87zM387 763h-74l-111 121v29h71l78 -95l77 95h70l0 -29z" />
<glyph unicode="&#328;" horiz-adv-x="583" d="M83 514h48l28 -68q27 31 69.5 55.5q42.5 24.5 99.5 24.5q39 0 71.5 -12.5q32.5 -12.5 56 -37q23.5 -24.5 37 -60.5q13.5 -36 13.5 -83v-333h-80v324q0 67 -33 98q-33 31 -81 31q-24 0 -46 -7.5q-22 -7.5 -41 -19q-19 -11.5 -34.5 -26q-15.5 -14.5 -27.5 -28.5l0 -372h-80zM331 590h-69l-104 113v27h67l72 -89l72 89h66l0 -27z" />
<glyph unicode="&#332;" horiz-adv-x="684" d="M342 65q88 0 135 46.5q47 46.5 47 120.5v236q0 74 -47 120.5q-47 46.5 -135 46.5q-89 0 -135.5 -46.5q-46.5 -46.5 -46.5 -120.5v-236q0 -74 46.5 -120.5q46.5 -46.5 135.5 -46.5zt0 0zM342 -15q-62 0 -111.5 17q-49.5 17 -84.5 49q-35 32 -54 78.5q-19 46.5 -19 106.5v228q0 60 19 106.5q19 46.5 54 78.5q35 32 84.5 49q49.5 17 111.5 17q61 0 111 -17q50 -17 85 -49q35 -32 54 -78.5q19 -46.5 19 -106.5v-228q0 -60 -19 -106.5q-19 -46.5 -54 -78.5q-35 -32 -85 -49q-50 -17 -111 -17zt0 0zM189 863h306v-71l-306 0z" />
<glyph unicode="&#333;" horiz-adv-x="547" d="M274 61q34 0 59 9.5q25 9.5 41.5 26q16.5 16.5 24.5 38.5q8 22 8 47v150q0 25 -8 47q-8 22 -24.5 38.5q-16.5 16.5 -41.5 26q-25 9.5 -59 9.5q-66 0 -100 -35q-34 -35 -34 -86v-150q0 -51 34 -86q34 -35 100 -35zt0 0zM274 -12q-53 0 -93 14.5q-40 14.5 -67 40.5q-27 26 -40.5 60.5q-13.5 34.5 -13.5 75.5v156q0 40 13.5 75q13.5 35 40.5 61q27 26 67 40.5q40 14.5 93 14.5q53 0 93 -14.5q40 -14.5 66.5 -40.5q26.5 -26 40 -61q13.5 -35 13.5 -75v-156q0 -41 -13.5 -75.5q-13.5 -34.5 -40 -60.5q-26.5 -26 -66.5 -40.5q-40 -14.5 -93 -14.5zt0 0zM131 683h285v-66l-285 0z" />
<glyph unicode="&#335;" horiz-adv-x="547" d="M274 61q34 0 59 9.5q25 9.5 41.5 26q16.5 16.5 24.5 38.5q8 22 8 47v150q0 25 -8 47q-8 22 -24.5 38.5q-16.5 16.5 -41.5 26q-25 9.5 -59 9.5q-66 0 -100 -35q-34 -35 -34 -86v-150q0 -51 34 -86q34 -35 100 -35zt0 0zM274 -12q-53 0 -93 14.5q-40 14.5 -67 40.5q-27 26 -40.5 60.5q-13.5 34.5 -13.5 75.5v156q0 40 13.5 75q13.5 35 40.5 61q27 26 67 40.5q40 14.5 93 14.5q53 0 93 -14.5q40 -14.5 66.5 -40.5q26.5 -26 40 -61q13.5 -35 13.5 -75v-156q0 -41 -13.5 -75.5q-13.5 -34.5 -40 -60.5q-26.5 -26 -66.5 -40.5q-40 -14.5 -93 -14.5zt0 0zM273 585q-69 0 -112.5 35.5q-43.5 35.5 -43.5 101.5v12h70v-11q0 -36 22 -56.5q22 -20.5 64 -20.5q42 0 64.5 20.5q22.5 20.5 22.5 56.5v11h70v-12q0 -66 -44 -101.5t-113 -35.5z" />
<glyph unicode="&#336;" horiz-adv-x="684" d="M342 65q88 0 135 46.5q47 46.5 47 120.5v236q0 74 -47 120.5q-47 46.5 -135 46.5q-89 0 -135.5 -46.5q-46.5 -46.5 -46.5 -120.5v-236q0 -74 46.5 -120.5q46.5 -46.5 135.5 -46.5zt0 0zM342 -15q-62 0 -111.5 17q-49.5 17 -84.5 49q-35 32 -54 78.5q-19 46.5 -19 106.5v228q0 60 19 106.5q19 46.5 54 78.5q35 32 84.5 49q49.5 17 111.5 17q61 0 111 -17q50 -17 85 -49q35 -32 54 -78.5q19 -46.5 19 -106.5v-228q0 -60 -19 -106.5q-19 -46.5 -54 -78.5q-35 -32 -85 -49q-50 -17 -111 -17zt0 0zM278 763h-77l102 150h82v-30zM461 763h-76l102 150h81l0 -30z" />
<glyph unicode="&#337;" horiz-adv-x="547" d="M274 61q34 0 59 9.5q25 9.5 41.5 26q16.5 16.5 24.5 38.5q8 22 8 47v150q0 25 -8 47q-8 22 -24.5 38.5q-16.5 16.5 -41.5 26q-25 9.5 -59 9.5q-66 0 -100 -35q-34 -35 -34 -86v-150q0 -51 34 -86q34 -35 100 -35zt0 0zM274 -12q-53 0 -93 14.5q-40 14.5 -67 40.5q-27 26 -40.5 60.5q-13.5 34.5 -13.5 75.5v156q0 40 13.5 75q13.5 35 40.5 61q27 26 67 40.5q40 14.5 93 14.5q53 0 93 -14.5q40 -14.5 66.5 -40.5q26.5 -26 40 -61q13.5 -35 13.5 -75v-156q0 -41 -13.5 -75.5q-13.5 -34.5 -40 -60.5q-26.5 -26 -66.5 -40.5q-40 -14.5 -93 -14.5zt0 0zM214 590h-71l95 140h76v-28zM385 590h-71l95 140h76l0 -28z" />
<glyph unicode="&#338;" horiz-adv-x="1015" d="M342 -15q-62 0 -111.5 17q-49.5 17 -84.5 49q-35 32 -54 78.5q-19 46.5 -19 106.5v228q0 60 19 106.5q19 46.5 54 78.5q35 32 84.5 49q49.5 17 111.5 17q60 0 106.5 -22.5q46.5 -22.5 75.5 -64.5l0 72h436v-77h-350v-232h303v-77h-303v-237h351v-77h-437v72q-29 -42 -75.5 -64.5q-46.5 -22.5 -106.5 -22.5zt0 0zM342 65q86 0 134 45q48 45 48 116v244q0 36 -12 66q-12 30 -35.5 52q-23.5 22 -57.5 34.5q-34 12.5 -77 12.5q-89 0 -135.5 -46.5q-46.5 -46.5 -46.5 -120.5v-236q0 -74 46.5 -120.5t135.5 -46.5z" />
<glyph unicode="&#339;" horiz-adv-x="888" d="M274 -12q-53 0 -93 14.5q-40 14.5 -67 40.5q-27 26 -40.5 60.5q-13.5 34.5 -13.5 75.5v156q0 40 13.5 75q13.5 35 40.5 61q27 26 67 40.5q40 14.5 93 14.5q63 0 106.5 -22.5q43.5 -22.5 66.5 -58.5q25 37 68 59q43 22 106 22q98 0 153 -51q55 -51 55 -138v-107h-342v-55q0 -51 34.5 -82.5q34.5 -31.5 99.5 -31.5q58 0 88 25.5q30 25.5 37 67.5l80 0q-7 -76 -59 -121q-52 -45 -146 -45q-63 0 -106.5 21q-43.5 21 -67.5 59q-24 -36 -67 -58q-43 -22 -106 -22zt0 0zM274 61q67 0 100 35q33 35 33 86v151q0 25 -8.5 46.5q-8.5 21.5 -25 38q-16.5 16.5 -41.5 26q-25 9.5 -58 9.5q-66 0 -100 -35q-34 -35 -34 -86v-150q0 -51 34 -86q34 -35 100 -35zt0 0zM749 295v42q0 51 -32.5 83.5q-32.5 32.5 -98.5 32.5q-64 0 -97.5 -32.5q-33.5 -32.5 -33.5 -83.5l0 -42z" />
<glyph unicode="&#340;" horiz-adv-x="651" d="M93 700h293q99 0 151 -56q52 -56 52 -155q0 -84 -36 -132q-36 -48 -98 -69l145 -259v-29h-86l-155 277h-179v-277h-87zM371 354q62 0 95.5 34q33.5 34 33.5 101q0 68 -33.5 101q-33.5 33 -95.5 33h-191v-269zM342 762h-77l102 151h82l0 -30z" />
<glyph unicode="&#341;" horiz-adv-x="368" d="M83 514h42l29 -68q13 15 31 29q18 14 39.5 25.5q21.5 11.5 46 18.5q24.5 7 51.5 7h13v-78h-11q-101 0 -161 -72l0 -376h-80zM223 590h-71l95 140h76l0 -28z" />
<glyph unicode="&#342;" horiz-adv-x="651" d="M93 700h293q99 0 151 -56q52 -56 52 -155q0 -84 -36 -132q-36 -48 -98 -69l145 -259v-29h-86l-155 277h-179v-277h-87zM371 354q62 0 95.5 34q33.5 34 33.5 101q0 68 -33.5 101q-33.5 33 -95.5 33h-191v-269zM300 -67h87v-37l-73 -147l-63 0z" />
<glyph unicode="&#343;" horiz-adv-x="368" d="M83 514h42l29 -68q13 15 31 29q18 14 39.5 25.5q21.5 11.5 46 18.5q24.5 7 51.5 7h13v-78h-11q-101 0 -161 -72l0 -376h-80zM83 -67h80v-37l-67 -147l-58 0z" />
<glyph unicode="&#344;" horiz-adv-x="651" d="M93 700h293q99 0 151 -56q52 -56 52 -155q0 -84 -36 -132q-36 -48 -98 -69l145 -259v-29h-86l-155 277h-179v-277h-87zM371 354q62 0 95.5 34q33.5 34 33.5 101q0 68 -33.5 101q-33.5 33 -95.5 33h-191v-269zM351 763h-74l-111 121v29h71l78 -95l77 95h70l0 -29z" />
<glyph unicode="&#345;" horiz-adv-x="368" d="M83 514h42l29 -68q13 15 31 29q18 14 39.5 25.5q21.5 11.5 46 18.5q24.5 7 51.5 7h13v-78h-11q-101 0 -161 -72l0 -376h-80zM239 590h-69l-104 113v27h67l72 -89l72 89h66l0 -27z" />
<glyph unicode="&#346;" horiz-adv-x="633" d="M318 -15q-53 0 -101.5 14.5q-48.5 14.5 -86 44q-37.5 29.5 -60 75q-22.5 45.5 -22.5 108.5l87 0q0 -46 17.5 -77q17.5 -31 44.5 -50q27 -19 60 -27q33 -8 65 -8q78 0 117 32.5q39 32.5 39 80.5q0 24 -10 42q-10 18 -30 32.5q-20 14.5 -50 28q-30 13.5 -70 28.5l-50 18q-48 17 -85 34.5q-37 17.5 -62 40q-25 22.5 -38 51.5q-13 29 -13 69q0 43 16.5 78.5q16.5 35.5 47.5 61q31 25.5 75.5 39.5q44.5 14 101.5 14q54 0 100 -13.5q46 -13.5 80.5 -42q34.5 -28.5 54 -73q19.5 -44.5 19.5 -107.5l-87 0q0 43 -14 73q-14 30 -37.5 48.5q-23.5 18.5 -53.5 26.5q-30 8 -63 8q-72 0 -112.5 -30q-40.5 -30 -40.5 -77q0 -24 9 -41.5q9 -17.5 27 -31.5q18 -14 45.5 -26.5q27.5 -12.5 65.5 -25.5l47 -17q45 -17 85 -34.5q40 -17.5 70 -40.5q30 -23 47 -54.5q17 -31.5 17 -74.5q0 -42 -16 -78q-16 -36 -47.5 -62.5q-31.5 -26.5 -78.5 -41.5q-47 -15 -110 -15zt0 0zM336 762h-77l102 151h82l0 -30z" />
<glyph unicode="&#347;" horiz-adv-x="546" d="M277 -12q-48 0 -89 11.5q-41 11.5 -71 35q-30 23.5 -47 58q-17 34.5 -17 81.5l80 0q0 -29 12 -50.5q12 -21.5 33 -35.5q21 -14 48 -20.5q27 -6.5 57 -6.5q57 0 88.5 22q31.5 22 31.5 56q0 28 -18.5 44q-18.5 16 -61.5 27l-127 33q-26 7 -48.5 17q-22.5 10 -39 25q-16.5 15 -26 37q-9.5 22 -9.5 53q0 33 13.5 60.5q13.5 27.5 39 47.5q25.5 20 62.5 31.5q37 11.5 84 11.5q92 0 147.5 -45q55.5 -45 55.5 -136l-80 0q0 56 -36.5 82q-36.5 26 -92.5 26q-59 0 -86 -22q-27 -22 -27 -51q0 -27 16.5 -42q16.5 -15 56.5 -26l125 -31q60 -15 96 -45q36 -30 36 -91q0 -35 -14 -64q-14 -29 -41 -49.5q-27 -20.5 -65 -32q-38 -11.5 -86 -11.5zt0 0zM285 590h-71l95 140h76l0 -28z" />
<glyph unicode="&#349;" horiz-adv-x="546" d="M277 -12q-48 0 -89 11.5q-41 11.5 -71 35q-30 23.5 -47 58q-17 34.5 -17 81.5l80 0q0 -29 12 -50.5q12 -21.5 33 -35.5q21 -14 48 -20.5q27 -6.5 57 -6.5q57 0 88.5 22q31.5 22 31.5 56q0 28 -18.5 44q-18.5 16 -61.5 27l-127 33q-26 7 -48.5 17q-22.5 10 -39 25q-16.5 15 -26 37q-9.5 22 -9.5 53q0 33 13.5 60.5q13.5 27.5 39 47.5q25.5 20 62.5 31.5q37 11.5 84 11.5q92 0 147.5 -45q55.5 -45 55.5 -136l-80 0q0 56 -36.5 82q-36.5 26 -92.5 26q-59 0 -86 -22q-27 -22 -27 -51q0 -27 16.5 -42q16.5 -15 56.5 -26l125 -31q60 -15 96 -45q36 -30 36 -91q0 -35 -14 -64q-14 -29 -41 -49.5q-27 -20.5 -65 -32q-38 -11.5 -86 -11.5zt0 0zM415 617v-27h-67l-72 84l-72 -84h-66v27l104 113l69 0z" />
<glyph unicode="&#352;" horiz-adv-x="633" d="M318 -15q-53 0 -101.5 14.5q-48.5 14.5 -86 44q-37.5 29.5 -60 75q-22.5 45.5 -22.5 108.5l87 0q0 -46 17.5 -77q17.5 -31 44.5 -50q27 -19 60 -27q33 -8 65 -8q78 0 117 32.5q39 32.5 39 80.5q0 24 -10 42q-10 18 -30 32.5q-20 14.5 -50 28q-30 13.5 -70 28.5l-50 18q-48 17 -85 34.5q-37 17.5 -62 40q-25 22.5 -38 51.5q-13 29 -13 69q0 43 16.5 78.5q16.5 35.5 47.5 61q31 25.5 75.5 39.5q44.5 14 101.5 14q54 0 100 -13.5q46 -13.5 80.5 -42q34.5 -28.5 54 -73q19.5 -44.5 19.5 -107.5l-87 0q0 43 -14 73q-14 30 -37.5 48.5q-23.5 18.5 -53.5 26.5q-30 8 -63 8q-72 0 -112.5 -30q-40.5 -30 -40.5 -77q0 -24 9 -41.5q9 -17.5 27 -31.5q18 -14 45.5 -26.5q27.5 -12.5 65.5 -25.5l47 -17q45 -17 85 -34.5q40 -17.5 70 -40.5q30 -23 47 -54.5q17 -31.5 17 -74.5q0 -42 -16 -78q-16 -36 -47.5 -62.5q-31.5 -26.5 -78.5 -41.5q-47 -15 -110 -15zt0 0zM355 763h-74l-111 121v29h71l78 -95l77 95h70l0 -29z" />
<glyph unicode="&#353;" horiz-adv-x="540" d="M274 -12q-48 0 -89 11.5q-41 11.5 -71 35q-30 23.5 -47 58q-17 34.5 -17 81.5l80 0q0 -29 12 -50.5q12 -21.5 33 -35.5q21 -14 48 -20.5q27 -6.5 57 -6.5q57 0 88.5 22q31.5 22 31.5 56q0 28 -18.5 44q-18.5 16 -61.5 27l-127 33q-26 7 -48.5 17q-22.5 10 -39 25q-16.5 15 -26 37q-9.5 22 -9.5 53q0 33 13.5 60.5q13.5 27.5 39 47.5q25.5 20 62.5 31.5q37 11.5 84 11.5q92 0 147.5 -45q55.5 -45 55.5 -136l-80 0q0 56 -36.5 82q-36.5 26 -92.5 26q-59 0 -86 -22q-27 -22 -27 -51q0 -27 16.5 -42q16.5 -15 56.5 -26l125 -31q60 -15 96 -45q36 -30 36 -91q0 -35 -14 -64q-14 -29 -41 -49.5q-27 -20.5 -65 -32q-38 -11.5 -86 -11.5zt0 0zM304 590h-69l-104 113v27h67l72 -89l72 89h66l0 -27z" />
<glyph unicode="&#356;" horiz-adv-x="558" d="M236 623h-213v77h512v-77h-212v-623h-87zM316 763h-74l-111 121v29h71l78 -95l77 95h70l0 -29z" />
<glyph unicode="&#357;" horiz-adv-x="493" d="M271 0q-48 0 -80 14.5q-32 14.5 -50.5 38q-18.5 23.5 -26 53.5q-7.5 30 -7.5 61v277h-84v70h84v107h80v-107h132v-70h-132v-275q0 -52 22.5 -74q22.5 -22 61.5 -22h48v-73h-48zM412 705h87v-37l-73 -147l-63 0z" />
<glyph unicode="&#362;" horiz-adv-x="681" d="M341 -15q-57 0 -104 16q-47 16 -81.5 46.5q-34.5 30.5 -53.5 76q-19 45.5 -19 104.5v472h87v-475q0 -73 45 -116.5q45 -43.5 126 -43.5q81 0 125.5 43q44.5 43 44.5 117v475h87v-472q0 -59 -19 -104q-19 -45 -53 -76q-34 -31 -81.5 -47q-47.5 -16 -103.5 -16zt0 0zM188 863h306v-71l-306 0z" />
<glyph unicode="&#363;" horiz-adv-x="582" d="M499 0h-48l-29 68q-26 -31 -68.5 -55.5q-42.5 -24.5 -99.5 -24.5q-38 0 -70.5 12.5q-32.5 12.5 -56 37q-23.5 24.5 -36.5 60.5q-13 36 -13 83v333h80v-324q0 -67 32 -98q32 -31 80 -31q24 0 46 7.5q22 7.5 41 19q19 11.5 34.5 26q15.5 14.5 27.5 28.5l0 372h80zM146 683h285v-66l-285 0z" />
<glyph unicode="&#366;" horiz-adv-x="681" d="M341 -15q-57 0 -104 16q-47 16 -81.5 46.5q-34.5 30.5 -53.5 76q-19 45.5 -19 104.5v472h87v-475q0 -73 45 -116.5q45 -43.5 126 -43.5q81 0 125.5 43q44.5 43 44.5 117v475h87v-472q0 -59 -19 -104q-19 -45 -53 -76q-34 -31 -81.5 -47q-47.5 -16 -103.5 -16zt0 0zM233 846q0 22 8.5 41.5q8.5 19.5 23.5 34q15 14.5 34.5 22.5q19.5 8 41.5 8q23 0 42.5 -8q19.5 -8 34.5 -22.5q15 -14.5 23.5 -34q8.5 -19.5 8.5 -41.5q0 -22 -8.5 -40.5q-8.5 -18.5 -23.5 -33q-15 -14.5 -34.5 -22.5q-19.5 -8 -42.5 -8q-22 0 -41.5 8q-19.5 8 -34.5 22.5q-15 14.5 -23.5 33q-8.5 18.5 -8.5 40.5zt0 0zM285 846q0 -22 17 -38q17 -16 39 -16q24 0 40.5 16q16.5 16 16.5 38q0 23 -16.5 39q-16.5 16 -40.5 16q-22 0 -39 -16t-17 -39z" />
<glyph unicode="&#367;" horiz-adv-x="582" d="M499 0h-48l-29 68q-26 -31 -68.5 -55.5q-42.5 -24.5 -99.5 -24.5q-38 0 -70.5 12.5q-32.5 12.5 -56 37q-23.5 24.5 -36.5 60.5q-13 36 -13 83v333h80v-324q0 -67 32 -98q32 -31 80 -31q24 0 46 7.5q22 7.5 41 19q19 11.5 34.5 26q15.5 14.5 27.5 28.5l0 372h80zM188 667q0 21 8 39q8 18 22 31.5q14 13.5 32 21q18 7.5 39 7.5q21 0 39.5 -7.5q18.5 -7.5 32.5 -21q14 -13.5 22 -31.5q8 -18 8 -39q0 -20 -8 -37.5q-8 -17.5 -22 -31q-14 -13.5 -32.5 -21q-18.5 -7.5 -39.5 -7.5q-21 0 -39 7.5q-18 7.5 -32 21q-14 13.5 -22 31q-8 17.5 -8 37.5zt0 0zM237 667q0 -20 15.5 -35q15.5 -15 36.5 -15q22 0 37.5 15q15.5 15 15.5 35q0 22 -15.5 37q-15.5 15 -37.5 15q-21 0 -36.5 -15t-15.5 -37z" />
<glyph unicode="&#368;" horiz-adv-x="681" d="M341 -15q-57 0 -104 16q-47 16 -81.5 46.5q-34.5 30.5 -53.5 76q-19 45.5 -19 104.5v472h87v-475q0 -73 45 -116.5q45 -43.5 126 -43.5q81 0 125.5 43q44.5 43 44.5 117v475h87v-472q0 -59 -19 -104q-19 -45 -53 -76q-34 -31 -81.5 -47q-47.5 -16 -103.5 -16zt0 0zM267 763h-77l102 150h82v-30zM450 763h-76l102 150h81l0 -30z" />
<glyph unicode="&#369;" horiz-adv-x="582" d="M499 0h-48l-29 68q-26 -31 -68.5 -55.5q-42.5 -24.5 -99.5 -24.5q-38 0 -70.5 12.5q-32.5 12.5 -56 37q-23.5 24.5 -36.5 60.5q-13 36 -13 83v333h80v-324q0 -67 32 -98q32 -31 80 -31q24 0 46 7.5q22 7.5 41 19q19 11.5 34.5 26q15.5 14.5 27.5 28.5l0 372h80zM222 590h-71l95 140h76v-28zM393 590h-71l95 140h76l0 -28z" />
<glyph unicode="&#370;" horiz-adv-x="681" d="M466 -160q-48 0 -75.5 19.5q-27.5 19.5 -27.5 53.5q0 17 9.5 36.5q9.5 19.5 31.5 41.5q-15 -2 -30.5 -4q-15.5 -2 -32.5 -2q-57 0 -104 16q-47 16 -81.5 46.5q-34.5 30.5 -53.5 76q-19 45.5 -19 104.5v472h87v-475q0 -73 45 -116.5q45 -43.5 126 -43.5q81 0 125.5 43q44.5 43 44.5 117v475h87v-472q0 -39 -7.5 -70.5q-7.5 -31.5 -22.5 -58.5q-15 -27 -37.5 -51q-22.5 -24 -52.5 -48q-42 -35 -42 -61q0 -32 52 -32h34v-67l-56 0z" />
<glyph unicode="&#371;" horiz-adv-x="582" d="M491 -160q-47 0 -73.5 19.5q-26.5 19.5 -26.5 54.5q0 18 13.5 39.5q13.5 21.5 46.5 46.5l-29 68q-26 -31 -68.5 -55.5q-42.5 -24.5 -99.5 -24.5q-38 0 -70.5 12.5q-32.5 12.5 -56 37q-23.5 24.5 -36.5 60.5q-13 36 -13 83v333h80v-324q0 -67 32 -98q32 -31 80 -31q24 0 46 7.5q22 7.5 41 19q19 11.5 34.5 26q15.5 14.5 27.5 28.5l0 372h80v-514q-27 -20 -39 -37q-12 -17 -12 -31q0 -20 16 -29q16 -9 44 -9h39v-54l-56 0z" />
<glyph unicode="&#376;" horiz-adv-x="609" d="M261 278l-248 393v29h86l206 -335l211 335h79v-29l-247 -390v-281h-87zM162 889h86v-118h-86zM364 889h86v-118l-86 0z" />
<glyph unicode="&#377;" horiz-adv-x="577" d="M43 76l382 547h-368v77h468v-75l-382 -548h392v-77h-492zM301 762h-77l102 151h82l0 -30z" />
<glyph unicode="&#378;" horiz-adv-x="520" d="M53 70l300 374h-288v70h385v-70l-302 -374h310v-70h-405zM260 590h-71l95 140h76l0 -28z" />
<glyph unicode="&#379;" horiz-adv-x="577" d="M43 76l382 547h-368v77h468v-75l-382 -548h392v-77h-492zM242 892h85v-118l-85 0z" />
<glyph unicode="&#380;" horiz-adv-x="520" d="M53 70l300 374h-288v70h385v-70l-302 -374h310v-70h-405zM211 710h80v-110l-80 0z" />
<glyph unicode="&#381;" horiz-adv-x="577" d="M43 76l382 547h-368v77h468v-75l-382 -548h392v-77h-492zM329 763h-74l-111 121v29h71l78 -95l77 95h70l0 -29z" />
<glyph unicode="&#382;" horiz-adv-x="520" d="M53 70l300 374h-288v70h385v-70l-302 -374h310v-70h-405zM296 590h-69l-104 113v27h67l72 -89l72 89h66l0 -27z" />
<glyph unicode="&#402;" horiz-adv-x="374" d="M137 514l3 28q3 36 13.5 66.5q10.5 30.5 31 52.5q20.5 22 52.5 34q32 12 79 12q10 0 19.5 -0.5q9.5 -0.5 15.5 -1.5l0 -72q-2 0 -8.5 0.5q-6.5 0.5 -17.5 0.5q-52 0 -76 -22q-24 -22 -29 -70l-3 -28h129v-70h-135l-35 -445q-3 -36 -12.5 -67.5q-9.5 -31.5 -29 -54.5q-19.5 -23 -49 -36q-29.5 -13 -72.5 -13q-10 0 -19.5 0.5q-9.5 0.5 -16.5 1.5l0 72q1 -1 4 -1h9q54 0 78 23.5q24 23.5 28 74.5l35 445h-78l0 70z" />
<glyph unicode="&#537;" horiz-adv-x="546" d="M277 -12q-48 0 -89 11.5q-41 11.5 -71 35q-30 23.5 -47 58q-17 34.5 -17 81.5l80 0q0 -29 12 -50.5q12 -21.5 33 -35.5q21 -14 48 -20.5q27 -6.5 57 -6.5q57 0 88.5 22q31.5 22 31.5 56q0 28 -18.5 44q-18.5 16 -61.5 27l-127 33q-26 7 -48.5 17q-22.5 10 -39 25q-16.5 15 -26 37q-9.5 22 -9.5 53q0 33 13.5 60.5q13.5 27.5 39 47.5q25.5 20 62.5 31.5q37 11.5 84 11.5q92 0 147.5 -45q55.5 -45 55.5 -136l-80 0q0 56 -36.5 82q-36.5 26 -92.5 26q-59 0 -86 -22q-27 -22 -27 -51q0 -27 16.5 -42q16.5 -15 56.5 -26l125 -31q60 -15 96 -45q36 -30 36 -91q0 -35 -14 -64q-14 -29 -41 -49.5q-27 -20.5 -65 -32q-38 -11.5 -86 -11.5zt0 0zM240 -67h80v-37l-67 -147l-58 0z" />
<glyph unicode="&#710;" horiz-adv-x="404" d="M340 617v-27h-67l-72 84l-72 -84h-66v27l104 113l69 0z" />
<glyph unicode="&#711;" horiz-adv-x="404" d="M236 590h-69l-104 113v27h67l72 -89l72 89h66l0 -27z" />
<glyph unicode="&#728;" horiz-adv-x="402" d="M201 571q-69 0 -112.5 35.5q-43.5 35.5 -43.5 101.5v12h70v-11q0 -36 22 -56.5q22 -20.5 64 -20.5q42 0 64.5 20.5q22.5 20.5 22.5 56.5v11h70v-12q0 -66 -44 -101.5t-113 -35.5z" />
<glyph unicode="&#729;" horiz-adv-x="206" d="M63 710h80v-110l-80 0z" />
<glyph unicode="&#730;" horiz-adv-x="336" d="M67 667q0 21 8 39q8 18 22 31.5q14 13.5 32 21q18 7.5 39 7.5q21 0 39.5 -7.5q18.5 -7.5 32.5 -21q14 -13.5 22 -31.5q8 -18 8 -39q0 -20 -8 -37.5q-8 -17.5 -22 -31q-14 -13.5 -32.5 -21q-18.5 -7.5 -39.5 -7.5q-21 0 -39 7.5q-18 7.5 -32 21q-14 13.5 -22 31q-8 17.5 -8 37.5zt0 0zM116 667q0 -20 15.5 -35q15.5 -15 36.5 -15q22 0 37.5 15q15.5 15 15.5 35q0 22 -15.5 37q-15.5 15 -37.5 15q-21 0 -36.5 -15t-15.5 -37z" />
<glyph unicode="&#731;" horiz-adv-x="276" d="M152 -160q-47 0 -73.5 19.5q-26.5 19.5 -26.5 54.5q0 18 11.5 39.5q11.5 21.5 40.5 46.5l56 0q-27 -20 -39 -37q-12 -17 -12 -31q0 -20 16 -29q16 -9 44 -9h39v-54l-56 0z" />
<glyph unicode="&#732;" horiz-adv-x="486" d="M64 634q27 45 51.5 69q24.5 24 55.5 24q20 0 36.5 -7.5q16.5 -7.5 31.5 -17.5l20 -13q14 -10 26.5 -16q12.5 -6 25.5 -6q14 0 27 12q13 12 36 45l48 -32q-26 -45 -51 -69q-25 -24 -57 -24q-19 0 -34.5 6q-15.5 6 -29.5 16l-19 13q-15 10 -28 17.5q-13 7.5 -27 7.5q-15 0 -28 -12.5q-13 -12.5 -36 -44.5z" />
<glyph unicode="&#733;" horiz-adv-x="464" d="M132 590h-71l95 140h76v-28zM303 590h-71l95 140h76l0 -28z" />
<glyph unicode="&#937;" horiz-adv-x="720" d="M75 77h121q-57 29 -81 78q-24 49 -24 115v194q0 60 19 106.5q19 46.5 54 78.5q35 32 84.5 49q49.5 17 111.5 17q61 0 111 -17q50 -17 85 -49q35 -32 54 -78.5q19 -46.5 19 -106.5v-194q0 -66 -24 -115q-24 -49 -82 -78l122 0v-77h-233v80q33 7 57.5 24.5q24.5 17.5 40.5 42.5q16 25 24 56q8 31 8 64v201q0 36 -12 67q-12 31 -35 53q-23 22 -57 34.5q-34 12.5 -78 12.5q-44 0 -78 -12.5q-34 -12.5 -57 -34.5q-23 -22 -35 -53q-12 -31 -12 -67v-201q0 -33 8 -64q8 -31 24 -56q16 -25 40.5 -42.5q24.5 -17.5 57.5 -24.5l0 -80l-233 0z" />
<glyph unicode="&#960;" horiz-adv-x="673" d="M135 444h-102v70h607v-70h-102v-444h-80v444h-243v-444l-80 0z" />
<glyph unicode="&#1025;" horiz-adv-x="584" d="M93 700h436v-77h-349v-232h302v-77h-302v-237h350v-77h-437zM166 886h86v-118h-86zM368 886h86v-118l-86 0z" />
<glyph unicode="&#1026;" horiz-adv-x="743" d="M200 623h-177v77h507v-77h-243v-216q45 13 82.5 18q37.5 5 79.5 5q60 0 106 -16q46 -16 77 -45.5q31 -29.5 47 -71q16 -41.5 16 -91.5q0 -94 -54.5 -150q-54.5 -56 -153.5 -56h-57v77h54q60 0 91 36q31 36 31 93q0 70 -44.5 107q-44.5 37 -122.5 37q-44 0 -78 -5q-34 -5 -74 -18l0 -327l-87 0z" />
<glyph unicode="&#1027;" horiz-adv-x="563" d="M321 762h-77l102 151h82v-30zM93 700h427v-77h-340v-623l-87 0z" />
<glyph unicode="&#1028;" horiz-adv-x="659" d="M343 -15q51 0 96.5 14.5q45.5 14.5 80.5 44q35 29.5 55.5 74.5q20.5 45 20.5 107l-82 0q0 -41 -15 -71q-15 -30 -39 -50q-24 -20 -54.5 -29.5q-30.5 -9.5 -62.5 -9.5q-89 0 -136 43q-47 43 -47 120v85h274v77h-274v82q0 77 47 120q47 43 136 43q32 0 62.5 -9.5q30.5 -9.5 54.5 -29.5q24 -20 39 -50q15 -30 15 -71l82 0q0 62 -20.5 107q-20.5 45 -55.5 74.5q-35 29.5 -80.5 44q-45.5 14.5 -96.5 14.5q-127 0 -198.5 -65.5q-71.5 -65.5 -71.5 -183.5v-232q0 -118 71.5 -183.5t198.5 -65.5z" />
<glyph unicode="&#1029;" horiz-adv-x="633" d="M318 -15q-53 0 -101.5 14.5q-48.5 14.5 -86 44q-37.5 29.5 -60 75q-22.5 45.5 -22.5 108.5l87 0q0 -46 17.5 -77q17.5 -31 44.5 -50q27 -19 60 -27q33 -8 65 -8q78 0 117 32.5q39 32.5 39 80.5q0 24 -10 42q-10 18 -30 32.5q-20 14.5 -50 28q-30 13.5 -70 28.5l-50 18q-48 17 -85 34.5q-37 17.5 -62 40q-25 22.5 -38 51.5q-13 29 -13 69q0 43 16.5 78.5q16.5 35.5 47.5 61q31 25.5 75.5 39.5q44.5 14 101.5 14q54 0 100 -13.5q46 -13.5 80.5 -42q34.5 -28.5 54 -73q19.5 -44.5 19.5 -107.5l-87 0q0 43 -14 73q-14 30 -37.5 48.5q-23.5 18.5 -53.5 26.5q-30 8 -63 8q-72 0 -112.5 -30q-40.5 -30 -40.5 -77q0 -24 9 -41.5q9 -17.5 27 -31.5q18 -14 45.5 -26.5q27.5 -12.5 65.5 -25.5l47 -17q45 -17 85 -34.5q40 -17.5 70 -40.5q30 -23 47 -54.5q17 -31.5 17 -74.5q0 -42 -16 -78q-16 -36 -47.5 -62.5q-31.5 -26.5 -78.5 -41.5t-110 -15z" />
<glyph unicode="&#1030;" horiz-adv-x="273" d="M93 700h87v-700l-87 0z" />
<glyph unicode="&#1031;" horiz-adv-x="273" d="M93 700h87v-700h-87zM-7 886h86v-118h-86zM195 886h86v-118l-86 0z" />
<glyph unicode="&#1032;" horiz-adv-x="572" d="M256 -15q-51 0 -93.5 12.5q-42.5 12.5 -73.5 39q-31 26.5 -48.5 68q-17.5 41.5 -17.5 99.5v29h87v-30q0 -70 39.5 -104q39.5 -34 106.5 -34q31 0 58 8.5q27 8.5 46.5 26q19.5 17.5 30.5 44q11 26.5 11 62.5v494h87v-496q0 -57 -17.5 -98.5q-17.5 -41.5 -49 -68q-31.5 -26.5 -74 -39.5t-92.5 -13z" />
<glyph unicode="&#1033;" horiz-adv-x="1027" d="M235 350q0 -99 -13 -166.5q-13 -67.5 -40 -108q-27 -40.5 -68.5 -58q-41.5 -17.5 -97.5 -17.5l0 80q39 0 65.5 12q26.5 12 42 43.5q15.5 31.5 22.5 85.5q7 54 7 138v341h426v-279h203q94 0 145 -56.5q51 -56.5 51 -153.5q0 -97 -51 -154q-51 -57 -145 -57h-290v623h-257zM772 77q54 0 85.5 34.5q31.5 34.5 31.5 99.5q0 63 -31.5 98q-31.5 35 -85.5 35h-193l0 -267z" />
<glyph unicode="&#1034;" horiz-adv-x="1055" d="M521 344h-338v-344h-87v700h87v-279h338v279h87v-279h203q94 0 145 -56.5q51 -56.5 51 -153.5q0 -97 -51 -154q-51 -57 -145 -57h-290zM801 77q54 0 85.5 34.5q31.5 34.5 31.5 99.5q0 63 -31.5 98q-31.5 35 -85.5 35h-193l0 -267z" />
<glyph unicode="&#1035;" horiz-adv-x="756" d="M287 0h-87v623h-177v77h507v-77h-243v-220q35 12 75.5 19.5q40.5 7.5 81.5 7.5q45 0 89 -8.5q44 -8.5 79.5 -32q35.5 -23.5 57.5 -64.5q22 -41 22 -105v-220h-87v211q0 67 -41 103q-41 36 -126 36q-39 0 -78 -7q-39 -7 -73 -21z" />
<glyph unicode="&#1036;" horiz-adv-x="612" d="M93 700h87v-310h112l203 310h81v-29l-208 -315l221 -327v-29h-86l-210 313h-113v-313h-87zM345 762h-77l102 151h82l0 -30z" />
<glyph unicode="&#1038;" horiz-adv-x="576" d="M260 189l-247 482v29h81l210 -414l182 414h77v-29l-297 -671h-83v29zM291 740q-69 0 -112.5 35.5q-43.5 35.5 -43.5 101.5v12h70v-11q0 -36 22 -56.5q22 -20.5 64 -20.5q42 0 64.5 20.5q22.5 20.5 22.5 56.5v11h70v-12q0 -66 -44 -101.5t-113 -35.5z" />
<glyph unicode="&#1039;" horiz-adv-x="694" d="M307 0h-214v700h87v-623h334v623h87v-700h-214v-140l-80 0z" />
<glyph unicode="&#1040;" horiz-adv-x="656" d="M23 29l261 671h87l262 -671v-29h-86l-70 186h-302l-72 -186h-80zM450 260l-124 324l-125 -324z" />
<glyph unicode="&#1041;" horiz-adv-x="653" d="M93 700h466v-77h-379v-202h228q91 0 141.5 -57q50.5 -57 50.5 -153q0 -97 -50.5 -154q-50.5 -57 -141.5 -57h-315zM392 77q52 0 85.5 34q33.5 34 33.5 100q0 65 -33.5 99q-33.5 34 -85.5 34h-212l0 -267z" />
<glyph unicode="&#1042;" horiz-adv-x="655" d="M93 700h294q88 0 138 -46.5q50 -46.5 50 -137.5q0 -63 -25 -99q-25 -36 -66 -53q24 -7 45.5 -20q21.5 -13 37.5 -34q16 -21 25.5 -50q9.5 -29 9.5 -69q0 -94 -50.5 -142.5q-50.5 -48.5 -139.5 -48.5h-319zM397 77q58 0 88 31q30 31 30 88q0 58 -30 89.5q-30 31.5 -88 31.5h-217v-240zM374 391q56 0 85 30.5q29 30.5 29 85.5q0 56 -29.5 86q-29.5 30 -86.5 30h-192l0 -232z" />
<glyph unicode="&#1043;" horiz-adv-x="563" d="M93 700h427v-77h-340v-623l-87 0z" />
<glyph unicode="&#1044;" horiz-adv-x="708" d="M28 77h53q17 22 33.5 48.5q16.5 26.5 29 64q12.5 37.5 20.5 88.5q8 51 8 123v299h412v-623h86v-220h-80v143h-482v-143h-80zM497 77v546h-245v-222q0 -70 -6.5 -120.5q-6.5 -50.5 -17.5 -88q-11 -37.5 -25 -64.5q-14 -27 -28 -51z" />
<glyph unicode="&#1045;" horiz-adv-x="584" d="M93 700h436v-77h-349v-232h302v-77h-302v-237h350v-77l-437 0z" />
<glyph unicode="&#1046;" horiz-adv-x="897" d="M405 313h-110l-175 -313h-87v29l189 326l-175 316v29h79l169 -310h110v310h87v-310h110l169 310h79v-29l-175 -316l189 -326v-29h-87l-175 313h-110v-313l-87 0z" />
<glyph unicode="&#1047;" horiz-adv-x="614" d="M316 -15q-54 0 -101.5 14.5q-47.5 14.5 -83.5 44q-36 29.5 -57 74q-21 44.5 -21 105.5l87 0q0 -40 14.5 -70q14.5 -30 38.5 -49.5q24 -19.5 56.5 -29q32.5 -9.5 69.5 -9.5q74 0 114.5 34.5q40.5 34.5 40.5 98.5q0 58 -38.5 89.5q-38.5 31.5 -106.5 31.5h-98v77h98q59 0 93 28q34 28 34 85q0 53 -37 89.5q-37 36.5 -108 36.5q-33 0 -61.5 -9.5q-28.5 -9.5 -49.5 -29q-21 -19.5 -33 -49.5q-12 -30 -12 -70l-87 0q0 61 19 105.5q19 44.5 52 74q33 29.5 77 44q44 14.5 95 14.5q56 0 99.5 -15q43.5 -15 73 -41.5q29.5 -26.5 45 -62.5q15.5 -36 15.5 -79q0 -63 -31 -101.5q-31 -38.5 -76 -55.5q51 -14 87.5 -54.5q36.5 -40.5 36.5 -107.5q0 -48 -16.5 -87.5q-16.5 -39.5 -47.5 -67q-31 -27.5 -77 -43t-104 -15.5z" />
<glyph unicode="&#1048;" horiz-adv-x="704" d="M93 700h87v-549l351 549h80v-700h-87v549l-351 -549l-80 0z" />
<glyph unicode="&#1049;" horiz-adv-x="704" d="M93 700h87v-549l351 549h80v-700h-87v549l-351 -549h-80zM352 740q-69 0 -112.5 35.5q-43.5 35.5 -43.5 101.5v12h70v-11q0 -36 22 -56.5q22 -20.5 64 -20.5q42 0 64.5 20.5q22.5 20.5 22.5 56.5v11h70v-12q0 -66 -44 -101.5t-113 -35.5z" />
<glyph unicode="&#1050;" horiz-adv-x="612" d="M93 700h87v-310h112l203 310h81v-29l-208 -315l221 -327v-29h-86l-210 313h-113v-313l-87 0z" />
<glyph unicode="&#1051;" horiz-adv-x="672" d="M16 80q39 0 65.5 12q26.5 12 42 43.5q15.5 31.5 22.5 85.5q7 54 7 138v341h426v-700h-87v623h-257v-273q0 -99 -13 -166.5q-13 -67.5 -40 -108q-27 -40.5 -68.5 -58q-41.5 -17.5 -97.5 -17.5z" />
<glyph unicode="&#1052;" horiz-adv-x="803" d="M93 700h84l226 -355l226 355h81v-700h-84v546l-196 -308h-57l-196 307v-545l-84 0z" />
<glyph unicode="&#1053;" horiz-adv-x="701" d="M93 700h87v-310h341v310h87v-700h-87v313h-341v-313l-87 0z" />
<glyph unicode="&#1054;" horiz-adv-x="684" d="M342 65q88 0 135 46.5q47 46.5 47 120.5v236q0 74 -47 120.5q-47 46.5 -135 46.5q-89 0 -135.5 -46.5q-46.5 -46.5 -46.5 -120.5v-236q0 -74 46.5 -120.5q46.5 -46.5 135.5 -46.5zt0 0zM342 -15q-62 0 -111.5 17q-49.5 17 -84.5 49q-35 32 -54 78.5q-19 46.5 -19 106.5v228q0 60 19 106.5q19 46.5 54 78.5q35 32 84.5 49q49.5 17 111.5 17q61 0 111 -17q50 -17 85 -49q35 -32 54 -78.5q19 -46.5 19 -106.5v-228q0 -60 -19 -106.5q-19 -46.5 -54 -78.5q-35 -32 -85 -49t-111 -17z" />
<glyph unicode="&#1055;" horiz-adv-x="695" d="M93 700h509v-700h-87v623h-335v-623l-87 0z" />
<glyph unicode="&#1056;" horiz-adv-x="627" d="M93 700h293q91 0 142 -57q51 -57 51 -154q0 -96 -51 -153q-51 -57 -142 -57h-206v-279h-87zM371 356q53 0 86 34q33 34 33 99q0 66 -33 100q-33 34 -86 34h-191l0 -267z" />
<glyph unicode="&#1057;" horiz-adv-x="659" d="M341 -15q-128 0 -198 66q-70 66 -70 186v226q0 120 70 186q70 66 198 66q51 0 97 -14.5q46 -14.5 81 -43.5q35 -29 56 -74q21 -45 21 -106v-10h-87v10q0 41 -15 70.5q-15 29.5 -39 49q-24 19.5 -54.5 29q-30.5 9.5 -60.5 9.5q-89 0 -134.5 -44q-45.5 -44 -45.5 -122v-238q0 -78 45.5 -122q45.5 -44 134.5 -44q30 0 60.5 9.5q30.5 9.5 54.5 29q24 19.5 39 49q15 29.5 15 70.5v10h87v-10q0 -61 -21 -106q-21 -45 -56 -74q-35 -29 -81 -43.5t-97 -14.5z" />
<glyph unicode="&#1058;" horiz-adv-x="558" d="M236 623h-213v77h512v-77h-212v-623l-87 0z" />
<glyph unicode="&#1059;" horiz-adv-x="576" d="M260 189l-247 482v29h81l210 -414l182 414h77v-29l-297 -671h-83l0 29z" />
</font>
</defs>
</svg>
