<?xml version="1.0" standalone="no"?>
<!DOCTYPE svg PUBLIC "-//W3C//DTD SVG 1.1//EN" "http://www.w3.org/Graphics/SVG/1.1/DTD/svg11.dtd" >
<svg xmlns="http://www.w3.org/2000/svg">
<metadata>
Generated by SVGconv.
Copyright   : Copyright (c) 2013 by Gayane Bagdasaryan, Dmitry Rastvortsev. All rights reserved.
Designer    : Gayane Bagdasaryan, Dmitry Rastvortsev
Foundry     : Gayane Bagdasaryan, Dmitry Rastvortsev
Foundry URL : http://www.brownfox.org
</metadata>
<defs>
<font id="BrutalType-Light" horiz-adv-x="547" >
<font-face units-per-em="1000" ascent="955" descent="277" />
<missing-glyph horiz-adv-x="500" />
<glyph unicode="&#13;" horiz-adv-x="257" />
<glyph unicode="&#32;" horiz-adv-x="257" />
<glyph unicode="&#33;" horiz-adv-x="250" d="M96 123h58v-123h-58zM98 700h54v-480l-54 0z" />
<glyph unicode="&#34;" horiz-adv-x="330" d="M50 593v112h58v-112l-13 -112h-32zM221 593v112h59v-112l-13 -112l-32 0z" />
<glyph unicode="&#35;" horiz-adv-x="628" d="M104 20l34 173h-109v50h119l42 214h-119v50h129l38 193h48v-20l-33 -173h184l38 193h48v-20l-34 -173h111v-50h-121l-42 -214h120v-50h-130l-38 -193h-48v20l33 173h-184l-37 -193h-49zM385 243l42 214h-185l-42 -214z" />
<glyph unicode="&#36;" horiz-adv-x="607" d="M105 227q0 -53 18 -89.5q18 -36.5 47.5 -59.5q29.5 -23 66.5 -33q37 -10 75 -10q86 0 129.5 39q43.5 39 43.5 96q0 27 -9 47q-9 20 -26 36q-17 16 -41.5 29q-24.5 13 -56.5 26l-95 37q-48 19 -82.5 36.5q-34.5 17.5 -57 39q-22.5 21.5 -33 48.5q-10.5 27 -10.5 65q0 37 14 69q14 32 40 56q26 24 64 38q38 14 86 17l0 92h54v-94q41 -4 78.5 -20q37.5 -16 65.5 -44.5q28 -28.5 44.5 -70q16.5 -41.5 16.5 -98.5l-54 0q0 52 -15.5 87.5q-15.5 35.5 -41.5 57.5q-26 22 -59.5 31.5q-33.5 9.5 -70.5 9.5q-78 0 -122.5 -36q-44.5 -36 -44.5 -93q0 -27 8 -47q8 -20 24.5 -35q16.5 -15 41.5 -28q25 -13 59 -26l95 -37q42 -16 76 -33.5q34 -17.5 58 -39q24 -21.5 37 -50q13 -28.5 13 -66.5q0 -37 -12.5 -69.5q-12.5 -32.5 -38 -57.5q-25.5 -25 -65 -41q-39.5 -16 -93.5 -19l0 -100h-54v100q-44 3 -85 18.5q-41 15.5 -72.5 45q-31.5 29.5 -50.5 73q-19 43.5 -19 103.5z" />
<glyph unicode="&#37;" horiz-adv-x="763" d="M192 394q50 0 74 28q24 28 24 67v88q0 40 -24 67.5q-24 27.5 -74 27.5q-48 0 -73 -27q-25 -27 -25 -68v-88q0 -41 25 -68q25 -27 73 -27zt0 0zM192 351q-71 0 -108.5 38.5q-37.5 38.5 -37.5 103.5v80q0 65 37.5 103.5q37.5 38.5 108.5 38.5q72 0 109 -38.5q37 -38.5 37 -103.5v-80q0 -65 -37 -103.5q-37 -38.5 -109 -38.5zt0 0zM161 20l393 680h47v-20l-394 -680h-46zM571 28q50 0 74.5 28q24.5 28 24.5 67v88q0 40 -24.5 67.5q-24.5 27.5 -74.5 27.5q-48 0 -73 -27q-25 -27 -25 -68v-88q0 -41 25 -68q25 -27 73 -27zt0 0zM571 -15q-71 0 -108.5 38.5q-37.5 38.5 -37.5 103.5v80q0 65 37.5 103.5q37.5 38.5 108.5 38.5q72 0 109.5 -38.5q37.5 -38.5 37.5 -103.5v-80q0 -65 -37.5 -103.5t-109.5 -38.5z" />
<glyph unicode="&#38;" horiz-adv-x="610" d="M590 0h-47l-78 83q-38 -45 -91 -71q-53 -26 -121 -26q-50 0 -90 14q-40 14 -68.5 39q-28.5 25 -44 60.5q-15.5 35.5 -15.5 77.5q0 30 7.5 55q7.5 25 22 48q14.5 23 36 44.5q21.5 21.5 49.5 44.5l29 24l-30 34q-13 15 -24.5 29.5q-11.5 14.5 -20.5 30.5q-9 16 -14.5 34.5q-5.5 18.5 -5.5 41.5q0 32 11.5 58.5q11.5 26.5 32 45.5q20.5 19 48 29.5q27.5 10.5 60.5 10.5q32 0 59 -10q27 -10 46.5 -29q19.5 -19 30.5 -45q11 -26 11 -59q0 -42 -22 -74q-22 -32 -54 -58l-52 -42l205 -226q40 72 40 169l51 0q0 -118 -54 -207l93 -100zM254 35q57 0 101.5 22.5q44.5 22.5 75.5 61.5l-217 238l-31 -25q-23 -19 -40.5 -35.5q-17.5 -16.5 -29.5 -34q-12 -17.5 -18 -37q-6 -19.5 -6 -43.5q0 -33 12.5 -60q12.5 -27 34 -46.5q21.5 -19.5 52 -30q30.5 -10.5 66.5 -10.5zt0 0zM138 563q0 -14 2.5 -26q2.5 -12 9 -24.5q6.5 -12.5 17.5 -26.5q11 -14 28 -32l26 -29l49 41q28 23 44.5 46q16.5 23 16.5 53q0 42 -27.5 67.5q-27.5 25.5 -68.5 25.5q-42 0 -69.5 -26t-27.5 -69z" />
<glyph unicode="&#39;" horiz-adv-x="158" d="M50 593v112h58v-112l-13 -112l-32 0z" />
<glyph unicode="&#40;" horiz-adv-x="299" d="M270 -160q-80 0 -127 43q-47 43 -47 127v572q0 84 47 127q47 43 127 43l0 -50q-56 0 -88 -31q-32 -31 -32 -87v-576q0 -56 32 -87q32 -31 88 -31l0 -50z" />
<glyph unicode="&#41;" horiz-adv-x="299" d="M29 -160q80 0 127 43q47 43 47 127v572q0 84 -47 127q-47 43 -127 43l0 -50q56 0 88 -31q32 -31 32 -87v-576q0 -56 -32 -87q-32 -31 -88 -31l0 -50z" />
<glyph unicode="&#42;" horiz-adv-x="413" d="M186 484l-130 -78l-22 39l132 74l-132 74l22 38l130 -77l-1 151h43l-1 -151l130 78l22 -39l-133 -74l133 -74l-22 -38l-130 77l1 -151l-43 0z" />
<glyph unicode="&#43;" horiz-adv-x="525" d="M238 290h-184v46h184v184h49v-184h184v-46h-184v-187l-49 0z" />
<glyph unicode="&#44;" horiz-adv-x="216" d="M101 129h59v-26l-84 -199l-43 0z" />
<glyph unicode="&#45;" horiz-adv-x="435" d="M66 338h304v-50l-304 0z" />
<glyph unicode="&#46;" horiz-adv-x="216" d="M79 129h58v-129l-58 0z" />
<glyph unicode="&#47;" horiz-adv-x="456" d="M46 -80l315 832h49v-20l-315 -832l-49 0z" />
<glyph unicode="&#48;" horiz-adv-x="597" d="M298 35q80 0 124.5 46.5q44.5 46.5 44.5 123.5v289q0 78 -44.5 124.5q-44.5 46.5 -124.5 46.5q-80 0 -124 -46.5q-44 -46.5 -44 -124.5v-289q0 -77 44 -123.5q44 -46.5 124 -46.5zt0 0zM298 -15q-102 0 -162 58.5q-60 58.5 -60 164.5v284q0 106 60 164.5q60 58.5 162 58.5q51 0 92 -15q41 -15 70.5 -43.5q29.5 -28.5 45 -70q15.5 -41.5 15.5 -94.5v-284q0 -53 -15.5 -94.5q-15.5 -41.5 -45 -70q-29.5 -28.5 -70.5 -43.5t-92 -15z" />
<glyph unicode="&#49;" horiz-adv-x="257" d="M107 639h-64v28l64 33h54v-700l-54 0z" />
<glyph unicode="&#50;" horiz-adv-x="559" d="M61 45l212 216q27 28 54 56.5q27 28.5 48.5 59q21.5 30.5 34.5 63.5q13 33 13 69q0 72 -41 114q-41 42 -113 42q-73 0 -117 -45.5q-44 -45.5 -45 -127.5l-51 0q0 54 16.5 95.5q16.5 41.5 45 70q28.5 28.5 67.5 43q39 14.5 84 14.5q48 0 86.5 -15q38.5 -15 65.5 -42q27 -27 41.5 -65q14.5 -38 14.5 -84q0 -45 -15.5 -83.5q-15.5 -38.5 -39.5 -73q-24 -34.5 -53 -65q-29 -30.5 -56 -57.5l-178 -180h357v-50l-431 0z" />
<glyph unicode="&#51;" horiz-adv-x="569" d="M282 -15q-51 0 -92.5 15q-41.5 15 -71.5 42.5q-30 27.5 -46.5 67.5q-16.5 40 -17.5 91l52 0q2 -76 48.5 -121q46.5 -45 128.5 -45q81 0 124 44q43 44 43 119q0 65 -40.5 104.5q-40.5 39.5 -111.5 39.5h-61v47h59q63 0 100.5 36q37.5 36 37.5 99q0 27 -9.5 52.5q-9.5 25.5 -28 45q-18.5 19.5 -47 31.5q-28.5 12 -66.5 12q-76 0 -118 -44q-42 -44 -43 -125l-52 0q1 106 58.5 162.5q57.5 56.5 154.5 56.5q49 0 87 -15q38 -15 64 -40.5q26 -25.5 39.5 -59.5q13.5 -34 13.5 -72q0 -66 -32 -105q-32 -39 -79 -55q26 -7 49.5 -21.5q23.5 -14.5 41 -36.5q17.5 -22 27.5 -51q10 -29 10 -64q0 -99 -58.5 -154.5t-163.5 -55.5z" />
<glyph unicode="&#52;" horiz-adv-x="542" d="M368 163h-332v43l278 494h48v-20l-264 -467h270v198h54v-198h94v-50h-94v-163l-54 0z" />
<glyph unicode="&#53;" horiz-adv-x="579" d="M293 -15q-93 0 -153 51q-60 51 -72 145l54 0q10 -69 56 -107.5q46 -38.5 116 -38.5q82 0 124 52q42 52 42 136q0 91 -45 137.5q-45 46.5 -118 46.5q-49 0 -85 -20q-36 -20 -58 -47l-53 0l31 360h342v-50h-297l-22 -252q28 25 65 40.5q37 15.5 85 15.5q44 0 82.5 -13.5q38.5 -13.5 66.5 -41.5q28 -28 44 -71.5q16 -43.5 16 -103.5q0 -55 -15 -99q-15 -44 -43.5 -75q-28.5 -31 -69.5 -48t-93 -17z" />
<glyph unicode="&#54;" horiz-adv-x="573" d="M292 -15q-109 0 -167.5 61q-58.5 61 -58.5 166q0 50 17 92.5q17 42.5 49 94.5l189 301h50v-20l-184 -290q22 18 53.5 28.5q31.5 10.5 72.5 10.5q95 0 150 -57.5q55 -57.5 55 -159.5q0 -105 -59 -166q-59 -61 -167 -61zt0 0zM292 35q85 0 128.5 48q43.5 48 43.5 126q0 39 -10.5 71q-10.5 32 -31.5 55q-21 23 -53 35.5q-32 12.5 -75 12.5q-39 0 -71 -11.5q-32 -11.5 -55 -33.5q-23 -22 -35.5 -54.5q-12.5 -32.5 -12.5 -74.5q0 -78 43 -126t129 -48z" />
<glyph unicode="&#55;" horiz-adv-x="534" d="M182 20l245 630h-325v-142h-51v192h433v-47l-253 -653l-49 0z" />
<glyph unicode="&#56;" horiz-adv-x="603" d="M301 -15q-115 0 -175 55q-60 55 -60 149q0 37 11.5 67q11.5 30 30.5 52.5q19 22.5 44 37q25 14.5 52 21.5q-23 7 -43.5 20q-20.5 13 -37 32.5q-16.5 19.5 -26 46q-9.5 26.5 -9.5 61.5q0 40 14 74q14 34 41 59.5q27 25.5 66.5 40q39.5 14.5 91.5 14.5q52 0 92 -14.5q40 -14.5 67 -40q27 -25.5 41 -59.5q14 -34 14 -74q0 -35 -9.5 -61.5q-9.5 -26.5 -25.5 -46q-16 -19.5 -37 -32.5q-21 -13 -43 -20q26 -7 51 -21.5q25 -14.5 44 -37q19 -22.5 30.5 -52.5q11.5 -30 11.5 -67q0 -94 -60.5 -149q-60.5 -55 -175.5 -55zt0 0zM142 526q0 -66 42.5 -102.5q42.5 -36.5 116.5 -36.5q74 0 116.5 36.5q42.5 36.5 42.5 102.5q0 66 -42.5 102.5q-42.5 36.5 -116.5 36.5q-74 0 -116.5 -36.5q-42.5 -36.5 -42.5 -102.5zt0 0zM120 188q0 -72 48 -112.5q48 -40.5 133 -40.5q85 0 133.5 40.5q48.5 40.5 48.5 112.5q0 73 -48.5 113.5q-48.5 40.5 -133.5 40.5q-85 0 -133 -40.5t-48 -113.5z" />
<glyph unicode="&#57;" horiz-adv-x="573" d="M216 20l179 291q-23 -19 -54 -29.5q-31 -10.5 -72 -10.5q-99 0 -156 59q-57 59 -57 162q0 50 15 91q15 41 43.5 70.5q28.5 29.5 71 45.5q42.5 16 96.5 16q54 0 96.5 -16q42.5 -16 71 -45.5q28.5 -29.5 43.5 -70.5q15 -41 15 -91q0 -24 -3 -46.5q-3 -22.5 -10.5 -45q-7.5 -22.5 -19.5 -47q-12 -24.5 -29 -52.5l-181 -301h-49zM282 665q-86 0 -129 -48q-43 -48 -43 -125q0 -39 10.5 -71q10.5 -32 31.5 -55.5q21 -23.5 52.5 -36.5q31.5 -13 74.5 -13q38 0 70 11.5q32 11.5 55.5 34q23.5 22.5 36.5 55.5q13 33 13 75q0 78 -43.5 125.5t-128.5 47.5z" />
<glyph unicode="&#58;" horiz-adv-x="216" d="M79 129h58v-129h-58zM79 509h58v-129l-58 0z" />
<glyph unicode="&#59;" horiz-adv-x="216" d="M101 129h59v-26l-84 -199h-43zM93 509h58v-129l-58 0z" />
<glyph unicode="&#60;" horiz-adv-x="486" d="M54 292v45l349 189h29v-37l-323 -174l323 -174v-38l-29 0z" />
<glyph unicode="&#61;" horiz-adv-x="524" d="M54 228h416v-46h-416zM54 445h416v-46l-416 0z" />
<glyph unicode="&#62;" horiz-adv-x="486" d="M54 141l323 174l-323 174v37h29l349 -189v-45l-349 -189l-29 0z" />
<glyph unicode="&#63;" horiz-adv-x="507" d="M221 323l76 51q22 15 42 30q20 15 35.5 33q15.5 18 24.5 40.5q9 22.5 9 52.5q0 26 -9.5 50.5q-9.5 24.5 -28 43q-18.5 18.5 -47.5 30q-29 11.5 -68 11.5q-37 0 -67.5 -11.5q-30.5 -11.5 -53 -33q-22.5 -21.5 -35 -53.5q-12.5 -32 -12.5 -73l-51 0q0 54 17 95q17 41 46 69q29 28 69 42.5q40 14.5 87 14.5q52 0 91 -15.5q39 -15.5 64.5 -41.5q25.5 -26 38.5 -59q13 -33 13 -69q0 -39 -13.5 -68.5q-13.5 -29.5 -33 -52.5q-19.5 -23 -43 -39.5q-23.5 -16.5 -42.5 -29.5l-55 -36v-84h-54zM219 123h58v-123l-58 0z" />
<glyph unicode="&#64;" horiz-adv-x="1007" d="M513 -151q-97 0 -177.5 32q-80.5 32 -138 89.5q-57.5 57.5 -89.5 137q-32 79.5 -32 174.5q0 97 32 177q32 80 89.5 137q57.5 57 138 88q80.5 31 177.5 31q88 0 164.5 -27.5q76.5 -27.5 133 -78.5q56.5 -51 89 -124q32.5 -73 32.5 -164q0 -59 -12.5 -107.5q-12.5 -48.5 -35.5 -83q-23 -34.5 -55 -53q-32 -18.5 -71 -18.5q-40 0 -70 21.5q-30 21.5 -37 69.5q-14 -17 -32.5 -33.5q-18.5 -16.5 -40.5 -29q-22 -12.5 -47.5 -20q-25.5 -7.5 -54.5 -7.5q-39 0 -70.5 12.5q-31.5 12.5 -53 35.5q-21.5 23 -33.5 55.5q-12 32.5 -12 72.5v91q0 40 12 72.5q12 32.5 33.5 55.5q21.5 23 53 35.5q31.5 12.5 70.5 12.5q29 0 54.5 -8q25.5 -8 47 -20.5q21.5 -12.5 39.5 -28q18 -15.5 31 -31.5l18 77h26v-311q0 -40 18 -60q18 -20 50 -20q53 0 89 56q36 56 36 164q0 81 -29.5 146.5q-29.5 65.5 -80 111q-50.5 45.5 -118 70q-67.5 24.5 -144.5 24.5q-86 0 -158 -28q-72 -28 -123.5 -79q-51.5 -51 -80 -123.5q-28.5 -72.5 -28.5 -160.5q0 -87 28.5 -159q28.5 -72 80 -123.5q51.5 -51.5 123.5 -80q72 -28.5 158 -28.5h25v-42zM483 105q50 0 91.5 27q41.5 27 70.5 60l0 177q-15 16 -32 32q-17 16 -37.5 29q-20.5 13 -43.5 20.5q-23 7.5 -49 7.5q-62 0 -95.5 -39q-33.5 -39 -33.5 -99v-77q0 -60 33.5 -99t95.5 -39z" />
<glyph unicode="&#65;" horiz-adv-x="654" d="M26 20l271 680h59l272 -680v-20h-57l-78 198h-335l-79 -198h-53zM475 248l-149 375l-150 -375z" />
<glyph unicode="&#66;" horiz-adv-x="649" d="M96 700h292q85 0 132 -46.5q47 -46.5 47 -134.5q0 -65 -28.5 -102.5q-28.5 -37.5 -69.5 -52.5q25 -6 48 -19q23 -13 39.5 -34q16.5 -21 26.5 -51q10 -30 10 -71q0 -91 -48 -140q-48 -49 -133 -49h-316zM402 52q64 0 98.5 36.5q34.5 36.5 34.5 102.5q0 67 -34.5 104q-34.5 37 -98.5 37h-248v-280zM382 382q61 0 93.5 35.5q32.5 35.5 32.5 97.5q0 63 -33 98q-33 35 -96 35h-225l0 -266z" />
<glyph unicode="&#67;" horiz-adv-x="658" d="M340 -15q-125 0 -194.5 66q-69.5 66 -69.5 186v226q0 120 69.5 186q69.5 66 194.5 66q50 0 96 -14.5q46 -14.5 80.5 -43.5q34.5 -29 55 -73q20.5 -44 20.5 -103v-10h-58v10q0 45 -16.5 79q-16.5 34 -44 56.5q-27.5 22.5 -62.5 33.5q-35 11 -71 11q-99 0 -152.5 -51q-53.5 -51 -53.5 -143v-234q0 -92 53.5 -143q53.5 -51 152.5 -51q36 0 71 11q35 11 62.5 33.5q27.5 22.5 44 56.5q16.5 34 16.5 79v10h58v-10q0 -59 -20.5 -103q-20.5 -44 -55 -73q-34.5 -29 -80.5 -43.5t-96 -14.5z" />
<glyph unicode="&#68;" horiz-adv-x="674" d="M335 52q97 0 151 52q54 52 54 140v212q0 88 -54 140q-54 52 -151 52h-181v-596zM96 700h239q60 0 108.5 -16.5q48.5 -16.5 83 -47.5q34.5 -31 53 -77q18.5 -46 18.5 -104v-210q0 -59 -18.5 -104.5q-18.5 -45.5 -53 -76.5q-34.5 -31 -83 -47.5q-48.5 -16.5 -108.5 -16.5l-239 0z" />
<glyph unicode="&#69;" horiz-adv-x="578" d="M96 700h425v-52h-367v-269h320v-52h-320v-275h368v-52l-426 0z" />
<glyph unicode="&#70;" horiz-adv-x="570" d="M96 700h429v-52h-370v-273h322v-52h-322v-323l-59 0z" />
<glyph unicode="&#71;" horiz-adv-x="688" d="M339 -15q-61 0 -109.5 17.5q-48.5 17.5 -82.5 50q-34 32.5 -52.5 79q-18.5 46.5 -18.5 105.5v226q0 60 18.5 106.5q18.5 46.5 53.5 79q35 32.5 85 49.5q50 17 113 17q50 0 96.5 -14.5q46.5 -14.5 81.5 -43q35 -28.5 56.5 -72q21.5 -43.5 22.5 -101.5l0 -8h-59v8q0 44 -17.5 77.5q-17.5 33.5 -45.5 55.5q-28 22 -63.5 33q-35.5 11 -72.5 11q-100 0 -155.5 -51q-55.5 -51 -55.5 -143v-230q0 -92 55.5 -145q55.5 -53 152.5 -53q140 0 202 135l0 123h-179v49h238v-346h-35l-15 106q-33 -58 -85 -89.5t-129 -31.5z" />
<glyph unicode="&#72;" horiz-adv-x="693" d="M96 700h58v-322h385v322h58v-700h-58v326h-385v-326l-58 0z" />
<glyph unicode="&#73;" horiz-adv-x="250" d="M96 700h58v-700l-58 0z" />
<glyph unicode="&#74;" horiz-adv-x="565" d="M253 -15q-50 0 -92 13q-42 13 -72 40q-30 27 -46.5 67.5q-16.5 40.5 -16.5 95.5v28h58v-28q0 -79 45.5 -120.5q45.5 -41.5 123.5 -41.5q37 0 68 10.5q31 10.5 53.5 31.5q22.5 21 35 51.5q12.5 30.5 12.5 70.5v497h58v-499q0 -54 -17 -94.5q-17 -40.5 -47 -67.5q-30 -27 -72 -40.5t-91 -13.5z" />
<glyph unicode="&#75;" horiz-adv-x="599" d="M96 700h58v-322h132l221 322h54v-20l-225 -325l237 -335v-20h-57l-229 326h-133v-326l-58 0z" />
<glyph unicode="&#76;" horiz-adv-x="557" d="M96 700h58v-648h377v-52l-435 0z" />
<glyph unicode="&#77;" horiz-adv-x="798" d="M96 700h56l248 -379l247 379h55v-700h-57v600l-227 -351h-39l-227 349v-598l-56 0z" />
<glyph unicode="&#78;" horiz-adv-x="694" d="M96 700h54l389 -592v592h59v-700h-54l-390 591v-591l-58 0z" />
<glyph unicode="&#79;" horiz-adv-x="678" d="M339 39q97 0 151 52.5q54 52.5 54 140.5v236q0 88 -54 140.5q-54 52.5 -151 52.5q-97 0 -151 -52.5q-54 -52.5 -54 -140.5v-236q0 -88 54 -140.5q54 -52.5 151 -52.5zt0 0zM339 -15q-60 0 -109 17q-49 17 -83 49q-34 32 -52.5 78.5q-18.5 46.5 -18.5 105.5v230q0 59 18.5 105.5q18.5 46.5 52.5 78.5q34 32 83 49q49 17 109 17q60 0 108.5 -17q48.5 -17 83 -49q34.5 -32 53 -78.5q18.5 -46.5 18.5 -105.5v-230q0 -59 -18.5 -105.5q-18.5 -46.5 -53 -78.5q-34.5 -32 -83 -49t-108.5 -17z" />
<glyph unicode="&#80;" horiz-adv-x="620" d="M96 700h284q90 0 139.5 -56q49.5 -56 49.5 -151q0 -95 -49.5 -150.5q-49.5 -55.5 -139.5 -55.5h-226v-287h-58zM371 339q63 0 101 40.5q38 40.5 38 113.5q0 74 -38 114.5q-38 40.5 -101 40.5h-217l0 -309z" />
<glyph unicode="&#81;" horiz-adv-x="681" d="M459 10q-25 -12 -56.5 -18.5q-31.5 -6.5 -63.5 -6.5q-60 0 -109 17q-49 17 -83 49q-34 32 -52.5 78.5q-18.5 46.5 -18.5 105.5v230q0 59 18.5 105.5q18.5 46.5 52.5 78.5q34 32 83 49q49 17 109 17q60 0 108.5 -17q48.5 -17 83 -49q34.5 -32 53 -78.5q18.5 -46.5 18.5 -105.5v-230q0 -69 -24 -118.5q-24 -49.5 -66 -81.5l93 -134v-20h-56zM339 39q97 0 151 51q54 51 54 141v238q0 90 -54 141q-54 51 -151 51q-97 0 -151 -51q-54 -51 -54 -141v-238q0 -90 54 -141t151 -51z" />
<glyph unicode="&#82;" horiz-adv-x="643" d="M96 700h287q95 0 145.5 -55q50.5 -55 50.5 -152q0 -86 -37 -134.5q-37 -48.5 -108 -67.5l158 -271v-20h-56l-167 286h-215v-286h-58zM374 338q69 0 107 40q38 40 38 115q0 75 -38 115q-38 40 -107 40h-220l0 -310z" />
<glyph unicode="&#83;" horiz-adv-x="625" d="M318 -15q-51 0 -99 14q-48 14 -85.5 43.5q-37.5 29.5 -60 75q-22.5 45.5 -22.5 109.5l58 0q0 -52 19.5 -88q19.5 -36 50 -58q30.5 -22 68 -32q37.5 -10 74.5 -10q44 0 77.5 10q33.5 10 55.5 28q22 18 33 42q11 24 11 52q0 53 -40 84.5q-40 31.5 -119 61.5l-78 29q-47 18 -82 35q-35 17 -58 38q-23 21 -34.5 47.5q-11.5 26.5 -11.5 64.5q0 40 15.5 74q15.5 34 45.5 58.5q30 24.5 73 38q43 13.5 98 13.5q52 0 97.5 -13.5q45.5 -13.5 79 -42q33.5 -28.5 53 -73q19.5 -44.5 19.5 -107.5l-59 0q0 50 -16 85q-16 35 -42.5 56.5q-26.5 21.5 -61 31q-34.5 9.5 -71.5 9.5q-81 0 -127 -35.5q-46 -35.5 -46 -90.5q0 -27 8.5 -46.5q8.5 -19.5 25.5 -35q17 -15.5 44 -28.5q27 -13 65 -26l75 -28q45 -17 83 -34q38 -17 65.5 -39.5q27.5 -22.5 43.5 -52.5q16 -30 16 -71q0 -40 -15 -74.5q-15 -34.5 -45 -60q-30 -25.5 -75 -40t-106 -14.5z" />
<glyph unicode="&#84;" horiz-adv-x="551" d="M247 648h-221v52h500v-52h-221v-648l-58 0z" />
<glyph unicode="&#85;" horiz-adv-x="673" d="M337 -15q-53 0 -99 15.5q-46 15.5 -79.5 46q-33.5 30.5 -53 76q-19.5 45.5 -19.5 105.5v472h58v-472q0 -91 52.5 -140q52.5 -49 140.5 -49q88 0 140 48.5q52 48.5 52 140.5v472h59v-472q0 -60 -19.5 -105q-19.5 -45 -53.5 -76q-34 -31 -80 -46.5t-98 -15.5z" />
<glyph unicode="&#86;" horiz-adv-x="654" d="M26 680v20h55l247 -623l245 623h55v-20l-271 -680l-59 0z" />
<glyph unicode="&#87;" horiz-adv-x="804" d="M46 680v20h57l119 -607l162 393h38l164 -394l118 608h54v-20l-136 -680h-56l-164 398l-164 -398l-56 0z" />
<glyph unicode="&#88;" horiz-adv-x="612" d="M36 20l234 336l-227 324v20h58l205 -298l208 298h54v-20l-227 -324l235 -336v-20h-58l-214 310l-214 -310l-54 0z" />
<glyph unicode="&#89;" horiz-adv-x="604" d="M273 278l-257 402v20h57l229 -367l233 367h53v-20l-257 -400v-280l-58 0z" />
<glyph unicode="&#90;" horiz-adv-x="570" d="M46 51l402 597h-389v52h456v-51l-402 -597h412v-52l-479 0z" />
<glyph unicode="&#91;" horiz-adv-x="313" d="M96 752h199v-50h-145v-812h145v-50l-199 0z" />
<glyph unicode="&#92;" horiz-adv-x="456" d="M410 -80l-315 832h-49v-20l315 -832l49 0z" />
<glyph unicode="&#93;" horiz-adv-x="313" d="M18 -110h145v800h-145v50h199v-900l-199 0z" />
<glyph unicode="&#94;" horiz-adv-x="491" d="M54 407l167 298h48l167 -298v-20h-46l-145 259l-144 -259l-47 0z" />
<glyph unicode="&#95;" horiz-adv-x="525" d="M-1 -61h527v-46l-527 0z" />
<glyph unicode="&#96;" horiz-adv-x="286" d="M62 710v20h56l107 -140l-55 0z" />
<glyph unicode="&#97;" horiz-adv-x="538" d="M217 -12q-33 0 -63.5 8.5q-30.5 8.5 -53 26.5q-22.5 18 -36 45.5q-13.5 27.5 -13.5 65.5q0 78 53.5 119.5q53.5 41.5 157.5 41.5h142v59q0 51 -33.5 84q-33.5 33 -103.5 33q-67 0 -101.5 -32q-34.5 -32 -34.5 -81l-53 0q0 35 11.5 65q11.5 30 35 51.5q23.5 21.5 59 34q35.5 12.5 83.5 12.5q48 0 84 -12.5q36 -12.5 60 -34.5q24 -22 35.5 -52q11.5 -30 11.5 -65v-357h-35l-18 71q-12 -13 -31 -27.5q-19 -14.5 -43 -27q-24 -12.5 -53 -20.5q-29 -8 -61 -8zt0 0zM227 38q29 0 55.5 8.5q26.5 8.5 49.5 21q23 12.5 41 27q18 14.5 31 26.5l0 126h-142q-81 0 -119 -28q-38 -28 -38 -79q0 -27 10 -46.5q10 -19.5 26.5 -31.5q16.5 -12 38.5 -18t47 -6z" />
<glyph unicode="&#98;" horiz-adv-x="569" d="M320 -12q-30 0 -57 7.5q-27 7.5 -50 20.5q-23 13 -42 28.5q-19 15.5 -34 32.5l-17 -77h-34v705h54v-270q13 16 31.5 31.5q18.5 15.5 41 27.5q22.5 12 49 19.5q26.5 7.5 56.5 7.5q84 0 132 -50q48 -50 48 -138v-157q0 -87 -48.5 -137.5q-48.5 -50.5 -129.5 -50.5zt0 0zM312 38q63 0 97.5 39.5q34.5 39.5 34.5 102.5v149q0 63 -34 102.5q-34 39.5 -97 39.5q-27 0 -51.5 -8q-24.5 -8 -46.5 -21.5q-22 -13.5 -41 -30q-19 -16.5 -34 -33.5l0 -247q15 -17 34 -33.5q19 -16.5 41 -30q22 -13.5 46.5 -21.5t50.5 -8z" />
<glyph unicode="&#99;" horiz-adv-x="527" d="M267 -12q-49 0 -87 14q-38 14 -64 39q-26 25 -39.5 59.5q-13.5 34.5 -13.5 76.5v155q0 41 13.5 76q13.5 35 39.5 60q26 25 64 39q38 14 87 14q47 0 84.5 -13q37.5 -13 63.5 -36.5q26 -23.5 40 -56q14 -32.5 14 -72.5v-5h-54v6q0 56 -38.5 91.5q-38.5 35.5 -109.5 35.5q-74 0 -112 -39q-38 -39 -38 -99v-157q0 -61 38 -99.5q38 -38.5 112 -38.5q72 0 110 36.5q38 36.5 38 92.5v6h54v-5q0 -40 -14 -73q-14 -33 -40 -57q-26 -24 -63.5 -37t-84.5 -13z" />
<glyph unicode="&#100;" horiz-adv-x="569" d="M249 -12q-81 0 -129.5 50.5q-48.5 50.5 -48.5 137.5v157q0 88 48 138q48 50 132 50q30 0 56.5 -7.5q26.5 -7.5 49 -19.5q22.5 -12 40.5 -27.5q18 -15.5 32 -31.5l0 270h54v-705h-34l-17 77q-15 -17 -34 -32.5q-19 -15.5 -42 -28.5q-23 -13 -50 -20.5q-27 -7.5 -57 -7.5zt0 0zM257 38q26 0 50.5 8q24.5 8 46.5 21.5q22 13.5 41 30q19 16.5 34 33.5l0 247q-15 17 -34 33.5q-19 16.5 -41 30q-22 13.5 -46.5 21.5q-24.5 8 -51.5 8q-63 0 -97 -39.5q-34 -39.5 -34 -102.5v-149q0 -63 34.5 -102.5t97.5 -39.5z" />
<glyph unicode="&#101;" horiz-adv-x="534" d="M269 -12q-50 0 -88 14q-38 14 -64.5 38.5q-26.5 24.5 -40 59q-13.5 34.5 -13.5 76.5v156q0 41 13.5 76q13.5 35 40 60q26.5 25 64.5 39q38 14 88 14q49 0 86.5 -14q37.5 -14 63.5 -38.5q26 -24.5 39.5 -59q13.5 -34.5 13.5 -76.5v-97h-355v-59q0 -61 38.5 -100q38.5 -39 113.5 -39q69 0 103.5 31.5q34.5 31.5 41.5 81.5l54 0q-6 -74 -56.5 -118.5q-50.5 -44.5 -142.5 -44.5zt0 0zM418 284v49q0 59 -37.5 98.5q-37.5 39.5 -113.5 39.5q-73 0 -111.5 -39q-38.5 -39 -38.5 -99l0 -49z" />
<glyph unicode="&#102;" horiz-adv-x="325" d="M108 461h-87v48h87v32q0 75 37.5 120.5q37.5 45.5 119.5 45.5q11 0 19 -0.5q8 -0.5 15 -1.5l0 -49q-2 0 -10 0.5q-8 0.5 -18 0.5q-25 0 -45 -5.5q-20 -5.5 -34.5 -19q-14.5 -13.5 -22 -35.5q-7.5 -22 -7.5 -56v-32h134v-48h-134v-461l-54 0z" />
<glyph unicode="&#103;" horiz-adv-x="569" d="M283 -172q-44 0 -80.5 11.5q-36.5 11.5 -63 32.5q-26.5 21 -41.5 51.5q-15 30.5 -16 68.5l54 0q2 -49 40 -81.5q38 -32.5 107 -32.5q71 0 108.5 37q37.5 37 37.5 109v98q-14 -16 -32 -31.5q-18 -15.5 -40.5 -27.5q-22.5 -12 -49 -19.5q-26.5 -7.5 -56.5 -7.5q-84 0 -132 50q-48 50 -48 138v109q0 88 48 138q48 50 130 50q30 0 57 -7.5q27 -7.5 50 -20.5q23 -13 41.5 -29q18.5 -16 33.5 -32l17 77h35v-483q0 -101 -54.5 -149.5q-54.5 -48.5 -145.5 -48.5zt0 0zM257 86q26 0 50.5 8q24.5 8 46.5 21.5q22 13.5 41 30q19 16.5 34 33.5l0 199q-15 17 -34 33.5q-19 16.5 -41 30q-22 13.5 -46.5 21.5q-24.5 8 -51.5 8q-63 0 -97 -39.5q-34 -39.5 -34 -102.5v-101q0 -63 34.5 -102.5t97.5 -39.5z" />
<glyph unicode="&#104;" horiz-adv-x="574" d="M86 705h54v-270q29 33 75 59.5q46 26.5 105 26.5q37 0 68.5 -12q31.5 -12 55 -36q23.5 -24 37 -59.5q13.5 -35.5 13.5 -82.5v-331h-54v324q0 76 -37 111.5q-37 35.5 -92 35.5q-26 0 -50.5 -8q-24.5 -8 -46.5 -21q-22 -13 -40.5 -29.5q-18.5 -16.5 -33.5 -34.5l0 -378l-54 0z" />
<glyph unicode="&#105;" horiz-adv-x="226" d="M86 509h54v-509h-54zM86 705h54v-110l-54 0z" />
<glyph unicode="&#106;" horiz-adv-x="226" d="M2 -172q-10 0 -17 0.5q-7 0.5 -14 1.5l0 48q10 -1 15.5 -1q5.5 0 10.5 0q48 0 68.5 28.5q20.5 28.5 20.5 87.5v516h54v-516q0 -33 -6 -62.5q-6 -29.5 -21.5 -52.5q-15.5 -23 -42.5 -36.5q-27 -13.5 -68 -13.5zt0 0zM86 705h54v-110l-54 0z" />
<glyph unicode="&#107;" horiz-adv-x="513" d="M86 705h54v-421h104l167 225h45v-26l-163 -220l175 -237v-26h-49l-173 236h-106v-236l-54 0z" />
<glyph unicode="&#108;" horiz-adv-x="226" d="M86 705h54v-705l-54 0z" />
<glyph unicode="&#109;" horiz-adv-x="884" d="M86 509h34l17 -77q15 17 33 33q18 16 39.5 28.5q21.5 12.5 46.5 20q25 7.5 53 7.5q51 0 90 -25q39 -25 57 -76q16 19 35.5 37q19.5 18 43 32.5q23.5 14.5 50 23q26.5 8.5 56.5 8.5q75 0 119 -46.5q44 -46.5 44 -138.5v-336h-54v329q0 37 -9.5 63.5q-9.5 26.5 -25.5 44q-16 17.5 -38 26q-22 8.5 -47 8.5q-48 0 -89 -29q-41 -29 -72 -67q2 -15 2.5 -29.5q0.5 -14.5 0.5 -31.5v-314h-54v329q0 37 -9.5 63.5q-9.5 26.5 -25.5 44q-16 17.5 -38 26q-22 8.5 -47 8.5q-24 0 -46.5 -8q-22.5 -8 -43 -21q-20.5 -13 -38 -30q-17.5 -17 -30.5 -34l0 -378l-54 0z" />
<glyph unicode="&#110;" horiz-adv-x="574" d="M86 509h34l17 -77q15 17 34 33q19 16 42 28.5q23 12.5 49.5 20q26.5 7.5 56.5 7.5q37 0 69.5 -12q32.5 -12 55.5 -36q23 -24 36.5 -59.5q13.5 -35.5 13.5 -82.5v-331h-54v324q0 76 -37 111.5q-37 35.5 -92 35.5q-26 0 -50.5 -8q-24.5 -8 -46.5 -21q-22 -13 -40.5 -29.5q-18.5 -16.5 -33.5 -34.5l0 -378l-54 0z" />
<glyph unicode="&#111;" horiz-adv-x="538" d="M269 38q39 0 67.5 11q28.5 11 47 30q18.5 19 28 44.5q9.5 25.5 9.5 55.5v151q0 30 -9.5 55.5q-9.5 25.5 -28 44.5q-18.5 19 -47 30q-28.5 11 -67.5 11q-75 0 -113.5 -40.5q-38.5 -40.5 -38.5 -100.5v-151q0 -61 38.5 -101q38.5 -40 113.5 -40zt0 0zM269 -12q-51 0 -90 14.5q-39 14.5 -64.5 40q-25.5 25.5 -38.5 60q-13 34.5 -13 74.5v155q0 40 13 74.5q13 34.5 38.5 60q25.5 25.5 64.5 40q39 14.5 90 14.5q52 0 90.5 -14.5q38.5 -14.5 64 -40q25.5 -25.5 38.5 -60q13 -34.5 13 -74.5v-155q0 -40 -13 -74.5q-13 -34.5 -38.5 -60q-25.5 -25.5 -64 -40t-90.5 -14.5z" />
<glyph unicode="&#112;" horiz-adv-x="569" d="M320 521q81 0 129.5 -50.5q48.5 -50.5 48.5 -137.5v-157q0 -88 -48 -138q-48 -50 -132 -50q-30 0 -56.5 7.5q-26.5 7.5 -49 19.5q-22.5 12 -41 27.5q-18.5 15.5 -31.5 31.5l0 -234h-54v669h34l17 -77q15 16 34 32q19 16 42 29q23 13 50 20.5q27 7.5 57 7.5zt0 0zM312 38q63 0 97.5 39.5q34.5 39.5 34.5 102.5v149q0 63 -34 102.5q-34 39.5 -97 39.5q-27 0 -51.5 -8q-24.5 -8 -46.5 -21.5q-22 -13.5 -41 -30q-19 -16.5 -34 -33.5l0 -247q15 -17 34 -33.5q19 -16.5 41 -30q22 -13.5 46.5 -21.5t50.5 -8z" />
<glyph unicode="&#113;" horiz-adv-x="569" d="M249 521q30 0 57 -7.5q27 -7.5 50 -20.5q23 -13 42 -29q19 -16 34 -32l17 77h34v-669h-54v234q-14 -16 -32 -31.5q-18 -15.5 -40.5 -27.5q-22.5 -12 -49 -19.5q-26.5 -7.5 -56.5 -7.5q-84 0 -132 50q-48 50 -48 138v157q0 87 48.5 137.5q48.5 50.5 129.5 50.5zt0 0zM257 38q26 0 50.5 8q24.5 8 46.5 21.5q22 13.5 41 30q19 16.5 34 33.5l0 247q-15 17 -34 33.5q-19 16.5 -41 30q-22 13.5 -46.5 21.5q-24.5 8 -51.5 8q-63 0 -97 -39.5q-34 -39.5 -34 -102.5v-149q0 -63 34.5 -102.5t97.5 -39.5z" />
<glyph unicode="&#114;" horiz-adv-x="366" d="M86 509h30l18 -77q15 17 35.5 33q20.5 16 45 28.5q24.5 12.5 52 20q27.5 7.5 56.5 7.5h7v-55h-7q-56 0 -103 -22q-47 -22 -80 -63l0 -381l-54 0z" />
<glyph unicode="&#115;" horiz-adv-x="538" d="M274 -12q-44 0 -83.5 10.5q-39.5 10.5 -69.5 33q-30 22.5 -47.5 57q-17.5 34.5 -17.5 81.5l54 0q0 -36 14.5 -61q14.5 -25 38 -40.5q23.5 -15.5 53.5 -23q30 -7.5 62 -7.5q67 0 103.5 27q36.5 27 36.5 69q0 36 -23.5 54q-23.5 18 -76.5 32l-115 30q-30 8 -53 18.5q-23 10.5 -39 25.5q-16 15 -24.5 36q-8.5 21 -8.5 50q0 61 48.5 101q48.5 40 139.5 40q43 0 80 -11q37 -11 63 -33q26 -22 41 -55.5q15 -33.5 15 -77.5l-54 0q0 32 -11.5 56q-11.5 24 -31.5 39.5q-20 15.5 -47 23.5q-27 8 -59 8q-67 0 -98.5 -26q-31.5 -26 -31.5 -63q0 -34 20 -52q20 -18 70 -31l114 -29q32 -8 57.5 -19q25.5 -11 43 -26.5q17.5 -15.5 26.5 -36.5q9 -21 9 -51q0 -66 -51.5 -107.5t-146.5 -41.5z" />
<glyph unicode="&#116;" horiz-adv-x="357" d="M263 0q-44 0 -72.5 13q-28.5 13 -46 34.5q-17.5 21.5 -24.5 48.5q-7 27 -7 54v311h-87v48h87v106h54v-106h139v-48h-139v-309q0 -52 25.5 -77q25.5 -25 70.5 -25h43v-50l-43 0z" />
<glyph unicode="&#117;" horiz-adv-x="574" d="M488 0h-34l-17 77q-15 -17 -34 -33q-19 -16 -42 -28.5q-23 -12.5 -49.5 -20q-26.5 -7.5 -56.5 -7.5q-38 0 -70 12q-32 12 -55 36q-23 24 -36.5 59.5q-13.5 35.5 -13.5 82.5v331h54v-324q0 -38 10 -66q10 -28 27 -46q17 -18 41 -26.5q24 -8.5 51 -8.5q26 0 50.5 8q24.5 8 46.5 21q22 13 40.5 29.5q18.5 16.5 33.5 34.5l0 378l54 0z" />
<glyph unicode="&#118;" horiz-adv-x="501" d="M26 483v26h51l175 -437l173 437h50v-26l-198 -483l-53 0z" />
<glyph unicode="&#119;" horiz-adv-x="704" d="M496 72l108 437h49v-26l-123 -483h-56l-122 327l-122 -327h-56l-123 483v26h50l108 -437l122 337l43 0z" />
<glyph unicode="&#120;" horiz-adv-x="512" d="M46 26l176 228l-175 229v26h50l159 -213l160 213h47v-26l-173 -227l177 -230v-26h-49l-163 217l-162 -217l-47 0z" />
<glyph unicode="&#121;" horiz-adv-x="499" d="M165 -139l60 139l-199 483v26h51l175 -437l173 437h50v-26l-264 -643l-46 0z" />
<glyph unicode="&#122;" horiz-adv-x="513" d="M56 48l323 413h-309v48h374v-48l-323 -413h329v-48l-394 0z" />
<glyph unicode="&#123;" horiz-adv-x="317" d="M299 -160q-80 0 -127 43q-47 43 -47 127v188q0 42 -15 60.5q-15 18.5 -47 18.5h-27v50h27q34 0 48 20.5q14 20.5 14 58.5v176q0 84 47 127q47 43 127 43l0 -50q-56 0 -88 -31q-32 -31 -32 -87v-191q0 -39 -15.5 -61q-15.5 -22 -38.5 -30q23 -8 38.5 -30q15.5 -22 15.5 -61v-203q0 -56 32 -87q32 -31 88 -31l0 -50z" />
<glyph unicode="&#124;" horiz-adv-x="245" d="M96 752h54v-852l-54 0z" />
<glyph unicode="&#125;" horiz-adv-x="317" d="M18 -160q80 0 127 43q47 43 47 127v188q0 42 15 60.5q15 18.5 47 18.5h27v50h-27q-34 0 -48 20.5q-14 20.5 -14 58.5v176q0 84 -47 127q-47 43 -127 43l0 -50q56 0 88 -31q32 -31 32 -87v-191q0 -39 15.5 -61q15.5 -22 38.5 -30q-23 -8 -38.5 -30q-15.5 -22 -15.5 -61v-203q0 -56 -32 -87q-32 -31 -88 -31l0 -50z" />
<glyph unicode="&#126;" horiz-adv-x="469" d="M50 282q32 48 56 70q24 22 54 22q19 0 36 -7.5q17 -7.5 33 -19.5l24 -18q30 -23 56 -23q16 0 31.5 14q15.5 14 44.5 53l34 -26q-31 -48 -55.5 -70q-24.5 -22 -55.5 -22q-20 0 -35 6.5q-15 6.5 -32 18.5l-25 19q-16 12 -27 18q-11 6 -25 6q-21 0 -36.5 -14.5q-15.5 -14.5 -44.5 -52.5z" />
<glyph unicode="&#160;" horiz-adv-x="257" />
<glyph unicode="&#161;" horiz-adv-x="248" d="M97 291h54v-451h-54zM96 509h56v-123l-56 0z" />
<glyph unicode="&#162;" horiz-adv-x="527" d="M286 611q86 -5 134.5 -53.5q48.5 -48.5 48.5 -123.5v-5h-54v6q0 52 -33.5 86.5q-33.5 34.5 -95.5 39.5l0 -431q63 5 96 40.5q33 35.5 33 87.5v6h54v-5q0 -38 -12.5 -70q-12.5 -32 -36 -55.5q-23.5 -23.5 -57.5 -37.5q-34 -14 -77 -17l0 -79h-41v80q-88 6 -135 57.5q-47 51.5 -47 130.5v155q0 78 47 129.5q47 51.5 135 58.5l0 89h41zM117 267q0 -57 32.5 -94q32.5 -37 95.5 -43l0 431q-63 -6 -95.5 -43.5q-32.5 -37.5 -32.5 -93.5z" />
<glyph unicode="&#163;" horiz-adv-x="575" d="M46 50h77v285h-77v50h77v141q0 42 13.5 76.5q13.5 34.5 39.5 59.5q26 25 64 39q38 14 87 14q95 0 148.5 -49.5q53.5 -49.5 53.5 -132.5v-29h-54v29q0 59 -38 95.5q-38 36.5 -110 36.5q-74 0 -112 -38.5q-38 -38.5 -38 -99.5v-142h186v-50h-186v-285h352v-50l-483 0z" />
<glyph unicode="&#165;" horiz-adv-x="589" d="M267 117h-199v50h199v111h-199v50h169l-221 352v20h54l225 -365l225 365h53v-20l-222 -352h170v-50h-199v-111h199v-50h-199v-117l-55 0z" />
<glyph unicode="&#166;" horiz-adv-x="245" d="M96 240h54v-340h-54zM96 752h54v-320l-54 0z" />
<glyph unicode="&#167;" horiz-adv-x="564" d="M289 -172q-48 0 -90 12q-42 12 -74 37q-32 25 -50.5 62.5q-18.5 37.5 -18.5 88.5l52 0q0 -41 15.5 -69.5q15.5 -28.5 41 -46.5q25.5 -18 59.5 -26q34 -8 70 -8q30 0 56.5 6.5q26.5 6.5 47 20q20.5 13.5 32.5 35.5q12 22 12 52q0 20 -9 34.5q-9 14.5 -23.5 25.5q-14.5 11 -33 19q-18.5 8 -37.5 16l-81 30q-44 16 -78.5 32q-34.5 16 -58.5 36q-24 20 -37 45q-13 25 -13 59q0 42 19 81.5q19 39.5 45 69.5q-27 18 -43 43q-16 25 -16 67q0 33 13.5 61.5q13.5 28.5 40 50q26.5 21.5 64.5 33.5q38 12 86 12q45 0 85 -11q40 -11 70 -35q30 -24 47 -60.5q17 -36.5 17 -87.5l-53 0q0 39 -14.5 66.5q-14.5 27.5 -38 44.5q-23.5 17 -53.5 25q-30 8 -62 8q-27 0 -53 -6q-26 -6 -47 -19q-21 -13 -34 -33q-13 -20 -13 -48q0 -23 9 -39q9 -16 24 -27.5q15 -11.5 34 -20q19 -8.5 39 -16.5l80 -31q44 -17 78.5 -33.5q34.5 -16.5 58.5 -35.5q24 -19 37 -43q13 -24 13 -57q0 -21 -6.5 -41.5q-6.5 -20.5 -17 -39.5q-10.5 -19 -23 -36.5q-12.5 -17.5 -25.5 -31.5q30 -20 48.5 -44.5q18.5 -24.5 18.5 -68.5q0 -33 -14 -61.5q-14 -28.5 -41 -50q-27 -21.5 -66 -34q-39 -12.5 -89 -12.5zt0 0zM392 120q26 29 42.5 61q16.5 32 16.5 61q0 25 -12.5 44q-12.5 19 -33 33.5q-20.5 14.5 -47 26q-26.5 11.5 -53.5 22.5l-130 50q-25 -31 -37.5 -63q-12.5 -32 -12.5 -60q0 -26 12 -44.5q12 -18.5 31.5 -33q19.5 -14.5 43.5 -25q24 -10.5 49 -20.5z" />
<glyph unicode="&#168;" horiz-adv-x="332" d="M49 705h54v-110h-54zM230 705h54v-110l-54 0z" />
<glyph unicode="&#169;" horiz-adv-x="871" d="M434 140q-85 0 -128.5 45q-43.5 45 -43.5 118v95q0 73 43.5 118q43.5 45 128.5 45q75 0 121.5 -39.5q46.5 -39.5 46.5 -111.5v-4h-44v4q0 51 -35 80.5q-35 29.5 -90 29.5q-63 0 -95.5 -32.5q-32.5 -32.5 -32.5 -86.5v-101q0 -54 32.5 -86.5q32.5 -32.5 95.5 -32.5q55 0 90 29.5q35 29.5 35 81.5v3h44v-3q0 -72 -46.5 -112q-46.5 -40 -121.5 -40zt0 0zM436 -15q-76 0 -142 28q-66 28 -114.5 77q-48.5 49 -76 116q-27.5 67 -27.5 144q0 77 27.5 144q27.5 67 76 116q48.5 49 114.5 77q66 28 142 28q76 0 142 -28q66 -28 114.5 -77q48.5 -49 76 -116q27.5 -67 27.5 -144q0 -77 -27.5 -144q-27.5 -67 -76 -116q-48.5 -49 -114.5 -77q-66 -28 -142 -28zt0 0zM436 24q67 0 125.5 25q58.5 25 101.5 69q43 44 67.5 103.5q24.5 59.5 24.5 128.5q0 69 -24.5 128.5q-24.5 59.5 -67.5 103.5q-43 44 -101.5 69q-58.5 25 -125.5 25q-68 0 -126.5 -25q-58.5 -25 -101.5 -69q-43 -44 -67.5 -103.5q-24.5 -59.5 -24.5 -128.5q0 -69 24.5 -128.5q24.5 -59.5 67.5 -103.5q43 -44 101.5 -69t126.5 -25z" />
<glyph unicode="&#170;" horiz-adv-x="432" d="M174 353q-24 0 -45.5 5.5q-21.5 5.5 -37.5 17.5q-16 12 -25.5 30.5q-9.5 18.5 -9.5 44.5q0 106 156 106h90v34q0 29 -21 48q-21 19 -65 19q-42 0 -63.5 -18.5q-21.5 -18.5 -21.5 -48.5l-56 0q0 49 34.5 81.5q34.5 32.5 105.5 32.5q72 0 106.5 -31q34.5 -31 34.5 -79v-237h-33l-16 47q-19 -16 -53.5 -34q-34.5 -18 -79.5 -18zt0 0zM189 402q18 0 35 5q17 5 31.5 12q14.5 7 26.5 15q12 8 20 15l0 67h-89q-50 0 -75 -15.5q-25 -15.5 -25 -44.5q0 -31 22 -42.5t54 -11.5z" />
<glyph unicode="&#171;" horiz-adv-x="530" d="M46 269l170 206h48v-22l-153 -184l153 -184v-22h-48zM248 269l170 206h48v-22l-153 -184l153 -184v-22l-48 0z" />
<glyph unicode="&#172;" horiz-adv-x="524" d="M421 399h-367v46h416v-242l-49 0z" />
<glyph unicode="&#173;" horiz-adv-x="435" d="M66 338h304v-50l-304 0z" />
<glyph unicode="&#174;" horiz-adv-x="403" d="M133 632h82q29 0 44.5 -14q15.5 -14 15.5 -40q0 -23 -12 -37q-12 -14 -32 -17l44 -58v-11h-22l-50 67h-46v-67h-24zM214 543q17 0 27.5 9q10.5 9 10.5 24q0 16 -10.5 24.5q-10.5 8.5 -27.5 8.5h-57v-66zM201 371q-35 0 -65.5 13q-30.5 13 -53 36q-22.5 23 -35.5 54.5q-13 31.5 -13 68.5q0 37 13 68.5q13 31.5 35.5 54.5q22.5 23 53 36q30.5 13 65.5 13q35 0 65.5 -13q30.5 -13 53 -36q22.5 -23 35.5 -54.5q13 -31.5 13 -68.5q0 -37 -13 -68.5q-13 -31.5 -35.5 -54.5q-22.5 -23 -53 -36q-30.5 -13 -65.5 -13zt0 0zM201 393q30 0 56 11.5q26 11.5 45.5 31.5q19.5 20 31 47.5q11.5 27.5 11.5 59.5q0 32 -11.5 59.5q-11.5 27.5 -31 47.5q-19.5 20 -45.5 31.5q-26 11.5 -56 11.5q-30 0 -56 -11.5q-26 -11.5 -45.5 -31.5q-19.5 -20 -30.5 -47.5q-11 -27.5 -11 -59.5q0 -32 11 -59.5q11 -27.5 30.5 -47.5q19.5 -20 45.5 -31.5t56 -11.5z" />
<glyph unicode="&#175;" horiz-adv-x="442" d="M88 673h266v-46l-266 0z" />
<glyph unicode="&#176;" horiz-adv-x="384" d="M192 404q50 0 74 28q24 28 24 67v78q0 40 -24 67.5q-24 27.5 -74 27.5q-48 0 -73 -27q-25 -27 -25 -68v-78q0 -41 25 -68q25 -27 73 -27zt0 0zM192 361q-71 0 -108.5 38.5q-37.5 38.5 -37.5 103.5v70q0 65 37.5 103.5q37.5 38.5 108.5 38.5q72 0 109 -38.5q37 -38.5 37 -103.5v-70q0 -65 -37 -103.5t-109 -38.5z" />
<glyph unicode="&#177;" horiz-adv-x="525" d="M238 327h-184v46h184v177h49v-177h184v-46h-184v-182h-49zM54 67h417v-46l-417 0z" />
<glyph unicode="&#178;" horiz-adv-x="313" d="M40 400l111 90q27 22 47 43.5q20 21.5 20 54.5q0 32 -18.5 50q-18.5 18 -47.5 18q-30 0 -50.5 -20q-20.5 -20 -20.5 -58l-45 0q0 63 34 95q34 32 85 32q50 0 81 -30.5q31 -30.5 31 -80.5q0 -26 -7.5 -45.5q-7.5 -19.5 -20 -36q-12.5 -16.5 -28.5 -30.5q-16 -14 -32 -27l-62 -49h156v-48l-233 0z" />
<glyph unicode="&#179;" horiz-adv-x="326" d="M164 353q-57 0 -92 30.5q-35 30.5 -36 79.5l49 0q2 -28 23 -44.5q21 -16.5 56 -16.5q36 0 54 14.5q18 14.5 18 38.5q0 22 -17.5 38q-17.5 16 -47.5 16h-41v48h40q28 0 41.5 15q13.5 15 13.5 34q0 20 -17 35q-17 15 -50 15q-32 0 -52 -16.5q-20 -16.5 -20 -47.5l-45 0q0 54 32 83.5q32 29.5 86 29.5q55 0 85 -27.5q30 -27.5 30 -65.5q0 -29 -13.5 -47.5q-13.5 -18.5 -36.5 -26.5q25 -8 43 -28.5q18 -20.5 18 -52.5q0 -48 -32 -76t-89 -28z" />
<glyph unicode="&#180;" horiz-adv-x="286" d="M117 590h-55l107 140h56l0 -20z" />
<glyph unicode="&#181;" horiz-adv-x="580" d="M86 509h54v-324q0 -72 35 -109.5q35 -37.5 95 -37.5q26 0 50.5 8q24.5 8 46 21q21.5 13 40.5 30q19 17 33 34l0 378h54v-509h-33l-18 77q-31 -35 -76 -62q-45 -27 -102 -27q-44 0 -77.5 20q-33.5 20 -47.5 53l0 -221l-54 0z" />
<glyph unicode="&#182;" horiz-adv-x="578" d="M221 368q-81 0 -128 42q-47 42 -47 120v8q0 80 47 121q47 41 128 41h261v-787h-51v737h-159v-737l-51 0z" />
<glyph unicode="&#183;" horiz-adv-x="216" d="M79 383h58v-129l-58 0z" />
<glyph unicode="&#184;" horiz-adv-x="287" d="M174 0h55l-104 -160h-56l0 20z" />
<glyph unicode="&#185;" horiz-adv-x="219" d="M87 640h-57v26l59 34h49v-342l-51 0z" />
<glyph unicode="&#186;" horiz-adv-x="403" d="M201 401q51 0 76.5 29q25.5 29 25.5 70v57q0 43 -25.5 71.5q-25.5 28.5 -76.5 28.5q-50 0 -75.5 -28q-25.5 -28 -25.5 -72v-57q0 -43 25.5 -71q25.5 -28 75.5 -28zt0 0zM201 353q-75 0 -115 41q-40 41 -40 110v50q0 69 40 110q40 41 115 41q76 0 116 -41q40 -41 40 -110v-50q0 -69 -40 -110t-116 -41z" />
<glyph unicode="&#187;" horiz-adv-x="530" d="M282 269l-170 206h-48v-22l153 -184l-153 -184v-22h48zM484 269l-170 206h-48v-22l153 -184l-153 -184v-22l48 0z" />
<glyph unicode="&#188;" horiz-adv-x="651" d="M87 640h-57v26l59 34h49v-342h-51zM65 20l393 680h47v-20l-394 -680h-46zM509 342v-24l-110 -195h116v77h51v-77h59v-48h-59v-75h-51v75h-181v36l133 231z" />
<glyph unicode="&#189;" horiz-adv-x="670" d="M65 20l393 680h47v-20l-394 -680h-46zM87 640h-57v26l59 34h49v-342h-51zM397 42l111 90q27 22 47 43.5q20 21.5 20 54.5q0 32 -18.5 50q-18.5 18 -47.5 18q-30 0 -50.5 -20q-20.5 -20 -20.5 -58l-45 0q0 63 34 95q34 32 85 32q50 0 81 -30.5q31 -30.5 31 -80.5q0 -26 -7.5 -45.5q-7.5 -19.5 -20 -36q-12.5 -16.5 -28.5 -30.5q-16 -14 -32 -27l-62 -49h156v-48l-233 0z" />
<glyph unicode="&#190;" horiz-adv-x="744" d="M158 20l393 680h47v-20l-394 -680h-46zM602 342v-24l-110 -195h116v77h51v-77h59v-48h-59v-75h-51v75h-181v36l133 231zM164 353q-57 0 -92 30.5q-35 30.5 -36 79.5l49 0q2 -28 23 -44.5q21 -16.5 56 -16.5q36 0 54 14.5q18 14.5 18 38.5q0 22 -17.5 38q-17.5 16 -47.5 16h-41v48h40q28 0 41.5 15q13.5 15 13.5 34q0 20 -17 35q-17 15 -50 15q-32 0 -52 -16.5q-20 -16.5 -20 -47.5l-45 0q0 54 32 83.5q32 29.5 86 29.5q55 0 85 -27.5q30 -27.5 30 -65.5q0 -29 -13.5 -47.5q-13.5 -18.5 -36.5 -26.5q25 -8 43 -28.5q18 -20.5 18 -52.5q0 -48 -32 -76t-89 -28z" />
<glyph unicode="&#191;" horiz-adv-x="507" d="M282 201l-76 -46q-23 -14 -43 -28q-20 -14 -35 -31q-15 -17 -24 -39.5q-9 -22.5 -9 -52.5q0 -24 9.5 -46.5q9.5 -22.5 28 -40.5q18.5 -18 47.5 -28.5q29 -10.5 68 -10.5q74 0 120.5 43q46.5 43 46.5 126l52 0q0 -54 -17 -94.5q-17 -40.5 -46 -68.5q-29 -28 -69.5 -42q-40.5 -14 -86.5 -14q-52 0 -91 14.5q-39 14.5 -64.5 38.5q-25.5 24 -38.5 56q-13 32 -13 67q0 39 13 68q13 29 32.5 51q19.5 22 43 38q23.5 16 43.5 28l55 33v69h54zM283 386h-58v123l58 0z" />
<glyph unicode="&#192;" horiz-adv-x="654" d="M26 20l271 680h59l272 -680v-20h-57l-78 198h-335l-79 -198h-53zM475 248l-149 375l-150 -375zM184 891v22h60l115 -151l-59 0z" />
<glyph unicode="&#193;" horiz-adv-x="654" d="M26 20l271 680h59l272 -680v-20h-57l-78 198h-335l-79 -198h-53zM475 248l-149 375l-150 -375zM363 762h-59l115 151h60l0 -22z" />
<glyph unicode="&#194;" horiz-adv-x="654" d="M26 20l271 680h59l272 -680v-20h-57l-78 198h-335l-79 -198h-53zM475 248l-149 375l-150 -375zM470 784v-22h-56l-89 107l-88 -107h-55v22l116 129l56 0z" />
<glyph unicode="&#195;" horiz-adv-x="654" d="M26 20l271 680h59l272 -680v-20h-57l-78 198h-335l-79 -198h-53zM475 248l-149 375l-150 -375zM146 796q32 47 55 68.5q23 21.5 53 21.5q18 0 34.5 -7.5q16.5 -7.5 32.5 -18.5l23 -16q16 -11 29 -17.5q13 -6.5 28 -6.5q16 0 30.5 13.5q14.5 13.5 42.5 51.5l34 -25q-29 -47 -54 -69q-25 -22 -55 -22q-19 0 -34 7.5q-15 7.5 -31 18.5l-22 14q-16 12 -28 19.5q-12 7.5 -26 7.5q-11 0 -19 -3.5q-8 -3.5 -16.5 -11q-8.5 -7.5 -19 -20q-10.5 -12.5 -24.5 -31.5z" />
<glyph unicode="&#196;" horiz-adv-x="654" d="M26 20l271 680h59l272 -680v-20h-57l-78 198h-335l-79 -198h-53zM475 248l-149 375l-150 -375zM201 886h57v-118h-57zM395 886h57v-118l-57 0z" />
<glyph unicode="&#197;" horiz-adv-x="654" d="M26 20l271 680h59l272 -680v-20h-57l-78 198h-335l-79 -198h-53zM475 248l-149 375l-150 -375zM225 846q0 21 8 40q8 19 21.5 33q13.5 14 32 22q18.5 8 39.5 8q43 0 73 -30q30 -30 30 -73q0 -22 -8 -40q-8 -18 -22 -31.5q-14 -13.5 -32.5 -21.5q-18.5 -8 -40.5 -8q-21 0 -39.5 8q-18.5 8 -32 21.5q-13.5 13.5 -21.5 31.5q-8 18 -8 40zt0 0zM262 846q0 -26 19 -45q19 -19 45 -19q28 0 46.5 19q18.5 19 18.5 45q0 28 -18.5 46.5q-18.5 18.5 -46.5 18.5q-26 0 -45 -18.5t-19 -46.5z" />
<glyph unicode="&#198;" horiz-adv-x="954" d="M16 20l427 680h454v-52h-367v-269h320v-52h-320v-275h368v-52h-426v198h-279l-125 -198h-52zM472 248v393l-248 -393z" />
<glyph unicode="&#199;" horiz-adv-x="658" d="M304 -13q-109 10 -168.5 74.5q-59.5 64.5 -59.5 175.5v226q0 120 69.5 186q69.5 66 194.5 66q50 0 96 -14.5q46 -14.5 80.5 -43.5q34.5 -29 55 -73q20.5 -44 20.5 -103v-10h-58v10q0 45 -16.5 79q-16.5 34 -44 56.5q-27.5 22.5 -62.5 33.5q-35 11 -71 11q-99 0 -152.5 -51q-53.5 -51 -53.5 -143v-234q0 -92 53.5 -143q53.5 -51 152.5 -51q36 0 71 11q35 11 62.5 33.5q27.5 22.5 44 56.5q16.5 34 16.5 79v10h58v-10q0 -56 -18.5 -98.5q-18.5 -42.5 -50.5 -71.5q-32 -29 -74.5 -44.5q-42.5 -15.5 -89.5 -18.5l-94 -146h-56l0 20z" />
<glyph unicode="&#200;" horiz-adv-x="578" d="M96 700h425v-52h-367v-269h320v-52h-320v-275h368v-52h-426zM201 891v22h60l115 -151l-59 0z" />
<glyph unicode="&#201;" horiz-adv-x="578" d="M96 700h425v-52h-367v-269h320v-52h-320v-275h368v-52h-426zM313 762h-59l115 151h60l0 -22z" />
<glyph unicode="&#202;" horiz-adv-x="578" d="M96 700h425v-52h-367v-269h320v-52h-320v-275h368v-52h-426zM456 784v-22h-56l-89 107l-88 -107h-55v22l116 129l56 0z" />
<glyph unicode="&#203;" horiz-adv-x="578" d="M96 700h425v-52h-367v-269h320v-52h-320v-275h368v-52h-426zM181 886h57v-118h-57zM374 886h58v-118l-58 0z" />
<glyph unicode="&#204;" horiz-adv-x="250" d="M96 700h58v-700h-58zM-20 891v22h60l115 -151l-59 0z" />
<glyph unicode="&#205;" horiz-adv-x="250" d="M96 700h58v-700h-58zM156 762h-59l115 151h60l0 -22z" />
<glyph unicode="&#206;" horiz-adv-x="250" d="M96 700h58v-700h-58zM269 784v-22h-56l-89 107l-88 -107h-55v22l116 129l56 0z" />
<glyph unicode="&#207;" horiz-adv-x="250" d="M96 700h58v-700h-58zM-1 887h58v-119h-58zM193 887h59v-119l-59 0z" />
<glyph unicode="&#208;" horiz-adv-x="696" d="M357 52q97 0 151 52q54 52 54 140v212q0 88 -54 140q-54 52 -151 52h-181v-273h201v-49h-201v-274zM117 326h-97v49h97v325h240q60 0 108.5 -16.5q48.5 -16.5 83 -47.5q34.5 -31 53 -77q18.5 -46 18.5 -104v-210q0 -59 -18.5 -104.5q-18.5 -45.5 -53 -76.5q-34.5 -31 -83 -47.5q-48.5 -16.5 -108.5 -16.5l-240 0z" />
<glyph unicode="&#209;" horiz-adv-x="694" d="M96 700h54l389 -592v592h59v-700h-54l-390 591v-591h-58zM169 796q32 47 55 68.5q23 21.5 53 21.5q18 0 34.5 -7.5q16.5 -7.5 32.5 -18.5l23 -16q16 -11 29 -17.5q13 -6.5 28 -6.5q16 0 30.5 13.5q14.5 13.5 42.5 51.5l34 -25q-29 -47 -54 -69q-25 -22 -55 -22q-19 0 -34 7.5q-15 7.5 -31 18.5l-22 14q-16 12 -28 19.5q-12 7.5 -26 7.5q-11 0 -19 -3.5q-8 -3.5 -16.5 -11q-8.5 -7.5 -19 -20q-10.5 -12.5 -24.5 -31.5z" />
<glyph unicode="&#210;" horiz-adv-x="678" d="M339 39q97 0 151 52.5q54 52.5 54 140.5v236q0 88 -54 140.5q-54 52.5 -151 52.5q-97 0 -151 -52.5q-54 -52.5 -54 -140.5v-236q0 -88 54 -140.5q54 -52.5 151 -52.5zt0 0zM339 -15q-60 0 -109 17q-49 17 -83 49q-34 32 -52.5 78.5q-18.5 46.5 -18.5 105.5v230q0 59 18.5 105.5q18.5 46.5 52.5 78.5q34 32 83 49q49 17 109 17q60 0 108.5 -17q48.5 -17 83 -49q34.5 -32 53 -78.5q18.5 -46.5 18.5 -105.5v-230q0 -59 -18.5 -105.5q-18.5 -46.5 -53 -78.5q-34.5 -32 -83 -49q-48.5 -17 -108.5 -17zt0 0zM217 891v22h60l115 -151l-59 0z" />
<glyph unicode="&#211;" horiz-adv-x="678" d="M339 39q97 0 151 52.5q54 52.5 54 140.5v236q0 88 -54 140.5q-54 52.5 -151 52.5q-97 0 -151 -52.5q-54 -52.5 -54 -140.5v-236q0 -88 54 -140.5q54 -52.5 151 -52.5zt0 0zM339 -15q-60 0 -109 17q-49 17 -83 49q-34 32 -52.5 78.5q-18.5 46.5 -18.5 105.5v230q0 59 18.5 105.5q18.5 46.5 52.5 78.5q34 32 83 49q49 17 109 17q60 0 108.5 -17q48.5 -17 83 -49q34.5 -32 53 -78.5q18.5 -46.5 18.5 -105.5v-230q0 -59 -18.5 -105.5q-18.5 -46.5 -53 -78.5q-34.5 -32 -83 -49q-48.5 -17 -108.5 -17zt0 0zM369 762h-59l115 151h60l0 -22z" />
<glyph unicode="&#212;" horiz-adv-x="678" d="M339 39q97 0 151 52.5q54 52.5 54 140.5v236q0 88 -54 140.5q-54 52.5 -151 52.5q-97 0 -151 -52.5q-54 -52.5 -54 -140.5v-236q0 -88 54 -140.5q54 -52.5 151 -52.5zt0 0zM339 -15q-60 0 -109 17q-49 17 -83 49q-34 32 -52.5 78.5q-18.5 46.5 -18.5 105.5v230q0 59 18.5 105.5q18.5 46.5 52.5 78.5q34 32 83 49q49 17 109 17q60 0 108.5 -17q48.5 -17 83 -49q34.5 -32 53 -78.5q18.5 -46.5 18.5 -105.5v-230q0 -59 -18.5 -105.5q-18.5 -46.5 -53 -78.5q-34.5 -32 -83 -49q-48.5 -17 -108.5 -17zt0 0zM483 784v-22h-56l-89 107l-88 -107h-55v22l116 129l56 0z" />
<glyph unicode="&#213;" horiz-adv-x="678" d="M339 39q97 0 151 52.5q54 52.5 54 140.5v236q0 88 -54 140.5q-54 52.5 -151 52.5q-97 0 -151 -52.5q-54 -52.5 -54 -140.5v-236q0 -88 54 -140.5q54 -52.5 151 -52.5zt0 0zM339 -15q-60 0 -109 17q-49 17 -83 49q-34 32 -52.5 78.5q-18.5 46.5 -18.5 105.5v230q0 59 18.5 105.5q18.5 46.5 52.5 78.5q34 32 83 49q49 17 109 17q60 0 108.5 -17q48.5 -17 83 -49q34.5 -32 53 -78.5q18.5 -46.5 18.5 -105.5v-230q0 -59 -18.5 -105.5q-18.5 -46.5 -53 -78.5q-34.5 -32 -83 -49q-48.5 -17 -108.5 -17zt0 0zM162 796q32 47 55 68.5q23 21.5 53 21.5q18 0 34.5 -7.5q16.5 -7.5 32.5 -18.5l23 -16q16 -11 29 -17.5q13 -6.5 28 -6.5q16 0 30.5 13.5q14.5 13.5 42.5 51.5l34 -25q-29 -47 -54 -69q-25 -22 -55 -22q-19 0 -34 7.5q-15 7.5 -31 18.5l-22 14q-16 12 -28 19.5q-12 7.5 -26 7.5q-11 0 -19 -3.5q-8 -3.5 -16.5 -11q-8.5 -7.5 -19 -20q-10.5 -12.5 -24.5 -31.5z" />
<glyph unicode="&#214;" horiz-adv-x="678" d="M339 39q97 0 151 52.5q54 52.5 54 140.5v236q0 88 -54 140.5q-54 52.5 -151 52.5q-97 0 -151 -52.5q-54 -52.5 -54 -140.5v-236q0 -88 54 -140.5q54 -52.5 151 -52.5zt0 0zM339 -15q-60 0 -109 17q-49 17 -83 49q-34 32 -52.5 78.5q-18.5 46.5 -18.5 105.5v230q0 59 18.5 105.5q18.5 46.5 52.5 78.5q34 32 83 49q49 17 109 17q60 0 108.5 -17q48.5 -17 83 -49q34.5 -32 53 -78.5q18.5 -46.5 18.5 -105.5v-230q0 -59 -18.5 -105.5q-18.5 -46.5 -53 -78.5q-34.5 -32 -83 -49q-48.5 -17 -108.5 -17zt0 0zM215 886h57v-118h-57zM409 886h57v-118l-57 0z" />
<glyph unicode="&#215;" horiz-adv-x="482" d="M54 160l152 152l-152 151l36 36l151 -152l152 152l35 -36l-152 -151l152 -152l-35 -35l-152 152l-151 -152z" />
<glyph unicode="&#216;" horiz-adv-x="678" d="M339 -15q-62 0 -111 17l-40 -102h-44v20l40 103q-52 31 -80 84q-28 53 -28 128v230q0 59 18.5 105.5q18.5 46.5 52.5 78.5q34 32 83 49q49 17 109 17q59 0 108 -17l40 102h44v-20l-40 -102q53 -31 82 -84.5q29 -53.5 29 -128.5v-230q0 -59 -18.5 -105.5q-18.5 -46.5 -53 -78.5q-34.5 -32 -83 -49q-48.5 -17 -108.5 -17zt0 0zM339 39q97 0 151 52.5q54 52.5 54 140.5v236q0 51 -19 91q-19 40 -55 65l-222 -570q39 -15 91 -15zt0 0zM134 232q0 -103 71 -155l222 570q-40 14 -88 14q-97 0 -151 -52.5q-54 -52.5 -54 -140.5z" />
<glyph unicode="&#217;" horiz-adv-x="673" d="M337 -15q-53 0 -99 15.5q-46 15.5 -79.5 46q-33.5 30.5 -53 76q-19.5 45.5 -19.5 105.5v472h58v-472q0 -91 52.5 -140q52.5 -49 140.5 -49q88 0 140 48.5q52 48.5 52 140.5v472h59v-472q0 -60 -19.5 -105q-19.5 -45 -53.5 -76q-34 -31 -80 -46.5q-46 -15.5 -98 -15.5zt0 0zM234 891v22h60l115 -151l-59 0z" />
<glyph unicode="&#218;" horiz-adv-x="673" d="M337 -15q-53 0 -99 15.5q-46 15.5 -79.5 46q-33.5 30.5 -53 76q-19.5 45.5 -19.5 105.5v472h58v-472q0 -91 52.5 -140q52.5 -49 140.5 -49q88 0 140 48.5q52 48.5 52 140.5v472h59v-472q0 -60 -19.5 -105q-19.5 -45 -53.5 -76q-34 -31 -80 -46.5q-46 -15.5 -98 -15.5zt0 0zM361 762h-59l115 151h60l0 -22z" />
<glyph unicode="&#219;" horiz-adv-x="673" d="M337 -15q-53 0 -99 15.5q-46 15.5 -79.5 46q-33.5 30.5 -53 76q-19.5 45.5 -19.5 105.5v472h58v-472q0 -91 52.5 -140q52.5 -49 140.5 -49q88 0 140 48.5q52 48.5 52 140.5v472h59v-472q0 -60 -19.5 -105q-19.5 -45 -53.5 -76q-34 -31 -80 -46.5q-46 -15.5 -98 -15.5zt0 0zM481 784v-22h-56l-89 107l-88 -107h-55v22l116 129l56 0z" />
<glyph unicode="&#220;" horiz-adv-x="673" d="M337 -15q-53 0 -99 15.5q-46 15.5 -79.5 46q-33.5 30.5 -53 76q-19.5 45.5 -19.5 105.5v472h58v-472q0 -91 52.5 -140q52.5 -49 140.5 -49q88 0 140 48.5q52 48.5 52 140.5v472h59v-472q0 -60 -19.5 -105q-19.5 -45 -53.5 -76q-34 -31 -80 -46.5q-46 -15.5 -98 -15.5zt0 0zM213 886h57v-118h-57zM407 886h57v-118l-57 0z" />
<glyph unicode="&#221;" horiz-adv-x="604" d="M273 278l-257 402v20h57l229 -367l233 367h53v-20l-257 -400v-280h-58zM323 762h-59l115 151h60l0 -22z" />
<glyph unicode="&#222;" horiz-adv-x="620" d="M96 700h58v-141h226q90 0 139.5 -56q49.5 -56 49.5 -151q0 -95 -49.5 -150.5q-49.5 -55.5 -139.5 -55.5h-226v-146h-58zM371 198q63 0 101 40.5q38 40.5 38 113.5q0 74 -38 114.5q-38 40.5 -101 40.5h-217l0 -309z" />
<glyph unicode="&#223;" horiz-adv-x="584" d="M86 468q0 115 55.5 177q55.5 62 156.5 62q48 0 84.5 -14q36.5 -14 62 -38q25.5 -24 38.5 -55.5q13 -31.5 13 -67.5q0 -60 -27 -96.5q-27 -36.5 -75 -50.5q26 -6 50.5 -21.5q24.5 -15.5 43 -38.5q18.5 -23 30 -53.5q11.5 -30.5 11.5 -67.5q0 -100 -58.5 -152q-58.5 -52 -161.5 -52q-25 0 -45 2.5q-20 2.5 -25 3.5l0 47q10 -2 21 -3q9 -1 21 -1.5q12 -0.5 24 -0.5q85 0 127.5 41.5q42.5 41.5 42.5 116.5q0 70 -44.5 112q-44.5 42 -122.5 42h-58v47h54q70 0 102.5 33.5q32.5 33.5 32.5 89.5q0 26 -9 49q-9 23 -26.5 40.5q-17.5 17.5 -44 27.5q-26.5 10 -61.5 10q-76 0 -117 -47.5q-41 -47.5 -41 -136.5v-473l-54 0z" />
<glyph unicode="&#224;" horiz-adv-x="538" d="M217 -12q-33 0 -63.5 8.5q-30.5 8.5 -53 26.5q-22.5 18 -36 45.5q-13.5 27.5 -13.5 65.5q0 78 53.5 119.5q53.5 41.5 157.5 41.5h142v59q0 51 -33.5 84q-33.5 33 -103.5 33q-67 0 -101.5 -32q-34.5 -32 -34.5 -81l-53 0q0 35 11.5 65q11.5 30 35 51.5q23.5 21.5 59 34q35.5 12.5 83.5 12.5q48 0 84 -12.5q36 -12.5 60 -34.5q24 -22 35.5 -52q11.5 -30 11.5 -65v-357h-35l-18 71q-12 -13 -31 -27.5q-19 -14.5 -43 -27q-24 -12.5 -53 -20.5q-29 -8 -61 -8zt0 0zM227 38q29 0 55.5 8.5q26.5 8.5 49.5 21q23 12.5 41 27q18 14.5 31 26.5l0 126h-142q-81 0 -119 -28q-38 -28 -38 -79q0 -27 10 -46.5q10 -19.5 26.5 -31.5q16.5 -12 38.5 -18q22 -6 47 -6zt0 0zM181 710v20h56l107 -140l-55 0z" />
<glyph unicode="&#225;" horiz-adv-x="538" d="M217 -12q-33 0 -63.5 8.5q-30.5 8.5 -53 26.5q-22.5 18 -36 45.5q-13.5 27.5 -13.5 65.5q0 78 53.5 119.5q53.5 41.5 157.5 41.5h142v59q0 51 -33.5 84q-33.5 33 -103.5 33q-67 0 -101.5 -32q-34.5 -32 -34.5 -81l-53 0q0 35 11.5 65q11.5 30 35 51.5q23.5 21.5 59 34q35.5 12.5 83.5 12.5q48 0 84 -12.5q36 -12.5 60 -34.5q24 -22 35.5 -52q11.5 -30 11.5 -65v-357h-35l-18 71q-12 -13 -31 -27.5q-19 -14.5 -43 -27q-24 -12.5 -53 -20.5q-29 -8 -61 -8zt0 0zM227 38q29 0 55.5 8.5q26.5 8.5 49.5 21q23 12.5 41 27q18 14.5 31 26.5l0 126h-142q-81 0 -119 -28q-38 -28 -38 -79q0 -27 10 -46.5q10 -19.5 26.5 -31.5q16.5 -12 38.5 -18q22 -6 47 -6zt0 0zM288 590h-55l107 140h56l0 -20z" />
<glyph unicode="&#226;" horiz-adv-x="538" d="M217 -12q-33 0 -63.5 8.5q-30.5 8.5 -53 26.5q-22.5 18 -36 45.5q-13.5 27.5 -13.5 65.5q0 78 53.5 119.5q53.5 41.5 157.5 41.5h142v59q0 51 -33.5 84q-33.5 33 -103.5 33q-67 0 -101.5 -32q-34.5 -32 -34.5 -81l-53 0q0 35 11.5 65q11.5 30 35 51.5q23.5 21.5 59 34q35.5 12.5 83.5 12.5q48 0 84 -12.5q36 -12.5 60 -34.5q24 -22 35.5 -52q11.5 -30 11.5 -65v-357h-35l-18 71q-12 -13 -31 -27.5q-19 -14.5 -43 -27q-24 -12.5 -53 -20.5q-29 -8 -61 -8zt0 0zM227 38q29 0 55.5 8.5q26.5 8.5 49.5 21q23 12.5 41 27q18 14.5 31 26.5l0 126h-142q-81 0 -119 -28q-38 -28 -38 -79q0 -27 10 -46.5q10 -19.5 26.5 -31.5q16.5 -12 38.5 -18q22 -6 47 -6zt0 0zM411 610v-20h-52l-83 99l-82 -99h-52v20l108 120l53 0z" />
<glyph unicode="&#227;" horiz-adv-x="538" d="M217 -12q-33 0 -63.5 8.5q-30.5 8.5 -53 26.5q-22.5 18 -36 45.5q-13.5 27.5 -13.5 65.5q0 78 53.5 119.5q53.5 41.5 157.5 41.5h142v59q0 51 -33.5 84q-33.5 33 -103.5 33q-67 0 -101.5 -32q-34.5 -32 -34.5 -81l-53 0q0 35 11.5 65q11.5 30 35 51.5q23.5 21.5 59 34q35.5 12.5 83.5 12.5q48 0 84 -12.5q36 -12.5 60 -34.5q24 -22 35.5 -52q11.5 -30 11.5 -65v-357h-35l-18 71q-12 -13 -31 -27.5q-19 -14.5 -43 -27q-24 -12.5 -53 -20.5q-29 -8 -61 -8zt0 0zM227 38q29 0 55.5 8.5q26.5 8.5 49.5 21q23 12.5 41 27q18 14.5 31 26.5l0 126h-142q-81 0 -119 -28q-38 -28 -38 -79q0 -27 10 -46.5q10 -19.5 26.5 -31.5q16.5 -12 38.5 -18q22 -6 47 -6zt0 0zM105 634q31 46 53.5 67q22.5 21 51.5 21q18 0 34 -7.5q16 -7.5 32 -18.5l22 -15q16 -11 28.5 -17.5q12.5 -6.5 26.5 -6.5q16 0 30 13.5q14 13.5 42 50.5l33 -25q-29 -46 -53 -67q-24 -21 -53 -21q-19 0 -33.5 7q-14.5 7 -30.5 18l-21 14q-16 11 -27.5 18.5q-11.5 7.5 -25.5 7.5q-10 0 -18 -3.5q-8 -3.5 -16.5 -11q-8.5 -7.5 -18.5 -19.5q-10 -12 -24 -30z" />
<glyph unicode="&#228;" horiz-adv-x="538" d="M217 -12q-33 0 -63.5 8.5q-30.5 8.5 -53 26.5q-22.5 18 -36 45.5q-13.5 27.5 -13.5 65.5q0 78 53.5 119.5q53.5 41.5 157.5 41.5h142v59q0 51 -33.5 84q-33.5 33 -103.5 33q-67 0 -101.5 -32q-34.5 -32 -34.5 -81l-53 0q0 35 11.5 65q11.5 30 35 51.5q23.5 21.5 59 34q35.5 12.5 83.5 12.5q48 0 84 -12.5q36 -12.5 60 -34.5q24 -22 35.5 -52q11.5 -30 11.5 -65v-357h-35l-18 71q-12 -13 -31 -27.5q-19 -14.5 -43 -27q-24 -12.5 -53 -20.5q-29 -8 -61 -8zt0 0zM227 38q29 0 55.5 8.5q26.5 8.5 49.5 21q23 12.5 41 27q18 14.5 31 26.5l0 126h-142q-81 0 -119 -28q-38 -28 -38 -79q0 -27 10 -46.5q10 -19.5 26.5 -31.5q16.5 -12 38.5 -18q22 -6 47 -6zt0 0zM150 705h54v-110h-54zM331 705h54v-110l-54 0z" />
<glyph unicode="&#229;" horiz-adv-x="538" d="M217 -12q-33 0 -63.5 8.5q-30.5 8.5 -53 26.5q-22.5 18 -36 45.5q-13.5 27.5 -13.5 65.5q0 78 53.5 119.5q53.5 41.5 157.5 41.5h142v59q0 51 -33.5 84q-33.5 33 -103.5 33q-67 0 -101.5 -32q-34.5 -32 -34.5 -81l-53 0q0 35 11.5 65q11.5 30 35 51.5q23.5 21.5 59 34q35.5 12.5 83.5 12.5q48 0 84 -12.5q36 -12.5 60 -34.5q24 -22 35.5 -52q11.5 -30 11.5 -65v-357h-35l-18 71q-12 -13 -31 -27.5q-19 -14.5 -43 -27q-24 -12.5 -53 -20.5q-29 -8 -61 -8zt0 0zM227 38q29 0 55.5 8.5q26.5 8.5 49.5 21q23 12.5 41 27q18 14.5 31 26.5l0 126h-142q-81 0 -119 -28q-38 -28 -38 -79q0 -27 10 -46.5q10 -19.5 26.5 -31.5q16.5 -12 38.5 -18q22 -6 47 -6zt0 0zM177 667q0 20 7.5 37.5q7.5 17.5 20 30.5q12.5 13 29.5 20.5q17 7.5 37 7.5q40 0 68 -28q28 -28 28 -68q0 -20 -7.5 -37q-7.5 -17 -20.5 -29.5q-13 -12.5 -30.5 -20q-17.5 -7.5 -37.5 -7.5q-20 0 -37 7.5q-17 7.5 -29.5 20q-12.5 12.5 -20 29.5q-7.5 17 -7.5 37zt0 0zM211 667q0 -24 18 -41.5q18 -17.5 42 -17.5q26 0 43.5 17.5q17.5 17.5 17.5 41.5q0 26 -17.5 43.5q-17.5 17.5 -43.5 17.5q-24 0 -42 -17.5t-18 -43.5z" />
<glyph unicode="&#230;" horiz-adv-x="875" d="M217 -12q-34 0 -64.5 8.5q-30.5 8.5 -53 26q-22.5 17.5 -35.5 44.5q-13 27 -13 64q0 77 53.5 117.5q53.5 40.5 157.5 40.5h142v64q0 51 -33.5 83.5q-33.5 32.5 -103.5 32.5q-67 0 -101.5 -31q-34.5 -31 -34.5 -80l-53 0q0 35 11.5 65q11.5 30 35 51.5q23.5 21.5 59 34q35.5 12.5 83.5 12.5q69 0 110 -26q41 -26 58 -68q21 42 65 68q44 26 110 26q49 0 87 -14q38 -14 63.5 -38.5q25.5 -24.5 39 -59q13.5 -34.5 13.5 -76.5v-91h-355v-64q0 -62 39.5 -100q39.5 -38 112.5 -38q69 0 103.5 30.5q34.5 30.5 41.5 80.5l54 0q-7 -74 -56.5 -118.5q-49.5 -44.5 -142.5 -44.5q-79 0 -125.5 31.5q-46.5 31.5 -65.5 77.5q-15 -22 -35.5 -41.5q-20.5 -19.5 -46 -34.5q-25.5 -15 -56 -24q-30.5 -9 -64.5 -9zt0 0zM227 40q31 0 59 9.5q28 9.5 51 24.5q23 15 40 33.5q17 18.5 27 36.5l0 98h-142q-81 0 -119 -26.5q-38 -26.5 -38 -77.5q0 -26 10 -44.5q10 -18.5 26.5 -30.5q16.5 -12 38.5 -17.5q22 -5.5 47 -5.5zt0 0zM759 289v42q0 59 -37.5 98.5q-37.5 39.5 -113.5 39.5q-73 0 -111.5 -39q-38.5 -39 -38.5 -99l0 -42z" />
<glyph unicode="&#231;" horiz-adv-x="527" d="M243 -11q-88 7 -134 58.5q-46 51.5 -46 129.5v155q0 41 13.5 76q13.5 35 39.5 60q26 25 64 39q38 14 87 14q47 0 84.5 -13q37.5 -13 63.5 -36.5q26 -23.5 40 -56q14 -32.5 14 -72.5v-5h-54v6q0 56 -38.5 91.5q-38.5 35.5 -109.5 35.5q-74 0 -112 -39q-38 -39 -38 -99v-157q0 -61 38 -99.5q38 -38.5 112 -38.5q72 0 110 36.5q38 36.5 38 92.5v6h54v-5q0 -73 -45 -121.5q-45 -48.5 -125 -56.5l-97 -150h-56l0 20z" />
<glyph unicode="&#232;" horiz-adv-x="534" d="M269 -12q-50 0 -88 14q-38 14 -64.5 38.5q-26.5 24.5 -40 59q-13.5 34.5 -13.5 76.5v156q0 41 13.5 76q13.5 35 40 60q26.5 25 64.5 39q38 14 88 14q49 0 86.5 -14q37.5 -14 63.5 -38.5q26 -24.5 39.5 -59q13.5 -34.5 13.5 -76.5v-97h-355v-59q0 -61 38.5 -100q38.5 -39 113.5 -39q69 0 103.5 31.5q34.5 31.5 41.5 81.5l54 0q-6 -74 -56.5 -118.5q-50.5 -44.5 -142.5 -44.5zt0 0zM418 284v49q0 59 -37.5 98.5q-37.5 39.5 -113.5 39.5q-73 0 -111.5 -39q-38.5 -39 -38.5 -99v-49zM161 710v20h56l107 -140l-55 0z" />
<glyph unicode="&#233;" horiz-adv-x="534" d="M269 -12q-50 0 -88 14q-38 14 -64.5 38.5q-26.5 24.5 -40 59q-13.5 34.5 -13.5 76.5v156q0 41 13.5 76q13.5 35 40 60q26.5 25 64.5 39q38 14 88 14q49 0 86.5 -14q37.5 -14 63.5 -38.5q26 -24.5 39.5 -59q13.5 -34.5 13.5 -76.5v-97h-355v-59q0 -61 38.5 -100q38.5 -39 113.5 -39q69 0 103.5 31.5q34.5 31.5 41.5 81.5l54 0q-6 -74 -56.5 -118.5q-50.5 -44.5 -142.5 -44.5zt0 0zM418 284v49q0 59 -37.5 98.5q-37.5 39.5 -113.5 39.5q-73 0 -111.5 -39q-38.5 -39 -38.5 -99v-49zM266 590h-55l107 140h56l0 -20z" />
<glyph unicode="&#234;" horiz-adv-x="534" d="M269 -12q-50 0 -88 14q-38 14 -64.5 38.5q-26.5 24.5 -40 59q-13.5 34.5 -13.5 76.5v156q0 41 13.5 76q13.5 35 40 60q26.5 25 64.5 39q38 14 88 14q49 0 86.5 -14q37.5 -14 63.5 -38.5q26 -24.5 39.5 -59q13.5 -34.5 13.5 -76.5v-97h-355v-59q0 -61 38.5 -100q38.5 -39 113.5 -39q69 0 103.5 31.5q34.5 31.5 41.5 81.5l54 0q-6 -74 -56.5 -118.5q-50.5 -44.5 -142.5 -44.5zt0 0zM418 284v49q0 59 -37.5 98.5q-37.5 39.5 -113.5 39.5q-73 0 -111.5 -39q-38.5 -39 -38.5 -99v-49zM407 610v-20h-52l-83 99l-82 -99h-52v20l108 120l53 0z" />
<glyph unicode="&#235;" horiz-adv-x="534" d="M269 -12q-50 0 -88 14q-38 14 -64.5 38.5q-26.5 24.5 -40 59q-13.5 34.5 -13.5 76.5v156q0 41 13.5 76q13.5 35 40 60q26.5 25 64.5 39q38 14 88 14q49 0 86.5 -14q37.5 -14 63.5 -38.5q26 -24.5 39.5 -59q13.5 -34.5 13.5 -76.5v-97h-355v-59q0 -61 38.5 -100q38.5 -39 113.5 -39q69 0 103.5 31.5q34.5 31.5 41.5 81.5l54 0q-6 -74 -56.5 -118.5q-50.5 -44.5 -142.5 -44.5zt0 0zM418 284v49q0 59 -37.5 98.5q-37.5 39.5 -113.5 39.5q-73 0 -111.5 -39q-38.5 -39 -38.5 -99v-49zM151 705h54v-110h-54zM332 705h54v-110l-54 0z" />
<glyph unicode="&#236;" horiz-adv-x="225" d="M-23 708v20h56l107 -140h-55zM86 509h54v-509l-54 0z" />
<glyph unicode="&#237;" horiz-adv-x="225" d="M141 590h-55l107 140h56v-20zM86 509h54v-509l-54 0z" />
<glyph unicode="&#238;" horiz-adv-x="225" d="M86 509h54v-509h-54zM248 610v-20h-52l-83 99l-82 -99h-52v20l108 120l53 0z" />
<glyph unicode="&#239;" horiz-adv-x="225" d="M-4 705h54v-110h-54zM177 705h54v-110h-54zM86 509h54v-509l-54 0z" />
<glyph unicode="&#240;" horiz-adv-x="552" d="M273 -12q-50 0 -88 14q-38 14 -64.5 39q-26.5 25 -40 59.5q-13.5 34.5 -13.5 76.5v94q0 88 48 138.5q48 50.5 132 50.5q29 0 53.5 -7q24.5 -7 45 -18.5q20.5 -11.5 38 -25.5q17.5 -14 31.5 -28q-11 43 -34.5 79.5q-23.5 36.5 -55.5 77.5l-179 0v48h140l-75 93v26h49l93 -119h120v-48h-83q21 -28 37.5 -53q16.5 -25 28.5 -51.5q12 -26.5 18 -56.5q6 -30 6 -67v-134q0 -42 -14 -76.5q-14 -34.5 -40 -59q-26 -24.5 -65 -38.5q-39 -14 -88 -14zt0 0zM273 38q75 0 114 40q39 40 39 101v141q-15 17 -33 33q-18 16 -39 28.5q-21 12.5 -44.5 20q-23.5 7.5 -49.5 7.5q-66 0 -102.5 -40q-36.5 -40 -36.5 -102v-88q0 -30 9.5 -55.5q9.5 -25.5 28 -44.5q18.5 -19 47 -30t67.5 -11z" />
<glyph unicode="&#241;" horiz-adv-x="574" d="M86 509h34l17 -77q15 17 34 33q19 16 42 28.5q23 12.5 49.5 20q26.5 7.5 56.5 7.5q37 0 69.5 -12q32.5 -12 55.5 -36q23 -24 36.5 -59.5q13.5 -35.5 13.5 -82.5v-331h-54v324q0 76 -37 111.5q-37 35.5 -92 35.5q-26 0 -50.5 -8q-24.5 -8 -46.5 -21q-22 -13 -40.5 -29.5q-18.5 -16.5 -33.5 -34.5l0 -378h-54zM119 634q31 46 53.5 67q22.5 21 51.5 21q18 0 34 -7.5q16 -7.5 32 -18.5l22 -15q16 -11 28.5 -17.5q12.5 -6.5 26.5 -6.5q16 0 30 13.5q14 13.5 42 50.5l33 -25q-29 -46 -53 -67q-24 -21 -53 -21q-19 0 -33.5 7q-14.5 7 -30.5 18l-21 14q-16 11 -27.5 18.5q-11.5 7.5 -25.5 7.5q-10 0 -18 -3.5q-8 -3.5 -16.5 -11q-8.5 -7.5 -18.5 -19.5q-10 -12 -24 -30z" />
<glyph unicode="&#242;" horiz-adv-x="538" d="M269 38q39 0 67.5 11q28.5 11 47 30q18.5 19 28 44.5q9.5 25.5 9.5 55.5v151q0 30 -9.5 55.5q-9.5 25.5 -28 44.5q-18.5 19 -47 30q-28.5 11 -67.5 11q-75 0 -113.5 -40.5q-38.5 -40.5 -38.5 -100.5v-151q0 -61 38.5 -101q38.5 -40 113.5 -40zt0 0zM269 -12q-51 0 -90 14.5q-39 14.5 -64.5 40q-25.5 25.5 -38.5 60q-13 34.5 -13 74.5v155q0 40 13 74.5q13 34.5 38.5 60q25.5 25.5 64.5 40q39 14.5 90 14.5q52 0 90.5 -14.5q38.5 -14.5 64 -40q25.5 -25.5 38.5 -60q13 -34.5 13 -74.5v-155q0 -40 -13 -74.5q-13 -34.5 -38.5 -60q-25.5 -25.5 -64 -40q-38.5 -14.5 -90.5 -14.5zt0 0zM151 710v20h56l107 -140l-55 0z" />
<glyph unicode="&#243;" horiz-adv-x="538" d="M269 38q39 0 67.5 11q28.5 11 47 30q18.5 19 28 44.5q9.5 25.5 9.5 55.5v151q0 30 -9.5 55.5q-9.5 25.5 -28 44.5q-18.5 19 -47 30q-28.5 11 -67.5 11q-75 0 -113.5 -40.5q-38.5 -40.5 -38.5 -100.5v-151q0 -61 38.5 -101q38.5 -40 113.5 -40zt0 0zM269 -12q-51 0 -90 14.5q-39 14.5 -64.5 40q-25.5 25.5 -38.5 60q-13 34.5 -13 74.5v155q0 40 13 74.5q13 34.5 38.5 60q25.5 25.5 64.5 40q39 14.5 90 14.5q52 0 90.5 -14.5q38.5 -14.5 64 -40q25.5 -25.5 38.5 -60q13 -34.5 13 -74.5v-155q0 -40 -13 -74.5q-13 -34.5 -38.5 -60q-25.5 -25.5 -64 -40q-38.5 -14.5 -90.5 -14.5zt0 0zM285 590h-55l107 140h56l0 -20z" />
<glyph unicode="&#244;" horiz-adv-x="538" d="M269 38q39 0 67.5 11q28.5 11 47 30q18.5 19 28 44.5q9.5 25.5 9.5 55.5v151q0 30 -9.5 55.5q-9.5 25.5 -28 44.5q-18.5 19 -47 30q-28.5 11 -67.5 11q-75 0 -113.5 -40.5q-38.5 -40.5 -38.5 -100.5v-151q0 -61 38.5 -101q38.5 -40 113.5 -40zt0 0zM269 -12q-51 0 -90 14.5q-39 14.5 -64.5 40q-25.5 25.5 -38.5 60q-13 34.5 -13 74.5v155q0 40 13 74.5q13 34.5 38.5 60q25.5 25.5 64.5 40q39 14.5 90 14.5q52 0 90.5 -14.5q38.5 -14.5 64 -40q25.5 -25.5 38.5 -60q13 -34.5 13 -74.5v-155q0 -40 -13 -74.5q-13 -34.5 -38.5 -60q-25.5 -25.5 -64 -40q-38.5 -14.5 -90.5 -14.5zt0 0zM403 610v-20h-52l-83 99l-82 -99h-52v20l108 120l53 0z" />
<glyph unicode="&#245;" horiz-adv-x="538" d="M269 38q39 0 67.5 11q28.5 11 47 30q18.5 19 28 44.5q9.5 25.5 9.5 55.5v151q0 30 -9.5 55.5q-9.5 25.5 -28 44.5q-18.5 19 -47 30q-28.5 11 -67.5 11q-75 0 -113.5 -40.5q-38.5 -40.5 -38.5 -100.5v-151q0 -61 38.5 -101q38.5 -40 113.5 -40zt0 0zM269 -12q-51 0 -90 14.5q-39 14.5 -64.5 40q-25.5 25.5 -38.5 60q-13 34.5 -13 74.5v155q0 40 13 74.5q13 34.5 38.5 60q25.5 25.5 64.5 40q39 14.5 90 14.5q52 0 90.5 -14.5q38.5 -14.5 64 -40q25.5 -25.5 38.5 -60q13 -34.5 13 -74.5v-155q0 -40 -13 -74.5q-13 -34.5 -38.5 -60q-25.5 -25.5 -64 -40q-38.5 -14.5 -90.5 -14.5zt0 0zM93 634q31 46 53.5 67q22.5 21 51.5 21q18 0 34 -7.5q16 -7.5 32 -18.5l22 -15q16 -11 28.5 -17.5q12.5 -6.5 26.5 -6.5q16 0 30 13.5q14 13.5 42 50.5l33 -25q-29 -46 -53 -67q-24 -21 -53 -21q-19 0 -33.5 7q-14.5 7 -30.5 18l-21 14q-16 11 -27.5 18.5q-11.5 7.5 -25.5 7.5q-10 0 -18 -3.5q-8 -3.5 -16.5 -11q-8.5 -7.5 -18.5 -19.5q-10 -12 -24 -30z" />
<glyph unicode="&#246;" horiz-adv-x="538" d="M269 38q39 0 67.5 11q28.5 11 47 30q18.5 19 28 44.5q9.5 25.5 9.5 55.5v151q0 30 -9.5 55.5q-9.5 25.5 -28 44.5q-18.5 19 -47 30q-28.5 11 -67.5 11q-75 0 -113.5 -40.5q-38.5 -40.5 -38.5 -100.5v-151q0 -61 38.5 -101q38.5 -40 113.5 -40zt0 0zM269 -12q-51 0 -90 14.5q-39 14.5 -64.5 40q-25.5 25.5 -38.5 60q-13 34.5 -13 74.5v155q0 40 13 74.5q13 34.5 38.5 60q25.5 25.5 64.5 40q39 14.5 90 14.5q52 0 90.5 -14.5q38.5 -14.5 64 -40q25.5 -25.5 38.5 -60q13 -34.5 13 -74.5v-155q0 -40 -13 -74.5q-13 -34.5 -38.5 -60q-25.5 -25.5 -64 -40q-38.5 -14.5 -90.5 -14.5zt0 0zM150 705h54v-110h-54zM331 705h54v-110l-54 0z" />
<glyph unicode="&#247;" horiz-adv-x="525" d="M232 210h61v-114h-61zM54 336h417v-46h-417zM232 530h61v-114l-61 0z" />
<glyph unicode="&#248;" horiz-adv-x="538" d="M269 -12q-29 0 -53 4.5q-24 4.5 -45 12.5l-65 -131h-43v26l65 130q-33 26 -49 64q-16 38 -16 83v155q0 40 13 74.5q13 34.5 38.5 60q25.5 25.5 64.5 40q39 14.5 90 14.5q26 0 49 -4q23 -4 43 -12l70 141h44v-26l-69 -139q35 -26 52 -64.5q17 -38.5 17 -84.5v-155q0 -40 -13 -74.5q-13 -34.5 -38.5 -60q-25.5 -25.5 -64 -40q-38.5 -14.5 -90.5 -14.5zt0 0zM269 38q39 0 67.5 11q28.5 11 47 30q18.5 19 28 44.5q9.5 25.5 9.5 55.5v151q0 32 -10 58.5q-10 26.5 -31 46.5l-188 -383q33 -14 77 -14zt0 0zM117 179q0 -30 9 -56q9 -26 28 -45l186 381q-30 12 -71 12q-75 0 -113.5 -40.5q-38.5 -40.5 -38.5 -100.5z" />
<glyph unicode="&#249;" horiz-adv-x="574" d="M488 0h-34l-17 77q-15 -17 -34 -33q-19 -16 -42 -28.5q-23 -12.5 -49.5 -20q-26.5 -7.5 -56.5 -7.5q-38 0 -70 12q-32 12 -55 36q-23 24 -36.5 59.5q-13.5 35.5 -13.5 82.5v331h54v-324q0 -38 10 -66q10 -28 27 -46q17 -18 41 -26.5q24 -8.5 51 -8.5q26 0 50.5 8q24.5 8 46.5 21q22 13 40.5 29.5q18.5 16.5 33.5 34.5l0 378h54zM181 710v20h56l107 -140l-55 0z" />
<glyph unicode="&#250;" horiz-adv-x="574" d="M488 0h-34l-17 77q-15 -17 -34 -33q-19 -16 -42 -28.5q-23 -12.5 -49.5 -20q-26.5 -7.5 -56.5 -7.5q-38 0 -70 12q-32 12 -55 36q-23 24 -36.5 59.5q-13.5 35.5 -13.5 82.5v331h54v-324q0 -38 10 -66q10 -28 27 -46q17 -18 41 -26.5q24 -8.5 51 -8.5q26 0 50.5 8q24.5 8 46.5 21q22 13 40.5 29.5q18.5 16.5 33.5 34.5l0 378h54zM288 590h-55l107 140h56l0 -20z" />
<glyph unicode="&#251;" horiz-adv-x="574" d="M488 0h-34l-17 77q-15 -17 -34 -33q-19 -16 -42 -28.5q-23 -12.5 -49.5 -20q-26.5 -7.5 -56.5 -7.5q-38 0 -70 12q-32 12 -55 36q-23 24 -36.5 59.5q-13.5 35.5 -13.5 82.5v331h54v-324q0 -38 10 -66q10 -28 27 -46q17 -18 41 -26.5q24 -8.5 51 -8.5q26 0 50.5 8q24.5 8 46.5 21q22 13 40.5 29.5q18.5 16.5 33.5 34.5l0 378h54zM421 610v-20h-52l-83 99l-82 -99h-52v20l108 120l53 0z" />
<glyph unicode="&#252;" horiz-adv-x="574" d="M488 0h-34l-17 77q-15 -17 -34 -33q-19 -16 -42 -28.5q-23 -12.5 -49.5 -20q-26.5 -7.5 -56.5 -7.5q-38 0 -70 12q-32 12 -55 36q-23 24 -36.5 59.5q-13.5 35.5 -13.5 82.5v331h54v-324q0 -38 10 -66q10 -28 27 -46q17 -18 41 -26.5q24 -8.5 51 -8.5q26 0 50.5 8q24.5 8 46.5 21q22 13 40.5 29.5q18.5 16.5 33.5 34.5l0 378h54zM168 705h54v-110h-54zM349 705h54v-110l-54 0z" />
<glyph unicode="&#253;" horiz-adv-x="499" d="M165 -139l60 139l-199 483v26h51l175 -437l173 437h50v-26l-264 -643h-46zM258 590h-55l107 140h56l0 -20z" />
<glyph unicode="&#254;" horiz-adv-x="569" d="M320 521q81 0 129.5 -50.5q48.5 -50.5 48.5 -137.5v-157q0 -88 -48 -138q-48 -50 -132 -50q-30 0 -56.5 7.5q-26.5 7.5 -49 19.5q-22.5 12 -41 27.5q-18.5 15.5 -31.5 31.5l0 -234h-54v865h54v-271q29 33 74 60q45 27 106 27zt0 0zM312 38q63 0 97.5 39.5q34.5 39.5 34.5 102.5v149q0 63 -34 102.5q-34 39.5 -97 39.5q-27 0 -51.5 -8q-24.5 -8 -46.5 -21.5q-22 -13.5 -41 -30q-19 -16.5 -34 -33.5l0 -247q15 -17 34 -33.5q19 -16.5 41 -30q22 -13.5 46.5 -21.5t50.5 -8z" />
<glyph unicode="&#255;" horiz-adv-x="499" d="M165 -139l60 139l-199 483v26h51l175 -437l173 437h50v-26l-264 -643h-46zM131 705h54v-110h-54zM312 705h54v-110l-54 0z" />
<glyph unicode="&#256;" horiz-adv-x="654" d="M26 20l271 680h59l272 -680v-20h-57l-78 198h-335l-79 -198h-53zM475 248l-149 375l-150 -375zM184 852h285v-49l-285 0z" />
<glyph unicode="&#257;" horiz-adv-x="538" d="M217 -12q-33 0 -63.5 8.5q-30.5 8.5 -53 26.5q-22.5 18 -36 45.5q-13.5 27.5 -13.5 65.5q0 78 53.5 119.5q53.5 41.5 157.5 41.5h142v59q0 51 -33.5 84q-33.5 33 -103.5 33q-67 0 -101.5 -32q-34.5 -32 -34.5 -81l-53 0q0 35 11.5 65q11.5 30 35 51.5q23.5 21.5 59 34q35.5 12.5 83.5 12.5q48 0 84 -12.5q36 -12.5 60 -34.5q24 -22 35.5 -52q11.5 -30 11.5 -65v-357h-35l-18 71q-12 -13 -31 -27.5q-19 -14.5 -43 -27q-24 -12.5 -53 -20.5q-29 -8 -61 -8zt0 0zM227 38q29 0 55.5 8.5q26.5 8.5 49.5 21q23 12.5 41 27q18 14.5 31 26.5l0 126h-142q-81 0 -119 -28q-38 -28 -38 -79q0 -27 10 -46.5q10 -19.5 26.5 -31.5q16.5 -12 38.5 -18q22 -6 47 -6zt0 0zM138 673h266v-46l-266 0z" />
<glyph unicode="&#260;" horiz-adv-x="654" d="M624 -160q-47 0 -73 19.5q-26 19.5 -26 54.5q0 18 10 39.5q10 21.5 36 46.5l-78 198h-335l-79 -198h-53v20l271 680h59l272 -680v-20q-31 -23 -45 -41.5q-14 -18.5 -14 -33.5q0 -23 18 -33q18 -10 48 -10h45v-42zM475 248l-149 375l-150 -375z" />
<glyph unicode="&#261;" horiz-adv-x="538" d="M454 -160q-47 0 -73 19.5q-26 19.5 -26 54.5q0 18 15 39.5q15 21.5 53 46.5l-18 71q-12 -13 -31 -27.5q-19 -14.5 -43 -27q-24 -12.5 -53 -20.5q-29 -8 -61 -8q-33 0 -63.5 8.5q-30.5 8.5 -53 26.5q-22.5 18 -36 45.5q-13.5 27.5 -13.5 65.5q0 78 53.5 119.5q53.5 41.5 157.5 41.5h142v59q0 51 -33.5 84q-33.5 33 -103.5 33q-67 0 -101.5 -32q-34.5 -32 -34.5 -81l-53 0q0 35 11.5 65q11.5 30 35 51.5q23.5 21.5 59 34q35.5 12.5 83.5 12.5q48 0 84 -12.5q36 -12.5 60 -34.5q24 -22 35.5 -52q11.5 -30 11.5 -65v-357q-31 -23 -45 -41.5q-14 -18.5 -14 -33.5q0 -23 18 -33q18 -10 48 -10h45v-42zM227 38q29 0 55.5 8.5q26.5 8.5 49.5 21q23 12.5 41 27q18 14.5 31 26.5l0 126h-142q-81 0 -119 -28q-38 -28 -38 -79q0 -27 10 -46.5q10 -19.5 26.5 -31.5q16.5 -12 38.5 -18t47 -6z" />
<glyph unicode="&#262;" horiz-adv-x="658" d="M340 -15q-125 0 -194.5 66q-69.5 66 -69.5 186v226q0 120 69.5 186q69.5 66 194.5 66q50 0 96 -14.5q46 -14.5 80.5 -43.5q34.5 -29 55 -73q20.5 -44 20.5 -103v-10h-58v10q0 45 -16.5 79q-16.5 34 -44 56.5q-27.5 22.5 -62.5 33.5q-35 11 -71 11q-99 0 -152.5 -51q-53.5 -51 -53.5 -143v-234q0 -92 53.5 -143q53.5 -51 152.5 -51q36 0 71 11q35 11 62.5 33.5q27.5 22.5 44 56.5q16.5 34 16.5 79v10h58v-10q0 -59 -20.5 -103q-20.5 -44 -55 -73q-34.5 -29 -80.5 -43.5q-46 -14.5 -96 -14.5zt0 0zM356 762h-59l115 151h60l0 -22z" />
<glyph unicode="&#263;" horiz-adv-x="527" d="M267 -12q-49 0 -87 14q-38 14 -64 39q-26 25 -39.5 59.5q-13.5 34.5 -13.5 76.5v155q0 41 13.5 76q13.5 35 39.5 60q26 25 64 39q38 14 87 14q47 0 84.5 -13q37.5 -13 63.5 -36.5q26 -23.5 40 -56q14 -32.5 14 -72.5v-5h-54v6q0 56 -38.5 91.5q-38.5 35.5 -109.5 35.5q-74 0 -112 -39q-38 -39 -38 -99v-157q0 -61 38 -99.5q38 -38.5 112 -38.5q72 0 110 36.5q38 36.5 38 92.5v6h54v-5q0 -40 -14 -73q-14 -33 -40 -57q-26 -24 -63.5 -37q-37.5 -13 -84.5 -13zt0 0zM277 590h-55l107 140h56l0 -20z" />
<glyph unicode="&#268;" horiz-adv-x="658" d="M340 -15q-125 0 -194.5 66q-69.5 66 -69.5 186v226q0 120 69.5 186q69.5 66 194.5 66q50 0 96 -14.5q46 -14.5 80.5 -43.5q34.5 -29 55 -73q20.5 -44 20.5 -103v-10h-58v10q0 45 -16.5 79q-16.5 34 -44 56.5q-27.5 22.5 -62.5 33.5q-35 11 -71 11q-99 0 -152.5 -51q-53.5 -51 -53.5 -143v-234q0 -92 53.5 -143q53.5 -51 152.5 -51q36 0 71 11q35 11 62.5 33.5q27.5 22.5 44 56.5q16.5 34 16.5 79v10h58v-10q0 -59 -20.5 -103q-20.5 -44 -55 -73q-34.5 -29 -80.5 -43.5q-46 -14.5 -96 -14.5zt0 0zM365 763h-56l-116 129v21h55l88 -106l89 106h56l0 -21z" />
<glyph unicode="&#269;" horiz-adv-x="527" d="M267 -12q-49 0 -87 14q-38 14 -64 39q-26 25 -39.5 59.5q-13.5 34.5 -13.5 76.5v155q0 41 13.5 76q13.5 35 39.5 60q26 25 64 39q38 14 87 14q47 0 84.5 -13q37.5 -13 63.5 -36.5q26 -23.5 40 -56q14 -32.5 14 -72.5v-5h-54v6q0 56 -38.5 91.5q-38.5 35.5 -109.5 35.5q-74 0 -112 -39q-38 -39 -38 -99v-157q0 -61 38 -99.5q38 -38.5 112 -38.5q72 0 110 36.5q38 36.5 38 92.5v6h54v-5q0 -40 -14 -73q-14 -33 -40 -57q-26 -24 -63.5 -37q-37.5 -13 -84.5 -13zt0 0zM297 590h-53l-108 120v20h52l82 -99l83 99h52l0 -20z" />
<glyph unicode="&#270;" horiz-adv-x="674" d="M335 52q97 0 151 52q54 52 54 140v212q0 88 -54 140q-54 52 -151 52h-181v-596zM96 700h239q60 0 108.5 -16.5q48.5 -16.5 83 -47.5q34.5 -31 53 -77q18.5 -46 18.5 -104v-210q0 -59 -18.5 -104.5q-18.5 -45.5 -53 -76.5q-34.5 -31 -83 -47.5q-48.5 -16.5 -108.5 -16.5h-239zM347 763h-56l-116 129v21h55l88 -106l89 106h56l0 -21z" />
<glyph unicode="&#271;" horiz-adv-x="667" d="M249 -12q-81 0 -129.5 50.5q-48.5 50.5 -48.5 137.5v157q0 88 48 138q48 50 132 50q30 0 56.5 -7.5q26.5 -7.5 49 -19.5q22.5 -12 40.5 -27.5q18 -15.5 32 -31.5l0 270h54v-705h-34l-17 77q-15 -17 -34 -32.5q-19 -15.5 -42 -28.5q-23 -13 -50 -20.5q-27 -7.5 -57 -7.5zt0 0zM257 38q26 0 50.5 8q24.5 8 46.5 21.5q22 13.5 41 30q19 16.5 34 33.5l0 247q-15 17 -34 33.5q-19 16.5 -41 30q-22 13.5 -46.5 21.5q-24.5 8 -51.5 8q-63 0 -97 -39.5q-34 -39.5 -34 -102.5v-149q0 -63 34.5 -102.5q34.5 -39.5 97.5 -39.5zt0 0zM628 705h59v-26l-73 -152l-43 0z" />
<glyph unicode="&#274;" horiz-adv-x="578" d="M96 700h425v-52h-367v-269h320v-52h-320v-275h368v-52h-426zM168 852h285v-49l-285 0z" />
<glyph unicode="&#275;" horiz-adv-x="534" d="M269 -12q-50 0 -88 14q-38 14 -64.5 38.5q-26.5 24.5 -40 59q-13.5 34.5 -13.5 76.5v156q0 41 13.5 76q13.5 35 40 60q26.5 25 64.5 39q38 14 88 14q49 0 86.5 -14q37.5 -14 63.5 -38.5q26 -24.5 39.5 -59q13.5 -34.5 13.5 -76.5v-97h-355v-59q0 -61 38.5 -100q38.5 -39 113.5 -39q69 0 103.5 31.5q34.5 31.5 41.5 81.5l54 0q-6 -74 -56.5 -118.5q-50.5 -44.5 -142.5 -44.5zt0 0zM418 284v49q0 59 -37.5 98.5q-37.5 39.5 -113.5 39.5q-73 0 -111.5 -39q-38.5 -39 -38.5 -99v-49zM137 673h266v-46l-266 0z" />
<glyph unicode="&#278;" horiz-adv-x="578" d="M96 700h425v-52h-367v-269h320v-52h-320v-275h368v-52h-426zM278 897h58v-118l-58 0z" />
<glyph unicode="&#279;" horiz-adv-x="534" d="M269 -12q-50 0 -88 14q-38 14 -64.5 38.5q-26.5 24.5 -40 59q-13.5 34.5 -13.5 76.5v156q0 41 13.5 76q13.5 35 40 60q26.5 25 64.5 39q38 14 88 14q49 0 86.5 -14q37.5 -14 63.5 -38.5q26 -24.5 39.5 -59q13.5 -34.5 13.5 -76.5v-97h-355v-59q0 -61 38.5 -100q38.5 -39 113.5 -39q69 0 103.5 31.5q34.5 31.5 41.5 81.5l54 0q-6 -74 -56.5 -118.5q-50.5 -44.5 -142.5 -44.5zt0 0zM418 284v49q0 59 -37.5 98.5q-37.5 39.5 -113.5 39.5q-73 0 -111.5 -39q-38.5 -39 -38.5 -99v-49zM243 715h54v-110l-54 0z" />
<glyph unicode="&#280;" horiz-adv-x="578" d="M96 700h426v-52h-368v-270h320v-52h-320v-274h368v-52q-31 -23 -45 -41.5q-14 -18.5 -14 -33.5q0 -23 18 -33q18 -10 48 -10h45v-42h-56q-47 0 -73 19.5q-26 19.5 -26 54.5q0 18 12 39.5q12 21.5 41 46.5l-376 0z" />
<glyph unicode="&#281;" horiz-adv-x="534" d="M358 -160q-47 0 -73 19.5q-26 19.5 -26 54.5q0 17 9 35.5q9 18.5 32 40.5q-8 -1 -15.5 -1.5q-7.5 -0.5 -15.5 -0.5q-50 0 -88 14q-38 14 -64.5 38.5q-26.5 24.5 -40 59q-13.5 34.5 -13.5 76.5v156q0 41 13.5 76q13.5 35 40 60q26.5 25 64.5 39q38 14 88 14q49 0 86.5 -14q37.5 -14 63.5 -38.5q26 -24.5 39.5 -59q13.5 -34.5 13.5 -76.5v-97h-355v-59q0 -61 38.5 -100q38.5 -39 113.5 -39q69 0 103.5 31.5q34.5 31.5 41.5 81.5l54 0q-3 -28 -10 -49q-7 -21 -18.5 -38q-11.5 -17 -27.5 -30q-16 -13 -37 -25q-29 -16 -50.5 -40q-21.5 -24 -21.5 -44q0 -23 18 -33q18 -10 48 -10h45v-42zM418 284v49q0 59 -37.5 98.5q-37.5 39.5 -113.5 39.5q-73 0 -111.5 -39q-38.5 -39 -38.5 -99l0 -49z" />
<glyph unicode="&#282;" horiz-adv-x="578" d="M96 700h425v-52h-367v-269h320v-52h-320v-275h368v-52h-426zM341 763h-56l-116 129v21h55l88 -106l89 106h56l0 -21z" />
<glyph unicode="&#283;" horiz-adv-x="534" d="M269 -12q-50 0 -88 14q-38 14 -64.5 38.5q-26.5 24.5 -40 59q-13.5 34.5 -13.5 76.5v156q0 41 13.5 76q13.5 35 40 60q26.5 25 64.5 39q38 14 88 14q49 0 86.5 -14q37.5 -14 63.5 -38.5q26 -24.5 39.5 -59q13.5 -34.5 13.5 -76.5v-97h-355v-59q0 -61 38.5 -100q38.5 -39 113.5 -39q69 0 103.5 31.5q34.5 31.5 41.5 81.5l54 0q-6 -74 -56.5 -118.5q-50.5 -44.5 -142.5 -44.5zt0 0zM418 284v49q0 59 -37.5 98.5q-37.5 39.5 -113.5 39.5q-73 0 -111.5 -39q-38.5 -39 -38.5 -99v-49zM294 590h-53l-108 120v20h52l82 -99l83 99h52l0 -20z" />
<glyph unicode="&#290;" horiz-adv-x="691" d="M339 -15q-61 0 -109.5 17.5q-48.5 17.5 -82.5 50q-34 32.5 -52.5 79q-18.5 46.5 -18.5 105.5v226q0 60 18.5 106.5q18.5 46.5 53.5 79q35 32.5 85 49.5q50 17 113 17q50 0 96.5 -14.5q46.5 -14.5 81.5 -43q35 -28.5 56.5 -72q21.5 -43.5 22.5 -101.5l0 -8h-59v8q0 44 -17.5 77.5q-17.5 33.5 -45.5 55.5q-28 22 -63.5 33q-35.5 11 -72.5 11q-100 0 -155.5 -51q-55.5 -51 -55.5 -143v-230q0 -92 55.5 -145q55.5 -53 152.5 -53q140 0 202 135l0 123h-179v49h238v-346h-35l-15 106q-33 -58 -85 -89.5q-52 -31.5 -129 -31.5zt0 0zM330 -67h59v-26l-73 -152l-43 0z" />
<glyph unicode="&#291;" horiz-adv-x="569" d="M283 -172q-44 0 -80.5 11.5q-36.5 11.5 -63 32.5q-26.5 21 -41.5 51.5q-15 30.5 -16 68.5l54 0q2 -49 40 -81.5q38 -32.5 107 -32.5q71 0 108.5 37q37.5 37 37.5 109v98q-14 -16 -32 -31.5q-18 -15.5 -40.5 -27.5q-22.5 -12 -49 -19.5q-26.5 -7.5 -56.5 -7.5q-84 0 -132 50q-48 50 -48 138v109q0 88 48 138q48 50 130 50q30 0 57 -7.5q27 -7.5 50 -20.5q23 -13 41.5 -29q18.5 -16 33.5 -32l17 77h35v-483q0 -101 -54.5 -149.5q-54.5 -48.5 -145.5 -48.5zt0 0zM257 86q26 0 50.5 8q24.5 8 46.5 21.5q22 13.5 41 30q19 16.5 34 33.5l0 199q-15 17 -34 33.5q-19 16.5 -41 30q-22 13.5 -46.5 21.5q-24.5 8 -51.5 8q-63 0 -97 -39.5q-34 -39.5 -34 -102.5v-101q0 -63 34.5 -102.5q34.5 -39.5 97.5 -39.5zt0 0zM313 586h-54v26l67 152l40 0z" />
<glyph unicode="&#298;" horiz-adv-x="250" d="M96 700h58v-700h-58zM-18 852h285v-49l-285 0z" />
<glyph unicode="&#299;" horiz-adv-x="225" d="M-20 673h266v-46h-266zM86 509h54v-509l-54 0z" />
<glyph unicode="&#302;" horiz-adv-x="250" d="M150 -160q-47 0 -73 19.5q-26 19.5 -26 54.5q0 18 10 39.5q10 21.5 35 46.5l0 700h58v-700q-31 -23 -45 -41.5q-14 -18.5 -14 -33.5q0 -23 18 -33q18 -10 48 -10h45v-42l-56 0z" />
<glyph unicode="&#303;" horiz-adv-x="226" d="M136 -160q-47 0 -73 19.5q-26 19.5 -26 54.5q0 18 11 39.5q11 21.5 38 46.5l0 509h54v-509q-31 -23 -45 -41.5q-14 -18.5 -14 -33.5q0 -23 18 -33q18 -10 48 -10h45v-42zM86 705h54v-110l-54 0z" />
<glyph unicode="&#305;" horiz-adv-x="226" d="M86 509h54v-509l-54 0z" />
<glyph unicode="&#310;" horiz-adv-x="599" d="M96 700h58v-322h132l221 322h54v-20l-225 -325l237 -335v-20h-57l-229 326h-133v-326h-58zM290 -67h59v-26l-73 -152l-43 0z" />
<glyph unicode="&#311;" horiz-adv-x="513" d="M86 705h54v-421h104l167 225h45v-26l-163 -220l175 -237v-26h-49l-173 236h-106v-236h-54zM247 -67h54v-26l-67 -152l-40 0z" />
<glyph unicode="&#313;" horiz-adv-x="557" d="M96 700h58v-648h377v-52h-435zM156 762h-59l115 151h60l0 -22z" />
<glyph unicode="&#314;" horiz-adv-x="225" d="M86 705h54v-705h-54zM142 756h-55l107 140h56l0 -20z" />
<glyph unicode="&#315;" horiz-adv-x="557" d="M96 700h58v-648h377v-52h-435zM295 -67h59v-26l-73 -152l-43 0z" />
<glyph unicode="&#316;" horiz-adv-x="226" d="M86 705h54v-705h-54zM85 -67h54v-26l-67 -152l-40 0z" />
<glyph unicode="&#317;" horiz-adv-x="561" d="M96 700h58v-648h377v-52h-435zM476 700h59v-26l-73 -152l-43 0z" />
<glyph unicode="&#318;" horiz-adv-x="323" d="M86 705h54v-705h-54zM284 705h59v-26l-73 -152l-43 0z" />
<glyph unicode="&#321;" horiz-adv-x="599" d="M138 266l-87 -68h-23v46l110 86v370h58v-325l180 144h23v-47l-203 -162v-258h377v-52l-435 0z" />
<glyph unicode="&#322;" horiz-adv-x="382" d="M163 290l-135 -157h-28v39l163 189v344h54v-285l137 162h28v-40l-165 -192v-350l-54 0z" />
<glyph unicode="&#323;" horiz-adv-x="694" d="M96 700h54l389 -592v592h59v-700h-54l-390 591v-591h-58zM350 762h-59l115 151h60l0 -22z" />
<glyph unicode="&#324;" horiz-adv-x="574" d="M86 509h34l17 -77q15 17 34 33q19 16 42 28.5q23 12.5 49.5 20q26.5 7.5 56.5 7.5q37 0 69.5 -12q32.5 -12 55.5 -36q23 -24 36.5 -59.5q13.5 -35.5 13.5 -82.5v-331h-54v324q0 76 -37 111.5q-37 35.5 -92 35.5q-26 0 -50.5 -8q-24.5 -8 -46.5 -21q-22 -13 -40.5 -29.5q-18.5 -16.5 -33.5 -34.5l0 -378h-54zM315 590h-55l107 140h56l0 -20z" />
<glyph unicode="&#325;" horiz-adv-x="694" d="M96 700h54l389 -592v592h59v-700h-54l-390 591v-591h-58zM322 -67h59v-26l-73 -152l-43 0z" />
<glyph unicode="&#326;" horiz-adv-x="574" d="M86 509h34l17 -77q15 17 34 33q19 16 42 28.5q23 12.5 49.5 20q26.5 7.5 56.5 7.5q37 0 69.5 -12q32.5 -12 55.5 -36q23 -24 36.5 -59.5q13.5 -35.5 13.5 -82.5v-331h-54v324q0 76 -37 111.5q-37 35.5 -92 35.5q-26 0 -50.5 -8q-24.5 -8 -46.5 -21q-22 -13 -40.5 -29.5q-18.5 -16.5 -33.5 -34.5l0 -378h-54zM266 -67h54v-26l-67 -152l-40 0z" />
<glyph unicode="&#327;" horiz-adv-x="694" d="M96 700h54l389 -592v592h59v-700h-54l-390 591v-591h-58zM375 763h-56l-116 129v21h55l88 -106l89 106h56l0 -21z" />
<glyph unicode="&#328;" horiz-adv-x="574" d="M86 509h34l17 -77q15 17 34 33q19 16 42 28.5q23 12.5 49.5 20q26.5 7.5 56.5 7.5q37 0 69.5 -12q32.5 -12 55.5 -36q23 -24 36.5 -59.5q13.5 -35.5 13.5 -82.5v-331h-54v324q0 76 -37 111.5q-37 35.5 -92 35.5q-26 0 -50.5 -8q-24.5 -8 -46.5 -21q-22 -13 -40.5 -29.5q-18.5 -16.5 -33.5 -34.5l0 -378h-54zM318 590h-53l-108 120v20h52l82 -99l83 99h52l0 -20z" />
<glyph unicode="&#332;" horiz-adv-x="678" d="M339 39q97 0 151 52.5q54 52.5 54 140.5v236q0 88 -54 140.5q-54 52.5 -151 52.5q-97 0 -151 -52.5q-54 -52.5 -54 -140.5v-236q0 -88 54 -140.5q54 -52.5 151 -52.5zt0 0zM339 -15q-60 0 -109 17q-49 17 -83 49q-34 32 -52.5 78.5q-18.5 46.5 -18.5 105.5v230q0 59 18.5 105.5q18.5 46.5 52.5 78.5q34 32 83 49q49 17 109 17q60 0 108.5 -17q48.5 -17 83 -49q34.5 -32 53 -78.5q18.5 -46.5 18.5 -105.5v-230q0 -59 -18.5 -105.5q-18.5 -46.5 -53 -78.5q-34.5 -32 -83 -49q-48.5 -17 -108.5 -17zt0 0zM196 852h285v-49l-285 0z" />
<glyph unicode="&#333;" horiz-adv-x="538" d="M269 38q39 0 67.5 11q28.5 11 47 30q18.5 19 28 44.5q9.5 25.5 9.5 55.5v151q0 30 -9.5 55.5q-9.5 25.5 -28 44.5q-18.5 19 -47 30q-28.5 11 -67.5 11q-75 0 -113.5 -40.5q-38.5 -40.5 -38.5 -100.5v-151q0 -61 38.5 -101q38.5 -40 113.5 -40zt0 0zM269 -12q-51 0 -90 14.5q-39 14.5 -64.5 40q-25.5 25.5 -38.5 60q-13 34.5 -13 74.5v155q0 40 13 74.5q13 34.5 38.5 60q25.5 25.5 64.5 40q39 14.5 90 14.5q52 0 90.5 -14.5q38.5 -14.5 64 -40q25.5 -25.5 38.5 -60q13 -34.5 13 -74.5v-155q0 -40 -13 -74.5q-13 -34.5 -38.5 -60q-25.5 -25.5 -64 -40q-38.5 -14.5 -90.5 -14.5zt0 0zM136 673h266v-46l-266 0z" />
<glyph unicode="&#335;" horiz-adv-x="538" d="M269 38q39 0 67.5 11q28.5 11 47 30q18.5 19 28 44.5q9.5 25.5 9.5 55.5v151q0 30 -9.5 55.5q-9.5 25.5 -28 44.5q-18.5 19 -47 30q-28.5 11 -67.5 11q-75 0 -113.5 -40.5q-38.5 -40.5 -38.5 -100.5v-151q0 -61 38.5 -101q38.5 -40 113.5 -40zt0 0zM269 -12q-51 0 -90 14.5q-39 14.5 -64.5 40q-25.5 25.5 -38.5 60q-13 34.5 -13 74.5v155q0 40 13 74.5q13 34.5 38.5 60q25.5 25.5 64.5 40q39 14.5 90 14.5q52 0 90.5 -14.5q38.5 -14.5 64 -40q25.5 -25.5 38.5 -60q13 -34.5 13 -74.5v-155q0 -40 -13 -74.5q-13 -34.5 -38.5 -60q-25.5 -25.5 -64 -40q-38.5 -14.5 -90.5 -14.5zt0 0zM269 585q-68 0 -110 35.5q-42 35.5 -42 101.5v12h49v-11q0 -45 27.5 -69.5q27.5 -24.5 75.5 -24.5q48 0 75.5 24.5q27.5 24.5 27.5 69.5v11h49v-12q0 -66 -42.5 -101.5t-109.5 -35.5z" />
<glyph unicode="&#336;" horiz-adv-x="678" d="M339 39q97 0 151 52.5q54 52.5 54 140.5v236q0 88 -54 140.5q-54 52.5 -151 52.5q-97 0 -151 -52.5q-54 -52.5 -54 -140.5v-236q0 -88 54 -140.5q54 -52.5 151 -52.5zt0 0zM339 -15q-60 0 -109 17q-49 17 -83 49q-34 32 -52.5 78.5q-18.5 46.5 -18.5 105.5v230q0 59 18.5 105.5q18.5 46.5 52.5 78.5q34 32 83 49q49 17 109 17q60 0 108.5 -17q48.5 -17 83 -49q34.5 -32 53 -78.5q18.5 -46.5 18.5 -105.5v-230q0 -59 -18.5 -105.5q-18.5 -46.5 -53 -78.5q-34.5 -32 -83 -49q-48.5 -17 -108.5 -17zt0 0zM270 763h-59l115 150h60v-21zM452 763h-59l114 150h60l0 -21z" />
<glyph unicode="&#337;" horiz-adv-x="544" d="M269 38q39 0 67.5 11q28.5 11 47 30q18.5 19 28 44.5q9.5 25.5 9.5 55.5v151q0 30 -9.5 55.5q-9.5 25.5 -28 44.5q-18.5 19 -47 30q-28.5 11 -67.5 11q-75 0 -113.5 -40.5q-38.5 -40.5 -38.5 -100.5v-151q0 -61 38.5 -101q38.5 -40 113.5 -40zt0 0zM269 -12q-51 0 -90 14.5q-39 14.5 -64.5 40q-25.5 25.5 -38.5 60q-13 34.5 -13 74.5v155q0 40 13 74.5q13 34.5 38.5 60q25.5 25.5 64.5 40q39 14.5 90 14.5q52 0 90.5 -14.5q38.5 -14.5 64 -40q25.5 -25.5 38.5 -60q13 -34.5 13 -74.5v-155q0 -40 -13 -74.5q-13 -34.5 -38.5 -60q-25.5 -25.5 -64 -40q-38.5 -14.5 -90.5 -14.5zt0 0zM204 590h-55l107 140h56v-20zM373 590h-55l107 140h56l0 -20z" />
<glyph unicode="&#338;" horiz-adv-x="1026" d="M339 -15q-60 0 -109 17q-49 17 -83 49q-34 32 -52.5 78.5q-18.5 46.5 -18.5 105.5v230q0 59 18.5 105.5q18.5 46.5 52.5 78.5q34 32 83 49q49 17 109 17q72 0 125.5 -30.5q53.5 -30.5 79.5 -86.5l0 102h425v-52h-367v-269h320v-52h-320v-275h368v-52h-426v102q-26 -57 -79.5 -87q-53.5 -30 -125.5 -30zt0 0zM339 39q47 0 85 13.5q38 13.5 64.5 38q26.5 24.5 41 59q14.5 34.5 14.5 76.5v245q0 42 -14 77q-14 35 -40.5 60q-26.5 25 -64.5 39q-38 14 -86 14q-97 0 -151 -52.5q-54 -52.5 -54 -140.5v-236q0 -88 54 -140.5t151 -52.5z" />
<glyph unicode="&#339;" horiz-adv-x="892" d="M269 -12q-51 0 -90 14.5q-39 14.5 -64.5 40q-25.5 25.5 -38.5 60q-13 34.5 -13 74.5v155q0 40 13 74.5q13 34.5 38.5 60q25.5 25.5 64.5 40q39 14.5 90 14.5q71 0 115 -28.5q44 -28.5 64 -74.5q20 46 65 74.5q45 28.5 115 28.5q49 0 86.5 -14q37.5 -14 63 -38.5q25.5 -24.5 39 -59q13.5 -34.5 13.5 -76.5v-97h-355v-62q1 -60 40.5 -98q39.5 -38 112.5 -38q68 0 102.5 31.5q34.5 31.5 41.5 81.5l54 0q-7 -74 -56.5 -118.5q-49.5 -44.5 -141.5 -44.5q-70 0 -115 27.5q-45 27.5 -65 73.5q-20 -45 -64 -73q-44 -28 -115 -28zt0 0zM269 38q38 0 66.5 11q28.5 11 47.5 29.5q19 18.5 28.5 44q9.5 25.5 9.5 55.5v154q0 29 -9.5 54.5q-9.5 25.5 -28.5 44q-19 18.5 -47.5 29.5q-28.5 11 -66.5 11q-75 0 -113.5 -40.5q-38.5 -40.5 -38.5 -100.5v-151q0 -61 38.5 -101q38.5 -40 113.5 -40zt0 0zM776 284v49q0 59 -37 98.5q-37 39.5 -113 39.5q-74 0 -112.5 -39q-38.5 -39 -38.5 -99l0 -49z" />
<glyph unicode="&#340;" horiz-adv-x="643" d="M96 700h287q95 0 145.5 -55q50.5 -55 50.5 -152q0 -86 -37 -134.5q-37 -48.5 -108 -67.5l158 -271v-20h-56l-167 286h-215v-286h-58zM374 338q69 0 107 40q38 40 38 115q0 75 -38 115q-38 40 -107 40h-220v-310zM332 762h-59l115 151h60l0 -22z" />
<glyph unicode="&#341;" horiz-adv-x="366" d="M86 509h30l18 -77q15 17 35.5 33q20.5 16 45 28.5q24.5 12.5 52 20q27.5 7.5 56.5 7.5h7v-55h-7q-56 0 -103 -22q-47 -22 -80 -63l0 -381h-54zM211 590h-55l107 140h56l0 -20z" />
<glyph unicode="&#342;" horiz-adv-x="643" d="M96 700h287q95 0 145.5 -55q50.5 -55 50.5 -152q0 -86 -37 -134.5q-37 -48.5 -108 -67.5l158 -271v-20h-56l-167 286h-215v-286h-58zM374 338q69 0 107 40q38 40 38 115q0 75 -38 115q-38 40 -107 40h-220v-310zM310 -67h59v-26l-73 -152l-43 0z" />
<glyph unicode="&#343;" horiz-adv-x="366" d="M86 509h30l18 -77q15 17 35.5 33q20.5 16 45 28.5q24.5 12.5 52 20q27.5 7.5 56.5 7.5h7v-55h-7q-56 0 -103 -22q-47 -22 -80 -63l0 -381h-54zM85 -67h54v-26l-67 -152l-40 0z" />
<glyph unicode="&#344;" horiz-adv-x="643" d="M96 700h287q95 0 145.5 -55q50.5 -55 50.5 -152q0 -86 -37 -134.5q-37 -48.5 -108 -67.5l158 -271v-20h-56l-167 286h-215v-286h-58zM374 338q69 0 107 40q38 40 38 115q0 75 -38 115q-38 40 -107 40h-220v-310zM339 763h-56l-116 129v21h55l88 -106l89 106h56l0 -21z" />
<glyph unicode="&#345;" horiz-adv-x="366" d="M86 509h30l18 -77q15 17 35.5 33q20.5 16 45 28.5q24.5 12.5 52 20q27.5 7.5 56.5 7.5h7v-55h-7q-56 0 -103 -22q-47 -22 -80 -63l0 -381h-54zM230 590h-53l-108 120v20h52l82 -99l83 99h52l0 -20z" />
<glyph unicode="&#346;" horiz-adv-x="625" d="M318 -15q-51 0 -99 14q-48 14 -85.5 43.5q-37.5 29.5 -60 75q-22.5 45.5 -22.5 109.5l58 0q0 -52 19.5 -88q19.5 -36 50 -58q30.5 -22 68 -32q37.5 -10 74.5 -10q44 0 77.5 10q33.5 10 55.5 28q22 18 33 42q11 24 11 52q0 53 -40 84.5q-40 31.5 -119 61.5l-78 29q-47 18 -82 35q-35 17 -58 38q-23 21 -34.5 47.5q-11.5 26.5 -11.5 64.5q0 40 15.5 74q15.5 34 45.5 58.5q30 24.5 73 38q43 13.5 98 13.5q52 0 97.5 -13.5q45.5 -13.5 79 -42q33.5 -28.5 53 -73q19.5 -44.5 19.5 -107.5l-59 0q0 50 -16 85q-16 35 -42.5 56.5q-26.5 21.5 -61 31q-34.5 9.5 -71.5 9.5q-81 0 -127 -35.5q-46 -35.5 -46 -90.5q0 -27 8.5 -46.5q8.5 -19.5 25.5 -35q17 -15.5 44 -28.5q27 -13 65 -26l75 -28q45 -17 83 -34q38 -17 65.5 -39.5q27.5 -22.5 43.5 -52.5q16 -30 16 -71q0 -40 -15 -74.5q-15 -34.5 -45 -60q-30 -25.5 -75 -40q-45 -14.5 -106 -14.5zt0 0zM325 762h-59l115 151h60l0 -22z" />
<glyph unicode="&#347;" horiz-adv-x="538" d="M274 -12q-44 0 -83.5 10.5q-39.5 10.5 -69.5 33q-30 22.5 -47.5 57q-17.5 34.5 -17.5 81.5l54 0q0 -36 14.5 -61q14.5 -25 38 -40.5q23.5 -15.5 53.5 -23q30 -7.5 62 -7.5q67 0 103.5 27q36.5 27 36.5 69q0 36 -23.5 54q-23.5 18 -76.5 32l-115 30q-30 8 -53 18.5q-23 10.5 -39 25.5q-16 15 -24.5 36q-8.5 21 -8.5 50q0 61 48.5 101q48.5 40 139.5 40q43 0 80 -11q37 -11 63 -33q26 -22 41 -55.5q15 -33.5 15 -77.5l-54 0q0 32 -11.5 56q-11.5 24 -31.5 39.5q-20 15.5 -47 23.5q-27 8 -59 8q-67 0 -98.5 -26q-31.5 -26 -31.5 -63q0 -34 20 -52q20 -18 70 -31l114 -29q32 -8 57.5 -19q25.5 -11 43 -26.5q17.5 -15.5 26.5 -36.5q9 -21 9 -51q0 -66 -51.5 -107.5q-51.5 -41.5 -146.5 -41.5zt0 0zM274 590h-55l107 140h56l0 -20z" />
<glyph unicode="&#349;" horiz-adv-x="538" d="M274 -12q-44 0 -83.5 10.5q-39.5 10.5 -69.5 33q-30 22.5 -47.5 57q-17.5 34.5 -17.5 81.5l54 0q0 -36 14.5 -61q14.5 -25 38 -40.5q23.5 -15.5 53.5 -23q30 -7.5 62 -7.5q67 0 103.5 27q36.5 27 36.5 69q0 36 -23.5 54q-23.5 18 -76.5 32l-115 30q-30 8 -53 18.5q-23 10.5 -39 25.5q-16 15 -24.5 36q-8.5 21 -8.5 50q0 61 48.5 101q48.5 40 139.5 40q43 0 80 -11q37 -11 63 -33q26 -22 41 -55.5q15 -33.5 15 -77.5l-54 0q0 32 -11.5 56q-11.5 24 -31.5 39.5q-20 15.5 -47 23.5q-27 8 -59 8q-67 0 -98.5 -26q-31.5 -26 -31.5 -63q0 -34 20 -52q20 -18 70 -31l114 -29q32 -8 57.5 -19q25.5 -11 43 -26.5q17.5 -15.5 26.5 -36.5q9 -21 9 -51q0 -66 -51.5 -107.5q-51.5 -41.5 -146.5 -41.5zt0 0zM411 610v-20h-52l-83 99l-82 -99h-52v20l108 120l53 0z" />
<glyph unicode="&#352;" horiz-adv-x="625" d="M318 -15q-51 0 -99 14q-48 14 -85.5 43.5q-37.5 29.5 -60 75q-22.5 45.5 -22.5 109.5l58 0q0 -52 19.5 -88q19.5 -36 50 -58q30.5 -22 68 -32q37.5 -10 74.5 -10q44 0 77.5 10q33.5 10 55.5 28q22 18 33 42q11 24 11 52q0 53 -40 84.5q-40 31.5 -119 61.5l-78 29q-47 18 -82 35q-35 17 -58 38q-23 21 -34.5 47.5q-11.5 26.5 -11.5 64.5q0 40 15.5 74q15.5 34 45.5 58.5q30 24.5 73 38q43 13.5 98 13.5q52 0 97.5 -13.5q45.5 -13.5 79 -42q33.5 -28.5 53 -73q19.5 -44.5 19.5 -107.5l-59 0q0 50 -16 85q-16 35 -42.5 56.5q-26.5 21.5 -61 31q-34.5 9.5 -71.5 9.5q-81 0 -127 -35.5q-46 -35.5 -46 -90.5q0 -27 8.5 -46.5q8.5 -19.5 25.5 -35q17 -15.5 44 -28.5q27 -13 65 -26l75 -28q45 -17 83 -34q38 -17 65.5 -39.5q27.5 -22.5 43.5 -52.5q16 -30 16 -71q0 -40 -15 -74.5q-15 -34.5 -45 -60q-30 -25.5 -75 -40q-45 -14.5 -106 -14.5zt0 0zM345 763h-56l-116 129v21h55l88 -106l89 106h56l0 -21z" />
<glyph unicode="&#353;" horiz-adv-x="538" d="M274 -12q-44 0 -83.5 10.5q-39.5 10.5 -69.5 33q-30 22.5 -47.5 57q-17.5 34.5 -17.5 81.5l54 0q0 -36 14.5 -61q14.5 -25 38 -40.5q23.5 -15.5 53.5 -23q30 -7.5 62 -7.5q67 0 103.5 27q36.5 27 36.5 69q0 36 -23.5 54q-23.5 18 -76.5 32l-115 30q-30 8 -53 18.5q-23 10.5 -39 25.5q-16 15 -24.5 36q-8.5 21 -8.5 50q0 61 48.5 101q48.5 40 139.5 40q43 0 80 -11q37 -11 63 -33q26 -22 41 -55.5q15 -33.5 15 -77.5l-54 0q0 32 -11.5 56q-11.5 24 -31.5 39.5q-20 15.5 -47 23.5q-27 8 -59 8q-67 0 -98.5 -26q-31.5 -26 -31.5 -63q0 -34 20 -52q20 -18 70 -31l114 -29q32 -8 57.5 -19q25.5 -11 43 -26.5q17.5 -15.5 26.5 -36.5q9 -21 9 -51q0 -66 -51.5 -107.5q-51.5 -41.5 -146.5 -41.5zt0 0zM297 590h-53l-108 120v20h52l82 -99l83 99h52l0 -20z" />
<glyph unicode="&#356;" horiz-adv-x="551" d="M247 648h-221v52h500v-52h-221v-648h-58zM304 763h-56l-116 129v21h55l88 -106l89 106h56l0 -21z" />
<glyph unicode="&#357;" horiz-adv-x="467" d="M263 0q-44 0 -72.5 13q-28.5 13 -46 34.5q-17.5 21.5 -24.5 48.5q-7 27 -7 54v311h-87v48h87v106h54v-106h139v-48h-139v-309q0 -52 25.5 -77q25.5 -25 70.5 -25h43v-50h-43zM419 705h59v-26l-73 -152l-43 0z" />
<glyph unicode="&#362;" horiz-adv-x="673" d="M337 -15q-53 0 -99 15.5q-46 15.5 -79.5 46q-33.5 30.5 -53 76q-19.5 45.5 -19.5 105.5v472h58v-472q0 -91 52.5 -140q52.5 -49 140.5 -49q88 0 140 48.5q52 48.5 52 140.5v472h59v-472q0 -60 -19.5 -105q-19.5 -45 -53.5 -76q-34 -31 -80 -46.5q-46 -15.5 -98 -15.5zt0 0zM194 852h285v-49l-285 0z" />
<glyph unicode="&#363;" horiz-adv-x="574" d="M488 0h-34l-17 77q-15 -17 -34 -33q-19 -16 -42 -28.5q-23 -12.5 -49.5 -20q-26.5 -7.5 -56.5 -7.5q-38 0 -70 12q-32 12 -55 36q-23 24 -36.5 59.5q-13.5 35.5 -13.5 82.5v331h54v-324q0 -38 10 -66q10 -28 27 -46q17 -18 41 -26.5q24 -8.5 51 -8.5q26 0 50.5 8q24.5 8 46.5 21q22 13 40.5 29.5q18.5 16.5 33.5 34.5l0 378h54zM152 673h266v-46l-266 0z" />
<glyph unicode="&#366;" horiz-adv-x="673" d="M337 -15q-53 0 -99 15.5q-46 15.5 -79.5 46q-33.5 30.5 -53 76q-19.5 45.5 -19.5 105.5v472h58v-472q0 -91 52.5 -140q52.5 -49 140.5 -49q88 0 140 48.5q52 48.5 52 140.5v472h59v-472q0 -60 -19.5 -105q-19.5 -45 -53.5 -76q-34 -31 -80 -46.5q-46 -15.5 -98 -15.5zt0 0zM235 846q0 21 8 40q8 19 21.5 33q13.5 14 32 22q18.5 8 39.5 8q43 0 73 -30q30 -30 30 -73q0 -22 -8 -40q-8 -18 -22 -31.5q-14 -13.5 -32.5 -21.5q-18.5 -8 -40.5 -8q-21 0 -39.5 8q-18.5 8 -32 21.5q-13.5 13.5 -21.5 31.5q-8 18 -8 40zt0 0zM272 846q0 -26 19 -45q19 -19 45 -19q28 0 46.5 19q18.5 19 18.5 45q0 28 -18.5 46.5q-18.5 18.5 -46.5 18.5q-26 0 -45 -18.5t-19 -46.5z" />
<glyph unicode="&#367;" horiz-adv-x="574" d="M488 0h-34l-17 77q-15 -17 -34 -33q-19 -16 -42 -28.5q-23 -12.5 -49.5 -20q-26.5 -7.5 -56.5 -7.5q-38 0 -70 12q-32 12 -55 36q-23 24 -36.5 59.5q-13.5 35.5 -13.5 82.5v331h54v-324q0 -38 10 -66q10 -28 27 -46q17 -18 41 -26.5q24 -8.5 51 -8.5q26 0 50.5 8q24.5 8 46.5 21q22 13 40.5 29.5q18.5 16.5 33.5 34.5l0 378h54zM191 667q0 20 7.5 37.5q7.5 17.5 20 30.5q12.5 13 29.5 20.5q17 7.5 37 7.5q40 0 68 -28q28 -28 28 -68q0 -20 -7.5 -37q-7.5 -17 -20.5 -29.5q-13 -12.5 -30.5 -20q-17.5 -7.5 -37.5 -7.5q-20 0 -37 7.5q-17 7.5 -29.5 20q-12.5 12.5 -20 29.5q-7.5 17 -7.5 37zt0 0zM225 667q0 -24 18 -41.5q18 -17.5 42 -17.5q26 0 43.5 17.5q17.5 17.5 17.5 41.5q0 26 -17.5 43.5q-17.5 17.5 -43.5 17.5q-24 0 -42 -17.5t-18 -43.5z" />
<glyph unicode="&#368;" horiz-adv-x="673" d="M337 -15q-53 0 -99 15.5q-46 15.5 -79.5 46q-33.5 30.5 -53 76q-19.5 45.5 -19.5 105.5v472h58v-472q0 -91 52.5 -140q52.5 -49 140.5 -49q88 0 140 48.5q52 48.5 52 140.5v472h59v-472q0 -60 -19.5 -105q-19.5 -45 -53.5 -76q-34 -31 -80 -46.5q-46 -15.5 -98 -15.5zt0 0zM254 763h-59l115 150h60v-21zM436 763h-59l114 150h60l0 -21z" />
<glyph unicode="&#369;" horiz-adv-x="574" d="M488 0h-34l-17 77q-15 -17 -34 -33q-19 -16 -42 -28.5q-23 -12.5 -49.5 -20q-26.5 -7.5 -56.5 -7.5q-38 0 -70 12q-32 12 -55 36q-23 24 -36.5 59.5q-13.5 35.5 -13.5 82.5v331h54v-324q0 -38 10 -66q10 -28 27 -46q17 -18 41 -26.5q24 -8.5 51 -8.5q26 0 50.5 8q24.5 8 46.5 21q22 13 40.5 29.5q18.5 16.5 33.5 34.5l0 378h54zM210 590h-55l107 140h56v-20zM379 590h-55l107 140h56l0 -20z" />
<glyph unicode="&#370;" horiz-adv-x="673" d="M450 -160q-47 0 -73 19.5q-26 19.5 -26 54.5q0 17 9 35.5q9 18.5 32 40.5q-14 -2 -27.5 -3.5q-13.5 -1.5 -27.5 -1.5q-53 0 -99 15.5q-46 15.5 -79.5 46q-33.5 30.5 -53 76q-19.5 45.5 -19.5 105.5v472h58v-469q0 -91 52.5 -140q52.5 -49 140.5 -49q88 0 140 48.5q52 48.5 52 140.5v469h59v-472q0 -49 -12.5 -85.5q-12.5 -36.5 -32 -63.5q-19.5 -27 -43.5 -46q-24 -19 -46 -33q-26 -17 -42.5 -38.5q-16.5 -21.5 -16.5 -36.5q0 -23 18 -33q18 -10 48 -10h45v-42l-56 0z" />
<glyph unicode="&#371;" horiz-adv-x="574" d="M434 509h54v-509q-31 -23 -45 -41.5q-14 -18.5 -14 -33.5q0 -23 18 -33q18 -10 48 -10h45v-42h-56q-47 0 -73 19.5q-26 19.5 -26 54.5q0 18 15 39.5q15 21.5 54 46.5l-17 77q-15 -17 -34 -33q-19 -16 -42 -28.5q-23 -12.5 -49.5 -20q-26.5 -7.5 -56.5 -7.5q-38 0 -70 12q-32 12 -55 36q-23 24 -36.5 59.5q-13.5 35.5 -13.5 82.5v331h54v-324q0 -38 10 -66q10 -28 27 -46q17 -18 41 -26.5q24 -8.5 51 -8.5q26 0 50.5 8q24.5 8 46.5 21q22 13 40.5 29.5q18.5 16.5 33.5 34.5z" />
<glyph unicode="&#376;" horiz-adv-x="604" d="M273 278l-257 402v20h57l229 -367l233 367h53v-20l-257 -400v-280h-58zM177 889h57v-118h-57zM370 889h58v-118l-58 0z" />
<glyph unicode="&#377;" horiz-adv-x="570" d="M46 51l402 597h-389v52h456v-51l-402 -597h412v-52h-479zM289 762h-59l115 151h60l0 -22z" />
<glyph unicode="&#378;" horiz-adv-x="513" d="M56 48l323 413h-309v48h374v-48l-323 -413h329v-48h-394zM249 590h-55l107 140h56l0 -20z" />
<glyph unicode="&#379;" horiz-adv-x="570" d="M46 51l402 597h-389v52h456v-51l-402 -597h412v-52h-479zM251 897h58v-118l-58 0z" />
<glyph unicode="&#380;" horiz-adv-x="513" d="M56 48l323 413h-309v48h374v-48l-323 -413h329v-48h-394zM225 715h54v-110l-54 0z" />
<glyph unicode="&#381;" horiz-adv-x="570" d="M46 51l402 597h-389v52h456v-51l-402 -597h412v-52h-479zM315 763h-56l-116 129v21h55l88 -106l89 106h56l0 -21z" />
<glyph unicode="&#382;" horiz-adv-x="513" d="M56 48l323 413h-309v48h374v-48l-323 -413h329v-48h-394zM277 590h-53l-108 120v20h52l82 -99l83 99h52l0 -20z" />
<glyph unicode="&#402;" horiz-adv-x="376" d="M150 509l4 45q6 70 43 111.5q37 41.5 119 41.5q11 0 20.5 -1q9.5 -1 13.5 -1l0 -49q-3 0 -11 0.5q-8 0.5 -18 0.5q-104 0 -113 -104l-4 -44h137v-48h-141l-37 -476q-5 -70 -41.5 -113.5q-36.5 -43.5 -112.5 -43.5q-11 0 -20.5 0.5q-9.5 0.5 -14.5 1.5l0 49q1 0 7 -0.5q6 -0.5 14 -0.5q54 0 81.5 26.5q27.5 26.5 32.5 81.5l37 475h-84l0 48z" />
<glyph unicode="&#537;" horiz-adv-x="538" d="M274 -12q-44 0 -83.5 10.5q-39.5 10.5 -69.5 33q-30 22.5 -47.5 57q-17.5 34.5 -17.5 81.5l54 0q0 -36 14.5 -61q14.5 -25 38 -40.5q23.5 -15.5 53.5 -23q30 -7.5 62 -7.5q67 0 103.5 27q36.5 27 36.5 69q0 36 -23.5 54q-23.5 18 -76.5 32l-115 30q-30 8 -53 18.5q-23 10.5 -39 25.5q-16 15 -24.5 36q-8.5 21 -8.5 50q0 61 48.5 101q48.5 40 139.5 40q43 0 80 -11q37 -11 63 -33q26 -22 41 -55.5q15 -33.5 15 -77.5l-54 0q0 32 -11.5 56q-11.5 24 -31.5 39.5q-20 15.5 -47 23.5q-27 8 -59 8q-67 0 -98.5 -26q-31.5 -26 -31.5 -63q0 -34 20 -52q20 -18 70 -31l114 -29q32 -8 57.5 -19q25.5 -11 43 -26.5q17.5 -15.5 26.5 -36.5q9 -21 9 -51q0 -66 -51.5 -107.5q-51.5 -41.5 -146.5 -41.5zt0 0zM252 -67h54v-26l-67 -152l-40 0z" />
<glyph unicode="&#710;" horiz-adv-x="402" d="M335 610v-20h-52l-83 99l-82 -99h-52v20l108 120l53 0z" />
<glyph unicode="&#711;" horiz-adv-x="402" d="M227 590h-53l-108 120v20h52l82 -99l83 99h52l0 -20z" />
<glyph unicode="&#728;" horiz-adv-x="399" d="M200 571q-68 0 -110 35.5q-42 35.5 -42 101.5v12h49v-11q0 -45 27.5 -69.5q27.5 -24.5 75.5 -24.5q48 0 75.5 24.5q27.5 24.5 27.5 69.5v11h49v-12q0 -66 -42.5 -101.5t-109.5 -35.5z" />
<glyph unicode="&#729;" horiz-adv-x="185" d="M66 715h54v-110l-54 0z" />
<glyph unicode="&#730;" horiz-adv-x="336" d="M74 667q0 20 7.5 37.5q7.5 17.5 20 30.5q12.5 13 29.5 20.5q17 7.5 37 7.5q40 0 68 -28q28 -28 28 -68q0 -20 -7.5 -37q-7.5 -17 -20.5 -29.5q-13 -12.5 -30.5 -20q-17.5 -7.5 -37.5 -7.5q-20 0 -37 7.5q-17 7.5 -29.5 20q-12.5 12.5 -20 29.5q-7.5 17 -7.5 37zt0 0zM108 667q0 -24 18 -41.5q18 -17.5 42 -17.5q26 0 43.5 17.5q17.5 17.5 17.5 41.5q0 26 -17.5 43.5q-17.5 17.5 -43.5 17.5q-24 0 -42 -17.5t-18 -43.5z" />
<glyph unicode="&#731;" horiz-adv-x="272" d="M152 -160q-47 0 -73 19.5q-26 19.5 -26 54.5q0 18 12 39.5q12 21.5 41 46.5l50 0q-31 -23 -45 -41.5q-14 -18.5 -14 -33.5q0 -23 18 -33q18 -10 48 -10h45v-42l-56 0z" />
<glyph unicode="&#732;" horiz-adv-x="488" d="M67 634q31 46 53.5 67q22.5 21 51.5 21q18 0 34 -7.5q16 -7.5 32 -18.5l22 -15q16 -11 28.5 -17.5q12.5 -6.5 26.5 -6.5q16 0 30 13.5q14 13.5 42 50.5l33 -25q-29 -46 -53 -67q-24 -21 -53 -21q-19 0 -33.5 7q-14.5 7 -30.5 18l-21 14q-16 11 -27.5 18.5q-11.5 7.5 -25.5 7.5q-10 0 -18 -3.5q-8 -3.5 -16.5 -11q-8.5 -7.5 -18.5 -19.5q-10 -12 -24 -30z" />
<glyph unicode="&#733;" horiz-adv-x="456" d="M117 590h-55l107 140h56v-20zM286 590h-55l107 140h56l0 -20z" />
<glyph unicode="&#937;" horiz-adv-x="718" d="M80 52h142q-64 27 -95 81q-31 54 -31 129v203q0 59 18.5 105.5q18.5 46.5 52.5 78.5q34 32 83 49q49 17 109 17q60 0 108.5 -17q48.5 -17 83 -49q34.5 -32 53 -78.5q18.5 -46.5 18.5 -105.5v-203q0 -75 -31 -129q-31 -54 -95 -81l142 0v-52h-228v54q75 13 114.5 69.5q39.5 56.5 39.5 135.5v208q0 88 -54 141q-54 53 -151 53q-97 0 -151 -53q-54 -53 -54 -141v-208q0 -79 39.5 -135.5q39.5 -56.5 114.5 -69.5l0 -54l-228 0z" />
<glyph unicode="&#960;" horiz-adv-x="655" d="M139 461h-103v48h583v-48h-103v-461h-54v461h-269v-461l-54 0z" />
<glyph unicode="&#1025;" horiz-adv-x="578" d="M96 700h425v-52h-367v-269h320v-52h-320v-275h368v-52h-426zM181 886h57v-118h-57zM374 886h58v-118l-58 0z" />
<glyph unicode="&#1026;" horiz-adv-x="737" d="M206 648h-180v52h491v-52h-253v-259q50 14 92 20.5q42 6.5 90 6.5q115 0 177.5 -56.5q62.5 -56.5 62.5 -151.5q0 -95 -50.5 -151.5q-50.5 -56.5 -149.5 -56.5h-56v52h54q71 0 107 42.5q36 42.5 36 112.5q0 37 -14 65.5q-14 28.5 -38.5 48.5q-24.5 20 -59 30.5q-34.5 10.5 -76.5 10.5q-25 0 -46.5 -1.5q-21.5 -1.5 -42 -5q-20.5 -3.5 -41.5 -8.5q-21 -5 -45 -12l0 -335l-58 0z" />
<glyph unicode="&#1027;" horiz-adv-x="561" d="M310 762h-59l115 151h60v-22zM96 700h419v-52h-361v-648l-58 0z" />
<glyph unicode="&#1028;" horiz-adv-x="658" d="M340 -15q50 0 96 14q46 14 80.5 42.5q34.5 28.5 55 71.5q20.5 43 20.5 101v10h-58v-10q0 -44 -16.5 -77q-16.5 -33 -44 -55q-27.5 -22 -62.5 -32.5q-35 -10.5 -71 -10.5q-99 0 -152.5 49.5q-53.5 49.5 -53.5 139.5v98h301v52h-301v94q0 90 53.5 139.5q53.5 49.5 152.5 49.5q36 0 71 -11q35 -11 62.5 -32.5q27.5 -21.5 44 -54.5q16.5 -33 16.5 -77v-10h58v10q0 58 -20.5 101q-20.5 43 -55 71.5q-34.5 28.5 -80.5 42.5q-46 14 -96 14q-125 0 -194.5 -64.5q-69.5 -64.5 -69.5 -182.5v-236q0 -118 69.5 -182.5t194.5 -64.5z" />
<glyph unicode="&#1029;" horiz-adv-x="625" d="M318 -15q-51 0 -99 14q-48 14 -85.5 43.5q-37.5 29.5 -60 75q-22.5 45.5 -22.5 109.5l58 0q0 -52 19.5 -88q19.5 -36 50 -58q30.5 -22 68 -32q37.5 -10 74.5 -10q44 0 77.5 10q33.5 10 55.5 28q22 18 33 42q11 24 11 52q0 53 -40 84.5q-40 31.5 -119 61.5l-78 29q-47 18 -82 35q-35 17 -58 38q-23 21 -34.5 47.5q-11.5 26.5 -11.5 64.5q0 40 15.5 74q15.5 34 45.5 58.5q30 24.5 73 38q43 13.5 98 13.5q52 0 97.5 -13.5q45.5 -13.5 79 -42q33.5 -28.5 53 -73q19.5 -44.5 19.5 -107.5l-59 0q0 50 -16 85q-16 35 -42.5 56.5q-26.5 21.5 -61 31q-34.5 9.5 -71.5 9.5q-81 0 -127 -35.5q-46 -35.5 -46 -90.5q0 -27 8.5 -46.5q8.5 -19.5 25.5 -35q17 -15.5 44 -28.5q27 -13 65 -26l75 -28q45 -17 83 -34q38 -17 65.5 -39.5q27.5 -22.5 43.5 -52.5q16 -30 16 -71q0 -40 -15 -74.5q-15 -34.5 -45 -60q-30 -25.5 -75 -40t-106 -14.5z" />
<glyph unicode="&#1030;" horiz-adv-x="250" d="M96 700h58v-700l-58 0z" />
<glyph unicode="&#1031;" horiz-adv-x="250" d="M96 700h58v-700h-58zM0 886h57v-118h-57zM194 886h57v-118l-57 0z" />
<glyph unicode="&#1032;" horiz-adv-x="565" d="M253 -15q-50 0 -92 13q-42 13 -72 40q-30 27 -46.5 67.5q-16.5 40.5 -16.5 95.5v28h58v-28q0 -79 45.5 -120.5q45.5 -41.5 123.5 -41.5q37 0 68 10.5q31 10.5 53.5 31.5q22.5 21 35 51.5q12.5 30.5 12.5 70.5v497h58v-499q0 -54 -17 -94.5q-17 -40.5 -47 -67.5q-30 -27 -72 -40.5t-91 -13.5z" />
<glyph unicode="&#1033;" horiz-adv-x="1045" d="M798 52q66 0 101.5 41.5q35.5 41.5 35.5 113.5q0 71 -35.5 112.5q-35.5 41.5 -101.5 41.5h-219v-309zM579 700v-287h220q94 0 144.5 -56q50.5 -56 50.5 -150q0 -95 -50.5 -151q-50.5 -56 -144.5 -56h-278v648h-300v-289q0 -101 -11.5 -169.5q-11.5 -68.5 -36 -110.5q-24.5 -42 -62.5 -60.5q-38 -18.5 -90 -18.5l0 54q40 0 67.5 14.5q27.5 14.5 44.5 50q17 35.5 24 94q7 58.5 7 145.5l0 342z" />
<glyph unicode="&#1034;" horiz-adv-x="1063" d="M101 700h59v-287h379v287h58v-287h220q94 0 144.5 -56q50.5 -56 50.5 -150q0 -95 -50.5 -151q-50.5 -56 -144.5 -56h-278v361h-379v-361h-59zM816 52q66 0 101.5 41.5q35.5 41.5 35.5 113.5q0 71 -35.5 112.5q-35.5 41.5 -101.5 41.5h-219l0 -309z" />
<glyph unicode="&#1035;" horiz-adv-x="752" d="M264 388q39 14 85 21q46 7 88 7q46 0 90.5 -8.5q44.5 -8.5 79.5 -32q35 -23.5 56.5 -64q21.5 -40.5 21.5 -104.5v-207h-58v201q0 77 -46 119q-46 42 -148 42q-45 0 -88 -7q-43 -7 -81 -22l0 -333h-58v648h-180v52h491v-52l-253 0z" />
<glyph unicode="&#1036;" horiz-adv-x="599" d="M96 700h58v-322h132l221 322h54v-20l-225 -325l237 -335v-20h-57l-229 326h-133v-326h-58zM327 762h-59l115 151h60l0 -22z" />
<glyph unicode="&#1038;" horiz-adv-x="565" d="M271 183l-255 497v20h54l228 -454l201 454h51v-20l-302 -680h-51v20zM279 742q-68 0 -110 35q-42 35 -42 101v10h49v-9q0 -46 27.5 -69.5q27.5 -23.5 75.5 -23.5q48 0 75.5 23q27.5 23 27.5 70v9h49v-10q0 -66 -42.5 -101t-109.5 -35z" />
<glyph unicode="&#1039;" horiz-adv-x="685" d="M315 0h-219v700h58v-646h377v646h58v-700h-220v-140l-54 0z" />
<glyph unicode="&#1040;" horiz-adv-x="654" d="M26 20l271 680h59l272 -680v-20h-57l-78 198h-335l-79 -198h-53zM475 248l-149 375l-150 -375z" />
<glyph unicode="&#1041;" horiz-adv-x="646" d="M96 700h454v-52h-396v-235h247q90 0 139.5 -55.5q49.5 -55.5 49.5 -150.5q0 -95 -49.5 -151q-49.5 -56 -139.5 -56h-305zM392 52q63 0 101 40.5q38 40.5 38 114.5q0 73 -38 113.5q-38 40.5 -101 40.5h-238l0 -309z" />
</font>
</defs>
</svg>
