<?xml version="1.0" standalone="no"?>
<!DOCTYPE svg PUBLIC "-//W3C//DTD SVG 1.1//EN" "http://www.w3.org/Graphics/SVG/1.1/DTD/svg11.dtd" >
<svg xmlns="http://www.w3.org/2000/svg">
<metadata></metadata>
<defs>
<font id="plumbregular" horiz-adv-x="1069" >
<font-face units-per-em="2048" ascent="1585" descent="-463" />
<missing-glyph horiz-adv-x="509" />
<glyph horiz-adv-x="2048" />
<glyph horiz-adv-x="2048" />
<glyph unicode="&#xd;" horiz-adv-x="681" />
<glyph unicode=" "  horiz-adv-x="509" />
<glyph unicode="&#x09;" horiz-adv-x="509" />
<glyph unicode="&#xa0;" horiz-adv-x="509" />
<glyph unicode="!" horiz-adv-x="647" d="M252 96q0 43 30.5 73t73.5 30q41 0 72 -30t31 -71q0 -45 -30 -74.5t-73 -29.5t-73.5 29.5t-30.5 72.5zM270 1458h172l-26 -1048h-119z" />
<glyph unicode="&#x22;" horiz-adv-x="866" d="M180 1110v348h162v-348h-162zM524 1110v348h162v-348h-162z" />
<glyph unicode="#" horiz-adv-x="1337" d="M158 465v131h204l48 289h-189v135h207l70 440h153l-71 -440h325l70 440h149l-69 -440h178v-135h-197l-47 -289h182v-131h-202l-74 -465h-152l74 465h-328l-71 -465h-152l74 465h-182zM512 596h326l47 289h-326z" />
<glyph unicode="$" horiz-adv-x="1220" d="M86 180l107 107q88 -82 163 -117q74 -33 189 -41v543l-41 4q-174 16 -276.5 120.5t-102.5 262.5q0 164 100 274q98 109 312 135v183h122v-183q125 -10 201 -40.5t180 -116.5l-100 -101q-78 63 -135 88q-55 25 -152 35v-530l64 -10q174 -27 264 -103q125 -106 125 -289 q0 -156 -98 -264q-113 -121 -349 -145v-225h-122v221q-154 10 -254 53q-92 39 -197 139zM279 1065q0 -106 63.5 -165.5t202.5 -82.5v516q-84 -10 -129 -33q-137 -66 -137 -235zM653 129q168 20 234 94q63 74 63 174q0 117 -71 183q-18 16 -39 28.5t-46.5 19.5t-42 11t-51 9 t-47.5 7v-526z" />
<glyph unicode="%" horiz-adv-x="1705" d="M133 981v215q0 123 77 200t200 77q121 0 198.5 -77t77.5 -200v-215q0 -121 -78 -197.5t-198 -76.5q-123 0 -200 76.5t-77 197.5zM250 985q0 -176 162 -176q158 0 157 176v207q0 178 -159.5 178t-159.5 -178v-207zM451 0l684 1458h122l-684 -1458h-122zM1022 262v215 q0 123 77 200t199 77q121 0 199 -77t78 -200v-215q0 -123 -77 -199.5t-199.5 -76.5t-199.5 76.5t-77 199.5zM1139 266q0 -178 159.5 -178t159.5 178v207q0 178 -159.5 178t-159.5 -178v-207z" />
<glyph unicode="&#x26;" horiz-adv-x="1513" d="M158 408q0 141 82 245q63 82 233 195q-78 92 -111 149q-47 82 -47 170q0 129 91.5 216t228.5 87q135 0 227 -87t92 -216q0 -35 -7 -66.5t-26.5 -60t-34 -49t-47 -47t-48 -39t-56.5 -40t-51 -36.5l373 -448q37 59 55 115q25 78 27 219h147q-4 -178 -47 -291 q-25 -72 -88 -156l223 -268h-194l-131 160q-72 -63 -121 -92q-141 -80 -312 -80q-207 0 -332.5 115.5t-125.5 304.5zM309 412q0 -127 87 -207t227 -80q86 0 165 31q79 30 173 110l-402 484q-121 -82 -178 -146q-72 -78 -72 -192zM469 1169q0 -53 27 -98q26 -47 104 -143 l78 53q72 49 101.5 91t29.5 93q0 72 -50 122t-122 50q-74 0 -121 -47t-47 -121z" />
<glyph unicode="'" horiz-adv-x="522" d="M180 1110v348h162v-348h-162z" />
<glyph unicode="(" horiz-adv-x="610" d="M188 195v1069q0 127 43 211q29 57 148 176l100 -101q-88 -88 -110 -133q-33 -63 -33 -166v-1044q0 -102 33 -166q22 -45 110 -133l-100 -101q-80 80 -113 121q-78 106 -78 267z" />
<glyph unicode=")" horiz-adv-x="610" d="M127 -88q4 4 29.5 28.5t35 35t24.5 31t24 38.5q29 61 28 162v1044q0 100 -28 162q-8 18 -23.5 39t-25 31t-35 34.5t-29.5 28.5l104 105q80 -80 113 -121q43 -59 59.5 -115.5t16.5 -150.5v-1069q0 -135 -41 -211q-33 -61 -148 -177z" />
<glyph unicode="*" horiz-adv-x="970" d="M137 967l246 133l-246 135l60 98l237 -145l-8 280h119l-8 -280l239 145l58 -98l-246 -135l246 -133l-58 -101l-239 146l8 -281h-119l8 281l-237 -146z" />
<glyph unicode="+" d="M106 479v137h361v357h137v-357h359v-137h-359v-360h-137v360h-361z" />
<glyph unicode="," horiz-adv-x="540" d="M59 -233l121 460h199l-197 -460h-123z" />
<glyph unicode="-" horiz-adv-x="872" d="M156 483v138h561v-138h-561z" />
<glyph unicode="." horiz-adv-x="540" d="M154 110.5q0 47.5 34.5 82t81.5 34.5t82 -34.5t35 -79.5q0 -49 -35 -84t-82 -35t-81.5 34.5t-34.5 82z" />
<glyph unicode="/" horiz-adv-x="727" d="M0 -152l584 1762h145l-584 -1762h-145z" />
<glyph unicode="0" d="M135 389v680q0 176 111.5 288.5t288 112.5t288 -112.5t111.5 -288.5v-680q0 -176 -111.5 -288.5t-288 -112.5t-288 112.5t-111.5 288.5zM283 397q0 -127 68.5 -202.5t183 -75.5t183 75.5t68.5 202.5v664q0 127 -68.5 202.5t-183 75.5t-183 -75.5t-68.5 -202.5v-664z" />
<glyph unicode="1" d="M256 1055v168l272 235h148v-1458h-148v1294z" />
<glyph unicode="2" d="M139 0v131l576 731q82 102 82 217q0 119 -69 189.5t-185 70.5q-242 0 -254 -264h-148q6 104 33 168q47 109 143.5 168t227.5 59q180 0 289.5 -108.5t109.5 -284.5q0 -82 -25.5 -146.5t-91.5 -148.5l-510 -651h627v-131h-805z" />
<glyph unicode="3" d="M86 371h147q29 -254 279 -254q129 0 206 78.5t77 210.5q0 135 -74 205.5t-213 70.5h-31v129h31q127 0 193.5 67.5t66.5 192.5t-68.5 197.5t-187.5 72.5q-225 0 -260 -243h-148q10 98 39 157q51 102 148.5 160t222.5 58q180 0 290.5 -110t110.5 -288q0 -154 -88 -248 q-38 -38 -108 -73q78 -33 119 -74q104 -98 104 -281q0 -188 -116.5 -300.5t-313.5 -112.5t-313 110q-57 53 -81 116.5t-32 158.5z" />
<glyph unicode="4" d="M82 231v134l526 1093h158l-526 -1093h424v413h145v-413h178v-134h-178v-231h-145v231h-582z" />
<glyph unicode="5" d="M143 344h148q20 -121 77.5 -174t166.5 -53q117 0 184 67q45 45 62.5 110.5t17.5 186.5q0 186 -59.5 270.5t-192.5 84.5q-125 0 -197 -76q-20 -23 -39 -68h-133v766h737v-131h-604v-463q47 47 97 68q68 33 163 33q162 0 254 -93q121 -119 121 -395q0 -143 -26.5 -231 t-90.5 -152q-109 -109 -290 -108q-121 0 -218.5 49t-140.5 151q-27 66 -37 158z" />
<glyph unicode="6" d="M133 403q0 145 92 332l359 723h151l-325 -655q70 31 151 31q168 0 274.5 -116t106.5 -300q0 -193 -112.5 -311.5t-292.5 -118.5q-182 0 -293 114.5t-111 300.5zM281 414q0 -133 69.5 -214t186.5 -81q115 0 186.5 80t71.5 209q0 137 -70 219t-188 82q-117 0 -186.5 -80 t-69.5 -215z" />
<glyph unicode="7" d="M156 1098v360h809v-131l-506 -1327h-156l506 1327h-508v-229h-145z" />
<glyph unicode="8" d="M104 399q0 147 91 252q43 51 129 105q-72 47 -109 88q-82 96 -82 235q0 170 113.5 280.5t288 110.5t288 -110.5t113.5 -280.5q0 -141 -82 -237q-38 -45 -106 -86q88 -55 126 -103q90 -109 91 -254q0 -178 -122 -294.5t-308.5 -116.5t-308.5 116.5t-122 294.5zM252 403.5 q0 -120.5 81 -202.5t202 -82q119 0 200.5 80.5t81.5 197.5q0 125 -81 208t-201.5 83t-201.5 -82t-81 -202.5zM281 1077.5q0 -114.5 70.5 -187.5t183.5 -73q111 0 182 71.5t71 184.5q0 119 -70.5 192.5t-183 73.5t-183 -73.5t-70.5 -188z" />
<glyph unicode="9" d="M127 1038q0 193 111.5 312.5t293.5 119.5q180 0 292 -114.5t112 -302.5q0 -143 -92 -330l-359 -723h-153l327 655q-72 -31 -153 -30q-168 0 -273.5 114.5t-105.5 298.5zM274 1047q0 -135 70 -216t186 -81q115 0 186.5 79.5t71.5 208.5q0 137 -69.5 219t-188.5 82 q-117 0 -186.5 -79.5t-69.5 -212.5z" />
<glyph unicode=":" horiz-adv-x="540" d="M154 110.5q0 47.5 34.5 82t81.5 34.5t82 -34.5t35 -79.5q0 -49 -35 -84t-82 -35t-81.5 34.5t-34.5 82zM154 835.5q0 47.5 34.5 82t81.5 34.5t82 -34.5t35 -79.5q0 -49 -35 -84t-82 -35t-81.5 34.5t-34.5 82z" />
<glyph unicode=";" horiz-adv-x="540" d="M59 -233l121 460h199l-197 -460h-123zM154 835.5q0 47.5 34.5 82t81.5 34.5t82 -34.5t35 -79.5q0 -49 -35 -84t-82 -35t-81.5 34.5t-34.5 82z" />
<glyph unicode="&#x3c;" d="M80 479v150l907 364v-151l-737 -287l737 -287v-151z" />
<glyph unicode="=" d="M106 309v135h857v-135h-857zM106 655v138h857v-138h-857z" />
<glyph unicode="&#x3e;" d="M80 117v151l739 287l-739 287v151l907 -364v-150z" />
<glyph unicode="?" horiz-adv-x="1017" d="M156 1096q8 172 112.5 273t272.5 101q164 0 273.5 -106.5t109.5 -263.5q0 -117 -93 -250l-167 -242q-37 -55 -37 -119v-79h-148v82q0 102 64 192l166 240q68 98 67 176q0 102 -67.5 170.5t-167.5 68.5q-104 0 -168 -65.5t-70 -177.5h-147zM449 96q0 43 29.5 73t72.5 30 q41 0 71.5 -30t30.5 -71q0 -45 -29.5 -74.5t-72.5 -29.5t-72.5 29.5t-29.5 72.5z" />
<glyph unicode="@" horiz-adv-x="1460" d="M147 328v688q0 211 113 327.5t318 116.5h303q205 0 318.5 -116.5t113.5 -327.5v-1016h-142v113q-57 -68 -112 -95q-70 -33 -158 -32q-182 0 -283 125q-51 61 -70.5 145t-19.5 231q0 264 84 375q98 127 285 127q82 0 154 -33q57 -27 118 -96v160q0 154 -78.5 234.5 t-228.5 80.5h-266q-141 0 -223 -82q-45 -45 -63.5 -97t-18.5 -136v-690q0 -98 22.5 -145.5t94.5 -102.5l-101 -100q-94 72 -123 131q-37 74 -37 215zM674 487.5q0 -196.5 58.5 -285.5t189.5 -89q129 0 188 88.5t59 283.5q0 199 -58 288t-189 89t-189.5 -89t-58.5 -285.5z " />
<glyph unicode="A" horiz-adv-x="1251" d="M25 0l536 1458h131l535 -1458h-166l-117 330h-637l-117 -330h-165zM354 465h545l-270 770z" />
<glyph unicode="B" horiz-adv-x="1368" d="M211 0v1458h549q193 0 311.5 -105.5t118.5 -277.5q0 -158 -107 -258q-34 -34 -108 -67q86 -37 129 -80q109 -104 108 -271q0 -186 -115.5 -292.5t-318.5 -106.5h-567zM367 139h397q135 0 214 73t79 195.5t-79 194.5t-214 72h-397v-535zM367 813h381q135 0 210.5 67.5 t75.5 186.5t-75.5 185.5t-210.5 66.5h-381v-506z" />
<glyph unicode="C" horiz-adv-x="1202" d="M156 729q0 117 1 159t7 124t19.5 123t41 92t68.5 92q151 151 372 151h3q127 0 215 -42t192 -136l-104 -104q-76 74 -142.5 108.5t-158.5 34.5q-154 0 -256 -102q-68 -68 -85.5 -177.5t-17.5 -322.5v-55q0 -203 20.5 -293t82.5 -152q98 -102 256 -102q92 0 158.5 35 t142.5 108l104 -104q-104 -94 -192 -136t-213 -42q-225 0 -377 151q-51 53 -82 113.5t-42 157t-12 140.5t-1 179z" />
<glyph unicode="D" horiz-adv-x="1378" d="M211 0v1458h500q233 0 368 -135q143 -143 144 -455v-118q0 -268 -23 -375q-33 -150 -121 -240q-131 -135 -368 -135h-500zM367 139h317q190 0 287 107q96 104 96 389v110q0 215 -19.5 310.5t-76.5 156.5q-100 106 -287 107h-317v-1180z" />
<glyph unicode="E" horiz-adv-x="1228" d="M211 0v1458h905v-139h-749v-514h639v-139h-639v-527h749v-139h-905z" />
<glyph unicode="F" horiz-adv-x="1187" d="M211 0v1458h905v-139h-749v-537h639v-139h-639v-643h-156z" />
<glyph unicode="G" horiz-adv-x="1320" d="M156 729q0 133 2 195.5t14 147.5t42 141.5t79 105.5q151 151 374 151h3q135 0 228 -46t204 -152l-105 -105q-84 84 -154.5 124t-170.5 40q-154 0 -258 -104q-39 -39 -61.5 -88t-31 -128t-9.5 -123t-1 -159v-55q0 -203 20.5 -293t82.5 -152q102 -102 252 -102 q172 0 274 125q80 94 80 266v109h-354v137h510v-232q0 -240 -125 -376q-156 -168 -385 -168q-221 0 -373 151q-94 94 -115.5 214t-21.5 376z" />
<glyph unicode="H" horiz-adv-x="1425" d="M211 0v1458h156v-653h692v653h155v-1458h-155v666h-692v-666h-156z" />
<glyph unicode="I" horiz-adv-x="577" d="M211 0v1458h156v-1458h-156z" />
<glyph unicode="J" horiz-adv-x="1026" d="M47 119l105 104q55 -53 104 -74.5t123 -21.5q145 0 223 87t78 249v995h156v-1016q0 -207 -125 -330.5t-332 -123.5q-104 0 -191 35q-70 29 -141 96z" />
<glyph unicode="K" horiz-adv-x="1331" d="M211 0v1458h156v-837l680 837h190l-459 -563l525 -895h-185l-444 776l-307 -368v-408h-156z" />
<glyph unicode="L" horiz-adv-x="1173" d="M211 0v1458h156v-1319h745v-139h-901z" />
<glyph unicode="M" horiz-adv-x="1671" d="M211 0v1458h156l475 -1034l463 1034h155v-1458h-155v1108l-400 -879h-133l-405 879v-1108h-156z" />
<glyph unicode="N" horiz-adv-x="1499" d="M211 0v1458h147l775 -1165v1165h155v-1458h-147l-774 1169v-1169h-156z" />
<glyph unicode="O" horiz-adv-x="1331" d="M156 729v68.5v74t2 67.5t6 73.5t10 64.5t16.5 69.5t24.5 59.5t33.5 61.5t44.5 51.5q152 152 372 152l1 -1q221 0 372 -151q25 -25 44.5 -51.5t33.5 -61.5t24.5 -59.5t16.5 -69.5t10 -64.5t6.5 -73.5t2.5 -67.5v-74v-68.5q0 -254 -23 -376t-115 -214q-152 -152 -372 -152 l-1 1q-221 0 -372 151q-92 92 -114.5 214t-22.5 376zM311 600q0 -16 1 -59t4 -62.5t7.5 -55.5t12.5 -56.5t18.5 -47t25.5 -48t34 -40.5q104 -104 251.5 -104t252.5 104q18 18 33.5 40t25.5 48.5t18.5 47t12.5 56.5t7 55.5t4 62.5t1 59v65.5v63.5v39q0 123 -3 185.5 t-26.5 143.5t-72.5 130q-104 104 -252 104t-252 -104q-49 -49 -73 -126t-27 -138.5t-3 -190.5v-43v-63.5v-65.5z" />
<glyph unicode="P" horiz-adv-x="1290" d="M211 0v1458h543q203 0 326.5 -117.5t123.5 -310.5q0 -195 -124 -312.5t-326 -117.5h-387v-600h-156zM367 739h372q145 0 227.5 77t82.5 214t-82 213t-228 76h-372v-580z" />
<glyph unicode="Q" horiz-adv-x="1329" d="M156 729v74q0 225 27.5 329.5t109.5 186.5q152 152 372 152l1 -1q221 0 372 -151q102 -106 119 -221q18 -133 19 -369v-70q0 -260 -37 -362q-18 -51 -64 -115l160 -159l-94 -95l-162 162q-147 -102 -313 -102q-221 0 -373 151q-63 63 -95 166t-37 185.5t-5 238.5z M311 674q0 -201 20.5 -290t82.5 -153q100 -104 252 -104q104 0 206 70l-184 184l94 94l179 -178q25 41 34 78q18 74 23 227l2 127q1 40 1 75q0 183 -17 262q-21 95 -86 161q-100 104 -252 104t-252 -104q-76 -80 -86 -168q-16 -119 -17 -330v-55z" />
<glyph unicode="R" horiz-adv-x="1343" d="M211 0v1458h559q195 0 313.5 -110.5t118.5 -294.5q0 -201 -143 -314q-59 -47 -174 -77l346 -662h-182l-332 647h-350v-647h-156zM367 784h389q137 0 214 71t77 196q0 127 -77 197.5t-214 70.5h-389v-535z" />
<glyph unicode="S" horiz-adv-x="1204" d="M86 180l107 107q90 -86 174 -121q98 -39 215 -39q168 0 260 71.5t92 200.5q0 119 -70 181q-33 29 -70.5 43t-119.5 26l-170 27q-379 59 -379 381q0 195 128 304t351 109q129 0 234 -40q86 -31 188 -119l-100 -101q-80 68 -146 93q-78 32 -180 32h-6q-150 0 -232.5 -71.5 t-82.5 -200.5q0 -207 262 -246l159 -24q180 -29 267 -103q123 -104 123 -289q0 -193 -139.5 -303t-383.5 -110q-152 0 -276 51q-94 39 -205 141z" />
<glyph unicode="T" horiz-adv-x="1122" d="M61 1319v139h1000v-139h-422v-1319h-156v1319h-422z" />
<glyph unicode="U" horiz-adv-x="1398" d="M190 481v977h156v-964q0 -166 96.5 -266.5t256 -100.5t257 100.5t97.5 266.5v964h155v-977q0 -217 -143 -355t-366.5 -138t-366 138t-142.5 355z" />
<glyph unicode="V" horiz-adv-x="1118" d="M16 1458h164l379 -1179l379 1179h164l-479 -1458h-127z" />
<glyph unicode="W" horiz-adv-x="1748" d="M33 1458h166l284 -1175l322 1175h139l322 -1175l284 1175h166l-373 -1458h-145l-324 1167l-323 -1167h-145z" />
<glyph unicode="X" horiz-adv-x="1128" d="M31 0l446 748l-418 710h181l323 -575l324 575h180l-420 -710l451 -748h-180l-355 612l-356 -612h-176z" />
<glyph unicode="Y" horiz-adv-x="1052" d="M16 1458h168l344 -698l340 698h168l-430 -856v-602h-155v602z" />
<glyph unicode="Z" horiz-adv-x="1138" d="M117 0v147l729 1172h-701v139h877v-131l-735 -1188h735v-139h-905z" />
<glyph unicode="[" horiz-adv-x="641" d="M188 -152v1762h363v-131h-215v-1499h215v-132h-363z" />
<glyph unicode="\" horiz-adv-x="727" d="M0 1604h145l582 -1756h-145z" />
<glyph unicode="]" horiz-adv-x="641" d="M90 -25h221v1508h-221v127h363v-1762h-363v127z" />
<glyph unicode="^" horiz-adv-x="1099" d="M147 846l336 624h135l334 -624h-151l-250 467l-252 -467h-152z" />
<glyph unicode="_" horiz-adv-x="1099" d="M0 -233h1100v-105h-1100v105z" />
<glyph unicode="`" horiz-adv-x="1024" d="M256 1530h176l180 -313h-135z" />
<glyph unicode="a" horiz-adv-x="1077" d="M104 285q0 137 92.5 213.5t256.5 76.5h303v97q0 115 -63.5 168t-200.5 53q-94 0 -156 -31q-45 -20 -92 -84l-101 92q70 80 127 109q82 41 226 41q408 0 407 -336v-684h-147v96q-66 -61 -115 -82q-59 -26 -170 -26h-8q-174 0 -266.5 75.5t-92.5 221.5zM248 287 q0 -90 58.5 -131t185.5 -41q141 0 202.5 56t61.5 185v109h-283q-225 0 -225 -178z" />
<glyph unicode="b" horiz-adv-x="1116" d="M184 0v1458h148v-567q59 70 114 96q66 33 162 33q195 0 286 -125t91 -393q0 -262 -91 -388t-284 -126q-94 0 -161 32q-51 25 -117 101v-121h-148zM332 504q0 -203 60.5 -294t193.5 -91t192.5 91t59.5 292q0 207 -59.5 297t-194.5 90q-131 0 -191.5 -92t-60.5 -293z" />
<glyph unicode="c" horiz-adv-x="1003" d="M129 503.5q0 241.5 121 379t332 137.5q96 0 170 -31q72 -31 155 -119l-100 -94q-68 70 -115 90q-51 23 -112 23q-304 0 -304 -386q0 -384 302 -384q63 0 110 20q49 23 119 94l100 -96q-84 -88 -155 -119q-72 -30 -164 -30h-6q-211 0 -332 137t-121 378.5z" />
<glyph unicode="d" horiz-adv-x="1116" d="M131 504q0 266 91 391t284 125q96 0 164 -33q55 -27 114 -96v567h148v-1458h-146v121q-66 -76 -116 -101q-66 -32 -158 -32h-6q-193 0 -284 125t-91 391zM279 504q0 -203 60 -294t193.5 -91t192.5 91t59 292q0 207 -59 297t-195 90q-131 0 -191 -92t-60 -293z" />
<glyph unicode="e" horiz-adv-x="1085" d="M129 510q0 238 110.5 374t303 136t303 -131t110.5 -357v-67h-680q6 -121 31 -182q70 -166 275 -166q66 0 129 24q57 25 127 90l100 -88q-92 -90 -170 -120q-86 -35 -195 -35q-219 0 -331.5 133t-112.5 389zM276 575h533q-4 92 -18 134q-27 88 -92.5 137t-155.5 49 q-80 0 -142.5 -40t-93.5 -112q-27 -57 -31 -168z" />
<glyph unicode="f" horiz-adv-x="643" d="M88 889v112h129v191q0 125 68.5 197.5t187.5 72.5h107v-127h-80q-135 0 -135 -147v-187h215v-112h-215v-889h-148v889h-129z" />
<glyph unicode="g" horiz-adv-x="1112" d="M131 512q0 260 91 384t284 124q94 0 162 -33q57 -29 114 -98v119h146v-1039q0 -199 -116 -315.5t-312 -116.5q-96 0 -172 29q-68 25 -162 106l96 95q76 -66 121 -82q49 -18 117 -19q133 0 206.5 81t73.5 228v158q-61 -72 -118 -98q-66 -33 -156 -33q-190 0 -282.5 125 t-92.5 385zM279 512q0 -199 59 -288t192 -89q131 0 190.5 89t59.5 286q0 201 -59 290t-193 89q-131 0 -190 -90t-59 -287z" />
<glyph unicode="h" horiz-adv-x="1150" d="M184 0v1458h148v-561q61 63 121 90q72 33 163 33q166 0 263.5 -100.5t97.5 -272.5v-647h-148v623q0 127 -63.5 196.5t-182 69.5t-185 -70.5t-66.5 -195.5v-623h-148z" />
<glyph unicode="i" horiz-adv-x="518" d="M158 1386.5q0 40.5 29.5 70.5t70.5 30t71.5 -29.5t30.5 -68.5q0 -43 -29.5 -73t-72.5 -30q-41 0 -70.5 30t-29.5 70.5zM184 0v1008h148v-1008h-148z" />
<glyph unicode="j" horiz-adv-x="518" d="M-31 -324h80q72 0 103.5 35t31.5 113v1184h148v-1190q0 -127 -67.5 -199t-188.5 -72h-107v129zM158 1386.5q0 40.5 29.5 70.5t70.5 30t71.5 -29.5t30.5 -68.5q0 -43 -29.5 -73t-72.5 -30q-41 0 -70.5 30t-29.5 70.5z" />
<glyph unicode="k" horiz-adv-x="1097" d="M184 0v1458h148v-975l454 525h185l-342 -385l401 -623h-182l-320 516l-196 -225v-291h-148z" />
<glyph unicode="l" horiz-adv-x="518" d="M184 0v1458h148v-1458h-148z" />
<glyph unicode="m" horiz-adv-x="1800" d="M184 0v1008h148v-111q63 63 119 88q80 35 167 35q143 0 236 -80q37 -33 72 -88q72 90 139 125q80 43 192 43q168 0 268.5 -102.5t100.5 -272.5v-645h-147v621q0 127 -64.5 197.5t-181.5 70.5t-185.5 -68.5t-68.5 -183.5v-637h-148v621q0 127 -64.5 197.5t-183 70.5 t-185 -70.5t-66.5 -197.5v-621h-148z" />
<glyph unicode="n" horiz-adv-x="1150" d="M184 0v1008h148v-111q59 61 119 90q74 33 165 33q166 0 263.5 -100.5t97.5 -274.5v-645h-148v621q0 127 -64.5 197.5t-183 70.5t-184 -70.5t-65.5 -197.5v-621h-148z" />
<glyph unicode="o" horiz-adv-x="1085" d="M131 503.5q0 276.5 123 401.5q115 115 289 115t288 -115q123 -123 123 -395q0 -283 -123 -408q-115 -115 -287 -115l-2 1q-174 0 -288 114q-123 125 -123 401.5zM279 504q0 -227 81 -311q70 -74 183 -74q115 0 184 74q80 82 80 305q0 129 -17.5 200.5t-62.5 116.5 q-70 74 -184 74q-113 0 -183 -74q-81 -81 -81 -306v-5z" />
<glyph unicode="p" horiz-adv-x="1116" d="M184 -451v1459h148v-119q59 70 114 98q66 33 162 33q195 0 286 -125t91 -393q0 -262 -91 -388t-284 -126q-94 0 -161 32q-55 27 -117 99v-570h-148zM332 504q0 -203 60.5 -294t193.5 -91t192.5 91t59.5 292q0 207 -59.5 297t-194.5 90q-131 0 -191.5 -92t-60.5 -293z" />
<glyph unicode="q" horiz-adv-x="1116" d="M131 504q0 266 91 391t284 125q98 0 166 -33q51 -25 114 -98v119h146v-1459h-148v570q-61 -72 -116 -99q-64 -32 -156 -32h-6q-193 0 -284 125t-91 391zM279 504q0 -203 60 -294t193.5 -91t192.5 91t59 292q0 207 -59 297t-195 90q-131 0 -191 -92t-60 -293z" />
<glyph unicode="r" horiz-adv-x="862" d="M184 0v1008h148v-123q102 135 289 135q76 0 135 -25q45 -18 100 -69l-108 -111q-76 74 -168 74q-113 0 -180.5 -75t-67.5 -196v-618h-148z" />
<glyph unicode="s" horiz-adv-x="1015" d="M88 133l98 98q63 -57 115 -79q88 -37 201 -37q129 0 197.5 46t68.5 134q0 131 -168 145l-166 15q-301 25 -301 268q0 137 102.5 217t276.5 80q113 0 223 -37q68 -25 131 -72l-96 -96q-53 39 -104 55q-74 25 -162 25q-109 0 -168.5 -43t-59.5 -125q0 -131 177 -145 l161 -15q297 -27 297 -270q0 -145 -111.5 -227t-312.5 -82q-135 0 -243 43q-74 31 -156 102z" />
<glyph unicode="t" horiz-adv-x="679" d="M82 889v112h127v316h147v-316h215v-112h-215v-615q0 -147 138 -147h77v-127h-104q-119 0 -188.5 72.5t-69.5 197.5v619h-127z" />
<glyph unicode="u" horiz-adv-x="1150" d="M174 365v643h148v-621q0 -129 63.5 -198.5t182 -69.5t185 70.5t66.5 197.5v621h148v-1008h-146v113q-61 -63 -123 -93q-72 -32 -161 -32h-5q-168 0 -263 100t-95 277z" />
<glyph unicode="v" horiz-adv-x="915" d="M23 1008h159l275 -809l276 809h160l-371 -1008h-131z" />
<glyph unicode="w" horiz-adv-x="1482" d="M23 1008h159l232 -809l264 809h127l266 -809l229 809h160l-317 -1008h-137l-265 782l-262 -782h-137z" />
<glyph unicode="x" horiz-adv-x="978" d="M68 0l342 514l-328 494h178l232 -373l227 373h178l-328 -494l342 -514h-178l-241 391l-246 -391h-178z" />
<glyph unicode="y" horiz-adv-x="915" d="M23 1008h159l277 -809l274 809h160l-459 -1252q-70 -188 -268 -188h-64v131h45q72 0 106 24.5t60 100.5l72 196z" />
<glyph unicode="z" horiz-adv-x="940" d="M102 0v127l562 750h-531v131h701v-125l-564 -752h564v-131h-732z" />
<glyph unicode="{" horiz-adv-x="724" d="M98 664v131h54q129 0 129 159v392q0 143 61 203.5t207 60.5h76v-131h-47q-96 0 -123 -29t-27 -131v-385q0 -78 -28.5 -123t-100.5 -82q72 -37 100.5 -82t28.5 -123v-385q0 -102 26.5 -130.5t123.5 -28.5h47v-132h-76q-147 0 -207.5 59.5t-60.5 205.5v391q0 160 -129 160 h-54z" />
<glyph unicode="|" horiz-adv-x="667" d="M260 -152v1762h148v-1762h-148z" />
<glyph unicode="}" horiz-adv-x="724" d="M98 -20h49q94 0 122 28.5t28 130.5v385q0 78 28.5 123t100.5 82q-72 37 -100.5 82t-28.5 123v385q0 102 -27.5 131t-122.5 29h-49v131h78q147 0 207.5 -59.5t60.5 -204.5v-392q0 -160 129 -159h52v-131h-52q-129 0 -129 -160v-391q0 -143 -61 -204t-207 -61h-78v132z" />
<glyph unicode="~" horiz-adv-x="1103" d="M100 543q94 92 160 121q39 18 98 18q94 0 222 -64l32 -16q63 -33 131 -33q45 0 78 17.5t90 75.5l93 -93q-94 -92 -160 -120q-39 -18 -99 -19q-80 0 -223 64l-33 14q-82 35 -131 35q-45 0 -77.5 -17.5t-90.5 -74.5z" />
<glyph unicode="&#xad;" horiz-adv-x="872" d="M156 483v138h561v-138h-561z" />
<glyph unicode="&#x401;" horiz-adv-x="1228" d="M211 0v1458h905v-139h-749v-514h639v-139h-639v-527h749v-139h-905zM332 1704q0 39 26.5 66.5t65.5 27.5q37 0 64.5 -27.5t27.5 -64.5q0 -39 -26.5 -66.5t-65.5 -27.5t-65.5 26.5t-26.5 65.5zM766 1704q0 39 26.5 66.5t65.5 27.5q37 0 64.5 -27.5t27.5 -64.5 q0 -39 -26.5 -66.5t-65.5 -27.5t-65.5 26.5t-26.5 65.5z" />
<glyph unicode="&#x402;" horiz-adv-x="1523" d="M53 1319v139h998v-139h-484v-463h379q172 0 283.5 -94t111.5 -277v-477q0 -209 -118.5 -330.5t-331.5 -121.5q-102 0 -178 30q-66 25 -133 84l100 111q88 -86 213 -86q139 0 216 87t77 247v434q0 137 -76 195.5t-178 58.5h-365v-717h-155v1319h-359z" />
<glyph unicode="&#x403;" horiz-adv-x="1165" d="M225 0v1458h877v-139h-721v-1319h-156zM549 1585l180 313h176l-223 -313h-133z" />
<glyph unicode="&#x404;" horiz-adv-x="1202" d="M156 729q0 117 1 159t7 124t19.5 123t41 92t68.5 92q152 152 375 151q127 0 215 -42t192 -136l-104 -104q-76 74 -142.5 108.5t-158.5 34.5q-154 0 -256 -102q-61 -63 -81 -159.5t-22 -266.5h561v-137h-561q0 -197 21.5 -286t81.5 -151q98 -102 256 -102q92 0 158.5 35 t142.5 108l104 -104q-104 -94 -192 -136t-213 -42q-225 0 -377 151q-51 53 -82 113.5t-42 157t-12 140.5t-1 179z" />
<glyph unicode="&#x405;" horiz-adv-x="1204" d="M86 180l107 107q90 -86 174 -121q98 -39 215 -39q168 0 260 71.5t92 200.5q0 119 -70 181q-33 29 -70.5 43t-119.5 26l-170 27q-379 59 -379 381q0 195 128 304t351 109q129 0 234 -40q86 -31 188 -119l-100 -101q-80 68 -146 93q-80 33 -186 32q-150 0 -232.5 -71.5 t-82.5 -200.5q0 -207 262 -246l159 -24q180 -29 267 -103q123 -104 123 -289q0 -193 -139.5 -303t-383.5 -110q-152 0 -276 51q-94 39 -205 141z" />
<glyph unicode="&#x406;" horiz-adv-x="577" d="M211 0v1458h156v-1458h-156z" />
<glyph unicode="&#x407;" horiz-adv-x="577" d="M-23 1704q0 39 27 66.5t66 27.5q37 0 64.5 -27.5t27.5 -64.5q0 -39 -26.5 -66.5t-65.5 -27.5t-66 26.5t-27 65.5zM211 0v1458h156v-1458h-156zM412 1704q0 39 26.5 66.5t65.5 27.5q37 0 64.5 -27.5t27.5 -64.5q0 -39 -26.5 -66.5t-65.5 -27.5t-65.5 26.5t-26.5 65.5z" />
<glyph unicode="&#x408;" horiz-adv-x="1026" d="M47 119l105 104q55 -53 104 -74.5t123 -21.5q145 0 223 87t78 249v995h156v-1016q0 -207 -125 -330.5t-332 -123.5q-104 0 -191 35q-70 29 -141 96z" />
<glyph unicode="&#x409;" horiz-adv-x="2136" d="M37 0v139h55q72 0 121 21.5t92 81t64.5 175t27.5 294.5l23 747h792v-600h394q203 0 325.5 -117.5t122.5 -312.5q0 -193 -123 -310.5t-325 -117.5h-549v1319h-484l-22 -653q-12 -360 -112.5 -513t-309.5 -153h-92zM1212 139h377q145 0 227 76t82 213t-82 214t-227 77h-377 v-580z" />
<glyph unicode="&#x40a;" horiz-adv-x="2136" d="M211 0v1458h156v-600h690v600h155v-600h394q203 0 325.5 -117.5t122.5 -312.5q0 -193 -123 -310.5t-325 -117.5h-549v719h-690v-719h-156zM1212 139h377q145 0 227 76t82 213t-82 214t-227 77h-377v-580z" />
<glyph unicode="&#x40b;" horiz-adv-x="1523" d="M53 1319v139h998v-139h-484v-483q233 51 383 51q168 0 279.5 -94.5t111.5 -276.5v-516h-155v492q0 137 -76 196.5t-178 59.5q-137 0 -365 -50v-698h-155v1319h-359z" />
<glyph unicode="&#x40c;" horiz-adv-x="1331" d="M211 0v1458h156v-837l680 837h190l-459 -563l525 -895h-185l-444 776l-307 -368v-408h-156zM559 1585l180 313h176l-223 -313h-133z" />
<glyph unicode="&#x40e;" horiz-adv-x="1118" d="M20 1458h166l394 -862l354 862h166l-529 -1231q-98 -227 -286 -227h-127v139h92q74 0 117 34t75 112l60 137zM254 1819h117q39 -152 211 -152q170 0 209 152h116q-49 -268 -325 -269q-279 0 -328 269z" />
<glyph unicode="&#x40f;" horiz-adv-x="1425" d="M211 0v1458h156v-1319h690v1319h155v-1458h-421v-373h-154v373h-426z" />
<glyph unicode="&#x410;" horiz-adv-x="1251" d="M25 0l536 1458h131l535 -1458h-166l-117 330h-637l-117 -330h-165zM354 465h545l-270 770z" />
<glyph unicode="&#x411;" horiz-adv-x="1343" d="M211 0v1458h909v-139h-753v-461h395q203 0 325.5 -117.5t122.5 -312.5q0 -193 -122.5 -310.5t-325.5 -117.5h-551zM367 139h381q145 0 226 76t81 213t-81 214t-226 77h-381v-580z" />
<glyph unicode="&#x412;" horiz-adv-x="1368" d="M211 0v1458h549q193 0 311.5 -105.5t118.5 -277.5q0 -158 -107 -258q-34 -34 -108 -67q86 -37 129 -80q109 -104 108 -271q0 -186 -115.5 -292.5t-318.5 -106.5h-567zM367 139h397q135 0 214 73t79 195.5t-79 194.5t-214 72h-397v-535zM367 813h381q135 0 210.5 67.5 t75.5 186.5t-75.5 185.5t-210.5 66.5h-381v-506z" />
<glyph unicode="&#x413;" horiz-adv-x="1165" d="M225 0v1458h877v-139h-721v-1319h-156z" />
<glyph unicode="&#x414;" horiz-adv-x="1437" d="M78 139h147q102 244 139 488.5t37 718.5v112h779v-1319h174v-512h-154v373h-969v-373h-153v512zM391 139h633v1180h-467v-100q0 -414 -35 -625t-131 -455z" />
<glyph unicode="&#x415;" horiz-adv-x="1228" d="M211 0v1458h905v-139h-749v-514h639v-139h-639v-527h749v-139h-905z" />
<glyph unicode="&#x416;" horiz-adv-x="1925" d="M31 0l508 877l-445 581h189l602 -821v821h155v-821l602 821h189l-445 -581l510 -877h-184l-426 750l-246 -322v-428h-155v428l-246 322l-426 -750h-182z" />
<glyph unicode="&#x417;" horiz-adv-x="1204" d="M80 180l106 107q92 -88 176 -124t209 -36q137 0 228.5 76t91.5 203q0 135 -78 203.5t-219 68.5h-166v135h172q127 0 197.5 68.5t70.5 195.5q0 121 -80.5 188.5t-214.5 67.5q-203 0 -346 -127l-96 101q193 164 444 163q195 0 322 -105t127 -282q0 -236 -211 -331 q236 -85 236 -351q0 -186 -137.5 -299.5t-346.5 -113.5q-158 0 -267.5 42t-217.5 150z" />
<glyph unicode="&#x418;" horiz-adv-x="1466" d="M211 0v1458h156v-1188l741 1188h147v-1458h-155v1190l-742 -1190h-147z" />
<glyph unicode="&#x419;" horiz-adv-x="1466" d="M211 0v1458h156v-1188l741 1188h147v-1458h-155v1190l-742 -1190h-147zM408 1819h116q39 -152 211 -152q170 0 209 152h117q-49 -268 -326 -269q-279 0 -327 269z" />
<glyph unicode="&#x41a;" horiz-adv-x="1331" d="M211 0v1458h156v-837l680 837h190l-459 -563l525 -895h-185l-444 776l-307 -368v-408h-156z" />
<glyph unicode="&#x41b;" horiz-adv-x="1425" d="M37 0v139h55q72 0 121 21.5t92 81t64.5 175t27.5 294.5l23 747h792v-1458h-155v1319h-484l-22 -653q-12 -360 -112.5 -513t-309.5 -153h-92z" />
<glyph unicode="&#x41c;" horiz-adv-x="1671" d="M211 0v1458h156l475 -1034l463 1034h155v-1458h-155v1108l-400 -879h-133l-405 879v-1108h-156z" />
<glyph unicode="&#x41d;" horiz-adv-x="1425" d="M211 0v1458h156v-653h692v653h155v-1458h-155v666h-692v-666h-156z" />
<glyph unicode="&#x41e;" horiz-adv-x="1331" d="M156 729v68.5v74t2 67.5t6 73.5t10 64.5t16.5 69.5t24.5 59.5t33.5 61.5t44.5 51.5q152 152 373 151.5t372 -151.5q25 -25 44.5 -51.5t33.5 -61.5t24.5 -59.5t16.5 -69.5t10 -64.5t6.5 -73.5t2.5 -67.5v-74v-68.5q0 -254 -23 -376t-115 -214q-152 -152 -373 -151.5 t-372 151.5q-92 92 -114.5 214t-22.5 376zM311 600q0 -16 1 -59t4 -62.5t7.5 -55.5t12.5 -56.5t18.5 -47t25.5 -48t34 -40.5q104 -104 251.5 -104t252.5 104q18 18 33.5 40t25.5 48.5t18.5 47t12.5 56.5t7 55.5t4 62.5t1 59v65.5v63.5v39q0 123 -3 185.5t-26.5 143.5 t-72.5 130q-104 104 -252 104t-252 -104q-49 -49 -73 -126t-27 -138.5t-3 -190.5v-43v-63.5v-65.5z" />
<glyph unicode="&#x41f;" horiz-adv-x="1425" d="M211 0v1458h1001v-1458h-155v1319h-690v-1319h-156z" />
<glyph unicode="&#x420;" horiz-adv-x="1290" d="M211 0v1458h543q203 0 326.5 -117.5t123.5 -310.5q0 -195 -124 -312.5t-326 -117.5h-387v-600h-156zM367 739h372q145 0 227.5 77t82.5 214t-82 213t-228 76h-372v-580z" />
<glyph unicode="&#x421;" horiz-adv-x="1202" d="M156 729q0 117 1 159t7 124t19.5 123t41 92t68.5 92q152 152 375 151q127 0 215 -42t192 -136l-104 -104q-76 74 -142.5 108.5t-158.5 34.5q-154 0 -256 -102q-68 -68 -85.5 -177.5t-17.5 -322.5v-55q0 -203 20.5 -293t82.5 -152q98 -102 256 -102q92 0 158.5 35 t142.5 108l104 -104q-104 -94 -192 -136t-213 -42q-225 0 -377 151q-51 53 -82 113.5t-42 157t-12 140.5t-1 179z" />
<glyph unicode="&#x422;" horiz-adv-x="1122" d="M61 1319v139h1000v-139h-422v-1319h-156v1319h-422z" />
<glyph unicode="&#x423;" horiz-adv-x="1118" d="M20 1458h166l394 -862l354 862h166l-529 -1231q-98 -227 -286 -227h-127v139h92q74 0 117 34t75 112l60 137z" />
<glyph unicode="&#x424;" horiz-adv-x="1519" d="M113 760q0 270 153.5 424.5t415.5 158.5v123h156v-123q262 -4 415.5 -158.5t153.5 -424.5q0 -272 -151.5 -430t-417.5 -160v-178h-156v178q-266 2 -417.5 159.5t-151.5 430.5zM268 756q0 -203 106.5 -325t307.5 -124v897q-205 -2 -309.5 -122.5t-104.5 -325.5zM838 307 q199 2 306 124t107 325q0 205 -104 325.5t-309 122.5v-897z" />
<glyph unicode="&#x425;" horiz-adv-x="1128" d="M31 0l446 748l-418 710h181l323 -575l324 575h180l-420 -710l451 -748h-180l-355 612l-356 -612h-176z" />
<glyph unicode="&#x426;" horiz-adv-x="1470" d="M211 0v1458h156v-1319h690v1319h155v-1319h174v-512h-153v373h-1022z" />
<glyph unicode="&#x427;" horiz-adv-x="1320" d="M156 932v526h155v-504q0 -135 84 -196.5t189 -61.5h370v762h156v-1458h-156v559h-391q-168 0 -287.5 95.5t-119.5 277.5z" />
<glyph unicode="&#x428;" horiz-adv-x="2041" d="M211 0v1458h156v-1319h575v1319h158v-1319h575v1319h156v-1458h-1620z" />
<glyph unicode="&#x429;" horiz-adv-x="2086" d="M211 0v1458h156v-1319h575v1319h158v-1319h575v1319h156v-1319h172v-512h-154v373h-1638z" />
<glyph unicode="&#x42a;" horiz-adv-x="1552" d="M61 1319v139h568v-600h391q203 0 325.5 -117.5t122.5 -312.5q0 -193 -122.5 -310.5t-325.5 -117.5h-549v1319h-410zM629 139h377q145 0 226 76t81 213t-81 214t-226 77h-377v-580z" />
<glyph unicode="&#x42b;" horiz-adv-x="1769" d="M211 0v1458h156v-600h391q205 0 327.5 -117.5t122.5 -312.5q0 -193 -123.5 -310.5t-326.5 -117.5h-547zM367 139h376q145 0 226.5 76t81.5 213t-81 214t-227 77h-376v-580zM1403 0v1458h156v-1458h-156z" />
<glyph unicode="&#x42c;" horiz-adv-x="1290" d="M211 0v1458h156v-600h391q205 0 327.5 -117.5t122.5 -312.5q0 -193 -123.5 -310.5t-326.5 -117.5h-547zM367 139h376q145 0 226.5 76t81.5 213t-81 214t-227 77h-376v-580z" />
<glyph unicode="&#x42d;" horiz-adv-x="1202" d="M127 166l104 104q90 -88 162 -116q59 -27 139 -27q158 0 256 102q59 61 81 150.5t22 286.5h-529v139h529q0 12 -1 62.5t-2 67.5t-4 61t-10.5 67.5t-17.5 56.5t-27.5 59.5t-40.5 49.5q-102 102 -256 102q-76 0 -139 -26q-74 -33 -162 -117l-104 104q68 61 108.5 90 t96.5 52q94 37 203 36q223 0 374 -151q82 -82 111 -195.5t29 -341.5q0 -303 -21 -403q-29 -147 -119 -240q-152 -152 -377 -151q-109 0 -200 37q-55 23 -96 51t-109 90z" />
<glyph unicode="&#x42e;" horiz-adv-x="1851" d="M211 0v1458h156v-653h309q2 207 25.5 316.5t111.5 197.5q152 151 373 151t373 -151q80 -82 108.5 -192.5t28.5 -266.5v-131q0 -266 -23.5 -382t-113.5 -208q-152 -152 -373 -151.5t-373 151.5q-86 88 -111.5 199t-25.5 328h-309v-666h-156zM831 670q0 -197 21.5 -286 t81.5 -153q104 -104 252 -104q152 0 252 104q47 49 70.5 125t26.5 142t3 207v63q0 213 -19.5 305t-80.5 156q-102 102 -252 102q-154 0 -252 -102q-66 -66 -84.5 -168.5t-18.5 -319.5v-71z" />
<glyph unicode="&#x42f;" horiz-adv-x="1343" d="M115 0l336 623q-145 35 -228.5 143t-83.5 264q0 193 124 310.5t327 117.5h543v-1458h-158v600h-361l-315 -600h-184zM293 1030q0 -137 82 -214t227 -77h373v580h-373q-145 0 -227 -76t-82 -213z" />
<glyph unicode="&#x430;" horiz-adv-x="1077" d="M104 285q0 137 92.5 213.5t256.5 76.5h303v97q0 115 -63.5 168t-200.5 53q-94 0 -156 -31q-45 -20 -92 -84l-101 92q70 80 127 109q82 41 226 41q408 0 407 -336v-684h-147v96q-66 -61 -115 -82q-61 -27 -178 -26q-174 0 -266.5 75.5t-92.5 221.5zM248 287 q0 -90 58.5 -131t185.5 -41q141 0 202.5 56t61.5 185v109h-283q-225 0 -225 -178z" />
<glyph unicode="&#x431;" horiz-adv-x="1085" d="M150 702q0 270 25.5 406.5t123.5 226.5q53 49 138 79t145.5 38t165 14.5t129.5 8.5v-136q-10 -2 -143.5 -9t-217.5 -28.5t-137 -70.5q-25 -23 -43.5 -50.5t-29.5 -61.5t-18 -60.5t-11.5 -65.5t-6.5 -58.5t-3 -55t-1 -39.5h6q35 72 121 115.5t174 43.5q193 0 290 -129.5 t97 -369.5q0 -281 -118 -402q-106 -111 -283 -110q-137 0 -231.5 71.5t-133.5 200.5q-39 123 -38 442zM297 496q0 -121 16.5 -187.5t57.5 -111.5q68 -78 182 -78q113 0 180 78q74 80 74 295q0 123 -16.5 189.5t-57.5 111.5q-69 75 -180 75q-113 0 -182 -75q-74 -80 -74 -297 z" />
<glyph unicode="&#x432;" horiz-adv-x="1103" d="M186 0v1008h467q133 0 215 -73t82 -192q0 -164 -159 -221q176 -65 176 -243q0 -129 -80 -204t-221 -75h-480zM332 127h307q86 0 134 45t48 121t-48 121t-134 45h-307v-332zM332 580h295q178 -1 178 151q0 150 -178 150h-295v-301z" />
<glyph unicode="&#x433;" horiz-adv-x="854" d="M193 0v1008h638v-127h-491v-881h-147z" />
<glyph unicode="&#x434;" horiz-adv-x="1140" d="M39 127h125q68 152 100.5 295t32.5 393v193h635v-881h149v-438h-143v311h-758v-311h-141v438zM328 127h456v754h-342v-191q-2 -307 -114 -563z" />
<glyph unicode="&#x435;" horiz-adv-x="1085" d="M129 510q0 238 110.5 374t303 136t303 -131t110.5 -357v-67h-680q6 -121 31 -182q70 -166 275 -166q66 0 129 24q57 25 127 90l100 -88q-92 -90 -170 -120q-86 -35 -195 -35q-219 0 -331.5 133t-112.5 389zM276 575h533q-4 92 -18 134q-27 88 -92.5 137t-155.5 49 q-80 0 -142.5 -40t-93.5 -112q-27 -57 -31 -168z" />
<glyph unicode="&#x436;" horiz-adv-x="1464" d="M25 0l370 596l-329 412h180l411 -543v543h148v-543l414 543h178l-330 -412l373 -596h-178l-289 479l-168 -209v-270h-148v270l-165 209l-291 -479h-176z" />
<glyph unicode="&#x437;" horiz-adv-x="987" d="M66 133l92 96q68 -61 134 -86.5t161 -25.5q98 0 176 48t78 126q0 82 -56.5 125t-150.5 43h-148v123h150q84 0 136 43t52 118.5t-60.5 114.5t-166.5 39q-150 0 -270 -84l-84 98q150 109 368 109q156 0 256.5 -73t100.5 -199q0 -76 -42 -137.5t-118 -88.5q80 -25 128 -88 t48 -149q0 -133 -111.5 -214t-269.5 -81q-246 0 -403 143z" />
<glyph unicode="&#x438;" horiz-adv-x="1181" d="M186 0v1008h146v-777l518 777h147v-1008h-147v780l-518 -780h-146z" />
<glyph unicode="&#x439;" horiz-adv-x="1181" d="M186 0v1008h146v-777l518 777h147v-1008h-147v780l-518 -780h-146zM262 1450h119q39 -150 211 -150t207 150h119q-49 -266 -328 -266q-274 0 -328 266z" />
<glyph unicode="&#x43a;" horiz-adv-x="1091" d="M188 0v1008h148v-543l471 543h182l-364 -412l413 -596h-184l-330 487l-188 -213v-274h-148z" />
<glyph unicode="&#x43b;" horiz-adv-x="1150" d="M43 0v127h47q86 0 144.5 67.5t64.5 260.5l14 553h652v-1008h-148v881h-360l-13 -467q-10 -414 -317 -414h-84z" />
<glyph unicode="&#x43c;" horiz-adv-x="1343" d="M186 0v1008h146l342 -678l338 678h145v-1008h-147v717l-281 -557h-113l-284 557v-717h-146z" />
<glyph unicode="&#x43d;" horiz-adv-x="1150" d="M186 0v1008h146v-424h487v424h148v-1008h-148v457h-487v-457h-146z" />
<glyph unicode="&#x43e;" horiz-adv-x="1085" d="M131 503.5q0 276.5 123 401.5q115 115 289 115t288 -115q123 -123 123 -395q0 -283 -123 -408q-115 -115 -288.5 -114.5t-288.5 114.5q-123 125 -123 401.5zM279 504q0 -227 81 -311q70 -74 183 -74q115 0 184 74q80 82 80 305q0 129 -17.5 200.5t-62.5 116.5 q-70 74 -184 74q-113 0 -183 -74q-82 -82 -81 -311z" />
<glyph unicode="&#x43f;" horiz-adv-x="1150" d="M186 0v1008h781v-1008h-148v881h-487v-881h-146z" />
<glyph unicode="&#x440;" horiz-adv-x="1116" d="M184 -451v1459h148v-119q59 70 114 98q66 33 162 33q195 0 286 -125t91 -393q0 -262 -91 -388t-284 -126q-94 0 -161 32q-55 27 -117 99v-570h-148zM332 504q0 -203 60.5 -294t193.5 -91t192.5 91t59.5 292q0 207 -59.5 297t-194.5 90q-131 0 -191.5 -92t-60.5 -293z" />
<glyph unicode="&#x441;" horiz-adv-x="1003" d="M129 503.5q0 241.5 121 379t332 137.5q96 0 170 -31q72 -31 155 -119l-100 -94q-68 70 -115 90q-51 23 -112 23q-303 0 -303.5 -385t301.5 -385q63 0 110 20q49 23 119 94l100 -96q-84 -88 -155 -119q-74 -31 -170 -30q-211 0 -332 137t-121 378.5z" />
<glyph unicode="&#x442;" horiz-adv-x="866" d="M23 881v127h823v-127h-330v-881h-147v881h-346z" />
<glyph unicode="&#x443;" horiz-adv-x="915" d="M23 1008h159l277 -809l274 809h160l-459 -1252q-70 -188 -268 -188h-64v131h45q72 0 106 24.5t60 100.5l72 196z" />
<glyph unicode="&#x444;" horiz-adv-x="1413" d="M123 506q0 246 134 380t376 134v438h147v-438q242 0 376 -134t134 -380t-136 -382t-374 -136v-439h-147v439q-238 0 -374 136t-136 382zM268 502q0 -178 92.5 -280.5t272.5 -102.5v770q-190 0 -277.5 -104.5t-87.5 -282.5zM778 119q180 0 272.5 102.5t92.5 280.5 t-87 282.5t-278 104.5v-770z" />
<glyph unicode="&#x445;" horiz-adv-x="978" d="M68 0l342 514l-328 494h178l232 -373l227 373h178l-328 -494l342 -514h-178l-241 391l-246 -391h-178z" />
<glyph unicode="&#x446;" horiz-adv-x="1185" d="M186 0v1008h146v-881h487v881h148v-881h151v-438h-143v311h-789z" />
<glyph unicode="&#x447;" horiz-adv-x="1077" d="M150 662v346h147v-326q0 -174 190 -174h258v500h148v-1008h-148v381h-278q-147 0 -232 71.5t-85 209.5z" />
<glyph unicode="&#x448;" horiz-adv-x="1640" d="M186 0v1008h146v-881h413v881h148v-881h414v881h147v-1008h-1268z" />
<glyph unicode="&#x449;" horiz-adv-x="1671" d="M186 0v1008h146v-881h413v881h148v-881h414v881h147v-881h152v-438h-144v311h-1276z" />
<glyph unicode="&#x44a;" horiz-adv-x="1218" d="M23 881v127h487v-400h303q145 0 232.5 -84t87.5 -221t-88.5 -220t-231.5 -83h-448v881h-342zM510 127h287q92 0 140 46t48 130t-48 130t-140 46h-287v-352z" />
<glyph unicode="&#x44b;" horiz-adv-x="1470" d="M186 0v1008h146v-400h303q145 0 232 -84t87 -221t-88 -220t-231 -83h-449zM332 127h286q92 0 140.5 46t48.5 130t-48 130t-141 46h-286v-352zM1116 0v1008h148v-1008h-148z" />
<glyph unicode="&#x44c;" horiz-adv-x="1036" d="M186 0v1008h146v-400h303q145 0 232 -84t87 -221t-88 -220t-231 -83h-449zM332 127h286q92 0 140.5 46t48.5 130t-48 130t-141 46h-286v-352z" />
<glyph unicode="&#x44d;" horiz-adv-x="1003" d="M96 137l99 94q57 -61 107 -87.5t124 -26.5q150 0 223.5 97t77.5 251h-414v110h412q-10 143 -86 229.5t-215 86.5q-72 0 -122 -27.5t-107 -87.5l-99 94q78 82 149 116t177 34q211 0 330.5 -136t119.5 -378q0 -244 -118.5 -381t-331.5 -137q-106 0 -177 33.5t-149 115.5z " />
<glyph unicode="&#x44e;" horiz-adv-x="1490" d="M186 0v1008h146v-428h207q12 223 131 335q111 104 278 105q197 0 307 -135q105 -129 105 -375q0 -285 -123 -408q-111 -115 -289 -114q-168 0 -276 104q-127 119 -133 363h-207v-455h-146zM684 506q0 -123 16.5 -191.5t59.5 -115.5q74 -80 188.5 -80t188.5 80 q76 84 75 303q0 223 -77 309q-68 78 -187 78t-186 -78q-78 -84 -78 -305z" />
<glyph unicode="&#x44f;" horiz-adv-x="1077" d="M109 0l241 414q-109 23 -172 100.5t-63 192.5q0 135 87 218t230 83h459v-1008h-146v395h-241l-219 -395h-176zM262 700q0 -86 50 -132t143 -46h290v359h-290q-94 0 -143.5 -47.5t-49.5 -133.5z" />
<glyph unicode="&#x451;" horiz-adv-x="1085" d="M129 510q0 238 110.5 374t303 136t303 -131t110.5 -357v-67h-680q6 -121 31 -182q70 -166 275 -166q66 0 129 24q57 25 127 90l100 -88q-92 -90 -170 -120q-86 -35 -195 -35q-219 0 -331.5 133t-112.5 389zM240 1321q0 39 26.5 66.5t65.5 27.5q37 0 64.5 -27.5 t27.5 -64.5q0 -39 -26.5 -66.5t-65.5 -27.5t-65.5 26.5t-26.5 65.5zM276 575h533q-4 92 -18 134q-27 88 -92.5 137t-155.5 49q-80 0 -142.5 -40t-93.5 -112q-27 -57 -31 -168zM674 1321q0 39 26.5 66.5t65.5 27.5q37 0 64.5 -27.5t27.5 -64.5q0 -39 -26.5 -66.5t-65.5 -27.5 t-65.5 26.5t-26.5 65.5z" />
<glyph unicode="&#x452;" horiz-adv-x="1150" d="M68 905v111h118v442h146v-442h508v-111h-508v-266q125 125 293 125q166 0 259 -100.5t93 -274.5v-532q0 -135 -75 -222.5t-224 -87.5h-98v127h73q82 0 129 53.5t47 135.5v502q0 268 -237 268q-119 0 -189.5 -72t-70.5 -196v-365h-146v905h-118z" />
<glyph unicode="&#x453;" horiz-adv-x="854" d="M193 0v1008h638v-127h-491v-881h-147zM350 1217l180 313h177l-222 -313h-135z" />
<glyph unicode="&#x454;" horiz-adv-x="1003" d="M129 506q0 242 120 378t331 136q109 0 178 -34t149 -116l-98 -94q-59 61 -109.5 88t-121.5 27q-139 0 -214 -86t-85 -230h428v-110h-431q4 -156 77 -252t225 -96q74 0 124 26.5t107 87.5l98 -94q-78 -82 -148.5 -115.5t-178.5 -33.5q-213 0 -332 137t-119 381z" />
<glyph unicode="&#x455;" horiz-adv-x="1015" d="M88 133l98 98q63 -57 115 -79q88 -37 201 -37q129 0 197.5 46t68.5 134q0 131 -168 145l-166 15q-301 25 -301 268q0 137 102.5 217t276.5 80q113 0 223 -37q68 -25 131 -72l-96 -96q-53 39 -104 55q-74 25 -162 25q-109 0 -168.5 -43t-59.5 -125q0 -131 177 -145 l161 -15q297 -27 297 -270q0 -145 -111.5 -227t-312.5 -82q-135 0 -243 43q-74 31 -156 102z" />
<glyph unicode="&#x456;" horiz-adv-x="518" d="M158 1386.5q0 40.5 29.5 70.5t70.5 30t71.5 -29.5t30.5 -68.5q0 -43 -29.5 -73t-72.5 -30q-41 0 -70.5 30t-29.5 70.5zM184 0v1008h148v-1008h-148z" />
<glyph unicode="&#x457;" horiz-adv-x="518" d="M-55 1321q0 39 26.5 66.5t65.5 27.5q37 0 64.5 -27.5t27.5 -64.5q0 -39 -26.5 -66.5t-65.5 -27.5t-65.5 26.5t-26.5 65.5zM184 0v1008h148v-1008h-148zM379 1321q0 39 26.5 66.5t65.5 27.5q37 0 64.5 -27.5t27.5 -64.5q0 -39 -26.5 -66.5t-65.5 -27.5t-65.5 26.5 t-26.5 65.5z" />
<glyph unicode="&#x458;" horiz-adv-x="518" d="M-31 -324h80q72 0 103.5 35t31.5 113v1184h148v-1190q0 -127 -67.5 -199t-188.5 -72h-107v129zM158 1386.5q0 40.5 29.5 70.5t70.5 30t71.5 -29.5t30.5 -68.5q0 -43 -29.5 -73t-72.5 -30q-41 0 -70.5 30t-29.5 70.5z" />
<glyph unicode="&#x459;" horiz-adv-x="1673" d="M47 0v127h47q86 0 144.5 66.5t64.5 261.5l14 553h650v-400h303q145 0 232 -84t87 -221t-88 -220t-231 -83h-449v881h-360l-12 -467q-10 -414 -318 -414h-84zM967 127h286q92 0 140.5 46t48.5 130t-48 130t-141 46h-286v-352z" />
<glyph unicode="&#x45a;" horiz-adv-x="1671" d="M186 0v1008h146v-400h487v400h148v-400h303q145 0 232 -84t87 -221t-88 -220t-231 -83h-451v481h-487v-481h-146zM967 127h286q92 0 140.5 46t48.5 130t-48 130t-141 46h-286v-352z" />
<glyph unicode="&#x45b;" horiz-adv-x="1150" d="M68 905v111h118v442h146v-442h508v-111h-508v-266q66 66 130 95.5t154 29.5q166 0 263.5 -101.5t97.5 -273.5v-389h-148v365q0 129 -63.5 198.5t-182 69.5t-185 -70.5t-66.5 -197.5v-365h-146v905h-118z" />
<glyph unicode="&#x45c;" horiz-adv-x="1091" d="M188 0v1008h148v-543l471 543h182l-364 -412l413 -596h-184l-330 487l-188 -213v-274h-148zM412 1217l180 313h176l-221 -313h-135z" />
<glyph unicode="&#x45e;" horiz-adv-x="915" d="M23 1008h159l277 -809l274 809h160l-459 -1252q-70 -188 -268 -188h-64v131h45q72 0 106 24.5t60 100.5l72 196zM129 1450h119q39 -150 211 -150t207 150h118q-49 -266 -327 -266q-274 0 -328 266z" />
<glyph unicode="&#x45f;" horiz-adv-x="1153" d="M186 0v1008h146v-881h487v881h148v-1008h-320v-311h-143v311h-318z" />
<glyph unicode="&#x490;" horiz-adv-x="1165" d="M225 0v1458h723v373h154v-512h-721v-1319h-156z" />
<glyph unicode="&#x491;" horiz-adv-x="854" d="M193 0v1008h495v311h143v-438h-491v-881h-147z" />
<glyph unicode="&#x2000;" horiz-adv-x="949" />
<glyph unicode="&#x2001;" horiz-adv-x="1898" />
<glyph unicode="&#x2002;" horiz-adv-x="949" />
<glyph unicode="&#x2003;" horiz-adv-x="1898" />
<glyph unicode="&#x2004;" horiz-adv-x="632" />
<glyph unicode="&#x2005;" horiz-adv-x="474" />
<glyph unicode="&#x2006;" horiz-adv-x="316" />
<glyph unicode="&#x2007;" horiz-adv-x="316" />
<glyph unicode="&#x2008;" horiz-adv-x="237" />
<glyph unicode="&#x2009;" horiz-adv-x="379" />
<glyph unicode="&#x200a;" horiz-adv-x="105" />
<glyph unicode="&#x2010;" horiz-adv-x="872" d="M156 483v138h561v-138h-561z" />
<glyph unicode="&#x2011;" horiz-adv-x="872" d="M156 483v138h561v-138h-561z" />
<glyph unicode="&#x2012;" horiz-adv-x="872" d="M156 483v138h561v-138h-561z" />
<glyph unicode="&#x2013;" horiz-adv-x="1335" d="M156 483v138h1024v-138h-1024z" />
<glyph unicode="&#x2014;" horiz-adv-x="2359" d="M156 483v138h2048v-138h-2048z" />
<glyph unicode="&#x202f;" horiz-adv-x="379" />
<glyph unicode="&#x205f;" horiz-adv-x="474" />
<glyph unicode="&#xe000;" horiz-adv-x="1003" d="M0 0v1004h1004v-1004h-1004z" />
</font>
</defs>
</svg>
